<svg width="150" height="150" viewBox="0 0 150 150" fill="none" xmlns="http://www.w3.org/2000/svg">
<path d="M75 122.697C103.319 122.697 126.276 113.691 126.276 102.582C126.276 91.4727 103.319 82.4668 75 82.4668C46.6809 82.4668 23.7236 91.4727 23.7236 102.582C23.7236 113.691 46.6809 122.697 75 122.697Z" fill="#D1FAE5"/>
<path d="M100.174 99.8359L102.546 103.072H58.3238L55.9502 99.8359H100.174Z" fill="#6EE7B7"/>
<path d="M102.547 103.385H58.3243C58.2243 103.385 58.1312 103.337 58.0729 103.257L55.6993 100.022C55.6298 99.9277 55.6187 99.8013 55.6729 99.6957C55.7257 99.5902 55.834 99.5249 55.9521 99.5249H100.176C100.276 99.5249 100.369 99.5721 100.427 99.6527L102.801 102.887C102.87 102.982 102.881 103.108 102.827 103.214C102.773 103.318 102.665 103.385 102.547 103.385ZM58.4826 102.76H101.931L100.016 100.15H56.5673L58.4826 102.76Z" fill="#D1FAE5"/>
<path d="M111.07 31.5181L113.442 34.7542L102.546 103.072L100.174 99.8361L111.07 31.5181Z" fill="#A7F3D0"/>
<path d="M102.546 103.385C102.447 103.385 102.354 103.339 102.295 103.257L99.921 100.022C99.871 99.9555 99.8515 99.8707 99.864 99.7874L110.76 31.4694C110.779 31.3444 110.872 31.2444 110.995 31.2152C111.117 31.186 111.246 31.2319 111.32 31.3346L113.693 34.5694C113.743 34.636 113.763 34.7207 113.75 34.8041L102.854 103.122C102.835 103.247 102.742 103.347 102.62 103.376C102.596 103.382 102.571 103.385 102.546 103.385ZM100.503 99.7569L102.356 102.283L113.113 34.8332L111.26 32.3069L100.503 99.7569Z" fill="#D1FAE5"/>
<path d="M111.071 31.5181L100.175 99.8361H55.9512L56.647 95.4708H95.9081L106.108 31.5181H111.071Z" fill="#D1FAE5"/>
<path d="M100.174 100.149H55.9507C55.8591 100.149 55.773 100.108 55.7133 100.039C55.6535 99.9694 55.6285 99.8777 55.6424 99.7874L56.3383 95.4208C56.3619 95.2694 56.4938 95.1569 56.6466 95.1569H95.641L105.798 31.468C105.822 31.3166 105.954 31.2041 106.106 31.2041H111.069C111.16 31.2041 111.247 31.2444 111.306 31.3138C111.366 31.3833 111.391 31.4749 111.377 31.5652L100.481 99.8833C100.458 100.037 100.327 100.149 100.174 100.149ZM56.3174 99.5235H99.9077L110.704 31.8305H106.374L96.2174 95.5194C96.1938 95.6708 96.0619 95.7833 95.9091 95.7833H56.9132L56.3174 99.5235Z" fill="#D1FAE5"/>
<path d="M47.1117 100.636L49.484 103.871L39.234 113.525L36.8604 110.29L47.1117 100.636Z" fill="#6EE7B7"/>
<path d="M39.2339 113.838C39.2242 113.838 39.2144 113.838 39.2047 113.836C39.1158 113.828 39.0339 113.782 38.9811 113.71L36.6075 110.475C36.5144 110.347 36.5297 110.171 36.645 110.063L46.895 100.408C46.9603 100.347 47.0492 100.317 47.1381 100.325C47.2269 100.333 47.3089 100.379 47.3617 100.451L49.7353 103.686C49.8283 103.814 49.8131 103.99 49.6978 104.099L39.4478 113.753C39.3894 113.807 39.3131 113.838 39.2339 113.838ZM37.2756 110.328L39.2756 113.056L49.0672 103.833L47.0672 101.106L37.2756 110.328Z" fill="#D1FAE5"/>
<path d="M56.6465 95.4707L55.9506 99.836L54.284 110.29L47.1117 100.636L36.8604 110.29L39.2242 95.4707H56.6465Z" fill="#A7F3D0"/>
<path d="M54.2842 110.603C54.187 110.603 54.0925 110.557 54.0328 110.476L47.0703 101.104L37.0759 110.516C36.9786 110.608 36.8328 110.628 36.7161 110.565C36.5981 110.503 36.5328 110.372 36.5536 110.24L38.9175 95.4206C38.9411 95.2692 39.0731 95.1567 39.2259 95.1567H56.6481C56.7398 95.1567 56.8259 95.197 56.8856 95.2665C56.9453 95.3359 56.9703 95.4276 56.9564 95.5178L54.5925 110.337C54.5731 110.461 54.48 110.562 54.3578 110.591C54.3328 110.598 54.3078 110.603 54.2842 110.603ZM47.112 100.323C47.1217 100.323 47.13 100.323 47.1398 100.325C47.2286 100.333 47.3092 100.378 47.3634 100.45L54.0925 109.508L56.2814 95.7831H39.4911L37.3134 109.435L46.8967 100.41C46.955 100.353 47.0314 100.323 47.112 100.323Z" fill="#D1FAE5"/>
<path d="M56.6467 95.4707L55.9508 99.836L54.2842 110.29L56.6564 113.525L58.3245 103.072L59.0203 98.7054L56.6467 95.4707Z" fill="#A7F3D0"/>
<path d="M56.6563 113.837C56.5577 113.837 56.4647 113.791 56.4049 113.709L54.0313 110.475C53.9813 110.408 53.9619 110.323 53.9744 110.24L56.3383 95.4205C56.3577 95.2955 56.4508 95.1955 56.573 95.1664C56.6952 95.1372 56.8244 95.183 56.898 95.2858L59.2716 98.5205C59.3216 98.5872 59.3411 98.6719 59.3286 98.7552L56.9647 113.575C56.9452 113.7 56.8522 113.8 56.7299 113.829C56.7063 113.834 56.6813 113.837 56.6563 113.837ZM54.6133 110.209L56.466 112.736L58.6911 98.7844L56.8383 96.258L54.6133 110.209Z" fill="#D1FAE5"/>
<path d="M106.803 27.1528L106.107 31.5181L95.907 95.4709H56.6459H39.2237H34.2598L45.1556 27.1528H106.803Z" fill="#10B981"/>
<path d="M73.9957 78.0874C74.393 78.0874 74.6652 78.3971 74.6041 78.7805C74.543 79.1638 74.1721 79.4749 73.7749 79.4749H50.3874C49.9902 79.4749 49.718 79.1638 49.7791 78.7805C49.8402 78.3971 50.211 78.0874 50.6082 78.0874H73.9957Z" fill="#A7F3D0"/>
<path d="M73.7732 79.7874H50.3871C50.1038 79.7874 49.8413 79.6707 49.669 79.4693C49.4968 79.268 49.4274 79.0055 49.4704 78.7318C49.5565 78.1957 50.0552 77.7749 50.6079 77.7749H73.9954C74.2802 77.7749 74.5413 77.8916 74.7149 78.093C74.8857 78.2944 74.9565 78.5555 74.9121 78.8291C74.826 79.3666 74.326 79.7874 73.7732 79.7874ZM50.6079 78.3999C50.3635 78.3999 50.1246 78.5971 50.0871 78.8305C50.0718 78.9221 50.0927 79.0041 50.144 79.0638C50.1982 79.1277 50.2843 79.1624 50.3871 79.1624H73.7746C74.019 79.1624 74.2579 78.9652 74.2954 78.7318C74.3107 78.6402 74.2913 78.5596 74.2399 78.4999C74.1857 78.436 74.0996 78.4013 73.9968 78.4013H50.6079V78.3999Z" fill="#A7F3D0"/>
<path d="M86.4994 69.3525C86.8967 69.3525 87.1689 69.6623 87.1078 70.0456C87.0467 70.4289 86.6758 70.74 86.2786 70.74H51.78C51.3828 70.74 51.1105 70.4289 51.1717 70.0456C51.2328 69.6623 51.6036 69.3525 52.0008 69.3525H86.4994Z" fill="#A7F3D0"/>
<path d="M86.2783 71.0525H51.7797C51.4963 71.0525 51.2338 70.9359 51.0616 70.7345C50.8894 70.5331 50.82 70.2706 50.863 69.997C50.9491 69.4609 51.4477 69.04 52.0005 69.04H86.4991C86.7838 69.04 87.045 69.1567 87.2186 69.3581C87.3894 69.5595 87.4602 69.8206 87.4172 70.0942C87.3297 70.6317 86.8297 71.0525 86.2783 71.0525ZM52.0005 69.665C51.7561 69.665 51.5172 69.8623 51.4797 70.0942C51.4644 70.1859 51.4838 70.2678 51.5366 70.3275C51.5908 70.3914 51.6769 70.4262 51.7797 70.4262H86.2783C86.5227 70.4262 86.7616 70.2289 86.7991 69.9956C86.813 69.9039 86.795 69.8234 86.7436 69.7636C86.6894 69.6998 86.6033 69.665 86.5005 69.665H52.0005Z" fill="#A7F3D0"/>
<path d="M87.893 60.6177C88.2902 60.6177 88.5624 60.9288 88.5013 61.3107C88.4402 61.6941 88.0694 62.0052 87.6722 62.0052H53.1735C52.7763 62.0052 52.5041 61.6941 52.5652 61.3107C52.6263 60.9288 52.9972 60.6177 53.3944 60.6177H87.893Z" fill="#A7F3D0"/>
<path d="M87.6718 62.3177H53.1732C52.8899 62.3177 52.6274 62.201 52.4552 61.9996C52.283 61.7982 52.2135 61.5357 52.2566 61.2621C52.3427 60.726 52.8413 60.3052 53.3941 60.3052H87.8927C88.176 60.3052 88.4385 60.4218 88.6107 60.6232C88.7816 60.8246 88.8524 61.0857 88.8093 61.3593C88.7232 61.8968 88.2232 62.3177 87.6718 62.3177ZM53.3941 60.9302C53.1496 60.9302 52.9107 61.1274 52.8732 61.3593C52.858 61.451 52.8788 61.533 52.9302 61.5927C52.9843 61.6566 53.0705 61.6913 53.1732 61.6913H87.6718C87.9163 61.6913 88.1552 61.4941 88.1927 61.2607C88.2066 61.1691 88.1871 61.0885 88.1357 61.0288C88.0816 60.9649 87.9955 60.9302 87.8927 60.9302H53.3941Z" fill="#A7F3D0"/>
<path d="M89.2865 51.8833C89.6838 51.8833 89.956 52.1944 89.8949 52.5777C89.8338 52.9597 89.4629 53.2708 89.0657 53.2708H54.5671C54.1699 53.2708 53.8977 52.9597 53.9588 52.5777C54.0199 52.1944 54.3907 51.8833 54.7879 51.8833H89.2865Z" fill="#A7F3D0"/>
<path d="M89.0653 53.5834H54.5667C54.2833 53.5834 54.0208 53.4667 53.8486 53.2653C53.6778 53.0639 53.6069 52.8028 53.65 52.5292C53.7361 51.9917 54.2361 51.5723 54.7875 51.5723H89.2861C89.5694 51.5723 89.8319 51.6889 90.0042 51.8903C90.1764 52.0917 90.2458 52.3528 90.2028 52.6278C90.1167 53.1625 89.6167 53.5834 89.0653 53.5834ZM54.7875 52.1959C54.5431 52.1959 54.3042 52.3931 54.2667 52.6264C54.2528 52.7181 54.2722 52.7987 54.3236 52.8584C54.3778 52.9223 54.4639 52.957 54.5667 52.957H89.0653C89.3097 52.957 89.5486 52.7598 89.5861 52.5264C89.6014 52.4348 89.5806 52.3528 89.5292 52.2931C89.475 52.2292 89.3889 52.1945 89.2861 52.1945H54.7875V52.1959Z" fill="#A7F3D0"/>
<path d="M90.6781 43.1484C91.0754 43.1484 91.3476 43.4595 91.2865 43.8429C91.2254 44.2262 90.8545 44.5359 90.4573 44.5359H55.9587C55.5615 44.5359 55.2893 44.2262 55.3504 43.8429C55.4115 43.4595 55.7823 43.1484 56.1795 43.1484H90.6781Z" fill="#A7F3D0"/>
<path d="M90.4575 44.8484H55.9589C55.6742 44.8484 55.4131 44.7318 55.2395 44.5304C55.0687 44.329 54.9978 44.0679 55.0423 43.7943C55.1284 43.2568 55.627 42.8359 56.1798 42.8359H90.6784C90.9617 42.8359 91.2242 42.9526 91.3964 43.154C91.5686 43.3554 91.6381 43.6179 91.595 43.8915C91.5089 44.4276 91.0089 44.8484 90.4575 44.8484ZM56.1798 43.4609C55.9353 43.4609 55.6964 43.6582 55.6589 43.8915C55.6436 43.9832 55.6631 44.0637 55.7145 44.1234C55.7687 44.1873 55.8548 44.222 55.9575 44.222H90.4562C90.7006 44.222 90.9395 44.0248 90.977 43.7929C90.9923 43.7012 90.9728 43.6193 90.92 43.5595C90.8659 43.4957 90.7798 43.4609 90.677 43.4609H56.1798Z" fill="#A7F3D0"/>
<path d="M106.804 27.1528L106.108 31.5181L95.9082 95.4709L98.2818 98.7056L108.48 34.7542L109.178 30.3876L106.804 27.1528Z" fill="#A7F3D0"/>
<path d="M98.2813 99.0179C98.1827 99.0179 98.0897 98.9721 98.0299 98.8902L95.6563 95.6554C95.6063 95.5888 95.5869 95.5041 95.5994 95.4207L106.495 27.1027C106.515 26.9777 106.608 26.8777 106.73 26.8485C106.852 26.8193 106.981 26.8652 107.055 26.9679L109.429 30.2027C109.479 30.2693 109.498 30.354 109.485 30.4374L98.5897 98.7554C98.5702 98.8804 98.4772 98.9804 98.3549 99.0096C98.3299 99.0152 98.3049 99.0179 98.2813 99.0179ZM96.2369 95.3902L98.091 97.9165L108.848 30.4665L106.995 27.9402L96.2369 95.3902Z" fill="#D1FAE5"/>
<path d="M95.907 95.4707H56.6459H36.3709H34.2598L36.6334 98.7054H38.7431H59.0195H98.2806L95.907 95.4707Z" fill="#A7F3D0"/>
<path d="M98.2811 99.0179H36.6339C36.5339 99.0179 36.4408 98.9707 36.3825 98.8901L34.0089 95.6554C33.9394 95.561 33.9283 95.4346 33.9825 95.329C34.0352 95.2235 34.1436 95.1582 34.2616 95.1582H95.9089C96.0089 95.1582 96.1019 95.2054 96.1602 95.286L98.5339 98.5207C98.6033 98.6151 98.6144 98.7415 98.5602 98.8471C98.5061 98.9513 98.3991 99.0179 98.2811 99.0179ZM36.7922 98.3929H97.6644L95.7491 95.7832H34.8769L36.7922 98.3929Z" fill="#D1FAE5"/>
<path d="M118.621 39.6987L118.924 41.5862C119.106 42.7182 119.882 43.6043 120.999 43.9529L122.866 44.5348L120.814 45.1168C119.586 45.4654 118.527 46.3515 117.984 47.4835L117.079 49.371L116.775 47.4835C116.593 46.3515 115.817 45.4654 114.7 45.1168L112.835 44.5348L114.885 43.9529C116.113 43.6043 117.172 42.7182 117.716 41.5862L118.621 39.6987Z" fill="#10B981"/>
<path d="M39.3418 28.6875L39.5737 30.1347C39.714 31.0028 40.3085 31.6819 41.1654 31.95L42.596 32.3958L41.0224 32.8431C40.0807 33.1097 39.2682 33.7889 38.8515 34.6569L38.1585 36.1056L37.9265 34.6569C37.7862 33.7889 37.1918 33.1111 36.3349 32.8431L34.9043 32.3958L36.4765 31.95C37.4182 31.6833 38.2307 31.0028 38.6474 30.1347L39.3418 28.6875Z" fill="#10B981"/>
<path d="M91.624 82.5708L91.7532 83.3777C91.8309 83.8611 92.1629 84.2389 92.6407 84.3889L93.4365 84.6375L92.5615 84.8861C92.0365 85.0361 91.5823 85.4139 91.3504 85.8972L90.9643 86.7041L90.8351 85.8972C90.7573 85.4139 90.4268 85.0361 89.9476 84.8861L89.1504 84.6375L90.0268 84.3889C90.5518 84.2389 91.0046 83.8611 91.2365 83.3777L91.624 82.5708Z" fill="#D1FAE5"/>
<path d="M29.6056 88.3237L29.7348 89.1293C29.8125 89.6126 30.1445 89.9918 30.6223 90.1404L31.4181 90.389L30.5431 90.6376C30.0181 90.7876 29.5639 91.1654 29.332 91.6501L28.9459 92.4557L28.8167 91.6501C28.7403 91.1668 28.4084 90.7876 27.9306 90.6376L27.1348 90.389L28.0098 90.1404C28.5348 89.9918 28.9875 89.614 29.2195 89.1293L29.6056 88.3237Z" fill="#10B981"/>
</svg>
