<svg width="220" height="41" viewBox="0 0 220 41" fill="none" xmlns="http://www.w3.org/2000/svg">
<mask id="mask0_1965_32467" style="mask-type:luminance" maskUnits="userSpaceOnUse" x="0" y="0" width="220" height="41">
<path d="M219.028 0H0V41H219.028V0Z" fill="white"/>
</mask>
<g mask="url(#mask0_1965_32467)">
<path d="M61.8633 20.1505C61.8633 13.5241 66.8717 9.255 72.7982 9.255C75.7918 9.255 79.2583 10.3286 81.421 14.0305L78.0432 16.3891C76.828 14.5978 74.9624 13.7326 72.9165 13.7326C69.4795 13.7326 66.6944 16.1806 66.6944 20.1505C66.6944 24.1799 69.5386 26.5684 72.9475 26.5684C75.0806 26.5684 76.8295 25.7033 78.0446 23.9119L81.4225 26.2706C79.2583 29.9724 75.7621 31.046 72.7686 31.046C66.8422 31.046 61.8633 26.7769 61.8633 20.1505Z" fill="#19223D"/>
<path d="M93.6303 21.4638C93.305 19.6725 91.7336 18.8074 90.1918 18.8074C88.6514 18.8074 87.111 19.6129 86.6054 21.4638H93.6288H93.6303ZM82.28 23.0169C82.28 17.7635 86.1619 14.9283 90.1326 14.9283C94.0441 14.9283 98.6372 17.6741 97.66 24.7785H86.6956C87.318 26.4492 88.8598 27.2861 90.9028 27.2861C92.2673 27.2861 93.4809 26.957 94.6074 26.0918L96.683 28.2719C95.4086 29.883 93.2149 31.0475 90.4002 31.0475C86.1338 31.0475 82.28 28.123 82.28 23.0185V23.0169Z" fill="#19223D"/>
<path d="M99.8508 15.2247H104.446V19.4343C104.948 16.9267 106.431 14.9254 109.216 14.9254C109.571 14.9254 109.927 14.9552 110.313 15.0743V19.4626C109.957 19.403 109.631 19.3733 109.247 19.3733C106.194 19.3733 104.447 21.4326 104.447 24.3587V30.7468H99.8524V15.2247H99.8508Z" fill="#19223D"/>
<path d="M113.896 25.9713V18.8968H111.615V15.2247H113.896V11.2548H118.489V15.2247H121.719V18.8968H118.489V25.2252C118.489 26.001 118.934 26.8364 120.327 26.8364C120.681 26.8364 121.215 26.7769 121.778 26.5982V30.1213C121.185 30.7184 119.881 30.9269 118.814 30.9269C115.968 30.9269 113.896 29.5242 113.896 25.9713Z" fill="#19223D"/>
<path d="M123.912 15.2247H128.505V30.7468H123.912V15.2247ZM123.912 9.55286H128.505V13.5823H123.912V9.55286Z" fill="#19223D"/>
<path d="M137.839 8.86635C138.581 8.86635 139.795 8.89614 140.745 9.46348V13.0745C139.914 12.717 139.202 12.7767 139.084 12.7767C137.544 12.7767 136.892 13.6731 136.892 14.985V15.2232H140.745V18.8952H136.892V30.7453H132.299V18.8952H130.254V15.2232H132.299V14.5069C132.299 9.61089 135.706 8.86487 137.841 8.86487L137.839 8.86635Z" fill="#19223D"/>
<path d="M142.639 15.2247H147.232V30.7468H142.639V15.2247ZM142.639 9.55286H147.232V13.5823H142.639V9.55286Z" fill="#19223D"/>
<path d="M150.017 9.55286H154.61V21.1051L159.707 15.2247H165.189L159.145 21.9717L165.811 30.7468H160.744L156.299 25.1046L154.61 27.0151V30.7468H150.017V9.55286Z" fill="#19223D"/>
<path d="M167.557 9.55286H179.739V13.8816H172.24V17.9408H178.523V22.2099H172.24V26.4181H180.005V30.7468H167.557V9.55286Z" fill="#19223D"/>
<path d="M190.345 26.2989C193.902 26.2989 195.739 23.7616 195.739 20.1491C195.739 16.5366 193.902 13.9993 190.345 13.9993H187.026V26.2974H190.345V26.2989ZM182.345 9.55288H190.524C196.155 9.55288 200.6 13.9411 200.6 20.1491C200.6 26.3585 196.155 30.7453 190.524 30.7453H182.345V9.55139V9.55288Z" fill="#19223D"/>
<path d="M202.79 22.7177V9.55286H207.471V22.746C207.471 25.9103 209.397 26.6265 210.91 26.6265C212.421 26.6265 214.348 25.9103 214.348 22.746V9.55286H219.03V22.7177C219.03 28.1498 215.385 31.0461 210.91 31.0461C206.405 31.0461 202.79 28.1498 202.79 22.7177Z" fill="#19223D"/>
<path d="M18.7032 27.197H14.7222V14.7216H18.7032V27.197Z" fill="#FF790D"/>
<path d="M25.3333 27.197H21.3538V14.7216H25.3333V27.197Z" fill="#FF790D"/>
<path d="M31.9649 27.197H27.9839V14.7216H31.9649V27.197Z" fill="#FF790D"/>
<path fill-rule="evenodd" clip-rule="evenodd" d="M3.34671 19.396C3.34671 16.1721 3.5995 14.3526 4.72151 11.5442C5.92188 8.53622 6.46737 8.41264 7.69878 6.55874L10.5342 9.33884C12.2785 8.21607 12.1884 7.3539 16.1427 5.35856C22.4211 2.19131 29.6439 2.9418 35.4269 6.96377C35.9266 7.31072 36.3139 7.59364 36.7249 8.00463C37.1816 8.46326 37.5926 8.6628 37.9637 9.10506C41.1657 12.9216 43.2914 16.6546 43.2914 22.3682C43.2914 26.0224 41.9299 30.4777 39.8293 33.2845C39.4568 33.7818 39.2217 34.041 38.9394 34.58L36.0227 31.7255C33.7077 33.368 34.2813 33.7745 30.2367 35.8324C25.691 38.1463 19.2974 38.3176 14.589 36.0945C13.5631 35.6105 12.4293 35.0237 11.5852 34.4237C10.58 33.7104 9.94133 33.1565 9.06028 32.269C5.65874 28.8411 3.34818 24.505 3.34818 19.393L3.34671 19.396ZM10.6509 4.83739L7.73574 1.82499C6.57232 2.62165 4.53821 5.06521 3.71776 6.30709C-0.269176 12.3319 -1.10441 20.1852 1.47964 26.7565C4.69786 34.9418 12.7368 41.0009 21.3759 41.0009C28.1124 41.0009 30.9581 39.5907 35.8305 36.3044L38.9024 39.3152C39.5115 38.8909 41.3239 36.8672 41.8043 36.2165C45.1644 31.6763 46.554 27.784 46.554 21.5879C46.554 15.9444 43.154 8.78639 39.2498 5.7755C37.0619 4.08838 36.5874 3.39596 33.3973 1.96497C31.344 1.04472 29.3941 0.474412 27.088 0.179577C24.6517 -0.131639 22.5955 -0.0333604 20.2715 0.435696C19.018 0.688838 17.7541 1.02239 16.6232 1.4572C15.5308 1.8786 14.3851 2.42509 13.4567 2.96414C12.4308 3.55976 11.6073 4.19112 10.6524 4.83589L10.6509 4.83739Z" fill="#FF790D"/>
</g>
</svg>
