<svg width="37" height="37" viewBox="0 0 37 37" fill="none" xmlns="http://www.w3.org/2000/svg">
<path d="M15.5482 1.43656C16.9737 -0.0485283 19.3488 -0.0485284 20.7744 1.43656L21.157 1.83515C22.0446 2.75981 23.3548 3.14654 24.6023 2.85208L25.1323 2.72696C27.1275 2.25598 29.1157 3.53323 29.5167 5.54368L29.6389 6.15644C29.8875 7.40244 30.7707 8.42713 31.9664 8.85672L32.5407 9.06303C34.4553 9.75091 35.4281 11.8803 34.6945 13.778L34.4506 14.409C33.9958 15.5856 34.1857 16.9139 34.9521 17.9158L35.3606 18.4499C36.594 20.0623 36.2616 22.3734 34.6238 23.5729L34.1013 23.9555C33.081 24.7029 32.5243 25.9283 32.6327 27.1884L32.6892 27.8449C32.8643 29.8793 31.3241 31.6563 29.2854 31.7719L28.7146 31.8042C27.4397 31.8765 26.2971 32.6147 25.7072 33.7471L25.4368 34.2661C24.4868 36.0897 22.211 36.7577 20.4261 35.7369L19.9596 35.4701C18.8454 34.8328 17.4771 34.8328 16.363 35.4701L15.8965 35.7369C14.1115 36.7577 11.8357 36.0897 10.8857 34.2661L10.6154 33.7471C10.0254 32.6147 8.88282 31.8765 7.60798 31.8042L7.03712 31.7719C4.99846 31.6563 3.45823 29.8793 3.63332 27.8449L3.68982 27.1884C3.79827 25.9283 3.24159 24.7029 2.2212 23.9555L1.6987 23.5729C0.0609239 22.3734 -0.271449 20.0623 0.961931 18.4499L1.37044 17.9158C2.1368 16.9139 2.32678 15.5856 1.87198 14.409L1.62802 13.778C0.894448 11.8803 1.8672 9.75091 3.78186 9.06303L4.35611 8.85672C5.55184 8.42713 6.43506 7.40244 6.68362 6.15643L6.80585 5.54368C7.20689 3.53323 9.195 2.25598 11.1902 2.72696L11.7203 2.85208C12.9677 3.14654 14.2779 2.75981 15.1655 1.83515L15.5482 1.43656Z" fill="#FFEFD4"/>
<rect width="7.28256" height="2.50054" rx="1.25027" transform="matrix(0.699674 0.714462 -0.699674 0.714462 12.4258 16.9414)" fill="#FFBF70"/>
<rect width="13.8827" height="2.50054" rx="1.25027" transform="matrix(-0.699674 0.714463 -0.699674 -0.714463 25.6562 14.0645)" fill="#FFBF70"/>
<path d="M31.0346 18.1582C31.0346 25.3347 25.2783 31.1524 18.1775 31.1524C11.0767 31.1524 5.32031 25.3347 5.32031 18.1582C5.32031 10.9817 11.0767 5.16406 18.1775 5.16406C25.2783 5.16406 31.0346 10.9817 31.0346 18.1582ZM7.89174 18.1582C7.89174 23.8994 12.4968 28.5535 18.1775 28.5535C23.8581 28.5535 28.4632 23.8994 28.4632 18.1582C28.4632 12.417 23.8581 7.76289 18.1775 7.76289C12.4968 7.76289 7.89174 12.417 7.89174 18.1582Z" fill="#FFBF70"/>
</svg>
