<svg width="120" height="120" viewBox="0 0 120 120" fill="none" xmlns="http://www.w3.org/2000/svg">
<path d="M59.9999 99.6033C82.6209 99.6033 100.959 92.4095 100.959 83.5356C100.959 74.6616 82.6209 67.4678 59.9999 67.4678C37.3789 67.4678 19.041 74.6616 19.041 83.5356C19.041 92.4095 37.3789 99.6033 59.9999 99.6033Z" fill="#F9FAFB"/>
<path d="M48.5022 20.3967L51.4999 24.4856L43.2866 75.9844L40.2877 71.8967L48.5022 20.3967Z" fill="#D0D5DD"/>
<path d="M43.2866 76.2344C43.2077 76.2344 43.1333 76.1978 43.0855 76.1322L40.0866 72.0445C40.0466 71.9911 40.031 71.9233 40.041 71.8567L48.2544 20.3567C48.2699 20.2567 48.3444 20.1767 48.4421 20.1533C48.5399 20.13 48.6433 20.1667 48.7021 20.2489L51.701 24.3367C51.741 24.39 51.7566 24.4578 51.7466 24.5244L43.5333 76.0244C43.5177 76.1244 43.4433 76.2044 43.3455 76.2278C43.3255 76.2322 43.3066 76.2344 43.2866 76.2344ZM40.551 71.8333L43.1333 75.3544L51.2366 24.5489L48.6544 21.0278L40.551 71.8333Z" fill="#F9FAFB"/>
<path d="M58.161 28.98L61.1587 33.0678L54.3143 75.9844L51.3165 71.8966L58.161 28.98Z" fill="#D0D5DD"/>
<path d="M54.3144 76.2344C54.2355 76.2344 54.1611 76.1978 54.1133 76.1322L51.1144 72.0444C51.0744 71.9911 51.0589 71.9233 51.0689 71.8567L57.9133 28.94C57.9289 28.84 58.0033 28.76 58.1011 28.7367C58.1989 28.7133 58.3022 28.75 58.3611 28.8322L61.36 32.92C61.4 32.9733 61.4155 33.0411 61.4055 33.1078L54.5611 76.0244C54.5455 76.1244 54.4711 76.2044 54.3733 76.2278C54.3533 76.2322 54.3344 76.2344 54.3144 76.2344ZM51.58 71.8333L54.1622 75.3544L60.8966 33.1322L58.3144 29.6111L51.58 71.8333Z" fill="#F9FAFB"/>
<path d="M67.82 37.5634L70.8188 41.6511L68.0566 58.9678L65.0577 54.88L67.82 37.5634Z" fill="#D0D5DD"/>
<path d="M68.0566 59.2178C67.9777 59.2178 67.9033 59.1811 67.8555 59.1156L64.8566 55.0278C64.8166 54.9745 64.801 54.9067 64.811 54.84L67.5733 37.5234C67.5888 37.4234 67.6633 37.3434 67.761 37.32C67.8588 37.2967 67.9622 37.3334 68.0211 37.4156L71.0199 41.5034C71.0599 41.5567 71.0755 41.6245 71.0655 41.6911L68.3033 59.0078C68.2877 59.1078 68.2133 59.1878 68.1155 59.2111C68.0955 59.2156 68.0755 59.2178 68.0566 59.2178ZM65.3211 54.8167L67.9033 58.3378L70.5555 41.7145L67.9733 38.1934L65.3211 54.8167Z" fill="#F9FAFB"/>
<path d="M77.4933 46.0422L80.4922 50.13L79.47 56.54L76.4711 52.4522L77.4933 46.0422Z" fill="#D0D5DD"/>
<path d="M79.4699 56.79C79.391 56.79 79.3166 56.7533 79.2688 56.6877L76.2699 52.6C76.2299 52.5466 76.2144 52.4788 76.2244 52.4122L77.2466 46.0022C77.2622 45.9022 77.3366 45.8222 77.4344 45.7988C77.5322 45.7755 77.6355 45.8122 77.6944 45.8944L80.6933 49.9822C80.7333 50.0355 80.7488 50.1033 80.7388 50.17L79.7166 56.58C79.701 56.68 79.6266 56.76 79.5288 56.7833C79.5088 56.7877 79.4899 56.79 79.4699 56.79ZM76.7344 52.3888L79.3166 55.91L80.2288 50.1944L77.6466 46.6733L76.7344 52.3888Z" fill="#F9FAFB"/>
<path d="M74.8967 62.33L77.8944 66.4178L76.3689 75.9845L73.37 71.8967L74.8967 62.33Z" fill="#D0D5DD"/>
<path d="M76.3689 76.2344C76.29 76.2344 76.2155 76.1977 76.1678 76.1322L73.1689 72.0444C73.1289 71.9911 73.1133 71.9233 73.1233 71.8566L74.6489 62.29C74.6644 62.19 74.7389 62.11 74.8366 62.0866C74.9344 62.0633 75.0378 62.1 75.0966 62.1822L78.0955 66.27C78.1355 66.3233 78.1511 66.3911 78.1411 66.4577L76.6155 76.0244C76.6 76.1244 76.5255 76.2044 76.4277 76.2277C76.4077 76.2322 76.3889 76.2344 76.3689 76.2344ZM73.6333 71.8333L76.2155 75.3544L77.6311 66.4822L75.0489 62.9611L73.6333 71.8333Z" fill="#F9FAFB"/>
<path d="M48.5022 20.3967L40.2878 71.8967H29.2622L37.4755 20.3967H48.5022Z" fill="#D0D5DD"/>
<path d="M40.2877 72.147H29.261C29.1877 72.147 29.1188 72.1148 29.071 72.0593C29.0232 72.0037 29.0032 71.9304 29.0143 71.8582L37.2277 20.3581C37.2466 20.237 37.3521 20.147 37.4743 20.147H48.501C48.5744 20.147 48.6432 20.1793 48.691 20.2348C48.7388 20.2904 48.7588 20.3637 48.7477 20.4359L40.5343 71.9359C40.5155 72.0582 40.411 72.147 40.2877 72.147ZM29.5555 71.647H40.0755L48.2088 20.647H37.6888L29.5555 71.647Z" fill="#F9FAFB"/>
<path d="M58.1609 28.98L51.3165 71.8966H40.2876L47.1332 28.98H58.1609Z" fill="#98A2B3"/>
<path d="M51.3165 72.1466H40.2887C40.2154 72.1466 40.1465 72.1144 40.0987 72.0589C40.0509 72.0033 40.0309 71.93 40.0421 71.8578L46.8865 28.9411C46.9054 28.82 47.0109 28.73 47.1332 28.73H58.1609C58.2343 28.73 58.3032 28.7622 58.3509 28.8178C58.3987 28.8733 58.4187 28.9466 58.4076 29.0189L51.5632 71.9355C51.5432 72.0578 51.4387 72.1466 51.3165 72.1466ZM40.5809 71.6466H51.1021L57.8665 29.23H47.3454L40.5809 71.6466Z" fill="#F9FAFB"/>
<path d="M56.7921 37.5633H67.8199L65.0577 54.88C58.3077 58.2044 53.0621 64.57 51.811 71.8966H51.3154L56.7921 37.5633Z" fill="#D0D5DD"/>
<path d="M51.811 72.1466H51.3155C51.2421 72.1466 51.1732 72.1144 51.1255 72.0589C51.0777 72.0033 51.0577 71.93 51.0688 71.8577L56.5443 37.5244C56.5632 37.4033 56.6688 37.3133 56.791 37.3133H67.8188C67.8921 37.3133 67.961 37.3455 68.0088 37.4011C68.0566 37.4566 68.0766 37.53 68.0655 37.6022L65.3032 54.9188C65.291 54.9988 65.2399 55.0677 65.1666 55.1033C58.2732 58.4977 53.2499 64.9489 52.0566 71.9377C52.0377 72.0589 51.9332 72.1466 51.811 72.1466ZM57.0055 37.8133L51.6499 71.3889C53.001 64.4633 58.0088 58.1155 64.831 54.7133L67.5266 37.8133H57.0055Z" fill="#F9FAFB"/>
<path d="M66.2177 82.3222C66.1388 82.2022 66.0611 82.0811 65.9888 81.9566C65.9877 81.9544 65.9855 81.9511 65.9844 81.9489C65.9133 81.8278 65.8455 81.7033 65.7799 81.5778C65.7622 81.5422 65.7455 81.5066 65.7277 81.4711C65.6766 81.3678 65.6266 81.2633 65.5788 81.1566C65.5577 81.1078 65.5366 81.0589 65.5155 81.01C65.4744 80.9122 65.4355 80.8144 65.3977 80.7144C65.3755 80.6555 65.3533 80.5967 65.3322 80.5378C65.3188 80.5 65.3066 80.4622 65.2933 80.4244C65.2644 80.3366 65.2366 80.2489 65.2099 80.16C65.1999 80.1278 65.1899 80.0955 65.1811 80.0622C65.1477 79.9422 65.1155 79.8222 65.0866 79.7C65.0811 79.6789 65.0777 79.6566 65.0722 79.6355C65.0499 79.5366 65.0288 79.4367 65.01 79.3367C64.9988 79.28 64.9899 79.2233 64.9811 79.1666C64.9677 79.09 64.9555 79.0133 64.9455 78.9355C64.9377 78.8778 64.9299 78.8189 64.9233 78.76C64.9144 78.6822 64.9055 78.6044 64.8988 78.5255C64.8933 78.4666 64.8888 78.4066 64.8844 78.3478C64.8788 78.2689 64.8744 78.1889 64.8711 78.1089C64.8688 78.0489 64.8655 77.9889 64.8644 77.9289C64.8622 77.8466 64.8622 77.7644 64.8622 77.6822C64.8622 77.6233 64.8622 77.5644 64.8633 77.5044C64.8655 77.4189 64.8699 77.3322 64.8733 77.2444C64.8766 77.1878 64.8777 77.1322 64.8822 77.0744C64.8888 76.9778 64.8977 76.8811 64.9077 76.7833C64.9122 76.7355 64.9155 76.6878 64.9211 76.64C64.9377 76.4944 64.9577 76.3478 64.9811 76.2011C64.9922 76.1278 65.0055 76.0544 65.0188 75.9822C65.1599 75.2067 65.3911 74.4533 65.6988 73.7311L62.6999 69.6433C62.3911 70.3655 62.1611 71.1189 62.0199 71.8944C62.0066 71.9678 61.9944 72.0411 61.9822 72.1133C61.9588 72.26 61.9388 72.4066 61.9222 72.5522C61.9166 72.6 61.9133 72.6478 61.9088 72.6955C61.8988 72.7922 61.8899 72.89 61.8833 72.9866C61.8799 73.0433 61.8777 73.1 61.8744 73.1566C61.8699 73.2433 61.8655 73.33 61.8644 73.4166C61.8633 73.4766 61.8633 73.5355 61.8633 73.5944C61.8633 73.6766 61.8633 73.7589 61.8655 73.8411C61.8666 73.9011 61.8699 73.9611 61.8722 74.0211C61.8755 74.1011 61.8799 74.18 61.8855 74.26C61.8899 74.32 61.8944 74.3789 61.8999 74.4389C61.9066 74.5166 61.9155 74.5955 61.9244 74.6722C61.9311 74.7311 61.9388 74.79 61.9466 74.8478C61.9577 74.9255 61.9699 75.0022 61.9822 75.0789C61.9922 75.1355 62.0011 75.1922 62.0122 75.2489C62.0166 75.2711 62.0199 75.2933 62.0233 75.3155C62.0388 75.3933 62.0555 75.47 62.0733 75.5466C62.0777 75.5678 62.0822 75.59 62.0877 75.6122C62.1166 75.7344 62.1477 75.8544 62.1822 75.9744C62.1911 76.0066 62.2011 76.0389 62.2111 76.0722C62.2377 76.1611 62.2644 76.2489 62.2944 76.3367C62.3066 76.3744 62.3199 76.4122 62.3333 76.45C62.3433 76.4789 62.3522 76.5078 62.3622 76.5366C62.3733 76.5666 62.3866 76.5966 62.3977 76.6266C62.4355 76.7266 62.4744 76.8244 62.5155 76.9222C62.5366 76.9711 62.5566 77.02 62.5777 77.0689C62.6255 77.1755 62.6755 77.28 62.7266 77.3833C62.7399 77.4111 62.7522 77.4389 62.7655 77.4666C62.7699 77.4744 62.7744 77.4822 62.7777 77.49C62.8422 77.6155 62.9099 77.74 62.9822 77.8611C62.9833 77.8633 62.9855 77.8666 62.9866 77.8689C63.0599 77.9933 63.1366 78.1144 63.2155 78.2344C63.2199 78.2411 63.2244 78.2489 63.2288 78.2555C63.2933 78.3522 63.3599 78.4466 63.4277 78.54L66.4266 82.6278C66.3566 82.5278 66.2866 82.4255 66.2177 82.3222Z" fill="#D0D5DD"/>
<path d="M66.431 82.8777C66.3544 82.8777 66.2777 82.8422 66.2288 82.7755L66.2277 82.7744L63.2299 78.6877C63.1588 78.5911 63.0899 78.4922 63.0244 78.3944L63.0121 78.3755C62.9233 78.2411 62.8455 78.1177 62.7744 77.9955C62.7721 77.9922 62.7688 77.9855 62.7677 77.9822C62.6999 77.8655 62.631 77.7411 62.5599 77.6044C62.5544 77.5955 62.5499 77.5877 62.5466 77.58C62.5377 77.5633 62.5299 77.5455 62.521 77.5266C62.5166 77.5166 62.511 77.5055 62.5066 77.4955C62.4477 77.3777 62.3977 77.2722 62.3533 77.1711C62.3321 77.1244 62.3121 77.0766 62.2921 77.0288C62.2466 76.92 62.2055 76.8177 62.1666 76.7155C62.1621 76.7033 62.1577 76.6922 62.1533 76.6811C62.1455 76.6622 62.1377 76.6422 62.1299 76.6233C62.1233 76.6055 62.1177 76.5866 62.111 76.5688L62.0999 76.5344C62.0866 76.4955 62.0733 76.4566 62.0599 76.4166C62.0299 76.3266 62.0022 76.2355 61.9744 76.1444L61.9644 76.1111C61.9577 76.0888 61.951 76.0666 61.9444 76.0444C61.9088 75.9166 61.8755 75.7911 61.8477 75.6711L61.8333 75.6044C61.8144 75.52 61.7966 75.4433 61.7821 75.3666C61.7788 75.3522 61.7766 75.3377 61.7744 75.3222L61.7699 75.2966C61.761 75.2466 61.7521 75.1966 61.7433 75.1455L61.7388 75.1211C61.7255 75.0422 61.7133 74.9633 61.7021 74.8833C61.6944 74.8233 61.6866 74.7633 61.6788 74.7022C61.6699 74.6222 61.661 74.5422 61.6533 74.4622C61.6477 74.4011 61.6421 74.34 61.6377 74.2788C61.6321 74.1977 61.6277 74.1155 61.6244 74.0333C61.6221 73.9722 61.6188 73.91 61.6177 73.8488C61.6155 73.7644 61.6155 73.68 61.6155 73.5955V73.5544C61.6155 73.5077 61.6155 73.46 61.6166 73.4122C61.6188 73.3244 61.6233 73.2344 61.6277 73.1455L61.6299 73.09C61.6321 73.05 61.6333 73.0111 61.6366 72.9711C61.6433 72.8722 61.6533 72.7722 61.6633 72.6722L61.6677 72.6188C61.6699 72.5877 61.6733 72.5566 61.6766 72.5244C61.6944 72.3699 61.7144 72.2188 61.7377 72.0744C61.7499 71.9988 61.7621 71.9244 61.7766 71.85C61.9188 71.07 62.1533 70.2944 62.4733 69.5455C62.5088 69.4633 62.5855 69.4055 62.6744 69.3955C62.7644 69.3855 62.851 69.4233 62.9044 69.4955L65.9033 73.5833C65.9555 73.6544 65.9666 73.7477 65.931 73.8288C65.6255 74.5433 65.4022 75.2833 65.2666 76.0266C65.2533 76.0977 65.241 76.1688 65.2299 76.2411C65.2077 76.3777 65.1888 76.5222 65.1721 76.6688C65.1688 76.6955 65.1666 76.7233 65.1644 76.75L65.1588 76.8088C65.1499 76.9033 65.1399 76.9977 65.1333 77.0922C65.131 77.1277 65.1288 77.1633 65.1277 77.2L65.1255 77.2577C65.121 77.3422 65.1166 77.4266 65.1155 77.51C65.1144 77.5544 65.1144 77.5977 65.1144 77.6411V77.6822C65.1144 77.7622 65.1144 77.8422 65.1166 77.9211C65.1177 77.9788 65.121 78.0377 65.1233 78.0955C65.1266 78.1733 65.131 78.2511 65.1366 78.3277C65.141 78.3855 65.1455 78.4433 65.151 78.5011C65.1577 78.5777 65.1666 78.6533 65.1755 78.7288C65.1822 78.7855 65.1888 78.8422 65.1966 78.8988C65.2066 78.9744 65.2188 79.0488 65.231 79.1233L65.2344 79.1433C65.2421 79.1922 65.251 79.24 65.2599 79.2888C65.2788 79.3866 65.2988 79.4833 65.3199 79.5788L65.3333 79.6411C65.3599 79.7544 65.3899 79.87 65.4244 79.9922L65.4522 80.0866C65.4777 80.1722 65.5044 80.2577 65.5321 80.3422C65.5444 80.3788 65.5566 80.4155 65.5699 80.4522C65.5855 80.4977 65.6022 80.5422 65.6199 80.5866L65.6333 80.6233C65.6699 80.72 65.7077 80.8144 65.7477 80.9088C65.7699 80.9611 65.7888 81.0066 65.8088 81.0511C65.851 81.1466 65.8977 81.2455 65.9533 81.3555L65.9766 81.4033C65.9855 81.4222 65.9944 81.4411 66.0044 81.46C66.0688 81.5855 66.1355 81.7066 66.2022 81.8188C66.2033 81.8211 66.2077 81.8288 66.2088 81.8311C66.2733 81.9411 66.3466 82.0566 66.4277 82.18C66.4999 82.2877 66.5666 82.3844 66.6322 82.4733L66.6344 82.4755C66.7155 82.5866 66.6921 82.7433 66.581 82.8244C66.5333 82.8622 66.4822 82.8777 66.431 82.8777ZM62.7666 70.1555C62.5444 70.7411 62.3777 71.3399 62.2677 71.9411C62.2544 72.0122 62.2421 72.0833 62.231 72.1555C62.2088 72.2922 62.1899 72.4366 62.1733 72.5833C62.1699 72.61 62.1677 72.6377 62.1655 72.6644L62.1599 72.7233C62.151 72.8177 62.141 72.9122 62.1344 73.0066C62.1322 73.0422 62.1299 73.0777 62.1288 73.1133L62.1266 73.1711C62.1221 73.2555 62.1177 73.34 62.1166 73.4233C62.1155 73.4677 62.1155 73.5111 62.1155 73.5544V73.5955C62.1155 73.6755 62.1155 73.7555 62.1177 73.8344C62.1188 73.8933 62.1221 73.9511 62.1244 74.0088C62.1277 74.0866 62.1321 74.1633 62.1377 74.2399C62.1421 74.2977 62.1466 74.3555 62.1521 74.4133C62.1588 74.4888 62.1666 74.5655 62.1755 74.64C62.1821 74.6966 62.1888 74.7533 62.1966 74.81C62.2066 74.8855 62.2188 74.96 62.231 75.0344L62.2355 75.0588C62.2433 75.1055 62.251 75.1533 62.2599 75.2L62.271 75.2655C62.2855 75.3377 62.301 75.41 62.3177 75.4811L62.3333 75.5533C62.3599 75.6666 62.3899 75.7844 62.4244 75.9044L62.4521 75.9988C62.4777 76.0855 62.5044 76.17 62.5321 76.2555C62.5444 76.2922 62.5566 76.3288 62.5699 76.3655L62.5844 76.4077C62.5888 76.4222 62.5933 76.4355 62.5988 76.45C62.6033 76.4622 62.6088 76.4744 62.6133 76.4877C62.6199 76.5044 62.6266 76.5211 62.6333 76.5377C62.6699 76.6333 62.7077 76.7288 62.7477 76.8244C62.7699 76.8777 62.7888 76.9222 62.8088 76.9666C62.851 77.0611 62.8977 77.1611 62.9533 77.2711C62.961 77.2866 62.9677 77.3011 62.9755 77.3166C62.981 77.3277 62.9855 77.34 62.9921 77.3511L63.0033 77.3711C63.071 77.5011 63.1355 77.6188 63.2021 77.7322C63.2044 77.7355 63.2077 77.7422 63.2088 77.7455C63.2733 77.8544 63.3455 77.97 63.4277 78.0944L63.4388 78.1122C63.5022 78.2066 63.5666 78.2988 63.6333 78.39L64.9644 80.2055L64.961 80.1944C64.9544 80.1733 64.9477 80.1522 64.9421 80.13C64.9055 80 64.8733 79.8777 64.8455 79.7566L64.831 79.69C64.8077 79.5877 64.7866 79.4844 64.7677 79.3811C64.7577 79.33 64.7488 79.2777 64.741 79.2255L64.7377 79.2055C64.7244 79.1266 64.7121 79.0477 64.701 78.9677C64.6933 78.9077 64.6855 78.8477 64.6777 78.7877C64.6677 78.7077 64.6599 78.6277 64.6521 78.5466C64.6466 78.4855 64.641 78.4244 64.6377 78.3633C64.6321 78.2822 64.6277 78.2 64.6244 78.1177C64.6221 78.0566 64.6188 77.9955 64.6177 77.9333C64.6155 77.8488 64.6155 77.7644 64.6155 77.68V77.6388C64.6155 77.5922 64.6155 77.5444 64.6166 77.4966C64.6188 77.4088 64.6233 77.3188 64.6277 77.23L64.6299 77.1744C64.6321 77.1344 64.6333 77.0955 64.6366 77.0555C64.6433 76.9566 64.6533 76.8566 64.6633 76.7577L64.6677 76.7044C64.6699 76.6733 64.6733 76.6422 64.6766 76.6111C64.6944 76.4566 64.7144 76.3055 64.7377 76.1611C64.7499 76.0855 64.7621 76.0111 64.7766 75.9366C64.9099 75.2022 65.1255 74.4722 65.4177 73.7644L62.7666 70.1555Z" fill="#F9FAFB"/>
<path d="M77.4933 46.0422L76.471 52.4522C76.0966 52.4322 75.7177 52.4222 75.3355 52.4222C74.3133 52.4222 73.2966 52.4944 72.2921 52.6355L72.9777 62.2977C73.2377 62.2789 73.5021 62.2689 73.7644 62.2689C74.1499 62.2689 74.5266 62.2889 74.8955 62.33L73.3699 71.8966H62.3444L62.7033 69.6455C64.0921 66.3955 67.0544 63.7955 70.5021 62.7577L69.8188 53.12C68.1744 53.5366 66.5788 54.13 65.0588 54.8789L66.4688 46.0411H77.4933V46.0422Z" fill="#D0D5DD"/>
<path d="M73.3699 72.1466H62.3444C62.2711 72.1466 62.2022 72.1144 62.1544 72.0589C62.1066 72.0033 62.0866 71.93 62.0977 71.8577L62.4566 69.6066C62.4599 69.5866 62.4655 69.5666 62.4733 69.5477C63.8499 66.3266 66.8133 63.6722 70.2388 62.5789L69.5911 53.4389C68.0844 53.8411 66.5977 54.4011 65.1688 55.1044C65.0855 55.1455 64.9855 55.1366 64.9099 55.0811C64.8344 55.0255 64.7966 54.9333 64.8111 54.84L66.2211 46.0022C66.2399 45.8811 66.3455 45.7911 66.4677 45.7911H77.4944C77.5677 45.7911 77.6366 45.8233 77.6844 45.8789C77.7322 45.9344 77.7522 46.0077 77.7411 46.08L76.7188 52.49C76.6988 52.6166 76.5877 52.7066 76.4588 52.7C75.1811 52.6311 73.8599 52.6822 72.5599 52.85L73.2111 62.0311C73.7822 62.0033 74.3666 62.0189 74.9233 62.08C74.9911 62.0877 75.0533 62.1222 75.0944 62.1766C75.1355 62.2311 75.1533 62.3 75.1422 62.3677L73.6166 71.9344C73.5977 72.0577 73.4933 72.1466 73.3699 72.1466ZM62.6366 71.6466H73.1566L74.6066 62.5533C74.0766 62.51 73.5244 62.5077 72.9966 62.5466C72.9299 62.5511 72.8644 62.53 72.8144 62.4866C72.7644 62.4433 72.7333 62.3811 72.7288 62.3155L72.0433 52.6533C72.0344 52.5222 72.1277 52.4066 72.2577 52.3877C73.5888 52.2022 74.9388 52.1355 76.2588 52.1922L77.1999 46.2922H66.6799L65.3788 54.4477C66.7977 53.7822 68.2677 53.2555 69.7555 52.8789C69.8277 52.8611 69.9033 52.8755 69.9633 52.9189C70.0233 52.9622 70.0611 53.03 70.0666 53.1033L70.7499 62.7411C70.7577 62.8577 70.6844 62.9644 70.5722 62.9977C67.2144 64.0077 64.2944 66.5811 62.9433 69.7155L62.6366 71.6466Z" fill="#F9FAFB"/>
<path d="M40.2878 71.8967H29.2622L32.26 75.9844H43.2867H54.3144L51.3167 71.8967H40.2878Z" fill="#D0D5DD"/>
<path d="M54.3144 76.2344H32.26C32.18 76.2344 32.1055 76.1967 32.0589 76.1322L29.06 72.0444C29.0044 71.9689 28.9955 71.8678 29.0389 71.7833C29.0811 71.6989 29.1677 71.6467 29.2622 71.6467H51.3166C51.3966 71.6467 51.4711 71.6844 51.5177 71.7489L54.5166 75.8367C54.5722 75.9122 54.5811 76.0133 54.5377 76.0978C54.4955 76.1822 54.4089 76.2344 54.3144 76.2344ZM32.3866 75.7344H53.8211L51.1889 72.1467H29.7555L32.3866 75.7344Z" fill="#F9FAFB"/>
<path d="M73.37 71.8967H62.3445L65.3423 75.9844H76.3689L73.37 71.8967Z" fill="#D0D5DD"/>
<path d="M76.3689 76.2344H65.3422C65.2622 76.2344 65.1878 76.1967 65.1411 76.1322L62.1422 72.0444C62.0867 71.9689 62.0778 71.8678 62.1211 71.7833C62.1634 71.6989 62.25 71.6467 62.3445 71.6467H73.3711C73.4511 71.6467 73.5256 71.6844 73.5722 71.7489L76.5711 75.8367C76.6267 75.9122 76.6356 76.0133 76.5922 76.0978C76.5489 76.1822 76.4633 76.2344 76.3689 76.2344ZM65.4689 75.7344H75.8756L73.2433 72.1467H62.8367L65.4689 75.7344Z" fill="#F9FAFB"/>
<path d="M90.3599 60.2088C90.451 60.3544 90.541 60.5022 90.6277 60.6511C90.6522 60.6933 90.6755 60.7355 90.6999 60.7777C90.7622 60.8866 90.8233 60.9944 90.8822 61.1044C90.911 61.1577 90.9399 61.2122 90.9688 61.2666C91.0199 61.3644 91.0699 61.4622 91.1199 61.5611C91.1533 61.6288 91.1866 61.6955 91.2199 61.7633C91.2666 61.8599 91.3122 61.9566 91.3566 62.0544C91.3866 62.1211 91.4177 62.1877 91.4477 62.2544C91.4933 62.3577 91.5366 62.4611 91.5799 62.5655C91.6066 62.6288 91.6333 62.6911 91.6588 62.7544C91.7077 62.8755 91.7533 62.9977 91.7999 63.1211C91.8177 63.1688 91.8366 63.2144 91.8533 63.2622C91.8733 63.3166 91.891 63.3722 91.9099 63.4266C91.9577 63.5622 92.0044 63.6977 92.0488 63.8344C92.0722 63.9077 92.0933 63.9811 92.1166 64.0544C92.1533 64.1744 92.1899 64.2933 92.2244 64.4144C92.2466 64.4944 92.2677 64.5766 92.2899 64.6577C92.321 64.7733 92.351 64.8888 92.3788 65.0066C92.3988 65.0911 92.4188 65.1766 92.4377 65.2611C92.4633 65.3766 92.4888 65.4911 92.5122 65.6077C92.5322 65.7077 92.5522 65.8077 92.571 65.9088C92.5855 65.9844 92.5988 66.0599 92.6122 66.1355C92.631 66.2477 92.6488 66.3622 92.6655 66.4755C92.6766 66.5477 92.6877 66.6199 92.6977 66.6933C92.7144 66.8188 92.7299 66.9455 92.7444 67.0722C92.751 67.1333 92.7599 67.1955 92.7655 67.2566C92.7855 67.4455 92.8022 67.6355 92.8155 67.8255L95.8144 71.9133C95.801 71.7222 95.7833 71.5322 95.7644 71.3444C95.7577 71.2822 95.7499 71.2211 95.7433 71.1599C95.7288 71.0333 95.7144 70.9066 95.6966 70.7811C95.6866 70.7088 95.6755 70.6366 95.6644 70.5644C95.6477 70.4499 95.6299 70.3366 95.611 70.2233C95.5977 70.1477 95.5844 70.0722 95.5699 69.9966C95.5588 69.9355 95.5488 69.8733 95.5366 69.8122C95.5288 69.7733 95.5188 69.7344 95.511 69.6955C95.4877 69.5799 95.4622 69.4644 95.4366 69.3488C95.4177 69.2633 95.3988 69.1788 95.3777 69.0944C95.3499 68.9777 95.3188 68.8622 95.2888 68.7455C95.2677 68.6644 95.2466 68.5833 95.2233 68.5022C95.1888 68.3811 95.1533 68.2622 95.1166 68.1422C95.0944 68.0688 95.0722 67.9944 95.0488 67.9211C95.0044 67.7844 94.9577 67.6488 94.9099 67.5144C94.8933 67.4655 94.8777 67.4166 94.8599 67.3677C94.8577 67.3611 94.8555 67.3555 94.8533 67.35C94.8366 67.3022 94.8177 67.2566 94.7999 67.2088C94.7544 67.0855 94.7077 66.9633 94.6588 66.8422C94.6333 66.7788 94.6066 66.7177 94.581 66.6555C94.5377 66.5511 94.4933 66.4466 94.4477 66.3433C94.4177 66.2766 94.3877 66.2099 94.3566 66.1433C94.3122 66.0455 94.2666 65.9488 94.2199 65.8522C94.1877 65.7844 94.1533 65.7166 94.1199 65.6499C94.0955 65.6011 94.0722 65.5522 94.0477 65.5033C94.0222 65.4533 93.9955 65.4044 93.9688 65.3544C93.9399 65.2999 93.9122 65.2455 93.8822 65.1922C93.8233 65.0822 93.7622 64.9733 93.6999 64.8655C93.6755 64.8233 93.6522 64.7799 93.6277 64.7388C93.541 64.5899 93.4522 64.4422 93.3599 64.2966C93.3455 64.2733 93.3299 64.2511 93.3155 64.2277C93.251 64.1266 93.1866 64.0255 93.1199 63.9266C93.1088 63.9111 93.0977 63.8955 93.0866 63.8799C92.9677 63.7044 92.8477 63.5299 92.7222 63.3588L89.7233 59.2711C89.8488 59.4422 89.9699 59.6155 90.0877 59.7922C90.1655 59.9077 90.241 60.0233 90.3155 60.1411C90.3288 60.1633 90.3444 60.1855 90.3599 60.2088Z" fill="#D0D5DD"/>
<path d="M95.811 72.1655C95.7333 72.1655 95.6577 72.1289 95.6099 72.0633L92.611 67.9755C92.5833 67.9377 92.5666 67.8922 92.5633 67.8455C92.5499 67.6655 92.5344 67.4822 92.5133 67.2844C92.5099 67.2477 92.5055 67.2122 92.501 67.1755L92.4922 67.1022C92.4777 66.9777 92.4633 66.8533 92.4466 66.7289C92.4399 66.6777 92.4322 66.6277 92.4244 66.5777L92.4144 66.5144C92.3977 66.4022 92.3799 66.2911 92.361 66.18C92.3488 66.1066 92.3355 66.0333 92.321 65.96C92.3022 65.8566 92.2833 65.7577 92.2633 65.6588C92.2399 65.5444 92.2155 65.4311 92.1899 65.3177L92.1866 65.3022C92.1688 65.2233 92.151 65.1455 92.1322 65.0666C92.1044 64.9511 92.0744 64.8377 92.0444 64.7233L92.0277 64.6588C92.0122 64.6011 91.9966 64.5422 91.981 64.4844C91.9477 64.3655 91.911 64.2477 91.8755 64.1288L91.8522 64.05C91.8377 64.0033 91.8244 63.9566 91.8099 63.9111C91.7666 63.7766 91.7199 63.6422 91.6733 63.5089L91.6488 63.4366C91.6388 63.4066 91.6288 63.3766 91.6177 63.3477C91.6077 63.3211 91.5977 63.2955 91.5877 63.27L91.5644 63.2088C91.5188 63.0877 91.4733 62.9677 91.4255 62.8477C91.4088 62.8077 91.3922 62.7666 91.3755 62.7266L91.3488 62.6622C91.3066 62.56 91.2633 62.4566 91.2188 62.3555C91.1955 62.3033 91.1722 62.2511 91.1477 62.1988L91.1288 62.1588C91.0844 62.0622 91.0399 61.9666 90.9944 61.8722C90.9622 61.8055 90.9288 61.7388 90.8966 61.6733C90.8477 61.5766 90.7988 61.48 90.7477 61.3833C90.7199 61.33 90.6922 61.2766 90.6633 61.2233C90.6044 61.1155 90.5444 61.0077 90.4833 60.9011L90.4544 60.8511C90.4399 60.8266 90.4266 60.8011 90.4122 60.7766C90.321 60.6211 90.2355 60.4788 90.1488 60.3411L90.1044 60.2733C90.031 60.1577 89.9555 60.0433 89.8799 59.93C89.751 59.7388 89.6344 59.5711 89.521 59.4177C89.4399 59.3066 89.4633 59.15 89.5744 59.0677C89.6855 58.9866 89.8422 59.01 89.9244 59.1211L92.9233 63.2088C93.041 63.3688 93.1622 63.5422 93.2933 63.7377L93.3055 63.7544C93.3133 63.7644 93.3199 63.7744 93.3266 63.7855C93.3944 63.8866 93.4599 63.9889 93.5255 64.0922L93.571 64.1633C93.6599 64.3044 93.751 64.4555 93.8422 64.6122C93.8577 64.6389 93.8733 64.6655 93.8877 64.6933L93.9155 64.7422C93.9788 64.8522 94.0399 64.9622 94.101 65.0744C94.131 65.1288 94.1599 65.1844 94.1888 65.2389L94.2188 65.2955C94.2355 65.3266 94.2522 65.3577 94.2688 65.3888C94.2844 65.4188 94.2988 65.4488 94.3133 65.4788L94.3422 65.5377C94.3766 65.6055 94.4099 65.6744 94.4433 65.7433C94.491 65.8411 94.5366 65.94 94.5822 66.04L94.6022 66.0822C94.6266 66.1355 94.651 66.1888 94.6744 66.2422C94.721 66.3477 94.7655 66.4533 94.8099 66.56L94.8355 66.6211C94.8533 66.6644 94.8722 66.7066 94.8888 66.75C94.9388 66.8733 94.9855 66.9977 95.0322 67.1233L95.0533 67.18C95.0644 67.2088 95.0755 67.2377 95.0866 67.2666L95.0933 67.2844C95.1044 67.3133 95.1133 67.3433 95.1233 67.3722L95.1444 67.4333C95.1922 67.57 95.2399 67.7077 95.2844 67.8466C95.2999 67.8955 95.3155 67.9455 95.3299 67.9944L95.3533 68.0711C95.3899 68.1922 95.4277 68.3133 95.4622 68.4366C95.4799 68.4977 95.4955 68.56 95.5122 68.6222L95.5288 68.6833C95.5599 68.8011 95.591 68.9189 95.6199 69.0366C95.6399 69.1166 95.6577 69.1977 95.6755 69.2789L95.6788 69.2955C95.7055 69.4122 95.731 69.5289 95.7544 69.6466L95.7655 69.6955C95.771 69.7189 95.7755 69.7422 95.7799 69.7655C95.7877 69.8033 95.7944 69.8411 95.801 69.8788L95.8144 69.9522C95.8288 70.0311 95.8433 70.1066 95.8555 70.1822C95.8755 70.2966 95.8933 70.4122 95.9099 70.5277L95.9199 70.5911C95.9277 70.6433 95.9355 70.6955 95.9433 70.7477C95.961 70.8755 95.9755 71.0033 95.991 71.1322L95.9988 71.2C96.0033 71.24 96.0088 71.2789 96.0122 71.3189C96.0333 71.5222 96.0499 71.7111 96.0633 71.8966C96.071 72.0077 96.0044 72.1111 95.8999 72.1489C95.8688 72.16 95.8399 72.1655 95.811 72.1655ZM93.0566 67.7366L95.4722 71.03C95.4633 70.9577 95.4544 70.8866 95.4444 70.8155C95.4377 70.7655 95.4299 70.7155 95.4222 70.6655L95.4122 70.6011C95.3955 70.4888 95.3777 70.3766 95.3588 70.2655C95.3466 70.1922 95.3322 70.1189 95.3188 70.0444L95.3044 69.9633C95.2988 69.9288 95.2922 69.8944 95.2855 69.8611C95.2822 69.8422 95.2777 69.8233 95.2733 69.8044C95.2688 69.7844 95.2644 69.7655 95.261 69.7455C95.2377 69.6311 95.2133 69.5177 95.1877 69.4044L95.1844 69.3877C95.1666 69.3088 95.1488 69.2311 95.1299 69.1533C95.1022 69.0377 95.0722 68.9244 95.0422 68.81L95.0255 68.7477C95.0099 68.6888 94.9944 68.63 94.9777 68.5711C94.9444 68.4522 94.9088 68.3344 94.8722 68.2166L94.8477 68.1366C94.8344 68.09 94.8199 68.0444 94.8055 67.9988C94.7622 67.8644 94.7155 67.7311 94.6688 67.5977C94.661 67.5744 94.6533 67.5511 94.6455 67.5289C94.6377 67.5033 94.6288 67.4789 94.6199 67.4533L94.6133 67.4366C94.6033 67.4088 94.5933 67.3833 94.5833 67.3577L94.5599 67.2966C94.5144 67.1755 94.4688 67.0544 94.421 66.9355C94.4044 66.8944 94.3877 66.8544 94.371 66.8144L94.3444 66.7522C94.301 66.6489 94.2588 66.5466 94.2133 66.4444C94.191 66.3933 94.1666 66.3422 94.1433 66.2911L94.1233 66.2477C94.0788 66.1522 94.0344 66.0555 93.9888 65.9611C93.9566 65.8944 93.9233 65.8277 93.891 65.7622L93.8599 65.6988C93.8466 65.6722 93.8333 65.6444 93.8199 65.6189C93.8055 65.59 93.7899 65.5622 93.7755 65.5333L93.7433 65.4722C93.7155 65.4188 93.6877 65.3655 93.6588 65.3122C93.5999 65.2044 93.5399 65.0966 93.4788 64.99L93.4499 64.9389C93.4366 64.9144 93.4222 64.89 93.4077 64.8655C93.3188 64.7133 93.2299 64.5666 93.1444 64.43L93.0999 64.3622C93.0366 64.2633 92.9733 64.1633 92.9077 64.0655L92.8755 64.02C92.7466 63.8288 92.6299 63.6611 92.5166 63.5066L91.8733 62.63C91.8777 62.6411 91.8822 62.6522 91.8866 62.6633C91.9355 62.7866 91.9833 62.9111 92.0299 63.0355L92.051 63.0922C92.0622 63.1211 92.0733 63.15 92.0844 63.18C92.0966 63.2133 92.1077 63.2466 92.1188 63.28L92.1422 63.3466C92.1899 63.4844 92.2388 63.6222 92.2833 63.7611C92.2988 63.81 92.3144 63.86 92.3288 63.9088L92.3522 63.9844C92.3888 64.1055 92.4266 64.2277 92.461 64.35C92.4777 64.4111 92.4944 64.4722 92.5099 64.5333L92.5266 64.5966C92.5577 64.7144 92.5888 64.8322 92.6177 64.95C92.6377 65.0311 92.6555 65.1122 92.6744 65.1933L92.6777 65.2089C92.7044 65.3255 92.7299 65.4422 92.7533 65.56C92.7744 65.6611 92.7933 65.7633 92.8122 65.8655C92.8266 65.9455 92.841 66.02 92.8533 66.0955C92.8733 66.21 92.891 66.3255 92.9077 66.44L92.9166 66.5022C92.9244 66.5544 92.9322 66.6077 92.9399 66.6611C92.9577 66.7889 92.9722 66.9166 92.9866 67.0444L92.9944 67.1144C92.9988 67.1533 93.0044 67.1933 93.0077 67.2322C93.0299 67.4089 93.0444 67.5744 93.0566 67.7366Z" fill="#F9FAFB"/>
<path d="M92.8122 67.8266L95.8111 71.9155L85.51 74.2233L82.5111 70.1355L92.8122 67.8266Z" fill="#D0D5DD"/>
<path d="M85.51 74.4733C85.4311 74.4733 85.3567 74.4367 85.3089 74.3711L82.31 70.2833C82.26 70.2156 82.2478 70.1267 82.2778 70.0478C82.3078 69.9689 82.3745 69.91 82.4567 69.8911L92.7578 67.5822C92.8556 67.56 92.9556 67.5978 93.0145 67.6778L96.0133 71.7656C96.0633 71.8333 96.0756 71.9222 96.0456 72.0011C96.0156 72.08 95.9489 72.1389 95.8667 72.1578L85.5656 74.4667C85.5456 74.4722 85.5278 74.4733 85.51 74.4733ZM82.9389 70.2955L85.6145 73.9433L95.3833 71.7544L92.7078 68.1067L82.9389 70.2955Z" fill="#F9FAFB"/>
<path d="M68.1466 81.66L71.1443 85.7477L67.0199 95.2722L64.021 91.1833L68.1466 81.66Z" fill="#D0D5DD"/>
<path d="M67.0199 95.5222C66.941 95.5222 66.8655 95.4844 66.8188 95.42L63.8199 91.3322C63.7677 91.2611 63.7566 91.1666 63.7921 91.0844L67.9177 81.5611C67.9532 81.4789 68.0299 81.4222 68.1188 81.4122C68.2077 81.4022 68.2955 81.4411 68.3488 81.5133L71.3477 85.6011C71.3999 85.6722 71.411 85.7666 71.3755 85.8489L67.2499 95.3722C67.2143 95.4544 67.1377 95.5111 67.0488 95.5211C67.0377 95.5211 67.0288 95.5222 67.0199 95.5222ZM64.3077 91.1511L66.9632 94.7722L70.8588 85.78L68.2032 82.1589L64.3077 91.1511Z" fill="#F9FAFB"/>
<path d="M57.6666 89.0488L54.6677 84.9611C56.8622 87.9533 60.0988 90.1622 64.0211 91.1833L67.0199 95.2711C63.0966 94.2511 59.8611 92.0411 57.6666 89.0488Z" fill="#D0D5DD"/>
<path d="M67.0199 95.5222C66.9988 95.5222 66.9777 95.52 66.9566 95.5144C63.0277 94.4911 59.7455 92.3078 57.4644 89.1978L54.4655 85.11C54.3844 84.9989 54.4077 84.8422 54.5188 84.76C54.6299 84.6778 54.7866 84.7022 54.8688 84.8133C57.0811 87.8289 60.2666 89.9478 64.0833 90.9422C64.1388 90.9567 64.1877 90.99 64.2222 91.0367L67.2211 95.1244C67.2833 95.21 67.2855 95.3255 67.2266 95.4122C67.1788 95.4822 67.1011 95.5222 67.0199 95.5222ZM57.2399 88.0455L57.8677 88.9011C59.9444 91.7322 62.8799 93.7733 66.3888 94.8344L63.8722 91.4022C61.3644 90.7378 59.1233 89.5978 57.2399 88.0455Z" fill="#F9FAFB"/>
<mask id="mask0_6802_25353" style="mask-type:luminance" maskUnits="userSpaceOnUse" x="54" y="84" width="14" height="12">
<mask id="mask1_6802_25353" style="mask-type:luminance" maskUnits="userSpaceOnUse" x="54" y="84" width="14" height="12">
<path d="M57.6666 89.0488L54.6677 84.9611C56.8622 87.9533 60.0988 90.1622 64.0211 91.1833L67.0199 95.2711C63.0966 94.2511 59.8611 92.0411 57.6666 89.0488Z" fill="white"/>
</mask>
<g mask="url(#mask1_6802_25353)">
<path d="M67.0199 95.5221C66.9988 95.5221 66.9777 95.5199 66.9566 95.5144C63.0277 94.491 59.7455 92.3077 57.4644 89.1977L54.4655 85.1099C54.3844 84.9988 54.4077 84.8422 54.5188 84.7599C54.6299 84.6777 54.7866 84.7021 54.8688 84.8133C57.0811 87.8288 60.2666 89.9477 64.0833 90.9421C64.1388 90.9566 64.1877 90.9899 64.2222 91.0366L67.2211 95.1244C67.2833 95.2099 67.2855 95.3255 67.2266 95.4121C67.1788 95.4821 67.1011 95.5221 67.0199 95.5221ZM57.2399 88.0455L57.8677 88.901C59.9444 91.7321 62.8799 93.7733 66.3888 94.8344L63.8722 91.4021C61.3644 90.7377 59.1233 89.5977 57.2399 88.0455Z" fill="white"/>
</g>
</mask>
<g mask="url(#mask0_6802_25353)">
<path d="M64.0211 91.1832L67.0199 95.271C63.0977 94.2499 59.8611 92.041 57.6666 89.0488L54.6677 84.961C56.8622 87.9532 60.0988 90.1621 64.0211 91.1832Z" fill="#D0D5DD"/>
<path d="M67.0199 95.5221C66.9988 95.5221 66.9777 95.5199 66.9566 95.5144C63.0277 94.491 59.7455 92.3077 57.4644 89.1977L54.4655 85.1099C54.3844 84.9988 54.4077 84.8422 54.5188 84.7599C54.6299 84.6777 54.7866 84.7021 54.8688 84.8133C57.0811 87.8288 60.2666 89.9477 64.0833 90.9421C64.1388 90.9566 64.1877 90.9899 64.2222 91.0366L67.2211 95.1244C67.2833 95.2099 67.2855 95.3255 67.2266 95.4121C67.1788 95.4821 67.1011 95.5221 67.0199 95.5221ZM57.2399 88.0455L57.8677 88.901C59.9444 91.7321 62.8799 93.7733 66.3888 94.8344L63.8722 91.4021C61.3644 90.7377 59.1233 89.5977 57.2399 88.0455Z" fill="#F9FAFB"/>
</g>
<path d="M92.8233 70.1688C92.7878 70.8099 92.7189 71.4577 92.6144 72.1166C90.88 82.991 80.3289 91.8088 69.0544 91.8088C68.13 91.8088 67.2311 91.7499 66.36 91.6355L70.5511 81.9633H70.6244C76.1222 81.9633 81.2744 77.7699 82.3322 72.5199L92.8233 70.1688Z" fill="#D0D5DD"/>
<path d="M69.0545 92.0589C68.1267 92.0589 67.2089 92 66.3267 91.8833C66.2489 91.8733 66.18 91.8266 66.1422 91.7589C66.1033 91.6911 66.0989 91.6077 66.13 91.5366L70.3211 81.8644C70.3611 81.7733 70.4511 81.7133 70.55 81.7133H70.6233C76.0067 81.7133 81.0411 77.6533 82.0856 72.4711C82.1056 72.3744 82.18 72.2977 82.2756 72.2766L92.7667 69.9255C92.8433 69.9089 92.9233 69.9277 92.9833 69.9789C93.0433 70.03 93.0756 70.1055 93.0711 70.1833C93.0356 70.8344 92.9644 71.4977 92.8589 72.1566C91.1111 83.13 80.4311 92.0589 69.0545 92.0589ZM66.7211 91.4277C67.48 91.5144 68.2633 91.5589 69.0533 91.5589C80.1956 91.5589 90.6533 82.8189 92.3667 72.0766C92.4511 71.5466 92.5133 71.0133 92.5522 70.4855L82.5433 72.7289C81.39 78.0311 76.2378 82.1677 70.7145 82.2133L66.7211 91.4277Z" fill="#F9FAFB"/>
<path d="M94.3089 80.8244C94.3711 80.6733 94.4311 80.52 94.49 80.3678C94.5077 80.3211 94.5255 80.2756 94.5433 80.2289C94.6166 80.0344 94.6866 79.8389 94.7533 79.6422C94.7678 79.5989 94.7822 79.5544 94.7966 79.5111C94.85 79.3533 94.9 79.1956 94.95 79.0367C94.9689 78.9767 94.9866 78.9167 95.0044 78.8567C95.0555 78.6867 95.1044 78.5167 95.15 78.3455C95.1589 78.3133 95.1689 78.28 95.1766 78.2478C95.23 78.0467 95.28 77.8433 95.3278 77.64C95.34 77.5867 95.3522 77.5322 95.3644 77.4778C95.4 77.3211 95.4333 77.1633 95.4655 77.0055C95.4778 76.9455 95.49 76.8867 95.5011 76.8267C95.5411 76.62 95.5778 76.4133 95.6111 76.2044C95.7155 75.5467 95.7855 74.8978 95.82 74.2567L92.8211 70.1689C92.7855 70.81 92.7166 71.4578 92.6122 72.1167C92.5789 72.3244 92.5411 72.5322 92.5022 72.7389C92.4911 72.7989 92.4789 72.8578 92.4666 72.9178C92.4344 73.0756 92.4011 73.2333 92.3655 73.39C92.3533 73.4444 92.3422 73.4978 92.3289 73.5522C92.2811 73.7555 92.2311 73.9578 92.1777 74.16C92.1689 74.1922 92.16 74.2244 92.1511 74.2578C92.1044 74.4289 92.0555 74.5989 92.0055 74.7689C91.9878 74.8289 91.9689 74.8889 91.9511 74.9489C91.9022 75.1078 91.8511 75.2655 91.7978 75.4233C91.7833 75.4667 91.7689 75.5111 91.7544 75.5544C91.6866 75.7511 91.6166 75.9467 91.5444 76.1411C91.5266 76.1878 91.5089 76.2333 91.4911 76.28C91.4322 76.4333 91.3722 76.5856 91.31 76.7367C91.2866 76.7944 91.2622 76.8522 91.2389 76.91C91.1678 77.0789 91.0955 77.2478 91.02 77.4144C91.0089 77.4389 90.9989 77.4633 90.9878 77.4878C90.9011 77.68 90.81 77.87 90.7178 78.06C90.6922 78.1111 90.6666 78.1622 90.6411 78.2144C90.5678 78.3611 90.4933 78.5067 90.4178 78.6522C90.3911 78.7022 90.3655 78.7533 90.3377 78.8033C90.2389 78.9889 90.1366 79.1744 90.0322 79.3578C90.0177 79.3822 90.0033 79.4067 89.99 79.4311C89.8977 79.5922 89.8033 79.7511 89.7066 79.91C89.67 79.97 89.6333 80.03 89.5966 80.0889C89.54 80.1811 89.4822 80.2722 89.4244 80.3633C89.3833 80.4278 89.3422 80.4911 89.3011 80.5556C89.2411 80.6478 89.18 80.7389 89.1189 80.8311C89.0778 80.8922 89.0366 80.9533 88.9955 81.0144C88.93 81.11 88.8633 81.2056 88.7955 81.3C88.7566 81.3544 88.7178 81.41 88.6789 81.4644C88.5978 81.5778 88.5144 81.69 88.4311 81.8022C88.4055 81.8355 88.3811 81.87 88.3555 81.9033C88.1466 82.18 87.9311 82.4533 87.71 82.7222C87.7078 82.7244 87.7066 82.7267 87.7044 82.7289C87.4822 82.9989 87.2533 83.2644 87.0189 83.5256C87.0133 83.5311 87.0089 83.5367 87.0033 83.5422C86.7844 83.7856 86.5622 84.0244 86.3333 84.2589C86.33 84.2622 86.3266 84.2667 86.3233 84.27C86.0977 84.5022 85.8666 84.7289 85.6322 84.9522C85.62 84.9633 85.6089 84.9744 85.5966 84.9867C85.3733 85.1989 85.1455 85.4056 84.9133 85.61C84.8922 85.6289 84.8711 85.6478 84.85 85.6667C84.6244 85.8644 84.3944 86.0567 84.1622 86.2467C84.1344 86.27 84.1055 86.2933 84.0778 86.3156C83.8433 86.5044 83.6055 86.69 83.3644 86.8711C83.3333 86.8944 83.3011 86.9189 83.27 86.9422C83.03 87.1211 82.7866 87.2944 82.5411 87.4644C82.5078 87.4878 82.4733 87.5111 82.44 87.5344C82.1789 87.7133 81.9144 87.8867 81.6466 88.0556C81.6144 88.0756 81.5833 88.0956 81.5511 88.1156C81.2811 88.2844 81.0066 88.4478 80.73 88.6067C80.6922 88.6278 80.6555 88.65 80.6189 88.6711C80.5111 88.7322 80.4033 88.7911 80.2944 88.8511C80.24 88.8811 80.1844 88.9122 80.13 88.9411C79.9789 89.0222 79.8255 89.1022 79.6733 89.1811C79.6611 89.1878 79.6489 89.1944 79.6366 89.2011C79.4711 89.2856 79.3033 89.3678 79.1366 89.4489C79.0844 89.4744 79.0322 89.4978 78.9789 89.5233C78.8633 89.5778 78.7466 89.6322 78.63 89.6856C78.5789 89.7089 78.5266 89.7311 78.4755 89.7544C78.3233 89.8222 78.1711 89.8889 78.0177 89.9533C77.9611 89.9778 77.9044 90.0011 77.8478 90.0244C77.6522 90.1056 77.4555 90.1844 77.2566 90.2611C77.2544 90.2622 77.2522 90.2633 77.25 90.2633C77.05 90.34 76.8489 90.4133 76.6466 90.4844C76.5889 90.5044 76.5322 90.5244 76.4744 90.5444C76.3178 90.5989 76.16 90.6511 76.0022 90.7022C75.9522 90.7178 75.9022 90.7344 75.8522 90.7511C75.6133 90.8267 75.3733 90.8978 75.1311 90.9644C75.0822 90.9778 75.0322 90.9911 74.9822 91.0056C74.7344 91.0733 74.4866 91.1378 74.2366 91.1967C74.2211 91.2 74.2055 91.2033 74.1911 91.2067C73.95 91.2633 73.7066 91.3156 73.4644 91.3644C73.42 91.3733 73.3744 91.3833 73.33 91.3922C73.0833 91.44 72.8366 91.4844 72.5889 91.5244C72.5389 91.5322 72.49 91.54 72.44 91.5478C72.1844 91.5878 71.9277 91.6244 71.6711 91.6544C71.6622 91.6556 71.6533 91.6567 71.6444 91.6578C71.3933 91.6878 71.14 91.7122 70.8877 91.7333C70.84 91.7378 70.7922 91.7422 70.7444 91.7456C70.4933 91.7656 70.2422 91.78 69.99 91.7911C69.9411 91.7933 69.8911 91.7944 69.8422 91.7967C69.58 91.8067 69.3189 91.8122 69.0555 91.8122C68.1311 91.8122 67.2322 91.7533 66.3611 91.6389L69.36 95.7267C70.2322 95.8422 71.13 95.9 72.0544 95.9C72.3166 95.9 72.5789 95.8933 72.8411 95.8844C72.89 95.8822 72.94 95.8811 72.9889 95.8789C73.2411 95.8678 73.4922 95.8533 73.7433 95.8333C73.7911 95.83 73.8389 95.8256 73.8866 95.8211C74.14 95.8 74.3922 95.7756 74.6433 95.7456C74.6522 95.7444 74.6611 95.7433 74.67 95.7422C74.9266 95.7111 75.1833 95.6744 75.4378 95.6356C75.4878 95.6278 75.5377 95.62 75.5877 95.6122C75.8355 95.5722 76.0822 95.5278 76.3278 95.48C76.3733 95.4711 76.4177 95.4611 76.4633 95.4522C76.7055 95.4033 76.9478 95.3511 77.1889 95.2944C77.2044 95.2911 77.2211 95.2878 77.2366 95.2833C77.4855 95.2244 77.7344 95.1589 77.9811 95.0922C78.0311 95.0789 78.08 95.0656 78.13 95.0511C78.3711 94.9833 78.6111 94.9122 78.85 94.8378C78.8644 94.8333 78.88 94.8289 78.8944 94.8244C78.93 94.8133 78.9655 94.8 79.0022 94.7889C79.16 94.7378 79.3166 94.6856 79.4733 94.6322C79.5311 94.6122 79.5889 94.5922 79.6466 94.5722C79.8489 94.5011 80.05 94.4278 80.25 94.3511C80.2533 94.35 80.2566 94.3489 80.26 94.3478C80.4566 94.2722 80.6522 94.1933 80.8478 94.1122C80.9044 94.0889 80.9622 94.0644 81.0189 94.04C81.1711 93.9756 81.3233 93.91 81.4744 93.8422C81.5089 93.8267 81.5433 93.8133 81.5766 93.7978C81.5944 93.79 81.6122 93.7811 81.63 93.7722C81.7455 93.72 81.8611 93.6656 81.9755 93.6111C82.0289 93.5856 82.0822 93.5611 82.1355 93.5356C82.3033 93.4544 82.47 93.3722 82.6355 93.2878C82.6477 93.2811 82.66 93.2744 82.6722 93.2689C82.8255 93.19 82.9777 93.1111 83.13 93.0289C83.1855 92.9989 83.24 92.9689 83.2944 92.9389C83.4033 92.88 83.5111 92.82 83.6189 92.7589C83.6378 92.7478 83.6566 92.7389 83.6744 92.7278C83.6933 92.7167 83.7111 92.7056 83.73 92.6944C84.0066 92.5356 84.28 92.3722 84.55 92.2033C84.5822 92.1833 84.6144 92.1622 84.6466 92.1422C84.9144 91.9733 85.1789 91.8 85.4389 91.6222C85.4533 91.6122 85.4678 91.6033 85.4822 91.5944C85.5022 91.5811 85.5211 91.5656 85.5411 91.5522C85.7866 91.3822 86.03 91.2089 86.27 91.03C86.3022 91.0067 86.3333 90.9822 86.3644 90.9589C86.6055 90.7778 86.8433 90.5933 87.0778 90.4033C87.0878 90.3956 87.0989 90.3867 87.11 90.3789C87.1278 90.3644 87.1444 90.3489 87.1633 90.3344C87.3955 90.1444 87.6255 89.9522 87.8511 89.7544C87.8722 89.7356 87.8933 89.7167 87.9144 89.6978C88.1455 89.4944 88.3733 89.2867 88.5966 89.0756C88.6 89.0722 88.6033 89.0689 88.6077 89.0656C88.6166 89.0578 88.6244 89.0489 88.6333 89.0411C88.8678 88.8178 89.0989 88.5911 89.3244 88.3589C89.3278 88.3556 89.3311 88.3511 89.3355 88.3478C89.5633 88.1133 89.7866 87.8744 90.0055 87.6322C90.0089 87.6278 90.0133 87.6244 90.0166 87.62C90.0178 87.6189 90.0189 87.6167 90.02 87.6156C90.2544 87.3544 90.4833 87.0889 90.7055 86.8189C90.7077 86.8167 90.7089 86.8144 90.7111 86.8122C90.9322 86.5433 91.1478 86.2711 91.3566 85.9933C91.3589 85.9911 91.3611 85.9889 91.3622 85.9856C91.3855 85.9544 91.4078 85.9233 91.4311 85.8922C91.5144 85.78 91.5978 85.6678 91.68 85.5533C91.7189 85.4989 91.7566 85.4444 91.7955 85.39C91.8633 85.2944 91.93 85.1989 91.9966 85.1022C92.0377 85.0422 92.0789 84.9811 92.12 84.92C92.1811 84.8289 92.2422 84.7367 92.3033 84.6444C92.3444 84.5811 92.3855 84.5167 92.4266 84.4522C92.4844 84.3611 92.5422 84.27 92.5989 84.1789C92.6211 84.1433 92.6433 84.1089 92.6644 84.0744C92.68 84.05 92.6933 84.0244 92.7089 84C92.8055 83.8411 92.9 83.6822 92.9922 83.5211C93.0066 83.4967 93.0211 83.4722 93.0344 83.4478C93.1389 83.2644 93.24 83.08 93.34 82.8933C93.3666 82.8433 93.3933 82.7922 93.42 82.7422C93.4955 82.5967 93.57 82.4511 93.6433 82.3044C93.6689 82.2533 93.6944 82.2022 93.72 82.15C93.8122 81.96 93.9022 81.77 93.99 81.5778C93.9922 81.5733 93.9944 81.5689 93.9966 81.5644C94.0055 81.5444 94.0133 81.5244 94.0222 81.5044C94.0978 81.3367 94.17 81.1689 94.2411 81C94.2622 80.94 94.2855 80.8822 94.3089 80.8244Z" fill="#D0D5DD"/>
<path d="M72.0522 96.1467C71.1244 96.1467 70.2066 96.0878 69.3244 95.9711C69.2566 95.9622 69.1955 95.9256 69.1555 95.8711L66.1566 91.7833C66.0977 91.7022 66.0922 91.5944 66.1433 91.5078C66.1944 91.4211 66.2922 91.3744 66.3911 91.3878C67.2522 91.5011 68.1488 91.5589 69.0533 91.5589C69.2866 91.5589 69.5333 91.5544 69.8311 91.5433L69.9777 91.5378C70.2266 91.5267 70.4777 91.5122 70.7233 91.4933L70.8655 91.4811C71.14 91.4578 71.3844 91.4333 71.6144 91.4067C71.6155 91.4067 71.6266 91.4056 71.6277 91.4056L71.6411 91.4044C71.8688 91.3767 72.1177 91.3422 72.4011 91.2989L72.5477 91.2756C72.7933 91.2356 73.04 91.1922 73.2811 91.1444L73.4144 91.1178C73.6733 91.0656 73.9088 91.0145 74.1333 90.9611L74.1788 90.9511C74.4044 90.8978 74.6455 90.8356 74.9155 90.7622L75.0622 90.7222C75.3066 90.6544 75.5466 90.5822 75.7755 90.5111L75.9244 90.4633C76.0811 90.4133 76.2366 90.3611 76.3911 90.3078L76.4022 90.3044C76.4555 90.2867 76.5088 90.2678 76.5622 90.2489C76.7911 90.1678 76.9811 90.0978 77.16 90.03C77.3433 89.96 77.5344 89.8833 77.7511 89.7933C77.8033 89.7722 77.8544 89.75 77.9066 89.7278L77.9188 89.7222C78.0711 89.6578 78.2222 89.5922 78.3722 89.5256L78.4277 89.5011C78.46 89.4867 78.4933 89.4722 78.5255 89.4578C78.6411 89.4056 78.7566 89.3511 78.8711 89.2967L78.9366 89.2656C78.9666 89.2511 78.9966 89.2378 79.0266 89.2233C79.1922 89.1433 79.3577 89.0622 79.5222 88.9778L79.5588 88.9589C79.7111 88.8811 79.8622 88.8022 80.0122 88.7211C80.0466 88.7022 80.0811 88.6833 80.1155 88.6644L80.1755 88.6311C80.2833 88.5722 80.39 88.5133 80.4966 88.4533L80.6066 88.39C80.8855 88.23 81.1588 88.0667 81.42 87.9033L81.5155 87.8433C81.7833 87.6745 82.0466 87.5011 82.3011 87.3278L82.4011 87.2589C82.6511 87.0856 82.8944 86.9122 83.1233 86.7422L83.2177 86.6711C83.4622 86.4878 83.7 86.3022 83.9244 86.1211L84.0077 86.0522C84.2533 85.8522 84.4766 85.6644 84.6888 85.4778L84.7522 85.4211C84.9944 85.2078 85.2155 85.0067 85.4277 84.8044L85.4622 84.7711C85.7022 84.5433 85.9322 84.3156 86.1466 84.0956L86.3366 84.2589L86.1577 84.0844C86.3811 83.8544 86.6044 83.6156 86.8211 83.3756C86.8222 83.3744 86.8288 83.3667 86.83 83.3656C87.0677 83.1 87.2966 82.8356 87.5155 82.57C87.7377 82.3 87.9522 82.0278 88.1588 81.7533L88.2333 81.6533C88.3155 81.5422 88.3977 81.4311 88.4788 81.3189C88.5044 81.2844 88.5288 81.2489 88.5533 81.2133L88.5944 81.1556C88.6611 81.0611 88.7266 80.9678 88.7922 80.8722C88.8255 80.8244 88.8577 80.7756 88.89 80.7267L88.9144 80.6911C88.9755 80.6 89.0355 80.51 89.0955 80.4189C89.1366 80.3556 89.1766 80.2922 89.2177 80.2289C89.2755 80.1389 89.3322 80.0478 89.3888 79.9578C89.4255 79.8989 89.4622 79.84 89.4977 79.78C89.5933 79.6233 89.6866 79.4656 89.7777 79.3067L89.82 79.2344C89.9177 79.0633 90.0166 78.8833 90.1222 78.6867L90.2011 78.5367C90.2766 78.3933 90.35 78.2489 90.4222 78.1044L90.4977 77.9522C90.5966 77.75 90.6833 77.5644 90.7644 77.3867L90.7966 77.3144C90.8711 77.1489 90.9433 76.9822 91.0133 76.8156C91.0366 76.7589 91.06 76.7022 91.0833 76.6444C91.1444 76.4944 91.2044 76.3444 91.2622 76.1922L91.2833 76.1367C91.2933 76.11 91.3044 76.0822 91.3144 76.0556C91.3866 75.8633 91.4566 75.6678 91.5222 75.4756L91.5655 75.3456C91.6177 75.19 91.6677 75.0333 91.7166 74.8756C91.7344 74.8167 91.7533 74.7567 91.7711 74.6978C91.8211 74.53 91.87 74.3611 91.9155 74.1922L91.9422 74.0956C91.9933 73.9044 92.0422 73.7089 92.0922 73.4956C92.1 73.4611 92.1077 73.4267 92.1155 73.3922L92.1277 73.3356C92.1622 73.1811 92.1955 73.0256 92.2277 72.8689L92.2355 72.8322C92.2444 72.7856 92.2544 72.7389 92.2633 72.6922C92.3077 72.4622 92.3433 72.2622 92.3722 72.0778C92.4744 71.4367 92.5433 70.79 92.5788 70.1567C92.5844 70.0511 92.6555 69.9611 92.7566 69.9311C92.8577 69.9011 92.9666 69.9378 93.03 70.0233L96.0288 74.1111C96.0633 74.1578 96.08 74.2144 96.0766 74.2722C96.0411 74.9233 95.97 75.5878 95.8644 76.2456C95.8344 76.4344 95.7977 76.64 95.7533 76.8744C95.7444 76.9211 95.7344 76.9678 95.7255 77.0144L95.7177 77.0544C95.6855 77.2144 95.6511 77.3733 95.6155 77.5322L95.6033 77.5878C95.5955 77.6233 95.5877 77.66 95.5788 77.6956C95.5277 77.9144 95.4777 78.1156 95.4255 78.3111L95.3977 78.41C95.3511 78.5833 95.3011 78.7556 95.25 78.9278C95.2322 78.9889 95.2133 79.0489 95.1944 79.11C95.1444 79.2711 95.0933 79.4311 95.04 79.59L94.9955 79.7233C94.9277 79.92 94.8566 80.12 94.7822 80.3178C94.7711 80.3467 94.76 80.3756 94.7488 80.4044L94.7277 80.4578C94.6688 80.6122 94.6077 80.7667 94.5444 80.92C94.5211 80.9789 94.4966 81.0367 94.4722 81.0944C94.4 81.2656 94.3266 81.4356 94.2511 81.6056L94.2244 81.6667C94.2233 81.6689 94.22 81.6778 94.2188 81.6789C94.1355 81.8622 94.0466 82.0522 93.9455 82.2589L93.8677 82.4144C93.7944 82.5622 93.7188 82.71 93.6422 82.8567L93.5622 83.01C93.4544 83.2122 93.3533 83.3956 93.2533 83.57L93.21 83.6433C93.1166 83.8056 93.0211 83.9667 92.9244 84.1267L92.88 84.2022C92.8677 84.2222 92.8544 84.2433 92.8422 84.2633L92.8144 84.3078C92.7566 84.4 92.6988 84.4922 92.64 84.5844C92.5988 84.6489 92.5566 84.7144 92.5144 84.7789C92.4533 84.8722 92.3922 84.9644 92.33 85.0578L92.3 85.1022C92.2688 85.1489 92.2366 85.1956 92.2055 85.2422C92.1388 85.3389 92.0711 85.4356 92.0022 85.5322L91.9622 85.5889C91.9366 85.6256 91.9111 85.6611 91.8855 85.6967C91.8033 85.8111 91.7188 85.9256 91.6344 86.0389L91.5644 86.1333C91.5622 86.1356 91.5577 86.1422 91.5555 86.1444C91.3466 86.42 91.1277 86.6989 90.9066 86.9678C90.9055 86.97 90.8988 86.9778 90.8977 86.9789C90.68 87.2444 90.4466 87.5144 90.2088 87.7789L90.1933 87.7967C89.9733 88.0422 89.7455 88.2856 89.5177 88.52L89.5066 88.5311C89.2866 88.7567 89.0522 88.9889 88.8088 89.22L88.7833 89.2456C88.7822 89.2467 88.7744 89.2544 88.7722 89.2556C88.5566 89.46 88.3311 89.6656 88.0833 89.8845L88.0188 89.9411C87.8011 90.1311 87.5677 90.3289 87.3244 90.5267L87.2377 90.5978C87.01 90.7822 86.7677 90.9711 86.5177 91.1578L86.4222 91.23C86.1877 91.4044 85.94 91.5822 85.6866 91.7567L85.6633 91.7733C85.6511 91.7822 85.6388 91.7911 85.6266 91.7989C85.6166 91.8056 85.6077 91.8122 85.5977 91.8178L85.5833 91.8278C85.3277 92.0022 85.0588 92.1789 84.7833 92.3533L84.6855 92.4156C84.42 92.5822 84.1411 92.7489 83.8566 92.9111L83.8344 92.9244C83.8233 92.9311 83.8122 92.9378 83.8 92.9444L83.7433 92.9756C83.6344 93.0378 83.5255 93.0978 83.4155 93.1578L83.3555 93.1911C83.32 93.2111 83.2855 93.23 83.25 93.2489C83.0966 93.3311 82.9433 93.4122 82.7877 93.4911L82.7511 93.5111C82.5833 93.5967 82.4155 93.68 82.2455 93.7611C82.2122 93.7778 82.1777 93.7933 82.1433 93.81L82.0833 93.8378C81.9677 93.8922 81.8511 93.9478 81.7344 94L81.68 94.0256C81.66 94.0344 81.64 94.0433 81.62 94.0522L81.5766 94.0711C81.4244 94.1389 81.2711 94.2056 81.1166 94.2711L81.0733 94.2889C81.03 94.3067 80.9866 94.3256 80.9433 94.3433C80.7188 94.4367 80.53 94.5122 80.35 94.5811C80.1566 94.6556 79.9566 94.7289 79.7311 94.8078C79.6788 94.8267 79.6266 94.8444 79.5733 94.8622L79.5555 94.8689C79.3977 94.9233 79.2388 94.9756 79.08 95.0278L79.0333 95.0433C79.0122 95.05 78.9922 95.0578 78.9711 95.0644L78.9255 95.0778C78.6933 95.1511 78.4488 95.2233 78.1977 95.2933L78.0466 95.3344C77.77 95.41 77.5233 95.4733 77.2944 95.5278L77.2466 95.5389C77.0155 95.5933 76.7755 95.6456 76.5133 95.6989L76.3755 95.7267C76.1344 95.7744 75.8822 95.8189 75.6277 95.86L75.4766 95.8833C75.1888 95.9278 74.9355 95.9633 74.7 95.9911L74.6788 95.9933C74.4377 96.0222 74.1877 96.0467 73.9077 96.07L73.7622 96.0822C73.5111 96.1022 73.2544 96.1167 72.9988 96.1278L72.8488 96.1333C72.5455 96.1422 72.2933 96.1467 72.0522 96.1467ZM69.4955 95.4889C70.3244 95.5933 71.1833 95.6467 72.0522 95.6467C72.2866 95.6467 72.5333 95.6422 72.83 95.6311L72.9766 95.6256C73.2255 95.6144 73.4766 95.6 73.7222 95.5811L73.8644 95.5689C74.1388 95.5456 74.3833 95.5211 74.6133 95.4944C74.6144 95.4944 74.6244 95.4933 74.6255 95.4933L74.6388 95.4922C74.8688 95.4644 75.1166 95.43 75.3988 95.3867L75.5466 95.3633C75.7966 95.3233 76.0433 95.2789 76.2788 95.2322L76.4133 95.2045C76.67 95.1522 76.9055 95.1011 77.13 95.0489L77.1777 95.0378C77.4 94.9845 77.6411 94.9233 77.9133 94.8489L78.0611 94.8089C78.3066 94.74 78.5455 94.6689 78.7733 94.5978L78.8166 94.5844C78.8344 94.5789 78.8522 94.5733 78.8688 94.5667L78.9233 94.5489C79.0788 94.4989 79.2344 94.4467 79.3888 94.3933L79.4077 94.3867C79.4588 94.3689 79.51 94.3522 79.5611 94.3333C79.7833 94.2556 79.9777 94.1833 80.1577 94.1145C80.3433 94.0433 80.5277 93.9689 80.7488 93.8778L80.9177 93.8067C81.0688 93.7433 81.2188 93.6778 81.3688 93.6111L81.42 93.5889C81.4366 93.5811 81.4533 93.5744 81.4711 93.5667L81.5255 93.5411C81.6388 93.4889 81.7533 93.4356 81.8666 93.3822L81.9288 93.3533C81.9611 93.3378 81.9933 93.3233 82.0255 93.3078C82.1922 93.2278 82.3566 93.1467 82.5211 93.0622L82.5577 93.0422C82.7088 92.9644 82.86 92.8856 83.01 92.8044C83.0433 92.7867 83.0777 92.7678 83.1111 92.7489L83.1733 92.7144C83.2811 92.6556 83.3877 92.5967 83.4944 92.5367L83.5711 92.4933C83.5822 92.4867 83.5933 92.48 83.6055 92.4733C83.8833 92.3133 84.1566 92.15 84.4177 91.9878L84.5133 91.9278C84.7833 91.7578 85.0477 91.5845 85.2977 91.4122L85.3988 91.3422C85.6477 91.17 85.89 90.9967 86.1211 90.8256L86.2144 90.7544C86.4588 90.5711 86.6966 90.3856 86.9211 90.2045L87.0044 90.1356C87.2433 89.9411 87.4722 89.7478 87.6855 89.5611L87.7488 89.5056C87.9922 89.2911 88.2133 89.09 88.4244 88.8889C88.4255 88.8878 88.4322 88.8822 88.4344 88.88L88.46 88.8544C88.6988 88.6278 88.9288 88.4 89.1444 88.1789L89.1577 88.1656C89.3788 87.9378 89.6022 87.7 89.8177 87.4589C89.82 87.4567 89.8255 87.45 89.8277 87.4478C90.0655 87.1822 90.2944 86.9178 90.5122 86.6522C90.7344 86.3822 90.95 86.11 91.1566 85.8356C91.1577 85.8333 91.1622 85.8289 91.1633 85.8267L91.23 85.7356C91.3133 85.6244 91.3955 85.5133 91.4755 85.4011C91.5 85.3667 91.5244 85.3322 91.5488 85.2978L91.59 85.2389C91.6566 85.1444 91.7233 85.05 91.7888 84.9545C91.82 84.9089 91.85 84.8633 91.8811 84.8189L91.9111 84.7744C91.9722 84.6833 92.0322 84.5933 92.0922 84.5011C92.1333 84.4378 92.1744 84.3744 92.2144 84.3111C92.2722 84.2211 92.3288 84.1311 92.3844 84.04L92.4933 83.8622C92.5877 83.7056 92.6811 83.5478 92.7733 83.3889L92.8155 83.3167C92.9122 83.1467 93.0111 82.9667 93.1177 82.7689L93.1966 82.6189C93.2722 82.4756 93.3455 82.3311 93.4177 82.1867L93.4933 82.0344C93.5922 81.8322 93.6788 81.6467 93.76 81.4689C93.7611 81.4667 93.7644 81.4589 93.7655 81.4567L93.7922 81.3967C93.8666 81.2311 93.9388 81.0644 94.0088 80.8978C94.0322 80.8411 94.0555 80.7844 94.0788 80.7267C94.14 80.5767 94.2 80.4267 94.2577 80.2756L94.2788 80.22C94.2888 80.1933 94.3 80.1656 94.31 80.1389C94.3822 79.9467 94.4522 79.7511 94.5177 79.5589L94.5611 79.4289C94.6133 79.2733 94.6633 79.1167 94.7122 78.9589C94.73 78.9 94.7488 78.84 94.7666 78.7811C94.8166 78.6133 94.8644 78.4456 94.9111 78.2767L94.9377 78.18C94.9888 77.99 95.0377 77.7933 95.0877 77.58L95.1233 77.42C95.1577 77.2656 95.1911 77.11 95.2233 76.9533L95.2311 76.9122C95.24 76.8667 95.2488 76.8222 95.2577 76.7767C95.3022 76.5478 95.3377 76.3467 95.3666 76.1622C95.4644 75.5511 95.5322 74.9356 95.5677 74.33L93.0233 70.8611C92.9844 71.2911 92.93 71.7233 92.8611 72.1522C92.8311 72.3411 92.7944 72.5467 92.75 72.7811C92.7411 72.8289 92.7311 72.8778 92.7211 72.9267L92.7144 72.9622C92.6822 73.1222 92.6477 73.2811 92.6122 73.44L92.6 73.4956C92.5922 73.5322 92.5833 73.5678 92.5755 73.6044C92.5244 73.8222 92.4744 74.0233 92.4222 74.22L92.3944 74.3189C92.3477 74.4922 92.2977 74.6644 92.2466 74.8367C92.2288 74.8978 92.21 74.9578 92.1911 75.0189C92.1411 75.18 92.09 75.34 92.0366 75.5L91.9922 75.6333C91.9244 75.83 91.8533 76.03 91.7788 76.2278C91.7677 76.2567 91.7566 76.2856 91.7455 76.3144L91.7244 76.3678C91.6655 76.5222 91.6044 76.6767 91.5411 76.83C91.5177 76.8889 91.4933 76.9467 91.4688 77.0044C91.3966 77.1756 91.3233 77.3456 91.2477 77.5156L91.2155 77.59C91.1322 77.7722 91.0433 77.9622 90.9422 78.1689L90.8644 78.3244C90.7911 78.4722 90.7155 78.62 90.6388 78.7667L90.6144 78.8133C90.5955 78.8489 90.5766 78.8845 90.5577 78.92C90.45 79.1211 90.3488 79.3044 90.2488 79.48L90.2055 79.5533C90.1122 79.7156 90.0166 79.8767 89.92 80.0378C89.8833 80.0989 89.8455 80.1589 89.8088 80.2189C89.7511 80.3111 89.6933 80.4044 89.6344 80.4967C89.5933 80.5611 89.5511 80.6256 89.51 80.69C89.4488 80.7833 89.3877 80.8756 89.3255 80.9678L89.3022 81.0033C89.2688 81.0533 89.2355 81.1033 89.2011 81.1533C89.1344 81.25 89.0666 81.3456 88.9988 81.4422L88.9588 81.4989C88.9333 81.5356 88.9077 81.5722 88.8811 81.6089C88.7988 81.7233 88.7144 81.8367 88.63 81.95L88.5544 82.0522C88.3433 82.3322 88.1244 82.61 87.9022 82.8789C87.9011 82.88 87.8944 82.8878 87.8933 82.8889C87.6733 83.1556 87.44 83.4267 87.2033 83.69L87.1922 83.7022C86.9677 83.9522 86.74 84.1956 86.5122 84.43C86.5122 84.43 86.5022 84.4411 86.5011 84.4411C86.2822 84.6656 86.0477 84.8978 85.8033 85.13L85.7677 85.1644C85.5511 85.37 85.3255 85.5756 85.0788 85.7933L85.0144 85.85C84.7966 86.04 84.57 86.2322 84.32 86.4356L84.2344 86.5056C84.0055 86.69 83.7633 86.8789 83.5133 87.0667L83.4177 87.1389C83.1844 87.3122 82.9366 87.49 82.6822 87.6667L82.58 87.7378C82.3211 87.9144 82.0522 88.0922 81.7788 88.2633L81.6822 88.3244C81.4166 88.4911 81.1377 88.6578 80.8533 88.8211L80.7411 88.8856C80.6322 88.9467 80.5233 89.0078 80.4133 89.0678L80.3555 89.1C80.3188 89.12 80.2833 89.14 80.2466 89.16C80.0933 89.2422 79.94 89.3233 79.7844 89.4022L79.7466 89.4222C79.5788 89.5078 79.4111 89.5911 79.2411 89.6722C79.2088 89.6878 79.1777 89.7022 79.1455 89.7178L79.0822 89.7478C78.9644 89.8033 78.8477 89.8589 78.73 89.9122C78.6966 89.9278 78.6622 89.9422 78.6277 89.9578L78.5733 89.9822C78.42 90.0511 78.2655 90.1178 78.1111 90.1833L78.0988 90.1889C78.0455 90.2111 77.9933 90.2333 77.94 90.2556C77.7188 90.3467 77.5233 90.4256 77.3433 90.4944C77.1544 90.5667 76.9611 90.6378 76.7266 90.72C76.6722 90.7389 76.6177 90.7578 76.5633 90.7767L76.5555 90.7778C76.3977 90.8322 76.2377 90.8856 76.0788 90.9367L75.9277 90.9856C75.6933 91.0589 75.4477 91.1322 75.1988 91.2011L75.0488 91.2422C74.7733 91.3178 74.5277 91.3811 74.2955 91.4356L74.2488 91.4456C74.0188 91.5 73.7777 91.5522 73.5144 91.6056L73.3788 91.6333C73.1322 91.6811 72.8811 91.7267 72.6288 91.7667L72.4788 91.79C72.19 91.8344 71.9355 91.87 71.7011 91.8978L71.68 91.9C71.4388 91.9289 71.1888 91.9533 70.9088 91.9767L70.7633 91.9889C70.5122 92.0089 70.2555 92.0233 70 92.0344L69.85 92.04C69.5466 92.0511 69.2944 92.0556 69.0544 92.0556C68.3266 92.0556 67.6044 92.0189 66.9011 91.9467L69.4955 95.4889Z" fill="#F9FAFB"/>
<path d="M69.8189 53.1211L70.5022 62.7589C67.0544 63.7967 64.0922 66.3967 62.7033 69.6467C62.3944 70.3678 62.1644 71.1222 62.0233 71.8978C62.01 71.9711 61.9978 72.0444 61.9855 72.1166C61.2522 76.7122 63.9022 80.5767 68.1466 81.6611L64.0211 91.1844C55.5766 88.9866 50.3133 81.2822 51.7755 72.1166C51.7867 72.0433 51.7989 71.97 51.8122 71.8978C53.0633 64.5711 58.3078 58.2055 65.0589 54.8811C66.5778 54.1311 68.1744 53.5378 69.8189 53.1211Z" fill="#D0D5DD"/>
<path d="M64.021 91.4333C63.9999 91.4333 63.9788 91.4311 63.9577 91.4256C55.1866 89.1422 50.0754 81.1856 51.5277 72.0767C51.5399 72.0022 51.5521 71.9289 51.5643 71.8544C52.7843 64.71 57.9121 58.12 64.9466 54.6556C66.4977 53.8911 68.1166 53.2933 69.7566 52.8789C69.8288 52.8611 69.9043 52.8756 69.9643 52.9189C70.0243 52.9622 70.0621 53.03 70.0677 53.1033L70.751 62.7411C70.7588 62.8578 70.6854 62.9644 70.5732 62.9978C67.2054 64.0111 64.2777 66.5967 62.9321 69.7444C62.6266 70.4589 62.4032 71.1989 62.2677 71.9422C62.2543 72.0133 62.2421 72.0844 62.231 72.1567C61.5332 76.5333 63.991 80.3422 68.2077 81.4189C68.2788 81.4367 68.3377 81.4856 68.3699 81.5511C68.4021 81.6167 68.4043 81.6933 68.3743 81.7611L64.2488 91.2844C64.2099 91.3767 64.1188 91.4333 64.021 91.4333ZM69.5899 53.4389C68.0832 53.8411 66.5966 54.4011 65.1677 55.1044C58.2743 58.4989 53.251 64.95 52.0577 71.9389C52.0454 72.0111 52.0332 72.0833 52.0221 72.1556C50.6232 80.9289 55.491 88.6 63.8777 90.8867L67.8021 81.8256C63.4977 80.5867 61.0132 76.62 61.7377 72.0767C61.7499 72.0022 61.7621 71.9267 61.7766 71.8522C61.9188 71.0722 62.1532 70.2967 62.4732 69.5478C63.8499 66.3267 66.8132 63.6722 70.2388 62.5789L69.5899 53.4389Z" fill="#F9FAFB"/>
<path d="M80.9567 65.6933L83.9556 69.7811C82.61 67.9466 80.48 66.7 77.8945 66.4178C77.5267 66.3778 77.1489 66.3566 76.7633 66.3566C76.5011 66.3566 76.2367 66.3655 75.9767 66.3855L72.9778 62.2977C73.2378 62.2789 73.5022 62.2689 73.7645 62.2689C74.15 62.2689 74.5267 62.2889 74.8956 62.33C77.4811 62.6122 79.6111 63.8577 80.9567 65.6933Z" fill="#D0D5DD"/>
<path d="M83.9555 70.0311C83.8789 70.0311 83.8022 69.9955 83.7533 69.9288L83.7522 69.9277C82.4055 68.0922 80.3155 66.9344 77.8666 66.6666C77.2578 66.6 76.6111 66.59 75.9944 66.6355C75.9089 66.6411 75.8255 66.6033 75.7744 66.5344L72.7755 62.4466C72.7222 62.3733 72.7122 62.2766 72.75 62.1944C72.7878 62.1122 72.8678 62.0566 72.9589 62.05C73.6055 62.0033 74.2822 62.0133 74.9211 62.0833C77.5111 62.3655 79.7255 63.5955 81.1566 65.5466L84.1555 69.6344C84.2367 69.7455 84.2133 69.9022 84.1022 69.9844C84.0589 70.0155 84.0066 70.0311 83.9555 70.0311ZM76.7633 66.1066C77.1533 66.1066 77.5433 66.1277 77.9211 66.1688C79.47 66.3377 80.8844 66.8455 82.0778 67.6444L80.7544 65.84C79.4078 64.0033 77.3166 62.8444 74.8678 62.5777C74.4078 62.5277 73.9278 62.5088 73.4533 62.5233L76.0966 66.1266C76.3178 66.1133 76.5411 66.1066 76.7633 66.1066Z" fill="#F9FAFB"/>
<mask id="mask2_6802_25353" style="mask-type:luminance" maskUnits="userSpaceOnUse" x="72" y="62" width="12" height="8">
<mask id="mask3_6802_25353" style="mask-type:luminance" maskUnits="userSpaceOnUse" x="72" y="62" width="12" height="8">
<path d="M80.9567 65.6933L83.9556 69.7811C82.61 67.9466 80.48 66.7 77.8945 66.4178C77.5267 66.3778 77.1489 66.3566 76.7633 66.3566C76.5011 66.3566 76.2367 66.3655 75.9767 66.3855L72.9778 62.2977C73.2378 62.2789 73.5022 62.2689 73.7645 62.2689C74.15 62.2689 74.5267 62.2889 74.8956 62.33C77.4811 62.6122 79.6111 63.8577 80.9567 65.6933Z" fill="white"/>
</mask>
<g mask="url(#mask3_6802_25353)">
<path d="M83.9555 70.0311C83.8789 70.0311 83.8022 69.9955 83.7533 69.9288L83.7522 69.9277C82.4055 68.0922 80.3155 66.9344 77.8666 66.6666C77.2578 66.6 76.6111 66.59 75.9944 66.6355C75.9089 66.6411 75.8255 66.6033 75.7744 66.5344L72.7755 62.4466C72.7222 62.3733 72.7122 62.2766 72.75 62.1944C72.7878 62.1122 72.8678 62.0566 72.9589 62.05C73.6055 62.0033 74.2822 62.0133 74.9211 62.0833C77.5111 62.3655 79.7255 63.5955 81.1566 65.5466L84.1555 69.6344C84.2367 69.7455 84.2133 69.9022 84.1022 69.9844C84.0589 70.0155 84.0066 70.0311 83.9555 70.0311ZM76.7633 66.1066C77.1533 66.1066 77.5433 66.1277 77.9211 66.1688C79.47 66.3377 80.8844 66.8455 82.0778 67.6444L80.7544 65.84C79.4078 64.0033 77.3166 62.8444 74.8678 62.5777C74.4078 62.5277 73.9278 62.5088 73.4533 62.5233L76.0966 66.1266C76.3178 66.1133 76.5411 66.1066 76.7633 66.1066Z" fill="white"/>
</g>
</mask>
<g mask="url(#mask2_6802_25353)">
<path d="M80.9567 65.6933L83.9556 69.7811C82.61 67.9466 80.48 66.7 77.8945 66.4178C77.5267 66.3778 77.1489 66.3566 76.7633 66.3566C76.5011 66.3566 76.2367 66.3655 75.9767 66.3855L72.9778 62.2977C73.2378 62.2789 73.5022 62.2689 73.7645 62.2689C74.15 62.2689 74.5267 62.2889 74.8956 62.33C77.4811 62.6122 79.6111 63.8577 80.9567 65.6933Z" fill="#D0D5DD"/>
<path d="M83.9555 70.0311C83.8789 70.0311 83.8022 69.9955 83.7533 69.9288L83.7522 69.9277C82.4055 68.0922 80.3155 66.9344 77.8666 66.6666C77.2578 66.6 76.6111 66.59 75.9944 66.6355C75.9089 66.6411 75.8255 66.6033 75.7744 66.5344L72.7755 62.4466C72.7222 62.3733 72.7122 62.2766 72.75 62.1944C72.7878 62.1122 72.8678 62.0566 72.9589 62.05C73.6055 62.0033 74.2822 62.0133 74.9211 62.0833C77.5111 62.3655 79.7255 63.5955 81.1566 65.5466L84.1555 69.6344C84.2367 69.7455 84.2133 69.9022 84.1022 69.9844C84.0589 70.0155 84.0066 70.0311 83.9555 70.0311ZM76.7633 66.1066C77.1533 66.1066 77.5433 66.1277 77.9211 66.1688C79.47 66.3377 80.8844 66.8455 82.0778 67.6444L80.7544 65.84C79.4078 64.0033 77.3166 62.8444 74.8678 62.5777C74.4078 62.5277 73.9278 62.5088 73.4533 62.5233L76.0966 66.1266C76.3178 66.1133 76.5411 66.1066 76.7633 66.1066Z" fill="#F9FAFB"/>
</g>
<path d="M75.3354 52.4222C75.7177 52.4222 76.0966 52.4322 76.471 52.4522C85.6321 52.9422 92.2121 59.3577 92.8121 67.8266L82.511 70.1355C82.2977 65.9977 79.2388 62.8033 74.8954 62.33C74.5277 62.29 74.1499 62.2688 73.7643 62.2688C73.5021 62.2688 73.2377 62.2777 72.9777 62.2977L72.2921 52.6355C73.2966 52.4944 74.3132 52.4222 75.3354 52.4222Z" fill="#98A2B3"/>
<path d="M82.511 70.3855C82.4565 70.3855 82.4032 70.3678 82.3599 70.3344C82.301 70.29 82.2654 70.2222 82.261 70.1478C82.051 66.0789 79.0799 63.0366 74.8687 62.5778C74.2599 62.5111 73.6132 62.5011 72.9965 62.5466C72.9298 62.5511 72.8643 62.53 72.8143 62.4866C72.7643 62.4433 72.7332 62.3811 72.7287 62.3155L72.0432 52.6533C72.0343 52.5222 72.1276 52.4066 72.2576 52.3878C73.6643 52.1911 75.0987 52.1289 76.4843 52.2033C85.6276 52.6933 92.4454 59.1111 93.061 67.81C93.0699 67.9333 92.9865 68.0444 92.8665 68.0711L82.5654 70.38C82.5476 70.3833 82.5287 70.3855 82.511 70.3855ZM73.7654 62.0189C74.1554 62.0189 74.5454 62.04 74.9232 62.0811C77.1054 62.3189 79.0099 63.22 80.431 64.6844C81.7799 66.0744 82.5743 67.8478 82.7398 69.8278L92.5454 67.63C91.851 59.2989 85.2654 53.1733 76.4565 52.7011C75.1787 52.6322 73.8576 52.6833 72.5576 52.8511L73.2087 62.0322C73.3943 62.0233 73.5799 62.0189 73.7654 62.0189Z" fill="#F9FAFB"/>
<path d="M94.9211 25.0333C93.89 23.8577 92.3855 23.27 90.7866 23.27C89.1889 23.27 87.4966 23.8577 86.09 25.0333C84.6822 26.21 83.8266 27.7522 83.58 29.2933C83.3333 30.8355 83.6977 32.3766 84.7289 33.5522C85.7611 34.7288 87.2644 35.3155 88.8622 35.3155C90.4611 35.3155 92.1544 34.7266 93.5622 33.55C94.9689 32.3744 95.8244 30.8333 96.07 29.2922C96.3166 27.7511 95.9533 26.21 94.9211 25.0333Z" fill="#F9FAFB"/>
<path d="M88.8256 28.1633C89.07 28.1633 89.3012 28.2533 89.4612 28.4333C89.7767 28.7933 89.6834 29.3767 89.2534 29.7356C89.0367 29.9156 88.7767 30.0056 88.5323 30.0056C88.2878 30.0056 88.0578 29.9156 87.9 29.7356C87.5845 29.3756 87.6778 28.7922 88.1078 28.4333C88.3223 28.2533 88.58 28.1633 88.8256 28.1633Z" fill="#F9FAFB"/>
<path d="M87.2066 26.05C87.6833 26.05 88.1311 26.2255 88.4389 26.5755C89.0533 27.2755 88.8722 28.4111 88.0344 29.1111C87.6144 29.4622 87.11 29.6378 86.6333 29.6378C86.1578 29.6378 85.71 29.4622 85.4022 29.1122C84.7878 28.4122 84.9689 27.2755 85.8066 26.5744C86.2266 26.2244 86.73 26.05 87.2066 26.05Z" fill="#F9FAFB"/>
<path d="M97.3489 23.0033C100.094 26.1311 99.6389 31.01 96.4878 34.4856L96.2867 34.2567C96.04 33.9767 95.6811 33.8367 95.3 33.8367C94.9189 33.8367 94.5156 33.9767 94.18 34.2567C93.51 34.8189 93.3645 35.7267 93.8556 36.2889L94.0567 36.5178C92.2756 37.6311 90.2967 38.1889 88.4067 38.1889C86.0467 38.1889 83.8245 37.32 82.3 35.5822C79.2511 32.1067 80.1489 26.4756 84.3067 23.0011C86.3834 21.2644 88.8811 20.3967 91.2411 20.3967C93.6023 20.3967 95.8245 21.2656 97.3489 23.0033ZM93.5623 33.55C94.9689 32.3744 95.8245 30.8333 96.07 29.2922C96.3156 27.7511 95.9523 26.21 94.92 25.0333C93.8889 23.8578 92.3845 23.27 90.7856 23.27C89.1867 23.27 87.4956 23.8578 86.0889 25.0333C84.6811 26.21 83.8256 27.7522 83.5789 29.2933C83.3323 30.8356 83.6967 32.3767 84.7278 33.5522C85.76 34.7289 87.2634 35.3156 88.8611 35.3156C90.4611 35.3167 92.1545 34.7278 93.5623 33.55Z" fill="#D0D5DD"/>
<path d="M95.3011 33.8378C95.6822 33.8378 96.0411 33.9778 96.2878 34.2578L96.4889 34.4867L100.607 39.1822C101.098 39.7422 100.953 40.6522 100.283 41.2122C99.9489 41.4922 99.5444 41.6322 99.1644 41.6322C98.7833 41.6322 98.4244 41.4922 98.1789 41.2122L94.0589 36.5189L93.8578 36.29C93.3667 35.7278 93.5111 34.82 94.1822 34.2578C94.5167 33.9778 94.92 33.8378 95.3011 33.8378Z" fill="#D0D5DD"/>
</svg>
