<svg width="120" height="120" viewBox="0 0 120 120" fill="none" xmlns="http://www.w3.org/2000/svg">
<path d="M60 97.5922C82.6553 97.5922 101.021 90.3875 101.021 81.5C101.021 72.6125 82.6553 65.4078 60 65.4078C37.3447 65.4078 18.9789 72.6125 18.9789 81.5C18.9789 90.3875 37.3447 97.5922 60 97.5922Z" fill="#F9FAFB"/>
<path d="M33.41 71.3833C33.1656 70.9867 32.6456 70.8633 32.2478 71.1078L31.5289 71.5511L31.0856 70.8322C30.8411 70.4355 30.3211 70.3122 29.9233 70.5567C29.5267 70.8011 29.4033 71.3211 29.6478 71.7189L30.0911 72.4378L30.9778 73.8755L32.4156 72.9889L33.1344 72.5455C33.5311 72.3 33.6544 71.78 33.41 71.3833Z" fill="#D0D5DD"/>
<path d="M35.1211 43.0567H31.9489L35.36 41.5578L35.1211 43.0567Z" fill="#667185"/>
<path d="M35.1212 43.3067H31.949C31.8312 43.3067 31.729 43.2233 31.7045 43.1078C31.6801 42.9922 31.7401 42.8756 31.849 42.8278L35.2601 41.33C35.3434 41.2933 35.4412 41.3056 35.5134 41.3611C35.5856 41.4167 35.6223 41.5078 35.6079 41.5989L35.369 43.0967C35.3479 43.2167 35.2434 43.3067 35.1212 43.3067ZM33.139 42.8067H34.9067L35.0401 41.9722L33.139 42.8067Z" fill="#F9FAFB"/>
<path d="M77.7744 24.5045L75.0789 41.41L74.8156 43.0567L74.49 45.0989L75.7667 44.3533L77.4522 46.6511L77.7144 45.0045L80.4111 28.0989L77.7744 24.5045Z" fill="#E4E7EC"/>
<path d="M77.4523 46.9011C77.3734 46.9011 77.2989 46.8645 77.2511 46.7989L75.6989 44.6822L74.6167 45.3145C74.5334 45.3633 74.4289 45.36 74.3489 45.3045C74.2689 45.25 74.2278 45.1545 74.2434 45.0589L77.5278 24.4645C77.5434 24.3645 77.6178 24.2845 77.7156 24.2611C77.8134 24.2378 77.9167 24.2745 77.9756 24.3567L80.6123 27.9511C80.6523 28.0045 80.6678 28.0722 80.6578 28.1389L77.6989 46.6911C77.6834 46.7911 77.6089 46.8711 77.5111 46.8945C77.4911 46.8989 77.4723 46.9011 77.4523 46.9011ZM75.7667 44.1033C75.8445 44.1033 75.92 44.1389 75.9689 44.2056L77.3 46.0211L80.1478 28.1633L77.9267 25.1356L74.82 44.6167L75.64 44.1367C75.68 44.1145 75.7234 44.1033 75.7667 44.1033Z" fill="#F9FAFB"/>
<path d="M31.9467 43.0567H35.1211L34.7944 45.1023L31.9467 43.0567Z" fill="#D0D5DD"/>
<path d="M34.7945 45.3523C34.7433 45.3523 34.6922 45.3367 34.6489 45.3056L31.8011 43.26C31.7133 43.1967 31.6756 43.0834 31.7089 42.98C31.7422 42.8767 31.8378 42.8067 31.9467 42.8067H35.12C35.1933 42.8067 35.2622 42.8389 35.31 42.8945C35.3578 42.95 35.3778 43.0234 35.3667 43.0956L35.04 45.1411C35.0267 45.2267 34.9689 45.2989 34.8889 45.3323C34.86 45.3456 34.8267 45.3523 34.7945 45.3523ZM32.7234 43.3067L34.6111 44.6623L34.8278 43.3067H32.7234Z" fill="#F9FAFB"/>
<path d="M77.7744 24.5045L75.0789 41.41L74.8156 43.0567L74.49 45.0989L57.3833 55.0978H50.3278L50.1611 56.1422L34.7944 45.1022L35.1211 43.0567L35.36 41.5578L36.4478 34.7322H46.87L48.4733 24.6778L48.6822 24.5045H77.7744Z" fill="#F7F9FC"/>
<path d="M49.6023 59.6456L47.5156 72.73H27.2145L42.0478 64.0611L49.6023 59.6456Z" fill="#D0D5DD"/>
<path d="M47.5155 72.73L50.1521 76.3244H29.851L27.2144 72.73H47.5155Z" fill="#D0D5DD"/>
<path d="M50.6455 76.5744H29.7244L26.7211 72.48H47.6422L50.6455 76.5744ZM29.9777 76.0744H49.6588L47.3888 72.98H27.7077L29.9777 76.0744Z" fill="#F9FAFB"/>
<path d="M77.9856 43.0567L80.6222 46.6511L78.7011 58.6923L76.0645 55.0978L77.9856 43.0567Z" fill="#D0D5DD"/>
<path d="M78.7012 58.9422C78.6223 58.9422 78.5479 58.9055 78.5001 58.84L75.8634 55.2455C75.8234 55.1922 75.8079 55.1244 75.8179 55.0578L77.7379 43.0166C77.7534 42.9166 77.8279 42.8366 77.9257 42.8133C78.0234 42.79 78.1268 42.8266 78.1857 42.9089L80.8223 46.5033C80.8623 46.5566 80.8779 46.6244 80.8679 46.6911L78.9479 58.7322C78.9323 58.8322 78.8579 58.9122 78.7601 58.9355C78.7412 58.94 78.7212 58.9422 78.7012 58.9422ZM76.3279 55.0344L78.549 58.0622L80.359 46.7155L78.1379 43.6878L76.3279 55.0344Z" fill="#F9FAFB"/>
<path d="M89.1168 55.0978L91.7534 58.6922L87.8779 82.99L85.2412 79.3956L89.1168 55.0978Z" fill="#D0D5DD"/>
<path d="M87.8779 83.24C87.799 83.24 87.7245 83.2033 87.6767 83.1378L85.0401 79.5433C85.0001 79.49 84.9845 79.4222 84.9945 79.3556L88.8701 55.0578C88.8856 54.9578 88.9601 54.8778 89.0579 54.8545C89.1556 54.8311 89.259 54.8678 89.3179 54.95L91.9545 58.5445C91.9945 58.5978 92.0101 58.6656 92.0001 58.7322L88.1245 83.03C88.109 83.13 88.0345 83.21 87.9367 83.2333C87.9179 83.2378 87.8979 83.24 87.8779 83.24ZM85.5045 79.3322L87.7256 82.36L91.4901 58.7567L89.269 55.7289L85.5045 79.3322Z" fill="#F9FAFB"/>
<path d="M77.8999 79.3956L77.7488 80.3422L76.7566 86.5622L79.3933 90.1578L80.3855 83.9367L80.5366 82.99L77.8999 79.3956Z" fill="#D0D5DD"/>
<path d="M79.3934 90.4077C79.3145 90.4077 79.24 90.3711 79.1922 90.3055L76.5556 86.71C76.5156 86.6566 76.5 86.5888 76.51 86.5222L77.6534 79.3555C77.6689 79.2555 77.7434 79.1755 77.8411 79.1522C77.9389 79.1288 78.0422 79.1655 78.1011 79.2477L80.7378 82.8422C80.7778 82.8955 80.7934 82.9633 80.7834 83.03L79.64 90.1966C79.6245 90.2966 79.55 90.3766 79.4522 90.4C79.4322 90.4055 79.4134 90.4077 79.3934 90.4077ZM77.02 86.4988L79.2411 89.5266L80.2734 83.0544L78.0522 80.0266L77.02 86.4988Z" fill="#F9FAFB"/>
<path d="M70.4701 79.3956L71.3012 80.3422L76.7568 86.5622L77.749 80.3422L77.9001 79.3956H70.4701Z" fill="#D0D5DD"/>
<path d="M76.7567 86.8122C76.6856 86.8122 76.6167 86.7822 76.5689 86.7267L70.2823 79.56C70.2178 79.4867 70.2023 79.3811 70.2423 79.2922C70.2823 79.2033 70.3723 79.1456 70.47 79.1456H77.8989C77.9723 79.1456 78.0412 79.1778 78.0889 79.2333C78.1367 79.2889 78.1567 79.3622 78.1456 79.4345L77.0023 86.6011C76.9867 86.6967 76.9178 86.7756 76.8245 86.8022C76.8034 86.81 76.78 86.8122 76.7567 86.8122ZM71.0223 79.6456L76.5934 85.9978L77.6067 79.6456H71.0223Z" fill="#F9FAFB"/>
<path d="M31.9467 43.0566L34.7945 45.1022L50.1611 56.1422L49.6023 59.6455L42.0478 64.0611L27.2145 72.73L31.9467 43.0566Z" fill="#98A2B3"/>
<path d="M27.2144 72.98C27.1655 72.98 27.1155 72.9656 27.0733 72.9367C26.9933 72.8822 26.9522 72.7867 26.9677 72.6911L31.6999 43.0178C31.7133 42.9322 31.7711 42.86 31.8511 42.8267C31.9311 42.7933 32.0222 42.8033 32.0933 42.8544L50.3077 55.94C50.3844 55.9956 50.4233 56.0889 50.4088 56.1822L49.8499 59.6856C49.8377 59.76 49.7944 59.8245 49.7288 59.8622L27.3411 72.9456C27.3011 72.9689 27.2577 72.98 27.2144 72.98ZM32.13 43.4956L27.5444 72.2478L49.3744 59.4889L49.8899 56.2545L32.13 43.4956Z" fill="#F9FAFB"/>
<path d="M77.9855 43.0567L76.0644 55.0978H57.3833L77.9855 43.0567Z" fill="#98A2B3"/>
<path d="M76.0644 55.3478H57.3833C57.27 55.3478 57.1711 55.2723 57.1422 55.1634C57.1122 55.0545 57.16 54.9389 57.2577 54.8823L77.86 42.8412C77.9433 42.7923 78.0477 42.7956 78.1277 42.8511C78.2077 42.9067 78.2489 43.0011 78.2333 43.0967L76.3111 55.1367C76.2922 55.2589 76.1877 55.3478 76.0644 55.3478ZM58.3066 54.8478H75.8511L77.6544 43.5389L58.3066 54.8478Z" fill="#F9FAFB"/>
<path d="M76.0644 55.0978H89.1166L85.241 79.3956H77.8999H70.471H46.4521L47.5155 72.73L49.6021 59.6456L50.161 56.1422L50.3277 55.0978H57.3833H76.0644ZM78.791 69.2611C79.1455 69.2611 79.4755 68.9856 79.5299 68.6456C79.5844 68.3044 79.3421 68.0278 78.9877 68.0278H56.0144C55.6621 68.0278 55.331 68.3044 55.2766 68.6456C55.2221 68.9856 55.4644 69.2611 55.8166 69.2611H78.791ZM79.6688 63.7544C80.0233 63.7544 80.3533 63.4778 80.4077 63.1367C80.4621 62.7967 80.2199 62.5211 79.8655 62.5211H56.8933C56.541 62.5211 56.2099 62.7978 56.1566 63.1367C56.1021 63.4778 56.3444 63.7544 56.6966 63.7544H79.6688ZM77.9122 74.7678C78.2666 74.7678 78.5966 74.4922 78.651 74.15C78.7055 73.81 78.4633 73.5333 78.1088 73.5333H64.7588C64.4044 73.5333 64.0744 73.81 64.0199 74.15C63.9655 74.4911 64.2077 74.7678 64.5621 74.7678H77.9122Z" fill="#D0D5DD"/>
<path d="M85.2411 79.6456H46.4522C46.3788 79.6456 46.31 79.6133 46.2622 79.5578C46.2144 79.5022 46.1944 79.4289 46.2055 79.3567L50.0811 55.0589C50.1 54.9378 50.2055 54.8478 50.3277 54.8478H89.1166C89.19 54.8478 89.2588 54.88 89.3066 54.9356C89.3544 54.9911 89.3744 55.0644 89.3633 55.1367L85.4877 79.4344C85.4688 79.5567 85.3644 79.6456 85.2411 79.6456ZM46.7455 79.1456H85.0277L88.8233 55.3478H50.5411L46.7455 79.1456ZM77.9122 75.0178H64.5611C64.3166 75.0178 64.0911 74.9178 63.9422 74.7444C63.7955 74.5722 63.7344 74.3467 63.7722 74.1111C63.8466 73.6478 64.2788 73.2844 64.7577 73.2844H78.1088C78.3533 73.2844 78.5788 73.3844 78.7277 73.5578C78.8744 73.73 78.9355 73.9544 78.8977 74.1889C78.8244 74.6544 78.3911 75.0178 77.9122 75.0178ZM64.7588 73.7844C64.5277 73.7844 64.3022 73.97 64.2677 74.19C64.2533 74.28 64.2733 74.36 64.3244 74.42C64.3788 74.4833 64.4633 74.5178 64.5622 74.5178H77.9133C78.1444 74.5178 78.37 74.3311 78.4055 74.1111C78.42 74.0222 78.4 73.9422 78.3488 73.8822C78.2944 73.8189 78.21 73.7833 78.11 73.7833H64.7588V73.7844ZM78.7911 69.5111H55.8177C55.5733 69.5111 55.3488 69.4111 55.2 69.2378C55.0533 69.0656 54.9922 68.8411 55.03 68.6056C55.1044 68.1411 55.5366 67.7778 56.0144 67.7778H78.9877C79.2322 67.7778 79.4577 67.8778 79.6066 68.0511C79.7533 68.2233 79.8144 68.4489 79.7766 68.6844C79.7022 69.1478 79.27 69.5111 78.7911 69.5111ZM56.0144 68.2778C55.7833 68.2778 55.5588 68.4644 55.5244 68.6844C55.51 68.7722 55.53 68.8544 55.5811 68.9133C55.6355 68.9767 55.7188 69.0111 55.8177 69.0111H78.7911C79.0222 69.0111 79.2477 68.8256 79.2822 68.6056C79.2966 68.5156 79.2766 68.4356 79.2255 68.3756C79.1711 68.3122 79.0866 68.2778 78.9866 68.2778H56.0144ZM79.6688 64.0044H56.6955C56.4511 64.0044 56.2266 63.9044 56.0788 63.7311C55.9311 63.5589 55.8711 63.3333 55.9088 63.0978C55.9833 62.6344 56.4144 62.2711 56.8933 62.2711H79.8666C80.1111 62.2711 80.3377 62.3711 80.4855 62.5444C80.6322 62.7167 80.6933 62.9411 80.6555 63.1756C80.5811 63.6411 80.1477 64.0044 79.6688 64.0044ZM56.8933 62.7711C56.6622 62.7711 56.4377 62.9567 56.4033 63.1767C56.3888 63.2656 56.4088 63.3478 56.46 63.4067C56.5133 63.47 56.5977 63.5044 56.6966 63.5044H79.67C79.9011 63.5044 80.1266 63.3178 80.1622 63.0978C80.1766 63.0089 80.1566 62.9289 80.1055 62.87C80.0511 62.8067 79.9666 62.7711 79.8666 62.7711H56.8933Z" fill="#F9FAFB"/>
<path d="M79.8656 62.5211C80.22 62.5211 80.4623 62.7978 80.4078 63.1367C80.3534 63.4778 80.0234 63.7545 79.6689 63.7545H56.6956C56.3434 63.7545 56.1011 63.4778 56.1556 63.1367C56.21 62.7967 56.54 62.5211 56.8923 62.5211H79.8656Z" fill="#98A2B3"/>
<path d="M79.6688 64.01H56.6955C56.4499 64.01 56.2232 63.91 56.0744 63.7344C55.9266 63.5611 55.8655 63.3344 55.9032 63.0967C55.9777 62.6311 56.4121 62.2656 56.8921 62.2656H79.8655C80.1121 62.2656 80.3388 62.3656 80.4888 62.5411C80.6366 62.7145 80.6977 62.94 80.6599 63.1767C80.5855 63.6445 80.1499 64.01 79.6688 64.01ZM56.8932 62.7767C56.6655 62.7767 56.4432 62.96 56.4077 63.1778C56.3932 63.2667 56.4132 63.3445 56.4632 63.4033C56.5166 63.4656 56.5988 63.4989 56.6966 63.4989H79.6699C79.8988 63.4989 80.1221 63.3144 80.1566 63.0967C80.171 63.0089 80.151 62.9311 80.101 62.8722C80.0477 62.81 79.9644 62.7756 79.8666 62.7756H56.8932V62.7767Z" fill="#98A2B3"/>
<path d="M78.9879 68.0278C79.3424 68.0278 79.5846 68.3044 79.5301 68.6455C79.4757 68.9855 79.1457 69.2611 78.7912 69.2611H55.8179C55.4657 69.2611 55.2235 68.9844 55.2779 68.6455C55.3324 68.3044 55.6624 68.0278 56.0157 68.0278H78.9879Z" fill="#98A2B3"/>
<path d="M78.7911 69.5155H55.8178C55.5722 69.5155 55.3456 69.4155 55.1967 69.24C55.0489 69.0667 54.9878 68.84 55.0256 68.6044C55.1 68.1378 55.5344 67.7722 56.0144 67.7722H78.9878C79.2344 67.7722 79.4611 67.8722 79.61 68.0478C79.7578 68.2211 79.8189 68.4478 79.7811 68.6855C79.7067 69.1511 79.2722 69.5155 78.7911 69.5155ZM56.0144 68.2822C55.7867 68.2822 55.5644 68.4667 55.5289 68.6844C55.5144 68.7722 55.5344 68.85 55.5844 68.9089C55.6378 68.9711 55.72 69.0055 55.8178 69.0055H78.7911C79.02 69.0055 79.2433 68.8222 79.2778 68.6044C79.2922 68.5155 79.2722 68.4378 79.2222 68.3789C79.1689 68.3167 79.0856 68.2822 78.9878 68.2822H56.0144Z" fill="#98A2B3"/>
<path d="M78.1089 73.5345C78.4633 73.5345 78.7055 73.8111 78.6511 74.15C78.5967 74.4912 78.2667 74.7678 77.9122 74.7678H64.5611C64.2067 74.7678 63.9644 74.4912 64.0189 74.15C64.0733 73.81 64.4033 73.5345 64.7578 73.5345H78.1089Z" fill="#98A2B3"/>
<path d="M77.9122 75.0234H64.5611C64.3144 75.0234 64.0878 74.9234 63.9389 74.7478C63.7911 74.5745 63.73 74.3478 63.7677 74.11C63.8422 73.6445 64.2766 73.2789 64.7578 73.2789H78.1089C78.3555 73.2789 78.5822 73.3789 78.7322 73.5545C78.88 73.7278 78.9411 73.9534 78.9033 74.19C78.8289 74.6578 78.3933 75.0234 77.9122 75.0234ZM64.7589 73.79C64.53 73.79 64.3066 73.9734 64.2722 74.1912C64.2578 74.28 64.2778 74.3578 64.3278 74.4167C64.3811 74.4789 64.4644 74.5134 64.5622 74.5134H77.9133C78.1422 74.5134 78.3655 74.3289 78.4 74.1112C78.4144 74.0234 78.3944 73.9456 78.3444 73.8867C78.2911 73.8245 78.2077 73.79 78.11 73.79H64.7589Z" fill="#98A2B3"/>
<path d="M70.47 79.3956L73.1067 82.99H49.0889L46.4523 79.3956H70.47Z" fill="#D0D5DD"/>
<path d="M73.1067 83.24H49.0889C49.0089 83.24 48.9345 83.2022 48.8878 83.1378L46.2511 79.5433C46.1956 79.4678 46.1867 79.3667 46.23 79.2822C46.2733 79.1978 46.3589 79.1456 46.4533 79.1456H70.4711C70.5511 79.1456 70.6256 79.1833 70.6722 79.2478L73.3089 82.8422C73.3645 82.9178 73.3733 83.0189 73.33 83.1033C73.2867 83.1878 73.2011 83.24 73.1067 83.24ZM49.2156 82.74H72.6133L70.3433 79.6456H46.9467L49.2156 82.74Z" fill="#F9FAFB"/>
<path d="M76.7568 86.5622L71.3012 80.3422L70.4701 79.3956L73.1068 82.99L73.9368 83.9367L79.3934 90.1578L76.7568 86.5622Z" fill="#D0D5DD"/>
<path d="M79.3933 90.4077C79.3233 90.4077 79.2544 90.3788 79.2055 90.3222L72.9189 83.1555C72.9144 83.15 72.91 83.1444 72.9055 83.1388L70.2689 79.5444C70.19 79.4366 70.21 79.2855 70.3144 79.2011C70.4189 79.1177 70.5711 79.1311 70.6589 79.2311L76.9455 86.3977C76.95 86.4033 76.9544 86.4088 76.9589 86.4144L79.5955 90.0088C79.6744 90.1166 79.6544 90.2677 79.55 90.3522C79.5033 90.3888 79.4489 90.4077 79.3933 90.4077Z" fill="#F9FAFB"/>
<path d="M85.2411 79.3956L87.8778 82.99H80.5367L77.9 79.3956H85.2411Z" fill="#D0D5DD"/>
<path d="M87.8778 83.24H80.5367C80.4567 83.24 80.3822 83.2022 80.3356 83.1378L77.6989 79.5433C77.6433 79.4678 77.6344 79.3667 77.6778 79.2822C77.7211 79.1978 77.8067 79.1456 77.9011 79.1456H85.2422C85.3222 79.1456 85.3967 79.1833 85.4433 79.2478L88.08 82.8422C88.1355 82.9178 88.1444 83.0189 88.1011 83.1033C88.0578 83.1878 87.9722 83.24 87.8778 83.24ZM80.6633 82.74H87.3844L85.1144 79.6456H78.3933L80.6633 82.74Z" fill="#F9FAFB"/>
<path d="M50.1612 56.3922C50.1101 56.3922 50.059 56.3767 50.0157 56.3456L34.649 45.3056C34.5723 45.25 34.5335 45.1567 34.5479 45.0633L36.2012 34.6944C36.2112 34.6344 36.2412 34.5811 36.2879 34.5422L48.3135 24.4878L48.5235 24.3133C48.5679 24.2756 48.6246 24.2556 48.6835 24.2556H77.7757C77.849 24.2556 77.9179 24.2878 77.9657 24.3433C78.0135 24.3989 78.0335 24.4722 78.0223 24.5444L74.7379 45.1389C74.7257 45.2133 74.6823 45.2778 74.6168 45.3156L57.5101 55.3144C57.4723 55.3367 57.4279 55.3489 57.3835 55.3489H50.5412L50.4079 56.1822C50.3946 56.2678 50.3368 56.34 50.2568 56.3733C50.2268 56.3856 50.1946 56.3922 50.1612 56.3922ZM35.0657 44.9889L49.9779 55.7033L50.0801 55.0589C50.099 54.9378 50.2046 54.8478 50.3268 54.8478H57.3146L74.2612 44.9422L77.4812 24.7533H48.7735L48.6335 24.8689L36.6801 34.8622L35.0657 44.9889Z" fill="#F9FAFB"/>
<path d="M48.4733 24.6777L46.87 34.7322H36.4478L48.4733 24.6777Z" fill="#D0D5DD"/>
<path d="M46.8699 34.9822H36.4477C36.3422 34.9822 36.2488 34.9167 36.2133 34.8178C36.1777 34.7189 36.2077 34.6078 36.2877 34.5411L48.3133 24.4867C48.3933 24.42 48.5066 24.41 48.5966 24.4611C48.6877 24.5122 48.7366 24.6144 48.7199 24.7178L47.1166 34.7722C47.0977 34.8933 46.9933 34.9822 46.8699 34.9822ZM37.1366 34.4822H46.6566L48.1211 25.2978L37.1366 34.4822Z" fill="#F9FAFB"/>
<path d="M77.9311 20.1422C82.1489 20.1422 85.0411 23.4389 84.3922 27.5067C83.7433 31.5744 79.7989 34.8711 75.5822 34.8711C71.3644 34.8711 68.4722 31.5744 69.1211 27.5067C69.77 23.4389 73.7133 20.1422 77.9311 20.1422ZM78.34 23.0922C78.4567 22.6044 78.11 22.1822 77.6111 22.1822C77.5889 22.1822 77.5678 22.1833 77.5456 22.1844C77.0544 22.2167 76.6233 22.6233 76.5811 23.0922L75.9333 30.4655C75.9178 30.6322 76.0344 30.7689 76.21 30.7811C76.2178 30.7811 76.2256 30.7822 76.2344 30.7822C76.4189 30.7822 76.5956 30.6444 76.6378 30.4655L78.34 23.0922ZM75.9078 32.8311C76.3578 32.8311 76.7789 32.48 76.8478 32.0455C76.9167 31.6111 76.6089 31.26 76.1589 31.26C75.7089 31.26 75.2878 31.6111 75.2189 32.0455C75.1489 32.4789 75.4578 32.8311 75.9078 32.8311Z" fill="#98A2B3"/>
<path d="M75.5823 35.1211C73.4345 35.1211 71.5523 34.3022 70.2823 32.8144C69.0534 31.3744 68.5534 29.4755 68.8734 27.4678C69.5401 23.2911 73.6023 19.8922 77.9312 19.8922C80.079 19.8922 81.9612 20.7111 83.2312 22.1989C84.4601 23.6389 84.9601 25.5378 84.6401 27.5455C83.9734 31.7233 79.9101 35.1211 75.5823 35.1211ZM77.9312 20.3922C73.8378 20.3922 69.9967 23.6011 69.3678 27.5467C69.0712 29.4078 69.5312 31.1633 70.6634 32.49C71.8356 33.8644 73.5834 34.6211 75.5823 34.6211C79.6756 34.6211 83.5167 31.4122 84.1456 27.4667C84.4423 25.6055 83.9823 23.85 82.8501 22.5233C81.6778 21.1489 79.9301 20.3922 77.9312 20.3922ZM75.9078 33.0811C75.6167 33.0811 75.3478 32.9633 75.1723 32.7567C74.9978 32.5522 74.9267 32.2855 74.9712 32.0055C75.0556 31.4722 75.5345 31.05 76.079 31.0122C75.9723 30.9833 75.879 30.9255 75.8078 30.8422C75.7145 30.7322 75.6701 30.5911 75.6845 30.4433L76.3323 23.0711C76.3856 22.4755 76.9112 21.9778 77.529 21.9367C77.5556 21.9344 77.5834 21.9333 77.6112 21.9333C77.9301 21.9333 78.2212 22.0689 78.4078 22.3067C78.5923 22.54 78.6556 22.8467 78.5834 23.15L76.8801 30.5222C76.819 30.78 76.5945 30.9811 76.3345 31.0244C76.5556 31.0622 76.7534 31.17 76.8923 31.3344C77.0667 31.5389 77.1378 31.8055 77.0934 32.0855C77.0056 32.6433 76.4834 33.0811 75.9078 33.0811ZM76.1578 31.5089C75.8323 31.5089 75.5145 31.7722 75.4645 32.0844C75.4434 32.2178 75.4745 32.3411 75.5523 32.4322C75.6345 32.5278 75.7601 32.5811 75.9078 32.5811C76.2334 32.5811 76.5512 32.3178 76.6012 32.0055C76.6223 31.8722 76.5912 31.7489 76.5134 31.6578C76.4312 31.5622 76.3056 31.5089 76.1578 31.5089ZM77.6112 22.4322C77.5956 22.4322 77.5801 22.4333 77.5634 22.4344C77.1956 22.4589 76.8612 22.77 76.8301 23.1144L76.1823 30.4878C76.1812 30.5011 76.1834 30.5111 76.189 30.5178C76.1956 30.5255 76.2101 30.5311 76.2267 30.5322C76.3023 30.5322 76.3778 30.4733 76.3934 30.4089L78.0967 23.0367C78.0967 23.0355 78.0967 23.0355 78.0967 23.0344C78.1345 22.8789 78.1045 22.73 78.0145 22.6155C77.9234 22.4989 77.7767 22.4322 77.6112 22.4322Z" fill="#F9FAFB"/>
<path d="M76.1578 31.2589C76.6078 31.2589 76.9167 31.61 76.8467 32.0445C76.7767 32.4789 76.3567 32.83 75.9067 32.83C75.4567 32.83 75.1478 32.4789 75.2178 32.0445C75.2878 31.61 75.7078 31.2589 76.1578 31.2589Z" fill="#F9FAFB"/>
<path d="M75.9078 32.8867C75.67 32.8867 75.4611 32.7956 75.32 32.63C75.1833 32.47 75.1278 32.2589 75.1633 32.0367C75.2366 31.5778 75.6833 31.2045 76.1578 31.2045C76.3955 31.2045 76.6044 31.2956 76.7455 31.4611C76.8822 31.6211 76.9378 31.8322 76.9022 32.0545C76.8289 32.5122 76.3833 32.8867 75.9078 32.8867ZM76.1578 31.3145C75.7344 31.3145 75.3378 31.6456 75.2722 32.0534C75.2422 32.2434 75.2889 32.4222 75.4033 32.5578C75.5233 32.6978 75.7011 32.7756 75.9066 32.7756C76.33 32.7756 76.7267 32.4445 76.7922 32.0367C76.8222 31.8467 76.7755 31.6678 76.6611 31.5322C76.5411 31.3922 76.3633 31.3145 76.1578 31.3145Z" fill="#F9FAFB"/>
<path d="M77.6112 22.1822C78.1101 22.1822 78.4567 22.6033 78.3401 23.0922L76.6367 30.4655C76.5945 30.6444 76.4178 30.7822 76.2334 30.7822C76.2256 30.7822 76.2179 30.7822 76.209 30.7811C76.0334 30.7689 75.9167 30.6322 75.9323 30.4655L76.5801 23.0922C76.6223 22.6233 77.0534 22.2177 77.5445 22.1844C77.5679 22.1833 77.589 22.1822 77.6112 22.1822Z" fill="#F9FAFB"/>
<path d="M76.2334 30.8378C76.2245 30.8378 76.2145 30.8378 76.2056 30.8367C76.1045 30.83 76.0156 30.7867 75.9556 30.7156C75.8967 30.6467 75.869 30.5556 75.8778 30.46L76.5256 23.0867C76.5701 22.5933 77.0256 22.1633 77.5412 22.1289C77.8267 22.1078 78.0912 22.2189 78.2545 22.4256C78.4012 22.6122 78.4523 22.8589 78.3934 23.1044L76.6901 30.4778C76.6434 30.6833 76.4467 30.8378 76.2334 30.8378ZM77.6112 22.2378C77.5912 22.2378 77.5701 22.2389 77.549 22.24C77.0845 22.2711 76.6756 22.6556 76.6367 23.0967L75.989 30.47C75.9834 30.5356 76.0012 30.5967 76.0412 30.6433C76.0823 30.6911 76.1434 30.7211 76.2145 30.7256C76.2212 30.7256 76.2278 30.7267 76.2345 30.7267C76.3945 30.7267 76.5478 30.6067 76.5834 30.4533L78.2867 23.08C78.3378 22.8644 78.2967 22.6567 78.169 22.4956C78.039 22.3322 77.8356 22.2378 77.6112 22.2378Z" fill="#F9FAFB"/>
</svg>
