<svg width="120" height="120" viewBox="0 0 120 120" fill="none" xmlns="http://www.w3.org/2000/svg">
<path d="M60 85.6011C82.6553 85.6011 101.021 78.3964 101.021 69.5089C101.021 60.6214 82.6553 53.4167 60 53.4167C37.3447 53.4167 18.9789 60.6214 18.9789 69.5089C18.9789 78.3964 37.3447 85.6011 60 85.6011Z" fill="#F9FAFB"/>
<path d="M100.873 30.0589L96.6034 63.9844C96.4734 65.0189 95.7634 65.8867 94.7767 66.2211L64.8978 76.3222V65.6756L88.8856 47.5422L94.3212 27H98.1745C99.8112 27 101.078 28.4356 100.873 30.0589Z" fill="#D0D5DD"/>
<path d="M64.8977 76.5733C64.8466 76.5733 64.7955 76.5578 64.7521 76.5267C64.6866 76.48 64.6477 76.4044 64.6477 76.3233V65.6767C64.6477 65.5978 64.6844 65.5244 64.7466 65.4778L88.6666 47.3955L94.0799 26.9367C94.1088 26.8267 94.2077 26.7511 94.3222 26.7511H98.1755C99.0277 26.7511 99.8388 27.1178 100.402 27.7567C100.965 28.3955 101.228 29.2467 101.121 30.0911L96.851 64.0167C96.7099 65.1378 95.9266 66.0967 94.8555 66.4589L64.9777 76.56C64.9521 76.5689 64.9244 76.5733 64.8977 76.5733ZM65.1477 65.8V75.9744L94.6955 65.9844C95.5855 65.6833 96.2377 64.8867 96.3544 63.9533L100.624 30.0278C100.713 29.3255 100.494 28.6178 100.027 28.0855C99.5577 27.5544 98.8833 27.25 98.1744 27.25H94.5133L89.1277 47.6067C89.1133 47.6611 89.081 47.7089 89.0366 47.7422L65.1477 65.8Z" fill="#F9FAFB"/>
<path d="M64.8988 65.6767L34.3866 61.4367L58.3744 44.3823L88.8866 47.5423L64.8988 65.6767Z" fill="#D0D5DD"/>
<path d="M64.8989 65.9267C64.8878 65.9267 64.8756 65.9255 64.8644 65.9244L34.3522 61.6855C34.2511 61.6711 34.1678 61.5967 34.1433 61.4978C34.1189 61.3978 34.1578 61.2944 34.2411 61.2344L58.2289 44.18C58.2789 44.1444 58.3389 44.1289 58.4 44.1355L88.9122 47.2955C89.0144 47.3067 89.1 47.3778 89.1278 47.4767C89.1556 47.5755 89.12 47.6811 89.0378 47.7433L65.05 65.8767C65.0056 65.9089 64.9522 65.9267 64.8989 65.9267ZM35.0444 61.2755L64.83 65.4144L88.2289 47.7267L58.4422 44.6422L35.0444 61.2755Z" fill="#F9FAFB"/>
<path d="M59.0122 46.4633L66.6756 47.2578L59.01 46.4633H59.0122Z" fill="#D0D5DD"/>
<path d="M66.6767 47.5077C66.6679 47.5077 66.659 47.5077 66.6512 47.5066L58.9856 46.7122C58.8534 46.6989 58.7545 46.5833 58.7612 46.4511C58.769 46.31 58.8967 46.2011 59.0379 46.2155L66.7023 47.01C66.8401 47.0244 66.939 47.1466 66.9256 47.2844C66.9112 47.4111 66.8023 47.5077 66.6767 47.5077Z" fill="#F9FAFB"/>
<path d="M83.5578 49.0055L78.7178 52.6655L70.25 51.7888L75.3567 48.1577H75.3578L83.5578 49.0055Z" fill="#D0D5DD"/>
<path d="M78.7178 52.9155C78.7089 52.9155 78.7011 52.9155 78.6923 52.9144L70.2245 52.0377C70.1211 52.0266 70.0345 51.9533 70.0089 51.8522C69.9823 51.7511 70.0211 51.6455 70.1056 51.5844L75.2123 47.9533C75.2611 47.9177 75.3245 47.9022 75.3845 47.9089L83.5845 48.7577C83.6867 48.7689 83.7723 48.84 83.8 48.9389C83.8278 49.0377 83.7923 49.1433 83.71 49.2055L78.87 52.8655C78.8256 52.8977 78.7723 52.9155 78.7178 52.9155ZM70.9356 51.6089L78.6456 52.4077L82.9011 49.19L75.4256 48.4166L70.9356 51.6089Z" fill="#F9FAFB"/>
<path d="M61.5678 50.8889L56.4589 54.5222L48.7944 53.7278L53.9033 50.0967L61.5678 50.8889Z" fill="#D0D5DD"/>
<path d="M56.4589 54.7723C56.45 54.7723 56.4422 54.7723 56.4334 54.7712L48.7689 53.9767C48.6656 53.9656 48.5789 53.8923 48.5534 53.7912C48.5267 53.69 48.5656 53.5845 48.65 53.5234L53.7589 49.8923C53.8089 49.8567 53.8689 49.8412 53.9289 49.8478L61.5934 50.64C61.6967 50.6512 61.7834 50.7245 61.8089 50.8256C61.8345 50.9267 61.7967 51.0323 61.7122 51.0934L56.6034 54.7267C56.5611 54.7556 56.51 54.7723 56.4589 54.7723ZM49.48 53.5478L56.3911 54.2634L60.8834 51.0689L53.9722 50.3545L49.48 53.5478Z" fill="#F9FAFB"/>
<path d="M56.4587 54.5222L51.3499 58.1545H51.3487L43.6865 57.36L48.7943 53.7278L56.4587 54.5222Z" fill="#D0D5DD"/>
<path d="M51.35 58.4044C51.3411 58.4044 51.3311 58.4044 51.3233 58.4033L43.6611 57.6089C43.5578 57.5978 43.4711 57.5244 43.4456 57.4233C43.4189 57.3222 43.4578 57.2167 43.5422 57.1555L48.65 53.5222C48.7 53.4867 48.76 53.4711 48.8211 53.4778L56.4856 54.2722C56.5889 54.2833 56.6756 54.3567 56.7011 54.4578C56.7278 54.5589 56.6889 54.6644 56.6045 54.7255L51.4967 58.3589C51.4533 58.3889 51.4022 58.4044 51.35 58.4044ZM44.3711 57.18L51.2822 57.8955L55.7733 54.7011L48.8622 53.9855L44.3711 57.18Z" fill="#F9FAFB"/>
<path d="M73.8777 56.3255L69.0366 59.9855L60.031 59.0533L65.141 55.42L73.8777 56.3255Z" fill="#D0D5DD"/>
<path d="M69.0366 60.2356C69.0277 60.2356 69.0199 60.2356 69.011 60.2345L60.0066 59.3022C59.9032 59.2911 59.8166 59.2178 59.791 59.1167C59.7644 59.0156 59.8032 58.91 59.8877 58.8489L64.9966 55.2156C65.0466 55.18 65.1066 55.1645 65.1677 55.1711L73.9044 56.0767C74.0066 56.0878 74.0921 56.1589 74.1199 56.2578C74.1477 56.3567 74.1121 56.4622 74.0299 56.5245L69.1888 60.1845C69.1433 60.2178 69.0899 60.2356 69.0366 60.2356ZM60.7166 58.8733L68.9644 59.7278L73.221 56.51L65.2088 55.68L60.7166 58.8733Z" fill="#F9FAFB"/>
<path d="M69.0367 59.9856L64.2611 63.5956L55.3789 62.3611L60.0311 59.0533L69.0367 59.9856Z" fill="#D0D5DD"/>
<path d="M64.2611 63.8456C64.25 63.8456 64.2377 63.8445 64.2266 63.8434L55.3444 62.6089C55.2433 62.5945 55.16 62.52 55.1355 62.4211C55.1111 62.3211 55.15 62.2178 55.2333 62.1578L59.8855 58.85C59.9355 58.8145 59.9955 58.7989 60.0566 58.8056L69.0611 59.7378C69.1633 59.7489 69.2488 59.82 69.2766 59.9189C69.3044 60.0178 69.2688 60.1234 69.1866 60.1856L64.4122 63.7956C64.3688 63.8278 64.3155 63.8456 64.2611 63.8456ZM56.0366 62.2L64.1933 63.3334L68.3788 60.1689L60.0988 59.3111L56.0366 62.2Z" fill="#F9FAFB"/>
<path d="M60.0312 59.0533L55.379 62.3611L47.0579 61.2055L51.349 58.1544H51.3501L60.0312 59.0533Z" fill="#D0D5DD"/>
<path d="M55.3789 62.6111C55.3678 62.6111 55.3556 62.61 55.3445 62.6089L47.0234 61.4533C46.9222 61.4389 46.8389 61.3644 46.8145 61.2656C46.79 61.1656 46.8289 61.0622 46.9122 61.0022L51.2034 57.9511C51.2522 57.9156 51.3156 57.9 51.3756 57.9067L60.0567 58.8056C60.16 58.8167 60.2467 58.89 60.2723 58.9911C60.2989 59.0922 60.26 59.1978 60.1756 59.2589L55.5234 62.5667C55.4811 62.5956 55.43 62.6111 55.3789 62.6111ZM47.7156 61.0444L55.3145 62.1L59.3456 59.2333L51.4167 58.4122L47.7156 61.0444Z" fill="#F9FAFB"/>
<path d="M51.3489 58.1544L47.0578 61.2055L39.7134 60.1844L43.6867 57.36L51.3489 58.1544Z" fill="#D0D5DD"/>
<path d="M47.0578 61.4556C47.0467 61.4556 47.0344 61.4545 47.0233 61.4533L39.6789 60.4322C39.5778 60.4178 39.4944 60.3433 39.47 60.2445C39.4455 60.1445 39.4844 60.0411 39.5678 59.9811L43.54 57.1567C43.59 57.1211 43.65 57.1056 43.7111 57.1122L51.3733 57.9067C51.4766 57.9178 51.5633 57.9911 51.5889 58.0922C51.6155 58.1933 51.5767 58.2989 51.4922 58.36L47.2011 61.4111C47.16 61.44 47.11 61.4556 47.0578 61.4556ZM40.3711 60.0233L46.9933 60.9445L50.6633 58.3356L43.7533 57.62L40.3711 60.0233Z" fill="#F9FAFB"/>
<path d="M75.3566 48.1578L66.6777 47.2578L75.3577 48.1556H75.36L83.5577 49.0056L75.3577 48.1578H75.3566Z" fill="#D0D5DD"/>
<path d="M83.5589 49.2556C83.5501 49.2556 83.5412 49.2556 83.5334 49.2545L75.34 48.4067C75.3378 48.4067 75.3345 48.4067 75.3323 48.4056L66.6523 47.5056C66.5145 47.4911 66.4156 47.3689 66.4289 47.2311C66.4434 47.0933 66.5656 46.9945 66.7034 47.0078L66.7134 47.0089L75.3778 47.9056C75.3801 47.9056 75.3834 47.9056 75.3856 47.9067L83.5845 48.7567C83.7223 48.7711 83.8212 48.8934 83.8078 49.0311C83.7934 49.16 83.6845 49.2556 83.5589 49.2556Z" fill="#F9FAFB"/>
<path d="M58.2667 44.3823L65.6945 25.8445L94.3212 27L88.8867 47.5434L58.2667 44.3823Z" fill="#D0D5DD"/>
<path d="M88.8868 47.7933C88.8779 47.7933 88.8701 47.7933 88.8612 47.7922L58.2412 44.6322C58.1634 44.6244 58.0934 44.58 58.0534 44.5133C58.0123 44.4467 58.0057 44.3644 58.0357 44.2911L65.4634 25.7533C65.5023 25.6555 65.599 25.5922 65.7057 25.5967L94.3323 26.7522C94.4079 26.7555 94.4779 26.7922 94.5234 26.8533C94.569 26.9144 94.5834 26.9922 94.5645 27.0655L89.1301 47.6078C89.099 47.7178 88.999 47.7933 88.8868 47.7933ZM58.6223 44.1678L88.7001 47.2722L94.0001 27.2378L65.8612 26.1022L58.6223 44.1678Z" fill="#F9FAFB"/>
<path d="M60.8922 43.2633L67.2378 27.4255L91.6955 28.4122L87.0522 45.9633L60.8922 43.2633Z" fill="#F7F9FC"/>
<path d="M87.0522 46.2133C87.0434 46.2133 87.0356 46.2133 87.0267 46.2122L60.8667 43.5111C60.7889 43.5033 60.7189 43.4589 60.6789 43.3922C60.6378 43.3256 60.6311 43.2433 60.6611 43.17L67.0067 27.3322C67.0456 27.2345 67.1423 27.17 67.2489 27.1756L91.7067 28.1633C91.7823 28.1667 91.8523 28.2033 91.8978 28.2645C91.9434 28.3256 91.9578 28.4033 91.9378 28.4767L87.2945 46.0267C87.2645 46.1378 87.1656 46.2133 87.0522 46.2133ZM61.2478 43.0478L86.8656 45.6922L91.3745 28.65L67.4045 27.6822L61.2478 43.0478Z" fill="#F9FAFB"/>
<path d="M34.3866 61.4367V72.0834L64.8977 76.3234V65.6756L34.3866 61.4367Z" fill="#667185"/>
<path d="M64.8977 76.5733C64.8866 76.5733 64.8744 76.5722 64.8633 76.5711L34.3522 72.3322C34.2288 72.3155 34.1366 72.2089 34.1366 72.0844L34.1355 61.4378C34.1355 61.3655 34.1666 61.2967 34.2211 61.2489C34.2755 61.2011 34.3477 61.18 34.4199 61.19L64.9311 65.4289C65.0544 65.4455 65.1466 65.5522 65.1466 65.6767V76.3233C65.1466 76.3955 65.1155 76.4644 65.0611 76.5122C65.0166 76.5511 64.9577 76.5733 64.8977 76.5733ZM34.6366 71.8655L64.6477 76.0355V65.8933L34.6366 61.7233V71.8655Z" fill="#F9FAFB"/>
<path d="M61.3689 69.1134V70.4823L37.5344 67.4689V66.0989L61.3689 69.1134Z" fill="#D0D5DD"/>
<path d="M61.6189 70.7656L37.2844 67.69V65.8156L61.6189 68.8933V70.7656ZM37.7844 67.2489L61.1189 70.1989V69.3333L37.7844 66.3822V67.2489Z" fill="#D0D5DD"/>
<path d="M10.8811 96.3345C15.44 95.1733 20.0011 94.0267 24.1811 91.79C28.3955 89.5356 31.0867 86.2278 32.39 81.6267C33.4222 77.98 33.8755 74.16 35.9844 70.95C37.5122 68.6244 39.8778 67.0811 39.8778 67.0811L59.4033 69.55C57.3689 71.7345 55.6189 74.2245 54.1089 76.7922C52.7255 79.1445 51.4878 81.3511 50.7778 84.01C50.0544 86.7189 49.6155 89.5467 48.3089 92.06C46.9989 94.5789 44.8789 96.6067 42.5189 98.1845C37.94 101.246 32.5633 103.118 27.2611 104.468C27.2611 104.467 10.8811 96.3345 10.8811 96.3345Z" fill="#E4E7EC"/>
<path d="M27.2612 104.717C27.2234 104.717 27.1845 104.708 27.15 104.691L10.77 96.5589C10.6767 96.5122 10.6212 96.4122 10.6323 96.3089C10.6434 96.2044 10.7178 96.1189 10.8189 96.0933L10.9734 96.0544C15.39 94.93 19.9578 93.7678 24.0634 91.5711C28.2278 89.3433 30.8734 86.0689 32.1489 81.56C32.4123 80.63 32.6423 79.6722 32.8634 78.7444C33.5123 76.0366 34.1823 73.2366 35.7745 70.8133C37.3134 68.4711 39.6423 66.9355 39.74 66.8722C39.79 66.84 39.8489 66.8255 39.9078 66.8333L59.4334 69.3022C59.5267 69.3144 59.6056 69.3766 59.6367 69.4655C59.6689 69.5533 59.6489 69.6522 59.5845 69.7211C57.7312 71.7111 55.9612 74.1333 54.3234 76.92C52.9256 79.2989 51.7123 81.4789 51.0178 84.0755C50.8378 84.7477 50.6734 85.4411 50.5134 86.1111C50.0267 88.1522 49.5245 90.2622 48.5289 92.1766C47.3167 94.5066 45.3412 96.5989 42.6556 98.3933C38.6789 101.052 33.8056 103.06 27.32 104.711C27.3023 104.714 27.2812 104.717 27.2612 104.717ZM11.5967 96.4111L27.2889 104.202C33.6723 102.57 38.4689 100.591 42.38 97.9766C44.9945 96.2289 46.9145 94.2 48.0867 91.9444C49.0534 90.0855 49.5489 88.0055 50.0289 85.9944C50.1889 85.3211 50.3556 84.6244 50.5367 83.9455C51.2467 81.2878 52.4767 79.0766 53.8945 76.6655C55.4545 74.0122 57.1345 71.6833 58.8934 69.7378L39.9412 67.3422C39.5312 67.6244 37.5245 69.0644 36.1945 71.0889C34.65 73.44 33.99 76.1966 33.3512 78.8622C33.1278 79.7944 32.8967 80.7578 32.6312 81.6966C31.3156 86.3422 28.5912 89.7166 24.3 92.0122C20.2956 94.1522 15.8856 95.3166 11.5967 96.4111Z" fill="#F9FAFB"/>
<path d="M70.25 51.7889L65.1411 55.42L56.4589 54.5223L61.5677 50.8889L70.25 51.7889Z" fill="#D0D5DD"/>
<path d="M65.1411 55.6699C65.1322 55.6699 65.1245 55.6699 65.1156 55.6688L56.4333 54.7699C56.33 54.7588 56.2433 54.6855 56.2178 54.5844C56.1911 54.4833 56.23 54.3777 56.3145 54.3166L61.4233 50.6833C61.4733 50.6477 61.5333 50.6322 61.5944 50.6388L70.2767 51.5388C70.38 51.5499 70.4667 51.6233 70.4922 51.7244C70.5178 51.8255 70.48 51.9311 70.3956 51.9922L65.2867 55.6233C65.2433 55.6544 65.1922 55.6699 65.1411 55.6699ZM57.1433 54.3411L65.0722 55.1622L69.5645 51.9688L61.6356 51.1466L57.1433 54.3411Z" fill="#F9FAFB"/>
<path d="M75.359 48.158V48.1555H75.3603" fill="#D0D5DD"/>
<path d="M75.3589 48.4067C75.2211 48.4067 75.1089 48.2956 75.1089 48.1578V48.1567C75.1089 48.0189 75.2211 47.9067 75.3589 47.9067C75.4967 47.9067 75.61 48.0189 75.61 48.1567C75.61 48.2578 75.55 48.3445 75.4644 48.3845C75.4311 48.3989 75.3956 48.4067 75.3589 48.4067Z" fill="#F9FAFB"/>
<path d="M66.6755 47.2578L61.5678 50.8889L53.9033 50.0966L59.01 46.4633L66.6755 47.2578Z" fill="#D0D5DD"/>
<path d="M61.5678 51.1389C61.5589 51.1389 61.5511 51.1389 61.5422 51.1378L53.8778 50.3456C53.7745 50.3344 53.6878 50.2611 53.6622 50.1611C53.6356 50.06 53.6745 49.9544 53.7589 49.8933L58.8656 46.26C58.9156 46.2244 58.9756 46.2089 59.0367 46.2156L66.7022 47.01C66.8056 47.0211 66.8922 47.0944 66.9178 47.1956C66.9445 47.2967 66.9056 47.4022 66.8211 47.4633L61.7134 51.0944C61.67 51.1222 61.62 51.1389 61.5678 51.1389ZM54.5889 49.9156L61.5 50.63L65.9911 47.4378L59.0789 46.7222L54.5889 49.9156Z" fill="#F9FAFB"/>
<path d="M75.3566 48.1578L70.25 51.7889L61.5677 50.8889L66.6755 47.2578H66.6777L75.3566 48.1578Z" fill="#D0D5DD"/>
<path d="M70.25 52.0389C70.2411 52.0389 70.2333 52.0389 70.2244 52.0378L61.5422 51.1378C61.4389 51.1267 61.3522 51.0533 61.3267 50.9522C61.3 50.8511 61.3389 50.7456 61.4233 50.6844L66.5311 47.0533C66.58 47.0178 66.6433 47.0022 66.7033 47.0089L75.3833 47.9089C75.4867 47.92 75.5733 47.9933 75.5989 48.0945C75.6256 48.1956 75.5867 48.3011 75.5022 48.3622L70.3956 51.9933C70.3522 52.0233 70.3022 52.0389 70.25 52.0389ZM62.2533 50.7089L70.1822 51.5311L74.6722 48.3378L66.7444 47.5156L62.2533 50.7089Z" fill="#F9FAFB"/>
<path d="M78.7177 52.6655L73.8777 56.3255L65.141 55.42L70.2499 51.7889L78.7177 52.6655Z" fill="#D0D5DD"/>
<path d="M73.8777 56.5756C73.8688 56.5756 73.861 56.5756 73.8521 56.5745L65.1155 55.6689C65.0121 55.6578 64.9255 55.5845 64.8999 55.4834C64.8732 55.3822 64.9121 55.2767 64.9966 55.2156L70.1055 51.5845C70.1555 51.5489 70.2155 51.5334 70.2766 51.54L78.7444 52.4167C78.8466 52.4278 78.9321 52.4989 78.9599 52.5978C78.9877 52.6967 78.9521 52.8022 78.8699 52.8645L74.0299 56.5245C73.9844 56.5578 73.9321 56.5756 73.8777 56.5756ZM65.8266 55.24L73.8055 56.0667L78.061 52.8489L70.3188 52.0467L65.8266 55.24Z" fill="#F9FAFB"/>
<path d="M65.1411 55.42L60.0311 59.0533L51.35 58.1544L56.4589 54.5222L65.1411 55.42Z" fill="#D0D5DD"/>
<path d="M60.0312 59.3033C60.0223 59.3033 60.0145 59.3033 60.0056 59.3022L51.3245 58.4033C51.2212 58.3922 51.1345 58.3189 51.109 58.2178C51.0834 58.1166 51.1212 58.0111 51.2056 57.95L56.3134 54.3166C56.3634 54.2811 56.4234 54.2655 56.4845 54.2722L65.1667 55.1711C65.2701 55.1822 65.3567 55.2555 65.3823 55.3566C65.409 55.4578 65.3701 55.5633 65.2856 55.6244L60.1767 59.2578C60.1345 59.2866 60.0834 59.3033 60.0312 59.3033ZM52.0356 57.9744L59.9634 58.7955L64.4556 55.6011L56.5267 54.78L52.0356 57.9744Z" fill="#F9FAFB"/>
<path d="M85.2278 32.3689C85.2189 32.3689 85.2089 32.3689 85.2 32.3678L71.9555 31.5444C71.71 31.5289 71.5244 31.3178 71.54 31.0733C71.5555 30.8278 71.7666 30.6411 72.0111 30.6578L85.2566 31.4822C85.5022 31.4978 85.6878 31.7089 85.6722 31.9533C85.6566 32.1878 85.4611 32.3689 85.2278 32.3689Z" fill="#D0D5DD"/>
<path d="M83.8778 35.6711C83.8689 35.6711 83.8589 35.6711 83.85 35.67L70.6045 34.8455C70.3589 34.83 70.1733 34.6189 70.1889 34.3744C70.2045 34.1289 70.4167 33.9433 70.66 33.9589L83.9056 34.7833C84.1511 34.7989 84.3367 35.01 84.3211 35.2544C84.3067 35.4889 84.1111 35.6711 83.8778 35.6711Z" fill="#D0D5DD"/>
<path d="M52.1077 75.3211C52.0844 75.3211 52.0599 75.3189 52.0355 75.3156L37.4621 72.93C37.2199 72.89 37.0555 72.6623 37.0955 72.42C37.1355 72.1778 37.3633 72.0134 37.6055 72.0534L52.1788 74.4389C52.421 74.4789 52.5855 74.7067 52.5455 74.9489C52.5099 75.1656 52.3221 75.3211 52.1077 75.3211Z" fill="#D0D5DD"/>
<path d="M50.8756 77.8944C50.8523 77.8944 50.8301 77.8922 50.8068 77.8889L36.3312 75.6266C36.089 75.5889 35.9223 75.3611 35.9612 75.1189C35.999 74.8766 36.2268 74.71 36.469 74.7489L50.9445 77.0111C51.1868 77.0489 51.3534 77.2766 51.3145 77.5189C51.2801 77.7377 51.0901 77.8944 50.8756 77.8944Z" fill="#D0D5DD"/>
<path d="M49.4523 80.7467C49.429 80.7467 49.4056 80.7445 49.3812 80.7411L35.5301 78.5267C35.2878 78.4878 35.1223 78.26 35.1612 78.0178C35.2001 77.7756 35.4278 77.61 35.6701 77.6489L49.5212 79.8634C49.7634 79.9022 49.929 80.13 49.8901 80.3722C49.8556 80.5911 49.6667 80.7467 49.4523 80.7467Z" fill="#D0D5DD"/>
<path d="M48.48 83.5989C48.4567 83.5989 48.4333 83.5967 48.4089 83.5934L34.7956 81.4178C34.5534 81.3789 34.3878 81.1511 34.4267 80.9089C34.4656 80.6667 34.6934 80.5011 34.9356 80.54L48.5489 82.7156C48.7911 82.7545 48.9567 82.9823 48.9178 83.2245C48.8833 83.4423 48.6945 83.5989 48.48 83.5989Z" fill="#D0D5DD"/>
<path d="M82.5278 38.9722C82.5189 38.9722 82.5089 38.9722 82.5 38.9711L69.2545 38.1467C69.0089 38.1311 68.8234 37.92 68.8389 37.6756C68.8545 37.43 69.0656 37.2444 69.31 37.26L82.5556 38.0845C82.8011 38.1 82.9867 38.3111 82.9711 38.5556C82.9567 38.7911 82.7611 38.9722 82.5278 38.9722Z" fill="#D0D5DD"/>
<path d="M81.1778 42.2733C81.1689 42.2733 81.1589 42.2733 81.15 42.2722L67.9045 41.4478C67.6589 41.4322 67.4734 41.2211 67.4889 40.9766C67.5045 40.7311 67.7156 40.5455 67.9601 40.5611L81.2056 41.3855C81.4512 41.4011 81.6367 41.6122 81.6212 41.8566C81.6067 42.0922 81.41 42.2733 81.1778 42.2733Z" fill="#D0D5DD"/>
<path d="M105.639 37.451L105.887 38.9988C106.036 39.9266 106.672 40.6533 107.589 40.9399L109.119 41.4166L107.437 41.8933C106.43 42.1799 105.561 42.9055 105.116 43.8344L104.374 45.3822L104.126 43.8344C103.977 42.9066 103.34 42.1799 102.423 41.8933L100.894 41.4166L102.576 40.9399C103.582 40.6533 104.451 39.9277 104.897 38.9988L105.639 37.451Z" fill="#D0D5DD"/>
<path d="M57.1088 31.3689L57.2988 32.5556C57.4133 33.2667 57.9011 33.8245 58.6044 34.0433L59.7777 34.4089L58.4877 34.7756C57.7155 34.9945 57.05 35.5511 56.7077 36.2622L56.1388 37.45L55.9488 36.2622C55.8344 35.5511 55.3455 34.9945 54.6433 34.7756L53.4711 34.4089L54.76 34.0433C55.5322 33.8245 56.1977 33.2667 56.54 32.5556L57.1088 31.3689Z" fill="#D0D5DD"/>
<path d="M89.1565 69.8467L89.2621 70.5089C89.3265 70.9045 89.5988 71.2156 89.9899 71.3378L90.6432 71.5422L89.9254 71.7467C89.4943 71.8689 89.1232 72.18 88.9332 72.5756L88.6165 73.2378L88.511 72.5756C88.4465 72.18 88.1754 71.8689 87.7843 71.7467L87.131 71.5422L87.8499 71.3378C88.281 71.2156 88.651 70.9045 88.841 70.5089L89.1565 69.8467Z" fill="#D0D5DD"/>
<path d="M29.42 71.5411L29.5255 72.2022C29.5889 72.5989 29.8611 72.9089 30.2533 73.0311L30.9066 73.2355L30.1889 73.44C29.7577 73.5622 29.3866 73.8733 29.1966 74.27L28.88 74.9311L28.7744 74.27C28.7122 73.8733 28.4389 73.5633 28.0477 73.44L27.3944 73.2355L28.1122 73.0311C28.5433 72.91 28.9144 72.5989 29.1033 72.2022L29.42 71.5411Z" fill="#D0D5DD"/>
</svg>
