<svg width="150" height="150" viewBox="0 0 150 150" fill="none" xmlns="http://www.w3.org/2000/svg">
<path d="M120.843 66.4806C122.436 66.4806 123.728 65.189 123.728 63.5958C123.728 62.0027 122.436 60.7111 120.843 60.7111C119.25 60.7111 117.958 62.0027 117.958 63.5958C117.958 65.189 119.25 66.4806 120.843 66.4806Z" fill="#FFF8ED"/>
<path d="M75 127.04C103.319 127.04 126.276 118.034 126.276 106.925C126.276 95.8156 103.319 86.8097 75 86.8097C46.6809 86.8097 23.7236 95.8156 23.7236 106.925C23.7236 118.034 46.6809 127.04 75 127.04Z" fill="#FFF8ED"/>
<path d="M73.3544 34.489L71.2238 47.8445H57.3794L73.3544 34.489Z" fill="#FFBF70"/>
<path d="M71.2238 48.157H57.3793C57.2474 48.157 57.1307 48.075 57.0849 47.9514C57.0404 47.8278 57.0779 47.6889 57.1779 47.6056L73.153 34.2486C73.253 34.1653 73.3946 34.1528 73.5071 34.2167C73.621 34.2806 73.6821 34.4084 73.6613 34.5375L71.5307 47.8945C71.5085 48.0459 71.3779 48.157 71.2238 48.157ZM58.2404 47.532H70.9571L72.9141 35.2639L58.2404 47.532Z" fill="#FFF8ED"/>
<path d="M74.6308 59.5959C74.5349 59.5959 74.4391 59.5514 74.378 59.4681L73.5349 58.3181C73.4405 58.1889 73.4585 58.0084 73.578 57.9001C73.6974 57.7931 73.8794 57.7931 73.9974 57.9028C74.003 57.9084 74.0099 57.9139 74.0155 57.9209C74.021 57.9264 74.0266 57.9334 74.0308 57.9389C74.0446 57.9556 74.0599 57.9778 74.0752 57.9987L74.8821 59.0987C74.9835 59.2376 74.9544 59.4334 74.8155 59.5348C74.7599 59.5764 74.696 59.5959 74.6308 59.5959Z" fill="#FFF8ED"/>
<mask id="mask0_2095_63903" style="mask-type:luminance" maskUnits="userSpaceOnUse" x="73" y="57" width="2" height="3">
<path d="M74.6308 59.5959C74.5349 59.5959 74.4391 59.5514 74.378 59.4681L73.5349 58.3181C73.4405 58.1889 73.4585 58.0084 73.578 57.9001C73.6974 57.7931 73.8794 57.7931 73.9974 57.9028C74.003 57.9084 74.0099 57.9139 74.0155 57.9209C74.021 57.9264 74.0266 57.9334 74.0308 57.9389C74.0446 57.9556 74.0599 57.9778 74.0752 57.9987L74.8821 59.0987C74.9835 59.2376 74.9544 59.4334 74.8155 59.5348C74.7599 59.5764 74.696 59.5959 74.6308 59.5959Z" fill="white"/>
</mask>
<g mask="url(#mask0_2095_63903)">
<path d="M74.4542 58.9654L77.957 63.7404C77.7486 63.4556 77.5264 63.1793 77.2903 62.9098C74.7 59.9584 70.9237 58.482 66.9125 58.482C65.1723 58.482 63.3889 58.7598 61.6375 59.3154L58.1348 54.5404C59.8862 53.9848 61.6695 53.707 63.4098 53.707C67.4209 53.707 71.1973 55.1834 73.7875 58.1348C74.0237 58.4043 74.2459 58.6806 74.4542 58.9654Z" fill="#FFF8ED"/>
<path d="M77.9571 64.0529C77.8613 64.0529 77.7654 64.0084 77.7043 63.9251C77.5015 63.6473 77.2821 63.3751 77.0543 63.1154C74.6085 60.3293 71.0071 58.7945 66.9113 58.7945C65.1849 58.7945 63.4432 59.0695 61.7307 59.6126C61.6029 59.6529 61.464 59.607 61.3835 59.5001L57.8807 54.7251C57.821 54.6445 57.8043 54.539 57.8363 54.4431C57.8668 54.3473 57.9432 54.2723 58.039 54.2418C59.8126 53.6793 61.6182 53.3945 63.4085 53.3945C67.6863 53.3945 71.4557 55.0043 74.021 57.9279C74.2613 58.2015 74.4904 58.489 74.7057 58.7806L78.2057 63.5529C78.2071 63.5543 78.2071 63.5556 78.2085 63.5556C78.3099 63.6945 78.2807 63.8904 78.1418 63.9931C78.0863 64.0334 78.0224 64.0529 77.9571 64.0529ZM66.9126 58.1695C70.1196 58.1695 73.0404 59.0751 75.3835 60.7598L74.2029 59.1501C74.0001 58.8723 73.7807 58.6001 73.5529 58.3404C71.1071 55.5543 67.5057 54.0195 63.4099 54.0195C61.8238 54.0195 60.2238 54.2515 58.6474 54.7112L61.7571 58.9515C63.4613 58.432 65.1946 58.1695 66.9126 58.1695Z" fill="#FFF8ED"/>
</g>
<path d="M56.1042 81.0236C56.0181 81.0236 55.9333 80.9889 55.8708 80.9194L55.8222 80.8639C55.6611 80.6792 55.5069 80.4875 55.3639 80.293L51.8611 75.518C51.7597 75.3792 51.7889 75.1833 51.9278 75.0819C52.0667 74.9806 52.2625 75.0097 52.3653 75.1486L52.3681 75.1528C52.5 75.3319 52.6417 75.5083 52.7903 75.6778L52.8347 75.7278C52.8417 75.7361 52.8486 75.743 52.8542 75.7514L56.3569 80.5264C56.4556 80.6611 56.4319 80.8486 56.3014 80.9542C56.2431 81.0014 56.1722 81.0236 56.1042 81.0236Z" fill="#FFF8ED"/>
<mask id="mask1_2095_63903" style="mask-type:luminance" maskUnits="userSpaceOnUse" x="51" y="75" width="6" height="7">
<path d="M56.1042 81.0236C56.0181 81.0236 55.9333 80.9889 55.8708 80.9194L55.8222 80.8639C55.6611 80.6792 55.5069 80.4875 55.3639 80.293L51.8611 75.518C51.7597 75.3792 51.7889 75.1833 51.9278 75.0819C52.0667 74.9806 52.2625 75.0097 52.3653 75.1486L52.3681 75.1528C52.5 75.3319 52.6417 75.5083 52.7903 75.6778L52.8347 75.7278C52.8417 75.7361 52.8486 75.743 52.8542 75.7514L56.3569 80.5264C56.4556 80.6611 56.4319 80.8486 56.3014 80.9542C56.2431 81.0014 56.1722 81.0236 56.1042 81.0236Z" fill="white"/>
</mask>
<g mask="url(#mask1_2095_63903)">
<g opacity="0.6">
<path d="M52.8556 76.2084L56.3584 80.9834C56.2556 80.8778 56.1542 80.7695 56.057 80.6584C55.9 80.4806 55.7528 80.2959 55.6153 80.1084L52.1125 75.3334C52.25 75.5209 52.3973 75.7056 52.5542 75.8834C52.6514 75.9945 52.7528 76.1028 52.8556 76.2084Z" fill="#7F300F"/>
<path d="M56.3583 81.2958C56.2763 81.2958 56.1958 81.2639 56.1347 81.2014C56.0263 81.0917 55.9208 80.9778 55.8208 80.8639C55.6596 80.6805 55.5055 80.4889 55.3624 80.293L51.8597 75.518C51.7583 75.3792 51.7874 75.1833 51.9263 75.0819C52.0652 74.9806 52.261 75.0097 52.3638 75.1486L52.3666 75.1528C52.4985 75.3319 52.6402 75.5083 52.7888 75.6778C52.8819 75.7833 52.9791 75.8889 53.0791 75.9903C53.0902 76.0014 53.0985 76.0125 53.1083 76.0236L56.611 80.7986C56.7083 80.9305 56.686 81.1153 56.561 81.2222C56.5027 81.2722 56.4305 81.2958 56.3583 81.2958Z" fill="#FFF8ED"/>
</g>
</g>
<path d="M56.3584 81.2959C56.2765 81.2959 56.1959 81.2639 56.1348 81.2014C56.0446 81.1098 55.9557 81.0153 55.8696 80.9181C55.8668 80.9139 55.8626 80.9111 55.8598 80.907C55.8237 80.8625 55.7821 80.8042 55.7432 80.75L55.7001 80.6903L52.3473 76.1195C52.2487 75.9848 52.2723 75.7972 52.4029 75.6917C52.5321 75.5861 52.7209 75.6014 52.8321 75.7264C52.9126 75.8153 52.9946 75.9028 53.0779 75.9889C53.0876 76 53.0973 76.0111 53.1071 76.0223L56.6098 80.7973C56.7071 80.9292 56.6848 81.1139 56.5598 81.2209C56.5015 81.2722 56.4307 81.2959 56.3584 81.2959Z" fill="#FFF8ED"/>
<mask id="mask2_2095_63903" style="mask-type:luminance" maskUnits="userSpaceOnUse" x="52" y="75" width="5" height="7">
<path d="M56.3584 81.2959C56.2765 81.2959 56.1959 81.2639 56.1348 81.2014C56.0446 81.1098 55.9557 81.0153 55.8696 80.9181C55.8668 80.9139 55.8626 80.9111 55.8598 80.907C55.8237 80.8625 55.7821 80.8042 55.7432 80.75L55.7001 80.6903L52.3473 76.1195C52.2487 75.9848 52.2723 75.7972 52.4029 75.6917C52.5321 75.5861 52.7209 75.6014 52.8321 75.7264C52.9126 75.8153 52.9946 75.9028 53.0779 75.9889C53.0876 76 53.0973 76.0111 53.1071 76.0223L56.6098 80.7973C56.7071 80.9292 56.6848 81.1139 56.5598 81.2209C56.5015 81.2722 56.4307 81.2959 56.3584 81.2959Z" fill="white"/>
</mask>
<g mask="url(#mask2_2095_63903)">
<g opacity="0.6">
<path d="M52.8558 76.2084L56.3586 80.9834C56.2558 80.8778 56.1545 80.7695 56.0572 80.6584C55.9003 80.4806 55.7531 80.2959 55.6156 80.1084L52.1128 75.3334C52.2503 75.5209 52.3975 75.7056 52.5545 75.8834C52.6517 75.9945 52.7531 76.1028 52.8558 76.2084Z" fill="#7F300F"/>
<path d="M56.3585 81.2958C56.2766 81.2958 56.196 81.2639 56.1349 81.2014C56.0266 81.0917 55.921 80.9778 55.821 80.8639C55.6599 80.6805 55.5057 80.4889 55.3627 80.293L51.8599 75.518C51.7585 75.3792 51.7877 75.1833 51.9266 75.0819C52.0654 74.9806 52.2613 75.0097 52.3641 75.1486L52.3668 75.1528C52.4988 75.3319 52.6404 75.5083 52.7891 75.6778C52.8821 75.7833 52.9793 75.8889 53.0793 75.9903C53.0905 76.0014 53.0988 76.0125 53.1085 76.0236L56.6113 80.7986C56.7085 80.9305 56.6863 81.1153 56.5613 81.2222C56.5029 81.2722 56.4307 81.2958 56.3585 81.2958Z" fill="#FFF8ED"/>
</g>
</g>
<path d="M71.0307 70.3417C70.9474 70.6056 70.8515 70.8709 70.746 71.132C70.5196 71.6931 70.2446 72.2445 69.921 72.7792C69.7654 73.0362 69.6001 73.2903 69.421 73.5403C68.8154 74.3945 68.0793 75.1973 67.2182 75.9153C64.8751 77.8751 62.0585 78.8528 59.3974 78.8528C56.7376 78.8528 54.2335 77.8737 52.5168 75.9153C49.0793 71.9987 50.0918 65.6514 54.7765 61.7376C57.1196 59.7778 59.9363 58.8 62.5974 58.8C65.2571 58.8 67.7612 59.7792 69.4779 61.7376C69.5279 61.7945 69.5751 61.8501 69.6196 61.907C69.8432 62.1764 70.0487 62.4584 70.2321 62.7459C70.564 63.2681 70.8265 63.8167 71.0293 64.3917C71.1335 64.6834 71.2196 64.982 71.2876 65.2848C71.664 66.9042 71.5682 68.6487 71.0307 70.3417Z" fill="#FFDAA8"/>
<path d="M71.2889 65.2847H62.1278C61.1612 65.2847 60.4959 64.5306 60.6459 63.5972C60.7945 62.6639 61.6987 61.9097 62.6667 61.9097H69.6223C69.8459 62.1792 70.0514 62.4611 70.2348 62.7486C70.5667 63.2708 70.8292 63.8195 71.032 64.3945C71.1348 64.6833 71.2209 64.9819 71.2889 65.2847Z" fill="#FF790D"/>
<path d="M71.0307 70.3417C70.9474 70.6056 70.8515 70.8709 70.746 71.132C70.5196 71.6931 70.2446 72.2445 69.921 72.7792C69.7654 73.0362 69.6001 73.2903 69.421 73.5403H60.7154C59.7974 73.5403 59.1724 72.8237 59.3126 71.9403C59.4543 71.057 60.3099 70.3403 61.2251 70.3403H71.0307V70.3417Z" fill="#FF790D"/>
<path d="M73.6321 34.257H112.278L111.688 37.9597L101.532 101.635H52.6404H48.8015L51.8723 82.3764C53.8946 83.4236 56.2029 83.9472 58.5932 83.9472C61.8057 83.9472 65.1682 83.0014 68.1946 81.1083H95.2918C95.7626 81.1083 96.2001 80.7417 96.2737 80.2875C96.346 79.8361 96.0237 79.4695 95.5543 79.4695H70.4404C72.7348 77.5361 74.4362 75.2139 75.5085 72.7611H96.6237C97.0946 72.7611 97.5321 72.3945 97.6043 71.9431C97.6765 71.4903 97.3543 71.1222 96.8848 71.1222H76.1279C76.8404 68.8875 77.0376 66.5917 76.6987 64.4139H97.9543C98.4251 64.4139 98.8626 64.0472 98.9348 63.5959C99.0071 63.1431 98.6848 62.775 98.2154 62.775H76.3335C75.839 61.0903 74.996 59.5125 73.789 58.1333C71.1987 55.182 67.4223 53.7056 63.4112 53.7056C61.0223 53.7056 58.5515 54.2292 56.196 55.275L57.3807 47.8431H71.2251L73.3557 34.4889L73.6321 34.257ZM93.9612 89.4542C94.4321 89.4542 94.8696 89.0875 94.9432 88.6333C95.0154 88.182 94.6932 87.8153 94.2237 87.8153H61.2585C60.7904 87.8153 60.3515 88.182 60.2793 88.6333C60.2071 89.0861 60.5293 89.4542 60.9973 89.4542H93.9612ZM99.2862 56.0681C99.7571 56.0681 100.195 55.7014 100.267 55.25C100.339 54.7972 100.017 54.4292 99.5473 54.4292H77.2015C76.7321 54.4292 76.2946 54.7958 76.2223 55.25C76.1501 55.7014 76.4696 56.0681 76.9404 56.0681H99.2862Z" fill="#FFF8ED"/>
<path d="M101.532 101.946H48.8016C48.7099 101.946 48.6238 101.906 48.5641 101.836C48.5044 101.767 48.4794 101.675 48.4932 101.585L51.5655 82.3264C51.5807 82.2278 51.6432 82.1417 51.7335 82.0973C51.8224 82.0514 51.9294 82.0528 52.0182 82.0986C53.9599 83.1042 56.2335 83.6348 58.5946 83.6348C61.8488 83.6348 65.1113 82.6695 68.0294 80.8431C68.0794 80.8125 68.1363 80.7959 68.1946 80.7959H95.2919C95.6085 80.7959 95.9169 80.5403 95.9641 80.2389C95.9835 80.1167 95.9557 80.0028 95.8849 79.9195C95.8099 79.8306 95.6919 79.782 95.553 79.782H70.4405C70.3085 79.782 70.1919 79.7 70.1474 79.5764C70.103 79.4528 70.1391 79.3153 70.2391 79.2306C72.4141 77.3973 74.1377 75.1167 75.2224 72.6361C75.2724 72.5223 75.3849 72.4486 75.5085 72.4486H96.6238C96.9405 72.4486 97.2488 72.1945 97.296 71.8931C97.3155 71.7695 97.2877 71.6556 97.2169 71.5723C97.1419 71.4834 97.0238 71.4348 96.8849 71.4348H76.128C76.028 71.4348 75.9349 71.3875 75.8752 71.307C75.8169 71.2264 75.8002 71.1223 75.8294 71.0278C76.5252 68.8459 76.7182 66.575 76.3891 64.4625C76.3752 64.3723 76.4016 64.2806 76.4599 64.2111C76.5182 64.1417 76.6057 64.1014 76.6974 64.1014H97.953C98.2696 64.1014 98.578 63.8473 98.6252 63.5459C98.6446 63.4223 98.6169 63.3084 98.546 63.225C98.471 63.1361 98.353 63.0875 98.2141 63.0875H76.3335C76.1946 63.0875 76.0724 62.9959 76.0335 62.8625C75.5391 61.175 74.7044 59.6528 73.553 58.3389C71.1071 55.5528 67.5057 54.0181 63.4099 54.0181C61.0432 54.0181 58.5919 54.5514 56.321 55.5611C56.2155 55.607 56.0946 55.5931 56.003 55.5236C55.9113 55.4542 55.8669 55.3403 55.8849 55.2264L57.0696 47.7945C57.0932 47.6431 57.2252 47.5306 57.378 47.5306H70.9557L73.0432 34.4389C73.0544 34.3653 73.0932 34.2973 73.1502 34.2486L73.428 34.0139C73.4849 33.9667 73.5557 33.9403 73.6294 33.9403H112.278C112.37 33.9403 112.456 33.9806 112.515 34.05C112.575 34.1195 112.6 34.2111 112.586 34.3014L101.84 101.679C101.817 101.835 101.686 101.946 101.532 101.946ZM49.1669 101.321H101.265L111.911 34.5681H73.746L73.6446 34.6542L71.5335 47.8945C71.5099 48.0459 71.378 48.1584 71.2252 48.1584H57.6474L56.5932 54.7681C58.7946 53.8681 61.1391 53.3945 63.4113 53.3945C67.6891 53.3945 71.4585 55.0042 74.0238 57.9278C75.1835 59.2528 76.0377 60.7764 76.5655 62.4625H98.2169C98.5363 62.4625 98.8307 62.5931 99.0238 62.8195C99.2155 63.0445 99.2946 63.3375 99.2446 63.6445C99.1474 64.2514 98.5807 64.7264 97.9544 64.7264H77.0585C77.3113 66.6973 77.1363 68.7848 76.5488 70.8098H96.8849C97.2044 70.8098 97.4988 70.9403 97.6919 71.1667C97.8835 71.3917 97.9627 71.6848 97.9127 71.9917C97.8155 72.5986 97.2488 73.0736 96.6224 73.0736H75.7113C74.6932 75.3264 73.1682 77.4111 71.2682 79.157H95.553C95.8724 79.157 96.1669 79.2875 96.3599 79.5139C96.5516 79.7389 96.6294 80.0306 96.5807 80.3375C96.4835 80.9445 95.9169 81.4209 95.2905 81.4209H68.2835C65.2849 83.2792 61.9363 84.2598 58.5932 84.2598C56.2863 84.2598 54.0571 83.7723 52.1141 82.8445L49.1669 101.321ZM93.9613 89.7667H60.9974C60.6794 89.7667 60.3849 89.6375 60.1919 89.4098C60.0002 89.1848 59.921 88.8917 59.971 88.5834C60.0682 87.9764 60.6335 87.5014 61.2585 87.5014H94.2224C94.5419 87.5014 94.8363 87.632 95.0294 87.8584C95.221 88.0834 95.2988 88.375 95.2502 88.682C95.1544 89.2903 94.5877 89.7667 93.9613 89.7667ZM61.2585 88.1278C60.9432 88.1278 60.6363 88.382 60.5877 88.6834C60.5682 88.807 60.596 88.9223 60.6669 89.0056C60.7419 89.0945 60.8599 89.1431 60.996 89.1431H93.9599C94.2766 89.1431 94.5849 88.8875 94.6321 88.5861C94.6516 88.4639 94.6238 88.35 94.553 88.2667C94.478 88.1778 94.3599 88.1292 94.221 88.1292H61.2585V88.1278ZM99.2863 56.3806H76.9405C76.621 56.3806 76.328 56.2514 76.1349 56.025C75.9432 55.8 75.8655 55.5084 75.9141 55.2014C76.0113 54.5931 76.5766 54.1181 77.2016 54.1181H99.5474C99.8669 54.1181 100.161 54.2486 100.354 54.475C100.546 54.7 100.625 54.9931 100.575 55.3C100.479 55.9056 99.9127 56.3806 99.2863 56.3806ZM77.2016 54.7417C76.8863 54.7417 76.5794 54.9973 76.5308 55.2986C76.5113 55.4223 76.5391 55.5361 76.6099 55.6181C76.6849 55.7056 76.8016 55.7542 76.9405 55.7542H99.2863C99.603 55.7542 99.9113 55.5 99.9585 55.1986C99.978 55.075 99.9502 54.9611 99.8794 54.8778C99.8044 54.7889 99.6863 54.7403 99.5474 54.7403H77.2016V54.7417Z" fill="#FFF8ED"/>
<g opacity="0.5">
<g opacity="0.6">
<path d="M55.2099 61.4473L54.8779 63.532C54.8265 63.5709 54.7752 63.6098 54.7252 63.6528C53.596 64.5945 53.3529 66.125 54.1807 67.0681C54.2168 67.1098 54.2557 67.15 54.296 67.1875L52.8571 76.207C52.7543 76.1014 52.6529 75.9931 52.5557 75.882C50.8474 73.9334 50.2446 71.3792 50.6529 68.8264C51.0599 66.2723 52.4765 63.7195 54.8071 61.7723C54.9377 61.6612 55.0738 61.5528 55.2099 61.4473Z" fill="#FFBF70"/>
</g>
</g>
<path d="M96.8849 71.1223C97.3558 71.1223 97.6766 71.489 97.6044 71.9431C97.5322 72.3945 97.0933 72.7612 96.6238 72.7612H75.5085C75.746 72.2209 75.953 71.6737 76.1266 71.1223H96.8849Z" fill="#FF790D"/>
<path d="M96.6238 73.0737H75.5085C75.403 73.0737 75.3043 73.0209 75.2474 72.932C75.1905 72.8431 75.1807 72.732 75.2224 72.6362C75.4571 72.1 75.6613 71.5598 75.8293 71.0292C75.8696 70.8987 75.9905 70.8112 76.128 70.8112H96.8849C97.2043 70.8112 97.4988 70.9417 97.6918 71.1681C97.8835 71.3931 97.9627 71.6862 97.9127 71.9931C97.8168 72.5987 97.2502 73.0737 96.6238 73.0737ZM75.9807 72.4487H96.6238C96.9405 72.4487 97.2488 72.1945 97.296 71.8931C97.3155 71.7695 97.2877 71.6556 97.2168 71.5723C97.1418 71.4834 97.0238 71.4348 96.8849 71.4348H76.3543C76.2432 71.7709 76.1182 72.1098 75.9807 72.4487Z" fill="#FF790D"/>
<path d="M95.5542 79.4681C96.0251 79.4681 96.3459 79.8348 96.2737 80.2862C96.2014 80.739 95.7626 81.107 95.2917 81.107H68.1931C68.9445 80.6376 69.6751 80.1084 70.3764 79.5223C70.3973 79.5043 70.4195 79.4862 70.4403 79.4695H95.5542V79.4681Z" fill="#FF790D"/>
<path d="M95.2918 81.4195H68.1932C68.0543 81.4195 67.9307 81.3278 67.8932 81.1931C67.8543 81.0598 67.9098 80.9153 68.0279 80.8417C68.7737 80.375 69.4959 79.85 70.1765 79.282L70.2348 79.2334C70.2918 79.1861 70.3668 79.157 70.4404 79.157H95.5543C95.8737 79.157 96.1682 79.2875 96.3612 79.5139C96.5529 79.7389 96.6307 80.0306 96.5821 80.3375C96.4848 80.9431 95.9196 81.4195 95.2918 81.4195ZM69.2293 80.7945H95.2918C95.6084 80.7945 95.9168 80.5389 95.964 80.2375C95.9834 80.1153 95.9557 80.0014 95.8848 79.9181C95.8098 79.8292 95.6918 79.7806 95.5529 79.7806H70.5529C70.1279 80.1361 69.6848 80.475 69.2293 80.7945Z" fill="#FF790D"/>
<path d="M115.432 38.557L114.938 41.6625L114.842 42.2611L104.782 105.335H51.5168L48.8015 101.633H101.532L111.688 37.9611L112.279 34.257L115.432 38.557Z" fill="#FFDAA8"/>
<path d="M104.782 105.647H51.5182C51.4182 105.647 51.3251 105.6 51.2668 105.519L48.5501 101.818C48.4807 101.724 48.4696 101.597 48.5237 101.492C48.5765 101.386 48.6848 101.321 48.8029 101.321H101.267L111.381 37.9111L111.972 34.207C111.992 34.082 112.085 33.982 112.207 33.9528C112.329 33.9236 112.458 33.9695 112.532 34.0722L115.685 38.3722C115.735 38.4389 115.754 38.5236 115.742 38.6056L115.152 42.3097L105.09 105.385C105.065 105.536 104.935 105.647 104.782 105.647ZM51.6751 105.022H104.514L114.533 42.2111L115.103 38.6361L112.47 35.0445L111.996 38.0097L101.84 101.682C101.817 101.833 101.685 101.946 101.532 101.946H49.4182L51.6751 105.022Z" fill="#FFF8ED"/>
<path d="M108.031 109.039L111.533 113.814H58.8001L55.2974 109.039H108.031Z" fill="#FFBF70"/>
<path d="M111.533 114.126H58.8001C58.7001 114.126 58.6071 114.079 58.5487 113.999L55.046 109.224C54.9765 109.129 54.9654 109.003 55.0196 108.897C55.0724 108.792 55.1807 108.726 55.2987 108.726H108.032C108.132 108.726 108.225 108.774 108.283 108.854L111.786 113.629C111.856 113.724 111.867 113.85 111.813 113.956C111.758 114.06 111.652 114.126 111.533 114.126ZM58.9585 113.501H110.917L107.872 109.351H55.914L58.9585 113.501Z" fill="#FFF8ED"/>
<path d="M118.777 41.6625L108.031 109.039H55.2974L55.8876 105.335H104.782L114.936 41.6625H118.777Z" fill="#FFF8ED"/>
<path d="M108.031 109.351H55.2974C55.2058 109.351 55.1196 109.311 55.0599 109.242C55.0002 109.172 54.9752 109.081 54.9891 108.99L55.5794 105.288C55.603 105.136 55.7349 105.024 55.8877 105.024H104.515L114.628 41.6139C114.652 41.4625 114.784 41.35 114.936 41.35H118.777C118.868 41.35 118.954 41.3903 119.014 41.4598C119.074 41.5292 119.099 41.6209 119.085 41.7111L108.339 109.088C108.315 109.239 108.185 109.351 108.031 109.351ZM55.6641 108.726H107.764L118.41 41.975H115.203L105.09 105.385C105.067 105.536 104.935 105.649 104.782 105.649H56.1544L55.6641 108.726Z" fill="#FFF8ED"/>
<path d="M118.777 41.6625L122.279 46.4375L111.534 113.814L108.031 109.039L118.777 41.6625Z" fill="#FFDAA8"/>
<path d="M111.534 114.126C111.435 114.126 111.342 114.081 111.282 113.999L107.779 109.224C107.729 109.157 107.71 109.072 107.722 108.989L118.468 41.6125C118.488 41.4875 118.581 41.3875 118.703 41.3584C118.825 41.3292 118.954 41.375 119.028 41.4778L122.531 46.2528C122.581 46.3195 122.6 46.4042 122.588 46.4875L111.842 113.864C111.822 113.989 111.729 114.089 111.607 114.118C111.582 114.124 111.557 114.126 111.534 114.126ZM108.36 108.958L111.342 113.025L121.949 46.5167L118.967 42.45L108.36 108.958Z" fill="#FFF8ED"/>
<path d="M49.9876 81.1805L31.7904 96.393C31.7474 96.4292 31.7029 96.4611 31.6585 96.4944C31.6376 96.5097 31.6182 96.525 31.5974 96.5403C31.5613 96.5653 31.5238 96.5875 31.4876 96.6111C31.4613 96.6278 31.4349 96.6458 31.4085 96.6611C31.389 96.6722 31.3682 96.6819 31.3488 96.693C31.3001 96.7194 31.2501 96.7458 31.2001 96.768C31.1821 96.7764 31.164 96.7833 31.146 96.7903C31.0793 96.8194 31.0126 96.8444 30.946 96.8667C30.9154 96.8778 30.8835 96.8875 30.8515 96.8972C30.8265 96.9042 30.8001 96.9125 30.7751 96.918C30.7349 96.9278 30.6946 96.9375 30.6543 96.9458C30.6293 96.9514 30.6043 96.9555 30.5807 96.9597C30.5363 96.9667 30.4932 96.9722 30.4488 96.9778C30.4279 96.9805 30.4071 96.9833 30.3863 96.9847C30.3224 96.9903 30.2571 96.993 30.1932 96.993C29.6488 96.993 29.1376 96.793 28.7863 96.393L28.1376 95.6542C28.1057 95.618 28.0765 95.5805 28.0474 95.5417L31.5501 100.317C31.5779 100.356 31.6085 100.393 31.6404 100.429L32.289 101.168C32.6404 101.568 33.1515 101.768 33.696 101.768C33.7599 101.768 33.8238 101.765 33.889 101.76C33.9099 101.758 33.9307 101.754 33.9515 101.753C33.996 101.747 34.039 101.742 34.0835 101.735C34.1085 101.731 34.1335 101.725 34.1571 101.721C34.1974 101.712 34.2376 101.704 34.2779 101.693C34.3043 101.686 34.3293 101.679 34.3543 101.672C34.3724 101.667 34.3918 101.662 34.4099 101.657C34.4224 101.653 34.4349 101.647 34.4488 101.642C34.5168 101.619 34.5835 101.593 34.6488 101.565C34.6613 101.56 34.6751 101.556 34.689 101.55C34.6946 101.547 34.6988 101.544 34.7043 101.543C34.7543 101.519 34.8029 101.494 34.8529 101.468C34.871 101.458 34.889 101.451 34.9071 101.44C34.9099 101.439 34.9113 101.437 34.9126 101.436C34.939 101.421 34.9654 101.403 34.9918 101.386C35.0251 101.365 35.0599 101.346 35.0932 101.322C35.096 101.321 35.0988 101.318 35.1015 101.315C35.1224 101.301 35.1418 101.285 35.1626 101.269C35.196 101.244 35.2307 101.221 35.2626 101.194C35.2738 101.186 35.2835 101.178 35.2946 101.168L53.4918 85.9555L49.9876 81.1805Z" fill="#F05F06"/>
<path d="M33.6945 102.081C33.0361 102.081 32.4528 101.829 32.0528 101.374L31.4042 100.635C31.3667 100.592 31.3306 100.547 31.2972 100.501L27.7959 95.7292C27.7959 95.7278 27.7945 95.7278 27.7945 95.7264C27.6931 95.5875 27.7222 95.3917 27.8611 95.2903C28 95.1889 28.1959 95.2181 28.2972 95.357L28.2986 95.3597C28.3209 95.3903 28.3445 95.4195 28.3695 95.4486L29.0181 96.1875C29.2972 96.5056 29.7139 96.6806 30.1903 96.6806C30.2459 96.6806 30.3 96.6778 30.3556 96.6722L30.4111 96.6653C30.4486 96.6611 30.4861 96.657 30.525 96.65C30.5403 96.6472 30.557 96.6445 30.5722 96.6403L30.5903 96.6361C30.625 96.6292 30.6611 96.6208 30.6959 96.6125C30.7181 96.607 30.7417 96.6 30.7639 96.5945C30.7917 96.5861 30.8181 96.5778 30.8459 96.5681C30.9042 96.5486 30.9625 96.5264 31.0209 96.5014L31.0681 96.482C31.1125 96.4611 31.1556 96.4389 31.1986 96.4153L31.2514 96.3875C31.2625 96.3806 31.275 96.3736 31.2861 96.3653L31.3445 96.3278C31.3695 96.3125 31.3931 96.2972 31.4181 96.2806C31.4264 96.275 31.4347 96.2681 31.4431 96.2611L31.4834 96.2306C31.5181 96.2042 31.5542 96.1792 31.5875 96.15L49.7847 80.9375C49.8514 80.882 49.9375 80.857 50.0222 80.8667C50.1084 80.8764 50.1847 80.9222 50.2361 80.9917L53.7389 85.7667C53.8361 85.9 53.8139 86.0861 53.6875 86.1917L35.457 101.438C35.4278 101.461 35.3986 101.483 35.3681 101.504L35.3278 101.533C35.3111 101.546 35.2945 101.558 35.2778 101.571C35.2403 101.597 35.2111 101.615 35.182 101.633L35.1306 101.665C35.1111 101.678 35.0917 101.69 35.0722 101.701C35.0667 101.706 35.0611 101.708 35.0556 101.711C35.0431 101.718 35.0264 101.726 35.0111 101.733L34.9986 101.739C34.9431 101.768 34.8889 101.797 34.832 101.824C34.8334 101.824 34.8236 101.828 34.8153 101.832C34.8014 101.838 34.7861 101.844 34.7709 101.85C34.6959 101.882 34.6209 101.911 34.5459 101.936C34.5334 101.942 34.5167 101.947 34.5014 101.953C34.4875 101.957 34.4709 101.961 34.4556 101.965L34.4403 101.969C34.4111 101.978 34.382 101.986 34.3528 101.993C34.307 102.004 34.2625 102.015 34.2167 102.024L34.2014 102.026C34.1778 102.031 34.1556 102.036 34.132 102.04C34.082 102.049 34.032 102.056 33.9834 102.061L33.9653 102.064C33.9472 102.067 33.9306 102.068 33.9125 102.069C33.8347 102.078 33.7639 102.081 33.6945 102.081ZM29.6917 97.2556L31.8028 100.133C31.825 100.164 31.85 100.194 31.875 100.224L32.5236 100.963C32.8347 101.318 33.3236 101.494 33.8611 101.449L33.9153 101.442C33.9528 101.438 33.9917 101.433 34.0292 101.426C34.0445 101.424 34.0611 101.421 34.0764 101.417L34.0931 101.414C34.1292 101.407 34.1639 101.399 34.1986 101.39C34.2209 101.385 34.2431 101.378 34.2667 101.372L34.3139 101.36C34.3222 101.356 34.3361 101.35 34.3486 101.346C34.407 101.326 34.4667 101.304 34.525 101.278C34.5361 101.272 34.5486 101.268 34.5611 101.264L34.5709 101.26C34.6167 101.239 34.6597 101.215 34.7042 101.192C34.7153 101.185 34.7278 101.179 34.7389 101.174L34.7486 101.168C34.7514 101.165 34.7556 101.164 34.7584 101.163C34.7681 101.157 34.7806 101.149 34.7931 101.142L34.8584 101.101C34.8778 101.09 34.8972 101.078 34.9153 101.065C34.932 101.053 34.9403 101.047 34.9486 101.04L35.0014 101C35.0222 100.985 35.0431 100.969 35.0639 100.953L35.0917 100.931L53.0653 85.9056L49.9334 81.6347L31.9903 96.6333C31.9459 96.6695 31.9014 96.7042 31.8556 96.7375L31.825 96.7611C31.8084 96.7736 31.7931 96.7861 31.7764 96.7972C31.7431 96.8195 31.7097 96.8403 31.6764 96.8611L31.6278 96.8917C31.607 96.9056 31.5861 96.9181 31.5653 96.9306C31.5486 96.9403 31.532 96.9486 31.5153 96.957L31.4972 96.9667C31.4431 96.9958 31.3875 97.025 31.332 97.0514C31.3167 97.0583 31.3014 97.0653 31.2847 97.0708L31.2695 97.0778C31.1959 97.1097 31.1209 97.1389 31.0445 97.1639C31.0097 97.1764 30.9736 97.1875 30.9389 97.1972C30.9097 97.2056 30.8806 97.2139 30.8514 97.2208C30.807 97.232 30.7611 97.2431 30.7153 97.2514L30.7 97.2542C30.6778 97.2583 30.6542 97.2639 30.632 97.2667C30.582 97.275 30.5334 97.282 30.4834 97.2875L30.4639 97.2903C30.4472 97.2931 30.4292 97.2945 30.4111 97.2958C30.3334 97.3028 30.2611 97.3056 30.1917 97.3056C30.0195 97.3056 29.8514 97.2889 29.6917 97.2556Z" fill="#FFF8ED"/>
<path d="M76.6988 64.4139C76.6127 63.8597 76.4905 63.3111 76.3321 62.775C75.8391 61.0889 74.9946 59.5125 73.7877 58.1334C71.1974 55.182 67.421 53.707 63.4099 53.707C61.0196 53.707 58.5488 54.2292 56.1946 55.2778C54.5919 55.9903 53.0446 56.9431 51.6141 58.1389C45.296 63.4195 43.4113 71.6417 46.7988 77.5445L28.5988 92.7598C27.6433 93.557 27.4377 94.8528 28.1377 95.6542L28.7863 96.3931C29.1363 96.7931 29.6502 96.9945 30.1919 96.9945C30.7363 96.9945 31.3127 96.7931 31.7891 96.3931L49.9877 81.182C50.5821 81.6334 51.2127 82.0334 51.8724 82.375C53.8946 83.4209 56.203 83.9459 58.5933 83.9459C61.8071 83.9459 65.1696 83.0014 68.1933 81.107C68.946 80.6375 69.6752 80.1084 70.4419 79.4681C72.7349 77.5334 74.4377 75.2125 75.5099 72.7584C75.7446 72.2209 75.953 71.6709 76.1266 71.1195C76.8391 68.8889 77.0377 66.5903 76.6988 64.4139ZM67.2183 75.9167C64.8752 77.8764 62.0585 78.8542 59.3974 78.8542C56.7377 78.8542 54.2335 77.875 52.5169 75.9167C49.0794 72 50.0919 65.6528 54.7766 61.7389C57.1196 59.7792 59.9363 58.8014 62.5974 58.8014C65.2571 58.8014 67.7613 59.7806 69.478 61.7389C69.528 61.7959 69.5752 61.8514 69.6196 61.9084C69.8433 62.1778 70.0488 62.4597 70.2321 62.7472C70.5641 63.2695 70.8266 63.8181 71.0294 64.3931C71.1335 64.6847 71.2196 64.9834 71.2877 65.2861C71.6627 66.907 71.5683 68.6514 71.0294 70.3431C70.946 70.607 70.8502 70.8722 70.7446 71.1334C70.5183 71.6945 70.2433 72.2459 69.9196 72.7806C69.7641 73.0375 69.5988 73.2917 69.4196 73.5417C68.8169 74.3959 68.0794 75.1986 67.2183 75.9167Z" fill="#FF790D"/>
<path d="M30.1918 97.307C29.5335 97.307 28.9501 97.0556 28.5515 96.5986L27.9029 95.8597C27.5446 95.4486 27.3723 94.9084 27.4168 94.3389C27.4709 93.6584 27.8279 92.9945 28.3987 92.5195L46.4001 77.4709C44.8154 74.5681 44.4112 71.0514 45.264 67.5347C46.146 63.9 48.3307 60.4778 51.4154 57.8986C52.8376 56.7097 54.4043 55.732 56.0696 54.9917C58.4168 53.9472 60.9557 53.3945 63.4126 53.3945C67.6904 53.3945 71.4598 55.0042 74.0251 57.9278C75.239 59.3139 76.1168 60.9153 76.6348 62.6875C76.7946 63.2306 76.9209 63.7945 77.0098 64.3653C77.3543 66.5722 77.1515 68.9417 76.4265 71.2153C76.2529 71.7667 76.0418 72.3278 75.7987 72.8834C74.6765 75.4514 72.8932 77.8098 70.6446 79.707C69.8835 80.3431 69.1362 80.8875 68.3598 81.3709C65.346 83.2584 61.9696 84.257 58.5946 84.257C56.1348 84.257 53.7612 83.7014 51.7307 82.6514C51.1334 82.3431 50.5529 81.982 50.0001 81.5792L31.989 96.6334C31.471 97.0667 30.8335 97.307 30.1918 97.307ZM63.4112 54.0195C61.0418 54.0195 58.5904 54.5528 56.3223 55.5625C54.7098 56.2792 53.1932 57.2264 51.8154 58.3778C45.6848 63.5014 43.689 71.4972 47.071 77.3875C47.146 77.5195 47.1168 77.6861 47.0001 77.7834L28.7987 92.9986C28.3571 93.3681 28.0793 93.8736 28.039 94.3875C28.0071 94.7889 28.1251 95.1653 28.3723 95.4472L29.021 96.1861C29.3001 96.5056 29.7154 96.6806 30.1918 96.6806C30.6862 96.6806 31.1835 96.4931 31.589 96.1528L49.7876 80.9417C49.9001 80.8486 50.0612 80.8445 50.1779 80.9334C50.7598 81.3764 51.3779 81.7681 52.0168 82.0972C53.9585 83.1014 56.2335 83.6334 58.5946 83.6334C61.8515 83.6334 65.114 82.6681 68.0279 80.8431C68.7793 80.3736 69.5043 79.8459 70.2418 79.2292C72.4168 77.3959 74.139 75.1153 75.2237 72.6347C75.4585 72.0986 75.6612 71.5584 75.8293 71.0278C76.5251 68.8445 76.7196 66.575 76.3904 64.4625C76.3057 63.9195 76.1862 63.382 76.0335 62.8653C75.5418 61.1806 74.7071 59.6584 73.5529 58.3403C71.1085 55.5542 67.5057 54.0195 63.4112 54.0195ZM59.3973 79.1667C56.5293 79.1667 54.0015 78.0861 52.2807 76.1223C50.7446 74.3723 50.0043 72.0556 50.1946 69.5972C50.4279 66.582 52.0251 63.6292 54.5751 61.4986C56.8973 59.557 59.746 58.4875 62.5973 58.4875C65.4654 58.4875 67.9932 59.5681 69.714 61.532C69.7668 61.5917 69.8168 61.6514 69.8654 61.7125C70.0904 61.9834 70.3043 62.2764 70.4973 62.5778C70.8321 63.1028 71.1112 63.6778 71.3265 64.2861C71.4335 64.5861 71.5237 64.8986 71.5946 65.2153C71.9793 66.875 71.8876 68.6806 71.3293 70.4361C71.2418 70.7111 71.1432 70.9847 71.0362 71.25C70.8043 71.8264 70.5196 72.3945 70.189 72.9417C70.021 73.2181 69.8543 73.4736 69.6765 73.7236C69.0432 74.6167 68.2835 75.4348 67.4196 76.157C65.0973 78.0973 62.2487 79.1667 59.3973 79.1667ZM62.5973 59.1125C59.8932 59.1125 57.1862 60.1306 54.9765 61.9778C52.5543 64.0014 51.0376 66.7972 50.8182 69.6459C50.6404 71.9347 51.3279 74.0875 52.7515 75.7097C54.3515 77.5361 56.7126 78.5417 59.3973 78.5417C62.1015 78.5417 64.8085 77.5236 67.0182 75.6764C67.8418 74.9889 68.564 74.2098 69.1668 73.3611C69.3348 73.1236 69.4946 72.882 69.6543 72.6181C69.9668 72.1 70.2362 71.5611 70.4571 71.0153C70.5585 70.7653 70.6515 70.507 70.7335 70.2472C71.2571 68.5986 71.3446 66.907 70.9848 65.3542C70.9196 65.0611 70.8362 64.7722 70.7376 64.4959C70.5376 63.9306 70.2793 63.3986 69.971 62.9139C69.7932 62.6347 69.5946 62.3625 69.3821 62.107C69.3362 62.05 69.2918 61.9972 69.246 61.9445C67.6432 60.1181 65.2821 59.1125 62.5973 59.1125Z" fill="#FFF8ED"/>
<path d="M59.7779 66.7556C59.7501 66.6765 59.7154 66.6015 59.6681 66.5306C59.639 66.482 59.6042 66.4362 59.5654 66.3917C59.3306 66.1251 58.989 65.9904 58.6251 65.9904C58.5959 65.9904 58.5667 65.9917 58.5362 65.9931C58.1987 66.0126 57.8501 66.1459 57.5556 66.3917C57.1834 66.7029 56.9806 67.1265 56.9695 67.532C56.9612 67.8237 57.0515 68.1056 57.2473 68.3292C57.482 68.5959 57.8237 68.7306 58.1876 68.7306C58.5515 68.7306 58.9362 68.5973 59.2556 68.3292C59.407 68.2015 59.532 68.057 59.6265 67.9001C59.6709 67.8279 59.707 67.7529 59.739 67.6751C59.864 67.3695 59.8792 67.0431 59.7779 66.7556Z" fill="#FFF8ED"/>
<path d="M58.6403 64.2931C58.5917 64.1542 58.5264 64.0223 58.4473 63.8973C58.3931 63.8125 58.3348 63.732 58.2667 63.6542C57.8528 63.182 57.2487 62.9459 56.6084 62.9459C56.0237 62.9459 55.4098 63.1417 54.8778 63.5334C54.8264 63.5723 54.7751 63.6111 54.7251 63.6528C53.5959 64.5945 53.3528 66.125 54.1806 67.0681C54.2181 67.1098 54.2556 67.15 54.2959 67.1875C54.7014 67.5792 55.2542 67.7736 55.8389 67.7736C56.2139 67.7736 56.6028 67.6931 56.9737 67.532C57.2362 67.4181 57.4889 67.2625 57.7237 67.0681C57.9903 66.8431 58.2098 66.5875 58.3751 66.3125C58.4376 66.2084 58.4931 66.1014 58.5389 65.9931C58.5501 65.9667 58.5612 65.9417 58.5709 65.9153C58.7903 65.375 58.8167 64.8 58.6403 64.2931Z" fill="#FFF8ED"/>
<path d="M104.782 105.335H51.5168L48.8015 101.633H101.532L104.782 105.335Z" fill="#FFBF70"/>
<path d="M104.782 105.647H51.5182C51.4182 105.647 51.3251 105.6 51.2668 105.519L48.5501 101.818C48.4807 101.724 48.4696 101.597 48.5237 101.492C48.5765 101.386 48.6848 101.321 48.8029 101.321H101.533C101.624 101.321 101.708 101.36 101.768 101.428L105.018 105.129C105.099 105.221 105.118 105.353 105.068 105.464C105.015 105.576 104.904 105.647 104.782 105.647ZM51.6751 105.022H104.09L101.389 101.946H49.4168L51.6751 105.022Z" fill="#FFF8ED"/>
<path d="M98.2154 62.775C98.6863 62.775 99.0071 63.1417 98.9349 63.5959C98.8627 64.0472 98.4238 64.4139 97.9543 64.4139H76.6988C76.6127 63.8597 76.4904 63.3097 76.3335 62.775H98.2154Z" fill="#FF790D"/>
<path d="M97.9543 64.7264H76.6988C76.5446 64.7264 76.4141 64.6139 76.3904 64.4611C76.3071 63.9209 76.1877 63.3834 76.0335 62.8625C76.0057 62.7681 76.0238 62.6653 76.0835 62.5875C76.1418 62.5084 76.2349 62.4625 76.3335 62.4625H98.2168C98.5363 62.4625 98.8307 62.5931 99.0238 62.8195C99.2154 63.0445 99.2946 63.3375 99.2446 63.6445C99.1474 64.2514 98.5807 64.7264 97.9543 64.7264ZM76.9641 64.1014H97.9543C98.271 64.1014 98.5793 63.8472 98.6266 63.5459C98.646 63.4222 98.6182 63.3084 98.5474 63.225C98.4724 63.1361 98.3543 63.0875 98.2154 63.0875H76.7432C76.8307 63.4222 76.9043 63.7611 76.9641 64.1014Z" fill="#FF790D"/>
<path d="M99.5473 54.4292C100.018 54.4292 100.339 54.7959 100.267 55.25C100.195 55.7014 99.7556 56.0681 99.2862 56.0681H76.9404C76.4709 56.0681 76.1501 55.7014 76.2223 55.25C76.2945 54.7973 76.732 54.4292 77.2015 54.4292H99.5473Z" fill="#FF790D"/>
<path d="M99.2862 56.3806H76.9404C76.621 56.3806 76.3279 56.2514 76.1348 56.025C75.9432 55.8 75.8654 55.5084 75.914 55.2014C76.0112 54.5945 76.5765 54.1181 77.2015 54.1181H99.5473C99.8668 54.1181 100.161 54.2487 100.354 54.475C100.546 54.7 100.625 54.9931 100.575 55.3C100.479 55.9056 99.9126 56.3806 99.2862 56.3806ZM77.2015 54.7417C76.8862 54.7417 76.5793 54.9973 76.5307 55.2987C76.5112 55.4223 76.539 55.5362 76.6099 55.6195C76.6849 55.707 76.8015 55.7556 76.9404 55.7556H99.2862C99.6029 55.7556 99.9112 55.5014 99.9585 55.2C99.9779 55.0764 99.9501 54.9625 99.8793 54.8792C99.8043 54.7903 99.6862 54.7417 99.5473 54.7417H77.2015Z" fill="#FF790D"/>
<path d="M94.2225 87.8153C94.6933 87.8153 95.0141 88.182 94.9419 88.6334C94.8697 89.0861 94.4308 89.4542 93.96 89.4542H60.9975C60.5294 89.4542 60.2072 89.0875 60.2794 88.6334C60.3516 88.182 60.7905 87.8153 61.2586 87.8153H94.2225Z" fill="#FF790D"/>
<path d="M93.9613 89.7667H60.9974C60.6793 89.7667 60.3863 89.6375 60.1932 89.4111C60.0016 89.1861 59.9224 88.8931 59.9724 88.5847C60.0696 87.9778 60.6349 87.5028 61.2599 87.5028H94.2224C94.5419 87.5028 94.8363 87.6334 95.0294 87.8598C95.221 88.0848 95.2988 88.3764 95.2502 88.6834C95.1544 89.2903 94.5877 89.7667 93.9613 89.7667ZM61.2585 88.1278C60.9432 88.1278 60.6363 88.382 60.5877 88.6834C60.5682 88.807 60.596 88.9223 60.6668 89.0056C60.7418 89.0945 60.8585 89.1431 60.996 89.1431H93.9599C94.2766 89.1431 94.5849 88.8875 94.6321 88.5861C94.6516 88.4639 94.6238 88.35 94.553 88.2667C94.478 88.1778 94.3599 88.1292 94.221 88.1292H61.2585V88.1278Z" fill="#FF790D"/>
<path d="M80.2014 69.1889C80.1764 69.0292 80.1487 68.8695 80.1181 68.7112C80.1153 68.6959 80.1125 68.6806 80.1098 68.6653C80.1042 68.6362 80.0959 68.607 80.0903 68.5764C80.0639 68.4473 80.0348 68.3181 80.0042 68.1903C79.9931 68.1431 79.982 68.0945 79.9695 68.0473C79.9278 67.8806 79.8834 67.7153 79.8362 67.5514C79.7709 67.3278 79.6959 67.107 79.6181 66.8876C79.6084 66.8598 79.6014 66.832 79.5903 66.8042C79.5806 66.7751 79.5667 66.7473 79.557 66.7195C79.4834 66.5195 79.4056 66.3223 79.3209 66.1264C79.3139 66.1084 79.307 66.0917 79.2987 66.0737C79.207 65.8639 79.107 65.657 79.0042 65.4514C78.9917 65.4278 78.982 65.4042 78.9709 65.3806C78.9542 65.3473 78.9334 65.3139 78.9167 65.2806C78.8459 65.1459 78.7723 65.0139 78.6973 64.8806C78.6653 64.8264 78.6362 64.7709 78.6028 64.7167C78.4959 64.5362 78.3848 64.357 78.2667 64.1806C78.2667 64.1792 78.2653 64.1792 78.2653 64.1778C78.1667 64.0306 78.0653 63.8848 77.9598 63.7403L74.457 58.9653C74.5639 59.1098 74.6653 59.257 74.7653 59.4056C74.8834 59.582 74.9945 59.7612 75.1014 59.9417C75.1334 59.9959 75.1639 60.0514 75.1959 60.1056C75.2709 60.2376 75.3445 60.3709 75.4153 60.5042C75.4459 60.5612 75.475 60.6181 75.5042 60.6751C75.6084 60.8806 75.707 61.0876 75.7987 61.2973C75.8056 61.3139 75.8126 61.332 75.8195 61.3501C75.9042 61.5459 75.982 61.7431 76.0556 61.9431C76.0764 61.9987 76.0973 62.0556 76.1167 62.1112C76.1945 62.3306 76.2681 62.5514 76.3334 62.7751C76.382 62.9389 76.425 63.1042 76.4667 63.2709C76.4792 63.3195 76.4903 63.3667 76.5014 63.4153C76.532 63.5431 76.5598 63.6709 76.5862 63.8001C76.5959 63.8459 76.6056 63.8903 76.6139 63.9362C76.6445 64.0945 76.6737 64.2542 76.6973 64.4139C77.0362 66.5903 76.8375 68.8876 76.1264 71.1223C75.9528 71.6737 75.7445 72.2209 75.5084 72.7612C75.4598 72.8723 75.4084 72.982 75.3584 73.0917C75.3181 73.1778 75.2778 73.2639 75.2362 73.3501C75.2014 73.4209 75.1667 73.4931 75.132 73.5639C75.0889 73.6501 75.0445 73.7348 75 73.8209C74.9639 73.8917 74.9264 73.9612 74.8889 74.0306C74.8431 74.1167 74.7959 74.2014 74.7473 74.2876C74.7084 74.357 74.6695 74.4251 74.6306 74.4945C74.5806 74.5792 74.5306 74.6653 74.4792 74.7501C74.4417 74.8126 74.4056 74.8737 74.3667 74.9362C74.2334 75.1514 74.0959 75.3653 73.9528 75.5764C73.9251 75.6181 73.8959 75.6598 73.8667 75.7028C73.7195 75.9181 73.5667 76.1306 73.4084 76.3417C73.3889 76.3667 73.3695 76.3917 73.3514 76.4153C73.225 76.5806 73.0959 76.7445 72.9639 76.907C72.9278 76.9514 72.8917 76.9959 72.8542 77.0417C72.7042 77.2223 72.55 77.4028 72.3917 77.5792C72.3667 77.607 72.3417 77.6334 72.3167 77.6612C72.1875 77.8042 72.0556 77.9445 71.9209 78.0848C71.8764 78.132 71.8306 78.1778 71.7848 78.2237C71.6431 78.3681 71.4973 78.5126 71.35 78.6528C71.3292 78.6737 71.3084 78.6945 71.2876 78.7139C71.1987 78.7973 71.1084 78.8792 71.0181 78.9626C70.9695 79.007 70.9209 79.0528 70.8709 79.0973C70.7292 79.2237 70.5862 79.3473 70.4403 79.4709C70.2584 79.6237 70.0778 79.7681 69.8987 79.9084C69.8862 79.9181 69.8737 79.9278 69.8612 79.9376C69.6931 80.0681 69.5264 80.1931 69.3598 80.3153C69.332 80.3362 69.3028 80.357 69.275 80.3778C69.125 80.4862 68.975 80.5917 68.8251 80.6931C68.6153 80.8362 68.4042 80.9751 68.1931 81.1084C67.9848 81.2389 67.7751 81.3639 67.5626 81.4848C67.507 81.5167 67.4514 81.5459 67.3959 81.5778C67.2098 81.682 67.0237 81.7834 66.8362 81.8806C66.7653 81.9167 66.6945 81.9542 66.6237 81.9903C66.4181 82.0945 66.2112 82.1931 66.0028 82.2889C65.9653 82.3056 65.9292 82.3237 65.8917 82.3403C65.8431 82.3626 65.7931 82.3834 65.7445 82.4042C65.6084 82.4639 65.4723 82.5237 65.3348 82.5792C65.2667 82.607 65.1987 82.6334 65.1306 82.6612C65.0112 82.7084 64.8903 82.7556 64.7709 82.8014C64.6987 82.8292 64.625 82.8556 64.5528 82.882C64.4348 82.9251 64.3167 82.9653 64.1987 83.0056C64.1264 83.0306 64.0542 83.0542 63.9806 83.0778C63.8834 83.1098 63.7848 83.1389 63.6875 83.1695C63.5681 83.2056 63.4473 83.2417 63.3278 83.2764C63.2348 83.3028 63.1417 83.3278 63.0473 83.3528C62.9278 83.3848 62.8098 83.4153 62.6903 83.4445C62.5959 83.4681 62.5014 83.4903 62.4084 83.5112C62.2889 83.5389 62.1695 83.5639 62.05 83.5889C61.957 83.6084 61.8625 83.6278 61.7695 83.6445C61.6487 83.6667 61.5278 83.6889 61.407 83.7084C61.3153 83.7237 61.2223 83.7389 61.1306 83.7528C61.007 83.7709 60.8834 83.7876 60.7612 83.8042C60.6723 83.8153 60.582 83.8278 60.4931 83.8389C60.3639 83.8542 60.2362 83.8653 60.1084 83.8764C60.025 83.8834 59.9403 83.8931 59.857 83.8987C59.7153 83.9098 59.575 83.9167 59.4348 83.9237C59.3639 83.9278 59.2945 83.932 59.2237 83.9348C59.0125 83.9431 58.8028 83.9473 58.5931 83.9473C56.2028 83.9473 53.8959 83.4237 51.8723 82.3764C51.2112 82.0348 50.5806 81.6362 49.9875 81.182L53.4903 85.957C54.0834 86.4112 54.7139 86.8084 55.3751 87.1514C57.3973 88.1987 59.7056 88.7223 62.0945 88.7223C62.3042 88.7223 62.5139 88.7181 62.725 88.7098C62.7959 88.707 62.8653 88.7014 62.9362 88.6987C63.0764 88.6917 63.2181 88.6848 63.3584 88.6737C63.4417 88.6667 63.5251 88.6584 63.6084 88.6514C63.7376 88.6403 63.8653 88.6278 63.9945 88.6139C64.0834 88.6042 64.1723 88.5917 64.2612 88.5806C64.3848 88.5639 64.5084 88.5487 64.632 88.5292C64.7237 88.5153 64.8167 88.5001 64.9084 88.4848C65.0292 88.4639 65.1501 88.4431 65.2709 88.4209C65.3639 88.4028 65.4584 88.3848 65.5514 88.3653C65.6709 88.3403 65.7903 88.3153 65.9098 88.2876C66.0042 88.2667 66.0973 88.2445 66.1903 88.2209C66.3098 88.1917 66.4292 88.1612 66.5487 88.1292C66.6417 88.1042 66.7348 88.0792 66.8278 88.0528C66.9487 88.0181 67.0681 87.982 67.1889 87.9459C67.2487 87.9278 67.3098 87.9112 67.3695 87.8931C67.407 87.8806 67.4445 87.8681 67.482 87.8556C67.5542 87.832 67.6264 87.807 67.7001 87.7834C67.8181 87.7431 67.9362 87.7028 68.0542 87.6598C68.1264 87.6334 68.2 87.607 68.2723 87.5792C68.3931 87.5348 68.5125 87.4876 68.632 87.4389C68.7 87.4112 68.7681 87.3848 68.8362 87.357C68.9737 87.3001 69.1098 87.2417 69.2459 87.182C69.2945 87.1598 69.3445 87.1403 69.3931 87.1181C69.4014 87.1139 69.4112 87.1098 69.4195 87.107C69.4473 87.0945 69.4751 87.0792 69.5028 87.0667C69.7112 86.9709 69.9181 86.8723 70.1237 86.7681C70.1945 86.732 70.2653 86.6959 70.3362 86.6584C70.5237 86.5612 70.7112 86.4598 70.8959 86.3556C70.9362 86.3334 70.9764 86.3139 71.0153 86.2903C71.0306 86.282 71.0473 86.2709 71.0625 86.2626C71.2737 86.1417 71.4848 86.0167 71.6931 85.8862C71.9056 85.7528 72.1153 85.6139 72.325 85.4709C72.3445 85.4584 72.3626 85.4459 72.382 85.4334C72.5126 85.3431 72.6445 85.2501 72.775 85.1556C72.8028 85.1348 72.832 85.1139 72.8598 85.0931C73.0264 84.9709 73.1931 84.8459 73.3598 84.7153C73.3723 84.7056 73.3848 84.6959 73.3973 84.6862C73.4862 84.6167 73.5764 84.5459 73.6653 84.4723C73.7556 84.3987 73.8473 84.3237 73.9375 84.2473C74.0834 84.1237 74.2264 84.0001 74.3681 83.8737C74.4181 83.8292 74.4653 83.7848 74.5139 83.7403C74.6042 83.657 74.6959 83.5751 74.7848 83.4903C74.7889 83.4862 74.7945 83.482 74.7987 83.4778C74.8153 83.4626 74.8306 83.4459 74.8459 83.4306C74.9945 83.2889 75.1389 83.1445 75.282 83.0001C75.3278 82.9542 75.3723 82.907 75.4167 82.8612C75.5514 82.7209 75.6834 82.5806 75.8125 82.4376C75.832 82.4167 75.8528 82.3959 75.8709 82.3751C75.8764 82.3695 75.8806 82.3626 75.8862 82.357C76.0445 82.1792 76.1987 82.0001 76.3487 81.8195C76.3862 81.7751 76.4223 81.7306 76.4584 81.6862C76.5903 81.5237 76.7209 81.3598 76.8459 81.1945C76.8598 81.1751 76.8764 81.157 76.8903 81.1376C76.8945 81.132 76.8987 81.1264 76.9028 81.1209C77.0612 80.9098 77.2139 80.6973 77.3612 80.482C77.3903 80.4403 77.4181 80.3987 77.4473 80.357C77.5903 80.1445 77.7292 79.9306 77.8625 79.7153C77.8709 79.7014 77.8806 79.6889 77.8889 79.6751C77.9181 79.6264 77.9459 79.5778 77.975 79.5292C78.0264 79.4445 78.0764 79.3598 78.1264 79.2737C78.1667 79.2042 78.2042 79.1348 78.2431 79.0667C78.2903 78.982 78.3375 78.8973 78.3834 78.8112C78.4209 78.7417 78.4584 78.6709 78.4945 78.6001C78.5389 78.5153 78.5834 78.4292 78.625 78.3431C78.6612 78.2723 78.6959 78.2014 78.7306 78.1292C78.7723 78.0431 78.8125 77.957 78.8528 77.8709C78.8695 77.8334 78.8889 77.7973 78.9056 77.7598C78.9389 77.6862 78.9709 77.6139 79.0028 77.5403C79.2403 77.0001 79.4473 76.4528 79.6209 75.9014C80.3417 73.6639 80.5403 71.3667 80.2014 69.1889Z" fill="#FF9837"/>
<path d="M62.0946 89.0348C59.6335 89.0348 57.2613 88.4792 55.2307 87.4278C54.5488 87.0751 53.9002 86.6639 53.2988 86.2042C53.2752 86.1862 53.2543 86.1653 53.2363 86.1403L49.7335 81.3653C49.6418 81.2403 49.6557 81.0667 49.7668 80.957C49.8779 80.8487 50.0516 80.8376 50.1752 80.932C50.746 81.3695 51.3641 81.7612 52.0141 82.0973C53.9557 83.1028 56.2293 83.6334 58.5904 83.6334C58.7863 83.6334 58.9946 83.6292 59.2085 83.6209C59.2488 83.6195 59.2877 83.6167 59.3279 83.6139L59.4154 83.6084C59.5543 83.6014 59.6918 83.5945 59.8307 83.5834C59.8849 83.5792 59.9391 83.5737 59.9918 83.5695L60.0766 83.5612C60.2057 83.5501 60.3307 83.5376 60.4543 83.5237C60.5196 83.5167 60.5849 83.507 60.6502 83.4987L60.7182 83.4903C60.8391 83.4751 60.9599 83.4584 61.0821 83.4403C61.1627 83.4278 61.2446 83.4139 61.3252 83.4001L61.3529 83.3959C61.471 83.3764 61.5904 83.3556 61.7085 83.3334C61.8002 83.3153 61.8918 83.2973 61.9849 83.2778C62.1016 83.2542 62.2196 83.2278 62.3363 83.2014C62.4293 83.1806 62.521 83.1584 62.6141 83.1362C62.7307 83.107 62.8488 83.0778 62.9654 83.0459C63.0571 83.0209 63.1488 82.9973 63.2404 82.9709C63.3585 82.9376 63.4766 82.9014 63.5946 82.8653L63.6335 82.8528C63.7168 82.8278 63.8002 82.8014 63.8821 82.7751C63.9543 82.7514 64.0252 82.7278 64.096 82.7042C64.2127 82.6653 64.3279 82.6251 64.4446 82.582C64.5154 82.5556 64.5877 82.5306 64.6585 82.5028C64.7766 82.4584 64.8946 82.4126 65.0127 82.3653L65.0668 82.3445C65.1154 82.3251 65.1654 82.3056 65.2141 82.2862C65.3488 82.2306 65.4821 82.1723 65.6168 82.1139L65.6807 82.0862C65.7071 82.0751 65.7349 82.0626 65.7613 82.0514L65.8696 82.0001C66.0696 81.9084 66.2752 81.8098 66.4793 81.707C66.5488 81.6723 66.6196 81.6362 66.6891 81.6001C66.8724 81.5056 67.0571 81.4056 67.2404 81.3028L67.3085 81.2653C67.3404 81.2473 67.3724 81.2306 67.4043 81.2126C67.6321 81.082 67.8349 80.9612 68.0238 80.8417C68.2168 80.7209 68.4196 80.5876 68.646 80.4334C68.7932 80.332 68.9418 80.2292 69.0891 80.1223L69.1724 80.0612C69.3529 79.9292 69.5141 79.807 69.6654 79.6889L69.7029 79.6584C69.8904 79.5112 70.0654 79.3695 70.2349 79.2278C70.3779 79.107 70.5182 78.9848 70.6571 78.8612C70.6863 78.8348 70.7141 78.8084 70.7432 78.782L70.8377 78.6959C70.9141 78.6264 70.9918 78.5556 71.0668 78.4848L71.1293 78.4251C71.2696 78.2903 71.4099 78.1528 71.5585 78.0014C71.6029 77.9556 71.6474 77.9098 71.6918 77.8639C71.8238 77.7264 71.9543 77.5876 72.0807 77.4473L72.1543 77.3681C72.3016 77.2042 72.4502 77.0306 72.6099 76.8389L72.7182 76.707C72.8557 76.5389 72.9807 76.3806 73.0988 76.2237L73.1557 76.1514C73.3002 75.9598 73.4474 75.7542 73.6057 75.5237L73.6904 75.4001C73.8349 75.1876 73.971 74.9751 74.0974 74.7709C74.1293 74.7181 74.1613 74.6653 74.1932 74.6126L74.2071 74.5889C74.2571 74.5056 74.3071 74.4223 74.3557 74.3376C74.3904 74.2778 74.4238 74.2181 74.4571 74.1584L74.471 74.1334C74.5182 74.0501 74.5641 73.9653 74.6099 73.882C74.6474 73.8139 74.6835 73.7445 74.7196 73.6751C74.7627 73.5917 74.8057 73.507 74.8488 73.4237C74.8835 73.3542 74.9182 73.2848 74.9516 73.2139C74.9918 73.1292 75.0321 73.0459 75.071 72.9612L75.0835 72.932C75.1293 72.8334 75.1752 72.7348 75.2182 72.6362C75.4529 72.1001 75.6585 71.5598 75.8252 71.0278C76.521 68.8445 76.7141 66.5751 76.3849 64.4626C76.3627 64.3181 76.3363 64.1653 76.3029 63.9959L76.2752 63.8626C76.2488 63.7362 76.2224 63.6112 76.1918 63.4862L76.1571 63.3445C76.1113 63.1598 76.0696 63.0056 76.0266 62.8626C75.9696 62.6695 75.9029 62.4639 75.8141 62.2139C75.7946 62.1598 75.7752 62.1042 75.7543 62.0501C75.6752 61.8376 75.6002 61.6487 75.5238 61.4723L75.5029 61.4209C75.4224 61.2362 75.3293 61.0389 75.2154 60.8153C75.1877 60.7598 75.1585 60.7042 75.1293 60.6487C75.0599 60.5181 74.9891 60.3889 74.9154 60.2598L74.8863 60.2098C74.8654 60.1737 74.8446 60.1362 74.8224 60.1001C74.7057 59.9042 74.5988 59.7334 74.4946 59.5778C74.3974 59.432 74.296 59.2876 74.1946 59.1487C74.0932 59.0098 74.1224 58.8139 74.2613 58.7126C74.4002 58.6112 74.596 58.6403 74.6974 58.7792L74.6988 58.7806L78.2002 63.5542C78.3071 63.7001 78.4127 63.8514 78.5141 64.0028C78.5154 64.0056 78.5168 64.0084 78.5196 64.0112C78.6293 64.1764 78.7404 64.3542 78.8613 64.5556C78.8849 64.5945 78.9057 64.6334 78.928 64.6709L78.9571 64.7223C79.0349 64.8584 79.1099 64.9945 79.1821 65.132L79.2016 65.1681C79.2141 65.1903 79.2266 65.2126 79.2377 65.2348C79.246 65.2501 79.2529 65.2667 79.2599 65.282L79.271 65.307C79.3891 65.5403 79.4877 65.7487 79.5738 65.9459L79.596 65.9987C79.6779 66.1903 79.7571 66.3889 79.8391 66.6084L79.8502 66.6376C79.8585 66.657 79.8668 66.6764 79.8738 66.6973C79.8807 66.7153 79.8863 66.7348 79.8918 66.7542L79.9016 66.7834C79.9932 67.0403 80.0641 67.257 80.1238 67.4626C80.1682 67.6139 80.2113 67.7751 80.2613 67.9695C80.271 68.007 80.2793 68.0459 80.2891 68.0834L80.2974 68.1167C80.3293 68.2487 80.3585 68.3806 80.3849 68.5126L80.3932 68.5473C80.3974 68.5653 80.4016 68.5834 80.4057 68.6028L80.4141 68.6514C80.4488 68.832 80.4766 68.9917 80.5002 69.1417C80.8432 71.3501 80.6432 73.7181 79.9182 75.9917C79.7446 76.5417 79.5321 77.1042 79.2877 77.6612C79.2557 77.7348 79.2224 77.8098 79.1891 77.8834C79.1779 77.907 79.1682 77.9292 79.1571 77.9514L79.1349 77.9973C79.0946 78.0848 79.0529 78.1723 79.0113 78.2584C78.9766 78.332 78.9404 78.4042 78.9043 78.4764C78.8613 78.5639 78.8168 78.6501 78.771 78.7376C78.7335 78.8098 78.696 78.8806 78.6571 78.9528C78.6099 79.0403 78.5627 79.1264 78.5141 79.2126L78.4932 79.2501C78.4613 79.3084 78.4279 79.3667 78.3946 79.4237C78.3446 79.5112 78.2932 79.5973 78.2404 79.6834L78.2043 79.7431C78.1877 79.7723 78.1696 79.8015 78.1529 79.8306L78.1335 79.8612C77.9946 80.0848 77.8529 80.3042 77.7043 80.5237L77.6168 80.6501C77.4516 80.8903 77.2988 81.1028 77.1502 81.3001L77.0918 81.3764C76.9696 81.5362 76.8377 81.7056 76.6974 81.8764L76.6835 81.8945C76.6516 81.9334 76.6196 81.9737 76.5863 82.0126C76.421 82.2112 76.2682 82.3903 76.1155 82.5598L76.0988 82.5792C76.0877 82.5917 76.0752 82.6056 76.0627 82.6181L76.0391 82.6431C75.9071 82.7876 75.7738 82.9306 75.6377 83.0723C75.5918 83.1195 75.546 83.1667 75.5002 83.2139C75.346 83.3709 75.2002 83.5139 75.0571 83.6514L75.0404 83.6681C75.0293 83.6792 75.0196 83.6889 75.0085 83.7001C75.0071 83.7014 74.9974 83.7098 74.996 83.7112C74.9182 83.7848 74.8391 83.857 74.7599 83.9292L74.6641 84.0181C74.6335 84.0459 74.6029 84.0751 74.571 84.1028C74.4279 84.2306 74.2821 84.357 74.1335 84.482C74.0404 84.5598 73.9488 84.6362 73.8571 84.7098C73.7654 84.7834 73.6752 84.8556 73.5849 84.9264L73.5474 84.957C73.3891 85.0806 73.2224 85.207 73.0391 85.3403L72.9529 85.4042C72.8196 85.5001 72.6863 85.5959 72.5529 85.6876C72.5404 85.6959 72.5279 85.7042 72.5154 85.7126L72.4946 85.7264C72.2627 85.8848 72.0516 86.0223 71.8516 86.1487C71.6529 86.2737 71.4432 86.3987 71.2113 86.532L71.1627 86.5612C71.1391 86.5751 71.1141 86.5876 71.0904 86.6001C71.0738 86.6084 71.0571 86.6167 71.0418 86.6264C70.8516 86.7334 70.6599 86.8362 70.4724 86.9334C70.4002 86.9709 70.3279 87.0084 70.2557 87.0445C70.0432 87.1514 69.8307 87.2528 69.6252 87.3473L69.5932 87.3626C69.5752 87.3709 69.5571 87.3806 69.5391 87.3876L69.5196 87.3959C69.4821 87.4126 69.4516 87.4264 69.421 87.4389L69.3627 87.4639C69.2238 87.5251 69.0849 87.5848 68.946 87.6417C68.8974 87.6626 68.8474 87.682 68.7974 87.7014L68.7391 87.7251C68.6168 87.7737 68.4946 87.8209 68.3724 87.8667C68.2988 87.8945 68.2252 87.9209 68.1516 87.9487C68.0321 87.9917 67.9113 88.0334 67.7918 88.0751C67.7154 88.1001 67.6432 88.1251 67.571 88.1487L67.5238 88.1639C67.5016 88.1723 67.4779 88.1792 67.4557 88.1862C67.4196 88.1973 67.3835 88.2084 67.346 88.2181L67.2724 88.2403C67.1502 88.2778 67.0279 88.3139 66.9057 88.3487C66.8113 88.3751 66.7168 88.4014 66.6224 88.4264C66.5002 88.4584 66.3793 88.4903 66.2571 88.5195C66.1627 88.5431 66.0668 88.5653 65.971 88.5876C65.8488 88.6153 65.7279 88.6417 65.6057 88.6667C65.5099 88.6862 65.4154 88.7056 65.3196 88.7237C65.1974 88.7473 65.0738 88.7681 64.9502 88.7889L64.9182 88.7945C64.8349 88.8084 64.7529 88.8223 64.6696 88.8348C64.5432 88.8542 64.4182 88.8709 64.2918 88.8862L64.2238 88.8945C64.1557 88.9028 64.0877 88.9126 64.021 88.9195C63.8904 88.9348 63.7599 88.9459 63.6293 88.9584L63.546 88.9667C63.4877 88.9723 63.4307 88.9778 63.3724 88.982C63.2279 88.9931 63.0849 89.0001 62.9418 89.007L62.8613 89.0112C62.8168 89.0139 62.7724 89.0167 62.7279 89.0181C62.5154 89.0306 62.2988 89.0348 62.0946 89.0348ZM53.7154 85.7348C54.2766 86.1612 54.8835 86.5431 55.5196 86.8723C57.4613 87.8778 59.7349 88.4084 62.096 88.4084C62.2918 88.4084 62.5002 88.4042 62.7141 88.3959C62.7543 88.3945 62.7946 88.3917 62.8349 88.389L62.921 88.3834C63.0599 88.3764 63.1974 88.3695 63.3363 88.3584C63.3904 88.3542 63.4446 88.3487 63.4988 88.3445L63.5835 88.3362C63.7113 88.3251 63.8363 88.3126 63.9627 88.2987C64.0266 88.2917 64.0904 88.2834 64.1557 88.2751L64.2252 88.2653C64.346 88.2501 64.4682 88.2334 64.5891 88.2153C64.6682 88.2028 64.7488 88.1903 64.8279 88.1764L64.8599 88.1709C64.9793 88.1514 65.0974 88.1306 65.2154 88.1084C65.3071 88.0903 65.3988 88.0723 65.4918 88.0528C65.6099 88.0292 65.7266 88.0028 65.8446 87.9764C65.9363 87.9556 66.0293 87.9334 66.121 87.9112C66.2391 87.882 66.3557 87.8514 66.4738 87.8209C66.5654 87.7959 66.6571 87.7723 66.7474 87.7459C66.8654 87.7126 66.9835 87.6764 67.1016 87.6403L67.1849 87.6153C67.2168 87.6056 67.2474 87.5973 67.2779 87.5876L67.3891 87.5501C67.4585 87.5278 67.5293 87.5042 67.5988 87.4806C67.7182 87.4403 67.8349 87.4001 67.9502 87.3584C68.021 87.332 68.0932 87.307 68.1641 87.2792C68.2821 87.2348 68.4002 87.1889 68.5182 87.1417L68.5779 87.1181C68.6252 87.1001 68.671 87.0806 68.7182 87.0626C68.8529 87.007 68.9877 86.9487 69.121 86.8903L69.1849 86.8626C69.2127 86.8514 69.2391 86.8389 69.2654 86.8278L69.3266 86.8001C69.3432 86.7917 69.3585 86.7848 69.3752 86.7764C69.5738 86.6848 69.7793 86.5862 69.9863 86.4834C70.0571 86.4487 70.1266 86.4126 70.196 86.3764C70.3779 86.282 70.5627 86.182 70.7474 86.0792C70.7682 86.0681 70.7891 86.057 70.8099 86.0459C70.8279 86.0362 70.846 86.0264 70.8641 86.0167L70.9099 85.9889C71.1363 85.8598 71.3391 85.7376 71.5307 85.6181C71.7238 85.4973 71.9279 85.3639 72.1529 85.2098L72.2085 85.1737C72.3377 85.0848 72.4668 84.9931 72.596 84.9001L72.6807 84.8376C72.8585 84.707 73.0196 84.5862 73.1724 84.4653L73.2099 84.4348C73.296 84.3667 73.3849 84.2973 73.4738 84.2251C73.5627 84.1528 73.6529 84.0792 73.7418 84.0042C73.8849 83.8834 74.0252 83.7612 74.1641 83.6376C74.1932 83.6126 74.221 83.5862 74.2474 83.5612L74.3474 83.4695C74.4224 83.4001 74.4988 83.332 74.5724 83.2612C74.5738 83.2598 74.5807 83.2528 74.5835 83.2514L74.6349 83.2014C74.7738 83.0695 74.9141 82.9306 75.0641 82.7778C75.1085 82.732 75.1529 82.6862 75.1974 82.6403C75.3293 82.5028 75.4599 82.3639 75.5863 82.2237L75.6599 82.1431C75.8057 81.9792 75.9557 81.807 76.1155 81.6139C76.1474 81.5764 76.1779 81.5389 76.2085 81.5001L76.2238 81.482C76.3585 81.3167 76.4877 81.1528 76.6057 80.9987L76.6627 80.9251C76.8057 80.7362 76.9529 80.5306 77.1127 80.2987L77.196 80.1764C77.3404 79.9639 77.4766 79.7514 77.6043 79.5459L77.6293 79.507C77.6446 79.482 77.6599 79.4556 77.6752 79.4292L77.7141 79.3639C77.7641 79.2806 77.8141 79.1973 77.8627 79.1139C77.8946 79.0584 77.9266 79.0028 77.9571 78.9459L77.9779 78.9084C78.0238 78.8251 78.071 78.7417 78.1154 78.6584C78.1529 78.5889 78.1891 78.5209 78.2252 78.4514C78.2682 78.3681 78.3113 78.2848 78.3529 78.2001C78.3877 78.1292 78.4224 78.0598 78.4571 77.9889C78.4974 77.9056 78.5377 77.8209 78.5766 77.7362L78.6293 77.6264C78.6613 77.5556 78.6932 77.4848 78.7252 77.4126C78.9613 76.8751 79.1654 76.3348 79.3321 75.8042C80.0279 73.6209 80.221 71.3514 79.8918 69.2389C79.8696 69.0973 79.8432 68.9459 79.8099 68.7737L79.7835 68.6417C79.7571 68.5153 79.7293 68.3903 79.7002 68.2653L79.6918 68.2306C79.6835 68.1959 79.6752 68.1598 79.6668 68.1251C79.6196 67.9389 79.5779 67.7848 79.5363 67.6417C79.4793 67.4459 79.4113 67.2403 79.3238 66.9945C79.3182 66.9764 79.3127 66.9612 79.3071 66.9445C79.3043 66.9348 79.3002 66.9237 79.2974 66.9139C79.2932 66.9028 79.2891 66.8931 79.2849 66.8834C79.2779 66.8667 79.271 66.8487 79.2641 66.832C79.1863 66.6237 79.1113 66.4334 79.0335 66.2542L79.0127 66.2028C78.9321 66.0167 78.8377 65.8181 78.7252 65.5959C78.7182 65.582 78.7099 65.5653 78.7029 65.5501L78.6918 65.5251C78.6849 65.5112 78.6766 65.4959 78.6682 65.482C78.6585 65.4653 78.6488 65.4473 78.6391 65.4292C78.5696 65.2973 78.4988 65.1681 78.4252 65.0389L78.3946 64.9848C78.3752 64.9501 78.3543 64.9139 78.3335 64.8792C78.2168 64.6834 78.1099 64.5112 78.0057 64.357C78.0043 64.3556 78.0029 64.3528 78.0016 64.3501C77.9057 64.207 77.8057 64.0653 77.7057 63.9278L76.5099 62.2973C76.5571 62.4376 76.5974 62.5667 76.6335 62.6903C76.6779 62.8417 76.7224 63.0028 76.771 63.1973L76.8071 63.3445C76.8377 63.4764 76.8668 63.607 76.8946 63.7389L76.9238 63.8778C76.9585 64.0556 76.9863 64.2153 77.0099 64.3681C77.3529 66.5764 77.1516 68.9445 76.428 71.2181C76.2543 71.7695 76.0418 72.332 75.7974 72.8876C75.7529 72.9903 75.7043 73.0931 75.6571 73.1959L75.6446 73.2237C75.6043 73.3112 75.5627 73.3987 75.521 73.4862C75.4863 73.5584 75.4502 73.6306 75.4141 73.7042C75.3696 73.7917 75.3252 73.8792 75.2807 73.9653C75.2432 74.0362 75.2057 74.1084 75.1682 74.1792C75.121 74.2667 75.0724 74.3528 75.0238 74.4403L75.0099 74.4653C74.9752 74.5278 74.9404 74.5889 74.9043 74.6514C74.8543 74.7389 74.8029 74.8251 74.7502 74.9112L74.7363 74.9348C74.7029 74.9903 74.6696 75.0459 74.6363 75.1001C74.5057 75.3126 74.3641 75.532 74.2141 75.7528L74.1266 75.8806C73.9627 76.1195 73.8099 76.332 73.6599 76.5306L73.6016 76.6056C73.4779 76.7681 73.3488 76.932 73.2071 77.1056L73.0946 77.2417C72.9307 77.4403 72.7766 77.6181 72.6238 77.7876L72.5474 77.8695C72.4155 78.0139 72.2821 78.157 72.1446 78.3001C72.0988 78.3473 72.0529 78.3945 72.0071 78.4417C71.8543 78.5973 71.7099 78.7403 71.5641 78.8792L71.5002 78.9417C71.4224 79.0153 71.3432 79.0876 71.2627 79.1612L71.1724 79.2445C71.1404 79.2737 71.1099 79.3028 71.0779 79.3306C70.9349 79.4584 70.7891 79.5848 70.6404 79.7098C70.4641 79.857 70.2849 80.0028 70.0904 80.1542L70.0529 80.1848C69.896 80.307 69.7293 80.4334 69.5446 80.5681L69.4585 80.632C69.3057 80.7431 69.1529 80.8487 69.0016 80.9528C68.7696 81.1112 68.5585 81.2487 68.3585 81.3751C68.1613 81.4987 67.9516 81.6237 67.7182 81.7584C67.6835 81.7778 67.6488 81.7973 67.6127 81.8167L67.5488 81.8528C67.3599 81.9584 67.1682 82.0626 66.9793 82.1598C66.9071 82.1973 66.8349 82.2348 66.7627 82.2709C66.5502 82.3778 66.3391 82.4792 66.1321 82.5737L66.0835 82.5959C66.0627 82.6056 66.0404 82.6167 66.0196 82.6264C65.9891 82.6403 65.9585 82.6528 65.9279 82.6667L65.8682 82.6917C65.7293 82.7528 65.5904 82.8126 65.4516 82.8695C65.4002 82.8903 65.3488 82.9112 65.296 82.932L65.2432 82.9528C65.121 83.0014 65.0002 83.0487 64.8766 83.0945C64.8029 83.1223 64.7293 83.1487 64.6543 83.1764C64.5349 83.2195 64.4141 83.2612 64.2946 83.3014C64.221 83.3264 64.1474 83.3514 64.0738 83.3751C63.9877 83.4028 63.9002 83.4292 63.8141 83.4556L63.7752 83.4667C63.6529 83.5042 63.5307 83.5403 63.4085 83.5751C63.3141 83.6014 63.2182 83.6278 63.1238 83.6528C63.0029 83.6848 62.8821 83.7167 62.7599 83.7459C62.6641 83.7695 62.5682 83.7917 62.4724 83.8139C62.3516 83.8417 62.2293 83.8681 62.1085 83.8931C62.0141 83.9126 61.9182 83.932 61.8224 83.9501C61.6988 83.9737 61.5766 83.9945 61.4529 84.0153L61.4252 84.0195C61.3404 84.0334 61.2557 84.0473 61.171 84.0612C61.0446 84.0806 60.9196 84.0973 60.7946 84.1126L60.7279 84.1209C60.6585 84.1306 60.5904 84.1389 60.5224 84.1473C60.3932 84.1626 60.2641 84.1737 60.1349 84.1862L60.0488 84.1945C59.9904 84.2001 59.9321 84.2056 59.8752 84.2098C59.7321 84.2209 59.5891 84.2278 59.446 84.2348L59.3641 84.2389C59.3196 84.2417 59.2752 84.2445 59.2307 84.2459C59.0085 84.2542 58.7932 84.2584 58.5891 84.2584C56.1279 84.2584 53.7557 83.7028 51.7252 82.6514C51.571 82.5723 51.4196 82.4889 51.2696 82.4042L53.7154 85.7348Z" fill="#FFF8ED"/>
<path d="M120.843 90.0375C121.984 90.0375 122.91 89.1122 122.91 87.9708C122.91 86.8295 121.984 85.9042 120.843 85.9042C119.702 85.9042 118.776 86.8295 118.776 87.9708C118.776 89.1122 119.702 90.0375 120.843 90.0375Z" fill="#FFF8ED"/>
<path d="M33.9348 82.4125C35.0762 82.4125 36.0015 81.4872 36.0015 80.3458C36.0015 79.2045 35.0762 78.2792 33.9348 78.2792C32.7934 78.2792 31.8682 79.2045 31.8682 80.3458C31.8682 81.4872 32.7934 82.4125 33.9348 82.4125Z" fill="#FFF8ED"/>
<path d="M34.9695 84.0834C35.3714 84.0834 35.6973 83.7575 35.6973 83.3556C35.6973 82.9536 35.3714 82.6278 34.9695 82.6278C34.5675 82.6278 34.2417 82.9536 34.2417 83.3556C34.2417 83.7575 34.5675 84.0834 34.9695 84.0834Z" fill="#FFF8ED"/>
<path d="M45.2166 56.4195C46.358 56.4195 47.2832 55.4942 47.2832 54.3528C47.2832 53.2114 46.358 52.2861 45.2166 52.2861C44.0752 52.2861 43.1499 53.2114 43.1499 54.3528C43.1499 55.4942 44.0752 56.4195 45.2166 56.4195Z" fill="#FFF8ED"/>
<path d="M47.6318 53.0084C48.0338 53.0084 48.3596 52.6825 48.3596 52.2806C48.3596 51.8786 48.0338 51.5528 47.6318 51.5528C47.2299 51.5528 46.9041 51.8786 46.9041 52.2806C46.9041 52.6825 47.2299 53.0084 47.6318 53.0084Z" fill="#FFF8ED"/>
<path d="M126.15 45.5361C128.114 45.5361 129.706 43.9442 129.706 41.9805C129.706 40.0169 128.114 38.425 126.15 38.425C124.186 38.425 122.594 40.0169 122.594 41.9805C122.594 43.9442 124.186 45.5361 126.15 45.5361Z" fill="#FFDAA8"/>
<path d="M122.594 40.225C123.529 40.225 124.287 39.467 124.287 38.5319C124.287 37.5969 123.529 36.8389 122.594 36.8389C121.659 36.8389 120.901 37.5969 120.901 38.5319C120.901 39.467 121.659 40.225 122.594 40.225Z" fill="#FFF8ED"/>
</svg>
