<svg width="120" height="120" viewBox="0 0 120 120" fill="none" xmlns="http://www.w3.org/2000/svg">
<path d="M60 98.1578C82.6553 98.1578 101.021 90.953 101.021 82.0655C101.021 73.1781 82.6553 65.9733 60 65.9733C37.3447 65.9733 18.9789 73.1781 18.9789 82.0655C18.9789 90.953 37.3447 98.1578 60 98.1578Z" fill="#F9FAFB"/>
<path d="M97.9089 43.1866L100.383 46.5611L91.0844 73.6422L88.61 70.2678L97.9089 43.1866Z" fill="#D0D5DD"/>
<path d="M91.0844 73.8922C91.0055 73.8922 90.93 73.8544 90.8833 73.79L88.4077 70.4155C88.3589 70.35 88.3466 70.2644 88.3733 70.1866L97.6722 43.1066C97.7022 43.0189 97.7789 42.9544 97.8711 42.9411C97.9633 42.9266 98.0555 42.9655 98.11 43.04L100.586 46.4144C100.634 46.48 100.647 46.5655 100.62 46.6433L91.3211 73.7233C91.2911 73.8111 91.2144 73.8755 91.1222 73.8889C91.11 73.8911 91.0966 73.8922 91.0844 73.8922ZM88.8889 70.2244L91.0044 73.1078L100.106 46.6033L97.99 43.72L88.8889 70.2244Z" fill="#F9FAFB"/>
<path d="M100.28 42.0378L102.756 45.4122L92.879 74.7911L90.2246 71.4167L100.28 42.0378Z" fill="#D0D5DD"/>
<path d="M92.8789 75.0411C92.8034 75.0411 92.73 75.0067 92.6823 74.9456L90.0278 71.5711C89.9756 71.5044 89.96 71.4156 89.9878 71.3356L100.043 41.9567C100.073 41.8689 100.15 41.8044 100.242 41.79C100.334 41.7767 100.427 41.8144 100.481 41.8889L102.957 45.2633C103.004 45.3289 103.018 45.4133 102.992 45.4911L93.1156 74.87C93.0867 74.9567 93.0112 75.0211 92.9212 75.0367C92.9078 75.04 92.8934 75.0411 92.8789 75.0411ZM90.5045 71.3689L92.7889 74.2733L102.477 45.4567L100.361 42.5722L90.5045 71.3689Z" fill="#F9FAFB"/>
<path d="M90.2245 71.4167H38.1612L17.2445 81.92H69.4878L90.2245 71.4167ZM82.2889 73.8567L79.0623 75.4567L75.8323 77.0578L72.0189 78.9467H71.7145L69.0256 80.2789H23.809L26.4978 78.9467H26.1878L29.5634 77.2745L32.6467 75.7467L35.8734 74.1467L39.6867 72.2567H43.1656H46.6423H50.1212H53.5978H57.0767H60.5545H64.0323H67.5101H70.9878H74.4656H77.9434H82.0378H85.5156L82.2889 73.8567Z" fill="#D0D5DD"/>
<path d="M69.4878 82.17H17.2444C17.1289 82.17 17.0278 82.09 17.0011 81.9778C16.9744 81.8656 17.0289 81.7489 17.1322 81.6967L38.0478 71.1934C38.0822 71.1756 38.1211 71.1667 38.16 71.1667H90.2233C90.3389 71.1667 90.44 71.2456 90.4667 71.3589C90.4933 71.4711 90.44 71.5878 90.3367 71.64L69.6011 82.1434C69.5656 82.1611 69.5267 82.17 69.4878 82.17ZM18.3 81.67H69.4289L89.1767 71.6667H38.22L18.3 81.67ZM69.0256 80.5289H23.8089C23.6922 80.5289 23.5922 80.4489 23.5656 80.3356C23.5389 80.2222 23.5944 80.1067 23.6978 80.0545L25.9378 78.9445C25.9389 78.8522 25.9911 78.7645 26.0767 78.7222L39.5756 72.0311C39.61 72.0145 39.6478 72.0056 39.6867 72.0056H85.5178C85.6333 72.0056 85.7344 72.0856 85.7611 72.1989C85.7878 72.3122 85.7322 72.4278 85.6289 72.48L72.13 79.1711C72.0956 79.1878 72.0578 79.1967 72.0189 79.1967H71.7722L69.1356 80.5034C69.1022 80.52 69.0644 80.5289 69.0256 80.5289ZM24.8767 80.0289H68.9678L71.6044 78.7222C71.6389 78.7056 71.6767 78.6967 71.7156 78.6967H71.9622L84.4522 72.5056H39.7456L26.7478 78.9478C26.7467 79.04 26.6944 79.1278 26.6089 79.17L24.8767 80.0289Z" fill="#F9FAFB"/>
<path d="M69.488 81.92H17.2446V85.9H69.488V81.92Z" fill="#D0D5DD"/>
<path d="M69.4878 86.15H17.2445C17.1067 86.15 16.9945 86.0378 16.9945 85.9V81.92C16.9945 81.7822 17.1067 81.67 17.2445 81.67H69.4878C69.6256 81.67 69.7378 81.7822 69.7378 81.92V85.9C69.7378 86.0378 69.6256 86.15 69.4878 86.15ZM17.4945 85.65H69.2378V82.17H17.4945V85.65Z" fill="#F9FAFB"/>
<path d="M82.0399 72.2556H77.9466H74.4677H70.9899H67.5122H64.0344H60.5566H57.0777H53.5988H50.1222H46.6433H43.1666H39.6866L35.8744 74.1456L32.6477 75.7456L29.5644 77.2734L26.1877 78.9456L23.5377 80.279H69.2355L72.0188 78.9456L75.8311 77.0567L79.0599 75.4556L82.2866 73.8567L85.5177 72.2556H82.0399Z" fill="#D0D5DD"/>
<path d="M69.2356 80.5289H23.5378C23.4222 80.5289 23.3211 80.4489 23.2944 80.3367C23.2678 80.2245 23.3222 80.1078 23.4256 80.0556L26.0756 78.7234L39.5756 72.0323C39.61 72.0156 39.6478 72.0067 39.6867 72.0067H85.5178C85.6344 72.0067 85.7344 72.0867 85.7611 72.2C85.7878 72.3134 85.7322 72.4289 85.6289 72.4812L72.13 79.1723L69.3422 80.5067C69.3089 80.52 69.2722 80.5289 69.2356 80.5289ZM24.5922 80.0289H69.1778L71.9111 78.7212L84.45 72.5056H39.7444L26.2978 79.1701L24.5922 80.0289Z" fill="#F9FAFB"/>
<path d="M78.4622 75.6L75.2311 77.2011H71.7533L74.9833 75.6H78.4622Z" fill="#D0D5DD"/>
<path d="M75.2311 77.4234H71.7533C71.65 77.4234 71.56 77.3523 71.5367 77.2523C71.5133 77.1523 71.5622 77.0478 71.6544 77.0023L74.8844 75.4011C74.9156 75.3856 74.9489 75.3778 74.9833 75.3778H78.4622C78.5655 75.3778 78.6556 75.4489 78.6789 75.5489C78.7022 75.6489 78.6533 75.7534 78.5611 75.7989L75.33 77.4C75.2989 77.4156 75.2656 77.4234 75.2311 77.4234ZM72.7022 76.9789H75.18L77.5144 75.8223H75.0356L72.7022 76.9789Z" fill="#F9FAFB"/>
<path d="M53.6145 72.4L50.3856 74.0011H46.9089L50.1378 72.4H53.6145Z" fill="#D0D5DD"/>
<path d="M50.3856 74.2234H46.909C46.8056 74.2234 46.7156 74.1522 46.6923 74.0522C46.669 73.9522 46.7179 73.8478 46.8101 73.8022L50.0401 72.2011C50.0712 72.1856 50.1045 72.1778 50.139 72.1778H53.6156C53.719 72.1778 53.809 72.2489 53.8323 72.3489C53.8556 72.4489 53.8067 72.5534 53.7145 72.5989L50.4845 74.2C50.4534 74.2156 50.4201 74.2234 50.3856 74.2234ZM47.8579 73.7789H50.3334L52.6667 72.6222H50.1912L47.8579 73.7789Z" fill="#F9FAFB"/>
<path d="M74.4845 72.4L71.2545 74.0011H67.7767L71.0067 72.4H74.4845Z" fill="#D0D5DD"/>
<path d="M71.2545 74.2234H67.7768C67.6734 74.2234 67.5834 74.1522 67.5601 74.0522C67.5368 73.9522 67.5857 73.8478 67.6779 73.8022L70.9079 72.2011C70.939 72.1856 70.9723 72.1778 71.0068 72.1778H74.4845C74.5879 72.1778 74.6779 72.2489 74.7012 72.3489C74.7245 72.4489 74.6757 72.5534 74.5834 72.5989L71.3534 74.2C71.3234 74.2156 71.289 74.2234 71.2545 74.2234ZM68.7257 73.7789H71.2034L73.5368 72.6222H71.059L68.7257 73.7789Z" fill="#F9FAFB"/>
<path d="M57.8412 77.2012L54.6145 78.8012H40.7012L43.9289 77.2012H47.4056H50.8856H54.3634H57.8412Z" fill="#D0D5DD"/>
<path d="M54.6144 79.0234H40.7011C40.5978 79.0234 40.5078 78.9523 40.4844 78.8523C40.4611 78.7523 40.51 78.6478 40.6022 78.6023L43.83 77.0023C43.8611 76.9867 43.8944 76.9789 43.9289 76.9789H57.8411C57.9444 76.9789 58.0344 77.0501 58.0578 77.1501C58.0811 77.2501 58.0322 77.3545 57.94 77.4001L54.7133 79.0001C54.6822 79.0156 54.6489 79.0234 54.6144 79.0234ZM41.65 78.5789H54.5622L56.8922 77.4234H43.9811L41.65 78.5789Z" fill="#F9FAFB"/>
<path d="M33.4934 77.2012L30.2678 78.8012H26.7889L30.0167 77.2012H33.4934Z" fill="#D0D5DD"/>
<path d="M30.2679 79.0234H26.7901C26.6867 79.0234 26.5967 78.9523 26.5734 78.8523C26.5501 78.7523 26.599 78.6478 26.6912 78.6023L29.919 77.0023C29.9501 76.9867 29.9834 76.9789 30.0179 76.9789H33.4945C33.5979 76.9789 33.6879 77.0501 33.7112 77.1501C33.7345 77.2501 33.6856 77.3545 33.5934 77.4001L30.3656 79.0001C30.3356 79.0156 30.3012 79.0234 30.2679 79.0234ZM27.7379 78.5789H30.2145L32.5445 77.4234H30.069L27.7379 78.5789Z" fill="#F9FAFB"/>
<path d="M36.7234 75.6L33.4934 77.2011H30.0167L33.2467 75.6H36.7234Z" fill="#D0D5DD"/>
<path d="M33.4934 77.4234H30.0168C29.9134 77.4234 29.8234 77.3523 29.8001 77.2523C29.7768 77.1523 29.8256 77.0478 29.9179 77.0023L33.1479 75.4011C33.179 75.3856 33.2123 75.3778 33.2468 75.3778H36.7234C36.8268 75.3778 36.9168 75.4489 36.9401 75.5489C36.9634 75.6489 36.9145 75.7534 36.8223 75.7989L33.5923 77.4C33.5623 77.4156 33.5279 77.4234 33.4934 77.4234ZM30.9656 76.9789H33.4412L35.7745 75.8223H33.299L30.9656 76.9789Z" fill="#F9FAFB"/>
<path d="M36.9734 77.2012L33.7456 78.8012H30.2678L33.4934 77.2012H36.9734Z" fill="#D0D5DD"/>
<path d="M33.7456 79.0234H30.2679C30.1645 79.0234 30.0745 78.9523 30.0512 78.8523C30.0279 78.7523 30.0767 78.6478 30.169 78.6023L33.3956 77.0023C33.4267 76.9867 33.4601 76.9789 33.4945 76.9789H36.9734C37.0767 76.9789 37.1667 77.0501 37.1901 77.1501C37.2134 77.2501 37.1645 77.3545 37.0723 77.4001L33.8445 79.0001C33.8134 79.0156 33.7801 79.0234 33.7456 79.0234ZM31.2156 78.5789H33.6934L36.0245 77.4234H33.5456L31.2156 78.5789Z" fill="#F9FAFB"/>
<path d="M40.2023 75.6L36.9734 77.2011H33.4934L36.7234 75.6H40.2023Z" fill="#D0D5DD"/>
<path d="M36.9733 77.4234H33.4944C33.3911 77.4234 33.3011 77.3523 33.2778 77.2523C33.2544 77.1523 33.3033 77.0478 33.3955 77.0023L36.6255 75.4011C36.6566 75.3856 36.69 75.3778 36.7244 75.3778H40.2033C40.3066 75.3778 40.3966 75.4489 40.42 75.5489C40.4433 75.6489 40.3944 75.7534 40.3022 75.7989L37.0722 77.4C37.0411 77.4156 37.0078 77.4234 36.9733 77.4234ZM34.4422 76.9789H36.9211L39.2544 75.8223H36.7755L34.4422 76.9789Z" fill="#F9FAFB"/>
<path d="M43.4289 74.0012L40.2023 75.6H36.7234H33.2467L36.4734 74.0012H39.9523H43.4289Z" fill="#D0D5DD"/>
<path d="M40.2023 75.8223H33.2467C33.1434 75.8223 33.0534 75.7512 33.0301 75.6512C33.0067 75.5512 33.0556 75.4467 33.1479 75.4012L36.3745 73.8012C36.4056 73.7856 36.439 73.7778 36.4734 73.7778H43.429C43.5323 73.7778 43.6223 73.8489 43.6456 73.9489C43.669 74.0489 43.6201 74.1534 43.5279 74.1989L40.3012 75.7989C40.2712 75.8145 40.2367 75.8223 40.2023 75.8223ZM34.1956 75.3778H40.1512L42.4812 74.2223H36.5256L34.1956 75.3778Z" fill="#F9FAFB"/>
<path d="M43.6789 75.6L40.4501 77.2011H36.9734L40.2023 75.6H43.6789Z" fill="#D0D5DD"/>
<path d="M40.45 77.4234H36.9733C36.87 77.4234 36.78 77.3523 36.7566 77.2523C36.7333 77.1523 36.7822 77.0478 36.8744 77.0023L40.1044 75.4011C40.1355 75.3856 40.1689 75.3778 40.2033 75.3778H43.68C43.7833 75.3778 43.8733 75.4489 43.8966 75.5489C43.92 75.6489 43.8711 75.7534 43.7789 75.7989L40.5489 77.4C40.5177 77.4156 40.4844 77.4234 40.45 77.4234ZM37.9222 76.9789H40.3977L42.7311 75.8223H40.2555L37.9222 76.9789Z" fill="#F9FAFB"/>
<path d="M46.9089 74.0012L43.6789 75.6H40.2023L43.4289 74.0012H46.9089Z" fill="#D0D5DD"/>
<path d="M43.6788 75.8223H40.2022C40.0989 75.8223 40.0089 75.7512 39.9855 75.6512C39.9622 75.5512 40.0111 75.4467 40.1033 75.4012L43.33 73.8012C43.3611 73.7856 43.3944 73.7778 43.4289 73.7778H46.9077C47.0111 73.7778 47.1011 73.8489 47.1244 73.9489C47.1477 74.0489 47.0989 74.1534 47.0066 74.1989L43.7777 75.8001C43.7477 75.8145 43.7133 75.8223 43.6788 75.8223ZM41.1511 75.3778H43.6277L45.96 74.2223H43.4822L41.1511 75.3778Z" fill="#F9FAFB"/>
<path d="M50.1378 72.4L46.909 74.0011H43.429L46.659 72.4H50.1378Z" fill="#D0D5DD"/>
<path d="M46.9089 74.2234H43.43C43.3266 74.2234 43.2366 74.1522 43.2133 74.0522C43.19 73.9522 43.2389 73.8478 43.3311 73.8022L46.5611 72.2011C46.5922 72.1856 46.6255 72.1778 46.66 72.1778H50.1389C50.2422 72.1778 50.3322 72.2489 50.3555 72.3489C50.3789 72.4489 50.33 72.5534 50.2377 72.5989L47.0077 74.2C46.9766 74.2156 46.9433 74.2234 46.9089 74.2234ZM44.3777 73.7789H46.8566L49.19 72.6222H46.7111L44.3777 73.7789Z" fill="#F9FAFB"/>
<path d="M43.9289 77.2012L40.7012 78.8012H37.2234L40.4501 77.2012H43.9289Z" fill="#D0D5DD"/>
<path d="M40.7012 79.0234H37.2234C37.1201 79.0234 37.0301 78.9523 37.0068 78.8523C36.9834 78.7523 37.0323 78.6478 37.1245 78.6023L40.3512 77.0023C40.3823 76.9867 40.4156 76.9789 40.4501 76.9789H43.929C44.0323 76.9789 44.1223 77.0501 44.1456 77.1501C44.169 77.2501 44.1201 77.3545 44.0279 77.4001L40.8001 79.0001C40.769 79.0156 40.7356 79.0234 40.7012 79.0234ZM38.1723 78.5789H40.6501L42.9812 77.4234H40.5023L38.1723 78.5789Z" fill="#F9FAFB"/>
<path d="M47.1588 75.6L43.9288 77.2011H40.45L43.6788 75.6H47.1588Z" fill="#D0D5DD"/>
<path d="M43.9289 77.4234H40.45C40.3467 77.4234 40.2567 77.3523 40.2333 77.2523C40.21 77.1523 40.2589 77.0478 40.3511 77.0023L43.5811 75.4011C43.6122 75.3856 43.6455 75.3778 43.68 75.3778H47.1589C47.2622 75.3778 47.3522 75.4489 47.3755 75.5489C47.3989 75.6489 47.35 75.7534 47.2578 75.7989L44.0278 77.4C43.9978 77.4156 43.9633 77.4234 43.9289 77.4234ZM41.3989 76.9789H43.8778L46.2111 75.8223H43.7322L41.3989 76.9789Z" fill="#F9FAFB"/>
<path d="M50.3856 74.0012L47.159 75.6H43.679L46.909 74.0012H50.3856Z" fill="#D0D5DD"/>
<path d="M47.159 75.8223H43.6801C43.5768 75.8223 43.4868 75.7512 43.4634 75.6512C43.4401 75.5512 43.489 75.4467 43.5812 75.4012L46.8101 73.8012C46.8412 73.7856 46.8745 73.7778 46.909 73.7778H50.3856C50.489 73.7778 50.579 73.8489 50.6023 73.9489C50.6256 74.0489 50.5768 74.1534 50.4845 74.1989L47.2579 75.7989C47.2268 75.8145 47.1934 75.8223 47.159 75.8223ZM44.629 75.3778H47.1068L49.4368 74.2223H46.9612L44.629 75.3778Z" fill="#F9FAFB"/>
<path d="M50.6356 75.6L47.4056 77.2011H43.929L47.159 75.6H50.6356Z" fill="#D0D5DD"/>
<path d="M47.4055 77.4234H43.9289C43.8255 77.4234 43.7355 77.3523 43.7122 77.2523C43.6889 77.1523 43.7378 77.0478 43.83 77.0023L47.06 75.4011C47.0911 75.3856 47.1244 75.3778 47.1589 75.3778H50.6355C50.7389 75.3778 50.8289 75.4489 50.8522 75.5489C50.8755 75.6489 50.8266 75.7534 50.7344 75.7989L47.5044 77.4C47.4744 77.4156 47.44 77.4234 47.4055 77.4234ZM44.8778 76.9789H47.3533L49.6866 75.8223H47.2111L44.8778 76.9789Z" fill="#F9FAFB"/>
<path d="M53.8645 74.0012L50.6356 75.6H47.1589L50.3856 74.0012H53.8645Z" fill="#D0D5DD"/>
<path d="M50.6355 75.8223H47.1588C47.0555 75.8223 46.9655 75.7512 46.9422 75.6512C46.9188 75.5512 46.9677 75.4467 47.06 75.4012L50.2866 73.8012C50.3177 73.7856 50.3511 73.7778 50.3855 73.7778H53.8644C53.9677 73.7778 54.0577 73.8489 54.0811 73.9489C54.1044 74.0489 54.0555 74.1534 53.9633 74.1989L50.7344 75.7989C50.7033 75.8145 50.67 75.8223 50.6355 75.8223ZM48.1077 75.3778H50.5844L52.9166 74.2223H50.4388L48.1077 75.3778Z" fill="#F9FAFB"/>
<path d="M54.1145 75.6L50.8856 77.2011H47.4056L50.6356 75.6H54.1145Z" fill="#D0D5DD"/>
<path d="M50.8857 77.4234H47.4068C47.3034 77.4234 47.2134 77.3523 47.1901 77.2523C47.1668 77.1523 47.2157 77.0478 47.3079 77.0023L50.5379 75.4011C50.569 75.3856 50.6023 75.3778 50.6368 75.3778H54.1157C54.219 75.3778 54.309 75.4489 54.3323 75.5489C54.3557 75.6489 54.3068 75.7534 54.2146 75.7989L50.9846 77.4C50.9534 77.4156 50.9201 77.4234 50.8857 77.4234ZM48.3546 76.9789H50.8334L53.1668 75.8223H50.6879L48.3546 76.9789Z" fill="#F9FAFB"/>
<path d="M57.3423 74.0012L54.1145 75.6H50.6356L53.8645 74.0012H57.3423Z" fill="#D0D5DD"/>
<path d="M54.1145 75.8223H50.6357C50.5323 75.8223 50.4423 75.7512 50.419 75.6512C50.3957 75.5512 50.4445 75.4467 50.5368 75.4012L53.7657 73.8012C53.7968 73.7856 53.8301 73.7778 53.8645 73.7778H57.3423C57.4457 73.7778 57.5357 73.8489 57.559 73.9489C57.5823 74.0489 57.5334 74.1534 57.4412 74.1989L54.2134 75.7989C54.1834 75.8145 54.149 75.8223 54.1145 75.8223ZM51.5845 75.3778H54.0623L56.3934 74.2223H53.9168L51.5845 75.3778Z" fill="#F9FAFB"/>
<path d="M57.5945 75.6L54.3634 77.2011H50.8856L54.1145 75.6H57.5945Z" fill="#D0D5DD"/>
<path d="M54.3633 77.4234H50.8855C50.7822 77.4234 50.6922 77.3523 50.6689 77.2523C50.6455 77.1523 50.6944 77.0478 50.7866 77.0023L54.0166 75.4011C54.0478 75.3856 54.0811 75.3778 54.1155 75.3778H57.5944C57.6978 75.3778 57.7878 75.4489 57.8111 75.5489C57.8344 75.6489 57.7855 75.7534 57.6933 75.7989L54.4622 77.4C54.4311 77.4156 54.3978 77.4234 54.3633 77.4234ZM51.8333 76.9789H54.3111L56.6455 75.8223H54.1666L51.8333 76.9789Z" fill="#F9FAFB"/>
<path d="M60.8212 74.0012L57.5945 75.6H54.1145L57.3423 74.0012H60.8212Z" fill="#D0D5DD"/>
<path d="M57.5944 75.8223H54.1155C54.0122 75.8223 53.9222 75.7512 53.8988 75.6512C53.8755 75.5512 53.9244 75.4467 54.0166 75.4012L57.2444 73.8012C57.2755 73.7856 57.3089 73.7778 57.3433 73.7778H60.8211C60.9244 73.7778 61.0144 73.8489 61.0377 73.9489C61.0611 74.0489 61.0122 74.1534 60.92 74.1989L57.6933 75.7989C57.6622 75.8145 57.6288 75.8223 57.5944 75.8223ZM55.0633 75.3778H57.5422L59.8722 74.2223H57.3944L55.0633 75.3778Z" fill="#F9FAFB"/>
<path d="M64.0501 72.4L60.8212 74.0011H57.3423L60.5723 72.4H64.0501Z" fill="#D0D5DD"/>
<path d="M60.8211 74.2234H57.3433C57.24 74.2234 57.15 74.1522 57.1266 74.0522C57.1033 73.9522 57.1522 73.8478 57.2444 73.8022L60.4744 72.2011C60.5055 72.1856 60.5389 72.1778 60.5733 72.1778H64.0511C64.1544 72.1778 64.2444 72.2489 64.2677 72.3489C64.2911 72.4489 64.2422 72.5534 64.15 72.5989L60.92 74.2C60.8889 74.2156 60.8555 74.2234 60.8211 74.2234ZM58.2911 73.7789H60.7689L63.1022 72.6222H60.6244L58.2911 73.7789Z" fill="#F9FAFB"/>
<path d="M61.0712 75.6L57.8412 77.2011H54.3634L57.5945 75.6H61.0712Z" fill="#D0D5DD"/>
<path d="M57.8412 77.4234H54.3634C54.2601 77.4234 54.1701 77.3523 54.1468 77.2523C54.1234 77.1523 54.1723 77.0478 54.2646 77.0023L57.4957 75.4011C57.5268 75.3856 57.5601 75.3778 57.5945 75.3778H61.0712C61.1746 75.3778 61.2646 75.4489 61.2879 75.5489C61.3112 75.6489 61.2623 75.7534 61.1701 75.7989L57.9401 77.4C57.909 77.4156 57.8757 77.4234 57.8412 77.4234ZM55.3123 76.9789H57.789L60.1223 75.8223H57.6468L55.3123 76.9789Z" fill="#F9FAFB"/>
<path d="M64.2989 74.0012L61.0712 75.6H57.5945L60.8212 74.0012H64.2989Z" fill="#D0D5DD"/>
<path d="M61.0712 75.8223H57.5945C57.4912 75.8223 57.4012 75.7512 57.3779 75.6512C57.3545 75.5512 57.4034 75.4467 57.4956 75.4012L60.7223 73.8012C60.7534 73.7856 60.7867 73.7778 60.8212 73.7778H64.299C64.4023 73.7778 64.4923 73.8489 64.5156 73.9489C64.539 74.0489 64.4901 74.1534 64.3979 74.1989L61.1701 75.7989C61.139 75.8145 61.1056 75.8223 61.0712 75.8223ZM58.5423 75.3778H61.0178L63.349 74.2223H60.8723L58.5423 75.3778Z" fill="#F9FAFB"/>
<path d="M67.5278 72.4L64.2989 74.0011H60.8212L64.0501 72.4H67.5278Z" fill="#D0D5DD"/>
<path d="M64.299 74.2234H60.8212C60.7179 74.2234 60.6279 74.1522 60.6045 74.0522C60.5812 73.9522 60.6301 73.8478 60.7223 73.8022L63.9523 72.2011C63.9834 72.1856 64.0168 72.1778 64.0512 72.1778H67.529C67.6323 72.1778 67.7223 72.2489 67.7456 72.3489C67.769 72.4489 67.7201 72.5534 67.6279 72.5989L64.3979 74.2C64.3668 74.2156 64.3334 74.2234 64.299 74.2234ZM61.769 73.7789H64.2468L66.5801 72.6222H64.1023L61.769 73.7789Z" fill="#F9FAFB"/>
<path d="M61.3189 77.2012L58.0912 78.8012H54.6145L57.8412 77.2012H61.3189Z" fill="#D0D5DD"/>
<path d="M58.0911 79.0234H54.6144C54.5111 79.0234 54.4211 78.9523 54.3977 78.8523C54.3744 78.7523 54.4233 78.6478 54.5155 78.6023L57.7422 77.0023C57.7733 76.9867 57.8066 76.9789 57.8411 76.9789H61.3189C61.4222 76.9789 61.5122 77.0501 61.5355 77.1501C61.5589 77.2501 61.51 77.3545 61.4178 77.4001L58.19 79.0001C58.1589 79.0156 58.1255 79.0234 58.0911 79.0234ZM55.5633 78.5789H58.0389L60.37 77.4234H57.8933L55.5633 78.5789Z" fill="#F9FAFB"/>
<path d="M64.5501 75.6L61.319 77.2011H57.8412L61.0712 75.6H64.5501Z" fill="#D0D5DD"/>
<path d="M61.3189 77.4234H57.8411C57.7378 77.4234 57.6478 77.3523 57.6244 77.2523C57.6011 77.1523 57.65 77.0478 57.7422 77.0023L60.9722 75.4011C61.0033 75.3856 61.0367 75.3778 61.0711 75.3778H64.55C64.6533 75.3778 64.7433 75.4489 64.7667 75.5489C64.79 75.6489 64.7411 75.7534 64.6489 75.7989L61.4178 77.4C61.3878 77.4156 61.3533 77.4234 61.3189 77.4234ZM58.79 76.9789H61.2678L63.6022 75.8223H61.1233L58.79 76.9789Z" fill="#F9FAFB"/>
<path d="M67.7767 74.0012L64.5501 75.6H61.0712L64.2989 74.0012H67.7767Z" fill="#D0D5DD"/>
<path d="M64.55 75.8223H61.0711C60.9677 75.8223 60.8777 75.7512 60.8544 75.6512C60.8311 75.5512 60.88 75.4467 60.9722 75.4012L64.2 73.8012C64.2311 73.7856 64.2644 73.7778 64.2989 73.7778H67.7766C67.88 73.7778 67.97 73.8489 67.9933 73.9489C68.0166 74.0489 67.9678 74.1534 67.8755 74.1989L64.6489 75.7989C64.6178 75.8145 64.5844 75.8223 64.55 75.8223ZM62.02 75.3778H64.4989L66.8289 74.2223H64.3511L62.02 75.3778Z" fill="#F9FAFB"/>
<path d="M71.0067 72.4L67.7767 74.0011H64.299L67.5278 72.4H71.0067Z" fill="#D0D5DD"/>
<path d="M67.7766 74.2234H64.2989C64.1955 74.2234 64.1055 74.1522 64.0822 74.0522C64.0589 73.9522 64.1078 73.8478 64.2 73.8022L67.43 72.2011C67.4611 72.1856 67.4944 72.1778 67.5289 72.1778H71.0066C71.11 72.1778 71.2 72.2489 71.2233 72.3489C71.2466 72.4489 71.1978 72.5534 71.1055 72.5989L67.8755 74.2C67.8444 74.2156 67.8111 74.2234 67.7766 74.2234ZM65.2478 73.7789H67.7255L70.0589 72.6222H67.5811L65.2478 73.7789Z" fill="#F9FAFB"/>
<path d="M64.7979 77.2012L61.5712 78.8012H58.0912L61.319 77.2012H64.7979Z" fill="#D0D5DD"/>
<path d="M61.5712 79.0234H58.0923C57.989 79.0234 57.899 78.9523 57.8757 78.8523C57.8523 78.7523 57.9012 78.6478 57.9934 78.6023L61.2212 77.0023C61.2523 76.9867 61.2857 76.9789 61.3201 76.9789H64.7979C64.9012 76.9789 64.9912 77.0501 65.0145 77.1501C65.0379 77.2501 64.989 77.3545 64.8968 77.4001L61.669 79.0001C61.639 79.0156 61.6045 79.0234 61.5712 79.0234ZM59.0401 78.5789H61.519L63.849 77.4234H61.3712L59.0401 78.5789Z" fill="#F9FAFB"/>
<path d="M68.0267 75.6L64.7979 77.2011H61.319L64.5501 75.6H68.0267Z" fill="#D0D5DD"/>
<path d="M64.7979 77.4234H61.3201C61.2168 77.4234 61.1268 77.3523 61.1034 77.2523C61.0801 77.1523 61.129 77.0478 61.2212 77.0023L64.4523 75.4011C64.4834 75.3856 64.5168 75.3778 64.5512 75.3778H68.0279C68.1312 75.3778 68.2212 75.4489 68.2446 75.5489C68.2679 75.6489 68.219 75.7534 68.1268 75.7989L64.8968 77.4C64.8657 77.4156 64.8312 77.4234 64.7979 77.4234ZM62.2679 76.9789H64.7446L67.0779 75.8223H64.6023L62.2679 76.9789Z" fill="#F9FAFB"/>
<path d="M68.2756 77.2012L65.0478 78.8012H61.5712L64.7978 77.2012H68.2756Z" fill="#D0D5DD"/>
<path d="M65.0477 79.0234H61.5711C61.4677 79.0234 61.3777 78.9523 61.3544 78.8523C61.3311 78.7523 61.38 78.6478 61.4722 78.6023L64.6989 77.0023C64.73 76.9867 64.7633 76.9789 64.7977 76.9789H68.2755C68.3789 76.9789 68.4689 77.0501 68.4922 77.1501C68.5155 77.2501 68.4666 77.3545 68.3744 77.4001L65.1455 79.0001C65.1155 79.0156 65.0811 79.0234 65.0477 79.0234ZM62.5189 78.5789H64.9944L67.3255 77.4234H64.8489L62.5189 78.5789Z" fill="#F9FAFB"/>
<path d="M71.5067 75.6L68.2756 77.2011H64.7979L68.0267 75.6H71.5067Z" fill="#D0D5DD"/>
<path d="M68.2755 77.4234H64.7978C64.6944 77.4234 64.6044 77.3523 64.5811 77.2523C64.5578 77.1523 64.6067 77.0478 64.6989 77.0023L67.9289 75.4011C67.96 75.3856 67.9933 75.3778 68.0278 75.3778H71.5067C71.61 75.3778 71.7 75.4489 71.7233 75.5489C71.7467 75.6489 71.6978 75.7534 71.6055 75.7989L68.3744 77.4C68.3433 77.4156 68.31 77.4234 68.2755 77.4234ZM65.7455 76.9789H68.2233L70.5578 75.8223H68.0789L65.7455 76.9789Z" fill="#F9FAFB"/>
<path d="M77.9623 72.4L74.7334 74.0011H71.2545L74.4845 72.4H77.9623Z" fill="#D0D5DD"/>
<path d="M74.7333 74.2234H71.2555C71.1522 74.2234 71.0622 74.1522 71.0389 74.0522C71.0155 73.9522 71.0644 73.8478 71.1566 73.8022L74.3866 72.2011C74.4178 72.1856 74.4511 72.1778 74.4855 72.1778H77.9633C78.0666 72.1778 78.1566 72.2489 78.18 72.3489C78.2033 72.4489 78.1544 72.5534 78.0622 72.5989L74.8322 74.2C74.8011 74.2156 74.7666 74.2234 74.7333 74.2234ZM72.2033 73.7789H74.6811L77.0144 72.6222H74.5366L72.2033 73.7789Z" fill="#F9FAFB"/>
<path d="M71.7534 77.2012L68.5267 78.8012H65.0479L68.2756 77.2012H71.7534Z" fill="#D0D5DD"/>
<path d="M68.5268 79.0234H65.0479C64.9446 79.0234 64.8546 78.9523 64.8312 78.8523C64.8079 78.7523 64.8568 78.6478 64.949 78.6023L68.1768 77.0023C68.2079 76.9867 68.2412 76.9789 68.2757 76.9789H71.7535C71.8568 76.9789 71.9468 77.0501 71.9701 77.1501C71.9934 77.2501 71.9446 77.3545 71.8523 77.4001L68.6257 79.0001C68.5946 79.0156 68.5612 79.0234 68.5268 79.0234ZM65.9968 78.5789H68.4757L70.8057 77.4234H68.3279L65.9968 78.5789Z" fill="#F9FAFB"/>
<path d="M74.9834 75.6L71.7534 77.2011H68.2756L71.5067 75.6H74.9834Z" fill="#D0D5DD"/>
<path d="M71.7534 77.4234H68.2757C68.1723 77.4234 68.0823 77.3523 68.059 77.2523C68.0357 77.1523 68.0846 77.0478 68.1768 77.0023L71.4079 75.4011C71.439 75.3856 71.4723 75.3778 71.5068 75.3778H74.9834C75.0868 75.3778 75.1768 75.4489 75.2001 75.5489C75.2234 75.6489 75.1746 75.7534 75.0823 75.7989L71.8523 77.4C71.8212 77.4156 71.7879 77.4234 71.7534 77.4234ZM69.2246 76.9789H71.7012L74.0346 75.8223H71.559L69.2246 76.9789Z" fill="#F9FAFB"/>
<path d="M78.2112 74.0012L74.9834 75.6H71.5067H68.0267H64.55L67.7767 74.0012H71.2545H74.7334H78.2112Z" fill="#D0D5DD"/>
<path d="M74.9834 75.8223H64.5512C64.4479 75.8223 64.3579 75.7512 64.3345 75.6512C64.3112 75.5512 64.3601 75.4467 64.4523 75.4012L67.679 73.8012C67.7101 73.7856 67.7434 73.7778 67.7778 73.7778H78.2123C78.3156 73.7778 78.4056 73.8489 78.429 73.9489C78.4523 74.0489 78.4034 74.1534 78.3112 74.1989L75.0834 75.7989C75.0512 75.8145 75.0167 75.8223 74.9834 75.8223ZM65.499 75.3778H74.9312L77.2623 74.2223H67.829L65.499 75.3778Z" fill="#F9FAFB"/>
<path d="M81.4401 72.4L78.2112 74.0011H74.7334L77.9623 72.4H81.4401Z" fill="#D0D5DD"/>
<path d="M78.2111 74.2234H74.7333C74.63 74.2234 74.54 74.1522 74.5166 74.0522C74.4933 73.9522 74.5422 73.8478 74.6344 73.8022L77.8644 72.2011C77.8955 72.1856 77.9289 72.1778 77.9633 72.1778H81.4411C81.5444 72.1778 81.6344 72.2489 81.6578 72.3489C81.6811 72.4489 81.6322 72.5534 81.54 72.5989L78.31 74.2C78.2789 74.2156 78.2455 74.2234 78.2111 74.2234ZM75.6811 73.7789H78.1589L80.4922 72.6222H78.0144L75.6811 73.7789Z" fill="#F9FAFB"/>
<path d="M75.2311 77.2012L72.0033 78.8012H68.5266L71.7533 77.2012H75.2311Z" fill="#D0D5DD"/>
<path d="M72.0033 79.0234H68.5266C68.4233 79.0234 68.3333 78.9523 68.31 78.8523C68.2866 78.7523 68.3355 78.6478 68.4278 78.6023L71.6544 77.0023C71.6855 76.9867 71.7189 76.9789 71.7533 76.9789H75.2311C75.3344 76.9789 75.4244 77.0501 75.4478 77.1501C75.4711 77.2501 75.4222 77.3545 75.33 77.4001L72.1022 79.0001C72.0711 79.0156 72.0378 79.0234 72.0033 79.0234ZM69.4755 78.5789H71.9511L74.2822 77.4234H71.8055L69.4755 78.5789Z" fill="#F9FAFB"/>
<path d="M81.6888 74.0012L78.4622 75.6H74.9833L78.2111 74.0012H81.6888Z" fill="#D0D5DD"/>
<path d="M78.4622 75.8223H74.9833C74.88 75.8223 74.79 75.7512 74.7666 75.6512C74.7433 75.5512 74.7922 75.4467 74.8844 75.4012L78.1122 73.8012C78.1433 73.7856 78.1766 73.7778 78.2111 73.7778H81.6889C81.7922 73.7778 81.8822 73.8489 81.9055 73.9489C81.9289 74.0489 81.88 74.1534 81.7878 74.1989L78.5611 75.7989C78.53 75.8145 78.4966 75.8223 78.4622 75.8223ZM75.9322 75.3778H78.4111L80.7411 74.2223H78.2633L75.9322 75.3778Z" fill="#F9FAFB"/>
<path d="M84.9188 72.4L81.6888 74.0011H78.2111L81.4399 72.4H84.9188Z" fill="#D0D5DD"/>
<path d="M81.6889 74.2234H78.2111C78.1078 74.2234 78.0178 74.1522 77.9944 74.0522C77.9711 73.9522 78.02 73.8478 78.1122 73.8022L81.3422 72.2011C81.3733 72.1856 81.4066 72.1778 81.4411 72.1778H84.9189C85.0222 72.1778 85.1122 72.2489 85.1355 72.3489C85.1589 72.4489 85.11 72.5534 85.0178 72.5989L81.7878 74.2C81.7567 74.2156 81.7233 74.2234 81.6889 74.2234ZM79.1589 73.7789H81.6367L83.97 72.6222H81.4922L79.1589 73.7789Z" fill="#F9FAFB"/>
<path d="M46.6589 72.4L43.4289 74.0011H39.9523L43.1823 72.4H46.6589Z" fill="#D0D5DD"/>
<path d="M43.4288 74.2234H39.9522C39.8489 74.2234 39.7589 74.1522 39.7355 74.0522C39.7122 73.9522 39.7611 73.8478 39.8533 73.8022L43.0833 72.2011C43.1144 72.1856 43.1477 72.1778 43.1822 72.1778H46.6589C46.7622 72.1778 46.8522 72.2489 46.8755 72.3489C46.8989 72.4489 46.85 72.5534 46.7577 72.5989L43.5277 74.2C43.4977 74.2156 43.4633 74.2234 43.4288 74.2234ZM40.9011 73.7789H43.3766L45.71 72.6222H43.2344L40.9011 73.7789Z" fill="#F9FAFB"/>
<path d="M43.1823 72.4L39.9523 74.0011H36.4734L39.7034 72.4H43.1823Z" fill="#D0D5DD"/>
<path d="M39.9523 74.2234H36.4734C36.3701 74.2234 36.2801 74.1522 36.2568 74.0522C36.2334 73.9522 36.2823 73.8478 36.3745 73.8022L39.6045 72.2011C39.6356 72.1856 39.669 72.1778 39.7034 72.1778H43.1823C43.2857 72.1778 43.3757 72.2489 43.399 72.3489C43.4223 72.4489 43.3734 72.5534 43.2812 72.5989L40.0512 74.2C40.0212 74.2156 39.9868 74.2234 39.9523 74.2234ZM37.4223 73.7789H39.9012L42.2345 72.6222H39.7556L37.4223 73.7789Z" fill="#F9FAFB"/>
<path d="M57.0945 72.4L53.8645 74.0011H50.3856L53.6145 72.4H57.0945Z" fill="#D0D5DD"/>
<path d="M53.8644 74.2234H50.3855C50.2822 74.2234 50.1922 74.1522 50.1689 74.0522C50.1455 73.9522 50.1944 73.8478 50.2866 73.8022L53.5166 72.2011C53.5478 72.1856 53.5811 72.1778 53.6155 72.1778H57.0944C57.1978 72.1778 57.2878 72.2489 57.3111 72.3489C57.3344 72.4489 57.2855 72.5534 57.1933 72.5989L53.9633 74.2C53.9333 74.2156 53.8989 74.2234 53.8644 74.2234ZM51.3344 73.7789H53.8133L56.1466 72.6222H53.6666L51.3344 73.7789Z" fill="#F9FAFB"/>
<path d="M60.5723 72.4L57.3423 74.0011H53.8645L57.0945 72.4H60.5723Z" fill="#D0D5DD"/>
<path d="M57.3423 74.2234H53.8645C53.7612 74.2234 53.6712 74.1522 53.6479 74.0522C53.6245 73.9522 53.6734 73.8478 53.7657 73.8022L56.9957 72.2011C57.0268 72.1856 57.0601 72.1778 57.0945 72.1778H60.5723C60.6757 72.1778 60.7657 72.2489 60.789 72.3489C60.8123 72.4489 60.7634 72.5534 60.6712 72.5989L57.4412 74.2C57.4112 74.2156 57.3768 74.2234 57.3423 74.2234ZM54.8134 73.7789H57.2912L59.6245 72.6222H57.1468L54.8134 73.7789Z" fill="#F9FAFB"/>
<path d="M40.4501 77.2012L37.2234 78.8012H33.7456L36.9734 77.2012H40.4501Z" fill="#D0D5DD"/>
<path d="M37.2233 79.0234H33.7455C33.6422 79.0234 33.5522 78.9523 33.5289 78.8523C33.5055 78.7523 33.5544 78.6478 33.6466 78.6023L36.8744 77.0023C36.9055 76.9867 36.9389 76.9789 36.9733 76.9789H40.45C40.5533 76.9789 40.6433 77.0501 40.6666 77.1501C40.69 77.2501 40.6411 77.3545 40.5489 77.4001L37.3222 79.0001C37.2911 79.0156 37.2577 79.0234 37.2233 79.0234ZM34.6944 78.5789H37.1711L39.5011 77.4234H37.0255L34.6944 78.5789Z" fill="#F9FAFB"/>
<path d="M97.9088 43.1866L88.6099 70.2678H40.5621L42.6377 64.2033H54.0055L61.6944 43.1866H97.9088Z" fill="#F7F9FC"/>
<path d="M88.61 70.5178H40.5623C40.4812 70.5178 40.4056 70.4789 40.3589 70.4133C40.3123 70.3478 40.3 70.2633 40.3256 70.1866L42.4012 64.1222C42.4356 64.0211 42.5312 63.9533 42.6378 63.9533H53.83L61.46 43.1011C61.4956 43.0022 61.59 42.9366 61.6945 42.9366H97.9078C97.9889 42.9366 98.0645 42.9755 98.1112 43.0411C98.1578 43.1066 98.17 43.1911 98.1445 43.2678L88.8456 70.3478C88.8112 70.45 88.7167 70.5178 88.61 70.5178ZM40.9112 70.0178H88.4312L97.5589 43.4378H61.87L54.24 64.2889C54.2045 64.3878 54.11 64.4533 54.0056 64.4533H42.8167L40.9112 70.0178Z" fill="#F9FAFB"/>
<path d="M100.28 42.0378L90.2245 71.4167H38.1934L40.6622 64.2033H42.6378L40.5622 70.2678H88.61L97.9089 43.1867H61.6945L62.1156 42.0378H100.28Z" fill="#D0D5DD"/>
<path d="M90.2245 71.6667H38.1934C38.1123 71.6667 38.0367 71.6278 37.99 71.5623C37.9434 71.4967 37.9311 71.4123 37.9567 71.3356L40.4256 64.1223C40.46 64.0212 40.5556 63.9534 40.6623 63.9534H42.6378C42.7189 63.9534 42.7945 63.9923 42.8411 64.0578C42.8878 64.1234 42.9 64.2078 42.8745 64.2845L40.9123 70.0178H88.4323L97.56 43.4378H61.6945C61.6134 43.4378 61.5367 43.3978 61.49 43.3312C61.4434 43.2645 61.4323 43.1789 61.46 43.1023L61.88 41.9534C61.9156 41.8545 62.01 41.7889 62.1145 41.7889H100.279C100.36 41.7889 100.436 41.8278 100.482 41.8934C100.529 41.9589 100.541 42.0434 100.516 42.12L90.46 71.4989C90.4256 71.5989 90.3311 71.6667 90.2245 71.6667ZM38.5434 71.1667H90.0456L99.93 42.2878H62.29L62.0523 42.9367H97.9078C97.9889 42.9367 98.0645 42.9756 98.1111 43.0412C98.1578 43.1067 98.17 43.1912 98.1445 43.2678L88.8456 70.3478C88.8111 70.4489 88.7156 70.5167 88.6089 70.5167H40.5623C40.4811 70.5167 40.4056 70.4778 40.3589 70.4123C40.3123 70.3467 40.3 70.2623 40.3256 70.1856L42.2878 64.4523H40.8411L38.5434 71.1667Z" fill="#F9FAFB"/>
<path d="M90.2246 71.4167L92.879 74.7911L69.4879 85.9V81.92L90.2246 71.4167Z" fill="#D0D5DD"/>
<path d="M69.4878 86.15C69.4411 86.15 69.3945 86.1367 69.3545 86.1111C69.2822 86.0656 69.2378 85.9856 69.2378 85.9V81.92C69.2378 81.8256 69.2911 81.74 69.3745 81.6967L90.1111 71.1933C90.2178 71.1389 90.3467 71.1678 90.4211 71.2622L93.0756 74.6367C93.1222 74.6967 93.14 74.7745 93.1222 74.8489C93.1045 74.9234 93.0545 74.9856 92.9856 75.0178L69.5945 86.1267C69.5611 86.1411 69.5245 86.15 69.4878 86.15ZM69.7378 82.0733V85.5045L92.4889 74.7L90.1545 71.7322L69.7378 82.0733Z" fill="#F9FAFB"/>
<path d="M54.3956 26.3245C54.3956 26.2778 54.3934 26.2323 54.3889 26.1867C54.3878 26.18 54.3878 26.1734 54.3867 26.1667C54.3822 26.1323 54.3778 26.0978 54.3711 26.0645C54.37 26.0578 54.3667 26.0523 54.3656 26.0456C54.3578 26.0067 54.3467 25.97 54.3345 25.9323C54.33 25.92 54.3289 25.9067 54.3245 25.8945C54.3234 25.8912 54.3222 25.8889 54.3211 25.8856C54.3145 25.8667 54.3045 25.8478 54.2967 25.83C54.2878 25.8089 54.2789 25.7867 54.2689 25.7656C54.2667 25.7611 54.2645 25.7578 54.2622 25.7534C54.2556 25.74 54.2467 25.7278 54.2389 25.7145C54.2278 25.6956 54.2178 25.6767 54.2067 25.6589C54.1978 25.6456 54.1889 25.6334 54.18 25.62L52.2156 22.9423C52.2378 22.9723 52.2567 23.0045 52.2756 23.0367C52.2834 23.05 52.2911 23.0623 52.2989 23.0756C52.3122 23.1 52.3222 23.1267 52.3334 23.1523C52.3411 23.1711 52.35 23.1889 52.3578 23.2078C52.3634 23.2234 52.3667 23.2389 52.3722 23.2545C52.3845 23.2911 52.3956 23.3289 52.4034 23.3678C52.4122 23.4078 52.4189 23.4478 52.4245 23.4889C52.4256 23.4956 52.4256 23.5023 52.4267 23.5089C52.4311 23.5534 52.4334 23.6 52.4334 23.6467C52.4334 23.6512 52.4334 23.6556 52.4334 23.66C52.4322 23.7089 52.4289 23.7578 52.4234 23.8078C52.4222 23.8178 52.4211 23.8267 52.42 23.8367C52.4134 23.8867 52.4045 23.9367 52.3922 23.9878C52.39 23.9967 52.3878 24.0056 52.3856 24.0145C52.3722 24.0678 52.3578 24.1223 52.3389 24.1767C52.3145 24.2478 52.2856 24.3178 52.2534 24.3867C52.2489 24.3967 52.2434 24.4078 52.2378 24.4178C52.2056 24.4834 52.1711 24.5478 52.1322 24.6112C52.1322 24.6112 52.1322 24.6111 52.1322 24.6123C52.0956 24.6723 52.0545 24.7312 52.0111 24.7889C52 24.8045 51.9878 24.82 51.9767 24.8345C51.9422 24.8789 51.9067 24.9223 51.87 24.9645C51.8611 24.9745 51.8533 24.9845 51.8456 24.9934C51.8011 25.0423 51.7545 25.09 51.7067 25.1367C51.6945 25.1489 51.6811 25.16 51.6689 25.1711C51.6311 25.2056 51.5922 25.24 51.5534 25.2723C51.5378 25.2856 51.5222 25.2978 51.5056 25.3112C51.4578 25.3489 51.4089 25.3856 51.3589 25.4211C51.3522 25.4256 51.3467 25.43 51.34 25.4345C51.2811 25.4745 51.2211 25.5123 51.16 25.5478C51.1445 25.5567 51.13 25.5645 51.1145 25.5734C51.05 25.6089 50.9845 25.6434 50.9178 25.6734C50.9134 25.6756 50.91 25.6778 50.9056 25.6789C50.8922 25.6845 50.8789 25.69 50.8667 25.6956C50.8311 25.7111 50.7956 25.7256 50.76 25.74C50.7411 25.7467 50.7234 25.7534 50.7045 25.7589C50.6745 25.77 50.6434 25.78 50.6122 25.79C50.5822 25.7989 50.5522 25.8067 50.5211 25.8156C50.4989 25.8211 50.4756 25.8278 50.4533 25.8334C50.4211 25.8411 50.39 25.8467 50.3578 25.8523C50.3367 25.8567 50.3156 25.8611 50.2945 25.8645C50.2589 25.87 50.2234 25.8734 50.1889 25.8778C50.1711 25.88 50.1534 25.8823 50.1356 25.8845C50.0822 25.8889 50.0289 25.8912 49.9767 25.8912C49.91 25.8912 49.8467 25.8867 49.7845 25.88C49.4045 25.4345 48.9867 25.0089 48.6945 24.61C48.69 24.6656 48.6911 24.7189 48.6934 24.7723C48.6934 24.7834 48.6945 24.7945 48.6945 24.8056C48.6978 24.8567 48.7045 24.9067 48.7134 24.9556C48.7134 24.9578 48.7134 24.9611 48.7145 24.9634C48.7156 24.9689 48.7178 24.9734 48.7189 24.9778C48.73 25.03 48.7434 25.0811 48.7611 25.13C48.7622 25.1323 48.7622 25.1345 48.7634 25.1367C48.7634 25.1378 48.7645 25.1378 48.7645 25.1389C48.7789 25.1778 48.7956 25.2167 48.8145 25.2534C48.8167 25.2567 48.8178 25.2612 48.8189 25.2645C48.8222 25.2723 48.8278 25.2789 48.8322 25.2867C48.8445 25.3089 48.8578 25.3311 48.8711 25.3523C48.8745 25.3578 48.8778 25.3645 48.8822 25.3711C48.8911 25.3834 48.9 25.3967 48.9089 25.4089L49.7889 26.6089L50.8733 28.0867C51.0911 28.3834 51.4634 28.5667 51.9422 28.5667C51.9956 28.5667 52.0478 28.5645 52.1011 28.56C52.1189 28.5589 52.1367 28.5556 52.1545 28.5534C52.19 28.55 52.2245 28.5456 52.26 28.54C52.2811 28.5367 52.3022 28.5323 52.3234 28.5278C52.3556 28.5223 52.3878 28.5156 52.4189 28.5089C52.4411 28.5034 52.4645 28.4967 52.4867 28.4912C52.5167 28.4834 52.5478 28.4756 52.5778 28.4656C52.5822 28.4645 52.5867 28.4634 52.5911 28.4623C52.6178 28.4545 52.6434 28.4445 52.6689 28.4345C52.6878 28.4278 52.7056 28.4223 52.7245 28.4156C52.76 28.4023 52.7956 28.3867 52.8311 28.3711C52.8445 28.3656 52.8578 28.3612 52.87 28.3545C52.8711 28.3545 52.8722 28.3534 52.8733 28.3534C52.8767 28.3523 52.8789 28.35 52.8822 28.3489C52.9489 28.3189 53.0145 28.2845 53.0789 28.2489C53.0878 28.2445 53.0967 28.24 53.1045 28.2356C53.1111 28.2323 53.1178 28.2267 53.1245 28.2234C53.1856 28.1878 53.2456 28.15 53.3045 28.11C53.3056 28.1089 53.3067 28.1089 53.3078 28.1078C53.3134 28.1045 53.3178 28.1 53.3234 28.0967C53.3734 28.0623 53.4222 28.0256 53.47 27.9867C53.4767 27.9812 53.4845 27.9756 53.4922 27.97C53.5011 27.9634 53.5089 27.9556 53.5178 27.9478C53.5578 27.9145 53.5956 27.8811 53.6334 27.8456C53.6422 27.8378 53.6522 27.83 53.6611 27.8211C53.6645 27.8178 53.6678 27.8145 53.6711 27.8112C53.7189 27.7645 53.7656 27.7178 53.81 27.6678C53.8122 27.6656 53.8145 27.6634 53.8167 27.6611C53.8234 27.6534 53.8289 27.6456 53.8356 27.6389C53.8722 27.5967 53.9078 27.5534 53.9422 27.5089C53.9489 27.5012 53.9556 27.4934 53.9622 27.4856C53.9678 27.4789 53.9722 27.4711 53.9767 27.4634C54.0189 27.4056 54.06 27.3467 54.0978 27.2867C54.1367 27.2234 54.1711 27.1589 54.2034 27.0934C54.2089 27.0834 54.2134 27.0734 54.2189 27.0623C54.2222 27.0545 54.2267 27.0467 54.23 27.0389C54.2578 26.9778 54.2834 26.9156 54.3045 26.8523C54.3234 26.7978 54.3389 26.7434 54.3511 26.69C54.3534 26.6812 54.3556 26.6723 54.3578 26.6634C54.3689 26.6123 54.3789 26.5623 54.3856 26.5123C54.3867 26.5023 54.3878 26.4934 54.3889 26.4834C54.3945 26.4334 54.3989 26.3834 54.3989 26.3356C54.3956 26.3334 54.3956 26.3289 54.3956 26.3245Z" fill="#D0D5DD"/>
<path d="M51.9356 28.82C51.3912 28.82 50.94 28.6133 50.6645 28.2378L48.7 25.56C48.6889 25.5445 48.6778 25.5289 48.6678 25.5133C48.6612 25.5045 48.6567 25.4945 48.6511 25.4856C48.6367 25.4633 48.6212 25.4367 48.6056 25.4089C48.6012 25.4022 48.5956 25.3922 48.59 25.3822C48.5878 25.3767 48.5834 25.3689 48.58 25.3622C48.5578 25.3178 48.54 25.2756 48.5245 25.2345C48.5223 25.23 48.5211 25.2256 48.52 25.2222C48.5189 25.2189 48.5178 25.2133 48.5156 25.2089C48.4978 25.1567 48.4823 25.1011 48.4689 25.0411C48.4667 25.0322 48.4645 25.0233 48.4623 25.0145C48.4612 25.01 48.46 25.0033 48.46 24.9967C48.45 24.9422 48.4434 24.8845 48.4389 24.8256L48.4367 24.7922C48.4334 24.7145 48.4345 24.6533 48.4378 24.5945C48.4456 24.49 48.5167 24.4011 48.6178 24.3722C48.7189 24.3433 48.8267 24.38 48.8889 24.4645C49.0711 24.7133 49.3067 24.9767 49.5567 25.2545C49.67 25.38 49.7856 25.51 49.9 25.6411C49.9712 25.6445 50.0389 25.6422 50.1078 25.6367L50.1556 25.6311C50.1934 25.6267 50.2211 25.6245 50.2489 25.62C50.2578 25.6189 50.2678 25.6167 50.2778 25.6145L50.32 25.6056C50.3434 25.6011 50.3667 25.5967 50.39 25.5911C50.4023 25.5878 50.4145 25.5845 50.4267 25.5811L50.4667 25.57C50.4889 25.5645 50.51 25.5589 50.5323 25.5511C50.56 25.5422 50.5867 25.5333 50.6134 25.5233L50.6656 25.5056C50.6978 25.4933 50.73 25.4789 50.7623 25.4656L50.8089 25.4456C50.8645 25.42 50.9234 25.39 50.9878 25.3545L51.03 25.3311C51.0923 25.2945 51.1456 25.2611 51.1945 25.2278C51.1967 25.2267 51.21 25.2167 51.2123 25.2156C51.2578 25.1833 51.3023 25.15 51.3467 25.1156C51.3611 25.1045 51.3756 25.0922 51.39 25.08C51.4256 25.05 51.4611 25.0189 51.4956 24.9878L51.53 24.9556C51.5734 24.9133 51.6167 24.87 51.6567 24.8256L51.6789 24.7989C51.7123 24.7611 51.7445 24.7211 51.7756 24.6811C51.7867 24.6678 51.7967 24.6533 51.8067 24.64C51.8512 24.5789 51.8856 24.5289 51.9156 24.4811C51.9167 24.48 51.9167 24.4789 51.9178 24.4778C51.9478 24.4278 51.9789 24.3722 52.01 24.3078L52.0234 24.28C52.0545 24.2145 52.0789 24.1545 52.0989 24.0956C52.1134 24.0533 52.1267 24.0067 52.14 23.9545C52.14 23.9533 52.1434 23.9422 52.1434 23.9422L52.1456 23.9311C52.1556 23.8878 52.1634 23.8456 52.1689 23.8033L52.1712 23.7845C52.1767 23.7367 52.18 23.6956 52.18 23.6556V23.6445C52.18 23.6067 52.1778 23.5689 52.1745 23.5322C52.1745 23.53 52.1734 23.52 52.1734 23.5189C52.17 23.4833 52.1634 23.4511 52.1567 23.42C52.15 23.39 52.1411 23.36 52.1323 23.3311L52.1245 23.3045C52.1189 23.2878 52.1156 23.2811 52.1134 23.2745L52.0978 23.24C52.0911 23.2245 52.0845 23.2089 52.0767 23.1933L52.0589 23.1633C52.0445 23.1389 52.03 23.1133 52.0134 23.0911C51.9323 22.98 51.9556 22.8233 52.0667 22.7422C52.1778 22.6611 52.3345 22.6845 52.4156 22.7956L54.38 25.4733C54.3912 25.4889 54.4023 25.5045 54.4134 25.5211C54.4256 25.5389 54.4356 25.5567 54.4456 25.5756L54.46 25.6C54.4667 25.61 54.4723 25.6211 54.4789 25.6322C54.4834 25.6389 54.4867 25.6456 54.4912 25.6533C54.5012 25.6733 54.51 25.6945 54.5189 25.7156L54.5323 25.7467C54.5389 25.7622 54.5467 25.7778 54.5523 25.7933C54.5545 25.8 54.5578 25.8067 54.56 25.8111C54.5656 25.8267 54.57 25.8422 54.5734 25.8578C54.5867 25.9 54.5989 25.9422 54.6089 25.9867C54.6123 25.9978 54.6145 26.0078 54.6167 26.0189C54.6245 26.0589 54.63 26.1 54.6356 26.1411L54.6378 26.1611C54.6434 26.2178 54.6456 26.2722 54.6456 26.3256C54.6456 26.33 54.6456 26.3411 54.6456 26.3433C54.6445 26.3967 54.6412 26.4533 54.6334 26.5167L54.6289 26.55C54.6211 26.6078 54.6111 26.6667 54.5978 26.7233L54.5923 26.7456C54.5734 26.8222 54.5556 26.8822 54.5367 26.9389C54.5134 27.0089 54.4845 27.0789 54.4534 27.1478C54.45 27.1556 54.4467 27.1633 54.4423 27.17L54.4289 27.1978C54.3845 27.2878 54.3467 27.3578 54.3078 27.4222C54.3078 27.4233 54.3067 27.4233 54.3067 27.4245C54.27 27.4845 54.2278 27.5456 54.1745 27.6178C54.17 27.6245 54.1645 27.6333 54.1578 27.6422C54.1512 27.65 54.1445 27.6589 54.1378 27.6667C54.0989 27.7167 54.06 27.7633 54.02 27.81C54.0134 27.8189 54.0067 27.8267 54 27.8345C53.9967 27.8378 53.99 27.8456 53.9856 27.8489C53.9456 27.8933 53.8945 27.9467 53.84 27.9978C53.8389 27.9989 53.8345 28.0045 53.8289 28.0089C53.8211 28.0167 53.8134 28.0233 53.8045 28.03C53.7578 28.0722 53.7167 28.1089 53.6734 28.1445C53.6623 28.1545 53.6545 28.1611 53.6467 28.1678C53.6389 28.1745 53.6311 28.18 53.6234 28.1856C53.57 28.2278 53.5178 28.2678 53.4634 28.3056C53.46 28.3089 53.4534 28.3133 53.4478 28.3178C53.4456 28.32 53.4423 28.3222 53.4389 28.3233C53.38 28.3633 53.3178 28.4022 53.2467 28.4433C53.2411 28.4478 53.2323 28.4522 53.2245 28.4567C53.2156 28.4622 53.2067 28.4667 53.1967 28.4711C53.1223 28.5122 53.0534 28.5478 52.9867 28.5778C52.9811 28.58 52.9756 28.5833 52.9723 28.5845C52.9578 28.5911 52.9478 28.5945 52.9367 28.5989L52.9256 28.6033C52.8867 28.62 52.8478 28.6367 52.8089 28.6511C52.7945 28.6567 52.78 28.6611 52.7667 28.6667L52.7267 28.6811C52.7056 28.6889 52.6834 28.6967 52.6623 28.7033C52.6578 28.7045 52.6478 28.7078 52.6434 28.7089C52.6189 28.7167 52.5889 28.7245 52.56 28.7322L52.5267 28.7411C52.5089 28.7467 52.49 28.7511 52.4723 28.7556C52.4423 28.7622 52.4111 28.7689 52.3811 28.7745L52.3456 28.7811C52.3289 28.7845 52.3111 28.7878 52.2945 28.7911C52.2589 28.7967 52.2223 28.8011 52.1867 28.8045L52.16 28.8078C52.1456 28.81 52.1311 28.8111 52.1167 28.8122C52.0556 28.8178 51.9956 28.82 51.9356 28.82ZM49.7378 26.1278L51.0689 27.9422C51.2478 28.1856 51.5556 28.32 51.9367 28.32C51.9823 28.32 52.0289 28.3178 52.0756 28.3145L52.1234 28.3089C52.1611 28.3045 52.1878 28.3022 52.2156 28.2978C52.2256 28.2967 52.2356 28.2945 52.2445 28.2922L52.2878 28.2833C52.3111 28.2789 52.3334 28.2745 52.3567 28.2689C52.3689 28.2667 52.38 28.2633 52.3923 28.26L52.4311 28.2489C52.4534 28.2433 52.4767 28.2367 52.4989 28.23C52.5023 28.2289 52.5134 28.2256 52.5167 28.2245C52.5256 28.2211 52.5412 28.2156 52.5567 28.21L52.6323 28.1833C52.6645 28.1711 52.6967 28.1578 52.7289 28.1433L52.7645 28.1289C52.7634 28.1289 52.77 28.1256 52.7767 28.1233C52.8311 28.0978 52.89 28.0678 52.9556 28.0322C52.9634 28.0278 52.9723 28.0233 52.9811 28.0189C52.9834 28.0167 52.99 28.0122 52.9978 28.0089C53.06 27.9733 53.1134 27.9389 53.1623 27.9056C53.1634 27.9045 53.1645 27.9033 53.1667 27.9033C53.1711 27.9 53.1778 27.8956 53.1811 27.8933C53.2256 27.8622 53.27 27.8289 53.3145 27.7933C53.3211 27.7878 53.3278 27.7833 53.3345 27.7778C53.3445 27.7689 53.3511 27.7633 53.3578 27.7578C53.3945 27.7278 53.4289 27.6967 53.4634 27.6645C53.47 27.6589 53.4767 27.6522 53.4845 27.6467C53.4878 27.6433 53.4945 27.6367 53.4978 27.6333C53.5412 27.5922 53.5834 27.5478 53.6245 27.5033C53.6256 27.5022 53.6278 27.4989 53.63 27.4967C53.6367 27.4889 53.6411 27.4822 53.6467 27.4767C53.68 27.4389 53.7123 27.3989 53.7434 27.3589C53.7489 27.3522 53.7545 27.3445 53.76 27.3378C53.7634 27.3322 53.7689 27.3245 53.7745 27.3167C53.8189 27.2567 53.8534 27.2056 53.8834 27.1578C53.8834 27.1567 53.8845 27.1567 53.8845 27.1556C53.9156 27.1056 53.9456 27.0489 53.9767 26.9845L53.9989 26.9389C54.0245 26.8822 54.0467 26.8267 54.0656 26.7722C54.08 26.73 54.0934 26.6833 54.1067 26.6311L54.11 26.6178C54.1223 26.5645 54.13 26.5211 54.1356 26.4789L54.1378 26.4611C54.1434 26.4122 54.1467 26.3711 54.1478 26.3311V26.32C54.1478 26.2822 54.1456 26.2445 54.1423 26.2078C54.1423 26.2056 54.1411 26.1956 54.1411 26.1945C54.1378 26.1678 54.1345 26.1433 54.13 26.1189C54.1278 26.1111 54.1256 26.1033 54.1234 26.0956C54.1167 26.0645 54.1078 26.0356 54.0989 26.0067C54.0956 25.9967 54.0923 25.9856 54.09 25.9756C54.0889 25.9733 54.0889 25.9722 54.0878 25.97C54.0856 25.9622 54.0823 25.9556 54.0789 25.9489L54.0578 25.9C54.0556 25.8933 54.0534 25.8878 54.05 25.8811C54.0478 25.8767 54.0445 25.8722 54.0423 25.8678L54.0123 25.8167C54.0078 25.81 54.0045 25.8022 54 25.7956C53.9934 25.7856 53.9867 25.7756 53.9789 25.7656L52.6523 23.9578C52.6467 23.9856 52.6411 24.0133 52.6356 24.0411L52.63 24.0633C52.6112 24.1389 52.5945 24.1989 52.5745 24.2556C52.5489 24.3311 52.5167 24.4078 52.4789 24.49L52.4667 24.5145C52.4234 24.6033 52.3845 24.6733 52.3456 24.7378C52.3445 24.7389 52.3434 24.7411 52.3423 24.7422C52.3056 24.8022 52.2634 24.8633 52.2123 24.9333C52.2 24.95 52.1867 24.9667 52.1745 24.9833C52.1367 25.0311 52.0978 25.0789 52.0578 25.1256L52.0311 25.1567C51.9845 25.2089 51.9334 25.2611 51.8789 25.3122L51.8378 25.35C51.7967 25.3878 51.7545 25.4245 51.7123 25.46C51.6956 25.4745 51.6778 25.4878 51.6612 25.5022C51.6089 25.5433 51.5567 25.5833 51.5023 25.6211L51.4811 25.6356C51.4223 25.6756 51.3589 25.7156 51.2856 25.7578L51.2356 25.7856C51.1589 25.8278 51.0889 25.8645 51.0211 25.8945L51.0078 25.9011C50.9978 25.9056 50.9867 25.91 50.9767 25.9145L50.9645 25.9189C50.9256 25.9356 50.8867 25.9522 50.8478 25.9667C50.8334 25.9722 50.8189 25.9767 50.8045 25.9822L50.7867 25.9878C50.7523 26 50.7189 26.0122 50.6856 26.0222C50.6578 26.0311 50.6289 26.0389 50.6 26.0467L50.5656 26.0556C50.5467 26.0611 50.5289 26.0656 50.51 26.07C50.48 26.0767 50.4489 26.0833 50.4189 26.0889L50.3834 26.0956C50.3667 26.0989 50.35 26.1022 50.3334 26.1056C50.2967 26.1111 50.26 26.1156 50.2234 26.1189L50.1978 26.1222C50.1834 26.1245 50.1689 26.1256 50.1545 26.1267C50.0234 26.1378 49.8978 26.1378 49.7556 26.1211C49.7478 26.1289 49.7423 26.1289 49.7378 26.1278Z" fill="#F9FAFB"/>
<path d="M51.1456 22.4633C52.1279 22.4633 52.6612 23.2311 52.3356 24.1778C52.2845 24.3278 52.2145 24.4733 52.1301 24.6122C51.679 25.3489 50.7979 25.8933 49.9712 25.8933C49.1445 25.8933 48.6368 25.3489 48.689 24.6122C48.699 24.4733 48.729 24.3278 48.7801 24.1778C49.1056 23.2311 50.1645 22.4633 51.1456 22.4633Z" fill="#D0D5DD"/>
<path d="M49.9723 26.1422C49.4946 26.1422 49.0779 25.9778 48.799 25.6778C48.5379 25.3978 48.4112 25.0122 48.4412 24.5933C48.4534 24.4311 48.4879 24.2633 48.5457 24.0956C48.9068 23.0389 50.049 22.2122 51.1468 22.2122C51.6979 22.2122 52.1534 22.4233 52.4268 22.8078C52.7068 23.2 52.759 23.7156 52.5734 24.2578C52.5179 24.4222 52.4401 24.5844 52.3446 24.7411C51.839 25.5667 50.8634 26.1422 49.9723 26.1422ZM51.1457 22.7133C50.2634 22.7133 49.309 23.4067 49.0179 24.2589C48.9746 24.3856 48.9479 24.5111 48.939 24.63C48.919 24.9133 48.9968 25.1578 49.1646 25.3378C49.3501 25.5378 49.629 25.6422 49.9712 25.6422C50.6979 25.6422 51.4979 25.1644 51.9168 24.4811C51.9934 24.3556 52.0546 24.2267 52.099 24.0967C52.2312 23.7111 52.2023 23.3567 52.019 23.0989C51.8423 22.85 51.5312 22.7133 51.1457 22.7133Z" fill="#F9FAFB"/>
<path d="M34.5623 26.9567H36.4234C33.7356 34.4433 30.8123 41.8956 26.3312 49.4544L34.5623 26.9567Z" fill="#D0D5DD"/>
<path d="M26.3311 49.7045C26.2956 49.7045 26.2589 49.6967 26.2245 49.68C26.1078 49.6245 26.0522 49.49 26.0967 49.3678L34.3278 26.87C34.3634 26.7711 34.4578 26.7056 34.5622 26.7056H36.4234C36.5045 26.7056 36.5811 26.7456 36.6278 26.8122C36.6745 26.8789 36.6856 26.9645 36.6589 27.04C33.6634 35.3845 30.7967 42.4111 26.5467 49.5811C26.4989 49.66 26.4167 49.7045 26.3311 49.7045ZM34.7367 27.2067L27.5834 46.7589C30.9811 40.5867 33.4822 34.3833 36.0667 27.2067H34.7367Z" fill="#F9FAFB"/>
<path d="M59.8634 24.6122L61.8278 27.29L61.0256 29.6345L59.0612 26.9567L59.8634 24.6122Z" fill="#D0D5DD"/>
<path d="M61.0256 29.8845C60.9467 29.8845 60.8711 29.8467 60.8245 29.7822L58.86 27.1045C58.8111 27.0389 58.7989 26.9533 58.8256 26.8756L59.6289 24.5311C59.6589 24.4433 59.7356 24.3789 59.8278 24.3645C59.92 24.3511 60.0122 24.3889 60.0667 24.4633L62.0311 27.1411C62.08 27.2067 62.0922 27.2922 62.0656 27.37L61.2622 29.7145C61.2322 29.8022 61.1556 29.8667 61.0634 29.8811C61.05 29.8833 61.0378 29.8845 61.0256 29.8845ZM59.34 26.9133L60.9434 29.1L61.5489 27.3322L59.9456 25.1456L59.34 26.9133Z" fill="#F9FAFB"/>
<path d="M59.8633 24.6122L59.06 26.9567L58.1011 29.7556H40.2955L41.2544 26.9567L42.0578 24.6122H48.6911C48.6378 25.3489 49.1466 25.8934 49.9733 25.8934C50.8 25.8934 51.6811 25.3489 52.1322 24.6122H59.8633Z" fill="#D0D5DD"/>
<path d="M58.1022 30.0056H40.2955C40.2144 30.0056 40.1389 29.9667 40.0922 29.9011C40.0455 29.8356 40.0333 29.7511 40.0589 29.6745L41.82 24.5311C41.8544 24.43 41.95 24.3622 42.0567 24.3622H48.69C48.7589 24.3622 48.8255 24.3911 48.8733 24.4422C48.9211 24.4934 48.9444 24.5611 48.94 24.63C48.92 24.9134 48.9978 25.1578 49.1655 25.3378C49.3511 25.5378 49.63 25.6422 49.9722 25.6422C50.6989 25.6422 51.4989 25.1645 51.9178 24.4811C51.9633 24.4067 52.0444 24.3622 52.1311 24.3622H59.8644C59.9455 24.3622 60.0211 24.4011 60.0678 24.4667C60.1144 24.5322 60.1266 24.6167 60.1011 24.6934L58.34 29.8367C58.3044 29.9378 58.2089 30.0056 58.1022 30.0056ZM40.6455 29.5056H57.9244L59.5144 24.8622H52.2667C51.7444 25.6222 50.82 26.1434 49.9722 26.1434C49.4944 26.1434 49.0778 25.9789 48.7989 25.6789C48.5944 25.46 48.4722 25.1756 48.4433 24.8622H42.2355L40.6455 29.5056Z" fill="#F9FAFB"/>
<path d="M59.0612 26.9567H63.4679C59.3701 39.2611 55.6734 52.3967 49.259 59.9044H22.5079H19.0801C21.9067 56.39 24.2823 52.9111 26.3312 49.4544C30.8123 41.8956 33.7356 34.4433 36.4234 26.9567H41.2545L40.2956 29.7556H58.1023L59.0612 26.9567ZM54.7534 38.6144L54.9001 37.6956H36.1823L36.0356 38.6144H54.7534ZM53.5856 41.5456L53.7323 40.6267H35.0145L34.8679 41.5456H53.5856ZM52.4179 44.4744L52.5645 43.5556H33.8456L33.699 44.4744H52.4179ZM55.9212 35.6844L56.0679 34.7656H37.3512L37.2045 35.6844H55.9212Z" fill="#F7F9FC"/>
<path d="M49.2578 60.1533H19.08C18.9834 60.1533 18.8956 60.0978 18.8545 60.0111C18.8134 59.9244 18.8245 59.8211 18.8856 59.7467C21.58 56.3978 23.9456 52.9889 26.1167 49.3267C30.3467 42.1922 33.2023 35.19 36.1878 26.8722C36.2234 26.7733 36.3178 26.7067 36.4234 26.7067H41.2545C41.3356 26.7067 41.4112 26.7456 41.4578 26.8111C41.5045 26.8767 41.5167 26.9611 41.4912 27.0378L40.6456 29.5056H57.9245L58.8256 26.8756C58.86 26.7744 58.9556 26.7067 59.0623 26.7067H63.4689C63.5489 26.7067 63.6245 26.7456 63.6723 26.81C63.7189 26.8756 63.7323 26.9589 63.7067 27.0356C63.1811 28.6156 62.6523 30.2356 62.1412 31.8033C58.6667 42.4633 55.0734 53.4856 49.45 60.0667C49.4011 60.1211 49.3312 60.1533 49.2578 60.1533ZM19.6 59.6533H49.1423C54.6589 53.1378 58.2189 42.2133 61.6634 31.6478C62.1389 30.1878 62.63 28.6822 63.12 27.2056H59.2389L58.3378 29.8356C58.3034 29.9367 58.2078 30.0044 58.1011 30.0044H40.2956C40.2145 30.0044 40.1389 29.9656 40.0923 29.9C40.0456 29.8344 40.0334 29.75 40.0589 29.6733L40.9045 27.2056H36.5989C33.6245 35.4789 30.7678 42.4589 26.5467 49.5811C24.45 53.1167 22.1745 56.4167 19.6 59.6533ZM52.4178 44.7244H33.6989C33.6256 44.7244 33.5567 44.6922 33.5089 44.6367C33.4612 44.5811 33.4412 44.5078 33.4523 44.4356L33.5989 43.5167C33.6178 43.3956 33.7234 43.3056 33.8456 43.3056H52.5634C52.6367 43.3056 52.7056 43.3378 52.7534 43.3933C52.8012 43.4489 52.8212 43.5222 52.81 43.5944L52.6634 44.5133C52.6445 44.6356 52.54 44.7244 52.4178 44.7244ZM33.9923 44.2244H52.2045L52.2712 43.8056H34.0589L33.9923 44.2244ZM53.5856 41.7956H34.8678C34.7945 41.7956 34.7256 41.7633 34.6778 41.7078C34.63 41.6522 34.61 41.5789 34.6212 41.5067L34.7678 40.5878C34.7867 40.4667 34.8923 40.3767 35.0145 40.3767H53.7323C53.8056 40.3767 53.8745 40.4089 53.9223 40.4644C53.97 40.52 53.99 40.5933 53.9789 40.6656L53.8323 41.5844C53.8134 41.7056 53.7089 41.7956 53.5856 41.7956ZM35.16 41.2956H53.3723L53.4389 40.8767H35.2278L35.16 41.2956ZM54.7534 38.8644H36.0356C35.9623 38.8644 35.8934 38.8322 35.8456 38.7767C35.7978 38.7211 35.7778 38.6478 35.7889 38.5756L35.9356 37.6567C35.9545 37.5356 36.06 37.4456 36.1823 37.4456H54.9C54.9734 37.4456 55.0423 37.4778 55.09 37.5333C55.1378 37.5889 55.1578 37.6622 55.1467 37.7344L55 38.6533C54.9812 38.7756 54.8767 38.8644 54.7534 38.8644ZM36.3289 38.3644H54.5412L54.6078 37.9456H36.3956L36.3289 38.3644ZM55.9212 35.9344H37.2045C37.1312 35.9344 37.0623 35.9022 37.0145 35.8467C36.9667 35.7911 36.9467 35.7178 36.9578 35.6456L37.1045 34.7267C37.1234 34.6056 37.2289 34.5156 37.3512 34.5156H56.0678C56.1411 34.5156 56.21 34.5478 56.2578 34.6033C56.3056 34.6589 56.3256 34.7322 56.3145 34.8044L56.1678 35.7233C56.1489 35.8456 56.0445 35.9344 55.9212 35.9344ZM37.4967 35.4344H55.7078L55.7745 35.0156H37.5634L37.4967 35.4344Z" fill="#F9FAFB"/>
<path d="M54.2746 64.9167H42.4379H40.8712H20.6735L22.6379 67.5945H42.8346H44.4024H56.239L54.2746 64.9167Z" fill="#D0D5DD"/>
<path d="M56.239 67.8445H22.6379C22.5579 67.8445 22.4834 67.8067 22.4368 67.7422L20.4723 65.0645C20.4168 64.9889 20.4079 64.8878 20.4512 64.8034C20.4934 64.7189 20.5801 64.6667 20.6745 64.6667H54.2757C54.3557 64.6667 54.4301 64.7045 54.4768 64.7689L56.4412 67.4467C56.4968 67.5222 56.5057 67.6234 56.4623 67.7078C56.419 67.7911 56.3334 67.8445 56.239 67.8445ZM22.7645 67.3445H55.7456L54.1479 65.1667H21.1668L22.7645 67.3445Z" fill="#F9FAFB"/>
<path d="M68.1644 26.9567L60.71 47.3289L60.3766 48.24L54.2744 64.9167L56.2389 67.5944L62.3411 50.9178L62.6744 50.0067L70.1289 29.6344L68.1644 26.9567Z" fill="#D0D5DD"/>
<path d="M56.2389 67.8444C56.16 67.8444 56.0845 67.8067 56.0378 67.7422L54.0734 65.0644C54.0234 64.9967 54.0111 64.9089 54.04 64.8311L67.93 26.87C67.9623 26.7833 68.0389 26.7211 68.13 26.7089C68.2211 26.6956 68.3123 26.7344 68.3667 26.8089L70.3311 29.4867C70.3811 29.5544 70.3934 29.6422 70.3645 29.72L56.4734 67.68C56.4411 67.7667 56.3645 67.8289 56.2734 67.8411C56.2623 67.8433 56.25 67.8444 56.2389 67.8444ZM54.5556 64.8767L56.1645 67.07L69.8478 29.6733L68.2389 27.48L54.5556 64.8767Z" fill="#F9FAFB"/>
<path d="M63.4668 26.9567H68.179L60.7246 47.3289L60.3912 48.24L54.289 64.9167H42.4379H40.8701H20.6735L22.5079 59.9033H49.2579C55.6724 52.3956 59.3701 39.2611 63.4668 26.9567Z" fill="#D0D5DD"/>
<path d="M54.2901 65.1667H20.6734C20.5923 65.1667 20.5157 65.1267 20.469 65.06C20.4223 64.9933 20.4112 64.9078 20.439 64.8311L22.2734 59.8178C22.309 59.7189 22.4034 59.6533 22.5079 59.6533H49.1423C54.6579 53.1378 58.219 42.2133 61.6634 31.6478C62.1745 30.08 62.7034 28.4589 63.2301 26.8767C63.2645 26.7745 63.3601 26.7056 63.4668 26.7056H68.179C68.2601 26.7056 68.3368 26.7456 68.3834 26.8122C68.4301 26.8789 68.4412 26.9645 68.4134 27.0411L54.5245 65.0022C54.489 65.1011 54.3945 65.1667 54.2901 65.1667ZM21.0312 64.6667H54.1157L67.8223 27.2067H63.6479C63.1401 28.7322 62.6323 30.2922 62.139 31.8033C58.6645 42.4633 55.0712 53.4856 49.4479 60.0667C49.4001 60.1222 49.3312 60.1545 49.2579 60.1545H22.6823L21.0312 64.6667Z" fill="#F9FAFB"/>
<path d="M49.2579 59.9033H22.5079H19.0801L21.0434 62.5811H24.4712H51.2223L49.2579 59.9033Z" fill="#D0D5DD"/>
<path d="M51.2223 62.8311H21.0434C20.9634 62.8311 20.8889 62.7933 20.8423 62.7289L18.8778 60.0511C18.8223 59.9755 18.8134 59.8744 18.8567 59.79C18.8989 59.7055 18.9856 59.6533 19.0801 59.6533H49.2589C49.3389 59.6533 49.4134 59.6911 49.4601 59.7555L51.4245 62.4333C51.4801 62.5089 51.489 62.61 51.4456 62.6944C51.4023 62.7789 51.3167 62.8311 51.2223 62.8311ZM21.1701 62.3311H50.7278L49.1301 60.1533H19.5734L21.1701 62.3311Z" fill="#F9FAFB"/>
<path d="M55.03 56.9911C55.0766 56.9078 55.1222 56.8233 55.1689 56.7389C55.2777 56.5422 55.3844 56.3444 55.4922 56.1444C55.5422 56.05 55.5922 55.9555 55.6422 55.8611C55.7533 55.6511 55.8622 55.4389 55.9711 55.2244C56.01 55.1478 56.0489 55.0733 56.0877 54.9966C56.2333 54.7089 56.3766 54.4178 56.5189 54.1244C56.5477 54.0644 56.5755 54.0044 56.6044 53.9444C56.7189 53.7066 56.8322 53.4666 56.9444 53.2244C56.9911 53.1255 57.0366 53.0255 57.0822 52.9255C57.1289 52.8233 57.1766 52.7222 57.2233 52.62C57.2544 52.5522 57.2844 52.4822 57.3144 52.4144C57.4422 52.13 57.57 51.8433 57.6955 51.5544C57.7455 51.4411 57.7955 51.3278 57.8444 51.2144C58.0155 50.8155 58.1866 50.4144 58.3544 50.0078C58.3766 49.9544 58.3988 49.8989 58.4211 49.8455C58.5677 49.4889 58.7133 49.1289 58.8577 48.7666C58.9111 48.6333 58.9633 48.5 59.0155 48.3655C59.1311 48.0711 59.2466 47.7744 59.3611 47.4766C59.4133 47.3389 59.4666 47.2022 59.5189 47.0644C59.6489 46.7222 59.7777 46.3778 59.9066 46.0322C59.9377 45.95 59.9677 45.8678 59.9989 45.7855C60.1566 45.3566 60.3133 44.9255 60.4688 44.4922C60.5111 44.3755 60.5522 44.2566 60.5944 44.14C60.71 43.8166 60.8244 43.4922 60.9389 43.1666C60.9911 43.0189 61.0422 42.87 61.0944 42.7211C61.2044 42.4044 61.3144 42.0878 61.4233 41.77C61.4677 41.6411 61.5122 41.5122 61.5566 41.3822C61.7066 40.9411 61.8566 40.5 62.0055 40.0555C62.0177 40.0189 62.03 39.9811 62.0422 39.9444C62.1811 39.53 62.32 39.1155 62.4577 38.6989C62.5066 38.5511 62.5555 38.4033 62.6044 38.2555C62.7089 37.9389 62.8133 37.6222 62.9177 37.3044C62.9677 37.1533 63.0177 37.0011 63.0666 36.85C63.1844 36.4922 63.3011 36.1344 63.4177 35.7766C63.4477 35.6833 63.4789 35.5911 63.5089 35.4978C63.6789 34.9755 63.85 34.4533 64.02 33.9311C64.1355 33.5778 64.2511 33.2233 64.3666 32.87C64.4166 32.7155 64.4677 32.5622 64.5177 32.4078C64.6244 32.0822 64.7311 31.7578 64.8377 31.4333C64.8844 31.29 64.9322 31.1466 64.9789 31.0033C65.1289 30.5466 65.28 30.0911 65.4311 29.6366L63.4666 26.9589C63.3155 27.4133 63.1644 27.8678 63.0144 28.3244C62.9666 28.4689 62.92 28.6133 62.8722 28.7566C62.7655 29.0811 62.6589 29.4044 62.5533 29.7289C62.5033 29.8833 62.4522 30.0366 62.4022 30.1911C62.2866 30.5444 62.1711 30.8977 62.0555 31.2522C61.8855 31.7744 61.7155 32.2966 61.5444 32.8189C61.5144 32.9122 61.4833 33.0044 61.4533 33.0978C61.3366 33.4566 61.2189 33.8144 61.1022 34.1722C61.0522 34.3233 61.0033 34.4733 60.9533 34.6244C60.8489 34.9433 60.7433 35.2622 60.6389 35.58C60.59 35.7266 60.5422 35.8733 60.4933 36.0189C60.3544 36.4366 60.2155 36.8544 60.0755 37.2711C60.0633 37.3055 60.0522 37.3411 60.04 37.3766C59.8911 37.82 59.7411 38.2611 59.5911 38.7022C59.5466 38.8333 59.5022 38.9622 59.4566 39.0933C59.3477 39.4111 59.2377 39.7278 59.1277 40.0444C59.0766 40.1933 59.0244 40.3411 58.9722 40.4889C58.8577 40.8144 58.7433 41.1378 58.6277 41.4611C58.5855 41.5789 58.5433 41.6978 58.5011 41.8155C58.3455 42.2489 58.1889 42.6789 58.0311 43.1078C58 43.1922 57.9689 43.2744 57.9377 43.3589C57.81 43.7033 57.6811 44.0466 57.5511 44.3878C57.4989 44.5255 57.4455 44.6633 57.3933 44.8C57.2788 45.0978 57.1633 45.3944 57.0477 45.6889C56.9955 45.8222 56.9422 45.9566 56.89 46.09C56.7455 46.4522 56.6 46.8122 56.4533 47.1689C56.4311 47.2222 56.4089 47.2778 56.3866 47.3311C56.2189 47.7378 56.0489 48.1389 55.8766 48.5378C55.8277 48.6522 55.7777 48.7644 55.7277 48.8789C55.6022 49.1678 55.4755 49.4544 55.3466 49.7389C55.2689 49.91 55.1922 50.0811 55.1144 50.2511C55.0689 50.3511 55.0222 50.4511 54.9766 50.55C54.8644 50.7911 54.7511 51.0311 54.6366 51.2689C54.6077 51.3289 54.5789 51.39 54.55 51.45C54.4077 51.7444 54.2644 52.0355 54.1189 52.3233C54.0811 52.3989 54.0422 52.4733 54.0033 52.5489C53.8944 52.7633 53.7844 52.9766 53.6733 53.1866C53.6233 53.2811 53.5733 53.3755 53.5233 53.47C53.4166 53.67 53.3089 53.8678 53.2 54.0644C53.1533 54.1489 53.1077 54.2333 53.0611 54.3166C52.9077 54.5911 52.7533 54.8622 52.5966 55.1289C52.5911 55.1389 52.5855 55.1478 52.58 55.1566C52.43 55.4111 52.2789 55.6622 52.1266 55.91C52.0666 56.0078 52.0055 56.1033 51.9444 56.2C51.8377 56.3689 51.7311 56.5378 51.6233 56.7033C51.5577 56.8044 51.4911 56.9055 51.4244 57.0055C51.3189 57.1644 51.2122 57.3222 51.1044 57.4778C51.0366 57.5755 50.9689 57.6744 50.9011 57.7711C50.7889 57.93 50.6766 58.0855 50.5633 58.2411C50.4989 58.3289 50.4344 58.4178 50.37 58.5055C50.2477 58.6689 50.1244 58.8278 50 58.9866C49.9389 59.0644 49.8789 59.1444 49.8177 59.2211C49.6322 59.4544 49.4444 59.6822 49.2533 59.9055L51.2177 62.5833C51.4089 62.36 51.5966 62.1311 51.7822 61.8989C51.8433 61.8222 51.9033 61.7422 51.9644 61.6644C52.0655 61.5344 52.1677 61.4066 52.2677 61.2744C52.29 61.2444 52.3122 61.2133 52.3344 61.1833C52.4 61.0966 52.4633 61.0078 52.5277 60.9189C52.6411 60.7633 52.7544 60.6078 52.8655 60.4489C52.9333 60.3522 53.0011 60.2533 53.0689 60.1555C53.1755 60 53.2822 59.8422 53.3877 59.6833C53.4544 59.5833 53.5211 59.4822 53.5877 59.38C53.6955 59.2144 53.8022 59.0466 53.9077 58.8778C53.9689 58.7811 54.03 58.6844 54.09 58.5866C54.1111 58.5511 54.1333 58.5178 54.1555 58.4822C54.2866 58.2689 54.4155 58.0522 54.5444 57.8333C54.55 57.8233 54.5555 57.8144 54.5611 57.8055C54.7233 57.5366 54.8766 57.2655 55.03 56.9911Z" fill="#E4E7EC"/>
<path d="M51.2222 62.8311C51.2189 62.8311 51.2156 62.8311 51.2133 62.8311C51.1367 62.8277 51.0667 62.7911 51.0211 62.7288L49.0567 60.0511C48.9878 59.9577 48.9933 59.8288 49.0678 59.7411C49.2467 59.5311 49.43 59.31 49.6267 59.0633C49.6633 59.0177 49.7 58.97 49.7356 58.9233L49.8078 58.8311C49.9311 58.6733 50.0533 58.5155 50.1745 58.3544C50.22 58.2933 50.2645 58.2322 50.31 58.17L50.3667 58.0922C50.4789 57.9377 50.5911 57.7833 50.7022 57.6255C50.77 57.5288 50.8367 57.4322 50.9045 57.3344C51.0111 57.18 51.1167 57.0233 51.2222 56.8655C51.2889 56.7655 51.3545 56.6666 51.42 56.5655C51.5267 56.4011 51.6333 56.2333 51.7389 56.0655L51.7911 55.9822C51.8333 55.9144 51.8767 55.8466 51.9189 55.7777C52.0845 55.5088 52.2322 55.2633 52.37 55.0288L52.3867 55.0011C52.5278 54.76 52.6789 54.4955 52.8478 54.1922C52.88 54.1355 52.9111 54.0777 52.9422 54.0211L52.9856 53.9422C53.0933 53.7466 53.2011 53.5488 53.3067 53.35C53.3567 53.2566 53.4067 53.1622 53.4567 53.0677C53.5667 52.8577 53.6767 52.6455 53.7856 52.4322L53.8322 52.3411C53.8545 52.2966 53.8778 52.2522 53.9 52.2077C54.0467 51.9155 54.1911 51.6233 54.3289 51.3377L54.4145 51.1577C54.5278 50.9211 54.6411 50.6822 54.7533 50.4411C54.7956 50.3511 54.8367 50.2611 54.8789 50.17L54.8911 50.1422C54.9689 49.9733 55.0456 49.8022 55.1233 49.6311C55.2511 49.3477 55.3778 49.0622 55.5022 48.7744L55.5567 48.65C55.5878 48.5788 55.6189 48.5066 55.65 48.4355C55.8322 48.0133 55.9978 47.62 56.1578 47.2322L56.2233 47.07C56.37 46.7144 56.5145 46.3555 56.6589 45.9944C56.7 45.8911 56.7411 45.7866 56.7822 45.6822L56.8167 45.5944C56.9322 45.3 57.0478 45.0044 57.1622 44.7066L57.1845 44.6488C57.23 44.5311 57.2756 44.4133 57.32 44.2944C57.45 43.9533 57.5778 43.6111 57.7056 43.2666L57.7989 43.0166C57.9567 42.5888 58.1122 42.1588 58.2678 41.7266L58.3945 41.3722C58.51 41.05 58.6245 40.7255 58.7378 40.4011L58.8922 39.9566C59.0022 39.6411 59.1111 39.3244 59.22 39.0066L59.3545 38.6166C59.5045 38.1766 59.6545 37.7355 59.8033 37.2922L59.8389 37.1877C59.9789 36.7722 60.1178 36.3544 60.2567 35.9366L60.4022 35.4977C60.5078 35.18 60.6122 34.8611 60.7167 34.5422L60.8656 34.09C60.9833 33.7322 61.1 33.3744 61.2167 33.0155L62.3156 29.6477C62.4222 29.3233 62.5278 28.9988 62.6345 28.6744L62.7767 28.2422C62.9267 27.7855 63.0778 27.33 63.2289 26.8766C63.2589 26.7877 63.3344 26.7233 63.4278 26.7088C63.52 26.6944 63.6133 26.7322 63.6678 26.8077L65.6322 29.4855C65.68 29.5511 65.6933 29.6355 65.6678 29.7122C65.5167 30.1666 65.3656 30.6222 65.2156 31.0777L65.0744 31.5066C64.9678 31.8311 64.8611 32.1555 64.7544 32.4811L63.6556 35.8488C63.5389 36.2077 63.4211 36.5655 63.3045 36.9233L63.1556 37.3777C63.0511 37.6955 62.9467 38.0122 62.8422 38.3288L62.6956 38.7722C62.5578 39.1888 62.4189 39.6044 62.28 40.0177L62.2433 40.1288C62.0945 40.5733 61.9445 41.0155 61.7933 41.4566L61.66 41.8444C61.5511 42.1633 61.4411 42.48 61.3311 42.7966L61.1756 43.2422C61.0611 43.5688 60.9467 43.8933 60.8311 44.2177L60.7056 44.5711C60.55 45.0055 60.3922 45.4377 60.2345 45.8666L60.1422 46.1133C60.0133 46.46 59.8845 46.8044 59.7545 47.1477C59.71 47.2644 59.6656 47.3811 59.6211 47.4977L59.5967 47.5611C59.4822 47.86 59.3667 48.1566 59.25 48.4522L59.2156 48.5411C59.1745 48.6455 59.1333 48.75 59.0922 48.8544C58.9478 49.2177 58.8022 49.5777 58.6545 49.9355L58.5878 50.0988C58.4267 50.4877 58.26 50.8833 58.0767 51.3088C58.0456 51.3811 58.0145 51.4533 57.9822 51.5244L57.9267 51.65C57.8 51.94 57.6733 52.2277 57.5445 52.5133L57.5022 52.6077C57.4856 52.6455 57.4689 52.6833 57.4522 52.72C57.4233 52.7822 57.3945 52.8444 57.3656 52.9066L57.2956 53.0588C57.2545 53.1477 57.2133 53.2377 57.1722 53.3266C57.0589 53.57 56.9456 53.81 56.83 54.05L56.7445 54.23C56.6056 54.5166 56.46 54.8111 56.3122 55.1066C56.2889 55.1522 56.2656 55.1977 56.2422 55.2433L56.1956 55.3355C56.0867 55.55 55.9756 55.7633 55.8656 55.9744C55.8156 56.07 55.7645 56.1644 55.7145 56.26C55.6067 56.4611 55.4989 56.66 55.39 56.8577L55.3467 56.9366C55.3145 56.9955 55.2822 57.0533 55.25 57.1111C55.0789 57.4166 54.9267 57.6833 54.7833 57.9277L54.7656 57.9566C54.6367 58.1766 54.5067 58.3944 54.3756 58.6088L54.31 58.7133C54.2667 58.7833 54.2233 58.8533 54.1789 58.9222L54.1256 59.0066C54.0189 59.1766 53.9122 59.3455 53.8033 59.5122C53.7367 59.6144 53.67 59.7155 53.6022 59.8177C53.4956 59.9777 53.3889 60.1366 53.2811 60.2933C53.2133 60.3922 53.1445 60.4911 53.0756 60.5888C52.9633 60.7488 52.8489 60.9066 52.7345 61.0622L52.6778 61.1411C52.6322 61.2044 52.5856 61.2666 52.54 61.3288L52.51 61.3688C52.4978 61.3866 52.4845 61.4033 52.4722 61.42C52.3978 61.5188 52.3222 61.6144 52.2467 61.71L52.0967 61.9022C52.0589 61.9511 52.0211 62.0011 51.9822 62.0488C51.7822 62.2988 51.5967 62.5255 51.4122 62.74C51.3645 62.7988 51.2956 62.8311 51.2222 62.8311ZM49.5767 59.9144L51.2367 62.1766C51.3511 62.0388 51.4689 61.8944 51.5922 61.74C51.6289 61.6944 51.6656 61.6466 51.7011 61.6L51.8545 61.4033C51.9278 61.31 52.0011 61.2166 52.0733 61.1211L52.14 61.0311C52.1856 60.9711 52.23 60.91 52.2745 60.8488L52.3322 60.77C52.4445 60.6155 52.5567 60.4611 52.6678 60.3033C52.7356 60.2066 52.8022 60.11 52.87 60.0122C52.9767 59.8577 53.0822 59.7011 53.1867 59.5433C53.2533 59.4433 53.3189 59.3433 53.3845 59.2422C53.4911 59.0777 53.5967 58.9111 53.7022 58.7433L53.7556 58.6577C53.7978 58.59 53.8411 58.5222 53.8833 58.4533L53.9478 58.35C54.0778 58.1377 54.2067 57.9222 54.3333 57.7044L54.35 57.6755C54.4911 57.4344 54.6422 57.17 54.8111 56.8677C54.8433 56.8111 54.8745 56.7533 54.9056 56.6966L54.9489 56.6177C55.0567 56.4222 55.1645 56.2244 55.27 56.0255C55.32 55.9322 55.37 55.8377 55.42 55.7433C55.53 55.5344 55.6389 55.3222 55.7478 55.11L55.7956 55.0166C55.8178 54.9722 55.8411 54.9277 55.8633 54.8833C56.0111 54.5911 56.1545 54.2988 56.2922 54.0144L56.3778 53.8355C56.4922 53.5977 56.6045 53.3588 56.7167 53.1177C56.7578 53.03 56.7989 52.9411 56.8389 52.8522L56.91 52.6977C56.9378 52.6366 56.9667 52.5755 56.9945 52.5144C57.01 52.4788 57.0256 52.4433 57.0411 52.4077C57.0556 52.3744 57.07 52.3411 57.0845 52.3088C57.2122 52.0255 57.3389 51.7388 57.4645 51.4511L57.52 51.3244C57.5511 51.2533 57.5822 51.1833 57.6122 51.1122C57.7945 50.6888 57.9611 50.2955 58.12 49.9088L58.1856 49.7466C58.3322 49.3911 58.4767 49.0322 58.6211 48.6711C58.6622 48.5677 58.7033 48.4644 58.7433 48.36L58.7778 48.2711C58.8933 47.9766 59.0089 47.6811 59.1233 47.3833L59.1478 47.32C59.1922 47.2044 59.2367 47.0888 59.2811 46.9722C59.4111 46.6311 59.54 46.2866 59.6678 45.9422L59.76 45.6955C59.9178 45.2677 60.0745 44.8366 60.23 44.4044L60.3556 44.0522C60.4711 43.7288 60.5856 43.4055 60.7 43.08L60.8556 42.6355C60.9656 42.32 61.0745 42.0022 61.1833 41.6855L61.3167 41.2988C61.4667 40.8588 61.6167 40.4166 61.7656 39.9733L61.8022 39.8622C61.9411 39.4488 62.0789 39.0333 62.2167 38.6177L62.3633 38.1744C62.4678 37.8577 62.5722 37.5411 62.6767 37.2233L62.8256 36.7688C62.9433 36.4111 63.06 36.0533 63.1767 35.6955L64.2756 32.3277C64.3822 32.0022 64.4889 31.6777 64.5956 31.3533L64.7367 30.9233C64.8733 30.5077 65.0111 30.0922 65.1489 29.6788L63.5478 27.4955C63.4478 27.7966 63.3478 28.0988 63.2489 28.4011L63.1067 28.8333C63 29.1566 62.8945 29.4811 62.7878 29.8055L61.6889 33.1733C61.5722 33.5322 61.4544 33.89 61.3378 34.2477L61.1889 34.7C61.0845 35.0188 60.9789 35.3377 60.8733 35.6555L60.7278 36.0944C60.5889 36.5133 60.45 36.9311 60.31 37.3477L60.2744 37.4533C60.1256 37.8966 59.9756 38.3388 59.8256 38.78L59.6911 39.1711C59.5822 39.4888 59.4722 39.8066 59.3622 40.1233L59.2067 40.5677C59.0922 40.8933 58.9778 41.2177 58.8622 41.5411L58.7356 41.8966C58.58 42.33 58.4233 42.7622 58.2656 43.19L58.1722 43.4411C58.0445 43.7866 57.9156 44.1311 57.7856 44.4722C57.74 44.5911 57.6945 44.71 57.6489 44.8277L57.6267 44.8855C57.5122 45.1844 57.3967 45.4811 57.28 45.7766L57.2456 45.8633C57.2045 45.9688 57.1633 46.0733 57.1211 46.1777C56.9767 46.5411 56.8311 46.9011 56.6833 47.2588L56.6167 47.4222C56.4556 47.8122 56.2878 48.2077 56.1056 48.6322C56.0745 48.7055 56.0422 48.7777 56.01 48.85L55.9556 48.9733C55.8289 49.2633 55.7022 49.55 55.5733 49.8355C55.4956 50.0077 55.4178 50.18 55.34 50.35L55.3333 50.3777C55.2911 50.4688 55.25 50.56 55.2078 50.6511C55.0945 50.8933 54.9811 51.1344 54.8667 51.3733L54.78 51.5555C54.6411 51.8433 54.4956 52.1377 54.3467 52.4322C54.3233 52.4777 54.3 52.5233 54.2767 52.5688L54.2311 52.6588C54.1211 52.8744 54.0111 53.0877 53.9 53.3C53.85 53.3955 53.7989 53.49 53.7489 53.5844C53.6411 53.7855 53.5333 53.9844 53.4245 54.1822L53.3811 54.2611C53.3489 54.32 53.3167 54.3777 53.2845 54.4355C53.1133 54.7411 52.9611 55.0088 52.8178 55.2522L52.8011 55.28C52.6611 55.5177 52.5122 55.7655 52.3445 56.0377C52.3011 56.1077 52.2578 56.1777 52.2133 56.2466L52.1611 56.33C52.0545 56.5 51.9467 56.67 51.8378 56.8366C51.7711 56.9388 51.7045 57.04 51.6378 57.1411C51.5311 57.3011 51.4245 57.46 51.3156 57.6166C51.2478 57.7155 51.1789 57.8144 51.11 57.9122C50.9978 58.0722 50.8833 58.23 50.7689 58.3855L50.7122 58.4622C50.6656 58.5255 50.62 58.5888 50.5733 58.6511C50.45 58.8155 50.3256 58.9766 50.2 59.1366L50.13 59.2266C50.0922 59.2755 50.0545 59.3255 50.0156 59.3733C49.8633 59.5677 49.7178 59.7455 49.5767 59.9144Z" fill="#F9FAFB"/>
<path d="M56.0678 34.7655L55.9211 35.6844H37.2045L37.3511 34.7655H56.0678Z" fill="#D0D5DD"/>
<path d="M55.9212 35.9344H37.2045C37.1312 35.9344 37.0623 35.9022 37.0145 35.8466C36.9667 35.7911 36.9467 35.7177 36.9578 35.6455L37.1045 34.7266C37.1234 34.6055 37.2289 34.5155 37.3512 34.5155H56.0678C56.1412 34.5155 56.2101 34.5477 56.2578 34.6033C56.3056 34.6588 56.3256 34.7322 56.3145 34.8044L56.1678 35.7233C56.1489 35.8455 56.0445 35.9344 55.9212 35.9344ZM37.4967 35.4344H55.7078L55.7745 35.0155H37.5634L37.4967 35.4344Z" fill="#D0D5DD"/>
<path d="M53.7322 40.6266L53.5856 41.5455H34.8678L35.0145 40.6266H53.7322Z" fill="#D0D5DD"/>
<path d="M53.5856 41.7955H34.8678C34.7945 41.7955 34.7256 41.7633 34.6778 41.7078C34.63 41.6522 34.61 41.5789 34.6212 41.5066L34.7678 40.5878C34.7867 40.4666 34.8923 40.3766 35.0145 40.3766H53.7323C53.8056 40.3766 53.8745 40.4089 53.9223 40.4644C53.97 40.52 53.99 40.5933 53.9789 40.6655L53.8323 41.5844C53.8134 41.7066 53.7089 41.7955 53.5856 41.7955ZM35.16 41.2955H53.3723L53.4389 40.8766H35.2278L35.16 41.2955Z" fill="#D0D5DD"/>
<path d="M52.5644 43.5555L52.4177 44.4744H33.6989L33.8455 43.5555H52.5644Z" fill="#D0D5DD"/>
<path d="M52.4179 44.7244H33.699C33.6257 44.7244 33.5568 44.6922 33.509 44.6367C33.4612 44.5811 33.4412 44.5078 33.4523 44.4355L33.599 43.5167C33.6179 43.3955 33.7234 43.3055 33.8457 43.3055H52.5634C52.6368 43.3055 52.7057 43.3378 52.7534 43.3933C52.8012 43.4489 52.8212 43.5222 52.8101 43.5944L52.6634 44.5133C52.6457 44.6355 52.5401 44.7244 52.4179 44.7244ZM33.9923 44.2244H52.2046L52.2712 43.8055H34.059L33.9923 44.2244Z" fill="#D0D5DD"/>
<path d="M54.9001 37.6955L54.7545 38.6144H36.0356L36.1823 37.6955H54.9001Z" fill="#D0D5DD"/>
<path d="M54.7546 38.8644H36.0357C35.9623 38.8644 35.8934 38.8322 35.8457 38.7766C35.7979 38.721 35.7779 38.6477 35.789 38.5755L35.9357 37.6566C35.9546 37.5355 36.0601 37.4455 36.1823 37.4455H54.9001C54.9735 37.4455 55.0423 37.4777 55.0901 37.5333C55.1379 37.5888 55.1579 37.6622 55.1468 37.7344L55.0001 38.6533C54.9812 38.7755 54.8768 38.8644 54.7546 38.8644ZM36.329 38.3644H54.5412L54.6079 37.9455H36.3957L36.329 38.3644Z" fill="#D0D5DD"/>
<path d="M96.4689 79.8811C97.7435 79.8811 98.7767 78.8479 98.7767 77.5733C98.7767 76.2988 97.7435 75.2656 96.4689 75.2656C95.1944 75.2656 94.1611 76.2988 94.1611 77.5733C94.1611 78.8479 95.1944 79.8811 96.4689 79.8811Z" fill="#F9FAFB"/>
<path d="M99.3477 79.1378C100.622 79.1378 101.655 78.1045 101.655 76.83C101.655 75.5554 100.622 74.5222 99.3477 74.5222C98.0731 74.5222 97.0399 75.5554 97.0399 76.83C97.0399 78.1045 98.0731 79.1378 99.3477 79.1378Z" fill="#F9FAFB"/>
<path d="M24.3933 72.1156C24.9977 72.1156 25.4877 71.6256 25.4877 71.0211C25.4877 70.4167 24.9977 69.9267 24.3933 69.9267C23.7888 69.9267 23.2988 70.4167 23.2988 71.0211C23.2988 71.6256 23.7888 72.1156 24.3933 72.1156Z" fill="#F9FAFB"/>
<path d="M23.2255 72.9056C23.83 72.9056 24.32 72.4156 24.32 71.8111C24.32 71.2067 23.83 70.7167 23.2255 70.7167C22.6211 70.7167 22.1311 71.2067 22.1311 71.8111C22.1311 72.4156 22.6211 72.9056 23.2255 72.9056Z" fill="#F9FAFB"/>
<path d="M25.1922 35.6845C26.1053 35.6845 26.8455 34.9443 26.8455 34.0311C26.8455 33.118 26.1053 32.3778 25.1922 32.3778C24.279 32.3778 23.5388 33.118 23.5388 34.0311C23.5388 34.9443 24.279 35.6845 25.1922 35.6845Z" fill="#F9FAFB"/>
<path d="M70.1289 38.5922C71.042 38.5922 71.7822 37.852 71.7822 36.9389C71.7822 36.0258 71.042 35.2856 70.1289 35.2856C69.2158 35.2856 68.4756 36.0258 68.4756 36.9389C68.4756 37.852 69.2158 38.5922 70.1289 38.5922Z" fill="#F9FAFB"/>
<path d="M70.9555 39.93C71.2771 39.93 71.5377 39.6693 71.5377 39.3478C71.5377 39.0262 71.2771 38.7656 70.9555 38.7656C70.634 38.7656 70.3733 39.0262 70.3733 39.3478C70.3733 39.6693 70.634 39.93 70.9555 39.93Z" fill="#F9FAFB"/>
<path d="M100.005 62.7122C100.69 62.7122 101.244 62.1575 101.244 61.4733C101.244 60.7891 100.69 60.2344 100.005 60.2344C99.3213 60.2344 98.7666 60.7891 98.7666 61.4733C98.7666 62.1575 99.3213 62.7122 100.005 62.7122Z" fill="#F7F9FC"/>
<path d="M101.453 60.6678C101.694 60.6678 101.89 60.4723 101.89 60.2311C101.89 59.9899 101.694 59.7944 101.453 59.7944C101.212 59.7944 101.017 59.9899 101.017 60.2311C101.017 60.4723 101.212 60.6678 101.453 60.6678Z" fill="#F9FAFB"/>
<path d="M106.953 44.5644C108.524 44.5644 109.798 43.2909 109.798 41.72C109.798 40.1491 108.524 38.8755 106.953 38.8755C105.382 38.8755 104.109 40.1491 104.109 41.72C104.109 43.2909 105.382 44.5644 106.953 44.5644Z" fill="#E4E7EC"/>
<path d="M104.109 40.3156C104.857 40.3156 105.463 39.7092 105.463 38.9611C105.463 38.2131 104.857 37.6067 104.109 37.6067C103.361 37.6067 102.755 38.2131 102.755 38.9611C102.755 39.7092 103.361 40.3156 104.109 40.3156Z" fill="#F9FAFB"/>
</svg>
