<svg width="120" height="120" viewBox="0 0 120 120" fill="none" xmlns="http://www.w3.org/2000/svg">
<path d="M60 98.1578C82.6553 98.1578 101.021 90.953 101.021 82.0655C101.021 73.1781 82.6553 65.9733 60 65.9733C37.3447 65.9733 18.9789 73.1781 18.9789 82.0655C18.9789 90.953 37.3447 98.1578 60 98.1578Z" fill="#F9FAFB"/>
<path d="M43.06 45.5945L44.7822 47.9423H35.6878L33.9656 45.5945H43.06Z" fill="#475367"/>
<path d="M44.7822 48.1089H35.6877C35.6344 48.1089 35.5844 48.0834 35.5533 48.0411L33.831 45.6933C33.7944 45.6422 33.7888 45.5756 33.8166 45.5189C33.8444 45.4634 33.9022 45.4278 33.9655 45.4278H43.0599C43.1133 45.4278 43.1633 45.4533 43.1944 45.4956L44.9166 47.8434C44.9533 47.8945 44.9588 47.9611 44.931 48.0178C44.9022 48.0734 44.8455 48.1089 44.7822 48.1089ZM35.7722 47.7756H44.4533L42.9755 45.7611H34.2944L35.7722 47.7756Z" fill="#F9FAFB"/>
<path d="M43.0599 45.5944C42.771 49.5255 42.0288 53.1822 40.3166 56.2522H32.2666H25.3999C26.4432 54.2333 27.3655 50.7644 28.1432 45.5944H33.9655H43.0599ZM40.2921 48.3322C40.5221 48.3322 40.7377 48.1522 40.7732 47.9289C40.8088 47.7066 40.6499 47.5266 40.4199 47.5266H29.9421C29.7121 47.5266 29.4966 47.7066 29.461 47.9289C29.4255 48.1522 29.5832 48.3322 29.8143 48.3322H40.2921ZM39.1455 52.9966C39.3755 52.9966 39.591 52.8166 39.6266 52.5933C39.6621 52.3711 39.5032 52.1911 39.2732 52.1911H28.7955C28.5655 52.1911 28.3499 52.3711 28.3143 52.5933C28.2788 52.8166 28.4366 52.9966 28.6677 52.9966H39.1455ZM39.9199 50.6644C40.1499 50.6644 40.3655 50.4844 40.401 50.2622C40.4366 50.04 40.2777 49.86 40.0477 49.86H29.5699C29.3399 49.86 29.1243 50.04 29.0888 50.2622C29.0532 50.4844 29.2121 50.6644 29.4421 50.6644H39.9199Z" fill="#F7F9FC"/>
<path d="M40.3167 56.4189H25.4C25.3422 56.4189 25.2878 56.3889 25.2578 56.3389C25.2278 56.2889 25.2255 56.2277 25.2522 56.1755C26.31 54.13 27.2278 50.5611 27.9789 45.5689C27.9911 45.4877 28.0611 45.4266 28.1433 45.4266H43.06C43.1067 45.4266 43.1511 45.4455 43.1822 45.48C43.2133 45.5144 43.23 45.56 43.2267 45.6055C42.8933 50.1389 42.0155 53.5477 40.4622 56.3322C40.4322 56.3866 40.3767 56.4189 40.3167 56.4189ZM25.6689 56.0855H40.2178C41.6967 53.3966 42.5444 50.1077 42.88 45.7611H28.2867C27.5622 50.5255 26.6822 53.9955 25.6689 56.0855ZM39.1455 53.1633H28.6678C28.5078 53.1633 28.36 53.0977 28.2622 52.9833C28.1655 52.87 28.1255 52.7222 28.15 52.5666C28.1989 52.2622 28.4822 52.0233 28.7955 52.0233H39.2733C39.4333 52.0233 39.5822 52.0889 39.6789 52.2033C39.7755 52.3166 39.8155 52.4644 39.7911 52.6189C39.7422 52.9244 39.4589 53.1633 39.1455 53.1633ZM28.7955 52.3577C28.6467 52.3577 28.5011 52.4777 28.4789 52.62C28.47 52.6777 28.4822 52.7289 28.5155 52.7677C28.55 52.8077 28.6044 52.83 28.6678 52.83H39.1455C39.2944 52.83 39.44 52.71 39.4622 52.5666C39.4711 52.5089 39.4589 52.4589 39.4255 52.42C39.3911 52.38 39.3367 52.3566 39.2733 52.3566H28.7955V52.3577ZM39.92 50.8311H29.4422C29.2822 50.8311 29.1333 50.7655 29.0367 50.6511C28.94 50.5377 28.9 50.39 28.9244 50.2355C28.9733 49.9311 29.2567 49.6922 29.57 49.6922H40.0478C40.2078 49.6922 40.3567 49.7577 40.4533 49.8722C40.55 49.9855 40.59 50.1333 40.5644 50.2877C40.5178 50.5922 40.2344 50.8311 39.92 50.8311ZM29.5711 50.0255C29.4222 50.0255 29.2767 50.1455 29.2544 50.2877C29.2455 50.3455 29.2578 50.3955 29.2911 50.4344C29.3255 50.4744 29.38 50.4977 29.4433 50.4977H39.9211C40.07 50.4977 40.2155 50.3777 40.2378 50.2355C40.2467 50.1777 40.2344 50.1277 40.2011 50.0889C40.1667 50.0489 40.1122 50.0255 40.0489 50.0255H29.5711ZM40.2922 48.4989H29.8144C29.6544 48.4989 29.5067 48.4333 29.4089 48.3189C29.3122 48.2055 29.2722 48.0577 29.2967 47.9022C29.3455 47.5977 29.6289 47.3589 29.9422 47.3589H40.42C40.58 47.3589 40.7289 47.4244 40.8255 47.5389C40.9222 47.6522 40.9622 47.8 40.9367 47.9544C40.89 48.26 40.6055 48.4989 40.2922 48.4989ZM29.9433 47.6933C29.7944 47.6933 29.6489 47.8133 29.6267 47.9555C29.6178 48.0133 29.63 48.0644 29.6633 48.1033C29.6978 48.1433 29.7522 48.1655 29.8155 48.1655H40.2933C40.4422 48.1655 40.5878 48.0455 40.61 47.9022C40.6189 47.8444 40.6067 47.7944 40.5733 47.7555C40.5389 47.7155 40.4844 47.6922 40.4211 47.6922H29.9433V47.6933Z" fill="#F9FAFB"/>
<path d="M39.2733 52.1911C39.5033 52.1911 39.6622 52.3711 39.6266 52.5933C39.5911 52.8167 39.3755 52.9967 39.1455 52.9967H28.6678C28.4378 52.9967 28.2789 52.8167 28.3144 52.5933C28.35 52.3711 28.5655 52.1911 28.7955 52.1911H39.2733Z" fill="#D0D5DD"/>
<path d="M39.1456 53.1633H28.6679C28.5079 53.1633 28.3601 53.0978 28.2623 52.9833C28.1656 52.87 28.1256 52.7222 28.1501 52.5667C28.199 52.2622 28.4823 52.0233 28.7956 52.0233H39.2734C39.4334 52.0233 39.5823 52.0889 39.679 52.2033C39.7756 52.3166 39.8156 52.4644 39.7912 52.6189C39.7423 52.9244 39.459 53.1633 39.1456 53.1633ZM28.7956 52.3578C28.6467 52.3578 28.5012 52.4778 28.479 52.62C28.4701 52.6778 28.4823 52.7289 28.5156 52.7678C28.5501 52.8078 28.6045 52.83 28.6679 52.83H39.1456C39.2945 52.83 39.4401 52.71 39.4623 52.5667C39.4712 52.5089 39.459 52.4589 39.4256 52.42C39.3912 52.38 39.3367 52.3566 39.2734 52.3566H28.7956V52.3578Z" fill="#D0D5DD"/>
<path d="M62.6133 39.67L61.7044 45.3689C59.4044 45.3689 57.2544 47.1666 56.8999 49.3844C56.5466 51.6033 58.1233 53.4 60.4233 53.4L59.5144 59.0989H49.8266C49.4733 61.3166 47.3222 63.1144 45.021 63.1144C42.7222 63.1144 41.1444 61.3166 41.4977 59.0989H31.8099L32.2644 56.2522H40.3144C42.0266 53.1811 42.7699 49.5255 43.0577 45.5944H33.9633L34.7477 40.6778C34.8366 40.1211 35.3766 39.67 35.9522 39.67H62.6133Z" fill="#D0D5DD"/>
<path d="M45.0221 63.2811C43.8421 63.2811 42.8077 62.8311 42.1099 62.0122C41.4733 61.2666 41.1921 60.2966 41.3088 59.2655H31.8121C31.7633 59.2655 31.7166 59.2444 31.6855 59.2066C31.6544 59.17 31.6399 59.12 31.6477 59.0722L32.1021 56.2255C32.1155 56.1444 32.1844 56.0855 32.2666 56.0855H40.2188C41.6977 53.3966 42.5455 50.1077 42.881 45.7611H33.9666C33.9177 45.7611 33.871 45.74 33.8399 45.7022C33.8088 45.6655 33.7944 45.6155 33.8021 45.5677L34.5866 40.6511C34.6877 40.0177 35.3021 39.5033 35.9555 39.5033H62.6144C62.6633 39.5033 62.7099 39.5244 62.741 39.5622C62.7721 39.5989 62.7866 39.6489 62.7788 39.6966L61.8699 45.3955C61.8566 45.4766 61.7877 45.5355 61.7055 45.5355C59.4877 45.5355 57.4066 47.2744 57.0655 49.4111C56.9055 50.4177 57.1533 51.3666 57.7644 52.0822C58.3977 52.8244 59.3421 53.2333 60.4233 53.2333C60.4721 53.2333 60.5188 53.2544 60.5499 53.2922C60.581 53.3289 60.5955 53.3789 60.5877 53.4266L59.6788 59.1255C59.6655 59.2066 59.5966 59.2655 59.5144 59.2655H49.9666C49.5355 61.4933 47.3488 63.2811 45.0221 63.2811ZM32.0077 58.9322H41.4999C41.5488 58.9322 41.5955 58.9533 41.6266 58.9911C41.6577 59.0277 41.6721 59.0777 41.6644 59.1255C41.5044 60.1311 41.7521 61.08 42.3644 61.7966C42.9977 62.5388 43.9421 62.9488 45.0233 62.9488C47.241 62.9488 49.3233 61.21 49.6644 59.0733C49.6777 58.9922 49.7466 58.9333 49.8288 58.9333H59.3744L60.231 53.5633C59.131 53.5166 58.1721 53.0722 57.5133 52.2989C56.8377 51.5066 56.5621 50.4622 56.7388 49.3589C57.0966 47.1133 59.2444 45.2777 61.5655 45.2044L62.4221 39.8366H35.9544C35.4566 39.8366 34.991 40.2255 34.9144 40.7044L34.161 45.4277H43.0599C43.1066 45.4277 43.151 45.4466 43.1822 45.4811C43.2133 45.5155 43.2299 45.5611 43.2266 45.6066C42.8933 50.14 42.0155 53.5489 40.4621 56.3333C40.4321 56.3866 40.3766 56.4188 40.3166 56.4188H32.4088L32.0077 58.9322Z" fill="#F9FAFB"/>
<path d="M42.6288 78.5289H29.7576C29.6388 78.5289 29.5276 78.51 29.4276 78.4745C29.2599 78.4156 29.121 78.3122 29.0221 78.1789L30.7443 80.5267C30.9021 80.7411 31.1632 80.8767 31.4799 80.8767H44.3521L42.6288 78.5289Z" fill="#D0D5DD"/>
<path d="M44.3511 81.0433H31.4788C31.1211 81.0433 30.8044 80.8911 30.6088 80.6255L28.8877 78.2789L28.8866 78.2777C28.8322 78.2033 28.8488 78.0989 28.9222 78.0444C28.9955 77.99 29.1011 78.0055 29.1555 78.08C29.2355 78.1877 29.3477 78.27 29.4811 78.3166C29.5666 78.3466 29.6588 78.3611 29.7566 78.3611H42.6288C42.6822 78.3611 42.7322 78.3866 42.7633 78.4288L44.4855 80.7766C44.5222 80.8277 44.5277 80.8944 44.4999 80.9511C44.4711 81.0077 44.4144 81.0433 44.3511 81.0433ZM29.5999 78.6855L30.8777 80.4277C31.0088 80.6066 31.2288 80.71 31.4788 80.71H44.0222L42.5444 78.6955H29.7577C29.7044 78.6955 29.6511 78.6922 29.5999 78.6855Z" fill="#F9FAFB"/>
<path d="M91.8877 42.9067C91.8889 42.8867 91.8889 42.8678 91.8889 42.8489C91.8889 42.8378 91.8877 42.8267 91.8866 42.8156C91.8855 42.7989 91.8844 42.7811 91.8822 42.7645C91.8811 42.7522 91.8789 42.7411 91.8766 42.73C91.8744 42.72 91.8744 42.7089 91.8722 42.6978C91.8711 42.6945 91.87 42.6911 91.8689 42.6878C91.8611 42.65 91.8511 42.6145 91.8389 42.5789C91.8377 42.5767 91.8377 42.5756 91.8377 42.5734C91.8355 42.5667 91.8322 42.5611 91.83 42.5545C91.8211 42.5334 91.8122 42.5111 91.8022 42.4911C91.8 42.4867 91.7989 42.4822 91.7966 42.4778C91.7933 42.4722 91.79 42.4667 91.7866 42.46C91.7777 42.4445 91.7689 42.4289 91.76 42.4145C91.7566 42.4089 91.7533 42.4022 91.75 42.3967C91.7433 42.3867 91.7366 42.3767 91.73 42.3678L90.0078 40.02C90.0189 40.0356 90.0289 40.0511 90.0389 40.0667C90.0477 40.0811 90.0566 40.0967 90.0655 40.1122C90.0711 40.1222 90.0766 40.1322 90.0822 40.1434C90.0922 40.1645 90.1011 40.1856 90.11 40.2067C90.1133 40.2145 90.1166 40.2222 90.12 40.2311C90.1322 40.2667 90.1422 40.3022 90.15 40.34C90.1533 40.3545 90.1555 40.3678 90.1577 40.3822C90.16 40.3934 90.1611 40.4056 90.1633 40.4167C90.1655 40.4334 90.1666 40.4511 90.1678 40.4678C90.1689 40.4789 90.17 40.49 90.17 40.5011C90.17 40.52 90.17 40.54 90.1689 40.56C90.1689 40.57 90.1689 40.5789 90.1678 40.5889C90.1655 40.6189 90.1622 40.6478 90.1577 40.6789L89.1222 47.17L90.8444 49.5178L91.88 43.0267C91.8844 42.9967 91.8877 42.9667 91.89 42.9378C91.8877 42.9267 91.8877 42.9167 91.8877 42.9067Z" fill="#D0D5DD"/>
<path d="M90.8423 49.6834C90.7901 49.6834 90.7401 49.6589 90.7078 49.6156L88.9856 47.2678C88.9589 47.2322 88.9489 47.1867 88.9556 47.1434L89.9912 40.6522C89.9956 40.6267 89.9978 40.6022 90.0001 40.5778L90.0012 40.5534C90.0012 40.5378 90.0023 40.5222 90.0023 40.5056L90.0012 40.4778C90.0001 40.4645 89.9989 40.45 89.9978 40.4367L89.9945 40.4156C89.9912 40.3978 89.9901 40.3867 89.9878 40.3745C89.9812 40.3434 89.9734 40.3134 89.9634 40.2867C89.9634 40.2856 89.9556 40.2689 89.9556 40.2678C89.9489 40.25 89.9412 40.2334 89.9334 40.2167L89.9201 40.1922C89.9134 40.1811 89.9067 40.1678 89.899 40.1567C89.889 40.14 89.8823 40.13 89.8756 40.12C89.8212 40.0456 89.8367 39.9411 89.9112 39.8867C89.9856 39.8322 90.0901 39.8478 90.1445 39.9222L90.1456 39.9234L91.8667 42.27C91.8756 42.2822 91.8834 42.2934 91.8912 42.3056C91.8956 42.3111 91.9001 42.3189 91.9034 42.3267C91.9145 42.3445 91.9256 42.3622 91.9356 42.3811C91.9401 42.3889 91.9445 42.3956 91.9478 42.4022C91.9501 42.4067 91.9556 42.4178 91.9567 42.4234C91.9667 42.4445 91.9778 42.47 91.9878 42.4956C91.9912 42.5011 91.9934 42.5089 91.9967 42.5156C91.9978 42.52 92.0001 42.5245 92.0012 42.53C92.0145 42.5678 92.0256 42.6078 92.0345 42.65C92.0356 42.6545 92.0378 42.6611 92.0378 42.6645C92.0401 42.6767 92.0412 42.6867 92.0434 42.6967L92.0456 42.7111C92.0478 42.7234 92.049 42.7345 92.0512 42.7467C92.0534 42.7678 92.0545 42.7878 92.0556 42.8078C92.0567 42.8245 92.0578 42.8356 92.0578 42.8467C92.0578 42.8689 92.0578 42.8889 92.0567 42.91C92.0567 42.9111 92.0567 42.9167 92.0567 42.9167V42.9245C92.0567 42.9322 92.0567 42.9411 92.0556 42.9489C92.0534 42.9834 92.049 43.0189 92.0434 43.0534L91.0078 49.5445C90.9967 49.6111 90.9478 49.6645 90.8823 49.68C90.8678 49.6811 90.8556 49.6834 90.8423 49.6834ZM89.2956 47.1256L90.7401 49.0956L91.7123 42.9989C91.7167 42.9734 91.7189 42.9489 91.7212 42.9245V42.9011V42.8967C91.7212 42.8822 91.7223 42.8667 91.7223 42.8522L91.7212 42.8356C91.7212 42.8345 91.7201 42.8256 91.7201 42.8245C91.7189 42.8111 91.719 42.7967 91.7167 42.7834L91.7101 42.7378C91.7101 42.7345 91.7078 42.7256 91.7056 42.7178C91.7001 42.69 91.6912 42.6611 91.6823 42.6345C91.6823 42.6334 91.6812 42.6311 91.6801 42.6289C91.6789 42.6256 91.6756 42.6211 91.6745 42.6156C91.6678 42.5978 91.6601 42.5811 91.6523 42.5645C91.6512 42.5622 91.649 42.5567 91.6467 42.5534C91.6434 42.5489 91.6401 42.5422 91.6389 42.54C91.6323 42.5278 91.6256 42.5156 91.6178 42.5034C91.6167 42.5011 91.6101 42.4911 91.6089 42.4878C91.6045 42.4811 91.599 42.4734 91.5934 42.4656L90.3156 40.7234L89.2956 47.1256Z" fill="#F9FAFB"/>
<path d="M56.4167 78.5289L58.1389 80.8766H44.3511L42.6289 78.5289H56.4167Z" fill="#98A2B3"/>
<path d="M58.1389 81.0434H44.3512C44.2978 81.0434 44.2478 81.0178 44.2167 80.9756L42.4945 78.6278C42.4578 78.5767 42.4523 78.51 42.48 78.4534C42.5078 78.3978 42.5656 78.3622 42.6289 78.3622H56.4156C56.4689 78.3622 56.5189 78.3878 56.5501 78.43L58.2723 80.7778C58.3089 80.8289 58.3145 80.8956 58.2867 80.9522C58.2589 81.0078 58.2012 81.0434 58.1389 81.0434ZM44.4356 80.71H57.8089L56.3312 78.6956H42.9578L44.4356 80.71Z" fill="#F9FAFB"/>
<path d="M59.5155 59.0989L58.6066 64.7978C60.9055 64.7978 62.4833 66.5956 62.1299 68.8134C61.7766 71.0323 59.6255 72.8289 57.3255 72.8289L56.4166 78.5278H42.6288H29.7577C29.1822 78.5278 28.7855 78.0778 28.8744 77.5212L31.8122 59.0989H41.4999C41.1466 61.3167 42.7233 63.1145 45.0233 63.1145C47.3233 63.1145 49.4744 61.3167 49.8288 59.0989H59.5155Z" fill="#F7F9FC"/>
<path d="M56.4166 78.6956H29.7577C29.4244 78.6956 29.1311 78.5667 28.9322 78.3333C28.7389 78.1067 28.66 77.8089 28.71 77.4956L31.6477 59.0733C31.6611 58.9922 31.73 58.9333 31.8122 58.9333H41.5C41.5489 58.9333 41.5955 58.9545 41.6266 58.9922C41.6577 59.0289 41.6722 59.0789 41.6644 59.1267C41.5044 60.1322 41.7522 61.0811 42.3644 61.7978C42.9977 62.54 43.9422 62.95 45.0233 62.95C47.2411 62.95 49.3233 61.2111 49.6644 59.0745C49.6777 58.9933 49.7466 58.9345 49.8289 58.9345H59.5166C59.5655 58.9345 59.6122 58.9556 59.6433 58.9933C59.6744 59.03 59.6889 59.08 59.6811 59.1278L58.8022 64.6378C59.9011 64.6845 60.8611 65.13 61.52 65.9022C62.1955 66.6945 62.4711 67.7389 62.2944 68.8422C61.9366 71.0878 59.7889 72.9233 57.4677 72.9967L56.5811 78.5578C56.5677 78.6356 56.4977 78.6956 56.4166 78.6956ZM31.9544 59.2656L29.0389 77.5478C29.0044 77.7633 29.0566 77.9656 29.1855 78.1167C29.32 78.2745 29.5233 78.3622 29.7577 78.3622H56.2744L57.1611 72.8033C57.1744 72.7222 57.2433 72.6633 57.3255 72.6633C59.5433 72.6633 61.6244 70.9245 61.9655 68.7878C62.1255 67.7822 61.8777 66.8333 61.2666 66.1167C60.6333 65.3745 59.6889 64.9656 58.6077 64.9656C58.5589 64.9656 58.5122 64.9445 58.4811 64.9067C58.45 64.87 58.4355 64.82 58.4433 64.7722L59.3211 59.2667H49.9689C49.5366 61.4933 47.35 63.2822 45.0244 63.2822C43.8444 63.2822 42.81 62.8322 42.1122 62.0133C41.4755 61.2678 41.1944 60.2978 41.3111 59.2667H31.9544V59.2656Z" fill="#F9FAFB"/>
<path d="M86.3844 64.3211L88.1066 66.6689H73.91L72.1888 64.3211H86.3844Z" fill="#98A2B3"/>
<path d="M88.1067 66.8355H73.91C73.8567 66.8355 73.8067 66.81 73.7756 66.7677L72.0533 64.42C72.0167 64.3689 72.0111 64.3022 72.0389 64.2455C72.0667 64.19 72.1244 64.1544 72.1878 64.1544H86.3833C86.4367 64.1544 86.4867 64.18 86.5178 64.2222L88.24 66.57C88.2767 66.6211 88.2822 66.6878 88.2544 66.7444C88.2267 66.8 88.1689 66.8355 88.1067 66.8355ZM73.9944 66.5022H87.7778L86.3 64.4878H72.5178L73.9944 66.5022Z" fill="#F9FAFB"/>
<path d="M94.5799 47.1689L96.3021 49.5167L95.3155 55.7033L93.5933 53.3544L94.5799 47.1689Z" fill="#E4E7EC"/>
<path d="M95.3145 55.8699C95.2622 55.8699 95.2122 55.8455 95.18 55.8022L93.4578 53.4544C93.4311 53.4188 93.4211 53.3733 93.4278 53.3299L94.4144 47.1433C94.4256 47.0766 94.4744 47.0233 94.54 47.0077C94.6056 46.9922 94.6744 47.0166 94.7133 47.0711L96.4356 49.4188C96.4622 49.4544 96.4722 49.4999 96.4656 49.5433L95.4789 55.73C95.4678 55.7966 95.4189 55.85 95.3533 55.8655C95.3411 55.8677 95.3278 55.8699 95.3145 55.8699ZM93.7689 53.3122L95.2133 55.2822L96.1256 49.5588L94.6811 47.5888L93.7689 53.3122Z" fill="#F9FAFB"/>
<path d="M89.12 47.1689H94.58L93.5933 53.3556H88.1333H84.8922L85.8789 47.1689H89.12ZM92.4655 51.3967C92.6955 51.3967 92.9111 51.2167 92.9467 50.9933C92.9822 50.7711 92.8233 50.5911 92.5933 50.5911H86.7522C86.5222 50.5911 86.3067 50.7711 86.2711 50.9933C86.2355 51.2167 86.3933 51.3967 86.6244 51.3967H92.4655ZM92.7678 49.5022C92.9978 49.5022 93.2133 49.3222 93.2489 49.1C93.2844 48.8767 93.1267 48.6967 92.8955 48.6967H87.0555C86.8255 48.6967 86.61 48.8767 86.5744 49.1C86.5389 49.3222 86.6978 49.5022 86.9278 49.5022H92.7678Z" fill="#F7F9FC"/>
<path d="M93.5933 53.5211H84.8922C84.8433 53.5211 84.7967 53.5 84.7656 53.4622C84.7344 53.4255 84.72 53.3755 84.7278 53.3278L85.7144 47.1411C85.7278 47.06 85.7967 47.0011 85.8789 47.0011H94.58C94.6289 47.0011 94.6756 47.0222 94.7067 47.06C94.7378 47.0967 94.7522 47.1467 94.7444 47.1944L93.7578 53.3811C93.7444 53.4622 93.6745 53.5211 93.5933 53.5211ZM85.0878 53.1878H93.4511L94.3845 47.3344H86.0211L85.0878 53.1878ZM92.4656 51.5633H86.6244C86.4644 51.5633 86.3167 51.4978 86.2189 51.3833C86.1222 51.27 86.0822 51.1222 86.1067 50.9667C86.1556 50.6622 86.4389 50.4233 86.7522 50.4233H92.5933C92.7533 50.4233 92.9022 50.4889 92.9989 50.6033C93.0956 50.7167 93.1356 50.8644 93.1111 51.0189C93.0633 51.3244 92.7789 51.5633 92.4656 51.5633ZM86.7533 50.7578C86.6045 50.7578 86.4589 50.8778 86.4367 51.02C86.4278 51.0778 86.44 51.1289 86.4733 51.1678C86.5078 51.2078 86.5622 51.23 86.6256 51.23H92.4667C92.6156 51.23 92.7611 51.11 92.7833 50.9667C92.7922 50.9089 92.78 50.8589 92.7467 50.82C92.7122 50.78 92.6578 50.7567 92.5944 50.7567H86.7533V50.7578ZM92.7678 49.6689H86.9267C86.7667 49.6689 86.6178 49.6033 86.5211 49.4889C86.4244 49.3755 86.3844 49.2278 86.41 49.0733C86.4589 48.7689 86.7422 48.53 87.0556 48.53H92.8967C93.0567 48.53 93.2044 48.5955 93.3022 48.71C93.3989 48.8233 93.4389 48.9711 93.4144 49.1267C93.3656 49.43 93.0811 49.6689 92.7678 49.6689ZM87.0556 48.8633C86.9067 48.8633 86.7611 48.9833 86.7389 49.1267C86.73 49.1844 86.7422 49.2344 86.7756 49.2733C86.81 49.3133 86.8644 49.3367 86.9278 49.3367H92.7689C92.9178 49.3367 93.0633 49.2167 93.0856 49.0744C93.0945 49.0167 93.0822 48.9655 93.0489 48.9267C93.0144 48.8867 92.96 48.8644 92.8967 48.8644H87.0556V48.8633Z" fill="#F9FAFB"/>
<path d="M89.2722 39.67C89.8488 39.67 90.2444 40.1211 90.1555 40.6778L89.1199 47.1689H85.8788L84.8922 53.3555H88.1333L87.2166 59.1H78.1222C78.4755 56.8811 76.8988 55.0844 74.5988 55.0844C72.2999 55.0844 70.1488 56.8811 69.7944 59.1H59.5155L60.4244 53.4011C58.1244 53.4011 56.5477 51.6033 56.901 49.3855C57.2544 47.1678 59.4044 45.37 61.7055 45.37L62.6144 39.6711H89.2722V39.67Z" fill="#D0D5DD"/>
<path d="M87.2177 59.2655H78.1221C78.0733 59.2655 78.0266 59.2444 77.9955 59.2066C77.9644 59.17 77.9499 59.12 77.9577 59.0722C78.1177 58.0655 77.8699 57.1178 77.2588 56.4011C76.6255 55.6589 75.681 55.25 74.5988 55.25C72.381 55.25 70.2999 56.9889 69.9588 59.1255C69.9455 59.2066 69.8766 59.2655 69.7944 59.2655H59.5155C59.4666 59.2655 59.4199 59.2444 59.3888 59.2066C59.3577 59.17 59.3433 59.12 59.351 59.0722L60.2299 53.5622C59.1299 53.5155 58.171 53.0711 57.5121 52.2978C56.8366 51.5055 56.561 50.4611 56.7377 49.3578C57.0955 47.1122 59.2433 45.2766 61.5644 45.2033L62.451 39.6422C62.4644 39.5611 62.5333 39.5022 62.6155 39.5022H89.2733C89.6066 39.5022 89.8988 39.6311 90.0988 39.8644C90.2921 40.0911 90.3721 40.39 90.321 40.7033L89.2855 47.1944C89.2721 47.2755 89.2033 47.3344 89.121 47.3344H86.0221L85.0888 53.1878H88.1344C88.1833 53.1878 88.2299 53.2089 88.261 53.2466C88.2921 53.2833 88.3066 53.3333 88.2988 53.3811L87.3821 59.1255C87.3688 59.2066 87.2988 59.2655 87.2177 59.2655ZM78.3133 58.9322H87.0755L87.9388 53.5211H84.8933C84.8444 53.5211 84.7977 53.5 84.7666 53.4622C84.7355 53.4255 84.721 53.3755 84.7288 53.3278L85.7155 47.1411C85.7288 47.06 85.7977 47.0011 85.8799 47.0011H88.9788L89.991 40.65C90.0255 40.4344 89.9733 40.2311 89.8444 40.08C89.7099 39.9222 89.5066 39.8355 89.2733 39.8355H62.7555L61.8688 45.3944C61.8555 45.4755 61.7866 45.5344 61.7044 45.5344C59.4866 45.5344 57.4055 47.2733 57.0644 49.41C56.9044 50.4166 57.1521 51.3655 57.7633 52.0811C58.3966 52.8233 59.341 53.2322 60.4221 53.2322C60.471 53.2322 60.5177 53.2533 60.5488 53.2911C60.5799 53.3278 60.5944 53.3778 60.5866 53.4255L59.7088 58.9311H69.6533C70.0855 56.7044 72.2721 54.9155 74.5977 54.9155C75.7788 54.9155 76.8133 55.3655 77.511 56.1844C78.1477 56.9311 78.4288 57.9 78.3133 58.9322Z" fill="#F9FAFB"/>
<path d="M88.1332 53.3544L89.8554 55.7033L88.9388 61.4467L87.2166 59.0989L88.1332 53.3544Z" fill="#D0D5DD"/>
<path d="M88.9388 61.6133C88.8866 61.6133 88.8366 61.5889 88.8044 61.5456L87.0822 59.1978C87.0555 59.1622 87.0455 59.1167 87.0522 59.0733L87.9688 53.3289C87.9799 53.2622 88.0288 53.2089 88.0944 53.1933C88.1599 53.1778 88.2288 53.2022 88.2677 53.2567L89.9899 55.6044C90.0166 55.64 90.0266 55.6856 90.02 55.7289L89.1033 61.4733C89.0922 61.54 89.0433 61.5933 88.9777 61.6089C88.9655 61.6122 88.9522 61.6133 88.9388 61.6133ZM87.3933 59.0567L88.8377 61.0267L89.68 55.7456L88.2355 53.7756L87.3933 59.0567Z" fill="#F9FAFB"/>
<path d="M87.2166 59.0989L88.9388 61.4467L88.1066 66.6689L86.3844 64.3212L87.2166 59.0989Z" fill="#D0D5DD"/>
<path d="M88.1067 66.8356C88.0545 66.8356 88.0045 66.8111 87.9722 66.7678L86.25 64.42C86.2234 64.3845 86.2134 64.3389 86.22 64.2956L87.0534 59.0733C87.0645 59.0067 87.1134 58.9533 87.1789 58.9378C87.2445 58.9222 87.3134 58.9467 87.3522 59.0011L89.0745 61.3489C89.1011 61.3844 89.1111 61.43 89.1045 61.4733L88.2711 66.6956C88.26 66.7622 88.2111 66.8156 88.1456 66.8311C88.1322 66.8344 88.12 66.8356 88.1067 66.8356ZM86.56 64.2789L88.0045 66.2489L88.7634 61.49L87.3189 59.52L86.56 64.2789Z" fill="#F9FAFB"/>
<path d="M70.2022 78.5289L71.9244 80.8766H58.1388L56.4166 78.5289H70.2022Z" fill="#98A2B3"/>
<path d="M71.9244 81.0434H58.1389C58.0855 81.0434 58.0355 81.0178 58.0044 80.9756L56.2822 78.6278C56.2455 78.5767 56.24 78.51 56.2678 78.4534C56.2955 78.3978 56.3533 78.3622 56.4167 78.3622H70.2033C70.2567 78.3622 70.3067 78.3878 70.3378 78.43L72.06 80.7778C72.0967 80.8289 72.1022 80.8956 72.0744 80.9522C72.0455 81.0078 71.9878 81.0434 71.9244 81.0434ZM58.2233 80.71H71.5967L70.1189 78.6956H56.7455L58.2233 80.71Z" fill="#F9FAFB"/>
<path d="M70.2022 78.5289L71.9244 80.8766L71.0822 86.1589L69.36 83.8111L70.2022 78.5289Z" fill="#D0D5DD"/>
<path d="M71.0823 86.3256C71.03 86.3256 70.98 86.3011 70.9478 86.2578L69.2256 83.91C69.1989 83.8745 69.1889 83.8289 69.1956 83.7856L70.0378 78.5022C70.0489 78.4356 70.0978 78.3822 70.1634 78.3667C70.2289 78.3511 70.2967 78.3756 70.3367 78.43L72.0589 80.7778C72.0856 80.8133 72.0956 80.8589 72.0889 80.9022L71.2467 86.1856C71.2356 86.2522 71.1867 86.3056 71.1212 86.3211C71.1078 86.3245 71.0956 86.3256 71.0823 86.3256ZM69.5356 83.7689L70.98 85.7389L71.7489 80.9189L70.3045 78.9489L69.5356 83.7689Z" fill="#F9FAFB"/>
<path d="M69.3601 83.8111L71.0823 86.1589H43.509L41.7867 83.8111H69.3601Z" fill="#D0D5DD"/>
<path d="M71.0822 86.3256H43.5089C43.4555 86.3256 43.4055 86.3 43.3744 86.2578L41.6522 83.91C41.6155 83.8589 41.61 83.7922 41.6378 83.7356C41.6655 83.68 41.7233 83.6445 41.7867 83.6445H69.36C69.4133 83.6445 69.4633 83.67 69.4944 83.7122L71.2167 86.06C71.2533 86.1111 71.2589 86.1778 71.2311 86.2345C71.2022 86.2911 71.1444 86.3256 71.0822 86.3256ZM43.5933 85.9922H70.7533L69.2755 83.9778H42.1155L43.5933 85.9922Z" fill="#F9FAFB"/>
<path d="M70.2022 78.5289L69.36 83.8111H41.7866L42.6288 78.5289H56.4166H70.2022Z" fill="#98A2B3"/>
<path d="M69.3601 83.9778H41.7867C41.7378 83.9778 41.6912 83.9567 41.6601 83.9189C41.6278 83.8823 41.6145 83.8323 41.6223 83.7845L42.4645 78.5011C42.4778 78.42 42.5467 78.3611 42.6289 78.3611H70.2023C70.2512 78.3611 70.2978 78.3823 70.329 78.42C70.3601 78.4567 70.3745 78.5067 70.3667 78.5545L69.5245 83.8378C69.5123 83.9189 69.4423 83.9778 69.3601 83.9778ZM41.9823 83.6445H69.2178L70.0067 78.6945H42.7712L41.9823 83.6445Z" fill="#F9FAFB"/>
<path d="M88.2668 75.7033C88.3345 75.5389 88.4001 75.3744 88.4623 75.2078C88.4645 75.2022 88.4668 75.1967 88.4679 75.1911C88.529 75.0278 88.5879 74.8622 88.6456 74.6967C88.6568 74.6645 88.6679 74.6322 88.679 74.6C88.7345 74.4356 88.789 74.27 88.8412 74.1033C88.8512 74.0711 88.8612 74.0389 88.8712 74.0056C88.9212 73.8411 88.9712 73.6756 89.0179 73.5078C89.0201 73.4978 89.0234 73.4889 89.0268 73.4789C89.0745 73.3056 89.1201 73.1311 89.1645 72.9567C89.1734 72.9211 89.1823 72.8856 89.1912 72.85C89.2334 72.6789 89.2745 72.5056 89.3134 72.3322C89.3201 72.3022 89.3268 72.2733 89.3323 72.2433C89.369 72.0789 89.4034 71.9122 89.4356 71.7467C89.4401 71.7256 89.4445 71.7045 89.4479 71.6833C89.4823 71.5067 89.5145 71.3278 89.5456 71.1489C89.5523 71.1111 89.559 71.0733 89.5657 71.0345C89.5957 70.8556 89.6245 70.6767 89.6512 70.4967C89.6545 70.4722 89.6579 70.4478 89.6612 70.4233C89.6856 70.2533 89.709 70.0833 89.7312 69.9122C89.7345 69.8833 89.739 69.8556 89.7423 69.8267C89.7645 69.6456 89.7856 69.4633 89.8056 69.28C89.8101 69.2411 89.8134 69.2022 89.8179 69.1644C89.8368 68.9789 89.8545 68.7933 89.8712 68.6067C89.8723 68.5911 89.8734 68.5756 89.8745 68.56C89.8901 68.3811 89.9034 68.2022 89.9156 68.0222C89.9179 67.9878 89.9201 67.9533 89.9223 67.9189C89.9345 67.7333 89.9456 67.5478 89.9556 67.3611C89.9579 67.3233 89.959 67.2856 89.9612 67.2478C89.9701 67.0544 89.979 66.8622 89.9856 66.6678L88.2634 64.32C88.2568 64.5145 88.2479 64.7078 88.239 64.9C88.2368 64.9378 88.2356 64.9756 88.2334 65.0133C88.2234 65.2 88.2134 65.3867 88.2001 65.5711C88.1979 65.6056 88.1956 65.64 88.1934 65.6745C88.1812 65.8545 88.1679 66.0333 88.1523 66.2122C88.1512 66.2278 88.1501 66.2433 88.149 66.2589C88.1323 66.4456 88.1145 66.6322 88.0956 66.8178C88.0912 66.8567 88.0879 66.8945 88.0834 66.9333C88.0634 67.1167 88.0434 67.2989 88.0201 67.48C88.0168 67.5089 88.0123 67.5378 88.009 67.5656C87.9868 67.7367 87.9634 67.9067 87.939 68.0767C87.9357 68.1011 87.9323 68.1256 87.929 68.15C87.9023 68.33 87.8734 68.5089 87.8434 68.6878C87.8368 68.7256 87.8301 68.7633 87.8234 68.8011C87.7923 68.98 87.7601 69.1589 87.7257 69.3356C87.7212 69.3567 87.7168 69.3767 87.7134 69.3967C87.6801 69.5633 87.6456 69.73 87.6101 69.8944C87.6034 69.9244 87.5979 69.9533 87.5912 69.9833C87.5523 70.1567 87.5123 70.3289 87.469 70.5011C87.4601 70.5367 87.4512 70.5722 87.4423 70.6089C87.3979 70.7833 87.3523 70.9578 87.3045 71.1311C87.3023 71.1411 87.299 71.15 87.2956 71.16C87.249 71.3267 87.2001 71.4922 87.149 71.6578C87.139 71.69 87.129 71.7222 87.119 71.7544C87.0668 71.9211 87.0134 72.0867 86.9568 72.2511C86.9456 72.2833 86.9345 72.3156 86.9234 72.3478C86.8656 72.5133 86.8068 72.6778 86.7457 72.8422C86.7434 72.8478 86.7412 72.8533 86.7401 72.8589C86.6768 73.0256 86.6112 73.19 86.5445 73.3545C86.5312 73.3878 86.5179 73.4211 86.5034 73.4533C86.4368 73.6133 86.3679 73.7722 86.2968 73.9289C86.2823 73.9611 86.2679 73.9922 86.2534 74.0244C86.2012 74.1389 86.1479 74.2522 86.0934 74.3645C86.0768 74.3989 86.0601 74.4344 86.0423 74.4689C85.9745 74.6067 85.9045 74.7433 85.8334 74.88C85.8212 74.9022 85.809 74.9256 85.7968 74.9478C85.7345 75.0645 85.6712 75.18 85.6068 75.2945C85.5857 75.3311 85.5657 75.3678 85.5445 75.4045C85.4679 75.5389 85.389 75.6722 85.3079 75.8056C85.3079 75.8056 85.3079 75.8067 85.3068 75.8067L87.029 78.1545C87.1101 78.0211 87.189 77.8878 87.2668 77.7522C87.2879 77.7156 87.3079 77.68 87.329 77.6433C87.3934 77.5278 87.4579 77.4122 87.519 77.2967C87.5312 77.2744 87.5434 77.2522 87.5556 77.2289C87.6279 77.0933 87.6968 76.9556 87.7645 76.8178C87.7812 76.7833 87.7979 76.7478 87.8157 76.7133C87.8701 76.6011 87.9234 76.4878 87.9757 76.3733C87.9857 76.3511 87.9968 76.33 88.0068 76.3078C88.0112 76.2978 88.0156 76.2878 88.0201 76.2778C88.0912 76.12 88.1601 75.9611 88.2268 75.8022C88.239 75.7689 88.2523 75.7356 88.2668 75.7033Z" fill="#D0D5DD"/>
<path d="M87.0278 78.3211C86.9745 78.3211 86.9245 78.2956 86.8934 78.2533L85.1712 75.9056C85.1312 75.8511 85.1278 75.7778 85.1634 75.72C85.2445 75.5878 85.3212 75.4556 85.3978 75.3222L85.4601 75.2133C85.5245 75.1 85.5867 74.9856 85.6478 74.87L85.6845 74.8022C85.7556 74.6678 85.8245 74.5322 85.8912 74.3956L85.9412 74.2922C85.9956 74.18 86.049 74.0678 86.1001 73.9556L86.1434 73.8611C86.2112 73.71 86.2801 73.5511 86.3478 73.39L86.3867 73.2956C86.4612 73.1133 86.5256 72.9533 86.5823 72.8L86.5889 72.7833C86.6501 72.6222 86.7078 72.4589 86.7645 72.2945L86.7978 72.1989C86.8534 72.0356 86.9067 71.8711 86.9589 71.7056L86.9878 71.61C87.0378 71.4467 87.0867 71.2822 87.1334 71.1167L87.1412 71.0878C87.189 70.9156 87.2345 70.7433 87.2778 70.57L87.3045 70.4633C87.3467 70.2933 87.3867 70.1222 87.4256 69.95L87.4445 69.8622C87.4801 69.6978 87.5145 69.5333 87.5478 69.3667L87.5601 69.3056C87.5945 69.13 87.6267 68.9522 87.6578 68.7745L87.6767 68.6611C87.7067 68.4833 87.7356 68.3056 87.7623 68.1267L87.7723 68.0533C87.7967 67.8845 87.8201 67.7156 87.8412 67.5456L87.8523 67.46C87.8745 67.28 87.8956 67.0978 87.9156 66.9167L87.9278 66.8011C87.9467 66.6167 87.9645 66.4311 87.9812 66.2456L87.9845 66.1978C87.9989 66.0211 88.0134 65.8422 88.0256 65.6633L88.0323 65.5611C88.0445 65.3767 88.0556 65.1911 88.0645 65.0056L88.0701 64.8945C88.0789 64.7 88.0878 64.5078 88.0945 64.3145C88.0967 64.2433 88.1445 64.1822 88.2123 64.1611C88.2801 64.14 88.3534 64.1645 88.3956 64.2222L90.1178 66.57C90.1401 66.6 90.1512 66.6367 90.1501 66.6745C90.1434 66.8689 90.1345 67.0633 90.1256 67.2567L90.1201 67.3711C90.1101 67.5589 90.099 67.7456 90.0867 67.9322L90.0789 68.0356C90.0667 68.2167 90.0523 68.3967 90.0378 68.5756L90.0345 68.6233C90.0189 68.81 90.0001 68.9967 89.9812 69.1833L89.9689 69.3C89.9489 69.4833 89.9278 69.6667 89.9056 69.8489L89.8945 69.9345C89.8723 70.1067 89.8489 70.2778 89.8245 70.4489L89.8134 70.5233C89.7867 70.7033 89.7578 70.8833 89.7278 71.0633L89.7078 71.1778C89.6767 71.3578 89.6445 71.5378 89.6089 71.7156L89.5956 71.78C89.5623 71.9467 89.5278 72.1133 89.4912 72.28L89.4723 72.37C89.4334 72.5445 89.3923 72.7178 89.3501 72.8911L89.3245 72.9933C89.2789 73.1756 89.2323 73.3511 89.1845 73.5256L89.1756 73.5545C89.1289 73.7222 89.0789 73.89 89.0278 74.0556L88.9978 74.1533C88.9456 74.3211 88.8912 74.4878 88.8345 74.6545L88.8012 74.7522C88.7434 74.9189 88.6845 75.0856 88.6223 75.25L88.6156 75.2667C88.5589 75.4178 88.4945 75.5811 88.4178 75.7667L88.2634 75.7033L88.4156 75.77L88.3756 75.8667C88.3067 76.0322 88.2367 76.1945 88.1667 76.3467L88.1223 76.4422C88.0689 76.5578 88.0156 76.6722 87.9601 76.7856L87.9089 76.8911C87.8401 77.0311 87.7701 77.1689 87.6967 77.3067L87.6601 77.3745C87.5978 77.4922 87.5334 77.6089 87.4678 77.7245L87.4056 77.8345C87.3278 77.9711 87.2478 78.1067 87.1656 78.24C87.1367 78.2878 87.0856 78.3167 87.0301 78.32C87.0334 78.3211 87.0312 78.3211 87.0278 78.3211ZM85.5067 75.7978L87.0145 77.8533C87.0501 77.7922 87.0856 77.7311 87.1212 77.6689L87.1823 77.5611C87.2467 77.4467 87.3101 77.3322 87.3712 77.2178L87.4067 77.1511C87.4778 77.0156 87.5467 76.88 87.6145 76.7433L87.6645 76.64C87.7189 76.5289 87.7712 76.4167 87.8234 76.3033L87.8667 76.2089C87.9345 76.0589 88.0034 75.9 88.0712 75.7367L88.1101 75.6422L88.1123 75.6378C88.1867 75.4556 88.2512 75.2945 88.3067 75.1467L88.4689 75.1889L88.3134 75.13C88.3745 74.9678 88.4323 74.8045 88.489 74.64L88.5223 74.5445C88.5778 74.3811 88.6312 74.2167 88.6834 74.0511L88.7123 73.9545C88.7623 73.79 88.8112 73.6267 88.8578 73.4611L88.8656 73.4322C88.9134 73.26 88.959 73.0878 89.0023 72.9133L89.0289 72.8078C89.0712 72.6367 89.1112 72.4656 89.1501 72.2945L89.1689 72.2067C89.2045 72.0422 89.2389 71.8778 89.2723 71.7122L89.2845 71.65C89.3189 71.4745 89.3512 71.2978 89.3823 71.12L89.4012 71.0067C89.4312 70.83 89.4601 70.6522 89.4856 70.4733L89.4956 70.4C89.5201 70.2311 89.5434 70.0622 89.5645 69.8922L89.5756 69.8067C89.5978 69.6267 89.6189 69.4456 89.6378 69.2633L89.649 69.1533C89.669 68.9633 89.6867 68.7789 89.7023 68.5933L89.7056 68.5467C89.7212 68.3689 89.7345 68.19 89.7467 68.0111L89.7534 67.9089C89.7656 67.7245 89.7767 67.5389 89.7856 67.3533L89.7912 67.24C89.8001 67.0667 89.8078 66.8933 89.8134 66.72L88.4067 64.8022C88.4045 64.8378 88.4034 64.8733 88.4012 64.9078L88.3956 65.0222C88.3856 65.21 88.3745 65.3967 88.3623 65.5833L88.3545 65.6867C88.3423 65.8678 88.3278 66.0478 88.3134 66.2267L88.3101 66.2733C88.2934 66.4611 88.2756 66.6489 88.2567 66.8345L88.2445 66.9511C88.2245 67.1345 88.2034 67.3178 88.1812 67.5L88.1701 67.5867C88.1478 67.7589 88.1245 67.93 88.1001 68.1L88.0901 68.1733C88.0634 68.3545 88.0345 68.5345 88.0034 68.7145L87.9834 68.8289C87.9523 69.0089 87.9201 69.1878 87.8845 69.3667L87.8723 69.4289C87.8389 69.5967 87.8045 69.7633 87.7678 69.93L87.7489 70.0189C87.7101 70.1933 87.669 70.3678 87.6267 70.54L87.6012 70.6433C87.5556 70.8245 87.5101 71 87.4612 71.1745L87.4523 71.2033C87.4056 71.3711 87.3556 71.5389 87.3045 71.7045L87.2745 71.8022C87.2223 71.97 87.1678 72.1378 87.1112 72.3033L87.0778 72.4011C87.0201 72.5678 86.9612 72.7345 86.899 72.8989L86.8945 72.9111C86.8345 73.0711 86.7689 73.2345 86.6945 73.4156L86.6534 73.5156C86.5845 73.68 86.5145 73.8411 86.4456 73.9956L86.4012 74.0911C86.3478 74.2067 86.2945 74.3211 86.239 74.4344L86.1878 74.54C86.1189 74.6789 86.0489 74.8178 85.9767 74.9556L85.9401 75.0233C85.8778 75.1411 85.8134 75.2578 85.7478 75.3733L85.6845 75.4845C85.6289 75.5922 85.5678 75.6956 85.5067 75.7978Z" fill="#F9FAFB"/>
<path d="M88.2633 64.3211C88.1188 68.5478 87.3388 72.4855 85.3055 75.8067H84.5522H69.2322C70.8766 73.2389 72.0633 69.3555 72.1888 64.3211H86.3844H88.2633ZM86.1288 67.0856C86.3911 67.0856 86.6366 66.88 86.6777 66.6267C86.7177 66.3733 86.5377 66.1678 86.2755 66.1678H73.7333C73.4699 66.1678 73.2255 66.3733 73.1844 66.6267C73.1444 66.88 73.3233 67.0856 73.5866 67.0856H86.1288ZM85.7055 69.7389C85.9677 69.7389 86.2133 69.5344 86.2544 69.2811C86.2944 69.0278 86.1144 68.8222 85.8522 68.8222H73.7044C73.4411 68.8222 73.1966 69.0267 73.1555 69.2811C73.1155 69.5344 73.2944 69.7389 73.5577 69.7389H85.7055ZM84.42 72.3933C84.6833 72.3933 84.9277 72.1889 84.9688 71.9344C85.0088 71.6811 84.8299 71.4767 84.5666 71.4767H73.0466C72.7833 71.4767 72.5388 71.6811 72.4977 71.9344C72.4577 72.1878 72.6366 72.3933 72.8999 72.3933H84.42Z" fill="#D0D5DD"/>
<path d="M85.3067 75.9733H69.2322C69.1711 75.9733 69.1155 75.94 69.0855 75.8866C69.0567 75.8333 69.0589 75.7677 69.0911 75.7166C70.8666 72.9444 71.9078 68.8955 72.0211 64.3166C72.0233 64.2266 72.0978 64.1544 72.1878 64.1544H88.2633C88.3089 64.1544 88.3522 64.1733 88.3833 64.2055C88.4144 64.2377 88.4311 64.2822 88.43 64.3266C88.2667 69.1 87.2911 72.8833 85.4478 75.8933C85.4178 75.9433 85.3644 75.9733 85.3067 75.9733ZM69.5322 75.64H85.2122C86.9711 72.73 87.9133 69.0789 88.0911 64.4878H72.3511C72.2189 68.9211 71.2222 72.8611 69.5322 75.64ZM84.42 72.56H72.9011C72.7244 72.56 72.5622 72.4889 72.4555 72.3633C72.35 72.24 72.3066 72.0777 72.3333 71.9077C72.3866 71.5722 72.7 71.31 73.0466 71.31H84.5666C84.7433 71.31 84.9055 71.3822 85.0122 71.5066C85.1178 71.63 85.1611 71.7911 85.1333 71.9611C85.08 72.2978 84.7667 72.56 84.42 72.56ZM73.0466 71.6444C72.8655 71.6444 72.69 71.79 72.6622 71.9622C72.6511 72.0344 72.6666 72.1 72.7089 72.1489C72.7522 72.2 72.8211 72.2289 72.9 72.2289H84.42C84.6011 72.2289 84.7766 72.0833 84.8044 71.9111C84.8155 71.84 84.8 71.7744 84.7578 71.7255C84.7144 71.6744 84.6455 71.6455 84.5655 71.6455H73.0466V71.6444ZM85.7055 69.9055H73.5578C73.3811 69.9055 73.2189 69.8333 73.1122 69.7089C73.0067 69.5855 72.9633 69.4244 72.99 69.2544C73.0433 68.9189 73.3567 68.6555 73.7033 68.6555H85.8511C86.0266 68.6555 86.1889 68.7277 86.2955 68.8522C86.4011 68.9755 86.4444 69.1378 86.4178 69.3066C86.3644 69.6433 86.0522 69.9055 85.7055 69.9055ZM73.7044 68.99C73.5233 68.99 73.3478 69.1355 73.32 69.3078C73.3089 69.3789 73.3244 69.4444 73.3666 69.4933C73.41 69.5444 73.4789 69.5733 73.5589 69.5733H85.7066C85.8878 69.5733 86.0633 69.4277 86.0911 69.2555C86.1022 69.1844 86.0867 69.1178 86.0444 69.07C86.0011 69.0189 85.9322 68.99 85.8533 68.99H73.7044ZM86.1289 67.2522H73.5867C73.4111 67.2522 73.2489 67.1811 73.1422 67.0555C73.0367 66.9322 72.9933 66.77 73.02 66.6011C73.0733 66.2655 73.3866 66.0022 73.7333 66.0022H86.2755C86.4511 66.0022 86.6133 66.0744 86.72 66.1989C86.8255 66.3233 86.8689 66.4844 86.8422 66.6533C86.7878 66.9889 86.4755 67.2522 86.1289 67.2522ZM73.7333 66.3344C73.5522 66.3344 73.3767 66.48 73.3489 66.6522C73.3378 66.7233 73.3544 66.79 73.3955 66.8377C73.4389 66.8889 73.5078 66.9178 73.5867 66.9178H86.1289C86.31 66.9178 86.4855 66.7722 86.5133 66.6C86.5244 66.5289 86.5078 66.4622 86.4667 66.4144C86.4222 66.3633 86.3544 66.3344 86.2755 66.3344H73.7333Z" fill="#F9FAFB"/>
<path d="M83.0745 78.5289L84.7967 80.8766H71.9245L70.2023 78.5289H83.0745Z" fill="#D0D5DD"/>
<path d="M84.7967 81.0434H71.9245C71.8712 81.0434 71.8212 81.0178 71.7901 80.9756L70.0679 78.6278C70.0312 78.5767 70.0256 78.51 70.0534 78.4534C70.0812 78.3978 70.139 78.3622 70.2023 78.3622H83.0745C83.1279 78.3622 83.1779 78.3878 83.209 78.43L84.9312 80.7778C84.9679 80.8289 84.9734 80.8956 84.9456 80.9522C84.9168 81.0078 84.859 81.0434 84.7967 81.0434ZM72.009 80.71H84.4679L82.9901 78.6956H70.5312L72.009 80.71Z" fill="#F9FAFB"/>
<path d="M74.5988 55.0834C76.8988 55.0834 78.4755 56.88 78.1222 59.0989H87.2177L86.3844 64.3212H72.1888C72.0633 69.3556 70.8766 73.2389 69.2322 75.8067H84.5533L84.28 77.5212C84.1911 78.0778 83.6522 78.5278 83.0755 78.5278H70.2022H56.4166L57.3255 72.8289C59.6244 72.8289 61.7755 71.0323 62.13 68.8134C62.4833 66.5945 60.9066 64.7978 58.6066 64.7978L59.5155 59.0989H69.7944C70.1477 56.88 72.3 55.0834 74.5988 55.0834Z" fill="#E4E7EC"/>
<path d="M83.0744 78.6956H56.4166C56.3678 78.6956 56.3211 78.6744 56.29 78.6367C56.2589 78.6 56.2444 78.55 56.2522 78.5022L57.1611 72.8033C57.1744 72.7222 57.2433 72.6633 57.3255 72.6633C59.5433 72.6633 61.6244 70.9245 61.9655 68.7878C62.1255 67.7822 61.8778 66.8333 61.2666 66.1167C60.6333 65.3744 59.6889 64.9656 58.6077 64.9656C58.5589 64.9656 58.5122 64.9444 58.4811 64.9067C58.45 64.87 58.4355 64.82 58.4433 64.7722L59.3522 59.0733C59.3655 58.9922 59.4344 58.9333 59.5166 58.9333H69.6566C70.0889 56.7067 72.2755 54.9178 74.6011 54.9178C75.7822 54.9178 76.8166 55.3678 77.5144 56.1867C78.1511 56.9322 78.4322 57.9022 78.3155 58.9344H87.22C87.2689 58.9344 87.3155 58.9556 87.3466 58.9933C87.3778 59.03 87.3922 59.08 87.3844 59.1278L86.5511 64.35C86.5378 64.4311 86.4689 64.49 86.3866 64.49H72.3533C72.2211 68.9233 71.2244 72.8633 69.5344 75.6422H84.5544C84.6033 75.6422 84.65 75.6633 84.6811 75.7011C84.7122 75.7378 84.7266 75.7878 84.7189 75.8356L84.4455 77.55C84.3422 78.18 83.7289 78.6956 83.0744 78.6956ZM56.6111 78.3622H83.0744C83.5722 78.3622 84.0378 77.9733 84.1144 77.4956L84.3566 75.9733H69.2322C69.1711 75.9733 69.1155 75.94 69.0855 75.8867C69.0566 75.8333 69.0589 75.7678 69.0911 75.7167C70.8666 72.9445 71.9078 68.8956 72.0211 64.3167C72.0233 64.2267 72.0978 64.1545 72.1878 64.1545H86.2411L87.0211 59.2656H78.1211C78.0722 59.2656 78.0255 59.2444 77.9944 59.2067C77.9633 59.17 77.9489 59.12 77.9566 59.0722C78.1166 58.0656 77.8689 57.1178 77.2578 56.4011C76.6244 55.6589 75.68 55.25 74.5978 55.25C72.38 55.25 70.2989 56.9889 69.9578 59.1256C69.9444 59.2067 69.8755 59.2656 69.7933 59.2656H59.6566L58.8 64.6356C59.8989 64.6822 60.8589 65.1278 61.5177 65.9C62.1933 66.6922 62.4689 67.7367 62.2922 68.84C61.9344 71.0856 59.7866 72.9211 57.4655 72.9945L56.6111 78.3622Z" fill="#F9FAFB"/>
<path d="M85.9722 79.9956C85.9844 79.9545 85.9944 79.9122 86.0011 79.87L86.2744 78.1556L84.5522 75.8078L84.2789 77.5222C84.2722 77.5645 84.2622 77.6067 84.25 77.6478C84.2467 77.66 84.2422 77.6711 84.2389 77.6834C84.2289 77.7145 84.2167 77.7456 84.2044 77.7756C84.2 77.7856 84.1955 77.7967 84.1911 77.8067C84.1733 77.8456 84.1533 77.8834 84.1311 77.92C84.1244 77.93 84.1178 77.94 84.1111 77.95C84.0978 77.9711 84.0833 77.9922 84.0689 78.0122C84.0589 78.0256 84.0478 78.0389 84.0378 78.0522C84.0267 78.0667 84.0144 78.0811 84.0022 78.0956C83.99 78.1089 83.9767 78.1222 83.9644 78.1356C83.9533 78.1478 83.9422 78.1589 83.9311 78.17C83.9178 78.1834 83.9022 78.1967 83.8878 78.2089C83.8767 78.2189 83.8644 78.23 83.8533 78.2389C83.8389 78.2511 83.8233 78.2622 83.8078 78.2734C83.7944 78.2834 83.7822 78.2933 83.7689 78.3022C83.7555 78.3122 83.7411 78.3211 83.7267 78.33C83.71 78.34 83.6944 78.3511 83.6778 78.36C83.6655 78.3667 83.6533 78.3734 83.6411 78.38C83.62 78.3911 83.5978 78.4022 83.5767 78.4133C83.5655 78.4189 83.5533 78.4234 83.5422 78.4289C83.5111 78.4422 83.48 78.4545 83.4478 78.4645C83.4344 78.4689 83.4211 78.4734 83.4078 78.4778C83.3967 78.4811 83.3844 78.4845 83.3733 78.4878C83.3522 78.4934 83.3311 78.4978 83.3111 78.5022C83.2989 78.5045 83.2878 78.5067 83.2755 78.5089C83.2533 78.5134 83.2311 78.5156 83.2078 78.5189C83.1978 78.52 83.1867 78.5222 83.1767 78.5222C83.1433 78.5256 83.11 78.5267 83.0767 78.5267L84.7989 80.8745C84.8322 80.8745 84.8656 80.8722 84.8989 80.87C84.9089 80.8689 84.92 80.8678 84.93 80.8667C84.9522 80.8645 84.9755 80.8611 84.9978 80.8567C85.01 80.8545 85.0211 80.8522 85.0333 80.85C85.0544 80.8456 85.0755 80.8411 85.0955 80.8356C85.1067 80.8322 85.1189 80.8289 85.13 80.8256C85.1367 80.8233 85.1422 80.8222 85.1489 80.82C85.1567 80.8178 85.1633 80.8145 85.1711 80.8122C85.2033 80.8011 85.2344 80.79 85.2656 80.7767C85.2722 80.7733 85.28 80.7711 85.2867 80.7689C85.2911 80.7667 85.2956 80.7645 85.3 80.7622C85.3222 80.7522 85.3433 80.7411 85.3644 80.7289C85.3744 80.7234 85.3844 80.72 85.3933 80.7145C85.3967 80.7133 85.3989 80.7111 85.4011 80.7089C85.4178 80.6989 85.4333 80.6889 85.45 80.6789C85.4622 80.6711 85.4744 80.6645 85.4856 80.6567C85.4878 80.6556 85.49 80.6533 85.4922 80.6511C85.5055 80.6422 85.5178 80.6322 85.5311 80.6222C85.5433 80.6133 85.5567 80.6045 85.5689 80.5945C85.5711 80.5922 85.5744 80.59 85.5767 80.5878C85.5889 80.5778 85.6 80.5678 85.6111 80.5578C85.6222 80.5478 85.6344 80.5378 85.6456 80.5278C85.6489 80.5245 85.6511 80.5222 85.6544 80.5189C85.6656 80.5078 85.6767 80.4956 85.6878 80.4845C85.6978 80.4745 85.7078 80.4645 85.7167 80.4545C85.72 80.4511 85.7222 80.4478 85.7256 80.4445C85.7378 80.43 85.7489 80.4156 85.7611 80.4011C85.7689 80.3911 85.7778 80.3811 85.7856 80.3711C85.7878 80.3678 85.79 80.3645 85.7922 80.3611C85.8067 80.3411 85.8211 80.32 85.8344 80.2989C85.84 80.29 85.8467 80.2822 85.8522 80.2734C85.8533 80.2722 85.8533 80.27 85.8544 80.2689C85.8767 80.2322 85.8967 80.1945 85.9144 80.1545C85.9155 80.1511 85.9178 80.1478 85.92 80.1445C85.9233 80.1378 85.9244 80.13 85.9278 80.1233C85.9411 80.0933 85.9522 80.0622 85.9622 80.0311C85.9644 80.0189 85.9689 80.0078 85.9722 79.9956Z" fill="#D0D5DD"/>
<path d="M84.7966 81.0434C84.7433 81.0434 84.6933 81.0178 84.6622 80.9756L82.9399 78.6278C82.9033 78.5767 82.8977 78.51 82.9255 78.4534C82.9533 78.3978 83.011 78.3622 83.0744 78.3622C83.1033 78.3622 83.131 78.3611 83.1599 78.3578L83.1733 78.3567L83.1855 78.3556C83.2055 78.3534 83.2244 78.3511 83.2433 78.3478L83.2744 78.3422C83.2921 78.3389 83.3099 78.3345 83.3288 78.3289L83.3933 78.3089C83.421 78.3 83.4477 78.2889 83.4744 78.2778L83.4855 78.2734L83.5044 78.2656C83.5233 78.2567 83.5421 78.2467 83.561 78.2367L83.5933 78.22C83.6044 78.2134 83.6155 78.2067 83.6255 78.2C83.6255 78.2 83.6344 78.1945 83.6355 78.1934L83.6488 78.1856C83.6566 78.18 83.6655 78.1756 83.6733 78.17C83.6799 78.1656 83.6866 78.16 83.6933 78.1545L83.7066 78.1445C83.7255 78.13 83.7355 78.1222 83.7455 78.1145L83.7755 78.0878C83.7921 78.0734 83.8033 78.0634 83.8133 78.0534C83.821 78.0456 83.8277 78.0389 83.8344 78.0311L83.8422 78.0234C83.8544 78.0111 83.8655 78 83.8755 77.9878C83.8844 77.9778 83.8921 77.9667 83.901 77.9567L83.9133 77.9422C83.9199 77.9345 83.9266 77.9256 83.9333 77.9167C83.9466 77.8989 83.9577 77.8811 83.9699 77.8622L83.9877 77.8367C84.0066 77.8056 84.0244 77.7722 84.0388 77.7389L84.0455 77.7245L84.0499 77.7134C84.061 77.6867 84.071 77.66 84.0799 77.6334L84.0888 77.6034C84.0999 77.5634 84.1088 77.53 84.1133 77.4978L84.3866 75.7834C84.3977 75.7167 84.4466 75.6634 84.5121 75.6478C84.5777 75.6322 84.6455 75.6567 84.6855 75.7111L86.4077 78.0589C86.4344 78.0945 86.4444 78.14 86.4377 78.1834L86.1644 79.8978C86.1566 79.9434 86.1466 79.99 86.131 80.0434C86.1266 80.0567 86.1233 80.0689 86.1188 80.0822C86.1066 80.12 86.0933 80.1545 86.0788 80.19C86.0766 80.1978 86.0733 80.2067 86.0688 80.2156C86.0666 80.22 86.0621 80.2289 86.0599 80.2322C86.0421 80.27 86.021 80.3122 85.9966 80.3511C85.9933 80.3567 85.991 80.3622 85.9877 80.3667C85.9866 80.3689 85.981 80.3767 85.9755 80.3845C85.9555 80.4145 85.9399 80.4378 85.9233 80.4611C85.9222 80.4634 85.9188 80.4678 85.9144 80.4734C85.9088 80.4811 85.901 80.49 85.8944 80.4978L85.8866 80.5067C85.8699 80.5278 85.8588 80.5422 85.8466 80.5556C85.8455 80.5578 85.8421 80.5622 85.8377 80.5667C85.8299 80.5756 85.8222 80.5834 85.8133 80.5922L85.8044 80.6011C85.7888 80.6178 85.7777 80.6289 85.7666 80.64L85.7566 80.65C85.7477 80.6589 85.7377 80.6667 85.7288 80.6745L85.7188 80.6834C85.6999 80.7 85.6899 80.7089 85.6788 80.7178L85.6699 80.7256C85.661 80.7322 85.651 80.74 85.6399 80.7478L85.6177 80.7645C85.6066 80.7734 85.5955 80.7811 85.5844 80.7889C85.5666 80.8011 85.5566 80.8078 85.5466 80.8134L85.5255 80.8267C85.511 80.8367 85.4955 80.8456 85.481 80.8545C85.481 80.8545 85.4721 80.86 85.471 80.86C85.4633 80.8645 85.4544 80.8689 85.4455 80.8734C85.4144 80.89 85.3899 80.9022 85.3655 80.9145C85.361 80.9167 85.3555 80.92 85.3488 80.9222C85.3422 80.9256 85.3333 80.9289 85.3255 80.9311C85.2899 80.9467 85.2544 80.96 85.2188 80.9722C85.211 80.9756 85.2022 80.9789 85.1944 80.9811C85.191 80.9822 85.1788 80.9856 85.1755 80.9867C85.1622 80.9911 85.151 80.9934 85.1388 80.9967C85.1099 81.0045 85.0866 81.01 85.0621 81.0156C85.0488 81.0189 85.0344 81.0211 85.021 81.0234C84.9955 81.0278 84.9699 81.0311 84.9444 81.0345L84.9088 81.0389C84.8733 81.0411 84.8344 81.0434 84.7966 81.0434ZM83.3766 78.6589L84.8777 80.7056C84.8788 80.7056 84.8799 80.7056 84.881 80.7056L84.8955 80.7034C84.8966 80.7034 84.9077 80.7022 84.9088 80.7022C84.9277 80.7 84.9477 80.6978 84.9666 80.6945L84.9977 80.6889C85.0155 80.6856 85.0344 80.6811 85.0521 80.6756L85.0821 80.6678C85.0844 80.6667 85.0955 80.6645 85.0966 80.6634C85.1033 80.6611 85.1099 80.6578 85.1177 80.6556C85.1444 80.6467 85.1721 80.6356 85.1988 80.6245C85.2021 80.6234 85.2155 80.6178 85.2188 80.6167C85.2221 80.6156 85.2266 80.6122 85.2299 80.6111C85.2477 80.6022 85.2666 80.5922 85.2855 80.5822L85.3177 80.5645C85.3277 80.5589 85.3388 80.5522 85.3488 80.5445L85.391 80.5178C85.4044 80.5089 85.411 80.5034 85.4177 80.4978L85.4621 80.4645C85.4766 80.4522 85.4833 80.4467 85.4899 80.44L85.5377 80.3967C85.5444 80.39 85.5521 80.3811 85.5599 80.3734L85.5977 80.3334C85.6077 80.3222 85.6155 80.3122 85.6233 80.3022L85.651 80.2689C85.651 80.2689 85.6544 80.2634 85.6577 80.2589C85.6688 80.2434 85.681 80.2256 85.6921 80.2067L85.7033 80.19C85.7033 80.1889 85.7055 80.1878 85.7066 80.1856C85.7077 80.1845 85.7077 80.1834 85.7088 80.1822C85.7288 80.1489 85.7455 80.1167 85.761 80.0834C85.7621 80.0811 85.7644 80.0778 85.7655 80.0745C85.7677 80.0689 85.771 80.06 85.7722 80.0578C85.7833 80.0322 85.7933 80.0056 85.8021 79.9789L85.8122 79.9489C85.8244 79.9089 85.8322 79.8745 85.8366 79.8434L86.0988 78.1978L84.6544 76.2278L84.4444 77.5478C84.4377 77.5922 84.4266 77.64 84.411 77.6934L84.3999 77.7267C84.3855 77.77 84.3721 77.8056 84.3577 77.84C84.351 77.8567 84.3466 77.8667 84.3422 77.8756C84.3222 77.92 84.2988 77.9634 84.2733 78.0045C84.2677 78.0134 84.2621 78.0222 84.2566 78.0311C84.2355 78.0634 84.2199 78.0878 84.2022 78.11C84.1933 78.1222 84.1833 78.1345 84.1744 78.1456L84.1677 78.1545C84.1522 78.1745 84.1399 78.1889 84.1277 78.2034C84.1133 78.22 84.0988 78.2345 84.0844 78.25C84.0677 78.2678 84.0577 78.2789 84.0466 78.2889C84.0333 78.3022 84.0188 78.3145 84.0044 78.3267L83.9888 78.34C83.9788 78.3489 83.9688 78.3578 83.9588 78.3656C83.9444 78.3778 83.9299 78.3878 83.9155 78.3989L83.8966 78.4134C83.8855 78.4211 83.8755 78.43 83.8644 78.4378C83.8522 78.4467 83.8399 78.4545 83.8277 78.4622L83.8166 78.4689C83.7933 78.4845 83.7777 78.4945 83.7621 78.5034C83.7521 78.5089 83.7422 78.5145 83.7322 78.52L83.721 78.5256C83.6966 78.5389 83.6722 78.5511 83.6477 78.5622C83.6377 78.5667 83.6277 78.5711 83.6166 78.5756C83.5733 78.5945 83.5377 78.6078 83.501 78.62L83.491 78.6234C83.4799 78.6278 83.4677 78.6311 83.4566 78.6345C83.4444 78.6378 83.431 78.6411 83.4188 78.6445C83.4022 78.6522 83.3899 78.6556 83.3766 78.6589Z" fill="#F9FAFB"/>
<path d="M40.3167 56.2522H32.2656H25.4L27.1222 58.6H33.9878H42.0389L40.3167 56.2522Z" fill="#D0D5DD"/>
<path d="M42.0389 58.7666H27.1223C27.0689 58.7666 27.0189 58.7411 26.9878 58.6988L25.2656 56.3511C25.2289 56.3 25.2234 56.2333 25.2512 56.1766C25.2789 56.1211 25.3367 56.0855 25.4001 56.0855H40.3167C40.3701 56.0855 40.4201 56.1111 40.4512 56.1533L42.1734 58.5011C42.2101 58.5522 42.2156 58.6188 42.1878 58.6755C42.1589 58.7311 42.1012 58.7666 42.0389 58.7666ZM27.2067 58.4333H41.7101L40.2323 56.4188H25.7289L27.2067 58.4333Z" fill="#F9FAFB"/>
<path d="M42.6157 57.4656C42.6268 57.4423 42.6379 57.4189 42.649 57.3956C42.6579 57.3767 42.6668 57.3578 42.6756 57.3389C42.7523 57.1711 42.8257 57.0011 42.8968 56.83C42.899 56.8245 42.9023 56.8189 42.9045 56.8123C42.9845 56.62 43.0612 56.4245 43.1357 56.2289C43.1601 56.1656 43.1823 56.1011 43.2057 56.0378C43.2545 55.9034 43.3034 55.7689 43.3501 55.6334C43.3768 55.5567 43.4012 55.48 43.4268 55.4034C43.4679 55.2778 43.509 55.1523 43.5479 55.0256C43.5734 54.9445 43.5979 54.8634 43.6223 54.7823C43.6601 54.6567 43.6968 54.53 43.7323 54.4034C43.7545 54.3223 43.7779 54.2411 43.8001 54.16C43.8357 54.0267 43.8701 53.8934 43.9034 53.7589C43.9223 53.6834 43.9423 53.6078 43.9601 53.5323C43.9979 53.3745 44.0345 53.2145 44.0701 53.0545C44.0823 53.0022 44.0945 52.95 44.1057 52.8967C44.1512 52.6834 44.1945 52.4689 44.2368 52.2534C44.2468 52.2011 44.2557 52.1467 44.2657 52.0945C44.2957 51.93 44.3257 51.7656 44.3534 51.6C44.3668 51.52 44.379 51.44 44.3923 51.36C44.4145 51.22 44.4368 51.0789 44.4579 50.9378C44.4712 50.85 44.4834 50.7623 44.4957 50.6745C44.5145 50.5378 44.5334 50.4011 44.5512 50.2634C44.5623 50.1745 44.5745 50.0845 44.5845 49.9956C44.6012 49.8556 44.6179 49.7145 44.6334 49.5734C44.6434 49.4878 44.6523 49.4011 44.6612 49.3156C44.6768 49.1611 44.6923 49.0067 44.7068 48.8511C44.7134 48.7778 44.7212 48.7045 44.7279 48.6311C44.7479 48.4022 44.7668 48.1734 44.7834 47.9434L43.0612 45.5956C43.0445 45.8256 43.0257 46.0556 43.0057 46.2834C42.999 46.3567 42.9923 46.43 42.9845 46.5034C42.9701 46.6589 42.9557 46.8134 42.939 46.9678C42.9301 47.0545 42.9201 47.14 42.9112 47.2256C42.8957 47.3667 42.879 47.5078 42.8623 47.6478C42.8512 47.7378 42.8401 47.8267 42.829 47.9156C42.8112 48.0534 42.7923 48.19 42.7734 48.3267C42.7612 48.4145 42.749 48.5022 42.7357 48.59C42.7145 48.7311 42.6923 48.8722 42.6701 49.0122C42.6568 49.0922 42.6445 49.1734 42.6312 49.2522C42.6034 49.4178 42.5734 49.5823 42.5434 49.7467C42.5334 49.8 42.5245 49.8534 42.5145 49.9056C42.4734 50.1211 42.4301 50.3356 42.3834 50.5489C42.3723 50.6023 42.359 50.6545 42.3479 50.7067C42.3123 50.8667 42.2768 51.0256 42.2379 51.1845C42.219 51.2611 42.2001 51.3356 42.1812 51.4122C42.1479 51.5467 42.1134 51.68 42.0779 51.8134C42.0557 51.8956 42.0334 51.9767 42.0101 52.0578C41.9745 52.1845 41.9379 52.3111 41.9012 52.4367C41.8768 52.5178 41.8523 52.6 41.8268 52.68C41.7879 52.8067 41.7468 52.9322 41.7057 53.0578C41.6801 53.1345 41.6545 53.2123 41.629 53.2878C41.5823 53.4234 41.5334 53.5578 41.4845 53.6923C41.4612 53.7556 41.439 53.82 41.4145 53.8834C41.3401 54.08 41.2634 54.2745 41.1834 54.4667C41.1812 54.4734 41.1779 54.4789 41.1756 54.4856C41.0968 54.6756 41.0134 54.8634 40.9279 55.05C40.9168 55.0734 40.9056 55.0967 40.8945 55.1211C40.8101 55.3023 40.7245 55.4823 40.6345 55.6589C40.6268 55.6745 40.619 55.6889 40.6112 55.7034C40.5168 55.8889 40.419 56.0734 40.3179 56.2545L42.0401 58.6023C42.1412 58.42 42.239 58.2367 42.3334 58.05C42.3412 58.0356 42.349 58.02 42.3568 58.0056C42.4445 57.8267 42.5312 57.6467 42.6157 57.4656Z" fill="#E4E7EC"/>
<path d="M42.0389 58.7667C41.9856 58.7667 41.9356 58.7411 41.9045 58.6989L40.1822 56.3511C40.1433 56.2989 40.14 56.2278 40.1711 56.1711C40.2667 56 40.3611 55.8222 40.4611 55.6256L40.4845 55.5811C40.57 55.4122 40.6533 55.2389 40.7422 55.0478L40.7745 54.9778C40.8589 54.7933 40.9422 54.6045 41.02 54.4178C41.02 54.4167 41.0256 54.4056 41.0256 54.4045C41.1011 54.2222 41.1767 54.0333 41.2578 53.8211C41.2722 53.7833 41.2856 53.7456 41.3 53.7078L41.3278 53.6322C41.3767 53.4989 41.4256 53.3656 41.4711 53.2311C41.4911 53.1733 41.5111 53.1145 41.53 53.0556L41.5478 53.0022C41.5889 52.8778 41.6289 52.7533 41.6678 52.6278C41.6922 52.5478 41.7178 52.4667 41.7411 52.3856C41.7789 52.2611 41.8145 52.1356 41.85 52.01L41.8567 51.9867C41.8767 51.9145 41.8978 51.8411 41.9167 51.7678C41.9522 51.6356 41.9856 51.5033 42.02 51.37L42.0378 51.2978C42.0511 51.2467 42.0633 51.1956 42.0767 51.1433C42.1145 50.9856 42.15 50.8278 42.1856 50.6689L42.2022 50.5967C42.2089 50.5689 42.2156 50.54 42.2211 50.5122C42.2656 50.3045 42.31 50.09 42.3511 49.8722C42.3567 49.8433 42.3611 49.8156 42.3667 49.7867L42.38 49.7145C42.41 49.5511 42.44 49.3878 42.4678 49.2233C42.4778 49.1667 42.4867 49.11 42.4956 49.0545L42.5067 48.9845C42.5289 48.8445 42.5511 48.7045 42.5722 48.5645C42.5856 48.4778 42.5978 48.39 42.61 48.3022C42.6289 48.1667 42.6478 48.03 42.6656 47.8933C42.6767 47.8045 42.6878 47.7156 42.6989 47.6267C42.7156 47.4867 42.7322 47.3467 42.7478 47.2067L42.7522 47.1689C42.76 47.0956 42.7689 47.0233 42.7756 46.95C42.7911 46.7967 42.8067 46.6422 42.8211 46.4878L42.8422 46.2689C42.8622 46.0411 42.8811 45.8133 42.8978 45.5833C42.9033 45.5133 42.9511 45.4545 43.0178 45.4356C43.0845 45.4167 43.1567 45.4411 43.1978 45.4967L44.92 47.8445C44.9433 47.8767 44.9545 47.9156 44.9522 47.9556C44.9356 48.1867 44.9167 48.4167 44.8967 48.6456L44.8756 48.8667C44.8611 49.0222 44.8467 49.1778 44.83 49.3322C44.8222 49.4056 44.8145 49.4789 44.8056 49.5522L44.8011 49.5911C44.7856 49.7333 44.7689 49.8745 44.7522 50.0156C44.7411 50.1056 44.73 50.1956 44.7189 50.2845C44.7011 50.4222 44.6822 50.56 44.6633 50.6967C44.6511 50.7845 44.6389 50.8733 44.6256 50.9611C44.6045 51.1033 44.5822 51.2445 44.5589 51.3856L44.5456 51.47C44.5367 51.5222 44.5289 51.5745 44.52 51.6267C44.4922 51.7933 44.4622 51.9589 44.4311 52.1233L44.4189 52.1933C44.4133 52.2233 44.4078 52.2533 44.4022 52.2833C44.3611 52.4967 44.3167 52.7145 44.2711 52.93C44.2645 52.9611 44.2567 52.9922 44.25 53.0233L44.2356 53.0889C44.2 53.25 44.1633 53.41 44.1256 53.5689C44.1133 53.6222 44.1 53.6745 44.0867 53.7267L44.0689 53.7978C44.0356 53.9333 44.0011 54.0678 43.9645 54.2011C43.9445 54.2756 43.9233 54.35 43.9033 54.4245L43.8967 54.4467C43.8611 54.5745 43.8245 54.7022 43.7867 54.8289C43.7622 54.9111 43.7378 54.9933 43.7122 55.0745C43.6722 55.2022 43.6311 55.3289 43.59 55.4545L43.5767 55.4945C43.5556 55.5589 43.5345 55.6222 43.5122 55.6867C43.4656 55.8233 43.4156 55.9589 43.3667 56.0945L43.3411 56.1656C43.3267 56.2067 43.3122 56.2467 43.2967 56.2867C43.2156 56.5 43.14 56.6922 43.0633 56.8756C43.0633 56.8767 43.0589 56.8867 43.0578 56.8878C42.9811 57.0722 42.9056 57.2445 42.8322 57.4078L42.7722 57.5356C42.6822 57.73 42.5967 57.9078 42.51 58.0789L42.4867 58.1245C42.3845 58.3256 42.2878 58.5078 42.19 58.6822C42.1622 58.7322 42.1111 58.7633 42.0545 58.7678C42.0456 58.7667 42.0422 58.7667 42.0389 58.7667ZM40.5133 56.24L42.0178 58.2911C42.0722 58.19 42.1267 58.0845 42.1833 57.9733L42.2056 57.93C42.2911 57.7622 42.3745 57.5878 42.4633 57.3967L42.5222 57.2711C42.5945 57.1111 42.6689 56.9422 42.7422 56.7667C42.7422 56.7656 42.7467 56.7556 42.7478 56.7545C42.8245 56.57 42.9 56.38 42.9789 56.1711C42.9933 56.1322 43.0078 56.0933 43.0211 56.0545L43.0478 55.9811C43.0967 55.8478 43.1456 55.7145 43.1911 55.58C43.2122 55.5178 43.2333 55.4545 43.2545 55.3922L43.2678 55.3511C43.3089 55.2267 43.35 55.1022 43.3889 54.9767C43.4145 54.8967 43.4389 54.8156 43.4622 54.7345C43.5 54.61 43.5356 54.4845 43.5711 54.3578L43.5778 54.3356C43.5978 54.2622 43.6189 54.1889 43.6389 54.1156C43.6745 53.9833 43.7078 53.85 43.7411 53.7167L43.7589 53.6456C43.7722 53.5945 43.7845 53.5433 43.7978 53.4911C43.8356 53.3345 43.8711 53.1756 43.9067 53.0167L43.9222 52.9489C43.9289 52.9189 43.9356 52.89 43.9422 52.86C43.9878 52.6467 44.0322 52.4311 44.0722 52.2211L44.1011 52.0622C44.1311 51.8989 44.1611 51.7356 44.1889 51.5711C44.1978 51.52 44.2056 51.4689 44.2145 51.4167L44.2278 51.3311C44.25 51.1911 44.2722 51.0511 44.2933 50.9111C44.3067 50.8245 44.3189 50.7367 44.3311 50.6489C44.35 50.5133 44.3689 50.3767 44.3867 50.24C44.3978 50.1511 44.4089 50.0622 44.42 49.9733C44.4367 49.8333 44.4533 49.6933 44.4689 49.5533L44.4733 49.5145C44.4811 49.4422 44.49 49.3689 44.4967 49.2967C44.5122 49.1433 44.5278 48.9889 44.5422 48.8345L44.5633 48.6156C44.5811 48.4078 44.5989 48.2 44.6145 47.9911L43.1945 46.0545C43.1878 46.1356 43.1811 46.2156 43.1733 46.2967L43.1522 46.5178C43.1378 46.6733 43.1233 46.8289 43.1067 46.9833C43.0989 47.0578 43.0911 47.1311 43.0822 47.2045L43.0778 47.2422C43.0622 47.3833 43.0456 47.5256 43.0289 47.6656C43.0178 47.7556 43.0067 47.8456 42.9945 47.9345C42.9767 48.0722 42.9578 48.21 42.9389 48.3467C42.9267 48.4345 42.9145 48.5233 42.9011 48.6111C42.88 48.7533 42.8578 48.8945 42.8345 49.0356L42.8233 49.1045C42.8145 49.1622 42.8045 49.22 42.7956 49.2767C42.7678 49.4433 42.7378 49.6089 42.7067 49.7733L42.6945 49.8433C42.6889 49.8733 42.6833 49.9033 42.6778 49.9333C42.6356 50.1522 42.5911 50.37 42.5467 50.58C42.54 50.61 42.5333 50.64 42.5267 50.6689L42.5111 50.7378C42.4756 50.8989 42.4389 51.0589 42.4011 51.2178C42.3889 51.27 42.3756 51.3233 42.3622 51.3756L42.3445 51.4467C42.3111 51.5822 42.2767 51.7167 42.24 51.85C42.22 51.9245 42.2 51.9978 42.1789 52.0722L42.1722 52.0956C42.1367 52.2233 42.1 52.3511 42.0622 52.4767C42.0378 52.5589 42.0133 52.6411 41.9878 52.7222C41.9478 52.85 41.9067 52.9767 41.8656 53.1022L41.8478 53.1556C41.8278 53.2156 41.8078 53.2756 41.7878 53.3345C41.7411 53.4711 41.6911 53.6067 41.6422 53.7422L41.6156 53.8156C41.6011 53.8556 41.5867 53.8956 41.5722 53.9345C41.49 54.1511 41.4133 54.3433 41.3389 54.5233C41.3389 54.5245 41.3345 54.5345 41.3333 54.5356C41.2511 54.7322 41.1667 54.9233 41.0811 55.1111L41.0478 55.1822C40.9578 55.3756 40.8722 55.5533 40.7856 55.7256L40.7622 55.7711C40.6745 55.9411 40.5945 56.0933 40.5133 56.24Z" fill="#F9FAFB"/>
<path d="M93.5933 53.3544H88.1333H84.8922L86.6144 55.7033H89.8555H95.3155L93.5933 53.3544Z" fill="#D0D5DD"/>
<path d="M95.3145 55.87H86.6145C86.5611 55.87 86.5111 55.8445 86.48 55.8022L84.7578 53.4545C84.7211 53.4033 84.7156 53.3367 84.7434 53.28C84.7711 53.2245 84.8289 53.1889 84.8922 53.1889H93.5934C93.6467 53.1889 93.6967 53.2145 93.7278 53.2567L95.45 55.6045C95.4867 55.6556 95.4922 55.7222 95.4645 55.7789C95.4356 55.8345 95.3778 55.87 95.3145 55.87ZM86.6989 55.5367H94.9856L93.5078 53.5222H85.22L86.6989 55.5367Z" fill="#F9FAFB"/>
<path d="M85.3066 75.8066H84.5522H69.2322L70.9544 78.1544H86.2744H87.0277L85.3066 75.8066Z" fill="#D0D5DD"/>
<path d="M87.0278 78.3211H70.9533C70.9 78.3211 70.85 78.2956 70.8189 78.2533L69.0967 75.9056C69.06 75.8545 69.0544 75.7878 69.0822 75.7311C69.11 75.6756 69.1678 75.64 69.2311 75.64H85.3056C85.3589 75.64 85.4089 75.6656 85.44 75.7078L87.1622 78.0556C87.1989 78.1067 87.2045 78.1733 87.1767 78.23C87.1489 78.2867 87.0911 78.3211 87.0278 78.3211ZM71.0378 77.9878H86.6989L85.2222 75.9733H69.5611L71.0378 77.9878Z" fill="#F9FAFB"/>
<path d="M86.2744 66.1689C86.5366 66.1689 86.7166 66.3744 86.6766 66.6278C86.6366 66.8811 86.39 67.0867 86.1278 67.0867H73.5867C73.3233 67.0867 73.1444 66.8811 73.1844 66.6278C73.2244 66.3744 73.47 66.1689 73.7333 66.1689H86.2744Z" fill="#98A2B3"/>
<path d="M86.1289 67.2523H73.5867C73.4111 67.2523 73.2489 67.1811 73.1422 67.0556C73.0367 66.9323 72.9933 66.77 73.02 66.6011C73.0733 66.2656 73.3867 66.0023 73.7333 66.0023H86.2756C86.4511 66.0023 86.6133 66.0745 86.72 66.1989C86.8256 66.3234 86.8689 66.4845 86.8422 66.6534C86.7878 66.9889 86.4756 67.2523 86.1289 67.2523ZM73.7333 66.3356C73.5522 66.3356 73.3767 66.4811 73.3489 66.6534C73.3378 66.7245 73.3544 66.7911 73.3956 66.8389C73.4389 66.89 73.5078 66.9189 73.5867 66.9189H86.1289C86.31 66.9189 86.4856 66.7734 86.5133 66.6011C86.5245 66.53 86.5078 66.4634 86.4667 66.4156C86.4233 66.3645 86.3544 66.3356 86.2756 66.3356H73.7333Z" fill="#98A2B3"/>
<path d="M85.8511 68.8233C86.1133 68.8233 86.2944 69.0277 86.2533 69.2822C86.2133 69.5355 85.9666 69.74 85.7044 69.74H73.5577C73.2944 69.74 73.1144 69.5355 73.1555 69.2822C73.1955 69.0289 73.4411 68.8233 73.7044 68.8233H85.8511Z" fill="#98A2B3"/>
<path d="M85.7055 69.9055H73.5578C73.3811 69.9055 73.2189 69.8333 73.1122 69.7088C73.0066 69.5855 72.9633 69.4244 72.99 69.2544C73.0433 68.9188 73.3566 68.6555 73.7033 68.6555H85.8511C86.0266 68.6555 86.1889 68.7277 86.2955 68.8522C86.4011 68.9755 86.4444 69.1377 86.4178 69.3066C86.3644 69.6433 86.0522 69.9055 85.7055 69.9055ZM73.7044 68.99C73.5233 68.99 73.3478 69.1355 73.32 69.3077C73.3089 69.3788 73.3244 69.4444 73.3666 69.4933C73.41 69.5444 73.4789 69.5733 73.5589 69.5733H85.7066C85.8878 69.5733 86.0633 69.4277 86.0911 69.2555C86.1022 69.1844 86.0866 69.1177 86.0444 69.07C86.0011 69.0188 85.9322 68.99 85.8533 68.99H73.7044Z" fill="#98A2B3"/>
<path d="M84.5667 71.4778C84.83 71.4778 85.01 71.6822 84.9689 71.9356C84.9289 72.1889 84.6833 72.3945 84.42 72.3945H72.9011C72.6378 72.3945 72.4578 72.19 72.4989 71.9356C72.5389 71.6822 72.7844 71.4778 73.0478 71.4778H84.5667Z" fill="#98A2B3"/>
<path d="M84.42 72.56H72.9011C72.7245 72.56 72.5622 72.4889 72.4556 72.3633C72.35 72.24 72.3067 72.0778 72.3334 71.9078C72.3867 71.5722 72.7 71.31 73.0467 71.31H84.5667C84.7434 71.31 84.9056 71.3811 85.0122 71.5067C85.1178 71.63 85.1611 71.7911 85.1345 71.9611C85.08 72.2978 84.7667 72.56 84.42 72.56ZM73.0467 71.6444C72.8656 71.6444 72.69 71.79 72.6622 71.9622C72.6511 72.0344 72.6667 72.1 72.7089 72.1489C72.7522 72.2 72.8211 72.2289 72.9 72.2289H84.42C84.6011 72.2289 84.7767 72.0833 84.8045 71.9111C84.8156 71.84 84.8 71.7744 84.7578 71.7256C84.7145 71.6744 84.6456 71.6456 84.5656 71.6456H73.0467V71.6444Z" fill="#98A2B3"/>
<path d="M92.5944 50.5911C92.8244 50.5911 92.9833 50.7711 92.9477 50.9933C92.9122 51.2167 92.6966 51.3967 92.4666 51.3967H86.6255C86.3955 51.3967 86.2366 51.2167 86.2722 50.9933C86.3077 50.7711 86.5233 50.5911 86.7533 50.5911H92.5944Z" fill="#D0D5DD"/>
<path d="M92.4655 51.5633H86.6244C86.4644 51.5633 86.3166 51.4978 86.2188 51.3833C86.1222 51.27 86.0822 51.1222 86.1066 50.9667C86.1555 50.6622 86.4388 50.4233 86.7522 50.4233H92.5933C92.7533 50.4233 92.9022 50.4889 92.9988 50.6033C93.0955 50.7167 93.1355 50.8645 93.1111 51.0189C93.0633 51.3245 92.7788 51.5633 92.4655 51.5633ZM86.7533 50.7578C86.6044 50.7578 86.4588 50.8778 86.4366 51.02C86.4277 51.0778 86.44 51.1289 86.4733 51.1678C86.5077 51.2078 86.5622 51.23 86.6255 51.23H92.4666C92.6155 51.23 92.7611 51.11 92.7833 50.9667C92.7922 50.9089 92.78 50.8589 92.7466 50.82C92.7122 50.78 92.6577 50.7567 92.5944 50.7567H86.7533V50.7578Z" fill="#D0D5DD"/>
<path d="M40.421 47.5266C40.651 47.5266 40.8099 47.7066 40.7744 47.9288C40.7388 48.1522 40.5232 48.3322 40.2932 48.3322H29.8155C29.5855 48.3322 29.4266 48.1522 29.4621 47.9288C29.4977 47.7066 29.7132 47.5266 29.9432 47.5266H40.421Z" fill="#D0D5DD"/>
<path d="M40.2922 48.4989H29.8145C29.6545 48.4989 29.5067 48.4333 29.4089 48.3189C29.3122 48.2056 29.2722 48.0578 29.2967 47.9022C29.3456 47.5978 29.6289 47.3589 29.9422 47.3589H40.42C40.58 47.3589 40.7289 47.4244 40.8256 47.5389C40.9222 47.6522 40.9622 47.8 40.9367 47.9544C40.89 48.26 40.6056 48.4989 40.2922 48.4989ZM29.9433 47.6933C29.7945 47.6933 29.6489 47.8133 29.6267 47.9556C29.6178 48.0133 29.63 48.0644 29.6633 48.1033C29.6978 48.1433 29.7522 48.1656 29.8156 48.1656H40.2933C40.4422 48.1656 40.5878 48.0456 40.61 47.9022C40.6189 47.8444 40.6067 47.7944 40.5733 47.7556C40.5389 47.7156 40.4845 47.6922 40.4211 47.6922H29.9433V47.6933Z" fill="#D0D5DD"/>
<path d="M40.0488 49.8589C40.2788 49.8589 40.4377 50.0389 40.4022 50.2611C40.3666 50.4833 40.1511 50.6633 39.9211 50.6633H29.4433C29.2133 50.6633 29.0544 50.4833 29.0899 50.2611C29.1255 50.0389 29.341 49.8589 29.571 49.8589H40.0488Z" fill="#D0D5DD"/>
<path d="M39.92 50.8311H29.4423C29.2823 50.8311 29.1334 50.7655 29.0367 50.6511C28.94 50.5378 28.9 50.39 28.9245 50.2355C28.9734 49.9311 29.2567 49.6922 29.57 49.6922H40.0478C40.2078 49.6922 40.3567 49.7578 40.4534 49.8722C40.55 49.9855 40.59 50.1333 40.5645 50.2878C40.5178 50.5922 40.2345 50.8311 39.92 50.8311ZM29.5712 50.0255C29.4223 50.0255 29.2767 50.1455 29.2545 50.2878C29.2456 50.3455 29.2578 50.3955 29.2912 50.4344C29.3256 50.4744 29.38 50.4978 29.4434 50.4978H39.9212C40.07 50.4978 40.2156 50.3778 40.2378 50.2355C40.2467 50.1778 40.2345 50.1278 40.2012 50.0889C40.1667 50.0489 40.1123 50.0255 40.0489 50.0255H29.5712Z" fill="#D0D5DD"/>
<path d="M92.8967 48.6967C93.1267 48.6967 93.2855 48.8767 93.25 49.1C93.2144 49.3222 92.9989 49.5022 92.7689 49.5022H86.9278C86.6978 49.5022 86.5389 49.3222 86.5744 49.1C86.61 48.8767 86.8255 48.6967 87.0555 48.6967H92.8967Z" fill="#D0D5DD"/>
<path d="M92.7678 49.6689H86.9266C86.7666 49.6689 86.6178 49.6034 86.5211 49.4889C86.4244 49.3756 86.3844 49.2278 86.4089 49.0734C86.4578 48.7689 86.7411 48.53 87.0555 48.53H92.8966C93.0566 48.53 93.2044 48.5956 93.3022 48.71C93.3989 48.8234 93.4389 48.9711 93.4144 49.1267C93.3655 49.43 93.0811 49.6689 92.7678 49.6689ZM87.0555 48.8634C86.9066 48.8634 86.7611 48.9834 86.7389 49.1267C86.73 49.1845 86.7422 49.2345 86.7755 49.2734C86.81 49.3134 86.8644 49.3367 86.9278 49.3367H92.7689C92.9178 49.3367 93.0633 49.2167 93.0855 49.0745C93.0944 49.0167 93.0822 48.9656 93.0489 48.9267C93.0144 48.8867 92.96 48.8645 92.8966 48.8645H87.0555V48.8634Z" fill="#D0D5DD"/>
<path d="M95.1401 33.2144L95.359 34.5844C95.4912 35.4055 96.0545 36.0489 96.8656 36.3022L98.2201 36.7244L96.7312 37.1466C95.8401 37.4 95.0712 38.0433 94.6767 38.8644L94.0201 40.2344L93.8001 38.8644C93.6678 38.0433 93.1045 37.4 92.2934 37.1466L90.9401 36.7244L92.4278 36.3022C93.3189 36.0489 94.0878 35.4055 94.4823 34.5844L95.1401 33.2144Z" fill="#D0D5DD"/>
<path d="M32.7511 34.6022L32.9189 35.6522C33.02 36.2822 33.4522 36.7756 34.0745 36.9689L35.1122 37.2922L33.9711 37.6167C33.2878 37.81 32.6978 38.3033 32.3956 38.9322L31.8922 39.9833L31.7245 38.9322C31.6233 38.3022 31.1911 37.81 30.5689 37.6167L29.5311 37.2922L30.6722 36.9689C31.3556 36.7756 31.9456 36.2811 32.2478 35.6522L32.7511 34.6022Z" fill="#D0D5DD"/>
<path d="M91.1789 75.3167L91.2722 75.9022C91.3289 76.2522 91.57 76.5278 91.9166 76.6355L92.4944 76.8155L91.8589 76.9955C91.4777 77.1044 91.1489 77.3789 90.98 77.7289L90.6989 78.3144L90.6055 77.7289C90.5489 77.3789 90.3089 77.1033 89.9622 76.9955L89.3833 76.8155L90.02 76.6355C90.4011 76.5267 90.7289 76.2522 90.8977 75.9022L91.1789 75.3167Z" fill="#D0D5DD"/>
<path d="M27.0579 73.0511L27.1512 73.6366C27.2079 73.9877 27.449 74.2622 27.7956 74.37L28.3734 74.55L27.7379 74.73C27.3567 74.8389 27.0279 75.1133 26.859 75.4644L26.579 76.05L26.4856 75.4644C26.4301 75.1133 26.189 74.8389 25.8423 74.73L25.2645 74.55L25.9001 74.37C26.2812 74.2622 26.6101 73.9877 26.7779 73.6366L27.0579 73.0511Z" fill="#D0D5DD"/>
</svg>
