<svg width="151" height="150" viewBox="0 0 151 150" fill="none" xmlns="http://www.w3.org/2000/svg">
<path d="M75.5 122.697C103.819 122.697 126.776 113.691 126.776 102.582C126.776 91.4727 103.819 82.4668 75.5 82.4668C47.1809 82.4668 24.2236 91.4727 24.2236 102.582C24.2236 113.691 47.1809 122.697 75.5 122.697Z" fill="#FEF2F2"/>
<path d="M54.3251 56.9941L56.4779 59.9289H45.1098L42.957 56.9941H54.3251Z" fill="#DC2626"/>
<path d="M56.4779 60.1365H45.1098C45.0432 60.1365 44.9807 60.1046 44.9418 60.0518L42.789 57.1171C42.7432 57.0532 42.7362 56.9699 42.7709 56.899C42.8057 56.8296 42.8779 56.7852 42.957 56.7852H54.3251C54.3918 56.7852 54.4543 56.8171 54.4931 56.8699L56.6459 59.8046C56.6918 59.8685 56.6987 59.9518 56.664 60.0227C56.6279 60.0921 56.557 60.1365 56.4779 60.1365ZM45.2154 59.7199H56.0668L54.2195 57.2018H43.3682L45.2154 59.7199Z" fill="#FEF2F2"/>
<path d="M54.325 56.9922C53.9639 61.9061 53.0361 66.4769 50.8958 70.3144H40.8333H32.25C33.5542 67.7908 34.7069 63.4547 35.6792 56.9922H42.9569H54.325ZM50.8653 60.4144C51.1528 60.4144 51.4222 60.1894 51.4667 59.9102C51.5111 59.6325 51.3125 59.4075 51.025 59.4075H37.9278C37.6403 59.4075 37.3708 59.6325 37.3264 59.9102C37.2819 60.1894 37.4792 60.4144 37.7681 60.4144H50.8653ZM49.4319 66.245C49.7194 66.245 49.9889 66.02 50.0333 65.7408C50.0778 65.463 49.8792 65.238 49.5917 65.238H36.4944C36.2069 65.238 35.9375 65.463 35.8931 65.7408C35.8486 66.02 36.0458 66.245 36.3347 66.245H49.4319ZM50.4 63.3297C50.6875 63.3297 50.9569 63.1047 51.0014 62.8269C51.0458 62.5491 50.8472 62.3241 50.5597 62.3241H37.4625C37.175 62.3241 36.9056 62.5491 36.8611 62.8269C36.8167 63.1047 37.0153 63.3297 37.3028 63.3297H50.4Z" fill="#FEE2E2"/>
<path d="M50.8958 70.5235H32.2499C32.1777 70.5235 32.1097 70.486 32.0722 70.4235C32.0347 70.361 32.0319 70.2846 32.0652 70.2193C33.3874 67.6624 34.5347 63.2013 35.4735 56.961C35.4888 56.8596 35.5763 56.7832 35.6791 56.7832H54.3249C54.3833 56.7832 54.4388 56.8068 54.4777 56.8499C54.5166 56.8929 54.5374 56.9499 54.5333 57.0068C54.1166 62.6735 53.0194 66.9346 51.0777 70.4151C51.0402 70.4832 50.9708 70.5235 50.8958 70.5235ZM32.586 70.1068H50.7722C52.6208 66.7457 53.6805 62.6346 54.0999 57.2013H35.8583C34.9527 63.1568 33.8527 67.4943 32.586 70.1068ZM49.4319 66.454H36.3347C36.1347 66.454 35.9499 66.3721 35.8277 66.229C35.7069 66.0874 35.6569 65.9026 35.6874 65.7082C35.7485 65.3276 36.1027 65.029 36.4944 65.029H49.5916C49.7916 65.029 49.9777 65.111 50.0985 65.254C50.2194 65.3957 50.2694 65.5804 50.2388 65.7735C50.1777 66.1554 49.8235 66.454 49.4319 66.454ZM36.4944 65.4471C36.3083 65.4471 36.1263 65.5971 36.0985 65.7749C36.0874 65.8471 36.1027 65.911 36.1444 65.9596C36.1874 66.0096 36.2555 66.0374 36.3347 66.0374H49.4319C49.618 66.0374 49.7999 65.8874 49.8277 65.7082C49.8388 65.636 49.8235 65.5735 49.7819 65.5249C49.7388 65.4749 49.6708 65.4457 49.5916 65.4457H36.4944V65.4471ZM50.3999 63.5388H37.3027C37.1027 63.5388 36.9166 63.4568 36.7958 63.3138C36.6749 63.1721 36.6249 62.9874 36.6555 62.7943C36.7166 62.4138 37.0708 62.1151 37.4624 62.1151H50.5597C50.7597 62.1151 50.9458 62.1971 51.0666 62.3401C51.1874 62.4818 51.2374 62.6665 51.2055 62.8596C51.1472 63.2401 50.793 63.5388 50.3999 63.5388ZM37.4638 62.5318C37.2777 62.5318 37.0958 62.6818 37.068 62.8596C37.0569 62.9318 37.0722 62.9943 37.1138 63.0429C37.1569 63.0929 37.2249 63.1221 37.3041 63.1221H50.4013C50.5874 63.1221 50.7694 62.9721 50.7972 62.7943C50.8083 62.7221 50.793 62.6596 50.7513 62.611C50.7083 62.561 50.6402 62.5318 50.561 62.5318H37.4638ZM50.8652 60.6235H37.768C37.568 60.6235 37.3833 60.5415 37.261 60.3985C37.1402 60.2568 37.0902 60.0721 37.1208 59.8776C37.1819 59.4971 37.536 59.1985 37.9277 59.1985H51.0249C51.2249 59.1985 51.411 59.2804 51.5319 59.4235C51.6527 59.5651 51.7027 59.7499 51.6708 59.9429C51.6124 60.3249 51.2569 60.6235 50.8652 60.6235ZM37.9291 59.6165C37.743 59.6165 37.561 59.7665 37.5333 59.9443C37.5222 60.0165 37.5374 60.0804 37.5791 60.129C37.6222 60.179 37.6902 60.2068 37.7694 60.2068H50.8666C51.0527 60.2068 51.2346 60.0568 51.2624 59.8776C51.2735 59.8054 51.2583 59.7429 51.2166 59.6943C51.1735 59.6443 51.1055 59.6151 51.0263 59.6151H37.9291V59.6165Z" fill="#FEF2F2"/>
<path d="M49.5915 65.2383C49.879 65.2383 50.0777 65.4633 50.0332 65.7411C49.9888 66.0202 49.7193 66.2452 49.4318 66.2452H36.3346C36.0471 66.2452 35.8485 66.0202 35.8929 65.7411C35.9374 65.4633 36.2068 65.2383 36.4943 65.2383H49.5915Z" fill="#FCA5A5"/>
<path d="M49.4319 66.4543H36.3347C36.1347 66.4543 35.95 66.3724 35.8277 66.2293C35.7069 66.0876 35.6569 65.9029 35.6875 65.7085C35.7486 65.3279 36.1027 65.0293 36.4944 65.0293H49.5916C49.7916 65.0293 49.9777 65.1112 50.0986 65.2543C50.2194 65.396 50.2694 65.5807 50.2389 65.7737C50.1777 66.1557 49.8236 66.4543 49.4319 66.4543ZM36.4944 65.4474C36.3083 65.4474 36.1264 65.5974 36.0986 65.7751C36.0875 65.8474 36.1028 65.9112 36.1444 65.9599C36.1875 66.0099 36.2555 66.0376 36.3347 66.0376H49.4319C49.618 66.0376 49.8 65.8876 49.8277 65.7085C49.8389 65.6362 49.8236 65.5737 49.7819 65.5251C49.7389 65.4751 49.6708 65.446 49.5916 65.446H36.4944V65.4474Z" fill="#FCA5A5"/>
<path d="M78.7669 49.5879L77.6308 56.7115C74.7558 56.7115 72.0682 58.9587 71.6252 61.7309C71.1835 64.5046 73.1544 66.7504 76.0294 66.7504L74.8933 73.874H62.7835C62.3419 76.6462 59.653 78.8934 56.7766 78.8934C53.903 78.8934 51.9308 76.6462 52.3724 73.874H40.2627L40.8308 70.3157H50.8932C53.0335 66.4768 53.9627 61.9073 54.3224 56.9934H42.9544L43.9349 50.8476C44.046 50.1518 44.721 49.5879 45.4405 49.5879H78.7669Z" fill="#FCA5A5"/>
<path d="M56.7778 79.1011C55.3028 79.1011 54.0097 78.5386 53.1375 77.515C52.3417 76.5831 51.9903 75.3706 52.1361 74.0817H40.2653C40.2042 74.0817 40.1458 74.0553 40.1069 74.0081C40.0681 73.9622 40.05 73.8997 40.0597 73.84L40.6278 70.2817C40.6444 70.1803 40.7306 70.1067 40.8333 70.1067H50.7736C52.6222 66.7456 53.6819 62.6345 54.1014 57.2011H42.9583C42.8972 57.2011 42.8389 57.1747 42.8 57.1275C42.7611 57.0817 42.7431 57.0192 42.7528 56.9595L43.7333 50.8136C43.8597 50.022 44.6278 49.3789 45.4444 49.3789H78.7681C78.8292 49.3789 78.8875 49.4053 78.9264 49.4525C78.9653 49.4984 78.9833 49.5608 78.9736 49.6206L77.8375 56.7442C77.8208 56.8456 77.7347 56.9192 77.6319 56.9192C74.8597 56.9192 72.2583 59.0928 71.8319 61.7636C71.6319 63.022 71.9417 64.2081 72.7056 65.1025C73.4972 66.0303 74.6778 66.5414 76.0292 66.5414C76.0903 66.5414 76.1486 66.5678 76.1875 66.615C76.2264 66.6609 76.2444 66.7234 76.2347 66.7831L75.0986 73.9067C75.0819 74.0081 74.9958 74.0817 74.8931 74.0817H62.9583C62.4194 76.8664 59.6861 79.1011 56.7778 79.1011ZM40.5097 73.665H52.375C52.4361 73.665 52.4944 73.6914 52.5333 73.7386C52.5722 73.7845 52.5903 73.847 52.5806 73.9067C52.3806 75.1636 52.6903 76.3497 53.4556 77.2456C54.2472 78.1733 55.4278 78.6859 56.7792 78.6859C59.5514 78.6859 62.1542 76.5122 62.5806 73.8414C62.5972 73.74 62.6833 73.6664 62.7861 73.6664H74.7181L75.7889 66.9539C74.4139 66.8956 73.2153 66.34 72.3917 65.3734C71.5472 64.3831 71.2028 63.0775 71.4236 61.6984C71.8708 58.8914 74.5556 56.597 77.4569 56.5053L78.5278 49.7956H45.4431C44.8208 49.7956 44.2389 50.2817 44.1431 50.8803L43.2014 56.7845H54.325C54.3833 56.7845 54.4389 56.8081 54.4778 56.8511C54.5167 56.8942 54.5375 56.9511 54.5333 57.0081C54.1167 62.6747 53.0194 66.9359 51.0778 70.4164C51.0403 70.4831 50.9708 70.5233 50.8958 70.5233H41.0111L40.5097 73.665Z" fill="#FEF2F2"/>
<path d="M53.7862 98.1621H37.6973C37.5487 98.1621 37.4098 98.1385 37.2848 98.0941C37.0751 98.0204 36.9014 97.8913 36.7778 97.7246L38.9306 100.659C39.1278 100.927 39.4542 101.097 39.8501 101.097H55.9403L53.7862 98.1621Z" fill="#FCA5A5"/>
<path d="M55.9391 101.305H39.8488C39.4016 101.305 39.0057 101.115 38.7613 100.783L36.6099 97.8492L36.6085 97.8478C36.5405 97.7548 36.5613 97.6242 36.653 97.5562C36.7446 97.4881 36.8766 97.5076 36.9446 97.6006C37.0446 97.7353 37.1849 97.8381 37.3516 97.8965C37.4585 97.934 37.5738 97.952 37.696 97.952H53.7863C53.853 97.952 53.9155 97.984 53.9543 98.0367L56.1071 100.971C56.153 101.035 56.1599 101.119 56.1252 101.19C56.0891 101.26 56.0182 101.305 55.9391 101.305ZM37.5002 98.3576L39.0974 100.535C39.2613 100.759 39.5363 100.888 39.8488 100.888H55.528L53.6807 98.3701H37.6974C37.6307 98.3701 37.5641 98.3659 37.5002 98.3576Z" fill="#FEF2F2"/>
<path d="M115.36 53.6337C115.361 53.6087 115.361 53.5851 115.361 53.5615C115.361 53.5476 115.36 53.5337 115.358 53.5198C115.357 53.499 115.356 53.4768 115.353 53.4559C115.351 53.4407 115.349 53.4268 115.346 53.4129C115.343 53.4004 115.343 53.3865 115.34 53.3726C115.339 53.3684 115.338 53.3643 115.336 53.3601C115.326 53.3129 115.314 53.2684 115.299 53.224C115.297 53.2212 115.297 53.2198 115.297 53.2171C115.294 53.2087 115.29 53.2018 115.288 53.1934C115.276 53.1671 115.265 53.1393 115.253 53.1143C115.25 53.1087 115.249 53.1032 115.246 53.0976C115.242 53.0907 115.238 53.0837 115.233 53.0754C115.222 53.0559 115.211 53.0365 115.2 53.0184C115.196 53.0115 115.192 53.0032 115.188 52.9962C115.179 52.9837 115.171 52.9712 115.163 52.9601L113.01 50.0254C113.024 50.0448 113.036 50.0643 113.049 50.0837C113.06 50.1018 113.071 50.1212 113.082 50.1407C113.089 50.1532 113.096 50.1657 113.103 50.1796C113.115 50.2059 113.126 50.2323 113.138 50.2587C113.142 50.2684 113.146 50.2782 113.15 50.2893C113.165 50.3337 113.178 50.3782 113.188 50.4254C113.192 50.4434 113.194 50.4601 113.197 50.4782C113.2 50.4921 113.201 50.5073 113.204 50.5212C113.207 50.5421 113.208 50.5643 113.21 50.5851C113.211 50.599 113.213 50.6129 113.213 50.6268C113.213 50.6504 113.213 50.6754 113.211 50.7004C113.211 50.7129 113.211 50.724 113.21 50.7365C113.207 50.774 113.203 50.8101 113.197 50.849L111.903 58.9629L114.056 61.8976L115.35 53.7837C115.356 53.7462 115.36 53.7087 115.363 53.6726C115.36 53.6587 115.36 53.6462 115.36 53.6337Z" fill="#FCA5A5"/>
<path d="M114.053 62.1047C113.987 62.1047 113.925 62.0742 113.885 62.02L111.732 59.0853C111.699 59.0409 111.686 58.9839 111.694 58.9297L112.989 50.8159C112.994 50.7839 112.997 50.7534 113 50.7228L113.001 50.6923C113.001 50.6728 113.003 50.6534 113.003 50.6325L113.001 50.5978C113 50.5811 112.999 50.5631 112.997 50.5464L112.993 50.52C112.989 50.4978 112.987 50.4839 112.985 50.4686C112.976 50.4297 112.967 50.3922 112.954 50.3589C112.954 50.3575 112.944 50.3367 112.944 50.3353C112.936 50.3131 112.926 50.2923 112.917 50.2714L112.9 50.2409C112.892 50.227 112.883 50.2103 112.874 50.1964C112.861 50.1756 112.853 50.1631 112.844 50.1506C112.776 50.0575 112.796 49.927 112.889 49.8589C112.982 49.7909 113.112 49.8103 113.181 49.9034L113.182 49.9047L115.333 52.8381C115.344 52.8534 115.354 52.8672 115.364 52.8825C115.369 52.8895 115.375 52.8992 115.379 52.9089C115.393 52.9311 115.407 52.9534 115.419 52.977C115.425 52.9867 115.431 52.995 115.435 53.0034C115.437 53.0089 115.444 53.0228 115.446 53.0297C115.458 53.0561 115.472 53.0881 115.485 53.12C115.489 53.127 115.492 53.1367 115.496 53.145C115.497 53.1506 115.5 53.1561 115.501 53.1631C115.518 53.2103 115.532 53.2603 115.543 53.3131C115.544 53.3186 115.547 53.327 115.547 53.3311C115.55 53.3464 115.551 53.3589 115.554 53.3714L115.557 53.3895C115.56 53.4047 115.561 53.4186 115.564 53.4339C115.567 53.4603 115.568 53.4853 115.569 53.5103C115.571 53.5311 115.572 53.545 115.572 53.5589C115.572 53.5867 115.572 53.6117 115.571 53.6381C115.571 53.6395 115.571 53.6464 115.571 53.6464V53.6561C115.571 53.6659 115.571 53.677 115.569 53.6867C115.567 53.7297 115.561 53.7742 115.554 53.8172L114.26 61.9311C114.246 62.0145 114.185 62.0811 114.103 62.1006C114.085 62.102 114.069 62.1047 114.053 62.1047ZM112.119 58.9075L113.925 61.37L115.14 53.7492C115.146 53.7172 115.149 53.6867 115.151 53.6561V53.627V53.6214C115.151 53.6034 115.153 53.5839 115.153 53.5659L115.151 53.545C115.151 53.5436 115.15 53.5325 115.15 53.5311C115.149 53.5145 115.149 53.4964 115.146 53.4797L115.137 53.4228C115.137 53.4186 115.135 53.4075 115.132 53.3978C115.125 53.3631 115.114 53.327 115.103 53.2936C115.103 53.2922 115.101 53.2895 115.1 53.2867C115.099 53.2825 115.094 53.277 115.093 53.27C115.085 53.2478 115.075 53.227 115.065 53.2061C115.064 53.2034 115.061 53.1964 115.058 53.1922C115.054 53.1867 115.05 53.1784 115.049 53.1756C115.04 53.1603 115.032 53.145 115.022 53.1297C115.021 53.127 115.012 53.1145 115.011 53.1103C115.006 53.102 114.999 53.0922 114.992 53.0825L113.394 50.9047L112.119 58.9075Z" fill="#FEF2F2"/>
<path d="M71.0209 98.1621L73.1736 101.097H55.9389L53.7861 98.1621H71.0209Z" fill="#F87171"/>
<path d="M73.1736 101.305H55.9389C55.8723 101.305 55.8098 101.273 55.7709 101.22L53.6181 98.2851C53.5723 98.2212 53.5653 98.1378 53.6 98.067C53.6348 97.9976 53.707 97.9531 53.7861 97.9531H71.0195C71.0861 97.9531 71.1486 97.9851 71.1875 98.0378L73.3403 100.973C73.3861 101.036 73.3931 101.12 73.3584 101.191C73.3236 101.26 73.2514 101.305 73.1736 101.305ZM56.0445 100.888H72.7611L70.9139 98.3698H54.1973L56.0445 100.888Z" fill="#FEF2F2"/>
<path d="M74.8946 73.873L73.7585 80.9967C76.6321 80.9967 78.6043 83.2439 78.1626 86.0161C77.721 88.7897 75.0321 91.0355 72.1571 91.0355L71.021 98.1592H53.7863H37.6974C36.9779 98.1592 36.4821 97.5967 36.5932 96.9008L40.2654 73.873H52.3751C51.9335 76.6453 53.9043 78.8925 56.7793 78.8925C59.6543 78.8925 62.3432 76.6453 62.7863 73.873H74.8946Z" fill="#FEE2E2"/>
<path d="M71.0208 98.3688H37.6972C37.2805 98.3688 36.9138 98.2077 36.6652 97.916C36.4236 97.6327 36.325 97.2605 36.3875 96.8688L40.0597 73.841C40.0763 73.7396 40.1625 73.666 40.2652 73.666H52.375C52.4361 73.666 52.4944 73.6924 52.5333 73.7396C52.5722 73.7855 52.5902 73.848 52.5805 73.9077C52.3805 75.1646 52.6902 76.3507 53.4555 77.2466C54.2472 78.1743 55.4277 78.6868 56.7791 78.6868C59.5513 78.6868 62.1541 76.5132 62.5805 73.8424C62.5972 73.741 62.6833 73.6674 62.7861 73.6674H74.8958C74.9569 73.6674 75.0152 73.6938 75.0541 73.741C75.093 73.7868 75.1111 73.8493 75.1013 73.9091L74.0027 80.7966C75.3763 80.8549 76.5763 81.4118 77.4 82.3771C78.2444 83.3674 78.5888 84.673 78.368 86.0521C77.9208 88.8591 75.2361 91.1535 72.3347 91.2452L71.2263 98.1966C71.2097 98.2938 71.1222 98.3688 71.0208 98.3688ZM40.443 74.0813L36.7986 96.9341C36.7555 97.2035 36.8208 97.4563 36.9819 97.6452C37.15 97.8424 37.4041 97.9521 37.6972 97.9521H70.843L71.9513 91.0035C71.968 90.9021 72.0541 90.8285 72.1569 90.8285C74.9291 90.8285 77.5305 88.6549 77.9569 85.9841C78.1569 84.7271 77.8472 83.541 77.0833 82.6452C76.2916 81.7174 75.1111 81.2063 73.7597 81.2063C73.6986 81.2063 73.6402 81.1799 73.6013 81.1327C73.5625 81.0868 73.5444 81.0243 73.5541 80.9646L74.6513 74.0827H62.9611C62.4208 76.866 59.6875 79.1021 56.7805 79.1021C55.3055 79.1021 54.0125 78.5396 53.1402 77.516C52.3444 76.5841 51.993 75.3716 52.1388 74.0827H40.443V74.0813Z" fill="#FEF2F2"/>
<path d="M108.481 80.4023L110.634 83.3371H92.8877L90.7363 80.4023H108.481Z" fill="#F87171"/>
<path d="M110.633 83.5447H92.8877C92.821 83.5447 92.7585 83.5128 92.7196 83.46L90.5668 80.5253C90.521 80.4614 90.514 80.3781 90.5488 80.3072C90.5835 80.2378 90.6557 80.1934 90.7349 80.1934H108.479C108.546 80.1934 108.608 80.2253 108.647 80.2781L110.8 83.2128C110.846 83.2767 110.853 83.36 110.818 83.4309C110.783 83.5003 110.711 83.5447 110.633 83.5447ZM92.9932 83.1281H110.222L108.375 80.61H91.1474L92.9932 83.1281Z" fill="#FEF2F2"/>
<path d="M118.725 58.9609L120.878 61.8957L119.644 69.629L117.492 66.6929L118.725 58.9609Z" fill="#FECACA"/>
<path d="M119.643 69.8374C119.578 69.8374 119.515 69.8069 119.475 69.7527L117.322 66.818C117.289 66.7736 117.276 66.7166 117.285 66.6624L118.518 58.9291C118.532 58.8458 118.593 58.7791 118.675 58.7597C118.757 58.7402 118.843 58.7708 118.892 58.8388L121.044 61.7736C121.078 61.818 121.09 61.875 121.082 61.9291L119.849 69.6624C119.835 69.7458 119.774 69.8125 119.692 69.8319C119.676 69.8347 119.66 69.8374 119.643 69.8374ZM117.711 66.6402L119.517 69.1027L120.657 61.9486L118.851 59.4861L117.711 66.6402Z" fill="#FEF2F2"/>
<path d="M111.9 58.9609H118.725L117.492 66.6943H110.667H106.615L107.849 58.9609H111.9ZM116.082 64.2457C116.369 64.2457 116.639 64.0207 116.683 63.7415C116.728 63.4637 116.529 63.2387 116.242 63.2387H108.94C108.653 63.2387 108.383 63.4637 108.339 63.7415C108.294 64.0207 108.492 64.2457 108.781 64.2457H116.082ZM116.46 61.8776C116.747 61.8776 117.017 61.6526 117.061 61.3748C117.106 61.0957 116.908 60.8707 116.619 60.8707H109.319C109.032 60.8707 108.762 61.0957 108.718 61.3748C108.674 61.6526 108.872 61.8776 109.16 61.8776H116.46Z" fill="#FEE2E2"/>
<path d="M117.492 66.902H106.615C106.554 66.902 106.496 66.8756 106.457 66.8283C106.418 66.7825 106.4 66.72 106.41 66.6603L107.643 58.927C107.66 58.8256 107.746 58.752 107.849 58.752H118.725C118.786 58.752 118.845 58.7783 118.883 58.8256C118.922 58.8714 118.94 58.9339 118.931 58.9936L117.697 66.727C117.681 66.8283 117.593 66.902 117.492 66.902ZM106.86 66.4853H117.314L118.481 59.1686H108.026L106.86 66.4853ZM116.082 64.4547H108.781C108.581 64.4547 108.396 64.3728 108.274 64.2297C108.153 64.0881 108.103 63.9033 108.133 63.7089C108.195 63.3283 108.549 63.0297 108.94 63.0297H116.242C116.442 63.0297 116.628 63.1117 116.749 63.2547C116.87 63.3964 116.92 63.5811 116.889 63.7742C116.829 64.1561 116.474 64.4547 116.082 64.4547ZM108.942 63.4478C108.756 63.4478 108.574 63.5978 108.546 63.7756C108.535 63.8478 108.55 63.9117 108.592 63.9603C108.635 64.0103 108.703 64.0381 108.782 64.0381H116.083C116.27 64.0381 116.451 63.8881 116.479 63.7089C116.49 63.6367 116.475 63.5742 116.433 63.5256C116.39 63.4756 116.322 63.4464 116.243 63.4464H108.942V63.4478ZM116.46 62.0867H109.158C108.958 62.0867 108.772 62.0047 108.651 61.8617C108.531 61.72 108.481 61.5353 108.513 61.3422C108.574 60.9617 108.928 60.6631 109.32 60.6631H116.621C116.821 60.6631 117.006 60.745 117.128 60.8881C117.249 61.0297 117.299 61.2145 117.268 61.4089C117.207 61.7881 116.851 62.0867 116.46 62.0867ZM109.32 61.0797C109.133 61.0797 108.951 61.2297 108.924 61.4089C108.913 61.4811 108.928 61.5436 108.97 61.5922C109.013 61.6422 109.081 61.6714 109.16 61.6714H116.461C116.647 61.6714 116.829 61.5214 116.857 61.3436C116.868 61.2714 116.853 61.2075 116.811 61.1589C116.768 61.1089 116.7 61.0811 116.621 61.0811H109.32V61.0797Z" fill="#FEF2F2"/>
<path d="M112.09 49.5859C112.811 49.5859 113.305 50.1498 113.194 50.8457L111.9 58.9595H107.849L106.615 66.6929H110.667L109.521 73.8734H98.1527C98.5944 71.0998 96.6235 68.854 93.7485 68.854C90.8749 68.854 88.186 71.0998 87.743 73.8734H74.8944L76.0305 66.7498C73.1555 66.7498 71.1846 64.5026 71.6263 61.7304C72.068 58.9582 74.7555 56.7109 77.6319 56.7109L78.768 49.5873H112.09V49.5859Z" fill="#FCA5A5"/>
<path d="M109.522 74.0811H98.1527C98.0916 74.0811 98.0332 74.0547 97.9944 74.0075C97.9555 73.9617 97.9374 73.8992 97.9471 73.8395C98.1471 72.5811 97.8374 71.3964 97.0735 70.5006C96.2819 69.5728 95.1013 69.0617 93.7485 69.0617C90.9763 69.0617 88.3749 71.2353 87.9485 73.9061C87.9319 74.0075 87.8457 74.0811 87.743 74.0811H74.8944C74.8332 74.0811 74.7749 74.0547 74.736 74.0075C74.6971 73.9617 74.6791 73.8992 74.6888 73.8395L75.7874 66.952C74.4124 66.8936 73.2138 66.3381 72.3902 65.3714C71.5457 64.3811 71.2013 63.0756 71.4221 61.6964C71.8694 58.8895 74.5541 56.595 77.4555 56.5033L78.5638 49.552C78.5805 49.4506 78.6666 49.377 78.7694 49.377H112.092C112.508 49.377 112.874 49.5381 113.124 49.8297C113.365 50.1131 113.465 50.4867 113.401 50.8783L112.107 58.9922C112.09 59.0936 112.004 59.1672 111.901 59.1672H108.028L106.861 66.4839H110.668C110.729 66.4839 110.787 66.5103 110.826 66.5575C110.865 66.6033 110.883 66.6658 110.874 66.7256L109.728 73.9061C109.711 74.0075 109.624 74.0811 109.522 74.0811ZM98.3916 73.6645H109.344L110.424 66.9006H106.617C106.555 66.9006 106.497 66.8742 106.458 66.827C106.419 66.7811 106.401 66.7186 106.411 66.6589L107.644 58.9256C107.661 58.8242 107.747 58.7506 107.85 58.7506H111.724L112.989 50.8117C113.032 50.5422 112.967 50.2881 112.805 50.0992C112.637 49.902 112.383 49.7936 112.092 49.7936H78.9444L77.836 56.7422C77.8194 56.8436 77.7332 56.9172 77.6305 56.9172C74.8582 56.9172 72.2569 59.0908 71.8305 61.7617C71.6305 63.02 71.9402 64.2061 72.7041 65.1006C73.4957 66.0283 74.6763 66.5395 76.0277 66.5395C76.0888 66.5395 76.1471 66.5658 76.186 66.6131C76.2249 66.6589 76.243 66.7214 76.2332 66.7811L75.136 73.6631H87.5666C88.1069 70.8797 90.8402 68.6436 93.7471 68.6436C95.2235 68.6436 96.5166 69.2061 97.3888 70.2297C98.1846 71.1631 98.536 72.3742 98.3916 73.6645Z" fill="#FEF2F2"/>
<path d="M110.667 66.6934L112.82 69.6295L111.674 76.8086L109.521 73.8739L110.667 66.6934Z" fill="#FCA5A5"/>
<path d="M111.674 77.0171C111.609 77.0171 111.546 76.9865 111.506 76.9324L109.353 73.9977C109.32 73.9532 109.307 73.8963 109.315 73.8421L110.461 66.6615C110.475 66.5782 110.536 66.5115 110.618 66.4921C110.7 66.4727 110.786 66.5032 110.835 66.5713L112.988 69.506C113.021 69.5504 113.034 69.6074 113.025 69.6615L111.879 76.8421C111.865 76.9254 111.804 76.9921 111.722 77.0115C111.707 77.0157 111.69 77.0171 111.674 77.0171ZM109.742 73.8213L111.547 76.2838L112.6 69.6824L110.795 67.2199L109.742 73.8213Z" fill="#FEF2F2"/>
<path d="M109.521 73.873L111.674 76.8078L110.633 83.3355L108.48 80.4008L109.521 73.873Z" fill="#FCA5A5"/>
<path d="M110.633 83.544C110.568 83.544 110.506 83.5134 110.465 83.4593L108.312 80.5246C108.279 80.4801 108.267 80.4232 108.275 80.369L109.317 73.8412C109.331 73.7579 109.392 73.6912 109.474 73.6718C109.556 73.6523 109.642 73.6829 109.69 73.7509L111.843 76.6857C111.876 76.7301 111.889 76.7871 111.881 76.8412L110.839 83.369C110.825 83.4523 110.764 83.519 110.682 83.5384C110.665 83.5426 110.65 83.544 110.633 83.544ZM108.7 80.3482L110.506 82.8107L111.454 76.8621L109.649 74.3996L108.7 80.3482Z" fill="#FEF2F2"/>
<path d="M88.2529 98.1621L90.4057 101.097H73.1738L71.021 98.1621H88.2529Z" fill="#F87171"/>
<path d="M90.4057 101.305H73.1738C73.1071 101.305 73.0446 101.273 73.0057 101.22L70.853 98.2851C70.8071 98.2212 70.8002 98.1378 70.8349 98.067C70.8696 97.9976 70.9418 97.9531 71.021 97.9531H88.2543C88.321 97.9531 88.3835 97.9851 88.4224 98.0378L90.5752 100.973C90.621 101.036 90.6279 101.12 90.5932 101.191C90.5571 101.26 90.4849 101.305 90.4057 101.305ZM73.2793 100.888H89.996L88.1488 98.3698H71.4321L73.2793 100.888Z" fill="#FEF2F2"/>
<path d="M88.253 98.1621L90.4058 101.097L89.353 107.7L87.2002 104.765L88.253 98.1621Z" fill="#FCA5A5"/>
<path d="M89.353 107.908C89.2877 107.908 89.2252 107.877 89.185 107.823L87.0322 104.888C86.9989 104.844 86.9864 104.787 86.9947 104.733L88.0475 98.1283C88.0614 98.045 88.1225 97.9783 88.2044 97.9589C88.2863 97.9394 88.3711 97.97 88.4211 98.0381L90.5739 100.973C90.6072 101.017 90.6197 101.074 90.6114 101.128L89.5586 107.733C89.5447 107.816 89.4836 107.883 89.4016 107.902C89.385 107.906 89.3697 107.908 89.353 107.908ZM87.4197 104.712L89.2252 107.174L90.1864 101.149L88.3808 98.6867L87.4197 104.712Z" fill="#FEF2F2"/>
<path d="M87.2001 104.764L89.3528 107.698H54.8862L52.7334 104.764H87.2001Z" fill="#FCA5A5"/>
<path d="M89.3529 107.906H54.8862C54.8195 107.906 54.757 107.874 54.7181 107.821L52.5654 104.887C52.5195 104.823 52.5126 104.739 52.5473 104.669C52.582 104.599 52.6542 104.555 52.7334 104.555H87.2001C87.2667 104.555 87.3292 104.587 87.3681 104.639L89.5209 107.574C89.5667 107.638 89.5737 107.721 89.539 107.792C89.5029 107.863 89.4306 107.906 89.3529 107.906ZM54.9917 107.489H88.9417L87.0945 104.971H53.1445L54.9917 107.489Z" fill="#FEF2F2"/>
<path d="M88.2528 98.1602L87.2001 104.763H52.7334L53.7862 98.1602H71.0209H88.2528Z" fill="#F87171"/>
<path d="M87.1998 104.972H52.7332C52.672 104.972 52.6137 104.946 52.5748 104.898C52.5346 104.853 52.5179 104.79 52.5276 104.73L53.5804 98.1262C53.597 98.0248 53.6832 97.9512 53.7859 97.9512H88.2526C88.3137 97.9512 88.3721 97.9776 88.4109 98.0248C88.4498 98.0706 88.4679 98.1331 88.4582 98.1928L87.4054 104.797C87.3901 104.898 87.3026 104.972 87.1998 104.972ZM52.9776 104.555H87.0221L88.0082 98.3678H53.9637L52.9776 104.555Z" fill="#FEF2F2"/>
<path d="M110.833 94.6276C110.918 94.422 111 94.2165 111.078 94.0082C111.081 94.0012 111.083 93.9943 111.085 93.9873C111.161 93.7832 111.235 93.5762 111.307 93.3693C111.321 93.329 111.335 93.2887 111.349 93.2484C111.418 93.0429 111.486 92.8359 111.551 92.6276C111.564 92.5873 111.576 92.547 111.589 92.5054C111.651 92.2998 111.714 92.0929 111.772 91.8832C111.775 91.8707 111.779 91.8595 111.783 91.847C111.843 91.6304 111.9 91.4123 111.956 91.1943C111.967 91.1498 111.978 91.1054 111.989 91.0609C112.042 90.8471 112.093 90.6304 112.142 90.4137C112.15 90.3762 112.158 90.3401 112.165 90.3026C112.211 90.097 112.254 89.8887 112.294 89.6818C112.3 89.6554 112.306 89.629 112.31 89.6026C112.353 89.3818 112.393 89.1582 112.432 88.9346C112.44 88.8873 112.449 88.8401 112.457 88.7915C112.494 88.5679 112.531 88.3443 112.564 88.1193C112.568 88.0887 112.572 88.0582 112.576 88.0276C112.607 87.8151 112.636 87.6026 112.664 87.3887C112.668 87.3526 112.674 87.3179 112.678 87.2818C112.706 87.0554 112.732 86.8276 112.757 86.5984C112.762 86.5498 112.767 86.5012 112.772 86.454C112.796 86.222 112.818 85.9901 112.839 85.7568C112.84 85.7373 112.842 85.7179 112.843 85.6984C112.862 85.4748 112.879 85.2512 112.894 85.0262C112.897 84.9832 112.9 84.9401 112.903 84.8971C112.918 84.6651 112.932 84.4332 112.944 84.1998C112.947 84.1526 112.949 84.1054 112.951 84.0582C112.962 83.8165 112.974 83.5762 112.982 83.3332L110.829 80.3984C110.821 80.6415 110.81 80.8832 110.799 81.1234C110.796 81.1707 110.794 81.2179 110.792 81.2651C110.779 81.4984 110.767 81.7318 110.75 81.9623C110.747 82.0054 110.744 82.0484 110.742 82.0915C110.726 82.3165 110.71 82.5401 110.69 82.7637C110.689 82.7832 110.687 82.8026 110.686 82.8221C110.665 83.0554 110.643 83.2887 110.619 83.5207C110.614 83.5693 110.61 83.6165 110.604 83.6651C110.579 83.8943 110.554 84.122 110.525 84.3484C110.521 84.3845 110.515 84.4207 110.511 84.4554C110.483 84.6693 110.454 84.8818 110.424 85.0943C110.419 85.1248 110.415 85.1554 110.411 85.1859C110.378 85.4109 110.342 85.6345 110.304 85.8582C110.296 85.9054 110.287 85.9526 110.279 85.9998C110.24 86.2234 110.2 86.4471 110.157 86.6679C110.151 86.6943 110.146 86.7193 110.142 86.7443C110.1 86.9526 110.057 87.1609 110.012 87.3665C110.004 87.404 109.997 87.4401 109.989 87.4776C109.94 87.6943 109.89 87.9095 109.836 88.1248C109.825 88.1693 109.814 88.2137 109.803 88.2595C109.747 88.4776 109.69 88.6957 109.631 88.9123C109.628 88.9248 109.624 88.9359 109.619 88.9484C109.561 89.1568 109.5 89.3637 109.436 89.5707C109.424 89.6109 109.411 89.6512 109.399 89.6915C109.333 89.8998 109.267 90.1068 109.196 90.3123C109.182 90.3526 109.168 90.3929 109.154 90.4332C109.082 90.6401 109.008 90.8457 108.932 91.0512C108.929 91.0582 108.926 91.0651 108.925 91.072C108.846 91.2804 108.764 91.4859 108.681 91.6915C108.664 91.7332 108.647 91.7748 108.629 91.8151C108.546 92.0151 108.46 92.2137 108.371 92.4095C108.353 92.4498 108.335 92.4887 108.317 92.529C108.251 92.672 108.185 92.8137 108.117 92.954C108.096 92.9971 108.075 93.0415 108.053 93.0845C107.968 93.2568 107.881 93.4276 107.792 93.5984C107.776 93.6262 107.761 93.6554 107.746 93.6832C107.668 93.829 107.589 93.9734 107.508 94.1165C107.482 94.1623 107.457 94.2082 107.431 94.254C107.335 94.422 107.236 94.5887 107.135 94.7554C107.135 94.7554 107.135 94.7568 107.133 94.7568L109.286 97.6915C109.387 97.5248 109.486 97.3582 109.583 97.1887C109.61 97.1429 109.635 97.0984 109.661 97.0526C109.742 96.9082 109.822 96.7637 109.899 96.6193C109.914 96.5915 109.929 96.5637 109.944 96.5345C110.035 96.3651 110.121 96.1929 110.206 96.0207C110.226 95.9776 110.247 95.9332 110.269 95.8901C110.337 95.7498 110.404 95.6082 110.469 95.4651C110.482 95.4373 110.496 95.4109 110.508 95.3832C110.514 95.3707 110.519 95.3582 110.525 95.3457C110.614 95.1484 110.7 94.9498 110.783 94.7512C110.799 94.7095 110.815 94.6679 110.833 94.6276Z" fill="#FCA5A5"/>
<path d="M109.285 97.9008C109.218 97.9008 109.155 97.8688 109.117 97.8161L106.964 94.8813C106.914 94.8133 106.91 94.7216 106.954 94.6494C107.055 94.4841 107.151 94.3188 107.247 94.1522L107.325 94.0161C107.405 93.8744 107.483 93.7313 107.56 93.5869L107.605 93.5022C107.694 93.3341 107.78 93.1647 107.864 92.9938L107.926 92.8647C107.994 92.7244 108.061 92.5841 108.125 92.4438L108.179 92.3258C108.264 92.1369 108.35 91.9383 108.435 91.7369L108.483 91.6188C108.576 91.391 108.657 91.1911 108.728 90.9994L108.736 90.9786C108.812 90.7772 108.885 90.573 108.955 90.3674L108.997 90.248C109.067 90.0438 109.133 89.8383 109.199 89.6313L109.235 89.5119C109.297 89.3077 109.358 89.1022 109.417 88.8952L109.426 88.8591C109.486 88.6438 109.543 88.4286 109.597 88.2119L109.63 88.0786C109.683 87.8661 109.733 87.6522 109.782 87.4369L109.805 87.3272C109.85 87.1216 109.893 86.9161 109.935 86.7077L109.95 86.6313C109.993 86.4119 110.033 86.1897 110.072 85.9674L110.096 85.8258C110.133 85.6036 110.169 85.3813 110.203 85.1577L110.215 85.0661C110.246 84.8549 110.275 84.6438 110.301 84.4313L110.315 84.3244C110.343 84.0994 110.369 83.8716 110.394 83.6452L110.41 83.5008C110.433 83.2702 110.455 83.0383 110.476 82.8063L110.48 82.7466C110.499 82.5258 110.517 82.3022 110.532 82.0785L110.54 81.9508C110.555 81.7202 110.569 81.4883 110.58 81.2563L110.587 81.1174C110.599 80.8744 110.61 80.6341 110.618 80.3924C110.621 80.3036 110.68 80.2272 110.765 80.2008C110.85 80.1744 110.942 80.2049 110.994 80.2772L113.147 83.2119C113.175 83.2494 113.189 83.2952 113.187 83.3424C113.179 83.5855 113.168 83.8286 113.157 84.0702L113.15 84.2133C113.137 84.448 113.124 84.6813 113.108 84.9147L113.099 85.0438C113.083 85.2702 113.065 85.4952 113.047 85.7188L113.043 85.7786C113.024 86.0119 113 86.2452 112.976 86.4786L112.961 86.6244C112.936 86.8536 112.91 87.0827 112.882 87.3105L112.868 87.4174C112.84 87.6327 112.811 87.8466 112.78 88.0605L112.767 88.1536C112.733 88.3786 112.697 88.6036 112.66 88.8286L112.635 88.9716C112.596 89.1966 112.555 89.4216 112.511 89.6438L112.494 89.7244C112.453 89.9327 112.41 90.1411 112.364 90.3494L112.34 90.4619C112.292 90.6799 112.24 90.8966 112.187 91.1133L112.155 91.2411C112.099 91.4688 112.04 91.6883 111.98 91.9063L111.969 91.9424C111.911 92.1522 111.849 92.3619 111.785 92.5688L111.747 92.6911C111.682 92.9008 111.614 93.1091 111.543 93.3174L111.501 93.4397C111.429 93.648 111.355 93.8563 111.278 94.0619L111.269 94.0827C111.199 94.2716 111.118 94.4758 111.022 94.7077L110.829 94.6286L111.019 94.7119L110.969 94.8327C110.883 95.0397 110.796 95.2424 110.708 95.4327L110.653 95.5522C110.586 95.6966 110.519 95.8397 110.45 95.9813L110.386 96.1133C110.3 96.2883 110.212 96.4605 110.121 96.6327L110.075 96.7174C109.997 96.8647 109.917 97.0105 109.835 97.1549L109.757 97.2924C109.66 97.4633 109.56 97.6327 109.457 97.7994C109.421 97.8591 109.357 97.8952 109.287 97.8994C109.292 97.9008 109.289 97.9008 109.285 97.9008ZM107.383 94.7466L109.268 97.3161C109.312 97.2397 109.357 97.1633 109.401 97.0855L109.478 96.9508C109.558 96.8077 109.637 96.6647 109.714 96.5216L109.758 96.4383C109.847 96.2688 109.933 96.0994 110.018 95.9286L110.08 95.7994C110.149 95.6605 110.214 95.5202 110.279 95.3786L110.333 95.2605C110.418 95.073 110.504 94.8744 110.589 94.6702L110.637 94.5522L110.64 94.5466C110.733 94.3188 110.814 94.1174 110.883 93.9327L111.086 93.9855L110.892 93.9119C110.968 93.7091 111.04 93.5049 111.111 93.2994L111.153 93.1799C111.222 92.9758 111.289 92.7702 111.354 92.5633L111.39 92.4424C111.453 92.2369 111.514 92.0327 111.572 91.8258L111.582 91.7897C111.642 91.5744 111.699 91.3591 111.753 91.141L111.786 91.0091C111.839 90.7952 111.889 90.5813 111.937 90.3674L111.961 90.2577C112.005 90.0522 112.049 89.8466 112.09 89.6397L112.105 89.5619C112.149 89.3424 112.189 89.1216 112.228 88.8994L112.251 88.7577C112.289 88.5369 112.325 88.3147 112.357 88.0911L112.369 87.9994C112.4 87.7883 112.429 87.5772 112.455 87.3647L112.469 87.2577C112.497 87.0327 112.524 86.8063 112.547 86.5786L112.561 86.4411C112.586 86.2036 112.608 85.973 112.628 85.7411L112.632 85.6827C112.651 85.4605 112.668 85.2369 112.683 85.0133L112.692 84.8855C112.707 84.6549 112.721 84.423 112.732 84.1911L112.739 84.0494C112.75 83.8327 112.76 83.6161 112.767 83.3994L111.008 81.0022C111.005 81.0466 111.004 81.0911 111.001 81.1341L110.994 81.2772C110.982 81.5119 110.968 81.7452 110.953 81.9786L110.943 82.1077C110.928 82.3341 110.91 82.5591 110.892 82.7827L110.887 82.8411C110.867 83.0758 110.844 83.3105 110.821 83.5424L110.805 83.6883C110.78 83.9174 110.754 84.1466 110.726 84.3744L110.712 84.4827C110.685 84.698 110.655 84.9119 110.625 85.1244L110.612 85.2161C110.579 85.4424 110.543 85.6674 110.504 85.8924L110.479 86.0355C110.44 86.2605 110.4 86.4841 110.355 86.7077L110.34 86.7855C110.299 86.9952 110.255 87.2036 110.21 87.4119L110.186 87.523C110.137 87.7411 110.086 87.9591 110.033 88.1744L110.001 88.3035C109.944 88.5299 109.887 88.7494 109.826 88.9674L109.815 89.0036C109.757 89.2133 109.694 89.423 109.63 89.6299L109.593 89.7522C109.528 89.9619 109.46 90.1716 109.389 90.3786L109.347 90.5008C109.275 90.7091 109.201 90.9174 109.124 91.123L109.118 91.1383C109.043 91.3383 108.961 91.5424 108.868 91.7688L108.817 91.8938C108.73 92.0994 108.643 92.3008 108.557 92.4938L108.501 92.6133C108.435 92.7577 108.368 92.9008 108.299 93.0424L108.235 93.1744C108.149 93.348 108.061 93.5216 107.971 93.6938L107.925 93.7786C107.847 93.9258 107.767 94.0716 107.685 94.2161L107.605 94.3549C107.536 94.4897 107.46 94.6188 107.383 94.7466Z" fill="#FEF2F2"/>
<path d="M110.829 80.4023C110.648 85.6857 109.673 90.6079 107.132 94.7593H106.19H87.04C89.0956 91.5496 90.5789 86.6954 90.7359 80.4023H108.48H110.829ZM108.161 83.8579C108.489 83.8579 108.796 83.601 108.847 83.2843C108.897 82.9676 108.672 82.7107 108.344 82.7107H92.6664C92.3373 82.7107 92.0317 82.9676 91.9803 83.2843C91.9303 83.601 92.1539 83.8579 92.4831 83.8579H108.161ZM107.632 87.1746C107.959 87.1746 108.266 86.919 108.318 86.6023C108.368 86.2857 108.143 86.0287 107.815 86.0287H92.6303C92.3011 86.0287 91.9956 86.2843 91.9442 86.6023C91.8942 86.919 92.1178 87.1746 92.447 87.1746H107.632ZM106.025 90.4926C106.354 90.4926 106.659 90.2371 106.711 89.919C106.761 89.6023 106.537 89.3468 106.208 89.3468H91.8081C91.4789 89.3468 91.1734 89.6023 91.122 89.919C91.072 90.2357 91.2956 90.4926 91.6248 90.4926H106.025Z" fill="#FCA5A5"/>
<path d="M107.133 94.967H87.0402C86.9638 94.967 86.8943 94.9253 86.8568 94.8586C86.8207 94.792 86.8235 94.71 86.8638 94.6461C89.0832 91.1809 90.3846 86.1197 90.5263 80.3961C90.5291 80.2836 90.6221 80.1934 90.7346 80.1934H110.829C110.886 80.1934 110.94 80.217 110.979 80.2572C111.018 80.2975 111.039 80.3531 111.037 80.4086C110.833 86.3753 109.614 91.1045 107.31 94.867C107.272 94.9295 107.205 94.967 107.133 94.967ZM87.4152 94.5503H107.015C109.214 90.9128 110.392 86.3489 110.614 80.61H90.9388C90.7735 86.1517 89.5277 91.0767 87.4152 94.5503ZM106.025 90.7003H91.6263C91.4054 90.7003 91.2027 90.6114 91.0693 90.4545C90.9374 90.3003 90.8832 90.0975 90.9166 89.885C90.9832 89.4656 91.3749 89.1378 91.8082 89.1378H106.208C106.429 89.1378 106.632 89.2281 106.765 89.3836C106.897 89.5378 106.951 89.7392 106.917 89.9517C106.85 90.3725 106.458 90.7003 106.025 90.7003ZM91.8082 89.5559C91.5818 89.5559 91.3624 89.7378 91.3277 89.9531C91.3138 90.0434 91.3332 90.1253 91.386 90.1864C91.4402 90.2503 91.5263 90.2864 91.6249 90.2864H106.025C106.251 90.2864 106.471 90.1045 106.505 89.8892C106.519 89.8003 106.5 89.7184 106.447 89.6573C106.393 89.5934 106.307 89.5572 106.207 89.5572H91.8082V89.5559ZM107.632 87.3822H92.4471C92.2263 87.3822 92.0235 87.292 91.8902 87.1364C91.7582 86.9822 91.704 86.7809 91.7374 86.5684C91.804 86.1489 92.1957 85.8197 92.6291 85.8197H107.814C108.033 85.8197 108.236 85.91 108.369 86.0656C108.501 86.2197 108.555 86.4225 108.522 86.6336C108.455 87.0545 108.065 87.3822 107.632 87.3822ZM92.6304 86.2378C92.4041 86.2378 92.1846 86.4197 92.1499 86.635C92.136 86.7239 92.1554 86.8059 92.2082 86.867C92.2624 86.9309 92.3485 86.967 92.4485 86.967H107.633C107.86 86.967 108.079 86.785 108.114 86.5697C108.128 86.4809 108.108 86.3975 108.055 86.3378C108.001 86.2739 107.915 86.2378 107.817 86.2378H92.6304ZM108.161 84.0656H92.4832C92.2638 84.0656 92.061 83.9767 91.9277 83.8197C91.7957 83.6656 91.7416 83.4628 91.7749 83.2517C91.8416 82.8322 92.2332 82.5031 92.6665 82.5031H108.344C108.564 82.5031 108.767 82.5934 108.9 82.7489C109.032 82.9045 109.086 83.1059 109.053 83.317C108.985 83.7364 108.594 84.0656 108.161 84.0656ZM92.6665 82.9184C92.4402 82.9184 92.2207 83.1003 92.186 83.3156C92.1721 83.4045 92.1929 83.4878 92.2443 83.5475C92.2985 83.6114 92.3846 83.6475 92.4832 83.6475H108.161C108.387 83.6475 108.607 83.4656 108.642 83.2503C108.655 83.1614 108.635 83.0781 108.583 83.0184C108.528 82.9545 108.443 82.9184 108.344 82.9184H92.6665Z" fill="#FEF2F2"/>
<path d="M104.343 98.1621L106.496 101.097H90.4057L88.2529 98.1621H104.343Z" fill="#FCA5A5"/>
<path d="M106.496 101.305H90.4057C90.3391 101.305 90.2766 101.273 90.2377 101.22L88.0849 98.2851C88.0391 98.2212 88.0321 98.1378 88.0668 98.067C88.1016 97.9976 88.1738 97.9531 88.2529 97.9531H104.343C104.41 97.9531 104.472 97.9851 104.511 98.0378L106.664 100.973C106.71 101.036 106.717 101.12 106.682 101.191C106.646 101.26 106.574 101.305 106.496 101.305ZM90.5113 100.888H106.085L104.238 98.3698H88.6641L90.5113 100.888Z" fill="#FEF2F2"/>
<path d="M93.7483 68.8535C96.6233 68.8535 98.5941 71.0994 98.1524 73.873H109.522L108.48 80.4007H90.7358C90.5788 86.6938 89.0955 91.548 87.04 94.7577H106.191L105.85 96.9007C105.739 97.5966 105.065 98.1591 104.344 98.1591H88.2525H71.0205L72.1566 91.0355C75.0302 91.0355 77.7191 88.7896 78.1622 86.016C78.6038 83.2424 76.633 80.9966 73.758 80.9966L74.8941 73.873H87.7427C88.1844 71.0994 90.8747 68.8535 93.7483 68.8535Z" fill="#FECACA"/>
<path d="M104.343 98.3687H71.0206C70.9595 98.3687 70.9012 98.3423 70.8623 98.2951C70.8234 98.2493 70.8054 98.1868 70.8151 98.127L71.9512 91.0034C71.9679 90.902 72.054 90.8284 72.1568 90.8284C74.929 90.8284 77.5304 88.6548 77.9568 85.984C78.1568 84.727 77.847 83.5409 77.0832 82.6451C76.2915 81.7173 75.1109 81.2062 73.7595 81.2062C73.6984 81.2062 73.6401 81.1798 73.6012 81.1326C73.5623 81.0868 73.5443 81.0243 73.554 80.9645L74.6901 73.8409C74.7068 73.7395 74.7929 73.6659 74.8957 73.6659H87.5706C88.1109 70.8826 90.8443 68.6465 93.7512 68.6465C95.2276 68.6465 96.5206 69.209 97.3929 70.2326C98.1887 71.1645 98.5401 72.377 98.3943 73.6673H109.525C109.586 73.6673 109.644 73.6937 109.683 73.7409C109.722 73.7868 109.74 73.8493 109.73 73.909L108.689 80.4368C108.672 80.5382 108.586 80.6118 108.483 80.6118H90.9415C90.7762 86.1534 89.5304 91.0784 87.4179 94.552H106.193C106.254 94.552 106.312 94.5784 106.351 94.6256C106.39 94.6715 106.408 94.734 106.398 94.7937L106.057 96.9368C105.928 97.7243 105.161 98.3687 104.343 98.3687ZM71.2637 97.952H104.343C104.965 97.952 105.547 97.4659 105.643 96.8687L105.946 94.9659H87.0401C86.9637 94.9659 86.8943 94.9243 86.8568 94.8576C86.8207 94.7909 86.8234 94.709 86.8637 94.6451C89.0831 91.1798 90.3845 86.1187 90.5262 80.3951C90.529 80.2826 90.622 80.1923 90.7345 80.1923H108.301L109.276 74.0812H98.1512C98.0901 74.0812 98.0318 74.0548 97.9929 74.0076C97.954 73.9618 97.9359 73.8993 97.9456 73.8395C98.1456 72.5812 97.8359 71.3965 97.072 70.5006C96.2804 69.5729 95.0998 69.0618 93.747 69.0618C90.9748 69.0618 88.3734 71.2354 87.947 73.9062C87.9304 74.0076 87.8443 74.0812 87.7415 74.0812H75.0706L73.9998 80.7937C75.3734 80.852 76.5734 81.409 77.397 82.3743C78.2415 83.3645 78.5859 84.6701 78.3651 86.0493C77.9179 88.8562 75.2331 91.1507 72.3318 91.2423L71.2637 97.952Z" fill="#FEF2F2"/>
<path d="M107.966 99.9945C107.981 99.9431 107.993 99.8903 108.002 99.8375L108.343 97.6945L106.191 94.7598L105.849 96.9028C105.841 96.9556 105.828 97.0084 105.813 97.0598C105.809 97.075 105.803 97.0889 105.799 97.1042C105.786 97.1431 105.771 97.182 105.756 97.2195C105.75 97.232 105.745 97.2459 105.739 97.2584C105.717 97.307 105.692 97.3542 105.664 97.4C105.656 97.4125 105.648 97.425 105.639 97.4375C105.623 97.4639 105.605 97.4903 105.586 97.5153C105.574 97.532 105.56 97.5486 105.548 97.5653C105.534 97.5834 105.518 97.6014 105.503 97.6195C105.488 97.6361 105.471 97.6528 105.456 97.6695C105.442 97.6848 105.428 97.6987 105.414 97.7125C105.398 97.7292 105.378 97.7459 105.36 97.7612C105.346 97.7737 105.331 97.7875 105.317 97.7987C105.299 97.8139 105.28 97.8278 105.26 97.8417C105.243 97.8542 105.228 97.8667 105.211 97.8778C105.195 97.8903 105.177 97.9014 105.159 97.9125C105.138 97.925 105.118 97.9389 105.098 97.95C105.082 97.9584 105.067 97.9667 105.052 97.975C105.025 97.9889 104.998 98.0028 104.971 98.0167C104.957 98.0236 104.942 98.0292 104.928 98.0361C104.889 98.0528 104.85 98.0681 104.81 98.0806C104.793 98.0862 104.777 98.0917 104.76 98.0973C104.746 98.1014 104.731 98.1056 104.717 98.1098C104.691 98.1167 104.664 98.1223 104.639 98.1278C104.624 98.1306 104.61 98.1334 104.595 98.1362C104.567 98.1417 104.539 98.1445 104.51 98.1486C104.498 98.15 104.484 98.1528 104.471 98.1528C104.43 98.157 104.388 98.1584 104.346 98.1584L106.499 101.093C106.541 101.093 106.582 101.09 106.624 101.088C106.636 101.086 106.65 101.085 106.663 101.083C106.691 101.081 106.72 101.076 106.748 101.071C106.763 101.068 106.777 101.065 106.792 101.063C106.818 101.057 106.845 101.051 106.87 101.044C106.884 101.04 106.899 101.036 106.913 101.032C106.921 101.029 106.928 101.028 106.936 101.025C106.946 101.022 106.955 101.018 106.964 101.015C107.005 101.001 107.043 100.988 107.082 100.971C107.091 100.967 107.1 100.964 107.109 100.961C107.114 100.958 107.12 100.956 107.125 100.953C107.153 100.94 107.18 100.926 107.206 100.911C107.218 100.904 107.231 100.9 107.242 100.893C107.246 100.892 107.249 100.889 107.252 100.886C107.273 100.874 107.292 100.861 107.313 100.849C107.328 100.839 107.343 100.831 107.357 100.821C107.36 100.819 107.363 100.817 107.366 100.814C107.382 100.803 107.398 100.79 107.414 100.778C107.43 100.767 107.446 100.756 107.461 100.743C107.464 100.74 107.468 100.738 107.471 100.735C107.486 100.722 107.5 100.71 107.514 100.697C107.528 100.685 107.543 100.672 107.557 100.66C107.561 100.656 107.564 100.653 107.568 100.649C107.582 100.635 107.596 100.619 107.61 100.606C107.623 100.593 107.635 100.581 107.646 100.568C107.65 100.564 107.653 100.56 107.657 100.556C107.673 100.538 107.686 100.519 107.702 100.501C107.711 100.489 107.723 100.476 107.732 100.464C107.735 100.46 107.738 100.456 107.741 100.451C107.759 100.426 107.777 100.4 107.793 100.374C107.8 100.363 107.809 100.353 107.816 100.342C107.817 100.34 107.817 100.338 107.818 100.336C107.846 100.29 107.871 100.243 107.893 100.193C107.895 100.189 107.898 100.185 107.9 100.181C107.905 100.172 107.906 100.163 107.91 100.154C107.927 100.117 107.941 100.078 107.953 100.039C107.956 100.024 107.961 100.01 107.966 99.9945Z" fill="#FCA5A5"/>
<path d="M106.496 101.305C106.429 101.305 106.367 101.273 106.328 101.22L104.175 98.2855C104.129 98.2216 104.122 98.1382 104.157 98.0674C104.192 97.998 104.264 97.9535 104.343 97.9535C104.379 97.9535 104.414 97.9521 104.45 97.9479L104.467 97.9466L104.482 97.9452C104.507 97.9424 104.531 97.9396 104.554 97.9355L104.593 97.9285C104.615 97.9243 104.638 97.9188 104.661 97.9118L104.742 97.8868C104.777 97.8757 104.81 97.8618 104.843 97.848L104.857 97.8424L104.881 97.8327C104.904 97.8216 104.928 97.8091 104.952 97.7966L104.992 97.7757C105.006 97.7674 105.02 97.7591 105.032 97.7507C105.032 97.7507 105.043 97.7438 105.045 97.7424L105.061 97.7327C105.071 97.7257 105.082 97.7202 105.092 97.7132C105.1 97.7077 105.109 97.7007 105.117 97.6938L105.134 97.6813C105.157 97.6632 105.17 97.6535 105.182 97.6438L105.22 97.6104C105.24 97.5924 105.254 97.5799 105.267 97.5674C105.277 97.5577 105.285 97.5493 105.293 97.5396L105.303 97.5299C105.318 97.5146 105.332 97.5007 105.345 97.4855C105.356 97.473 105.365 97.4591 105.377 97.4466L105.392 97.4285C105.4 97.4188 105.409 97.4077 105.417 97.3966C105.434 97.3743 105.447 97.3521 105.463 97.3285L105.485 97.2966C105.509 97.2577 105.531 97.216 105.549 97.1743L105.557 97.1563L105.563 97.1424C105.577 97.1091 105.589 97.0757 105.6 97.0424L105.611 97.0049C105.625 96.9549 105.636 96.9132 105.642 96.8729L105.984 94.7299C105.997 94.6466 106.059 94.5799 106.14 94.5605C106.222 94.541 106.307 94.5716 106.357 94.6396L108.51 97.5743C108.543 97.6188 108.556 97.6757 108.547 97.7299L108.206 99.873C108.196 99.9299 108.184 99.9882 108.164 100.055C108.159 100.072 108.154 100.087 108.149 100.104C108.134 100.151 108.117 100.194 108.099 100.238C108.096 100.248 108.092 100.259 108.086 100.27C108.084 100.276 108.078 100.287 108.075 100.291C108.053 100.338 108.027 100.391 107.996 100.44C107.992 100.447 107.989 100.454 107.985 100.459C107.984 100.462 107.977 100.472 107.97 100.481C107.945 100.519 107.925 100.548 107.904 100.577C107.903 100.58 107.899 100.585 107.893 100.592C107.886 100.602 107.877 100.613 107.868 100.623L107.859 100.634C107.838 100.66 107.824 100.679 107.809 100.695C107.807 100.698 107.803 100.704 107.797 100.709C107.788 100.72 107.778 100.73 107.767 100.741L107.756 100.752C107.736 100.773 107.722 100.787 107.709 100.801L107.696 100.813C107.685 100.824 107.672 100.834 107.661 100.844L107.649 100.855C107.625 100.876 107.613 100.887 107.599 100.898L107.588 100.908C107.577 100.916 107.564 100.926 107.55 100.935L107.522 100.956C107.509 100.967 107.495 100.977 107.481 100.987C107.459 101.002 107.446 101.01 107.434 101.017L107.407 101.034C107.389 101.047 107.37 101.058 107.352 101.069C107.352 101.069 107.34 101.076 107.339 101.076C107.329 101.081 107.318 101.087 107.307 101.092C107.268 101.113 107.238 101.129 107.207 101.144C107.202 101.147 107.195 101.151 107.186 101.154C107.178 101.158 107.167 101.162 107.157 101.165C107.113 101.184 107.068 101.201 107.024 101.216C107.014 101.22 107.003 101.224 106.993 101.227C106.989 101.229 106.974 101.233 106.97 101.234C106.953 101.24 106.939 101.242 106.924 101.247C106.888 101.256 106.859 101.263 106.828 101.27C106.811 101.274 106.793 101.277 106.777 101.28C106.745 101.285 106.713 101.29 106.681 101.294L106.636 101.299C106.592 101.302 106.543 101.305 106.496 101.305ZM104.721 98.3243L106.597 100.883C106.599 100.883 106.6 100.883 106.602 100.883L106.62 100.88C106.621 100.88 106.635 100.879 106.636 100.879C106.66 100.876 106.685 100.873 106.709 100.869L106.747 100.862C106.77 100.858 106.793 100.852 106.815 100.845L106.853 100.835C106.856 100.834 106.87 100.831 106.871 100.83C106.879 100.827 106.888 100.823 106.897 100.82C106.931 100.809 106.965 100.795 106.999 100.781C107.003 100.78 107.02 100.773 107.024 100.772C107.028 100.77 107.034 100.766 107.038 100.765C107.06 100.754 107.084 100.741 107.107 100.729L107.147 100.706C107.16 100.699 107.174 100.691 107.186 100.681L107.239 100.648C107.256 100.637 107.264 100.63 107.272 100.623L107.328 100.581C107.346 100.566 107.354 100.559 107.363 100.551L107.422 100.497C107.431 100.488 107.44 100.477 107.45 100.467L107.497 100.417C107.51 100.404 107.52 100.391 107.529 100.379L107.564 100.337C107.564 100.337 107.568 100.33 107.572 100.324C107.586 100.305 107.602 100.283 107.615 100.259L107.629 100.238C107.629 100.237 107.632 100.235 107.634 100.233C107.635 100.231 107.635 100.23 107.636 100.229C107.661 100.187 107.682 100.147 107.702 100.105C107.703 100.102 107.706 100.098 107.707 100.094C107.71 100.087 107.714 100.076 107.715 100.073C107.729 100.041 107.742 100.008 107.753 99.9743L107.765 99.9368C107.781 99.8868 107.79 99.8438 107.796 99.8049L108.124 97.748L106.318 95.2855L106.056 96.9355C106.047 96.991 106.034 97.0507 106.014 97.1174L106 97.1591C105.982 97.2132 105.965 97.2577 105.947 97.3007C105.939 97.3216 105.934 97.3341 105.928 97.3452C105.903 97.4007 105.874 97.4549 105.842 97.5063C105.835 97.5174 105.828 97.5285 105.821 97.5396C105.795 97.5799 105.775 97.6105 105.753 97.6382C105.742 97.6535 105.729 97.6688 105.718 97.6827L105.71 97.6938C105.69 97.7188 105.675 97.7368 105.66 97.7549C105.642 97.7757 105.624 97.7938 105.606 97.8132C105.585 97.8355 105.572 97.8493 105.559 97.8618C105.542 97.8785 105.524 97.8938 105.506 97.9091L105.486 97.9257C105.474 97.9368 105.461 97.9479 105.449 97.9577C105.431 97.9729 105.413 97.9855 105.395 97.9993L105.371 98.0174C105.357 98.0271 105.345 98.0382 105.331 98.048C105.315 98.0591 105.3 98.0688 105.285 98.0785L105.271 98.0868C105.242 98.1063 105.222 98.1188 105.203 98.1299C105.19 98.1368 105.178 98.1438 105.165 98.1507L105.152 98.1577C105.121 98.1743 105.09 98.1896 105.06 98.2035C105.047 98.2091 105.035 98.2146 105.021 98.2202C104.967 98.2438 104.922 98.2605 104.877 98.2757L104.864 98.2799C104.85 98.2854 104.835 98.2896 104.821 98.2938C104.806 98.298 104.789 98.3021 104.774 98.3063C104.753 98.316 104.738 98.3202 104.721 98.3243Z" fill="#FEF2F2"/>
<path d="M50.8958 70.3164H40.8319H32.25L34.4028 73.2511H42.9847H53.0486L50.8958 70.3164Z" fill="#FCA5A5"/>
<path d="M53.0486 73.4588H34.4028C34.3361 73.4588 34.2736 73.4269 34.2347 73.3741L32.082 70.4394C32.0361 70.3755 32.0292 70.2921 32.0639 70.2213C32.0986 70.1519 32.1708 70.1074 32.25 70.1074H50.8958C50.9625 70.1074 51.025 70.1394 51.0639 70.1921L53.2167 73.1269C53.2625 73.1908 53.2695 73.2741 53.2347 73.3449C53.1986 73.4144 53.1264 73.4588 53.0486 73.4588ZM34.5083 73.0421H52.6375L50.7903 70.5241H32.6611L34.5083 73.0421Z" fill="#FEF2F2"/>
<path d="M53.7692 71.8316C53.7831 71.8025 53.797 71.7733 53.8109 71.7441C53.822 71.7205 53.8331 71.6969 53.8442 71.6733C53.94 71.4636 54.0317 71.2511 54.1206 71.0372C54.1234 71.0303 54.1275 71.0233 54.1303 71.015C54.2303 70.7747 54.3261 70.5303 54.4192 70.2858C54.4498 70.2066 54.4775 70.1261 54.5067 70.0469C54.5678 69.8789 54.6289 69.7108 54.6873 69.5414C54.7206 69.4455 54.7511 69.3497 54.7831 69.2539C54.8345 69.0969 54.8859 68.94 54.9345 68.7816C54.9664 68.6803 54.997 68.5789 55.0275 68.4775C55.0748 68.3205 55.1206 68.1622 55.165 68.0039C55.1928 67.9025 55.222 67.8011 55.2498 67.6997C55.2942 67.533 55.3373 67.3664 55.3789 67.1983C55.4025 67.1039 55.4275 67.0094 55.4498 66.915C55.497 66.7178 55.5428 66.5178 55.5873 66.3178C55.6025 66.2525 55.6178 66.1872 55.6317 66.1205C55.6886 65.8539 55.7428 65.5858 55.7956 65.3164C55.8081 65.2511 55.8192 65.183 55.8317 65.1178C55.8692 64.9122 55.9067 64.7066 55.9414 64.4997C55.9581 64.3997 55.9734 64.2997 55.99 64.1997C56.0178 64.0247 56.0456 63.8483 56.072 63.6719C56.0886 63.5622 56.1039 63.4525 56.1192 63.3428C56.1428 63.1719 56.1664 63.0011 56.1886 62.8289C56.2025 62.7178 56.2178 62.6053 56.2303 62.4941C56.2511 62.3191 56.272 62.1428 56.2914 61.9664C56.3039 61.8594 56.315 61.7511 56.3261 61.6441C56.3456 61.4511 56.365 61.258 56.3831 61.0636C56.3914 60.9719 56.4011 60.8803 56.4095 60.7886C56.4345 60.5025 56.4581 60.2164 56.4789 59.9289L54.3261 56.9941C54.3053 57.2816 54.2817 57.5691 54.2567 57.8539C54.2484 57.9455 54.24 58.0372 54.2303 58.1289C54.2123 58.3233 54.1942 58.5164 54.1734 58.7094C54.1623 58.8178 54.1498 58.9247 54.1386 59.0316C54.1192 59.208 54.0984 59.3844 54.0775 59.5594C54.0636 59.6719 54.0498 59.783 54.0359 59.8941C54.0136 60.0664 53.99 60.2372 53.9664 60.408C53.9511 60.5178 53.9359 60.6275 53.9192 60.7372C53.8928 60.9136 53.865 61.09 53.8373 61.265C53.8206 61.365 53.8053 61.4664 53.7886 61.565C53.7539 61.7719 53.7164 61.9775 53.6789 62.183C53.6664 62.2497 53.6553 62.3164 53.6428 62.3816C53.5914 62.6511 53.5373 62.9191 53.4789 63.1858C53.465 63.2525 53.4484 63.3178 53.4345 63.383C53.39 63.583 53.3456 63.7816 53.297 63.9803C53.2734 64.0761 53.2498 64.1691 53.2261 64.265C53.1845 64.433 53.1414 64.5997 53.097 64.7664C53.0692 64.8691 53.0414 64.9705 53.0123 65.0719C52.9678 65.2303 52.922 65.3886 52.8761 65.5455C52.8456 65.6469 52.815 65.7497 52.7831 65.8497C52.7345 66.008 52.6831 66.165 52.6317 66.3219C52.5998 66.4178 52.5678 66.515 52.5359 66.6094C52.4775 66.7789 52.4164 66.9469 52.3553 67.115C52.3261 67.1941 52.2984 67.2747 52.2678 67.3539C52.1748 67.5997 52.0789 67.8428 51.9789 68.083C51.9761 68.0914 51.972 68.0983 51.9692 68.1066C51.8706 68.3441 51.7664 68.5789 51.6595 68.8122C51.6456 68.8414 51.6317 68.8705 51.6178 68.9011C51.5123 69.1275 51.4053 69.3525 51.2928 69.5733C51.2831 69.5928 51.2734 69.6108 51.2636 69.6289C51.1456 69.8608 51.0234 70.0914 50.897 70.3178L53.0498 73.2525C53.1761 73.0247 53.2984 72.7955 53.4164 72.5622C53.4261 72.5441 53.4359 72.5247 53.4456 72.5066C53.5553 72.283 53.6636 72.058 53.7692 71.8316Z" fill="#FECACA"/>
<path d="M53.0484 73.4589C52.9818 73.4589 52.9193 73.4269 52.8804 73.3742L50.7276 70.4394C50.679 70.3742 50.6748 70.2853 50.7137 70.2144C50.8332 70.0005 50.9512 69.7783 51.0762 69.5325L51.1054 69.4769C51.2123 69.2658 51.3165 69.0492 51.4276 68.8103L51.4679 68.7228C51.5734 68.4922 51.6776 68.2561 51.7748 68.0228C51.7748 68.0214 51.7818 68.0075 51.7818 68.0061C51.8762 67.7783 51.9707 67.5422 52.0721 67.2769C52.0901 67.2297 52.1068 67.1825 52.1248 67.1353L52.1596 67.0408C52.2207 66.8742 52.2818 66.7075 52.3387 66.5394C52.3637 66.4672 52.3887 66.3936 52.4123 66.32L52.4345 66.2533C52.4859 66.0978 52.5359 65.9422 52.5846 65.7853C52.6151 65.6853 52.6471 65.5839 52.6762 65.4825C52.7234 65.3269 52.7679 65.17 52.8123 65.013L52.8207 64.9839C52.8457 64.8936 52.872 64.8019 52.8957 64.7103C52.9401 64.545 52.9818 64.3797 53.0248 64.213L53.047 64.1228C53.0637 64.0589 53.079 63.995 53.0957 63.9297C53.1429 63.7325 53.1873 63.5353 53.2318 63.3367L53.2526 63.2464C53.2609 63.2117 53.2693 63.1755 53.2762 63.1408C53.3318 62.8811 53.3873 62.613 53.4387 62.3408C53.4457 62.3047 53.4512 62.27 53.4582 62.2339L53.4748 62.1436C53.5123 61.9394 53.5498 61.7353 53.5845 61.5297C53.597 61.4589 53.6082 61.388 53.6193 61.3186L53.6332 61.2311C53.6609 61.0561 53.6887 60.8811 53.7151 60.7061C53.7318 60.5978 53.747 60.488 53.7623 60.3783C53.7859 60.2089 53.8095 60.038 53.8318 59.8672C53.8457 59.7561 53.8596 59.645 53.8734 59.5339C53.8943 59.3589 53.9151 59.1839 53.9346 59.0089L53.9401 58.9617C53.9498 58.87 53.9609 58.7797 53.9693 58.688C53.9887 58.4964 54.0082 58.3033 54.0262 58.1103L54.0526 57.8367C54.0776 57.5519 54.1012 57.2672 54.122 56.9797C54.129 56.8922 54.1887 56.8186 54.272 56.795C54.3554 56.7714 54.4457 56.8019 54.497 56.8714L56.6498 59.8061C56.679 59.8464 56.6929 59.895 56.6901 59.945C56.6693 60.2339 56.6457 60.5214 56.6207 60.8075L56.5943 61.0839C56.5762 61.2783 56.5582 61.4728 56.5373 61.6658C56.5276 61.7575 56.5179 61.8492 56.5068 61.9408L56.5012 61.9894C56.4818 62.1672 56.4609 62.3436 56.4401 62.52C56.4262 62.6325 56.4123 62.745 56.3984 62.8561C56.3762 63.0283 56.3526 63.2005 56.329 63.3714C56.3137 63.4811 56.2984 63.5922 56.2818 63.7019C56.2554 63.8797 56.2276 64.0561 56.1984 64.2325L56.1818 64.338C56.1707 64.4033 56.1609 64.4686 56.1498 64.5339C56.1151 64.7422 56.0776 64.9492 56.0387 65.1547L56.0234 65.2422C56.0165 65.2797 56.0095 65.3172 56.0026 65.3547C55.9512 65.6214 55.8957 65.8936 55.8387 66.163C55.8304 66.2019 55.8207 66.2408 55.8123 66.2797L55.7943 66.3617C55.7498 66.563 55.704 66.763 55.6568 66.9617C55.6415 67.0283 55.6248 67.0936 55.6082 67.1589L55.5859 67.2478C55.5443 67.4172 55.5012 67.5853 55.4554 67.7519C55.4304 67.845 55.404 67.938 55.379 68.0311L55.3707 68.0589C55.3262 68.2186 55.2804 68.3783 55.2332 68.5367C55.2026 68.6394 55.172 68.7422 55.1401 68.8436C55.0901 69.0033 55.0387 69.1617 54.9873 69.3186L54.9707 69.3686C54.9443 69.4492 54.9179 69.5283 54.8901 69.6089C54.8318 69.7797 54.7693 69.9492 54.7082 70.1186L54.6762 70.2075C54.6582 70.2589 54.6401 70.3089 54.6207 70.3589C54.5193 70.6255 54.4248 70.8658 54.329 71.095C54.329 71.0964 54.3234 71.1089 54.322 71.1103C54.2262 71.3408 54.1318 71.5561 54.0401 71.7603L53.9651 71.92C53.8526 72.163 53.7457 72.3853 53.6373 72.5992L53.6082 72.6561C53.4804 72.9075 53.3595 73.1353 53.2373 73.3533C53.2026 73.4158 53.1387 73.4547 53.0679 73.4603C53.0568 73.4589 53.0526 73.4589 53.0484 73.4589ZM51.1415 70.3005L53.022 72.8644C53.0901 72.738 53.1582 72.6061 53.229 72.4672L53.2568 72.413C53.3637 72.2033 53.4679 71.9853 53.579 71.7464L53.6526 71.5894C53.7429 71.3894 53.8359 71.1783 53.9276 70.9589C53.9276 70.9575 53.9332 70.945 53.9346 70.9436C54.0304 70.713 54.1248 70.4755 54.2234 70.2144C54.2415 70.1658 54.2595 70.1172 54.2762 70.0686L54.3095 69.9769C54.3707 69.8103 54.4318 69.6436 54.4887 69.4755C54.5151 69.3978 54.5415 69.3186 54.5679 69.2408L54.5845 69.1894C54.6359 69.0339 54.6873 68.8783 54.7359 68.7214C54.7679 68.6214 54.7984 68.52 54.8276 68.4186C54.8748 68.263 54.9193 68.1061 54.9637 67.9478L54.9721 67.92C54.9971 67.8283 55.0234 67.7367 55.0484 67.645C55.0929 67.4797 55.1346 67.313 55.1762 67.1464L55.1984 67.0575C55.2151 66.9936 55.2304 66.9297 55.247 66.8644C55.2943 66.6686 55.3387 66.47 55.3832 66.2714L55.4026 66.1867C55.4109 66.1492 55.4193 66.113 55.4276 66.0755C55.4846 65.8089 55.5401 65.5394 55.5901 65.2769L55.6262 65.0783C55.6637 64.8742 55.7012 64.67 55.7359 64.4644C55.7471 64.4005 55.7568 64.3367 55.7679 64.2714L55.7845 64.1644C55.8123 63.9894 55.8401 63.8144 55.8665 63.6394C55.8832 63.5311 55.8984 63.4214 55.9137 63.3117C55.9373 63.1422 55.9609 62.9714 55.9832 62.8005C55.9971 62.6894 56.0109 62.5783 56.0248 62.4672C56.0457 62.2922 56.0665 62.1172 56.0859 61.9422L56.0915 61.8936C56.1012 61.8033 56.1123 61.7117 56.1207 61.6214C56.1401 61.4297 56.1595 61.2367 56.1776 61.0436L56.204 60.77C56.2262 60.5103 56.2484 60.2506 56.2679 59.9894L54.4929 57.5686C54.4845 57.67 54.4762 57.77 54.4665 57.8714L54.4401 58.1478C54.422 58.3422 54.404 58.5367 54.3832 58.7297C54.3734 58.8228 54.3637 58.9144 54.3526 59.0061L54.3471 59.0533C54.3276 59.2297 54.3068 59.4075 54.2859 59.5825C54.2721 59.695 54.2582 59.8075 54.2429 59.9186C54.2207 60.0908 54.1971 60.263 54.1734 60.4339C54.1582 60.5436 54.1429 60.6547 54.1262 60.7644C54.0998 60.9422 54.0721 61.1186 54.0429 61.295L54.029 61.3811C54.0179 61.4533 54.0054 61.5255 53.9943 61.5964C53.9595 61.8047 53.922 62.0117 53.8832 62.2172L53.8679 62.3047C53.8609 62.3422 53.854 62.3797 53.8471 62.4172C53.7943 62.6908 53.7387 62.963 53.6832 63.2255C53.6748 63.263 53.6665 63.3005 53.6582 63.3367L53.6387 63.4228C53.5943 63.6242 53.5484 63.8242 53.5012 64.0228C53.4859 64.088 53.4693 64.1547 53.4526 64.22L53.4304 64.3089C53.3887 64.4783 53.3457 64.6464 53.2998 64.813C53.2748 64.9061 53.2498 64.9978 53.2234 65.0908L53.2151 65.12C53.1707 65.2797 53.1248 65.4394 53.0776 65.5964C53.047 65.6992 53.0165 65.8019 52.9846 65.9033C52.9346 66.063 52.8832 66.2214 52.8318 66.3783L52.8095 66.445C52.7845 66.52 52.7595 66.595 52.7345 66.6686C52.6762 66.8394 52.6137 67.0089 52.5526 67.1783L52.5193 67.27C52.5012 67.32 52.4832 67.37 52.4651 67.4186C52.3623 67.6894 52.2665 67.9297 52.1734 68.1547C52.1734 68.1561 52.1679 68.1686 52.1665 68.17C52.0637 68.4158 51.9582 68.6547 51.8512 68.8894L51.8095 68.9783C51.697 69.22 51.5901 69.4422 51.4818 69.6575L51.4526 69.7144C51.3429 69.9269 51.2429 70.1172 51.1415 70.3005Z" fill="#FEF2F2"/>
<path d="M117.492 66.6934H110.667H106.615L108.768 69.6295H112.819H119.644L117.492 66.6934Z" fill="#FCA5A5"/>
<path d="M119.643 69.8377H108.768C108.701 69.8377 108.639 69.8058 108.6 69.753L106.447 66.8183C106.401 66.7544 106.394 66.671 106.429 66.6002C106.464 66.5308 106.536 66.4863 106.615 66.4863H117.492C117.558 66.4863 117.621 66.5183 117.66 66.571L119.812 69.5058C119.858 69.5697 119.865 69.653 119.831 69.7238C119.794 69.7933 119.722 69.8377 119.643 69.8377ZM108.874 69.421H119.232L117.385 66.903H107.025L108.874 69.421Z" fill="#FEF2F2"/>
<path d="M107.134 94.7598H106.191H87.0405L89.1933 97.6945H108.343H109.285L107.134 94.7598Z" fill="#FCA5A5"/>
<path d="M109.285 97.9022H89.1919C89.1252 97.9022 89.0627 97.8702 89.0238 97.8175L86.871 94.8827C86.8252 94.8188 86.8182 94.7355 86.853 94.6647C86.8877 94.5952 86.9599 94.5508 87.0391 94.5508H107.132C107.199 94.5508 107.261 94.5827 107.3 94.6355L109.453 97.5702C109.499 97.6341 109.506 97.7174 109.471 97.7883C109.436 97.8591 109.364 97.9022 109.285 97.9022ZM89.2974 97.4855H108.874L107.028 94.9674H87.4516L89.2974 97.4855Z" fill="#FEF2F2"/>
<path d="M108.343 82.7109C108.671 82.7109 108.896 82.9679 108.846 83.2845C108.796 83.6012 108.488 83.8582 108.16 83.8582H92.4834C92.1542 83.8582 91.9306 83.6012 91.9806 83.2845C92.0306 82.9679 92.3376 82.7109 92.6667 82.7109H108.343Z" fill="#F87171"/>
<path d="M108.161 84.0645H92.4836C92.2641 84.0645 92.0613 83.9756 91.928 83.8186C91.7961 83.6645 91.7419 83.4617 91.7752 83.2506C91.8419 82.8311 92.2335 82.502 92.6669 82.502H108.345C108.564 82.502 108.767 82.5922 108.9 82.7478C109.032 82.9033 109.086 83.1047 109.053 83.3158C108.985 83.7353 108.595 84.0645 108.161 84.0645ZM92.6669 82.9186C92.4405 82.9186 92.2211 83.1006 92.1863 83.3158C92.1724 83.4047 92.1933 83.4881 92.2447 83.5478C92.2988 83.6117 92.3849 83.6478 92.4836 83.6478H108.161C108.388 83.6478 108.607 83.4658 108.642 83.2506C108.656 83.1617 108.635 83.0783 108.584 83.0186C108.529 82.9547 108.443 82.9186 108.345 82.9186H92.6669Z" fill="#F87171"/>
<path d="M107.814 86.0293C108.142 86.0293 108.368 86.2849 108.317 86.6029C108.267 86.9196 107.959 87.1751 107.631 87.1751H92.4476C92.1184 87.1751 91.8934 86.9196 91.9448 86.6029C91.9948 86.2862 92.3018 86.0293 92.6309 86.0293H107.814Z" fill="#F87171"/>
<path d="M107.632 87.3828H92.4473C92.2265 87.3828 92.0237 87.2925 91.8904 87.137C91.7585 86.9828 91.7043 86.7814 91.7376 86.5689C91.8043 86.1495 92.196 85.8203 92.6293 85.8203H107.814C108.033 85.8203 108.236 85.9106 108.37 86.0661C108.502 86.2203 108.556 86.4231 108.522 86.6342C108.456 87.055 108.065 87.3828 107.632 87.3828ZM92.6307 86.2384C92.4043 86.2384 92.1848 86.4203 92.1501 86.6356C92.1362 86.7245 92.1557 86.8064 92.2085 86.8675C92.2626 86.9314 92.3487 86.9675 92.4487 86.9675H107.633C107.86 86.9675 108.079 86.7856 108.114 86.5703C108.128 86.4814 108.108 86.3981 108.056 86.3384C108.002 86.2745 107.915 86.2384 107.817 86.2384H92.6307Z" fill="#F87171"/>
<path d="M106.208 89.3457C106.537 89.3457 106.762 89.6013 106.711 89.9179C106.661 90.2346 106.354 90.4915 106.025 90.4915H91.6263C91.2971 90.4915 91.0721 90.236 91.1235 89.9179C91.1735 89.6013 91.4805 89.3457 91.8096 89.3457H106.208Z" fill="#F87171"/>
<path d="M106.025 90.6992H91.6265C91.4057 90.6992 91.2029 90.6103 91.0696 90.4534C90.9376 90.2992 90.8835 90.0964 90.9168 89.8839C90.9835 89.4645 91.3751 89.1367 91.8085 89.1367H106.208C106.429 89.1367 106.632 89.2256 106.765 89.3826C106.897 89.5367 106.952 89.7381 106.918 89.9506C106.85 90.3714 106.458 90.6992 106.025 90.6992ZM91.8085 89.5548C91.5821 89.5548 91.3627 89.7367 91.3279 89.952C91.314 90.0423 91.3335 90.1242 91.3863 90.1853C91.4404 90.2492 91.5265 90.2853 91.6251 90.2853H106.025C106.252 90.2853 106.471 90.1034 106.506 89.8881C106.52 89.7992 106.5 89.7173 106.447 89.6562C106.393 89.5923 106.307 89.5562 106.207 89.5562H91.8085V89.5548Z" fill="#F87171"/>
<path d="M116.243 63.2383C116.53 63.2383 116.729 63.4633 116.685 63.7411C116.64 64.0202 116.371 64.2452 116.083 64.2452H108.782C108.494 64.2452 108.296 64.0202 108.34 63.7411C108.385 63.4633 108.654 63.2383 108.942 63.2383H116.243Z" fill="#FCA5A5"/>
<path d="M116.082 64.4543H108.78C108.58 64.4543 108.396 64.3724 108.274 64.2293C108.153 64.0876 108.103 63.9029 108.133 63.7085C108.194 63.3279 108.549 63.0293 108.94 63.0293H116.242C116.442 63.0293 116.628 63.1112 116.749 63.2543C116.869 63.396 116.919 63.5807 116.889 63.7737C116.829 64.1557 116.474 64.4543 116.082 64.4543ZM108.942 63.4474C108.755 63.4474 108.574 63.5974 108.546 63.7751C108.535 63.8474 108.55 63.9112 108.592 63.9599C108.635 64.0099 108.703 64.0376 108.782 64.0376H116.083C116.269 64.0376 116.451 63.8876 116.479 63.7085C116.49 63.6362 116.475 63.5737 116.433 63.5251C116.39 63.4751 116.322 63.446 116.243 63.446H108.942V63.4474Z" fill="#FCA5A5"/>
<path d="M51.0266 59.4082C51.3141 59.4082 51.5127 59.6332 51.4683 59.911C51.4238 60.1901 51.1544 60.4151 50.8669 60.4151H37.7697C37.4822 60.4151 37.2836 60.1901 37.328 59.911C37.3724 59.6332 37.6419 59.4082 37.9294 59.4082H51.0266Z" fill="#FCA5A5"/>
<path d="M50.8655 60.6242H37.7683C37.5683 60.6242 37.3836 60.5423 37.2613 60.3992C37.1405 60.2575 37.0905 60.0728 37.1211 59.8784C37.1822 59.4978 37.5363 59.1992 37.928 59.1992H51.0252C51.2252 59.1992 51.4113 59.2812 51.5322 59.4242C51.653 59.5659 51.703 59.7506 51.6711 59.9437C51.6127 60.3256 51.2572 60.6242 50.8655 60.6242ZM37.9294 59.6173C37.7433 59.6173 37.5613 59.7673 37.5336 59.9451C37.5225 60.0173 37.5377 60.0812 37.5794 60.1298C37.6225 60.1798 37.6905 60.2075 37.7697 60.2075H50.8669C51.053 60.2075 51.2349 60.0575 51.2627 59.8784C51.2738 59.8062 51.2586 59.7437 51.2169 59.695C51.1738 59.645 51.1058 59.6159 51.0266 59.6159H37.9294V59.6173Z" fill="#FCA5A5"/>
<path d="M50.5613 62.3242C50.8488 62.3242 51.0474 62.5492 51.0029 62.827C50.9585 63.1048 50.6891 63.3298 50.4016 63.3298H37.3043C37.0168 63.3298 36.8182 63.1048 36.8627 62.827C36.9071 62.5492 37.1766 62.3242 37.4641 62.3242H50.5613Z" fill="#FCA5A5"/>
<path d="M50.4002 63.5388H37.303C37.103 63.5388 36.9168 63.4569 36.796 63.3138C36.6752 63.1722 36.6252 62.9875 36.6557 62.7944C36.7168 62.4138 37.071 62.1152 37.4627 62.1152H50.5599C50.7599 62.1152 50.946 62.1972 51.0668 62.3402C51.1877 62.4819 51.2377 62.6666 51.2057 62.8597C51.1474 63.2402 50.7932 63.5388 50.4002 63.5388ZM37.4641 62.5319C37.278 62.5319 37.096 62.6819 37.0682 62.8597C37.0571 62.9319 37.0724 62.9944 37.1141 63.043C37.1571 63.093 37.2252 63.1222 37.3043 63.1222H50.4016C50.5877 63.1222 50.7696 62.9722 50.7974 62.7944C50.8085 62.7222 50.7932 62.6597 50.7516 62.6111C50.7085 62.5611 50.6405 62.5319 50.5613 62.5319H37.4641Z" fill="#FCA5A5"/>
<path d="M116.621 60.8711C116.908 60.8711 117.107 61.0961 117.063 61.3753C117.018 61.653 116.749 61.878 116.461 61.878H109.16C108.872 61.878 108.674 61.653 108.718 61.3753C108.763 61.0961 109.032 60.8711 109.32 60.8711H116.621Z" fill="#FCA5A5"/>
<path d="M116.46 62.0857H109.158C108.958 62.0857 108.772 62.0038 108.651 61.8607C108.531 61.7191 108.481 61.5343 108.511 61.3413C108.572 60.9607 108.926 60.6621 109.32 60.6621H116.621C116.821 60.6621 117.006 60.7441 117.128 60.8871C117.249 61.0288 117.299 61.2135 117.268 61.4079C117.207 61.7871 116.851 62.0857 116.46 62.0857ZM109.32 61.0788C109.133 61.0788 108.951 61.2288 108.924 61.4079C108.913 61.4802 108.928 61.5427 108.97 61.5913C109.013 61.6413 109.081 61.6704 109.16 61.6704H116.461C116.647 61.6704 116.829 61.5204 116.857 61.3427C116.868 61.2704 116.853 61.2066 116.811 61.1579C116.768 61.1079 116.7 61.0802 116.621 61.0802H109.32V61.0788Z" fill="#FCA5A5"/>
<path d="M119.425 41.5176L119.698 43.2301C119.864 44.2565 120.568 45.0606 121.582 45.3773L123.275 45.9051L121.414 46.4329C120.3 46.7495 119.339 47.5537 118.846 48.5801L118.025 50.2926L117.75 48.5801C117.585 47.5537 116.88 46.7495 115.866 46.4329L114.175 45.9051L116.035 45.3773C117.148 45.0606 118.11 44.2565 118.603 43.2301L119.425 41.5176Z" fill="#FCA5A5"/>
<path d="M41.4391 43.252L41.6488 44.5645C41.7752 45.352 42.3155 45.9686 43.0932 46.2103L44.3905 46.6145L42.9641 47.02C42.1099 47.2617 41.3724 47.8783 40.9946 48.6645L40.3655 49.9783L40.1557 48.6645C40.0293 47.877 39.4891 47.2617 38.7113 47.02L37.4141 46.6145L38.8404 46.2103C39.6946 45.9686 40.4321 45.3506 40.8099 44.5645L41.4391 43.252Z" fill="#FCA5A5"/>
<path d="M114.473 94.1445L114.59 94.8765C114.661 95.314 114.962 95.6584 115.396 95.7931L116.118 96.0181L115.323 96.2431C114.847 96.3793 114.436 96.7223 114.225 97.1598L113.873 97.8918L113.757 97.1598C113.686 96.7223 113.386 96.3779 112.953 96.2431L112.229 96.0181L113.025 95.7931C113.501 95.657 113.911 95.314 114.122 94.8765L114.473 94.1445Z" fill="#FCA5A5"/>
<path d="M34.3222 91.3125L34.4389 92.0444C34.5097 92.4833 34.8111 92.8264 35.2445 92.9611L35.9667 93.1861L35.1722 93.4111C34.6958 93.5472 34.2847 93.8903 34.0736 94.3292L33.7236 95.0611L33.607 94.3292C33.5375 93.8903 33.2361 93.5472 32.8028 93.4111L32.0806 93.1861L32.875 92.9611C33.3514 92.8264 33.7625 92.4833 33.9722 92.0444L34.3222 91.3125Z" fill="#FCA5A5"/>
</svg>
