<svg width="177" height="33" viewBox="0 0 177 33" fill="none" xmlns="http://www.w3.org/2000/svg">
<g clip-path="url(#clip0_310_1489)">
<mask id="mask0_310_1489" style="mask-type:luminance" maskUnits="userSpaceOnUse" x="0" y="0" width="177" height="33">
<path d="M176.291 0H0V33H176.291V0Z" fill="white"/>
</mask>
<g mask="url(#mask0_310_1489)">
<path d="M49.7924 16.2188C49.7924 10.8853 53.8235 7.44922 58.5936 7.44922C61.0031 7.44922 63.7932 8.31332 65.534 11.2929L62.8152 13.1913C61.8371 11.7495 60.3356 11.0531 58.6888 11.0531C55.9225 11.0531 53.6808 13.0235 53.6808 16.2188C53.6808 19.462 55.9701 21.3844 58.7138 21.3844C60.4307 21.3844 61.8384 20.6881 62.8164 19.2462L65.5351 21.1447C63.7932 24.1242 60.9792 24.9883 58.5698 24.9883C53.7998 24.9883 49.7924 21.5522 49.7924 16.2188Z" fill="white"/>
<path d="M75.3609 17.2759C75.0991 15.8341 73.8343 15.1378 72.5933 15.1378C71.3535 15.1378 70.1137 15.7861 69.7068 17.2759H75.3597H75.3609ZM66.2253 18.5259C66.2253 14.2976 69.3498 12.0156 72.5457 12.0156C75.694 12.0156 79.3909 14.2256 78.6044 19.9438H69.7794C70.2803 21.2885 71.5212 21.9621 73.1656 21.9621C74.2638 21.9621 75.2407 21.6972 76.1473 21.0009L77.8179 22.7556C76.7922 24.0523 75.0266 24.9896 72.7611 24.9896C69.3272 24.9896 66.2253 22.6357 66.2253 18.5272V18.5259Z" fill="white"/>
<path d="M80.3677 12.2541H84.066V15.6423C84.47 13.624 85.6639 12.0132 87.9051 12.0132C88.1911 12.0132 88.4779 12.0372 88.7885 12.1331V15.665C88.5016 15.6171 88.2394 15.5932 87.9305 15.5932C85.473 15.5932 84.0668 17.2507 84.0668 19.6058V24.7475H80.3689V12.2541H80.3677Z" fill="white"/>
<path d="M91.6721 20.9039V15.2097H89.8365V12.2541H91.6721V9.05884H95.3694V12.2541H97.9687V15.2097H95.3694V20.3033C95.3694 20.9278 95.7275 21.6002 96.8485 21.6002C97.1337 21.6002 97.5631 21.5522 98.0162 21.4084V24.2441C97.5393 24.7247 96.4896 24.8925 95.6308 24.8925C93.3405 24.8925 91.6721 23.7635 91.6721 20.9039Z" fill="white"/>
<path d="M99.7338 12.2541H103.431V24.7475H99.7338V12.2541ZM99.7338 7.68896H103.431V10.9322H99.7338V7.68896Z" fill="white"/>
<path d="M110.944 7.13645C111.541 7.13645 112.518 7.16042 113.282 7.61706V10.5235C112.614 10.2358 112.041 10.2838 111.946 10.2838C110.706 10.2838 110.182 11.0053 110.182 12.0612V12.2529H113.282V15.2085H110.182V24.7463H106.484V15.2085H104.839V12.2529H106.484V11.6764C106.484 7.73571 109.227 7.13525 110.945 7.13525L110.944 7.13645Z" fill="white"/>
<path d="M114.807 12.2541H118.504V24.7475H114.807V12.2541ZM114.807 7.68896H118.504V10.9322H114.807V7.68896Z" fill="white"/>
<path d="M120.745 7.68896H124.442V16.9871L128.545 12.2541H132.957L128.092 17.6846L133.458 24.7475H129.38L125.802 20.2063L124.442 21.744V24.7475H120.745V7.68896Z" fill="white"/>
<path d="M134.863 7.68896H144.668V11.1731H138.632V14.4403H143.69V17.8764H138.632V21.2634H144.882V24.7475H134.863V7.68896Z" fill="white"/>
<path d="M153.205 21.1675C156.067 21.1675 157.546 19.1252 157.546 16.2176C157.546 13.31 156.067 11.2677 153.205 11.2677H150.534V21.1662H153.205V21.1675ZM146.766 7.68894H153.348C157.881 7.68894 161.458 11.221 161.458 16.2176C161.458 21.2154 157.881 24.7463 153.348 24.7463H146.766V7.68774V7.68894Z" fill="white"/>
<path d="M163.221 18.2851V7.68896H166.989V18.3079C166.989 20.8547 168.539 21.4311 169.757 21.4311C170.973 21.4311 172.524 20.8547 172.524 18.3079V7.68896H176.293V18.2851C176.293 22.6573 173.358 24.9884 169.757 24.9884C166.131 24.9884 163.221 22.6573 163.221 18.2851Z" fill="white"/>
<path d="M15.0538 21.8904H11.8495V11.8491H15.0538V21.8904Z" fill="white"/>
<path d="M20.3902 21.8904H17.1871V11.8491H20.3902V21.8904Z" fill="white"/>
<path d="M25.7279 21.8904H22.5237V11.8491H25.7279V21.8904Z" fill="white"/>
<path fill-rule="evenodd" clip-rule="evenodd" d="M2.69374 15.6114C2.69374 13.0166 2.89721 11.5521 3.80029 9.29165C4.76644 6.87062 5.20549 6.77115 6.19662 5.27899L8.47875 7.51662C9.88271 6.61294 9.81019 5.919 12.993 4.31298C18.0463 1.76373 23.8598 2.36779 28.5144 5.60498C28.9166 5.88424 29.2283 6.11196 29.5591 6.44275C29.9267 6.81189 30.2575 6.9725 30.5562 7.32846C33.1334 10.4003 34.8444 13.4049 34.8444 18.0036C34.8444 20.9449 33.7485 24.5308 32.0578 26.79C31.7579 27.1903 31.5687 27.3988 31.3415 27.8327L28.994 25.5352C27.1306 26.8571 27.5923 27.1843 24.3369 28.8407C20.6782 30.7031 15.5321 30.841 11.7424 29.0516C10.9167 28.6621 10.0041 28.1898 9.32475 27.7069C8.51563 27.1328 8.00161 26.6869 7.29247 25.9726C4.55465 23.2136 2.69493 19.7235 2.69493 15.609L2.69374 15.6114ZM8.57274 3.89351L6.22637 1.4689C5.28997 2.11011 3.65275 4.07688 2.99239 5.07644C-0.216606 9.92566 -0.888865 16.2466 1.19097 21.5357C3.78126 28.1239 10.2516 33.0007 17.205 33.0007C22.6271 33.0007 24.9175 31.8657 28.8392 29.2206L31.3118 31.6439C31.8019 31.3024 33.2607 29.6736 33.6474 29.1499C36.3519 25.4956 37.4704 22.3627 37.4704 17.3757C37.4704 12.8333 34.7338 7.07197 31.5913 4.64857C29.8304 3.29064 29.4484 2.73333 26.8808 1.58156C25.2281 0.840873 23.6587 0.381844 21.8026 0.144537C19.8417 -0.105953 18.1866 -0.026851 16.3162 0.350682C15.3072 0.55443 14.2899 0.822898 13.3797 1.17287C12.5004 1.51204 11.5783 1.9519 10.831 2.38577C10.0053 2.86518 9.34253 3.37334 8.57389 3.8923L8.57274 3.89351Z" fill="white"/>
</g>
</g>
<defs>
<clipPath id="clip0_310_1489">
<rect width="177" height="33" fill="white"/>
</clipPath>
</defs>
</svg>
