<svg width="120" height="120" viewBox="0 0 120 120" fill="none" xmlns="http://www.w3.org/2000/svg">
<path d="M60 102.561C82.6553 102.561 101.021 95.3564 101.021 86.4689C101.021 77.5814 82.6553 70.3766 60 70.3766C37.3447 70.3766 18.9789 77.5814 18.9789 86.4689C18.9789 95.3564 37.3447 102.561 60 102.561Z" fill="#F9FAFB"/>
<path d="M87.57 79.5522L89.2467 82.2267L81.5767 83.5634L79.9 80.8889L87.57 79.5522Z" fill="#D0D5DD"/>
<path d="M81.5766 83.7945C81.4977 83.7945 81.4233 83.7545 81.381 83.6856L79.7044 81.0111C79.6633 80.9456 79.6577 80.8645 79.6888 80.7945C79.7199 80.7245 79.7844 80.6745 79.8599 80.6611L87.5299 79.3245C87.6233 79.3078 87.7155 79.35 87.7655 79.4289L89.4422 82.1034C89.4833 82.1689 89.4888 82.25 89.4577 82.32C89.4266 82.39 89.3622 82.44 89.2866 82.4534L81.6166 83.79C81.6033 83.7934 81.5899 83.7945 81.5766 83.7945ZM80.2788 81.0578L81.6899 83.3089L88.8688 82.0578L87.4577 79.8067L80.2788 81.0578Z" fill="#F9FAFB"/>
<path d="M88.4489 51.6633L87.8023 56.9733C86.8734 64.6033 86.7945 72.19 87.5711 79.5533L79.9 80.8889L83.2367 69.4789L88.4489 51.6633Z" fill="#98A2B3"/>
<path d="M79.9001 81.12C79.8345 81.12 79.7723 81.0922 79.7278 81.0433C79.6745 80.9833 79.6556 80.9011 79.6778 80.8244L88.2267 51.5989C88.2601 51.4833 88.3779 51.4133 88.4956 51.4378C88.6134 51.4622 88.6934 51.5722 88.679 51.6922L88.0323 57.0022C87.1056 64.6111 87.0279 72.19 87.8012 79.53C87.8145 79.6511 87.7312 79.7611 87.6112 79.7822L79.9412 81.1189C79.9267 81.1189 79.9134 81.12 79.9001 81.12ZM87.8779 54.4378L80.2256 80.5978L87.3178 79.3622C86.5645 72.0544 86.6501 64.5144 87.5723 56.9456L87.8779 54.4378Z" fill="#F9FAFB"/>
<path d="M90.1256 54.3378L88.449 51.6633L87.8023 56.9733C86.8734 64.6033 86.7945 72.19 87.5712 79.5533L89.2478 82.2278C88.4723 74.8644 88.5501 67.2789 89.479 59.6478L90.1256 54.3378Z" fill="#D0D5DD"/>
<path d="M89.2467 82.4577C89.1689 82.4577 89.0945 82.4177 89.0511 82.3489L87.3744 79.6744C87.3556 79.6444 87.3444 79.6111 87.34 79.5755C86.5633 72.2011 86.6411 64.5866 87.5722 56.9433L88.2189 51.6333C88.2311 51.5366 88.3022 51.4566 88.3978 51.4355C88.4933 51.4144 88.5922 51.4555 88.6433 51.5389L90.32 54.2133C90.3478 54.2577 90.36 54.3111 90.3533 54.3644L89.7067 59.6744C88.78 67.2833 88.7022 74.8622 89.4756 82.2022C89.4867 82.3089 89.4233 82.41 89.3211 82.4444C89.2978 82.4544 89.2722 82.4577 89.2467 82.4577ZM87.7945 79.4755L88.9178 81.2689C88.2478 74.2022 88.3589 66.9233 89.2478 59.62L89.8845 54.3911L88.5978 52.3389L88.03 57.0011C87.1067 64.5911 87.0278 72.1522 87.7945 79.4755Z" fill="#F9FAFB"/>
<path d="M78.8522 84.4722L80.5288 87.1467H78.5622L76.8855 84.4722H78.8522Z" fill="#D0D5DD"/>
<path d="M80.5289 87.3778H78.5633C78.4833 87.3778 78.41 87.3367 78.3678 87.2689L76.6911 84.5945C76.6466 84.5234 76.6444 84.4334 76.6844 84.36C76.7255 84.2867 76.8022 84.2411 76.8867 84.2411H78.8522C78.9322 84.2411 79.0055 84.2823 79.0478 84.35L80.7244 87.0245C80.7689 87.0956 80.7711 87.1856 80.7311 87.2589C80.69 87.3323 80.6122 87.3778 80.5289 87.3778ZM78.69 86.9156H80.1111L78.7244 84.7034H77.3044L78.69 86.9156Z" fill="#F9FAFB"/>
<path d="M88.8979 50.1289L88.449 51.6634L83.2367 69.4789L79.9001 80.8889L78.8523 84.4722L80.529 87.1467L81.5767 83.5634L84.9134 72.1534L90.1256 54.3378L90.5745 52.8034L88.8979 50.1289Z" fill="#D0D5DD"/>
<path d="M80.5289 87.3778C80.45 87.3778 80.3756 87.3378 80.3334 87.2689L78.6567 84.5945C78.6211 84.5389 78.6122 84.47 78.6311 84.4067L88.6767 50.0634C88.7023 49.9756 88.7767 49.9122 88.8667 49.8989C88.9567 49.8867 89.0456 49.9278 89.0945 50.0056L90.7711 52.68C90.8067 52.7356 90.8156 52.8045 90.7967 52.8678L80.75 87.2111C80.7245 87.2989 80.65 87.3623 80.56 87.3756C80.55 87.3767 80.5389 87.3778 80.5289 87.3778ZM79.1034 84.4367L80.4511 86.5878L90.3234 52.8378L88.9756 50.6867L79.1034 84.4367Z" fill="#F9FAFB"/>
<path d="M88.8979 50.1288L88.449 51.6633L83.2367 69.4788L79.9001 80.8888L78.8523 84.4722H76.8856L80.6012 71.7744L86.9323 50.1288H88.8979Z" fill="#98A2B3"/>
<path d="M78.8523 84.7033H76.8867C76.8134 84.7033 76.7456 84.6689 76.7023 84.6111C76.6589 84.5533 76.6445 84.4778 76.6656 84.4078L80.38 71.71L86.7111 50.0644C86.74 49.9655 86.83 49.8978 86.9334 49.8978H88.8989C88.9723 49.8978 89.04 49.9322 89.0834 49.99C89.1267 50.0478 89.1411 50.1233 89.12 50.1933L79.0745 84.5367C79.0456 84.6355 78.9545 84.7033 78.8523 84.7033ZM77.1945 84.2411H78.6789L88.59 50.36H87.1056L80.8223 71.8389L77.1945 84.2411Z" fill="#F9FAFB"/>
<path d="M53.4011 35.4822C53.4022 35.46 53.4022 35.4378 53.4022 35.4156C53.4022 35.4022 53.4011 35.39 53.4 35.3778C53.3989 35.3578 53.3978 35.3389 53.3956 35.32C53.3944 35.3067 53.3922 35.2934 53.39 35.28C53.3889 35.2678 53.3878 35.2556 53.3856 35.2434C53.3844 35.2389 53.3833 35.2356 53.3833 35.2322C53.3756 35.19 53.3667 35.1478 53.3544 35.1078C53.3533 35.1056 53.3533 35.1034 53.3533 35.1011C53.3511 35.0934 53.3478 35.0867 53.3456 35.08C53.3378 35.0556 53.3289 35.0311 53.3189 35.0078C53.3167 35.0034 53.3156 34.9978 53.3133 34.9922C53.31 34.9856 53.3067 34.9789 53.3033 34.9723C53.2956 34.9545 53.2867 34.9378 53.2778 34.9211C53.2744 34.9145 53.2711 34.9078 53.2678 34.9011C53.2611 34.89 53.2544 34.8789 53.2478 34.8678L51.5711 32.1934C51.5822 32.21 51.5911 32.2289 51.6011 32.2467C51.61 32.2634 51.6189 32.2811 51.6267 32.2978C51.6322 32.3089 51.6378 32.3211 51.6422 32.3334C51.6522 32.3567 51.6611 32.3811 51.6689 32.4056C51.6722 32.4145 51.6756 32.4234 51.6778 32.4334C51.69 32.4734 51.7 32.5145 51.7067 32.5578C51.71 32.5734 51.7122 32.5889 51.7144 32.6056C51.7167 32.6189 51.7178 32.6322 51.72 32.6456C51.7222 32.6645 51.7233 32.6845 51.7244 32.7034C51.7256 32.7156 51.7256 32.7289 51.7267 32.7411C51.7267 32.7634 51.7267 32.7856 51.7256 32.8078C51.7256 32.8189 51.7256 32.8289 51.7244 32.84C51.7222 32.8734 51.7189 32.9078 51.7144 32.9423L51.5 34.5167L53.1767 37.1911L53.3911 35.6167C53.3956 35.5822 53.3989 35.5489 53.4011 35.5145C53.4011 35.5045 53.4011 35.4934 53.4011 35.4822Z" fill="#E4E7EC"/>
<path d="M53.1767 37.4222C53.0978 37.4222 53.0234 37.3822 52.9812 37.3133L51.3045 34.6389C51.2756 34.5933 51.2645 34.5389 51.2712 34.4845L51.4856 32.91C51.4889 32.8822 51.4923 32.8533 51.4934 32.8256V32.8C51.4945 32.7811 51.4945 32.7622 51.4945 32.7445L51.4934 32.7245C51.4934 32.7233 51.4923 32.7133 51.4923 32.7122C51.4912 32.6967 51.4912 32.6811 51.4889 32.6656L51.4845 32.6356C51.4823 32.6211 51.4801 32.6078 51.4789 32.5956C51.4723 32.56 51.4645 32.5267 51.4556 32.4978L51.4478 32.4767C51.4412 32.4578 51.4345 32.4389 51.4267 32.42L51.4145 32.3933C51.4089 32.38 51.4023 32.3667 51.3945 32.3545L51.3889 32.3445C51.3834 32.3345 51.3778 32.3245 51.3723 32.3145V32.3133C51.3045 32.2056 51.3367 32.0622 51.4456 31.9945C51.5534 31.9267 51.6967 31.9589 51.7645 32.0667L53.4412 34.7411C53.4501 34.7545 53.4578 34.7678 53.4656 34.7822C53.4712 34.7922 53.4756 34.8011 53.4801 34.81C53.4901 34.8289 53.5012 34.85 53.5112 34.8722C53.5145 34.8789 53.5189 34.8878 53.5234 34.8967C53.5256 34.9022 53.5312 34.9167 53.5334 34.9233C53.5423 34.9445 53.5534 34.9733 53.5634 35.0033C53.5667 35.01 53.5701 35.0189 53.5723 35.0289C53.5734 35.0345 53.5756 35.0411 53.5767 35.0467C53.5878 35.0845 53.5989 35.1311 53.6089 35.18C53.6112 35.1878 53.6123 35.1945 53.6134 35.2022C53.6156 35.2122 53.6167 35.2233 53.6178 35.2345L53.3901 35.2756L53.6201 35.2545C53.6223 35.2667 53.6234 35.28 53.6245 35.2933C53.6267 35.3156 53.6278 35.3389 53.6289 35.3622C53.6301 35.3833 53.6312 35.3945 53.6312 35.4067C53.6312 35.4345 53.6312 35.46 53.6301 35.4867V35.4878V35.4956C53.6301 35.5056 53.6301 35.5145 53.6289 35.5245C53.6267 35.5633 53.6234 35.6033 53.6178 35.6433L53.4056 37.2222C53.3923 37.3189 53.3201 37.3967 53.2256 37.4167C53.2089 37.4211 53.1923 37.4222 53.1767 37.4222ZM51.7401 34.4645L53.0334 36.5278L53.1623 35.5856C53.1656 35.5578 53.1689 35.5289 53.1701 35.5011L53.1712 35.4745C53.1723 35.4567 53.1723 35.4378 53.1723 35.42L53.1701 35.3889C53.1689 35.3733 53.1689 35.3578 53.1667 35.3422L53.1601 35.2856C53.1589 35.28 53.1578 35.2745 53.1567 35.2678C53.1512 35.2367 53.1434 35.2033 53.1345 35.1733C53.1345 35.1711 53.1334 35.17 53.1334 35.1678C53.1312 35.1633 53.1301 35.1578 53.1278 35.1522C53.1212 35.1333 53.1145 35.1145 53.1067 35.0967C53.1056 35.0933 53.1034 35.0878 53.1012 35.0822C53.0989 35.0778 53.0956 35.0711 53.0945 35.0689C53.0889 35.0567 53.0823 35.0433 53.0756 35.0311C53.0734 35.0278 53.0667 35.0145 53.0656 35.0111L53.0534 34.9911L51.9178 33.1789L51.7401 34.4645Z" fill="#F9FAFB"/>
<path d="M50.8545 31.7955C51.4156 31.7955 51.8011 32.3089 51.7145 32.9422L51.5 34.5166L50.5311 41.6278C50.4445 42.2622 49.92 42.7744 49.3589 42.7744H47.4734C46.9123 42.7744 46.5267 42.2611 46.6134 41.6278L47.5823 34.5166L47.7967 32.9422C47.8834 32.3078 48.4078 31.7955 48.9689 31.7955H50.8545Z" fill="#F7F9FC"/>
<path d="M49.3578 43.0056H47.4723C47.1578 43.0056 46.8711 42.8767 46.6667 42.6422C46.4323 42.3745 46.3289 41.9933 46.3834 41.5967L47.5667 32.9111C47.67 32.1556 48.2856 31.5645 48.9678 31.5645H50.8534C51.1678 31.5645 51.4545 31.6933 51.6589 31.9278C51.8934 32.1956 51.9967 32.5767 51.9423 32.9733L50.7589 41.6589C50.6567 42.4145 50.0411 43.0056 49.3578 43.0056ZM48.9689 32.0267C48.52 32.0267 48.0967 32.4511 48.0256 32.9733L46.8423 41.6589C46.8067 41.9233 46.87 42.1711 47.0156 42.3378C47.1334 42.4722 47.2911 42.5433 47.4734 42.5433H49.3589C49.8078 42.5433 50.2311 42.1189 50.3023 41.5967L51.4856 32.9111C51.5211 32.6467 51.4578 32.4 51.3123 32.2322C51.1945 32.0978 51.0367 32.0267 50.8545 32.0267H48.9689Z" fill="#F9FAFB"/>
<path d="M41.8134 50.1288H38.1234C37.8534 50.1288 37.6045 50.0699 37.3834 49.9622C37.3201 49.9311 37.2601 49.8966 37.2012 49.8588C37.0845 49.7822 36.9778 49.6911 36.8834 49.5866C36.8123 49.5088 36.7478 49.4233 36.6901 49.3311L38.3667 52.0055C38.6734 52.4944 39.1834 52.8033 39.8001 52.8033H43.4901L41.8134 50.1288Z" fill="#D0D5DD"/>
<path d="M43.4901 53.0344H39.8001C39.1256 53.0344 38.5323 52.7044 38.1712 52.1278L36.4956 49.4544C36.4956 49.4544 36.4956 49.4544 36.4956 49.4533C36.4278 49.3455 36.4601 49.2022 36.569 49.1344C36.6767 49.0666 36.8201 49.0989 36.8878 49.2078C36.9378 49.2878 36.9945 49.3622 37.0567 49.43C37.139 49.52 37.2312 49.5989 37.3301 49.6644C37.3801 49.6978 37.4323 49.7278 37.4867 49.7533C37.6823 49.8489 37.8967 49.8966 38.1256 49.8966H41.8156C41.8956 49.8966 41.969 49.9378 42.0112 50.0055L43.6878 52.68C43.7323 52.7511 43.7345 52.8411 43.6945 52.9144C43.6512 52.9889 43.5745 53.0344 43.4901 53.0344ZM37.5567 50.2778L38.5623 51.8833C38.8367 52.3211 39.2878 52.5733 39.799 52.5733H43.0712L41.6845 50.3611H38.1223C37.9267 50.36 37.7367 50.3322 37.5567 50.2778Z" fill="#F9FAFB"/>
<path d="M86.2468 35.4822C86.2479 35.46 86.2479 35.4378 86.2479 35.4155C86.2479 35.4022 86.2468 35.39 86.2457 35.3766C86.2446 35.3578 86.2435 35.3378 86.2413 35.3189C86.2401 35.3055 86.2379 35.2922 86.2357 35.2789C86.2346 35.2666 86.2335 35.2544 86.2313 35.2433C86.2302 35.2389 86.229 35.2355 86.229 35.2311C86.2213 35.1889 86.2124 35.1478 86.2001 35.1078C86.199 35.1055 86.199 35.1033 86.199 35.1011C86.1968 35.0944 86.1935 35.0878 86.1913 35.08C86.1835 35.0555 86.1746 35.0311 86.1646 35.0078C86.1624 35.0033 86.1613 34.9978 86.159 34.9922C86.1557 34.9855 86.1524 34.9789 86.149 34.9722C86.1413 34.9544 86.1324 34.9378 86.1235 34.92C86.1201 34.9133 86.1168 34.9066 86.1135 34.9C86.1068 34.8889 86.1002 34.8778 86.0935 34.8666L84.4168 32.1922C84.4279 32.2089 84.4368 32.2278 84.4468 32.2455C84.4557 32.2622 84.4646 32.28 84.4724 32.2978C84.4779 32.3089 84.4835 32.3211 84.4879 32.3333C84.4979 32.3566 84.5068 32.3811 84.5146 32.4066C84.5179 32.4155 84.5213 32.4244 84.5235 32.4333C84.5357 32.4733 84.5457 32.5144 84.5524 32.5578C84.5557 32.5733 84.5579 32.5889 84.5601 32.6055C84.5624 32.6189 84.5635 32.6322 84.5657 32.6455C84.5679 32.6644 84.569 32.6844 84.5701 32.7033C84.5713 32.7166 84.5724 32.7289 84.5724 32.7422C84.5724 32.7644 84.5724 32.7866 84.5713 32.8089C84.5713 32.82 84.5713 32.8311 84.5701 32.8422C84.5679 32.8755 84.5646 32.91 84.5601 32.9433L84.3457 34.5178L86.0224 37.1922L86.2368 35.6178C86.2413 35.5833 86.2446 35.55 86.2468 35.5166C86.2468 35.5044 86.2468 35.4933 86.2468 35.4822Z" fill="#E4E7EC"/>
<path d="M86.0212 37.4222C85.9423 37.4222 85.8679 37.3822 85.8256 37.3133L84.149 34.6389C84.1201 34.5933 84.109 34.5389 84.1156 34.4844L84.3301 32.91C84.3334 32.8822 84.3368 32.8533 84.3379 32.8267V32.8C84.339 32.7811 84.339 32.7633 84.339 32.7456L84.3368 32.7144C84.3356 32.6989 84.3356 32.6833 84.3334 32.6689L84.3312 32.6467C84.3279 32.6244 84.3268 32.6111 84.3245 32.5989C84.319 32.5656 84.3112 32.5322 84.3012 32.5011C84.3012 32.5 84.2945 32.4833 84.2945 32.4822C84.2879 32.4622 84.2812 32.4433 84.2734 32.4244C84.2701 32.4156 84.2656 32.4078 84.2623 32.3989C84.2556 32.3844 84.249 32.3711 84.2423 32.3578C84.2334 32.34 84.2268 32.3289 84.2201 32.3178C84.1523 32.21 84.1856 32.0667 84.2934 32C84.4012 31.9322 84.5434 31.9656 84.6123 32.0733L86.289 34.7478C86.2979 34.7622 86.3056 34.7755 86.3145 34.79C86.3179 34.7967 86.3234 34.8056 86.3279 34.8156C86.3379 34.8344 86.349 34.8556 86.359 34.8778C86.3634 34.8856 86.3679 34.8944 86.3712 34.9033C86.3734 34.9089 86.379 34.9222 86.3801 34.9278C86.3901 34.9511 86.4012 34.9811 86.4112 35.0111C86.4134 35.0167 86.4168 35.0256 86.4201 35.0344C86.4212 35.0389 86.4234 35.0456 86.4245 35.0522C86.4368 35.0911 86.4468 35.1367 86.4568 35.1867C86.4579 35.1922 86.459 35.1978 86.4601 35.2033C86.4623 35.2189 86.4645 35.2311 86.4656 35.2422C86.469 35.2667 86.4712 35.2822 86.4723 35.2978C86.4745 35.3211 86.4756 35.3444 86.4768 35.3678C86.4779 35.3867 86.479 35.4 86.479 35.4144C86.479 35.4389 86.479 35.4656 86.4779 35.4911V35.4989C86.4779 35.5089 86.4779 35.52 86.4768 35.53C86.4745 35.5689 86.4712 35.6089 86.4656 35.6489L86.2501 37.2222C86.2368 37.3189 86.1645 37.3967 86.0701 37.4167C86.0534 37.4211 86.0379 37.4222 86.0212 37.4222ZM84.5856 34.4644L85.879 36.5278L86.0079 35.5855C86.0112 35.5578 86.0145 35.5289 86.0156 35.5022V35.4756V35.4744C86.0168 35.4567 86.0168 35.4389 86.0168 35.4211L86.0156 35.4011C86.0156 35.4 86.0145 35.39 86.0145 35.39C86.0134 35.3744 86.0134 35.3589 86.0112 35.3444L86.0045 35.2933C86.0045 35.2922 86.0034 35.2844 86.0012 35.2767C85.9945 35.2389 85.9868 35.2067 85.9779 35.1767C85.9779 35.1756 85.9768 35.1733 85.9768 35.1722C85.9745 35.1667 85.9723 35.1611 85.9712 35.1556C85.9645 35.1356 85.9579 35.1167 85.9501 35.0989C85.949 35.0967 85.9468 35.0911 85.9456 35.0856C85.9423 35.08 85.939 35.0722 85.9379 35.07C85.9323 35.0578 85.9256 35.0444 85.919 35.0311C85.9168 35.0278 85.9112 35.0155 85.9101 35.0122C85.9068 35.0067 85.9023 34.9989 85.8968 34.99L84.7612 33.1778L84.5856 34.4644Z" fill="#F9FAFB"/>
<path d="M83.699 31.7955C84.2601 31.7955 84.6467 32.3089 84.5601 32.9422L84.3456 34.5166L83.3767 41.6278C83.2901 42.2622 82.7645 42.7744 82.2034 42.7744H80.3178C79.7567 42.7744 79.3712 42.2611 79.4578 41.6278L80.4267 34.5166L80.6412 32.9422C80.7279 32.3078 81.2534 31.7955 81.8134 31.7955H83.699Z" fill="#F7F9FC"/>
<path d="M82.2023 43.0056H80.3167C80.0023 43.0056 79.7156 42.8767 79.5112 42.6411C79.2767 42.3734 79.1734 41.9922 79.2279 41.5956L80.4112 32.91C80.5123 32.1678 81.1412 31.5634 81.8123 31.5634H83.6979C84.0123 31.5634 84.299 31.6922 84.5045 31.9278C84.739 32.1956 84.8423 32.5767 84.7879 32.9734L83.6045 41.6589C83.5023 42.4145 82.8856 43.0056 82.2023 43.0056ZM81.8134 32.0267C81.3723 32.0267 80.9401 32.46 80.8701 32.9734L79.6867 41.6589C79.6512 41.9222 79.7145 42.17 79.8601 42.3378C79.9779 42.4722 80.1356 42.5434 80.3179 42.5434H82.2034C82.6456 42.5434 83.0779 42.11 83.1479 41.5967L84.3312 32.9111C84.3667 32.6478 84.3034 32.4 84.1579 32.2322C84.0401 32.0978 83.8823 32.0267 83.7001 32.0267H81.8134Z" fill="#F9FAFB"/>
<path d="M86.9322 50.1288L88.6078 52.8033H43.49L41.8134 50.1288H86.9322Z" fill="#1D2739"/>
<path d="M88.6077 53.0344H43.49C43.41 53.0344 43.3366 52.9933 43.2944 52.9255L41.6177 50.2511C41.5733 50.18 41.5711 50.09 41.6111 50.0167C41.6522 49.9433 41.7288 49.8978 41.8133 49.8978H86.9311C87.0111 49.8978 87.0844 49.9389 87.1266 50.0067L88.8033 52.6811C88.8477 52.7522 88.85 52.8422 88.81 52.9155C88.77 52.9889 88.6922 53.0344 88.6077 53.0344ZM43.6177 52.5722H88.19L86.8033 50.36H42.2311L43.6177 52.5722Z" fill="#F9FAFB"/>
<path d="M95.0933 39.2167C95.0944 39.1722 95.0966 39.1278 95.0955 39.0844C95.0955 39.0589 95.0933 39.0333 95.0922 39.0078C95.0899 38.9689 95.0877 38.93 95.0844 38.8911C95.0822 38.8644 95.0777 38.8389 95.0744 38.8122C95.071 38.7878 95.0688 38.7633 95.0655 38.74C95.0633 38.7267 95.0599 38.7133 95.0577 38.7C95.0544 38.6811 95.051 38.6633 95.0466 38.6456C95.0377 38.6033 95.0277 38.5622 95.0166 38.5211C95.0122 38.5056 95.0088 38.4911 95.0044 38.4756C95.0022 38.4689 95.001 38.4633 94.9988 38.4567C94.9944 38.4422 94.9877 38.4289 94.9833 38.4144C94.9666 38.3656 94.9488 38.3167 94.9288 38.2689C94.9244 38.2589 94.9222 38.2478 94.9177 38.2389C94.9122 38.2256 94.9044 38.2122 94.8977 38.1989C94.881 38.1633 94.8644 38.1289 94.8455 38.0956C94.8388 38.0822 94.8333 38.0689 94.8255 38.0567C94.8122 38.0344 94.7988 38.0122 94.7855 37.99L93.1088 35.3156C93.1299 35.35 93.1488 35.3856 93.1688 35.4222C93.1866 35.4556 93.2044 35.4911 93.221 35.5256C93.2322 35.5489 93.2422 35.5722 93.2522 35.5956C93.2722 35.6422 93.2899 35.6911 93.3066 35.7411C93.3133 35.7611 93.321 35.7811 93.3277 35.8022C93.3322 35.8178 93.3355 35.8322 93.3399 35.8478C93.351 35.8889 93.361 35.93 93.3699 35.9722C93.3733 35.99 93.3777 36.0089 93.381 36.0267C93.3877 36.0633 93.3933 36.1011 93.3988 36.14C93.4022 36.1667 93.4066 36.1922 93.4088 36.2189C93.4122 36.2567 93.4144 36.2956 93.4166 36.3356C93.4177 36.3611 93.4199 36.3867 93.4199 36.4122C93.421 36.4556 93.4199 36.5 93.4177 36.5444C93.4166 36.5667 93.4177 36.5878 93.4166 36.61C93.4122 36.6767 93.4066 36.7444 93.3966 36.8133L91.8944 47.8367C91.8844 47.9067 91.871 47.9767 91.8566 48.0456C91.8522 48.0633 91.8488 48.0811 91.8444 48.1C91.8299 48.1611 91.8133 48.2222 91.7944 48.2822C91.7922 48.2889 91.7899 48.2967 91.7877 48.3033C91.7666 48.3689 91.7422 48.4333 91.7166 48.4978C91.7099 48.5144 91.7033 48.5311 91.6955 48.5478C91.6733 48.6011 91.6488 48.6533 91.6233 48.7044C91.6177 48.7156 91.6122 48.7278 91.6066 48.7389C91.5944 48.7633 91.5788 48.7867 91.5655 48.8111C91.5388 48.86 91.5122 48.9078 91.4822 48.9544C91.4633 48.9856 91.4422 49.0144 91.4222 49.0444C91.3988 49.0778 91.3766 49.1111 91.3522 49.1433C91.3288 49.1744 91.3033 49.2044 91.2788 49.2344C91.2566 49.2611 91.2355 49.2889 91.2122 49.3144C91.1855 49.3444 91.1577 49.3733 91.1288 49.4022C91.1066 49.4256 91.0844 49.45 91.061 49.4722C91.0333 49.5 91.0033 49.5244 90.9733 49.5511C90.9477 49.5733 90.9233 49.5967 90.8977 49.6178C90.871 49.64 90.8433 49.6589 90.8155 49.68C90.7844 49.7033 90.7522 49.7278 90.7199 49.75C90.6966 49.7656 90.6722 49.78 90.6477 49.7944C90.6055 49.8211 90.5644 49.8467 90.521 49.87C90.4688 49.8989 90.4166 49.9267 90.3622 49.95C90.3622 49.95 90.3622 49.95 90.361 49.95C90.3055 49.9744 90.2488 49.9967 90.191 50.0167C90.1688 50.0244 90.1466 50.0311 90.1233 50.0389C90.0833 50.0511 90.0422 50.0633 90.001 50.0733C89.9777 50.0789 89.9544 50.0844 89.931 50.09C89.8877 50.0989 89.8444 50.1056 89.7999 50.1122C89.7799 50.1156 89.7588 50.1189 89.7388 50.1211C89.6744 50.1278 89.6099 50.1322 89.5455 50.1322H88.8955H86.9299L88.6066 52.8067H90.5722H91.2222C91.2866 52.8067 91.351 52.8022 91.4155 52.7956C91.4366 52.7933 91.4566 52.79 91.4766 52.7867C91.5199 52.7811 91.5644 52.7733 91.6077 52.7644C91.631 52.76 91.6544 52.7544 91.6777 52.7478C91.7188 52.7378 91.7599 52.7267 91.7999 52.7133C91.8222 52.7067 91.8455 52.6989 91.8677 52.6911C91.8799 52.6867 91.8922 52.6844 91.9033 52.68C91.9488 52.6633 91.9933 52.6444 92.0377 52.6256C92.0377 52.6256 92.0377 52.6256 92.0388 52.6256C92.0833 52.6056 92.1277 52.5844 92.171 52.5611C92.1799 52.5567 92.1888 52.55 92.1977 52.5456C92.241 52.5222 92.2822 52.4967 92.3244 52.47C92.3433 52.4589 92.3622 52.4489 92.3799 52.4367C92.3855 52.4333 92.391 52.4289 92.3955 52.4244C92.4277 52.4022 92.4588 52.3789 92.4899 52.3544C92.5133 52.3378 92.5366 52.3222 92.5588 52.3033C92.5633 52.3 92.5677 52.2956 92.5722 52.2911C92.5977 52.27 92.6222 52.2467 92.6477 52.2244C92.6722 52.2033 92.6966 52.1833 92.7199 52.1611C92.7255 52.1567 92.7299 52.1511 92.7355 52.1456C92.7588 52.1233 92.781 52.0989 92.8033 52.0756C92.8255 52.0533 92.8477 52.0311 92.8699 52.0078C92.8755 52.0011 92.881 51.9944 92.8866 51.9878C92.9099 51.9622 92.931 51.9344 92.9533 51.9078C92.9722 51.8844 92.9922 51.8633 93.0099 51.84C93.0155 51.8322 93.021 51.8244 93.0266 51.8167C93.051 51.7844 93.0733 51.7511 93.0955 51.7178C93.111 51.6944 93.1288 51.6733 93.1433 51.65C93.1477 51.6433 93.151 51.6356 93.1555 51.6289C93.1844 51.5822 93.2122 51.5344 93.2388 51.4856C93.2499 51.4656 93.2622 51.4478 93.2722 51.4278C93.2744 51.4233 93.2766 51.4178 93.2788 51.4133C93.2844 51.4022 93.2899 51.39 93.2955 51.3789C93.321 51.3278 93.3455 51.2756 93.3677 51.2222C93.3744 51.2056 93.3822 51.1889 93.3888 51.1722C93.3933 51.16 93.3999 51.1478 93.4044 51.1356C93.4244 51.0833 93.4433 51.0311 93.4599 50.9778C93.4622 50.9711 93.4644 50.9633 93.4666 50.9567C93.4855 50.8967 93.501 50.8356 93.5166 50.7744C93.521 50.7567 93.5255 50.7389 93.5288 50.72C93.5433 50.6511 93.5566 50.5822 93.5666 50.5111L95.0688 39.4878C95.0777 39.4189 95.0844 39.3511 95.0888 39.2844C95.0933 39.26 95.0922 39.2389 95.0933 39.2167Z" fill="#D0D5DD"/>
<path d="M91.2244 53.0344H88.6077C88.5277 53.0344 88.4544 52.9933 88.4122 52.9255L86.7355 50.2511C86.6911 50.18 86.6889 50.09 86.7289 50.0166C86.77 49.9433 86.8466 49.8978 86.9311 49.8978H89.5477C89.5989 49.8978 89.6544 49.8944 89.7178 49.8878C89.7278 49.8866 89.7366 49.8855 89.7466 49.8833L89.7711 49.88C89.81 49.8744 89.8477 49.8689 89.8866 49.8611C89.9077 49.8566 89.9278 49.8522 89.9478 49.8466C89.9844 49.8378 90.02 49.8278 90.0555 49.8166C90.08 49.8089 90.0977 49.8033 90.1155 49.7978C90.1766 49.7766 90.2244 49.7578 90.2677 49.7389C90.2689 49.7389 90.27 49.7378 90.27 49.7378C90.3177 49.7166 90.3644 49.6922 90.41 49.6666C90.4489 49.6455 90.4866 49.6222 90.5244 49.5978L90.5522 49.5811C90.5644 49.5733 90.5766 49.5655 90.5889 49.5578C90.6122 49.5422 90.6344 49.5244 90.6577 49.5078L90.7022 49.4744C90.7189 49.4622 90.7355 49.45 90.7511 49.4378C90.7666 49.4244 90.7822 49.4111 90.7977 49.3978L90.8389 49.3622C90.86 49.3444 90.8811 49.3255 90.9011 49.3066C90.9155 49.2922 90.9311 49.2766 90.9455 49.2611L90.9722 49.2333C90.9955 49.21 91.0177 49.1866 91.04 49.1622C91.0566 49.1433 91.0722 49.1244 91.0866 49.1055L91.1011 49.0878C91.1289 49.0544 91.1489 49.03 91.1678 49.0033C91.1866 48.9778 91.2044 48.9522 91.2222 48.9255L91.2444 48.8922C91.2589 48.8722 91.2733 48.8511 91.2866 48.83C91.3133 48.7866 91.3389 48.7433 91.3633 48.6989L91.3811 48.6678C91.3877 48.6566 91.3944 48.6455 91.4 48.6333L91.4155 48.6011C91.4389 48.5544 91.4611 48.5066 91.4811 48.4578L91.5 48.4122C91.5255 48.3478 91.5478 48.2889 91.5644 48.2344C91.5644 48.2322 91.5689 48.2178 91.57 48.2155C91.5878 48.1589 91.6022 48.1033 91.6155 48.0466L91.6266 47.9978C91.6422 47.9244 91.6533 47.8644 91.6611 47.8066L93.1633 36.7833C93.1711 36.7233 93.1778 36.6611 93.1811 36.5978C93.1811 36.5878 93.1822 36.5766 93.1822 36.5666V36.5378C93.1833 36.4966 93.1844 36.4566 93.1844 36.4166C93.1844 36.4011 93.1833 36.3866 93.1822 36.3711L93.1811 36.3489C93.1789 36.3122 93.1778 36.2778 93.1744 36.2433C93.1722 36.2244 93.17 36.2055 93.1666 36.1866L93.1644 36.1733C93.16 36.1389 93.1555 36.1055 93.1489 36.0722C93.1455 36.0555 93.1422 36.04 93.1389 36.0233C93.1311 35.9855 93.1211 35.9489 93.1111 35.9122L93.1 35.8711C93.0978 35.8622 93.0944 35.8533 93.0911 35.8444L93.0822 35.8189C93.0677 35.7744 93.0511 35.7311 93.0344 35.6889C93.0255 35.6678 93.0166 35.6478 93.0066 35.6278C92.9922 35.5966 92.9766 35.5655 92.96 35.5355L92.9522 35.5211C92.9378 35.4944 92.9233 35.4678 92.9077 35.4422C92.84 35.3344 92.8733 35.1911 92.9811 35.1233C93.09 35.0555 93.2322 35.0878 93.3 35.1966L94.9766 37.8711C94.9922 37.8955 95.0066 37.9211 95.0211 37.9466C95.0278 37.9589 95.0344 37.9711 95.04 37.9833C95.0644 38.0289 95.0833 38.0678 95.1022 38.1078C95.1122 38.1266 95.1189 38.14 95.1244 38.1533C95.1289 38.1622 95.1333 38.1744 95.1366 38.1866C95.1589 38.2389 95.1778 38.2922 95.1966 38.3478C95.2044 38.3678 95.21 38.3811 95.2144 38.3944C95.2155 38.3978 95.2189 38.4111 95.22 38.4144L95.2333 38.4644C95.2455 38.51 95.2566 38.5555 95.2666 38.6022C95.2711 38.6233 95.2755 38.6422 95.2789 38.6622L95.2811 38.6744C95.2833 38.6855 95.2855 38.6966 95.2878 38.7078C95.2911 38.7255 95.2933 38.7444 95.2955 38.7644L95.3011 38.8066C95.3044 38.8289 95.3066 38.8511 95.31 38.8744C95.3144 38.9155 95.3166 38.9589 95.3189 39.0011L95.32 39.0233C95.3211 39.0444 95.3222 39.0644 95.3233 39.0855C95.3244 39.1322 95.3233 39.18 95.3211 39.2289C95.3211 39.2289 95.3211 39.2289 95.3211 39.23V39.2522C95.3211 39.2689 95.3211 39.2855 95.32 39.3022C95.3155 39.3778 95.3089 39.4522 95.2989 39.5233L93.7966 50.5466C93.7877 50.6144 93.7744 50.6866 93.7555 50.7733C93.7511 50.7933 93.7466 50.8133 93.7422 50.8333C93.7266 50.8989 93.7089 50.9644 93.6889 51.03L93.6822 51.0544C93.6644 51.1111 93.6444 51.1678 93.6222 51.2244C93.6189 51.2344 93.6144 51.2433 93.6111 51.2522L93.5866 51.3122C93.56 51.3755 93.5333 51.4322 93.5055 51.4878L93.4789 51.5411C93.4711 51.5555 93.4622 51.5711 93.4533 51.5855L93.4433 51.6033C93.4144 51.6555 93.3844 51.7078 93.3533 51.7578C93.3489 51.7655 93.3444 51.7744 93.3389 51.7822C93.3289 51.7989 93.3166 51.8155 93.3044 51.8322L93.2789 51.8689C93.2578 51.9 93.2355 51.9311 93.2133 51.9611C93.2066 51.9711 93.2011 51.9789 93.1955 51.9866C93.1822 52.0044 93.1678 52.02 93.1544 52.0366L93.1222 52.0755C93.1033 52.0989 93.0833 52.1233 93.0633 52.1455C93.0566 52.1544 93.0511 52.1611 93.0455 52.1678C93.0289 52.1866 93.0122 52.2033 92.9944 52.22L92.9555 52.26C92.9366 52.2789 92.9189 52.2989 92.8989 52.3166C92.8944 52.3211 92.8889 52.3278 92.8822 52.3333C92.8644 52.35 92.8466 52.3655 92.8278 52.3811L92.7844 52.4189C92.7633 52.4378 92.7433 52.4555 92.7211 52.4733C92.7177 52.4766 92.7122 52.4811 92.7066 52.4855C92.6889 52.5 92.6722 52.5122 92.6544 52.5244L92.6122 52.5555C92.5844 52.5766 92.5566 52.5978 92.5277 52.6166C92.5233 52.62 92.5166 52.6255 92.5089 52.63C92.4955 52.6389 92.48 52.6478 92.4644 52.6566L92.4489 52.6655C92.4033 52.6944 92.3577 52.7222 92.31 52.7478C92.3 52.7544 92.2911 52.76 92.2811 52.7644C92.2322 52.79 92.1833 52.8133 92.1344 52.8355C92.1333 52.8355 92.1322 52.8366 92.1311 52.8366C92.0833 52.8578 92.0344 52.8778 91.9844 52.8966C91.9744 52.9 91.9633 52.9044 91.9522 52.9078C91.9222 52.9178 91.8989 52.9255 91.8755 52.9322C91.8255 52.9478 91.78 52.96 91.7344 52.9722C91.7089 52.9789 91.6833 52.9844 91.6566 52.99C91.6089 53 91.56 53.0078 91.51 53.0144L91.4911 53.0166C91.4744 53.0189 91.4578 53.0222 91.44 53.0233C91.3633 53.03 91.2922 53.0344 91.2244 53.0344ZM88.7366 52.5722H91.2244C91.2755 52.5722 91.3311 52.5689 91.3944 52.5622C91.4044 52.5611 91.4144 52.56 91.4233 52.5578L91.4478 52.5544C91.4866 52.5489 91.5244 52.5433 91.5633 52.5355C91.5844 52.5311 91.6044 52.5266 91.6244 52.5211C91.6611 52.5122 91.6966 52.5022 91.7333 52.4911C91.7566 52.4833 91.7755 52.4778 91.7933 52.4722L91.8189 52.4644C91.8666 52.4478 91.9055 52.4311 91.9455 52.4133C91.9466 52.4133 91.9478 52.4122 91.9478 52.4122C91.9866 52.3944 92.0266 52.3755 92.0644 52.3555C92.0711 52.3511 92.08 52.3455 92.0877 52.3411C92.1266 52.32 92.1644 52.2966 92.2022 52.2733C92.2133 52.2666 92.2244 52.26 92.2355 52.2533C92.2411 52.25 92.2478 52.2466 92.2533 52.2433C92.2555 52.2411 92.2611 52.2366 92.2666 52.2333C92.29 52.2178 92.3111 52.2011 92.3333 52.1844L92.3866 52.1455C92.3966 52.1378 92.4066 52.1311 92.4166 52.1233L92.4289 52.1122C92.4455 52.0989 92.46 52.0855 92.4755 52.0722L92.5277 52.0266C92.54 52.0166 92.5522 52.0055 92.5644 51.9944C92.5666 51.9922 92.5744 51.9833 92.5778 51.9811C92.5933 51.9666 92.6066 51.9522 92.6211 51.9378L92.6678 51.89C92.6789 51.8789 92.6911 51.8666 92.7011 51.8555C92.7066 51.8489 92.7111 51.8422 92.7166 51.8366C92.7322 51.8189 92.7477 51.8 92.7633 51.7811L92.8033 51.7333C92.8122 51.7233 92.8211 51.7122 92.83 51.7011C92.8344 51.6933 92.84 51.6866 92.8444 51.68C92.8633 51.6544 92.8811 51.6289 92.8989 51.6033L92.9322 51.5566C92.9389 51.5466 92.9466 51.5378 92.9533 51.5266C92.9566 51.52 92.9611 51.5133 92.9655 51.5066C92.9922 51.4644 93.0166 51.42 93.0422 51.3755C93.0489 51.3644 93.0555 51.3533 93.0611 51.3422C93.0655 51.3355 93.0689 51.3289 93.0722 51.3222L93.0944 51.2766C93.1177 51.2289 93.14 51.1811 93.1611 51.1322L93.1944 51.0533C93.2133 51.0055 93.23 50.9578 93.2455 50.9089L93.2522 50.8866C93.2689 50.8344 93.2833 50.7778 93.2966 50.7211C93.3011 50.7044 93.3044 50.6878 93.3078 50.6722C93.3233 50.5978 93.3344 50.5366 93.3422 50.4811L94.8444 39.4578C94.8522 39.3978 94.8589 39.3355 94.8622 39.2722C94.8622 39.2622 94.8622 39.2533 94.8633 39.2433L94.8644 39.2122C94.8655 39.1722 94.8666 39.1322 94.8666 39.0933C94.8666 39.0778 94.8655 39.0633 94.8644 39.05L94.8633 39.0233C94.8611 38.9889 94.86 38.9533 94.8566 38.9189C94.8544 38.9011 94.8522 38.8844 94.85 38.8678L94.8433 38.8155C94.8422 38.8044 94.8411 38.7933 94.8389 38.7822L94.8211 38.6955C94.8133 38.6589 94.8044 38.6222 94.7944 38.5855L94.7833 38.5444C94.7822 38.5422 94.78 38.5311 94.7789 38.5278C94.7722 38.5111 94.7678 38.5 94.7644 38.4889C94.75 38.4466 94.7344 38.4033 94.7166 38.3611C94.7122 38.3511 94.7089 38.3422 94.7055 38.3322C94.6977 38.3178 94.6933 38.3089 94.6889 38.3C94.6744 38.2678 94.6589 38.2378 94.6422 38.2078C94.6366 38.1978 94.6322 38.1889 94.6278 38.1789C94.6133 38.1533 94.6022 38.1333 94.59 38.1144L93.6478 36.6122C93.6478 36.6166 93.6478 36.62 93.6466 36.6244C93.6422 36.7 93.6355 36.7744 93.6255 36.8455L92.1233 47.8689C92.1144 47.9378 92.1 48.0122 92.0822 48.0955C92.0777 48.1144 92.0733 48.1344 92.0689 48.1533C92.0533 48.22 92.0355 48.2866 92.0155 48.3511L92.01 48.3711C91.9878 48.44 91.9633 48.5089 91.9322 48.5844L91.9133 48.6289C91.8855 48.6944 91.8589 48.7511 91.8322 48.8066L91.8133 48.8455C91.8044 48.8633 91.7944 48.8811 91.7833 48.9L91.77 48.9233C91.7411 48.9755 91.7122 49.0278 91.68 49.0778C91.6633 49.1044 91.6455 49.13 91.6278 49.1555L91.6066 49.1866C91.5844 49.2189 91.5633 49.25 91.54 49.2811C91.5166 49.3122 91.4922 49.3422 91.4678 49.3722L91.4478 49.3966C91.4289 49.4211 91.4089 49.4444 91.3877 49.4678C91.3622 49.4978 91.3344 49.5255 91.3066 49.5544L91.2822 49.58C91.2633 49.6 91.2444 49.62 91.2244 49.6389C91.1989 49.6633 91.1733 49.6866 91.1466 49.71L91.11 49.7433C91.0889 49.7622 91.0689 49.78 91.0466 49.7978C91.0255 49.8155 91.0033 49.8322 90.98 49.8489L90.94 49.8789C90.9111 49.9011 90.8822 49.9222 90.8522 49.9422C90.8344 49.9544 90.8155 49.9666 90.7966 49.9778L90.7744 49.9911C90.7289 50.02 90.6822 50.0478 90.6355 50.0744C90.5844 50.1022 90.5244 50.1344 90.4611 50.1622C90.4578 50.1633 90.4544 50.1655 90.4511 50.1666C90.3944 50.1911 90.3389 50.2133 90.2733 50.2366C90.25 50.2444 90.2278 50.2522 90.2044 50.2589C90.1533 50.2744 90.1077 50.2878 90.0622 50.2989C90.0366 50.3055 90.0111 50.3111 89.9844 50.3166C89.9355 50.3266 89.8866 50.3344 89.8377 50.3411L89.8189 50.3433C89.8022 50.3455 89.7855 50.3478 89.7689 50.35C89.69 50.3578 89.6189 50.3622 89.5511 50.3622H87.3522L88.7366 52.5722Z" fill="#F9FAFB"/>
<path d="M51.3733 60.9567L53.0499 63.6311H40.3233L38.6466 60.9567H51.3733Z" fill="#98A2B3"/>
<path d="M53.05 63.8622H40.3233C40.2433 63.8622 40.17 63.8211 40.1278 63.7533L38.4511 61.0789C38.4067 61.0077 38.4044 60.9177 38.4444 60.8444C38.4855 60.7711 38.5622 60.7255 38.6467 60.7255H51.3733C51.4533 60.7255 51.5267 60.7666 51.5689 60.8344L53.2455 63.5089C53.29 63.58 53.2922 63.67 53.2522 63.7433C53.2111 63.8166 53.1344 63.8622 53.05 63.8622ZM40.4511 63.4H52.6322L51.2455 61.1877H39.0644L40.4511 63.4Z" fill="#F9FAFB"/>
<path d="M88.6079 52.8033L86.9324 50.1288L80.6068 71.7544L76.8868 84.4722L76.2157 86.7655L77.8913 89.44L78.5624 87.1466L82.2801 74.4388L88.6079 52.8033Z" fill="#E4E7EC"/>
<path d="M77.9689 89.9989L75.9645 86.8L80.5623 71.0845L86.8545 49.57L88.8589 52.7689L88.83 52.8689L82.5023 74.5045L77.9689 89.9989ZM76.4656 86.7311L77.8134 88.8822L88.3567 52.8389L87.0089 50.6878L80.6511 72.4256L76.4656 86.7311Z" fill="#F9FAFB"/>
<path d="M80.5867 71.7855L76.8867 84.4722L76.2156 86.7655H62.9423L80.5867 71.7855Z" fill="#D0D5DD"/>
<path d="M76.2156 86.9967H62.9422C62.8456 86.9967 62.7589 86.9367 62.7256 86.8455C62.6923 86.7544 62.7189 86.6522 62.7934 86.59L80.4378 71.61C80.5156 71.5444 80.6278 71.5367 80.7134 71.5922C80.7989 71.6478 80.8378 71.7533 80.81 71.8511L77.11 84.5378L76.4389 86.8322C76.4078 86.9289 76.3178 86.9967 76.2156 86.9967ZM63.5711 86.5344H76.0411L76.6634 84.4067L80.1478 72.46L63.5711 86.5344Z" fill="#F9FAFB"/>
<path d="M41.8133 50.1288H86.9322L80.6011 71.7744L67.3245 71.7855L62.9422 86.7655H31.0967L33.2878 79.2755H46.0145L51.3733 60.9566H38.6467L41.8133 50.1288Z" fill="#F7F9FC"/>
<path d="M62.9422 86.9967H31.0967C31.0233 86.9967 30.9555 86.9622 30.9122 86.9044C30.8689 86.8467 30.8544 86.7711 30.8756 86.7011L33.0667 79.2111C33.0956 79.1122 33.1856 79.0444 33.2889 79.0444H45.8422L51.0656 61.1878H38.6467C38.5733 61.1878 38.5056 61.1533 38.4622 61.0955C38.4189 61.0378 38.4044 60.9622 38.4255 60.8922L41.5933 50.0644C41.6222 49.9655 41.7122 49.8978 41.8156 49.8978H86.9333C87.0067 49.8978 87.0744 49.9322 87.1178 49.99C87.1611 50.0478 87.1756 50.1233 87.1544 50.1933L80.8233 71.8389C80.7944 71.9378 80.7044 72.0055 80.6022 72.0055L67.4989 72.0167L63.1656 86.8311C63.1356 86.9289 63.0444 86.9967 62.9422 86.9967ZM31.4055 86.5344H62.7689L67.1022 71.72C67.1311 71.6211 67.2211 71.5533 67.3233 71.5533L80.4267 71.5422L86.6222 50.3589H41.9867L38.9544 60.7244H51.3733C51.4467 60.7244 51.5144 60.7589 51.5578 60.8167C51.6011 60.8744 51.6156 60.95 51.5944 61.02L46.2356 79.3389C46.2067 79.4378 46.1167 79.5055 46.0133 79.5055H33.4611L31.4055 86.5344Z" fill="#F9FAFB"/>
<path d="M53.0778 50.0233L53.0467 50.1289L52.9567 50.4355L49.1534 63.4366L49.0322 63.8489L45.23 76.85L45.1089 77.2633L42.3289 86.7655H41.9656L44.7456 77.2633L44.8667 76.8511L48.6689 63.85L48.79 63.4378L52.5934 50.4355L52.6822 50.1289L52.7134 50.0233H53.0778Z" fill="#F9FAFB"/>
<path d="M64.8945 50.0111L64.86 50.1289L64.7745 50.4233L60.9712 63.4244L60.8511 63.8367H60.85L57.0478 76.8389L56.9267 77.2511L54.1434 86.7656H53.7789L56.5634 77.2511L56.6834 76.8389L60.4867 63.8378L60.6067 63.4256L64.41 50.4233H64.4112L64.4967 50.1289L64.53 50.0111H64.8945Z" fill="#F9FAFB"/>
<path d="M76.7123 49.9989L76.6745 50.1289L76.5923 50.4111L72.7889 63.4122L72.6689 63.8245L68.8645 76.8267L68.7445 77.2389L65.9578 86.7656H65.5934L68.3812 77.2389L68.5012 76.8267L72.3045 63.8256L72.4256 63.4133L76.2278 50.4122L76.3112 50.1289L76.3489 49.9989H76.7123Z" fill="#F9FAFB"/>
<path d="M83.0501 63.4022L82.929 63.8144L72.669 63.8244L72.3045 63.8256L60.8512 63.8367H60.8501L60.4868 63.8378L49.0323 63.8489L48.669 63.85L37.7968 63.8611L37.9179 63.4489L48.7901 63.4378L49.1534 63.4367L60.6068 63.4256L60.9712 63.4244L72.4256 63.4133L72.789 63.4122L83.0501 63.4022Z" fill="#F9FAFB"/>
<path d="M79.1268 76.8156L79.0056 77.2278L68.7445 77.2389H68.3812L56.9268 77.2511H56.5634L45.109 77.2633H44.7456L33.8734 77.2744L33.9945 76.8622L44.8667 76.8511L45.2301 76.85L56.6834 76.8389H57.0479L68.5012 76.8267H68.8645L79.1268 76.8156Z" fill="#F9FAFB"/>
<path d="M76.2156 86.7656H62.9422H31.0967L32.7733 89.44H64.6189H77.8911L76.2156 86.7656Z" fill="#98A2B3"/>
<path d="M77.8912 89.6711H32.7734C32.6934 89.6711 32.6201 89.63 32.5778 89.5622L30.9012 86.8889C30.8567 86.8178 30.8545 86.7278 30.8945 86.6545C30.9356 86.5811 31.0123 86.5356 31.0967 86.5356H76.2145C76.2945 86.5356 76.3678 86.5767 76.4101 86.6445L78.0867 89.3189C78.1312 89.39 78.1334 89.48 78.0934 89.5534C78.0534 89.6256 77.9756 89.6711 77.8912 89.6711ZM32.9012 89.2089H77.4734L76.0867 86.9967H31.5145L32.9012 89.2089Z" fill="#F9FAFB"/>
<path d="M38.6468 60.9567H51.3734L46.0145 79.2756H33.2879H20.5457L25.9045 60.9567H38.6468ZM46.1168 66C46.3423 66 46.5523 65.7944 46.5868 65.5411C46.6212 65.2867 46.4679 65.0822 46.2423 65.0822H28.3501C28.1257 65.0822 27.9157 65.2878 27.8812 65.5411C27.8468 65.7944 28.0012 66 28.2245 66H46.1168ZM45.1412 69.3378C45.3668 69.3378 45.5768 69.1322 45.6112 68.8789C45.6457 68.6244 45.4923 68.42 45.2668 68.42H27.3745C27.1501 68.42 26.9401 68.6256 26.9057 68.8789C26.8712 69.1322 27.0257 69.3378 27.249 69.3378H45.1412ZM44.1645 72.6767C44.3901 72.6767 44.6001 72.4711 44.6345 72.2178C44.669 71.9644 44.5145 71.7589 44.2901 71.7589H32.4968C32.2712 71.7589 32.0612 71.9644 32.0268 72.2178C31.9923 72.4722 32.1457 72.6767 32.3712 72.6767H44.1645Z" fill="#D0D5DD"/>
<path d="M46.0145 79.5066H20.5456C20.4723 79.5066 20.4045 79.4722 20.3612 79.4144C20.3179 79.3566 20.3034 79.2811 20.3245 79.2111L25.6834 60.8922C25.7123 60.7933 25.8023 60.7255 25.9056 60.7255H51.3745C51.4479 60.7255 51.5156 60.76 51.559 60.8177C51.6023 60.8755 51.6167 60.9511 51.5956 61.0211L46.2367 79.34C46.2079 79.4389 46.1167 79.5066 46.0145 79.5066ZM20.8534 79.0444H45.8412L51.0645 61.1877H26.0779L20.8534 79.0444ZM44.1645 72.9077H32.3712C32.2045 72.9077 32.0523 72.8389 31.9445 72.7144C31.8245 72.5766 31.7712 72.3844 31.7979 72.1855C31.8479 71.8166 32.1545 71.5277 32.4967 71.5277H44.289C44.4556 71.5277 44.6079 71.5966 44.7167 71.7211C44.8367 71.8589 44.8901 72.0511 44.8634 72.2489C44.8123 72.6177 44.5056 72.9077 44.1645 72.9077ZM32.4967 71.99C32.4001 71.99 32.2767 72.0966 32.2556 72.2489C32.2467 72.3155 32.2601 72.3744 32.2923 72.4111C32.3123 72.4344 32.339 72.4455 32.3712 72.4455H44.1645C44.2612 72.4455 44.3845 72.3389 44.4056 72.1855C44.4145 72.12 44.4012 72.0611 44.369 72.0244C44.349 72.0011 44.3223 71.99 44.2901 71.99H32.4967ZM45.1412 69.5689H27.249C27.0823 69.5689 26.9312 69.5 26.8223 69.3755C26.7023 69.2377 26.649 69.0455 26.6756 68.8477C26.7256 68.4777 27.0323 68.1889 27.3734 68.1889H45.2645C45.4312 68.1889 45.5834 68.2577 45.6912 68.3822C45.8112 68.52 45.8645 68.7122 45.8379 68.9111C45.789 69.28 45.4823 69.5689 45.1412 69.5689ZM27.3745 68.6511C27.2779 68.6511 27.1556 68.7577 27.1345 68.9111C27.1256 68.9766 27.139 69.0355 27.1712 69.0722C27.1912 69.0955 27.2167 69.1066 27.249 69.1066H45.1401C45.2367 69.1066 45.3601 69 45.3812 68.8477C45.3901 68.7811 45.3767 68.7222 45.3445 68.6855C45.3245 68.6622 45.2979 68.6511 45.2656 68.6511H27.3745ZM46.1167 66.2311H28.2256C28.059 66.2311 27.9079 66.1622 27.799 66.0377C27.679 65.9 27.6256 65.7077 27.6523 65.51C27.7023 65.14 28.009 64.8511 28.3501 64.8511H46.2423C46.409 64.8511 46.5612 64.92 46.669 65.0444C46.789 65.1822 46.8423 65.3744 46.8156 65.5733C46.7656 65.9422 46.4579 66.2311 46.1167 66.2311ZM28.3501 65.3133C28.2534 65.3133 28.1312 65.42 28.1101 65.5733C28.1012 65.6389 28.1145 65.6977 28.1467 65.7344C28.1667 65.7577 28.1923 65.7689 28.2245 65.7689H46.1156C46.2123 65.7689 46.3356 65.6622 46.3567 65.51C46.3656 65.4433 46.3523 65.3844 46.3201 65.3477C46.3001 65.3244 46.2734 65.3133 46.2412 65.3133H28.3501Z" fill="#F9FAFB"/>
<path d="M46.0144 79.2755H33.2878H20.5455L22.2211 81.95H34.9644H47.6911L46.0144 79.2755Z" fill="#D0D5DD"/>
<path d="M47.6912 82.1811H22.2212C22.1412 82.1811 22.0678 82.14 22.0256 82.0722L20.3489 79.3978C20.3045 79.3267 20.3023 79.2366 20.3423 79.1633C20.3834 79.09 20.46 79.0444 20.5445 79.0444H46.0134C46.0934 79.0444 46.1667 79.0855 46.2089 79.1533L47.8856 81.8278C47.93 81.8989 47.9323 81.9889 47.8923 82.0622C47.8523 82.1355 47.7745 82.1811 47.6912 82.1811ZM22.3489 81.7189H47.2723L45.8856 79.5067H20.9623L22.3489 81.7189Z" fill="#F9FAFB"/>
<path d="M51.3734 60.9567L53.0501 63.6311L47.6912 81.95L46.0145 79.2756L51.3734 60.9567Z" fill="#D0D5DD"/>
<path d="M47.6911 82.1811C47.6123 82.1811 47.5378 82.1411 47.4956 82.0722L45.8189 79.3977C45.7834 79.3422 45.7745 79.2733 45.7934 79.21L51.1523 60.8911C51.1778 60.8033 51.2523 60.7399 51.3423 60.7266C51.4323 60.7144 51.5211 60.7555 51.57 60.8333L53.2467 63.5077C53.2823 63.5633 53.2911 63.6322 53.2723 63.6955L47.9134 82.0144C47.8878 82.1022 47.8134 82.1655 47.7234 82.1788C47.7123 82.1811 47.7011 82.1811 47.6911 82.1811ZM46.2656 79.2411L47.6134 81.3922L52.7989 63.6666L51.4511 61.5155L46.2656 79.2411Z" fill="#F9FAFB"/>
<path d="M80.5867 71.7855L62.9423 86.7655L67.3245 71.7855H80.5867Z" fill="#98A2B3"/>
<path d="M62.9422 86.9967C62.8989 86.9967 62.8545 86.9845 62.8167 86.9589C62.7311 86.9034 62.6922 86.7978 62.7211 86.7L67.1033 71.72C67.1322 71.6211 67.2222 71.5533 67.3256 71.5533H80.5878C80.6845 71.5533 80.7711 71.6133 80.8045 71.7045C80.8378 71.7956 80.8111 71.8978 80.7367 71.96L63.0922 86.94C63.0489 86.9789 62.9956 86.9967 62.9422 86.9967ZM67.4978 72.0167L63.38 86.09L79.9567 72.0167H67.4978Z" fill="#F9FAFB"/>
<path d="M91.6756 34.5167C92.7978 34.5167 93.5678 35.5444 93.3956 36.8122L91.8934 47.8356C91.7211 49.1022 90.67 50.13 89.5478 50.13H88.8978H86.9323H41.8134H38.1234C37 50.13 36.23 49.1022 36.4023 47.8356L37.9045 36.8122C38.0778 35.5444 39.1278 34.5167 40.2511 34.5167H47.5823L46.6134 41.6278C46.5267 42.2622 46.9111 42.7744 47.4734 42.7744H49.3589C49.92 42.7744 50.4456 42.2611 50.5311 41.6278L51.5 34.5167H80.4267L79.4578 41.6278C79.3711 42.2622 79.7567 42.7744 80.3178 42.7744H82.2034C82.7645 42.7744 83.29 42.2611 83.3767 41.6278L84.3456 34.5167H91.6756Z" fill="#98A2B3"/>
<path d="M89.5478 50.36H38.1234C37.5612 50.36 37.0512 50.13 36.6856 49.7111C36.2612 49.2245 36.0745 48.53 36.1734 47.8034L37.6756 36.78C37.8634 35.4045 39.0178 34.2856 40.2512 34.2856H47.5823C47.649 34.2856 47.7123 34.3145 47.7567 34.3645C47.8012 34.4145 47.8212 34.4811 47.8112 34.5478L46.8423 41.6589C46.8067 41.9234 46.8701 42.1711 47.0156 42.3378C47.1334 42.4723 47.2912 42.5434 47.4734 42.5434H49.359C49.8078 42.5434 50.2312 42.1189 50.3023 41.5967L51.2712 34.4856C51.2867 34.3711 51.3845 34.2856 51.5001 34.2856H80.4267C80.4934 34.2856 80.5567 34.3145 80.6012 34.3645C80.6445 34.4145 80.6645 34.4811 80.6556 34.5478L79.6867 41.6589C79.6512 41.9222 79.7145 42.17 79.8601 42.3378C79.9778 42.4723 80.1356 42.5434 80.3178 42.5434H82.2034C82.6456 42.5434 83.0778 42.11 83.1478 41.5967L84.1167 34.4856C84.1323 34.3711 84.2301 34.2856 84.3456 34.2856H91.6767C92.2378 34.2856 92.7478 34.5156 93.1134 34.9345C93.5378 35.4211 93.7245 36.1167 93.6256 36.8434L92.1234 47.8667C91.9345 49.2411 90.7801 50.36 89.5478 50.36ZM40.2512 34.7478C39.2412 34.7478 38.2912 35.6878 38.1334 36.8434L36.6312 47.8667C36.5501 48.46 36.6967 49.0223 37.0334 49.4078C37.3101 49.7245 37.6967 49.8989 38.1234 49.8989H89.5478C90.5578 49.8989 91.5067 48.96 91.6645 47.8045L93.1667 36.7811C93.2478 36.1867 93.1012 35.6245 92.7645 35.2389C92.489 34.9222 92.1023 34.7489 91.6756 34.7489H84.5467L83.6045 41.66C83.5012 42.4156 82.8856 43.0067 82.2023 43.0067H80.3167C80.0023 43.0067 79.7156 42.8778 79.5112 42.6422C79.2767 42.3745 79.1734 41.9934 79.2278 41.5967L80.1612 34.7478H51.7023L50.7601 41.6589C50.6567 42.4145 50.0412 43.0056 49.359 43.0056H47.4734C47.159 43.0056 46.8723 42.8767 46.6678 42.6422C46.4334 42.3745 46.3301 41.9934 46.3845 41.5967L47.3178 34.7478H40.2512Z" fill="#F9FAFB"/>
<path d="M44.2889 71.7589C44.5145 71.7589 44.6678 71.9645 44.6334 72.2178C44.5989 72.4722 44.3889 72.6767 44.1633 72.6767H32.3711C32.1456 72.6767 31.9922 72.4711 32.0267 72.2178C32.0611 71.9645 32.2711 71.7589 32.4967 71.7589H44.2889Z" fill="#98A2B3"/>
<path d="M44.1644 72.9078H32.3711C32.2044 72.9078 32.0522 72.8389 31.9444 72.7145C31.8244 72.5767 31.7711 72.3845 31.7977 72.1856C31.8477 71.8167 32.1544 71.5278 32.4966 71.5278H44.2889C44.4555 71.5278 44.6077 71.5967 44.7166 71.7212C44.8366 71.8589 44.89 72.0512 44.8633 72.2489C44.8122 72.6178 44.5055 72.9078 44.1644 72.9078ZM32.4966 71.9901C32.4 71.9901 32.2766 72.0967 32.2555 72.2489C32.2466 72.3156 32.26 72.3745 32.2922 72.4112C32.3122 72.4345 32.3389 72.4456 32.3711 72.4456H44.1644C44.2611 72.4456 44.3844 72.3389 44.4055 72.1856C44.4144 72.1201 44.4011 72.0612 44.3689 72.0245C44.3489 72.0012 44.3222 71.9901 44.29 71.9901H32.4966Z" fill="#98A2B3"/>
<path d="M46.2423 65.0822C46.4678 65.0822 46.6212 65.2877 46.5867 65.541C46.5523 65.7944 46.3423 65.9999 46.1167 65.9999H28.2256C28.0012 65.9999 27.8478 65.7944 27.8823 65.541C27.9167 65.2866 28.1267 65.0822 28.3512 65.0822H46.2423Z" fill="#98A2B3"/>
<path d="M46.1167 66.2311H28.2256C28.0589 66.2311 27.9078 66.1622 27.7989 66.0377C27.6789 65.9 27.6256 65.7077 27.6522 65.51C27.7022 65.14 28.0089 64.8511 28.35 64.8511H46.2411C46.4078 64.8511 46.56 64.92 46.6678 65.0444C46.7878 65.1822 46.8411 65.3744 46.8145 65.5733C46.7656 65.9422 46.4578 66.2311 46.1167 66.2311ZM28.35 65.3133C28.2533 65.3133 28.1311 65.42 28.11 65.5733C28.1011 65.6389 28.1145 65.6977 28.1467 65.7344C28.1667 65.7577 28.1922 65.7689 28.2245 65.7689H46.1156C46.2122 65.7689 46.3356 65.6622 46.3567 65.51C46.3656 65.4433 46.3522 65.3844 46.32 65.3477C46.3 65.3244 46.2734 65.3133 46.2411 65.3133H28.35Z" fill="#98A2B3"/>
<path d="M45.2656 68.42C45.4912 68.42 45.6445 68.6255 45.61 68.8789C45.5756 69.1322 45.3656 69.3378 45.14 69.3378H27.2489C27.0245 69.3378 26.8711 69.1322 26.9056 68.8789C26.94 68.6244 27.15 68.42 27.3745 68.42H45.2656Z" fill="#98A2B3"/>
<path d="M45.1411 69.5689H27.2489C27.0822 69.5689 26.9311 69.5 26.8222 69.3756C26.7022 69.2378 26.6489 69.0456 26.6756 68.8478C26.7256 68.4778 27.0322 68.1889 27.3733 68.1889H45.2644C45.4311 68.1889 45.5833 68.2578 45.6911 68.3822C45.8111 68.52 45.8644 68.7122 45.8378 68.9111C45.7889 69.28 45.4822 69.5689 45.1411 69.5689ZM27.3744 68.6511C27.2778 68.6511 27.1556 68.7578 27.1344 68.9111C27.1256 68.9767 27.1389 69.0356 27.1711 69.0722C27.1911 69.0956 27.2167 69.1067 27.2489 69.1067H45.14C45.2367 69.1067 45.36 69 45.3811 68.8478C45.39 68.7811 45.3767 68.7222 45.3444 68.6856C45.3244 68.6622 45.2978 68.6511 45.2656 68.6511H27.3744Z" fill="#98A2B3"/>
<path d="M95.0912 61.6533C96.0043 61.6533 96.7445 60.9131 96.7445 60C96.7445 59.0869 96.0043 58.3467 95.0912 58.3467C94.1781 58.3467 93.4379 59.0869 93.4379 60C93.4379 60.9131 94.1781 61.6533 95.0912 61.6533Z" fill="#F9FAFB"/>
<path d="M17.9511 76.8033C18.8642 76.8033 19.6044 76.0631 19.6044 75.15C19.6044 74.2369 18.8642 73.4966 17.9511 73.4966C17.038 73.4966 16.2977 74.2369 16.2977 75.15C16.2977 76.0631 17.038 76.8033 17.9511 76.8033Z" fill="#F9FAFB"/>
<path d="M18.7789 78.14C19.1004 78.14 19.3611 77.8794 19.3611 77.5578C19.3611 77.2363 19.1004 76.9756 18.7789 76.9756C18.4573 76.9756 18.1967 77.2363 18.1967 77.5578C18.1967 77.8794 18.4573 78.14 18.7789 78.14Z" fill="#F9FAFB"/>
<path d="M95.6878 33.2122C96.6009 33.2122 97.3411 32.472 97.3411 31.5589C97.3411 30.6458 96.6009 29.9056 95.6878 29.9056C94.7746 29.9056 94.0344 30.6458 94.0344 31.5589C94.0344 32.472 94.7746 33.2122 95.6878 33.2122Z" fill="#F9FAFB"/>
<path d="M93.1701 31.7644C93.4917 31.7644 93.7523 31.5038 93.7523 31.1822C93.7523 30.8606 93.4917 30.6 93.1701 30.6C92.8486 30.6 92.5879 30.8606 92.5879 31.1822C92.5879 31.5038 92.8486 31.7644 93.1701 31.7644Z" fill="#F9FAFB"/>
<path d="M32.1577 57.0856C33.7286 57.0856 35.0021 55.8121 35.0021 54.2411C35.0021 52.6702 33.7286 51.3967 32.1577 51.3967C30.5867 51.3967 29.3132 52.6702 29.3132 54.2411C29.3132 55.8121 30.5867 57.0856 32.1577 57.0856Z" fill="#E4E7EC"/>
<path d="M29.3144 52.8378C30.0624 52.8378 30.6688 52.2314 30.6688 51.4834C30.6688 50.7353 30.0624 50.1289 29.3144 50.1289C28.5664 50.1289 27.96 50.7353 27.96 51.4834C27.96 52.2314 28.5664 52.8378 29.3144 52.8378Z" fill="#F9FAFB"/>
</svg>
