<svg width="120" height="120" viewBox="0 0 120 120" fill="none" xmlns="http://www.w3.org/2000/svg">
<path d="M60 98.1578C82.6553 98.1578 101.021 90.953 101.021 82.0655C101.021 73.1781 82.6553 65.9733 60 65.9733C37.3447 65.9733 18.9789 73.1781 18.9789 82.0655C18.9789 90.953 37.3447 98.1578 60 98.1578Z" fill="#F9FAFB"/>
<path d="M45.4788 43.1034C45.7933 41.1323 47.7066 39.5289 49.751 39.5223L47.1133 46.3512C45.9344 45.7823 45.2499 44.5401 45.4788 43.1034Z" fill="#D0D5DD"/>
<path d="M47.1122 46.6012C47.0744 46.6012 47.0377 46.5934 47.0033 46.5767C45.6877 45.9412 44.9922 44.5623 45.2311 43.0645C45.5633 40.9812 47.5899 39.28 49.7488 39.2734C49.7488 39.2734 49.7488 39.2734 49.7499 39.2734C49.8322 39.2734 49.9088 39.3134 49.9555 39.3812C50.0022 39.4489 50.0122 39.5356 49.9833 39.6134L47.3455 46.4423C47.3199 46.5078 47.2688 46.5589 47.2044 46.5845C47.1744 46.5956 47.1433 46.6012 47.1122 46.6012ZM49.3788 39.7923C47.5988 39.9767 46.0022 41.41 45.7266 43.1423C45.5388 44.3223 46.0277 45.4134 46.9822 45.9956L49.3788 39.7923Z" fill="#F9FAFB"/>
<path d="M84.7522 41.2234L86.3389 37.1167H50.68L50.19 38.3867C51.8289 38.4656 53.1289 39.3389 53.7478 40.6167C53.9522 40.5645 54.1611 40.5367 54.3645 40.5367C54.9422 40.5367 55.4111 40.7589 55.68 41.1578C55.9511 41.5623 55.9822 42.1178 55.7633 42.6767C55.3378 43.7734 54.1089 44.6323 52.9667 44.6323C52.3889 44.6323 51.9222 44.4134 51.6545 44.0111C51.38 43.6078 51.35 43.0534 51.5678 42.4923C51.7711 41.9734 52.1522 41.5089 52.6189 41.1623C52.1133 40.1756 51.0667 39.5234 49.7511 39.5234L47.1133 46.3511L46.6733 47.4889L46.1078 48.9578C47.7433 49.0334 49.0422 49.9 49.6678 51.17C49.8633 51.1245 50.0622 51.0989 50.2556 51.0989C50.8333 51.0989 51.3 51.3178 51.57 51.72C51.8422 52.1245 51.8722 52.6778 51.6556 53.2389C51.2289 54.3356 50.0011 55.1934 48.8589 55.1934C48.2811 55.1934 47.8122 54.9745 47.5445 54.5745C47.2722 54.17 47.24 53.6145 47.4589 53.0534C47.6633 52.5267 48.0545 52.0545 48.5322 51.7056C48.2767 51.22 47.8889 50.8167 47.4022 50.5367C46.9433 50.2734 46.3989 50.1156 45.79 50.0967C45.7567 50.0956 45.7233 50.0956 45.6889 50.0956H45.6667L43.03 56.9189L42.59 58.0567L42.0222 59.5289C43.6611 59.6012 44.9645 60.4645 45.5911 61.7367C45.79 61.6878 45.9911 61.6612 46.1911 61.6612C46.7689 61.6612 47.2345 61.8823 47.5033 62.2823C47.7756 62.6867 47.8089 63.24 47.59 63.8012C47.1633 64.8978 45.9345 65.7567 44.7911 65.7567C44.2133 65.7567 43.7478 65.5356 43.4789 65.1356C43.2067 64.7311 43.1745 64.1756 43.3933 63.6167C43.5967 63.0934 43.9822 62.6245 44.4556 62.2778C43.9445 61.3067 42.9067 60.6678 41.5778 60.6689L38.8156 67.8212L38.5056 68.6234V68.6245L37.9356 70.0989C39.5711 70.1678 40.8745 71.0234 41.5067 72.2856C41.6922 72.2434 41.88 72.2212 42.0645 72.2212C42.6422 72.2212 43.1089 72.4423 43.3789 72.8423C43.6511 73.2467 43.6811 73.8 43.4622 74.3634C43.0367 75.4589 41.8078 76.3178 40.6667 76.3178C40.0889 76.3178 39.6222 76.0967 39.3522 75.6967C39.08 75.2923 39.05 74.7389 39.2667 74.1756C39.4767 73.6412 39.8767 73.1623 40.3633 72.8123C39.8467 71.8623 38.8178 71.2378 37.4945 71.24L34.8478 78.09L34.4222 79.1912L32.0967 85.21H67.7556L71.92 74.43H49.7556L62.6845 41.2245H84.7522V41.2234ZM60.8233 81.8234H43.1189L43.56 80.6812H61.2656L60.8233 81.8234ZM62.6911 76.9923L62.2478 78.1345H44.5445L44.9845 76.9923H62.6911Z" fill="#F7F9FC" stroke="#F9FAFB" stroke-width="4.05" stroke-miterlimit="10" stroke-linecap="round" stroke-linejoin="round"/>
<path d="M53.4534 43.1034C53.8167 43.1034 54.14 42.7912 54.1445 42.4456C54.15 42.0856 54.1111 41.7378 54.0311 41.4078C54.0978 41.3989 54.1634 41.3934 54.2278 41.3934C54.5311 41.3934 54.77 41.5 54.9011 41.6923C55.0378 41.8967 55.0478 42.1789 54.9256 42.49C54.6545 43.1856 53.82 43.7745 53.1034 43.7745C52.8011 43.7745 52.5622 43.6678 52.4311 43.4734C52.2934 43.2689 52.2856 42.9867 52.4056 42.6756C52.5045 42.4211 52.6789 42.1823 52.8945 41.98C52.9311 42.18 52.9489 42.3878 52.9456 42.6023C52.9423 42.8889 53.1556 43.1034 53.4534 43.1034Z" fill="#F7F9FC"/>
<path d="M53.1034 44.0256C52.7145 44.0256 52.4023 43.88 52.2245 43.6145C52.0412 43.3422 52.0223 42.9767 52.1734 42.5867C52.2823 42.3056 52.4734 42.0333 52.7256 41.7989C52.7923 41.7367 52.8878 41.7156 52.9745 41.7445C53.0612 41.7733 53.1256 41.8467 53.1423 41.9367C53.1823 42.1545 53.2012 42.38 53.1978 42.6078C53.1967 42.6778 53.2189 42.7389 53.2623 42.7822C53.3089 42.8289 53.3756 42.8545 53.4545 42.8545C53.6789 42.8545 53.8934 42.6545 53.8956 42.4433C53.9 42.1089 53.8645 41.7811 53.7889 41.4678C53.7723 41.3989 53.7856 41.3267 53.8256 41.2689C53.8656 41.2111 53.9278 41.1722 53.9978 41.1622C54.0756 41.1511 54.1545 41.1456 54.2289 41.1456C54.6178 41.1456 54.93 41.2911 55.1089 41.5545C55.2934 41.8311 55.3112 42.1956 55.1589 42.5833C54.8489 43.3789 53.9278 44.0256 53.1034 44.0256ZM52.6978 42.6389C52.6756 42.6811 52.6567 42.7245 52.64 42.7678C52.55 43 52.55 43.2022 52.64 43.3356C52.7223 43.4589 52.8878 43.5267 53.1045 43.5267C53.7178 43.5267 54.4612 43.0011 54.6945 42.4022C54.7856 42.17 54.7856 41.9689 54.6945 41.8333C54.6267 41.7333 54.5012 41.67 54.3367 41.6511C54.38 41.9122 54.4 42.18 54.3956 42.45C54.3889 42.9311 53.95 43.3545 53.4545 43.3545C53.2412 43.3545 53.0467 43.2756 52.9067 43.1334C52.7767 43.0022 52.7034 42.8289 52.6978 42.6389Z" fill="#F9FAFB"/>
<path d="M52.9666 44.8823C52.3022 44.8823 51.7622 44.6223 51.4455 44.1511C51.1266 43.68 51.0866 43.0423 51.3344 42.4022C51.5466 41.8589 51.95 41.3478 52.4689 40.9623C52.5122 40.93 52.5644 40.9134 52.6178 40.9134C52.6366 40.9134 52.6555 40.9156 52.6744 40.92C52.7455 40.9367 52.8066 40.9845 52.84 41.05C52.9822 41.3278 53.0833 41.6267 53.14 41.9389C53.1555 42.0223 53.1266 42.1089 53.0644 42.1667C52.8666 42.3511 52.72 42.56 52.6378 42.77C52.5478 43.0023 52.5478 43.2045 52.6378 43.3378C52.7211 43.4611 52.8855 43.5289 53.1022 43.5289C53.7155 43.5289 54.4589 43.0034 54.6922 42.4045C54.7833 42.1723 54.7833 41.9711 54.6922 41.8356C54.61 41.7145 54.4444 41.6467 54.2266 41.6467C54.1744 41.6467 54.12 41.6511 54.0644 41.6589C54.0522 41.66 54.0411 41.6611 54.03 41.6611C53.9155 41.6611 53.8144 41.5834 53.7866 41.47C53.7244 41.2123 53.6355 40.9634 53.5222 40.7289C53.4889 40.6611 53.4889 40.5823 53.5211 40.5145C53.5533 40.4467 53.6133 40.3956 53.6866 40.3778C53.9155 40.32 54.1433 40.2911 54.3644 40.2911C55.0278 40.2911 55.5689 40.5511 55.8867 41.0223C56.2055 41.4978 56.2444 42.1356 55.9966 42.7723C55.5355 43.9534 54.2044 44.8823 52.9666 44.8823Z" fill="#D0D5DD"/>
<path d="M54.3656 40.5367C54.9433 40.5367 55.4111 40.7578 55.68 41.1578C55.9511 41.5622 55.9833 42.1167 55.7644 42.6767C55.3378 43.7734 54.1089 44.6311 52.9678 44.6311C52.39 44.6311 51.9233 44.4111 51.6544 44.01C51.3811 43.6067 51.3511 43.0522 51.5689 42.4911C51.7711 41.9722 52.1522 41.5078 52.6189 41.1611C52.7489 41.4145 52.8422 41.6889 52.8955 41.9811C52.6789 42.1833 52.5056 42.4222 52.4067 42.6767C52.2867 42.9878 52.2944 43.27 52.4322 43.4745C52.5622 43.6689 52.8011 43.7756 53.1033 43.7756C53.82 43.7756 54.6555 43.1867 54.9255 42.4911C55.0467 42.18 55.0378 41.8978 54.9011 41.6933C54.77 41.5011 54.5322 41.3945 54.2278 41.3945C54.1633 41.3945 54.0978 41.3989 54.0311 41.4089C53.9644 41.1311 53.8689 40.8667 53.7478 40.6167C53.9533 40.5645 54.1611 40.5367 54.3656 40.5367ZM54.3656 40.0367C54.1244 40.0367 53.8767 40.0689 53.6278 40.1311C53.4822 40.1678 53.36 40.2678 53.2967 40.4045C53.2333 40.5411 53.2344 40.6989 53.3 40.8345C53.4056 41.0534 53.4889 41.2856 53.5467 41.5256C53.6011 41.7534 53.8044 41.9089 54.0322 41.9089C54.0556 41.9089 54.0789 41.9078 54.1022 41.9045C54.1456 41.8978 54.1889 41.8956 54.23 41.8956C54.3567 41.8956 54.4555 41.9267 54.4889 41.9756C54.52 42.0222 54.53 42.1367 54.4622 42.3111C54.2656 42.8167 53.6189 43.2767 53.1056 43.2767C52.98 43.2767 52.8822 43.2467 52.8489 43.1978C52.8178 43.1511 52.8055 43.0356 52.8744 42.8589C52.9422 42.6845 53.0689 42.5078 53.2389 42.3489C53.3633 42.2322 53.42 42.0611 53.3889 41.8934C53.3267 41.5567 53.2178 41.2356 53.0644 40.9356C52.9978 40.8045 52.8767 40.71 52.7333 40.6767C52.6956 40.6678 52.6578 40.6634 52.62 40.6634C52.5133 40.6634 52.4089 40.6978 52.3222 40.7622C51.7655 41.1756 51.3333 41.7256 51.1044 42.3122C50.8256 43.0311 50.8767 43.7534 51.2411 44.2934C51.6044 44.8356 52.2189 45.1345 52.9689 45.1345C54.3244 45.1345 55.7278 44.1567 56.2322 42.8611C56.5111 42.1478 56.4622 41.4256 56.0978 40.8822C55.7289 40.3356 55.1144 40.0367 54.3656 40.0367Z" fill="#F9FAFB"/>
<path d="M42.6967 16.4045L50.6811 37.1167L50.19 38.3867C50.1089 38.3834 50.0255 38.3811 49.9433 38.3811C47.2422 38.3811 44.71 40.4978 44.2944 43.1034C43.9778 45.09 44.9811 46.7911 46.6733 47.4878L46.1055 48.9556C46.0278 48.9523 45.95 48.95 45.8711 48.95C43.17 48.95 40.6367 51.0678 40.2222 53.6723C39.9055 55.6556 40.9044 57.3545 42.5911 58.0534L42.0222 59.5256C41.9489 59.5234 41.8744 59.52 41.7989 59.52C39.0978 59.52 36.5633 61.6378 36.1478 64.2434C35.8322 66.2211 36.8278 67.9178 38.5078 68.6189L37.9378 70.0945C37.8455 70.0911 37.7889 70.09 37.7333 70.09C35.1867 70.09 32.71 72.0134 32.1411 74.4811C31.6533 76.5934 32.6589 78.4411 34.4255 79.1856L32.1 85.2056L24.0444 64.52L42.6967 16.4045Z" fill="#98A2B3"/>
<path d="M32.0978 85.4589C31.9945 85.4589 31.9022 85.3956 31.8645 85.3L23.8089 64.6145C23.7867 64.5567 23.7867 64.4912 23.8089 64.4334L42.4633 16.3145C42.5011 16.2178 42.5933 16.1545 42.6967 16.1545C42.8 16.1545 42.8922 16.2178 42.93 16.3145L50.9145 37.0267C50.9367 37.0845 50.9367 37.1489 50.9145 37.2067L50.4233 38.4767C50.3845 38.5767 50.2867 38.6412 50.1778 38.6367C50.1011 38.6334 50.0211 38.6323 49.9433 38.6323C47.3611 38.6323 44.9378 40.6556 44.5411 43.1434C44.25 44.9656 45.1245 46.5812 46.7678 47.2578C46.8933 47.31 46.9545 47.4523 46.9056 47.5789L46.3378 49.0467C46.2989 49.1478 46.2 49.2111 46.0922 49.2067C46.0189 49.2034 45.9445 49.2023 45.87 49.2023C43.2878 49.2023 40.8645 51.2256 40.4678 53.7134C40.1778 55.5312 41.0478 57.1456 42.6856 57.8245C42.8111 57.8767 42.8722 58.0189 42.8233 58.1456L42.2545 59.6178C42.2156 59.7167 42.1189 59.78 42.0122 59.7778C41.9378 59.7756 41.8689 59.7734 41.7978 59.7734C39.2145 59.7734 36.7911 61.7978 36.3933 64.2867C36.1045 66.1 36.9711 67.7112 38.6022 68.3923C38.7267 68.4445 38.7878 68.5867 38.7389 68.7134L38.1689 70.1889C38.1311 70.2856 38.0389 70.3489 37.9356 70.3489C37.9322 70.3489 37.93 70.3489 37.9267 70.3489C37.8389 70.3456 37.7845 70.3445 37.7311 70.3445C35.2745 70.3445 32.9256 72.1878 32.3822 74.5412C31.94 76.4589 32.7989 78.2345 34.52 78.96C34.6445 79.0123 34.7045 79.1545 34.6556 79.28L32.33 85.3C32.2945 85.3945 32.2011 85.4589 32.0978 85.4589ZM24.3111 64.5234L32.0967 84.5178L34.1056 79.32C32.3011 78.4423 31.4167 76.5078 31.8967 74.4289C32.49 71.8578 35.0533 69.8445 37.7333 69.8445C37.7445 69.8445 37.7567 69.8445 37.7678 69.8445L38.1889 68.7534C36.4811 67.93 35.5878 66.1723 35.9011 64.2067C36.3345 61.4856 38.9811 59.2723 41.7989 59.2723C41.8167 59.2723 41.8345 59.2723 41.8522 59.2723L42.2722 58.1867C40.5589 57.3656 39.6611 55.6056 39.9756 53.6345C40.4089 50.9145 43.0545 48.7011 45.8722 48.7011C45.8945 48.7011 45.9156 48.7011 45.9378 48.7011L46.3556 47.62C44.6345 46.8012 43.7333 45.04 44.0489 43.0634C44.4822 40.3434 47.1278 38.1311 49.9445 38.1311C49.97 38.1311 49.9956 38.1311 50.0211 38.1311L50.4133 37.1156L42.6967 17.0967L24.3111 64.5234Z" fill="#F9FAFB"/>
<path d="M45.6667 50.0945L43.03 56.9178C41.8556 56.3456 41.1767 55.1078 41.4056 53.6734C41.7178 51.7134 43.6123 50.1167 45.6667 50.0945Z" fill="#D0D5DD"/>
<path d="M43.03 57.1678C42.9922 57.1678 42.9556 57.1589 42.92 57.1423C41.6111 56.5045 40.92 55.1278 41.1578 53.6334C41.4867 51.5667 43.5078 49.8678 45.6622 49.8445C45.6633 49.8445 45.6644 49.8445 45.6644 49.8445C45.7467 49.8445 45.8233 49.8845 45.87 49.9523C45.9178 50.02 45.9278 50.1078 45.8978 50.1845L43.2611 57.0078C43.2356 57.0734 43.1844 57.1245 43.1189 57.15C43.0922 57.1623 43.0611 57.1678 43.03 57.1678ZM45.2933 50.3678C43.5178 50.5645 41.9256 51.9967 41.6533 53.7123C41.4656 54.8889 41.9511 55.9778 42.9011 56.5611L45.2933 50.3678Z" fill="#F9FAFB"/>
<path d="M49.3812 53.6745C49.7434 53.6745 50.0678 53.3634 50.0723 53.0167C50.0778 52.6511 50.0367 52.2989 49.9556 51.9645C50.0112 51.9578 50.0656 51.9545 50.1189 51.9545C50.4212 51.9545 50.66 52.0611 50.7912 52.2556C50.9289 52.46 50.9378 52.7422 50.8167 53.0534C50.5456 53.7489 49.7112 54.3356 48.9945 54.3356C48.6912 54.3356 48.4523 54.2289 48.3212 54.0356C48.1845 53.8311 48.1745 53.5489 48.2967 53.2378C48.4 52.9722 48.5856 52.7222 48.8156 52.5145C48.8567 52.7267 48.8778 52.9467 48.8745 53.1745C48.87 53.4589 49.0823 53.6745 49.3812 53.6745Z" fill="#F7F9FC"/>
<path d="M48.9944 54.5856C48.6056 54.5856 48.2933 54.44 48.1144 54.1767C47.93 53.9011 47.9122 53.5356 48.0644 53.1478C48.1789 52.8556 48.38 52.5722 48.6489 52.33C48.7156 52.27 48.81 52.25 48.8956 52.2778C48.9811 52.3067 49.0444 52.3789 49.0622 52.4667C49.1078 52.6978 49.1289 52.9367 49.1256 53.1789C49.1244 53.2489 49.1467 53.3089 49.19 53.3522C49.2367 53.3989 49.3033 53.4245 49.3822 53.4245C49.6067 53.4245 49.8211 53.2245 49.8233 53.0133C49.8278 52.6745 49.7911 52.3422 49.7133 52.0245C49.6967 51.9545 49.71 51.8811 49.7511 51.8222C49.7922 51.7633 49.8556 51.7245 49.9267 51.7167C49.9911 51.7089 50.0567 51.7056 50.12 51.7056C50.5089 51.7056 50.8211 51.8522 50.9989 52.1167C51.1822 52.3889 51.2011 52.7545 51.05 53.1445C50.74 53.9389 49.8178 54.5856 48.9944 54.5856ZM48.6244 53.1333C48.5867 53.1978 48.5544 53.2633 48.5289 53.3289C48.4378 53.5611 48.4378 53.7622 48.5289 53.8967C48.6111 54.0178 48.7767 54.0856 48.9944 54.0856C49.6078 54.0856 50.3511 53.5611 50.5844 52.9622C50.6744 52.73 50.6744 52.5278 50.5844 52.3945C50.5211 52.3 50.4089 52.2378 50.2633 52.2145C50.3078 52.4767 50.3278 52.7467 50.3233 53.0189C50.3167 53.5011 49.8767 53.9233 49.3822 53.9233C49.1689 53.9233 48.9744 53.8445 48.8333 53.7022C48.6967 53.5633 48.6222 53.3745 48.6244 53.1711C48.6244 53.1589 48.6244 53.1467 48.6244 53.1333Z" fill="#F9FAFB"/>
<path d="M37.3321 64.2456C37.6455 62.2811 39.5477 60.6845 41.581 60.6656L38.8177 67.8178L38.9466 67.4834C37.7799 66.91 37.1044 65.6734 37.3321 64.2456Z" fill="#D0D5DD"/>
<path d="M38.8178 68.0678C38.7878 68.0678 38.7578 68.0623 38.7278 68.0512C38.5989 68.0012 38.5345 67.8567 38.5845 67.7278L38.6345 67.5989C37.4656 66.9211 36.8611 65.6145 37.0856 64.2056C37.4156 62.1345 39.4322 60.4345 41.5789 60.4156C41.58 60.4156 41.58 60.4156 41.5811 60.4156C41.6633 60.4156 41.74 60.4556 41.7867 60.5234C41.8333 60.5911 41.8445 60.6789 41.8145 60.7556L39.0511 67.9078C39.0122 68.0078 38.9178 68.0678 38.8178 68.0678ZM37.5789 64.2845C37.3922 65.4556 37.8745 66.5411 38.8167 67.1256L41.2078 60.9378C39.44 61.1334 37.8533 62.5656 37.5789 64.2845Z" fill="#F9FAFB"/>
<path d="M45.3078 64.2456C45.67 64.2456 45.9945 63.9334 45.9989 63.5867C46.0045 63.2189 45.9623 62.8634 45.88 62.5278C45.9389 62.5201 45.9978 62.5167 46.0556 62.5167C46.3589 62.5167 46.5967 62.6234 46.7278 62.8178C46.8656 63.0223 46.8734 63.3045 46.7534 63.6156C46.4823 64.3112 45.6478 64.8978 44.9312 64.8978C44.6289 64.8978 44.39 64.7912 44.2589 64.5978C44.1211 64.3934 44.1111 64.1089 44.2334 63.8001C44.3356 63.5389 44.5167 63.2923 44.7423 63.0867C44.7834 63.2989 44.8034 63.5189 44.8 63.7467C44.7956 64.0312 45.01 64.2456 45.3078 64.2456Z" fill="#F7F9FC"/>
<path d="M44.9311 65.1467C44.5434 65.1467 44.2311 65.0011 44.0523 64.7367C43.8667 64.4623 43.8478 64.0967 44 63.7078C44.1123 63.42 44.3111 63.14 44.5734 62.9C44.64 62.8389 44.7345 62.8189 44.82 62.8467C44.9056 62.8745 44.97 62.9478 44.9867 63.0356C45.0323 63.2656 45.0534 63.5045 45.05 63.7467C45.0489 63.8167 45.0711 63.8767 45.1145 63.9211C45.1611 63.9689 45.2278 63.9934 45.3078 63.9934C45.5323 63.9934 45.7467 63.7923 45.7489 63.58C45.7534 63.2389 45.7156 62.9045 45.6367 62.5845C45.62 62.5156 45.6334 62.4423 45.6734 62.3834C45.7134 62.3245 45.7778 62.2856 45.8478 62.2767C45.9167 62.2678 45.9867 62.2634 46.0545 62.2634C46.4434 62.2634 46.7556 62.4089 46.9334 62.6745C47.1178 62.9467 47.1356 63.3123 46.9845 63.7023C46.6767 64.5 45.7545 65.1467 44.9311 65.1467ZM44.5511 63.7134C44.5178 63.7723 44.49 63.8311 44.4667 63.89C44.3756 64.1211 44.3767 64.3234 44.4667 64.4578C44.5489 64.58 44.7145 64.6478 44.9311 64.6478C45.5445 64.6478 46.2878 64.1234 46.5211 63.5245C46.6111 63.2923 46.6111 63.09 46.5211 62.9567C46.4567 62.86 46.34 62.7978 46.1878 62.7756C46.2334 63.0423 46.2545 63.3145 46.25 63.59C46.2434 64.0723 45.8034 64.4956 45.3089 64.4956C45.0956 64.4956 44.9 64.4167 44.7589 64.2745C44.6211 64.1356 44.5478 63.9456 44.55 63.7423C44.55 63.7323 44.55 63.7223 44.5511 63.7134Z" fill="#F9FAFB"/>
<path d="M44.7944 66.0044C44.131 66.0044 43.591 65.7444 43.2733 65.2733C42.9544 64.7989 42.9133 64.1611 43.1622 63.5233C43.3755 62.9756 43.7822 62.46 44.3088 62.0733C44.3522 62.0411 44.4044 62.0244 44.4566 62.0244C44.4755 62.0244 44.4944 62.0267 44.5122 62.0311C44.5833 62.0478 44.6433 62.0933 44.6777 62.1589C44.8222 62.4333 44.9255 62.7289 44.9866 63.0378C45.0033 63.1233 44.9744 63.2111 44.9099 63.27C44.7033 63.4589 44.5499 63.6722 44.4655 63.89C44.3744 64.1211 44.3744 64.3233 44.4655 64.4578C44.5477 64.58 44.7133 64.6467 44.9299 64.6467C45.5433 64.6467 46.2866 64.1222 46.5199 63.5233C46.6099 63.2911 46.6099 63.0889 46.5199 62.9556C46.4377 62.8322 46.2722 62.7644 46.0555 62.7644C46.0088 62.7644 45.9611 62.7678 45.9111 62.7733C45.9011 62.7744 45.8899 62.7756 45.8799 62.7756C45.7666 62.7756 45.6655 62.6978 45.6377 62.5856C45.5744 62.3278 45.4833 62.0789 45.3677 61.8444C45.3344 61.7767 45.3333 61.6967 45.3655 61.6278C45.3977 61.5589 45.4588 61.5089 45.5322 61.49C45.7544 61.4356 45.9766 61.4078 46.1922 61.4078C46.8566 61.4078 47.3966 61.6678 47.7133 62.1389C48.0322 62.6122 48.0733 63.25 47.8244 63.8878C47.3633 65.0756 46.0322 66.0044 44.7944 66.0044Z" fill="#D0D5DD"/>
<path d="M46.1922 61.66C46.77 61.66 47.2367 61.88 47.5056 62.2811C47.7778 62.6856 47.81 63.2389 47.5911 63.8C47.1645 64.8967 45.9356 65.7545 44.7945 65.7545C44.2167 65.7545 43.75 65.5334 43.4811 65.1334C43.2089 64.7289 43.1767 64.1745 43.3956 63.6145C43.5989 63.0911 43.9856 62.6223 44.4578 62.2745C44.5889 62.5245 44.6856 62.7967 44.7422 63.0856C44.5167 63.2911 44.3356 63.5378 44.2334 63.7989C44.1122 64.1089 44.1211 64.3923 44.2589 64.5967C44.3889 64.79 44.6278 64.8967 44.9311 64.8967C45.6478 64.8967 46.4822 64.3089 46.7534 63.6145C46.8734 63.3034 46.8656 63.0211 46.7278 62.8167C46.5978 62.6223 46.36 62.5156 46.0567 62.5156C45.9989 62.5156 45.94 62.5189 45.8811 62.5267C45.8122 62.2489 45.7156 61.9845 45.5922 61.7345C45.7911 61.6856 45.9934 61.66 46.1922 61.66ZM46.1922 61.16C45.9567 61.16 45.7156 61.19 45.4722 61.2489C45.3245 61.2845 45.2022 61.3856 45.1378 61.5234C45.0734 61.6611 45.0756 61.82 45.1422 61.9556C45.25 62.1745 45.3345 62.4067 45.3934 62.6467C45.4489 62.8723 45.6511 63.0267 45.8778 63.0267C45.8989 63.0267 45.92 63.0256 45.9411 63.0223C45.98 63.0178 46.0178 63.0145 46.0534 63.0145C46.1789 63.0145 46.2767 63.0445 46.31 63.0934C46.3411 63.14 46.3534 63.2556 46.2845 63.4323C46.0889 63.9356 45.4422 64.3956 44.9289 64.3956C44.8056 64.3956 44.7045 64.3645 44.6711 64.3156C44.64 64.27 44.6278 64.1545 44.6967 63.98C44.7667 63.8 44.9022 63.6134 45.0767 63.4534C45.2056 63.3356 45.2634 63.1589 45.23 62.9878C45.1645 62.6545 45.0534 62.3356 44.8978 62.04C44.83 61.9111 44.7089 61.8178 44.5678 61.7856C44.5311 61.7767 44.4934 61.7734 44.4556 61.7734C44.35 61.7734 44.2456 61.8067 44.1589 61.8711C43.5945 62.2867 43.1567 62.8411 42.9267 63.4323C42.6478 64.1467 42.6978 64.8689 43.0634 65.4123C43.4289 65.9545 44.0434 66.2534 44.7922 66.2534C46.1478 66.2534 47.5511 65.2756 48.0556 63.98C48.3345 63.2645 48.2845 62.5434 47.9189 62C47.5567 61.4589 46.9422 61.16 46.1922 61.16Z" fill="#F9FAFB"/>
<path d="M86.3401 37.1167L88.7823 40.4467L87.1956 44.5534L84.7534 41.2234L86.3401 37.1167Z" fill="#D0D5DD"/>
<path d="M87.1955 44.8034C87.1166 44.8034 87.041 44.7656 86.9944 44.7011L84.5522 41.3711C84.5022 41.3023 84.4899 41.2123 84.521 41.1334L86.1077 37.0267C86.141 36.9411 86.2177 36.8811 86.3077 36.8689C86.3988 36.8567 86.4877 36.8956 86.5422 36.9689L88.9844 40.2989C89.0344 40.3678 89.0466 40.4578 89.0155 40.5367L87.4288 44.6434C87.3955 44.7289 87.3188 44.7889 87.2288 44.8011C87.2166 44.8023 87.2055 44.8034 87.1955 44.8034ZM85.0355 41.1856L87.1266 44.0367L88.4988 40.4834L86.4077 37.6323L85.0355 41.1856Z" fill="#F9FAFB"/>
<path d="M33.26 74.8156C33.5722 72.8556 35.4666 71.2611 37.4966 71.2378L34.85 78.0878L34.8644 78.05C33.7033 77.4733 33.0322 76.2411 33.26 74.8156Z" fill="#D0D5DD"/>
<path d="M34.8501 78.3378C34.8201 78.3378 34.7901 78.3323 34.7601 78.3212C34.7034 78.2989 34.6601 78.2589 34.6323 78.21C33.4179 77.5445 32.7845 76.2123 33.0134 74.7767C33.3423 72.7123 35.3523 71.0123 37.4945 70.9878C37.5756 70.9856 37.6556 71.0267 37.7034 71.0956C37.7512 71.1634 37.7612 71.2512 37.7312 71.3278L35.0845 78.1778C35.0445 78.2767 34.9501 78.3378 34.8501 78.3378ZM33.5067 74.8545C33.3179 76.04 33.7845 77.1023 34.7345 77.6912L37.1234 71.51C35.3601 71.71 33.7801 73.1412 33.5067 74.8545Z" fill="#F9FAFB"/>
<path d="M41.2357 74.8156C41.5979 74.8156 41.9212 74.5044 41.9268 74.1578C41.9323 73.7833 41.889 73.4233 41.8045 73.0822C41.8468 73.0789 41.8879 73.0767 41.929 73.0767C42.2323 73.0767 42.4712 73.1833 42.6023 73.3778C42.739 73.5811 42.749 73.8644 42.6268 74.1744C42.3557 74.8711 41.5223 75.4589 40.8057 75.4589C40.5023 75.4589 40.2634 75.3522 40.1323 75.1578C39.9957 74.9544 39.9857 74.6711 40.1079 74.3611C40.2168 74.0822 40.4145 73.8211 40.6601 73.6078C40.7079 73.8344 40.7323 74.0722 40.7279 74.3167C40.7234 74.6011 40.9368 74.8156 41.2357 74.8156Z" fill="#F7F9FC"/>
<path d="M40.8056 75.7078C40.4156 75.7078 40.1034 75.5611 39.9256 75.2967C39.7412 75.0233 39.7234 74.6578 39.8756 74.2689C39.9945 73.9622 40.2089 73.6678 40.4956 73.4189C40.5623 73.3611 40.6556 73.3422 40.7389 73.37C40.8234 73.3978 40.8856 73.4689 40.9045 73.5556C40.9567 73.8033 40.9823 74.0611 40.9778 74.32C40.9767 74.3889 40.9989 74.4489 41.0423 74.4922C41.0889 74.54 41.1556 74.5645 41.2356 74.5645C41.4589 74.5645 41.6734 74.3645 41.6767 74.1522C41.6812 73.8067 41.6434 73.4667 41.5612 73.1422C41.5434 73.0711 41.5578 72.9967 41.6 72.9367C41.6423 72.8767 41.7089 72.8389 41.7812 72.8322C41.83 72.8278 41.88 72.8256 41.9289 72.8256C42.3189 72.8256 42.6312 72.9722 42.8089 73.2367C42.9934 73.51 43.0112 73.8756 42.8589 74.2645C42.55 75.0611 41.6289 75.7078 40.8056 75.7078ZM40.4767 74.19C40.42 74.2767 40.3745 74.3645 40.34 74.4511C40.2489 74.6833 40.2489 74.8844 40.3389 75.0178C40.4212 75.1411 40.5867 75.2078 40.8045 75.2078C41.02 75.2078 41.2512 75.1433 41.47 75.0333C41.3945 75.0544 41.3145 75.0656 41.2345 75.0656C41.0212 75.0656 40.8256 74.9867 40.6845 74.8444C40.5478 74.7056 40.4734 74.5167 40.4756 74.3133C40.4778 74.2722 40.4778 74.2311 40.4767 74.19ZM42.1145 73.3456C42.16 73.6122 42.18 73.8845 42.1767 74.1611C42.1734 74.33 42.1178 74.4922 42.0256 74.63C42.1878 74.4656 42.3178 74.2789 42.3934 74.0833C42.4845 73.8511 42.4845 73.6511 42.3945 73.5167C42.3378 73.4322 42.2412 73.3733 42.1145 73.3456Z" fill="#F9FAFB"/>
<path d="M40.6689 76.5656C40.0044 76.5656 39.4644 76.3056 39.1466 75.8345C38.8277 75.3611 38.7877 74.7223 39.0366 74.0834C39.2555 73.5223 39.6755 72.9978 40.22 72.6067C40.2633 72.5756 40.3133 72.56 40.3655 72.56C40.3844 72.56 40.4033 72.5623 40.4211 72.5667C40.4911 72.5823 40.5511 72.6278 40.5844 72.6911C40.7311 72.96 40.8377 73.2511 40.9033 73.5556C40.9222 73.6445 40.8911 73.7367 40.8233 73.7967C40.6011 73.99 40.43 74.2223 40.34 74.4511C40.2489 74.6834 40.2489 74.8834 40.3389 75.0178C40.4211 75.1411 40.5866 75.2078 40.8044 75.2078C41.4177 75.2078 42.16 74.6823 42.3922 74.0834C42.4833 73.8511 42.4833 73.6511 42.3933 73.5167C42.3111 73.3934 42.1455 73.3267 41.9277 73.3267C41.8944 73.3267 41.86 73.3289 41.8255 73.3311C41.8177 73.3323 41.8111 73.3323 41.8033 73.3323C41.69 73.3323 41.5889 73.2556 41.5611 73.1434C41.4955 72.8834 41.4033 72.6323 41.2844 72.3967C41.25 72.3278 41.2489 72.2478 41.2822 72.1778C41.3144 72.1089 41.3777 72.0578 41.4522 72.0411C41.6589 71.9934 41.8655 71.97 42.0644 71.97C42.7289 71.97 43.2689 72.23 43.5866 72.7011C43.9055 73.1745 43.9455 73.8134 43.6966 74.4523C43.2355 75.6367 41.9055 76.5656 40.6689 76.5656Z" fill="#D0D5DD"/>
<path d="M42.0656 72.2189C42.6433 72.2189 43.1111 72.44 43.38 72.84C43.6522 73.2445 43.6833 73.7989 43.4645 74.36C43.0378 75.4567 41.8089 76.3145 40.6689 76.3145C40.09 76.3145 39.6233 76.0934 39.3545 75.6934C39.0822 75.2889 39.0511 74.7345 39.27 74.1734C39.4789 73.6378 39.8789 73.1589 40.3667 72.8089C40.5 73.0545 40.6 73.3223 40.66 73.6067C40.4156 73.8201 40.2167 74.0812 40.1078 74.36C39.9867 74.67 39.9956 74.9534 40.1322 75.1567C40.2622 75.3512 40.5011 75.4578 40.8056 75.4578C41.5222 75.4578 42.3556 74.87 42.6267 74.1734C42.7478 73.8634 42.7389 73.58 42.6022 73.3767C42.4722 73.1823 42.2333 73.0756 41.9289 73.0756C41.8878 73.0756 41.8467 73.0778 41.8045 73.0812C41.7345 72.8012 41.6345 72.5334 41.5089 72.2834C41.6945 72.2423 41.8811 72.2189 42.0656 72.2189ZM42.0656 71.7189C41.8478 71.7189 41.6233 71.7445 41.3978 71.7967C41.2478 71.8312 41.1222 71.9323 41.0567 72.0712C40.9911 72.21 40.9933 72.3712 41.0622 72.5089C41.1722 72.7278 41.2589 72.9623 41.32 73.2045C41.3767 73.4289 41.5778 73.5823 41.8045 73.5823C41.82 73.5823 41.8345 73.5812 41.85 73.58C41.8778 73.5778 41.9045 73.5767 41.9289 73.5767C42.0556 73.5767 42.1533 73.6067 42.1867 73.6556C42.2178 73.7023 42.23 73.8167 42.1611 73.9912C41.9645 74.4978 41.3178 74.9578 40.8056 74.9578C40.6789 74.9578 40.5811 74.9278 40.5478 74.8789C40.5167 74.8323 40.5045 74.7178 40.5733 74.5434C40.6489 74.35 40.7956 74.1523 40.9878 73.9856C41.1245 73.8667 41.1867 73.6823 41.1489 73.5045C41.0789 73.1767 40.9633 72.8634 40.8056 72.5723C40.7367 72.4467 40.6178 72.3556 40.4778 72.3234C40.4411 72.3145 40.4033 72.3112 40.3656 72.3112C40.2622 72.3112 40.16 72.3434 40.0745 72.4045C39.4911 72.8234 39.04 73.3878 38.8033 73.9934C38.5245 74.71 38.5733 75.4323 38.9389 75.9745C39.3045 76.5167 39.9189 76.8156 40.6689 76.8156C42.0233 76.8156 43.4256 75.8378 43.9311 74.5423C44.21 73.8256 44.1611 73.1034 43.7956 72.5612C43.4289 72.0178 42.8156 71.7189 42.0656 71.7189Z" fill="#F9FAFB"/>
<path d="M62.69 76.9933L62.2478 78.1356H44.5444L44.9844 76.9933H62.69Z" fill="#D0D5DD"/>
<path d="M62.2478 78.3856H44.5445C44.4622 78.3856 44.3845 78.3445 44.3378 78.2767C44.2911 78.2089 44.2811 78.1222 44.3111 78.0456L44.7522 76.9033C44.7889 76.8067 44.8822 76.7433 44.9856 76.7433H62.6911C62.7733 76.7433 62.8511 76.7845 62.8978 76.8522C62.9445 76.92 62.9545 77.0067 62.9245 77.0833L62.4822 78.2256C62.4445 78.3222 62.3511 78.3856 62.2478 78.3856ZM44.9089 77.8856H62.0767L62.3256 77.2433H45.1567L44.9089 77.8856Z" fill="#D0D5DD"/>
<path d="M61.2656 80.6822L60.8233 81.8244H43.1189L43.56 80.6822H61.2656Z" fill="#D0D5DD"/>
<path d="M60.8234 82.0745H43.1189C43.0367 82.0745 42.9589 82.0334 42.9123 81.9656C42.8656 81.8978 42.8556 81.8111 42.8856 81.7345L43.3267 80.5923C43.3634 80.4956 43.4567 80.4323 43.56 80.4323H61.2656C61.3478 80.4323 61.4256 80.4734 61.4723 80.5411C61.5189 80.6089 61.5289 80.6956 61.4989 80.7723L61.0567 81.9145C61.0189 82.0111 60.9267 82.0745 60.8234 82.0745ZM43.4834 81.5745H60.6511L60.9 80.9323H43.7311L43.4834 81.5745Z" fill="#D0D5DD"/>
<path d="M71.9223 74.4289L74.3645 77.7589L70.1989 88.5378L67.7567 85.2089L71.9223 74.4289Z" fill="#D0D5DD"/>
<path d="M70.1989 88.7878C70.12 88.7878 70.0445 88.75 69.9978 88.6856L67.5556 85.3567C67.5056 85.2878 67.4934 85.1978 67.5245 85.1189L71.69 74.3389C71.7234 74.2533 71.8 74.1933 71.89 74.1811C71.9811 74.1689 72.07 74.2078 72.1245 74.2811L74.5667 77.6111C74.6167 77.68 74.6289 77.77 74.5978 77.8489L70.4322 88.6289C70.3989 88.7144 70.3222 88.7744 70.2322 88.7867C70.2211 88.7878 70.21 88.7878 70.1989 88.7878ZM68.0389 85.1711L70.13 88.0222L74.0811 77.7956L71.99 74.9444L68.0389 85.1711Z" fill="#F9FAFB"/>
<path d="M67.7567 85.2089L70.1989 88.5378H34.54L32.0978 85.2089H67.7567Z" fill="#D0D5DD"/>
<path d="M70.1989 88.7878H34.54C34.46 88.7878 34.3855 88.75 34.3389 88.6856L31.8966 85.3556C31.8411 85.28 31.8322 85.1789 31.8755 85.0945C31.9177 85.01 32.0044 84.9578 32.0989 84.9578H67.7577C67.8377 84.9578 67.9122 84.9956 67.9589 85.06L70.4011 88.3901C70.4566 88.4656 70.4655 88.5667 70.4222 88.6512C70.3789 88.7356 70.2933 88.7878 70.1989 88.7878ZM34.6666 88.2878H69.7055L67.63 85.4578H32.5911L34.6666 88.2878Z" fill="#F9FAFB"/>
<path d="M93.5143 50.4667L95.9565 53.7967L86.6277 77.7589L84.1854 74.4289L93.5143 50.4667Z" fill="#D0D5DD"/>
<path d="M86.6278 78.0089C86.5489 78.0089 86.4733 77.9711 86.4267 77.9067L83.9844 74.5767C83.9333 74.5078 83.9222 74.4178 83.9533 74.3378L93.2822 50.3756C93.3156 50.29 93.3922 50.23 93.4822 50.2189C93.5722 50.2067 93.6622 50.2456 93.7167 50.3189L96.1589 53.6489C96.21 53.7178 96.2211 53.8078 96.19 53.8878L86.8611 77.85C86.8278 77.9356 86.7511 77.9956 86.6611 78.0067C86.6489 78.0078 86.6389 78.0089 86.6278 78.0089ZM84.4678 74.3911L86.56 77.2433L95.6745 53.8345L93.5822 50.9822L84.4678 74.3911Z" fill="#F9FAFB"/>
<path d="M84.1855 74.4289H71.9222H49.7555L52.1977 77.7589H74.3644H86.6277L84.1855 74.4289Z" fill="#D0D5DD"/>
<path d="M86.6278 78.0089H52.1978C52.1178 78.0089 52.0434 77.9711 51.9967 77.9067L49.5545 74.5767C49.4989 74.5011 49.49 74.4 49.5334 74.3156C49.5756 74.2311 49.6622 74.1789 49.7567 74.1789H84.1867C84.2667 74.1789 84.3411 74.2167 84.3878 74.2811L86.83 77.6111C86.8856 77.6867 86.8945 77.7878 86.8511 77.8722C86.8078 77.9556 86.7223 78.0089 86.6278 78.0089ZM52.3245 77.5089H86.1345L84.0589 74.6789H50.2489L52.3245 77.5089Z" fill="#F9FAFB"/>
<path d="M78.3445 45.2211C80.6767 45.2211 82.2645 46.3988 82.7323 48.1711C82.9134 48.8588 82.9256 49.6355 82.7478 50.4677C82.6745 50.8122 82.5678 51.1655 82.4278 51.5266C81.1745 54.7477 77.6367 57.4044 74.2567 57.7866C73.9967 57.7711 73.7323 57.7633 73.4623 57.7633C73.1923 57.7633 72.9212 57.7711 72.6501 57.7866C69.5667 57.4044 68.0978 54.7477 69.3523 51.5266C70.7056 48.0433 74.7323 45.2211 78.3445 45.2211Z" fill="#98A2B3"/>
<path d="M72.6467 58.0356C72.6367 58.0356 72.6267 58.0345 72.6156 58.0334C71.1111 57.8467 69.9133 57.1245 69.2411 55.9989C68.4978 54.7545 68.4533 53.1334 69.1145 51.4345C70.5022 47.87 74.6422 44.97 78.3422 44.97C80.7233 44.97 82.4533 46.1423 82.9711 48.1067C83.1667 48.85 83.1733 49.6611 82.9889 50.5189C82.9122 50.88 82.8 51.2489 82.6567 51.6167C81.3878 54.8789 77.7867 57.6378 74.28 58.0345C74.2656 58.0356 74.2511 58.0367 74.2367 58.0356C73.7256 58.0056 73.1922 58.0056 72.6578 58.0356C72.6567 58.0356 72.6522 58.0356 72.6467 58.0356ZM73.46 57.5123C73.7245 57.5123 73.99 57.52 74.2478 57.5345C77.5767 57.1489 80.9889 54.53 82.1933 51.4356C82.3267 51.0934 82.4311 50.75 82.5022 50.4145C82.6689 49.6334 82.6656 48.9 82.49 48.2345C82.0333 46.5045 80.4845 45.4711 78.3445 45.4711C74.8333 45.4711 70.9022 48.2289 69.5822 51.6178C68.9778 53.17 69.01 54.6356 69.6722 55.7445C70.26 56.7289 71.3189 57.3645 72.6567 57.5356C72.9256 57.52 73.1956 57.5123 73.46 57.5123Z" fill="#F9FAFB"/>
<path d="M85.4044 41.2233L93.5144 50.4667H82.7466C82.9244 49.6344 82.9122 48.8578 82.7311 48.17L85.4044 41.2233Z" fill="#D0D5DD"/>
<path d="M93.5145 50.7167H82.7467C82.6711 50.7167 82.6 50.6822 82.5522 50.6233C82.5044 50.5645 82.4867 50.4878 82.5022 50.4133C82.6689 49.6322 82.6656 48.8989 82.49 48.2333C82.4767 48.1822 82.48 48.1289 82.4989 48.08L85.1722 41.1322C85.2033 41.05 85.2756 40.9911 85.3622 40.9756C85.4478 40.96 85.5367 40.9911 85.5945 41.0567L93.7045 50.3C93.7689 50.3733 93.7845 50.4789 93.7445 50.5678C93.7022 50.66 93.6133 50.7167 93.5145 50.7167ZM83.0489 50.2167H92.9633L85.49 41.6989L82.9933 48.1856C83.1478 48.8189 83.1656 49.5 83.0489 50.2167Z" fill="#F9FAFB"/>
<path d="M73.46 57.7623C73.73 57.7623 73.9945 57.77 74.2545 57.7856C80.9789 58.1867 84.2856 63.6956 81.6633 70.4323H55.39C58.0133 63.6956 65.61 58.1856 72.6467 57.7856C72.9189 57.77 73.19 57.7623 73.46 57.7623Z" fill="#98A2B3"/>
<path d="M81.6634 70.6834H55.39C55.3078 70.6834 55.23 70.6423 55.1834 70.5745C55.1367 70.5067 55.1267 70.42 55.1567 70.3423C57.7945 63.5689 65.47 57.9434 72.6323 57.5367C73.1867 57.5056 73.7389 57.5056 74.2689 57.5367C77.4923 57.7289 80.0711 59.09 81.5323 61.3678C83.1078 63.8267 83.2378 67.0789 81.8956 70.5245C81.8589 70.62 81.7667 70.6834 81.6634 70.6834ZM55.76 70.1834H81.4911C82.7078 66.95 82.5745 63.9211 81.1111 61.6378C79.7389 59.4978 77.2989 58.2189 74.24 58.0356C73.7289 58.0056 73.1956 58.0056 72.6611 58.0356C65.8 58.4256 58.4534 63.7311 55.76 70.1834Z" fill="#F9FAFB"/>
<path d="M85.4044 41.2233L82.7311 48.1711C82.2633 46.3989 80.6755 45.2211 78.3433 45.2211C74.7322 45.2211 70.7044 48.0433 69.3488 51.5267C68.0944 54.7478 69.5633 57.4044 72.6466 57.7867C65.6099 58.1867 58.0133 63.6967 55.3899 70.4333H81.6633C84.2866 63.6967 80.9788 58.1878 74.2544 57.7867C77.6355 57.4044 81.1733 54.7478 82.4255 51.5267C82.5666 51.1655 82.6722 50.8122 82.7455 50.4678H93.5133L84.1844 74.43H71.9222H49.7555L62.6844 41.2244H84.7522H85.4044V41.2233Z" fill="#D0D5DD"/>
<path d="M84.1855 74.6789H49.7555C49.6733 74.6789 49.5955 74.6378 49.5488 74.57C49.5022 74.5022 49.4922 74.4155 49.5222 74.3378L62.4511 41.1322C62.4888 41.0367 62.5811 40.9733 62.6844 40.9733H85.4044C85.4866 40.9733 85.5644 41.0144 85.61 41.0822C85.6566 41.15 85.6666 41.2367 85.6377 41.3133L82.9644 48.2611C82.9255 48.3622 82.8233 48.4278 82.7177 48.4211C82.61 48.4155 82.5177 48.34 82.49 48.2355C82.0333 46.5044 80.4844 45.4722 78.3444 45.4722C74.8333 45.4722 70.9022 48.23 69.5822 51.6189C68.9777 53.1711 69.01 54.6367 69.6722 55.7455C70.2633 56.7355 71.33 57.3722 72.6777 57.54C72.8066 57.5555 72.9011 57.6667 72.8966 57.7967C72.8922 57.9255 72.79 58.0311 72.6611 58.0378C65.8 58.4278 58.4533 63.7333 55.76 70.1855H81.4911C82.7077 66.9522 82.5744 63.9233 81.1111 61.64C79.7389 59.5 77.2988 58.2211 74.24 58.0378C74.11 58.03 74.0088 57.9244 74.0044 57.7944C74 57.6644 74.0977 57.5544 74.2266 57.5389C77.5622 57.1622 80.9866 54.5389 82.1933 51.4367C82.3266 51.0944 82.4311 50.7511 82.5022 50.4155C82.5266 50.3 82.6288 50.2178 82.7466 50.2178H93.5144C93.5966 50.2178 93.6744 50.2589 93.7211 50.3267C93.7677 50.3944 93.7777 50.4811 93.7477 50.5589L84.4189 74.5211C84.3811 74.6155 84.2889 74.6789 84.1855 74.6789ZM50.1211 74.1789H84.0144L93.1489 50.7167H82.9455C82.8722 51.0144 82.7766 51.3155 82.6589 51.6167C81.5722 54.41 78.7755 56.8344 75.7933 57.7222C78.3044 58.1967 80.31 59.46 81.5322 61.3667C83.1077 63.8255 83.2377 67.0778 81.8955 70.5233C81.8577 70.6189 81.7655 70.6822 81.6622 70.6822H55.39C55.3077 70.6822 55.23 70.6411 55.1833 70.5733C55.1366 70.5055 55.1266 70.4189 55.1566 70.3411C57.6233 64.0067 64.4977 58.6755 71.2366 57.6789C70.3789 57.3267 69.6922 56.7533 69.2422 55.9989C68.4989 54.7544 68.4544 53.1333 69.1155 51.4344C70.5033 47.87 74.6433 44.97 78.3433 44.97C80.4444 44.97 82.0389 45.8833 82.7411 47.4478L85.04 41.4733H62.8555L50.1211 74.1789Z" fill="#F9FAFB"/>
<path d="M46.6754 47.7389C46.6432 47.7389 46.611 47.7322 46.5799 47.72C44.7132 46.9522 43.7188 45.1244 44.0477 43.0644C44.4821 40.3444 47.1266 38.1311 49.9432 38.1311C50.0421 38.1311 50.1288 38.1333 50.2055 38.1378C51.8843 38.2189 53.2932 39.1044 53.9732 40.5078C54.101 40.77 54.2032 41.0533 54.2743 41.3489C54.3599 41.7078 54.3999 42.0789 54.3932 42.4511C54.3888 42.9311 53.9499 43.3533 53.4532 43.3533C53.2399 43.3533 53.0455 43.2755 52.9055 43.1333C52.7677 42.9944 52.6932 42.8055 52.6955 42.6011C52.6988 42.4044 52.6821 42.2111 52.6488 42.0255C52.601 41.7644 52.5154 41.5122 52.3943 41.2755C51.9121 40.3355 50.9232 39.7733 49.7488 39.7733C47.8255 39.7789 46.0199 41.2911 45.7243 43.1433C45.521 44.4189 46.1088 45.59 47.2199 46.1267C47.3366 46.1833 47.391 46.32 47.3443 46.4411L46.9066 47.5789C46.8821 47.6422 46.8343 47.6922 46.7721 47.7189C46.7421 47.7322 46.7088 47.7389 46.6754 47.7389Z" fill="#D0D5DD"/>
<path d="M49.9433 38.3811C50.0267 38.3811 50.11 38.3822 50.1911 38.3878C51.83 38.4667 53.13 39.34 53.7489 40.6178C53.87 40.8667 53.9644 41.1311 54.0322 41.4089C54.1111 41.74 54.15 42.0867 54.1444 42.4478C54.1411 42.7933 53.8178 43.1044 53.4544 43.1044C53.1555 43.1044 52.9444 42.89 52.9467 42.6044C52.95 42.39 52.9322 42.1822 52.8967 41.9822C52.8433 41.6911 52.7489 41.4167 52.6189 41.1633C52.1133 40.1767 51.0555 39.5244 49.7511 39.5244C47.7078 39.5311 45.7944 41.1333 45.4789 43.1044C45.25 44.5411 45.9344 45.7833 47.1133 46.3522L46.6755 47.49C44.9811 46.7933 43.9778 45.0922 44.2944 43.1044C44.71 40.4989 47.2422 38.3811 49.9433 38.3811ZM49.9433 37.8811C48.52 37.8811 47.0989 38.4144 45.9411 39.3822C44.7811 40.3522 44.0211 41.6455 43.8 43.0244C43.6289 44.0978 43.7989 45.1344 44.2933 46.0233C44.7778 46.8944 45.5355 47.5611 46.4844 47.9511C46.5455 47.9767 46.61 47.9889 46.6744 47.9889C46.7422 47.9889 46.8089 47.9755 46.8722 47.9478C46.9955 47.8944 47.0922 47.7933 47.1411 47.6678L47.5789 46.53C47.6722 46.2867 47.5644 46.0133 47.33 45.9C46.3044 45.4056 45.7844 44.3633 45.9722 43.1811C46.25 41.4455 47.9455 40.0278 49.7522 40.0222C50.8289 40.0222 51.7344 40.5333 52.1733 41.3889C52.2822 41.6033 52.36 41.8333 52.4033 42.07C52.4344 42.2389 52.4478 42.4155 52.4455 42.5944C52.4422 42.8678 52.5422 43.12 52.7278 43.3067C52.9155 43.4967 53.1733 43.6011 53.4533 43.6011C54.0922 43.6011 54.6378 43.0733 54.6433 42.4489C54.65 42.06 54.6078 41.6689 54.5178 41.29C54.4411 40.9744 54.3333 40.6744 54.1967 40.3955C53.4767 38.91 51.9867 37.9711 50.2133 37.8855C50.1378 37.8833 50.0478 37.8811 49.9433 37.8811Z" fill="#F9FAFB"/>
<path d="M38.5077 68.8722C38.4754 68.8722 38.4421 68.8655 38.411 68.8533C36.5588 68.08 35.5732 66.2555 35.8999 64.2067C36.3332 61.4855 38.9799 59.2722 41.7977 59.2722C41.8766 59.2722 41.9532 59.2744 42.0299 59.2778C43.7132 59.3522 45.1277 60.23 45.8154 61.6244C45.9466 61.8911 46.051 62.1744 46.1232 62.4678C46.2121 62.8289 46.2554 63.2067 46.2499 63.5911C46.2432 64.0733 45.8032 64.4967 45.3088 64.4967C45.0954 64.4967 44.8999 64.4178 44.7588 64.2755C44.621 64.1367 44.5477 63.9467 44.5499 63.7433C44.5532 63.5367 44.5354 63.3322 44.4966 63.1355C44.4454 62.8733 44.3577 62.6244 44.2366 62.3933C43.7499 61.4689 42.771 60.9167 41.6166 60.9167L41.591 60.9178C39.6699 60.9344 37.8732 62.4467 37.5799 64.2867C37.3777 65.5533 37.9577 66.72 39.0577 67.2611C39.1743 67.3178 39.2277 67.4544 39.181 67.5755L38.7421 68.7144C38.7177 68.7778 38.6688 68.8278 38.6066 68.8544C38.5743 68.8655 38.541 68.8722 38.5077 68.8722Z" fill="#D0D5DD"/>
<path d="M41.7988 59.5222C41.8744 59.5222 41.9477 59.5244 42.0222 59.5278C43.6633 59.6 44.9655 60.4644 45.5922 61.7355C45.7155 61.9855 45.8122 62.25 45.8811 62.5278C45.9644 62.8644 46.0055 63.2189 45.9999 63.5867C45.9955 63.9333 45.6711 64.2455 45.3088 64.2455C45.0099 64.2455 44.7966 64.0311 44.8011 63.7455C44.8044 63.5178 44.7844 63.2978 44.7433 63.0855C44.6866 62.7967 44.5899 62.5244 44.4588 62.2744C43.9488 61.3044 42.9099 60.6644 41.6177 60.6644L41.5833 60.6655C39.5488 60.6833 37.6477 62.2811 37.3344 64.2455C37.1066 65.6733 37.7822 66.91 38.9488 67.4833L38.8199 67.8178L38.5099 68.6211C36.8288 67.9189 35.8344 66.2222 36.1499 64.2444C36.5633 61.64 39.0966 59.5222 41.7988 59.5222ZM41.7988 59.0222C38.8633 59.0222 36.1066 61.33 35.6544 64.1667C35.4844 65.2344 35.6522 66.2678 36.1422 67.1533C36.6222 68.0222 37.3733 68.6889 38.3155 69.0822C38.3766 69.1078 38.4433 69.1211 38.5077 69.1211C38.5744 69.1211 38.6411 69.1078 38.7044 69.0811C38.8288 69.0278 38.9255 68.9267 38.9744 68.8011L39.2844 67.9978L39.4133 67.6622C39.5066 67.4211 39.3999 67.1478 39.1677 67.0333C38.1533 66.5344 37.6388 65.4967 37.8266 64.3233C38.1022 62.5978 39.7888 61.1811 41.5866 61.1655C41.5911 61.1655 41.5966 61.1655 41.6011 61.1655L41.6266 61.1644C42.6822 61.1678 43.5755 61.6689 44.0166 62.5078C44.1266 62.7178 44.2066 62.9444 44.2533 63.1822C44.2888 63.3622 44.3055 63.5489 44.3022 63.7389C44.2977 64.01 44.3977 64.2622 44.5822 64.45C44.7699 64.6411 45.0288 64.7455 45.3099 64.7455C45.9477 64.7455 46.4933 64.2178 46.5011 63.5933C46.5066 63.1889 46.4622 62.7889 46.3677 62.4078C46.2911 62.0978 46.1822 61.7978 46.0422 61.5144C45.3122 60.0367 43.8188 59.1067 42.0455 59.0289C41.9622 59.0244 41.8822 59.0222 41.7988 59.0222Z" fill="#F9FAFB"/>
<path d="M34.4255 79.44C34.3922 79.44 34.36 79.4333 34.3289 79.42C32.3755 78.5967 31.3977 76.59 31.8966 74.4278C32.49 71.8567 35.0533 69.8433 37.7333 69.8433C37.7922 69.8433 37.8511 69.8444 37.91 69.8467L37.9466 69.8478C39.6233 69.9178 41.0389 70.7878 41.7333 72.1722C41.8677 72.4411 41.9733 72.7267 42.0477 73.0211C42.14 73.3867 42.1833 73.7711 42.1777 74.1611C42.1689 74.6433 41.73 75.0655 41.2366 75.0655C41.0233 75.0655 40.8277 74.9867 40.6866 74.8444C40.5489 74.7055 40.4755 74.5167 40.4777 74.3133C40.4811 74.09 40.46 73.87 40.4155 73.66C40.3611 73.4022 40.27 73.1567 40.1466 72.93C39.6555 72.0255 38.6822 71.4867 37.5433 71.4867C37.54 71.4867 37.5044 71.4878 37.4989 71.4878C35.59 71.51 33.7989 73.02 33.5066 74.8555C33.3022 76.1367 33.8655 77.2755 34.9755 77.8255C35.0911 77.8833 35.1444 78.0189 35.0977 78.1389L34.6589 79.2789C34.6344 79.3422 34.5855 79.3922 34.5233 79.4189C34.4922 79.4333 34.4589 79.44 34.4255 79.44Z" fill="#D0D5DD"/>
<path d="M37.7322 70.0933C37.7878 70.0933 37.8444 70.0944 37.9011 70.0967L37.9366 70.0978C39.5733 70.1667 40.8755 71.0222 41.5089 72.2844C41.6344 72.5355 41.7344 72.8022 41.8044 73.0822C41.89 73.4233 41.9322 73.7833 41.9266 74.1578C41.9211 74.5044 41.5978 74.8155 41.2355 74.8155C40.9366 74.8155 40.7233 74.6011 40.7278 74.3167C40.7311 74.0711 40.7078 73.8344 40.66 73.6078C40.6 73.3233 40.5 73.0567 40.3666 72.81C39.85 71.86 38.8211 71.2355 37.5444 71.2355C37.53 71.2355 37.5122 71.2355 37.4978 71.2367C35.4678 71.26 33.5733 72.8544 33.2611 74.8144C33.0333 76.24 33.7044 77.4722 34.8655 78.0478L34.8511 78.0855L34.4266 79.1878C32.6589 78.4422 31.6544 76.5944 32.1411 74.4822C32.71 72.0167 35.1855 70.0933 37.7322 70.0933ZM37.7322 69.5933C34.9411 69.5933 32.2711 71.6922 31.6522 74.3711C31.1244 76.6555 32.1611 78.7778 34.23 79.65C34.2922 79.6767 34.3578 79.6889 34.4244 79.6889C34.4911 79.6889 34.5578 79.6755 34.62 79.6489C34.7444 79.5955 34.8422 79.4944 34.8911 79.3689L35.3155 78.2667L35.33 78.2289C35.4233 77.9878 35.3166 77.7155 35.0855 77.6011C34.0766 77.1011 33.5655 76.0633 33.7522 74.8944C34.0266 73.1744 35.7078 71.7578 37.5011 71.7378C37.5111 71.7378 37.5211 71.7378 37.5311 71.7367H37.5422C38.5878 71.7367 39.4778 72.2278 39.9255 73.05C40.0378 73.2555 40.12 73.4789 40.1689 73.7122C40.21 73.9044 40.2289 74.1055 40.2255 74.31C40.2222 74.5811 40.3211 74.8333 40.5055 75.02C40.6933 75.2111 40.9522 75.3155 41.2333 75.3155C41.8678 75.3155 42.4133 74.7889 42.4244 74.1667C42.43 73.7533 42.3844 73.3489 42.2866 72.9611C42.2078 72.6478 42.0955 72.3455 41.9533 72.0611C41.2178 70.5933 39.7233 69.6733 37.9555 69.5989L37.9155 69.5978C37.8566 69.5944 37.7944 69.5933 37.7322 69.5933Z" fill="#F9FAFB"/>
<path d="M48.8577 55.4433C48.1921 55.4433 47.651 55.1833 47.3366 54.7111C47.0177 54.2378 46.9777 53.6 47.2266 52.9622C47.441 52.41 47.8532 51.8922 48.3843 51.5033C48.4277 51.4722 48.4788 51.4556 48.5321 51.4556C48.551 51.4556 48.5699 51.4578 48.5888 51.4622C48.6599 51.4789 48.7199 51.5256 48.7532 51.5889C48.8977 51.8622 49.001 52.1578 49.0621 52.4667C49.0788 52.5533 49.0499 52.6411 48.9843 52.7C48.7732 52.89 48.6166 53.1078 48.531 53.3278C48.4399 53.56 48.4399 53.7611 48.531 53.8967C48.6132 54.0178 48.7788 54.0856 48.9966 54.0856C49.6099 54.0856 50.3532 53.5611 50.5866 52.9622C50.6766 52.73 50.6766 52.5278 50.5866 52.3945C50.5043 52.2711 50.3388 52.2033 50.1221 52.2033C50.0788 52.2033 50.0332 52.2056 49.9877 52.2111C49.9777 52.2122 49.9677 52.2133 49.9588 52.2133C49.8455 52.2133 49.7432 52.1356 49.7166 52.0222C49.6532 51.7645 49.5632 51.5145 49.4477 51.2789C49.4143 51.2111 49.4132 51.1311 49.4455 51.0622C49.4777 50.9933 49.5399 50.9433 49.6132 50.9256C49.831 50.8733 50.0488 50.8467 50.2599 50.8467C50.9243 50.8467 51.4643 51.1067 51.781 51.5778C52.0988 52.05 52.1399 52.6878 51.8921 53.3267C51.4255 54.5145 50.0955 55.4433 48.8577 55.4433Z" fill="#D0D5DD"/>
<path d="M50.2556 51.0978C50.8333 51.0978 51.3 51.3178 51.5689 51.7189C51.8411 52.1233 51.8722 52.6778 51.6545 53.2378C51.2278 54.3344 49.9989 55.1922 48.8578 55.1922C48.28 55.1922 47.8122 54.9722 47.5444 54.5711C47.2722 54.1667 47.24 53.6122 47.4589 53.0522C47.6644 52.5256 48.0544 52.0533 48.5311 51.7044C48.6622 51.9544 48.7589 52.2256 48.8156 52.5144C48.5856 52.7222 48.4 52.9722 48.2967 53.2378C48.1756 53.5489 48.1845 53.8311 48.3211 54.0356C48.4522 54.2289 48.69 54.3356 48.9945 54.3356C49.7111 54.3356 50.5456 53.7478 50.8167 53.0533C50.9367 52.7422 50.9289 52.46 50.7911 52.2556C50.6611 52.0611 50.4222 51.9544 50.12 51.9544C50.0656 51.9544 50.0111 51.9578 49.9567 51.9644C49.8889 51.6856 49.7922 51.42 49.6689 51.17C49.8633 51.1233 50.06 51.0978 50.2556 51.0978ZM50.2556 50.5978C50.0256 50.5978 49.7878 50.6267 49.5511 50.6833C49.4033 50.7189 49.28 50.82 49.2156 50.9567C49.1511 51.0933 49.1522 51.2533 49.2189 51.39C49.3267 51.6089 49.4111 51.8422 49.47 52.0822C49.5256 52.3078 49.7278 52.4633 49.9556 52.4633C49.9756 52.4633 49.9945 52.4622 50.0145 52.46C50.05 52.4556 50.0856 52.4533 50.12 52.4533C50.2456 52.4533 50.3433 52.4833 50.3767 52.5322C50.4078 52.5789 50.42 52.6944 50.3511 52.8711C50.1556 53.3744 49.5089 53.8344 48.9956 53.8344C48.8689 53.8344 48.77 53.8033 48.7367 53.7544C48.7056 53.7078 48.6956 53.5933 48.7633 53.4189C48.8344 53.2367 48.9722 53.0467 49.1522 52.8844C49.2822 52.7667 49.3411 52.5889 49.3078 52.4167C49.2422 52.0844 49.13 51.7656 48.9756 51.4711C48.9078 51.3422 48.7878 51.25 48.6456 51.2167C48.6078 51.2078 48.57 51.2033 48.5322 51.2033C48.4267 51.2033 48.3233 51.2367 48.2378 51.3C47.6678 51.7156 47.2256 52.2733 46.9933 52.87C46.7144 53.5844 46.7645 54.3067 47.13 54.85C47.4922 55.3922 48.1067 55.6911 48.8589 55.6911C50.2145 55.6911 51.6178 54.7133 52.1222 53.4178C52.4 52.7011 52.35 51.98 51.9856 51.4378C51.62 50.8978 51.0056 50.5978 50.2556 50.5978Z" fill="#F9FAFB"/>
<path d="M42.5911 58.3055C42.5589 58.3055 42.5255 58.2989 42.4955 58.2866C40.6366 57.5155 39.6478 55.6889 39.9766 53.6344C40.41 50.9155 43.0544 48.7033 45.8722 48.7033C45.9522 48.7033 46.0344 48.7033 46.1166 48.7078C46.1178 48.7078 46.1189 48.7078 46.12 48.7078C47.7955 48.7855 49.2055 49.6644 49.8922 51.0589C49.8955 51.0644 49.8978 51.07 49.9 51.0766C50.0255 51.3344 50.1266 51.6122 50.1989 51.9033C50.2866 52.2589 50.3278 52.6344 50.3233 53.02C50.3166 53.5011 49.8766 53.9233 49.3811 53.9233C49.1678 53.9233 48.9733 53.8444 48.8322 53.7022C48.6955 53.5633 48.6222 53.3744 48.6255 53.1711C48.6289 52.9655 48.61 52.7611 48.57 52.5644C48.5189 52.3033 48.4311 52.0533 48.31 51.8211C48.0766 51.3766 47.7189 51.0078 47.2766 50.7533C46.8355 50.4978 46.3333 50.3611 45.7833 50.3466C45.7522 50.3455 45.7266 50.3455 45.6989 50.3455C45.6955 50.3455 45.6666 50.3455 45.6666 50.3455C43.7466 50.3666 41.9455 51.8766 41.6533 53.7133C41.4511 54.9844 42.0344 56.1544 43.14 56.6933C43.2566 56.75 43.3111 56.8866 43.2633 57.0078L42.8233 58.1455C42.7989 58.2089 42.75 58.2589 42.6889 58.2855C42.6578 58.2989 42.6244 58.3055 42.5911 58.3055Z" fill="#D0D5DD"/>
<path d="M45.8712 48.9522C45.95 48.9522 46.0289 48.9522 46.1056 48.9567H46.1067C47.7423 49.0322 49.0412 49.8989 49.6667 51.1689V51.17C49.79 51.4189 49.8856 51.6855 49.9545 51.9622C50.0367 52.2967 50.0756 52.6489 50.0712 53.0144C50.0667 53.3611 49.7423 53.6711 49.3789 53.6711C49.0812 53.6711 48.8689 53.4567 48.8734 53.1733C48.8767 52.9467 48.8556 52.7255 48.8134 52.5133C48.7567 52.2244 48.66 51.9544 48.53 51.7033C48.2745 51.2178 47.8867 50.8144 47.4 50.5344C46.94 50.2678 46.3934 50.1111 45.7878 50.0944C45.7545 50.0933 45.7212 50.0933 45.6867 50.0933H45.6667C43.6123 50.1155 41.7178 51.7111 41.4056 53.6722C41.1767 55.1055 41.8567 56.3444 43.03 56.9167L42.59 58.0544C40.9045 57.3544 39.9045 55.6566 40.2223 53.6722C40.6367 51.07 43.1689 48.9522 45.8712 48.9522ZM45.8712 48.4522C44.4478 48.4522 43.0256 48.9855 41.8678 49.9533C40.7078 50.9233 39.9478 52.2167 39.7278 53.5944C39.5567 54.6655 39.7256 55.7011 40.2178 56.5878C40.6989 57.4578 41.4534 58.1244 42.3989 58.5167C42.46 58.5422 42.5256 58.5544 42.59 58.5544C42.6567 58.5544 42.7245 58.5411 42.7867 58.5144C42.91 58.4611 43.0078 58.3611 43.0567 58.2344L43.4967 57.0966C43.59 56.8544 43.4834 56.5811 43.2489 56.4667C42.2289 55.97 41.7112 54.9289 41.8989 53.75C42.1734 52.0289 43.8656 50.6122 45.6712 50.5922H45.6878C45.6945 50.5922 45.7 50.5922 45.7067 50.5922C45.7267 50.5922 45.7467 50.5922 45.7656 50.5933C45.7689 50.5933 45.7723 50.5933 45.7756 50.5933C46.2834 50.6067 46.7456 50.7322 47.15 50.9655C47.5523 51.1967 47.8756 51.5322 48.0878 51.9344C48.1978 52.1444 48.2767 52.3711 48.3234 52.6078C48.36 52.7889 48.3767 52.9755 48.3734 53.1644C48.3689 53.4333 48.4678 53.6855 48.6523 53.8733C48.84 54.0644 49.0978 54.17 49.3789 54.17C50.0167 54.17 50.5623 53.6433 50.5712 53.02C50.5767 52.6133 50.5323 52.2167 50.44 51.8411C50.3634 51.5333 50.2578 51.2411 50.1256 50.97C50.1223 50.9611 50.1178 50.9533 50.1145 50.9455C49.3867 49.4678 47.8967 48.5367 46.1289 48.4544C46.1278 48.4544 46.1267 48.4544 46.1256 48.4544C46.0389 48.4522 45.9534 48.4522 45.8712 48.4522Z" fill="#F9FAFB"/>
<path d="M94.6789 39.4244L94.8978 40.7944C95.03 41.6155 95.5933 42.2589 96.4044 42.5122L97.7589 42.9344L96.27 43.3567C95.3789 43.61 94.61 44.2533 94.2156 45.0744L93.5589 46.4444L93.3389 45.0744C93.2067 44.2533 92.6433 43.61 91.8322 43.3567L90.4789 42.9344L91.9667 42.5122C92.8578 42.2589 93.6267 41.6155 94.0211 40.7944L94.6789 39.4244Z" fill="#98A2B3"/>
<path d="M32.5266 29.2067L32.6944 30.2567C32.7955 30.8867 33.2278 31.38 33.85 31.5733L34.8877 31.8967L33.7466 32.2222C33.0633 32.4156 32.4733 32.9089 32.1711 33.5378L31.6678 34.5889L31.5 33.5378C31.3989 32.9078 30.9666 32.4156 30.3444 32.2222L29.3066 31.8978L30.4478 31.5744C31.1311 31.3811 31.7211 30.8867 32.0233 30.2578L32.5266 29.2067Z" fill="#98A2B3"/>
<path d="M76.8056 65.7545L76.8989 66.34C76.9556 66.69 77.1967 66.9656 77.5433 67.0733L78.1211 67.2533L77.4856 67.4333C77.1044 67.5422 76.7756 67.8167 76.6067 68.1667L76.3256 68.7522L76.2322 68.1667C76.1756 67.8167 75.9356 67.5411 75.5889 67.4333L75.01 67.2533L75.6467 67.0733C76.0278 66.9645 76.3556 66.69 76.5244 66.34L76.8056 65.7545Z" fill="#F7F9FC"/>
<path d="M25.5034 75.4933L25.5967 76.0789C25.6534 76.43 25.8945 76.7045 26.2412 76.8122L26.819 76.9922L26.1834 77.1722C25.8023 77.2811 25.4734 77.5556 25.3045 77.9067L25.0245 78.4922L24.9312 77.9067C24.8756 77.5556 24.6345 77.2811 24.2879 77.1722L23.7101 76.9922L24.3456 76.8122C24.7267 76.7045 25.0556 76.43 25.2234 76.0789L25.5034 75.4933Z" fill="#98A2B3"/>
</svg>
