<svg width="89" height="80" viewBox="0 0 89 80" fill="none" xmlns="http://www.w3.org/2000/svg">
<path d="M44.5 79.1079C69.0432 79.1079 88.9395 71.3027 88.9395 61.6746C88.9395 52.0465 69.0432 44.2414 44.5 44.2414C19.9567 44.2414 0.0604248 52.0465 0.0604248 61.6746C0.0604248 71.3027 19.9567 79.1079 44.5 79.1079Z" fill="#F9FAFB"/>
<path d="M26.6924 9.51938L24.9398 20.5092H19.2439L20.9965 9.51938H26.6924Z" fill="#F7F9FC"/>
<path d="M55.0167 20.8763C55.3959 20.8763 55.6559 21.1724 55.5969 21.5383C55.5391 21.9043 55.1852 22.2016 54.8048 22.2016H32.5423C32.1632 22.2016 31.902 21.9043 31.961 21.5383C32.0187 21.1724 32.3738 20.8763 32.753 20.8763H55.0167Z" fill="#667185"/>
<path d="M56.8669 13.027H69.8368L67.8916 25.2241L67.1212 30.0557H32.989C31.7456 30.0557 30.7862 29.2517 30.649 28.0925L30.5431 27.1861C30.4058 26.0282 29.4465 25.2229 28.2031 25.2229H18.4928L19.0333 21.8308H26.1026L28.2777 8.19288H21.2084L22.4674 0.29538H58.6712L58.8614 0.512049L56.8669 13.027ZM55.5139 17.7611C55.8931 17.7611 56.247 17.465 56.3047 17.0991C56.3625 16.7332 56.1037 16.4358 55.7246 16.4358H33.4609C33.0817 16.4358 32.7266 16.7332 32.6676 17.0991C32.6098 17.465 32.8698 17.7611 33.249 17.7611H55.5139ZM54.8061 22.2004C55.1853 22.2004 55.5392 21.9031 55.5982 21.5371C55.6559 21.1712 55.3971 20.8751 55.018 20.8751H32.7531C32.3739 20.8751 32.0188 21.1712 31.961 21.5371C31.9033 21.9031 32.1633 22.2004 32.5424 22.2004H54.8061ZM54.0983 26.6372C54.4775 26.6372 54.8314 26.3411 54.8892 25.9752C54.947 25.6093 54.6882 25.312 54.309 25.312H32.0453C31.6661 25.312 31.311 25.6093 31.2521 25.9752C31.1943 26.3411 31.4543 26.6372 31.8334 26.6372H54.0983Z" fill="#F7F9FC"/>
<path d="M54.309 25.3132C54.6882 25.3132 54.947 25.6105 54.8892 25.9764C54.8315 26.3423 54.4776 26.6384 54.0984 26.6384H31.8347C31.4555 26.6384 31.1943 26.3423 31.2533 25.9764C31.3111 25.6105 31.6662 25.3132 32.0465 25.3132H54.309Z" fill="#667185"/>
<path d="M54.309 25.3132C54.6882 25.3132 54.947 25.6105 54.8892 25.9764C54.8315 26.3423 54.4776 26.6384 54.0984 26.6384H31.8347C31.4555 26.6384 31.1943 26.3423 31.2533 25.9764C31.3111 25.6105 31.6662 25.3132 32.0465 25.3132H54.309Z" fill="#667185"/>
<path d="M78.755 30.453C78.7538 30.4157 78.7502 30.3783 78.7466 30.341C78.7442 30.3194 78.743 30.2965 78.7406 30.2748C78.7358 30.2339 78.7285 30.193 78.7213 30.1521C78.7189 30.1376 78.7177 30.1232 78.7141 30.1087C78.7141 30.1063 78.7129 30.1039 78.7117 30.1003C78.7033 30.057 78.6924 30.0136 78.6816 29.9715C78.6792 29.9607 78.6768 29.9486 78.6732 29.9378C78.6587 29.8848 78.6419 29.8319 78.6226 29.7801C78.6226 29.7789 78.6214 29.7777 78.6214 29.7765C78.6202 29.7741 78.619 29.7717 78.6178 29.7681C78.5889 29.6898 78.5564 29.6152 78.5191 29.5418C78.5155 29.5358 78.5143 29.5285 78.5107 29.5225C78.5095 29.5189 78.5071 29.5165 78.5046 29.5129C78.4709 29.4491 78.4348 29.3865 78.3951 29.3263C78.3915 29.3203 78.3879 29.3143 78.3843 29.3083C78.3662 29.2818 78.3482 29.2553 78.3301 29.23L76.0659 26.1425C76.0888 26.1738 76.1105 26.2063 76.1309 26.2388C76.1707 26.299 76.2068 26.3616 76.2405 26.4254C76.2453 26.435 76.2501 26.4446 76.2549 26.4543C76.291 26.5277 76.3247 26.6035 76.3536 26.6806C76.3548 26.6842 76.3572 26.6878 76.3584 26.6926C76.3765 26.7444 76.3934 26.7973 76.409 26.8503C76.4126 26.8611 76.4138 26.8732 76.4174 26.884C76.4283 26.9261 76.4391 26.9695 76.4475 27.0128C76.4511 27.0296 76.4535 27.0465 76.4559 27.0633C76.4632 27.1043 76.4692 27.144 76.4752 27.1861C76.4776 27.2078 76.4788 27.2307 76.4812 27.2523C76.4848 27.2896 76.4872 27.327 76.4896 27.3643C76.4909 27.3883 76.4909 27.4124 76.4909 27.4365C76.4909 27.4726 76.4909 27.5099 76.4896 27.546C76.4884 27.5701 76.4884 27.5954 76.486 27.6207C76.4836 27.658 76.48 27.6953 76.4764 27.7338C76.474 27.7579 76.4716 27.782 76.468 27.8072C76.462 27.8482 76.4559 27.8879 76.4475 27.9288C76.4439 27.9505 76.4403 27.9721 76.4355 27.9938C76.4246 28.0468 76.4114 28.0997 76.397 28.1527C76.3946 28.1623 76.3921 28.172 76.3897 28.1828C76.3717 28.2454 76.3512 28.3092 76.3283 28.3718C76.3211 28.391 76.3127 28.4103 76.3055 28.4296C76.2886 28.4741 76.2706 28.5186 76.2513 28.562C76.2284 28.6125 76.2056 28.6631 76.1803 28.7148L59.9363 60.7622L59.8545 60.6515C59.8256 60.7177 59.7943 60.7815 59.7606 60.8453C59.7582 60.8501 59.7558 60.8537 59.7546 60.8585C59.7221 60.9199 59.6872 60.9789 59.651 61.0379C59.6017 61.1173 59.5499 61.1932 59.4946 61.2678C59.4789 61.2895 59.4621 61.3087 59.4464 61.3292C59.4091 61.3761 59.3718 61.4231 59.3321 61.4688C59.3116 61.4929 59.2899 61.5158 59.2683 61.5386C59.2322 61.5771 59.1948 61.6157 59.1563 61.653C59.1335 61.6746 59.1118 61.6975 59.0889 61.718C59.048 61.7553 59.0059 61.7914 58.9637 61.8275C58.9421 61.8456 58.9216 61.8636 58.8999 61.8817C58.8349 61.9346 58.7675 61.9852 58.6977 62.0321C58.6255 62.0815 58.5509 62.1272 58.475 62.1718C58.4546 62.1838 58.4329 62.1946 58.4112 62.2067C58.3462 62.2428 58.28 62.2765 58.2126 62.3078C58.1861 62.321 58.1584 62.3331 58.132 62.3451C58.1067 62.3559 58.0814 62.3668 58.0561 62.3764C58.0152 62.3933 57.9743 62.4089 57.9334 62.4233C57.9069 62.433 57.8816 62.4414 57.8551 62.451C57.8142 62.4643 57.7733 62.4775 57.7323 62.4883C57.7034 62.4968 57.6758 62.5052 57.6469 62.5124C57.6047 62.5233 57.5614 62.5329 57.5181 62.5425C57.4904 62.5485 57.4627 62.5546 57.4362 62.5606C57.3893 62.569 57.3411 62.5762 57.293 62.5822C57.2701 62.5858 57.246 62.5895 57.2232 62.5919C57.1522 62.6003 57.0799 62.6063 57.0089 62.6087L59.2731 65.6962C59.2767 65.6962 59.2803 65.695 59.2839 65.695L59.2851 65.6962C59.2923 65.6962 59.2996 65.6962 59.308 65.6962C59.3417 65.6962 59.3742 65.695 59.4079 65.6938C59.4223 65.6926 59.4368 65.6902 59.4512 65.6902C59.5235 65.6866 59.5957 65.6794 59.6667 65.6697C59.6884 65.6673 59.7088 65.6649 59.7305 65.6625C59.822 65.6493 59.9122 65.6312 60.0025 65.6083C60.0242 65.6035 60.0447 65.5963 60.0651 65.5915C60.1121 65.5783 60.1602 65.5674 60.2072 65.5518C60.2324 65.5433 60.2577 65.5337 60.283 65.5253C60.3022 65.5193 60.3203 65.512 60.3396 65.506C60.4178 65.4771 60.4948 65.4471 60.5707 65.4134C60.5755 65.4109 60.5803 65.4073 60.5863 65.4061C60.5911 65.4037 60.5972 65.4025 60.6032 65.3989C60.6032 65.3989 60.6032 65.3977 60.602 65.3977C60.602 65.3977 60.602 65.3989 60.6032 65.3989C60.6874 65.3604 60.7693 65.317 60.8499 65.2713C60.8523 65.2701 60.8535 65.2689 60.8559 65.2677C60.88 65.2545 60.9017 65.2388 60.9246 65.2244C60.9787 65.1919 61.0329 65.1594 61.0859 65.1233C61.0907 65.1208 61.0943 65.1184 61.0991 65.1148C61.1316 65.0932 61.1617 65.0679 61.193 65.0438C61.2303 65.0161 61.2676 64.9909 61.3025 64.962C61.3073 64.9584 61.311 64.9559 61.3158 64.9523C61.3495 64.9258 61.3796 64.8958 61.4121 64.8681C61.4397 64.844 61.4686 64.8211 61.4951 64.7958C61.5011 64.7898 61.5072 64.785 61.5132 64.779C61.5144 64.7778 61.5144 64.7778 61.5156 64.7766C61.5168 64.7754 61.5168 64.7754 61.518 64.7742C61.5252 64.7682 61.5324 64.7609 61.5384 64.7549C61.5541 64.7405 61.5661 64.7236 61.5818 64.7092C61.6227 64.6683 61.6648 64.6273 61.7034 64.584C61.7142 64.572 61.7238 64.5587 61.7347 64.5467C61.7431 64.5371 61.7539 64.5274 61.7623 64.5178C61.7708 64.5082 61.7792 64.4973 61.7876 64.4877C61.8153 64.454 61.8418 64.4203 61.8683 64.3854C61.8731 64.3794 61.8791 64.3733 61.8839 64.3661C61.8851 64.3637 61.8863 64.3613 61.8887 64.3589C61.9441 64.2855 61.9959 64.2084 62.0452 64.1302C62.05 64.1218 62.056 64.1145 62.0609 64.1073C62.0657 64.1001 62.0693 64.0917 62.0741 64.0845C62.1126 64.0207 62.1487 63.9569 62.1824 63.8895L78.4505 31.7987C78.4721 31.7554 78.4938 31.7108 78.5131 31.6675C78.5167 31.6603 78.5191 31.6531 78.5215 31.6471C78.5408 31.6025 78.5588 31.558 78.5757 31.5146C78.5829 31.4954 78.5913 31.4761 78.5985 31.4569C78.6214 31.3943 78.6419 31.3305 78.6599 31.2679C78.6623 31.2583 78.6647 31.2486 78.6671 31.2378C78.6816 31.1848 78.6948 31.1319 78.7057 31.0789C78.7105 31.0572 78.7141 31.0356 78.7177 31.0139C78.7249 30.973 78.7321 30.9321 78.7382 30.8923C78.7418 30.8683 78.7442 30.8442 78.7466 30.8189C78.7502 30.7816 78.7538 30.7431 78.7562 30.7058C78.7574 30.6805 78.7586 30.6564 78.7598 30.6311C78.761 30.5938 78.761 30.5577 78.761 30.5216C78.7562 30.5011 78.7562 30.4771 78.755 30.453Z" fill="#667185"/>
<path d="M59.1382 65.9767L56.4877 62.362L56.9956 62.3415C57.0606 62.3391 57.1256 62.3331 57.1906 62.3258C57.2015 62.3246 57.2123 62.3234 57.2219 62.321L57.2544 62.3162C57.2978 62.3102 57.3411 62.3042 57.3844 62.2957C57.4001 62.2933 57.4169 62.2897 57.4326 62.2861L57.4603 62.2801C57.4988 62.2717 57.5385 62.2633 57.577 62.2536C57.5987 62.2476 57.6191 62.2416 57.6408 62.2356L57.6553 62.2308C57.6926 62.2199 57.7311 62.2091 57.7684 62.1958C57.7925 62.1874 57.8166 62.179 57.8406 62.1706C57.8779 62.1573 57.9165 62.1429 57.9538 62.1272C57.9815 62.1164 58.0019 62.108 58.0236 62.0983C58.0416 62.0911 58.0573 62.0827 58.0742 62.0743L58.0982 62.0634C58.1608 62.0345 58.221 62.0032 58.2812 61.9707L58.3065 61.9575C58.3173 61.9515 58.3293 61.9455 58.3402 61.9395C58.4184 61.8937 58.4846 61.8528 58.5448 61.8107C58.6038 61.7697 58.664 61.7252 58.7302 61.6722C58.741 61.6626 58.753 61.6542 58.7639 61.6445L58.7892 61.6229C58.8277 61.5904 58.8662 61.5567 58.9035 61.5218C58.9216 61.5049 58.9384 61.4881 58.9565 61.4712L58.9661 61.4616C59.001 61.4279 59.0347 61.3918 59.0684 61.3569C59.0877 61.3364 59.1069 61.3147 59.1262 61.2931C59.1635 61.2509 59.1972 61.2088 59.2321 61.1655L59.2514 61.1414C59.2598 61.1306 59.2682 61.1197 59.2767 61.1089C59.3296 61.0391 59.3778 60.9681 59.4199 60.8983C59.4536 60.8441 59.4849 60.7899 59.515 60.7345L59.5198 60.7237C59.5511 60.6647 59.58 60.6058 59.6053 60.5456L59.793 60.1146L59.8917 60.2495L75.9407 28.592C75.9648 28.5451 75.9853 28.4994 76.0057 28.4524C76.0238 28.4115 76.0394 28.3718 76.0551 28.3308L76.0755 28.2791C76.096 28.2213 76.1153 28.1647 76.1309 28.107L76.1369 28.0805C76.1502 28.0323 76.1622 27.9842 76.1718 27.9372L76.1827 27.8795C76.1899 27.8421 76.1959 27.806 76.2007 27.7699C76.2031 27.7543 76.2043 27.7374 76.2067 27.7206L76.2079 27.7049C76.2116 27.6712 76.2152 27.6375 76.2164 27.6038C76.2176 27.5821 76.2188 27.5605 76.2188 27.5388C76.22 27.5051 76.22 27.4726 76.22 27.4401C76.22 27.4184 76.22 27.398 76.2188 27.3763C76.2176 27.3438 76.2152 27.3101 76.2116 27.2776L76.2091 27.2559C76.2079 27.2439 76.2067 27.2319 76.2055 27.2186C76.2007 27.1825 76.1947 27.1464 76.1887 27.1103L76.1815 27.0645C76.1742 27.026 76.1646 26.9887 76.155 26.9502L76.149 26.9261C76.1345 26.8732 76.1201 26.8274 76.1032 26.7817L76.1008 26.7757C76.0755 26.707 76.0479 26.642 76.0129 26.5734L76.0045 26.5554C75.9732 26.4952 75.9407 26.4398 75.9046 26.3845C75.8854 26.3556 75.8673 26.3279 75.848 26.3002L76.285 25.98C76.2862 25.9812 76.2874 25.9824 76.2874 25.9836L78.5491 29.0675C78.5708 29.0964 78.5913 29.1253 78.6105 29.1554L78.6274 29.1843C78.6671 29.2445 78.7068 29.3119 78.7417 29.3781L78.7502 29.3925C78.7574 29.407 78.7622 29.419 78.767 29.4298C78.8043 29.5033 78.8392 29.5827 78.8681 29.6633L78.8802 29.697C78.897 29.7452 78.9163 29.8042 78.9331 29.8632C78.9355 29.874 78.9379 29.8836 78.9404 29.8945C78.9548 29.9486 78.9656 29.9968 78.9753 30.0461L78.9789 30.0618C78.9801 30.0678 78.9825 30.081 78.9837 30.0943C78.9933 30.1484 79.0005 30.1942 79.0053 30.2399C79.0078 30.2592 79.009 30.2784 79.0114 30.2977L79.0126 30.3145C79.0162 30.3555 79.0198 30.3964 79.021 30.4385C79.0222 30.465 79.0222 30.4915 79.0234 30.518C79.0246 30.5577 79.0234 30.5986 79.0222 30.6408C79.021 30.6684 79.0198 30.6949 79.0186 30.7226C79.0162 30.7647 79.0126 30.8057 79.0078 30.8478L79.0066 30.8622C79.0041 30.8839 79.0017 30.9068 78.9993 30.9284C78.9933 30.973 78.9849 31.0175 78.9777 31.0621L78.9741 31.0825C78.9717 31.0994 78.968 31.1174 78.9644 31.1343C78.9524 31.192 78.9379 31.251 78.9223 31.3088C78.9187 31.3233 78.9163 31.3329 78.9139 31.3413C78.8946 31.4099 78.8717 31.4797 78.8465 31.5483C78.8417 31.5628 78.8356 31.5772 78.8296 31.5917L78.8224 31.6097C78.8031 31.6579 78.7839 31.706 78.7634 31.7542C78.761 31.7614 78.7574 31.7698 78.7538 31.7782C78.7321 31.8252 78.7104 31.8721 78.6864 31.9203L62.4183 64.011C62.3846 64.076 62.3461 64.1458 62.3004 64.2229C62.2967 64.2301 62.2919 64.2385 62.2871 64.247C62.2811 64.2566 62.2751 64.2662 62.2691 64.2746C62.2149 64.3601 62.1619 64.4383 62.1078 64.5118L62.1126 64.5178L61.9633 64.6911L61.9621 64.6923L61.7551 64.9343L61.7454 64.9234C61.7382 64.9319 61.7298 64.9391 61.7226 64.9475L61.6756 64.992C61.6552 65.0113 61.6347 65.0282 61.6142 65.0462L61.5553 65.0968C61.5312 65.1184 61.5071 65.1401 61.4818 65.1606L61.4626 65.175C61.4385 65.1943 61.4084 65.2171 61.3783 65.2388L61.3181 65.2833C61.2953 65.3014 61.2712 65.3195 61.2471 65.3363L61.2267 65.3495C61.1773 65.3832 61.1195 65.4182 61.0617 65.4531L61.0377 65.4687C61.0256 65.4771 61.0124 65.4844 61.0004 65.4928L61.0088 65.5036L60.7283 65.6348C60.7235 65.6372 60.7187 65.6396 60.7139 65.6408L60.5165 65.7323L60.5117 65.7263C60.4852 65.7359 60.4575 65.7468 60.4286 65.7576L60.3419 65.7877C60.3227 65.7949 60.3046 65.8009 60.2854 65.807C60.2444 65.8202 60.2023 65.831 60.1614 65.8419L60.112 65.8611C60.0964 65.8659 60.0807 65.8707 60.0639 65.8744C59.9664 65.8984 59.8665 65.9177 59.7678 65.9333C59.7509 65.9357 59.7353 65.9382 59.7184 65.9394L59.6979 65.9418C59.6185 65.9526 59.5391 65.9598 59.4632 65.9634C59.4452 65.9658 59.4307 65.967 59.4163 65.9683C59.379 65.9695 59.3429 65.9707 59.3067 65.9707H59.2815H59.2767L59.1382 65.9767ZM57.5 62.8254L59.4067 65.4242C59.4163 65.423 59.4247 65.4218 59.4343 65.4218C59.4993 65.4182 59.5655 65.4121 59.6305 65.4037L59.6883 65.3965C59.7714 65.3845 59.8544 65.3676 59.9363 65.3471L60.0266 65.3231C60.0591 65.3146 60.0928 65.3062 60.1253 65.2954C60.1373 65.2918 60.1493 65.287 60.1614 65.2833L60.2468 65.2533C60.3299 65.2232 60.3973 65.1955 60.4587 65.1678C60.4575 65.1678 60.4647 65.1642 60.4719 65.1606L60.4936 65.1521C60.567 65.1184 60.6417 65.0799 60.7151 65.0378L60.7271 65.0306C60.7319 65.0269 60.7391 65.0233 60.7464 65.0185C60.7584 65.0101 60.7717 65.0029 60.7837 64.9945C60.8354 64.9632 60.8848 64.9343 60.9317 64.9018L60.951 64.8897C60.9594 64.8837 60.9751 64.8717 60.9907 64.8596L61.0617 64.8067C61.0846 64.7898 61.1087 64.773 61.1316 64.7549L61.1496 64.7417C61.1616 64.732 61.1785 64.7164 61.1954 64.7007L61.2688 64.637C61.282 64.6261 61.2965 64.6141 61.3085 64.602L61.3591 64.5527C61.3687 64.5419 61.3783 64.531 61.3879 64.5214L61.4132 64.4961C61.4433 64.466 61.4722 64.4371 61.5011 64.4058C61.5143 64.3902 61.5216 64.3806 61.5288 64.3721C61.5372 64.3625 61.5444 64.3541 61.5529 64.3469L61.7587 64.519L61.5553 64.3445L61.5781 64.318C61.6022 64.2891 61.6239 64.2602 61.6467 64.2313C61.6552 64.2193 61.6612 64.2132 61.666 64.2072L61.6708 64.2C61.7178 64.1374 61.7647 64.0688 61.8129 63.9906C61.8177 63.9833 61.8237 63.9737 61.8297 63.9653C61.8297 63.9641 61.8345 63.9569 61.8381 63.9484C61.873 63.8907 61.9067 63.8317 61.938 63.7703L78.2061 31.6807C78.2266 31.641 78.2458 31.6001 78.2639 31.5604L78.2723 31.5411C78.2904 31.5014 78.306 31.4605 78.3216 31.4208L78.3421 31.369C78.3626 31.3112 78.3818 31.2546 78.3975 31.1969L78.4047 31.1704C78.4179 31.1234 78.43 31.0753 78.4396 31.0271L78.4504 30.9682C78.4577 30.932 78.4637 30.8947 78.4685 30.8586C78.4709 30.8418 78.4721 30.8249 78.4745 30.8081L78.4757 30.7936C78.4793 30.7599 78.4829 30.7262 78.4842 30.6925C78.4854 30.6708 78.4866 30.6492 78.4866 30.6263C78.4878 30.5938 78.4878 30.5613 78.4878 30.5288C78.4878 30.5071 78.4878 30.4855 78.4866 30.465C78.4853 30.4325 78.4829 30.3988 78.4793 30.3663L78.4781 30.3458C78.4769 30.3326 78.4757 30.3194 78.4745 30.3061C78.4697 30.27 78.4649 30.2351 78.4577 30.199L78.4516 30.1593C78.4504 30.1545 78.4492 30.1508 78.4492 30.146C78.4432 30.1147 78.4336 30.0774 78.424 30.0389L78.4179 30.0148C78.4047 29.9643 78.3903 29.9197 78.3746 29.8752C78.3734 29.8728 78.371 29.868 78.3698 29.862C78.3457 29.797 78.318 29.732 78.2831 29.6621L78.2699 29.6357C78.2422 29.5827 78.2109 29.5297 78.1748 29.4732L78.1591 29.4479C78.1495 29.4346 78.1339 29.4118 78.1182 29.3901L76.7665 27.546C76.7665 27.5484 76.7665 27.552 76.7665 27.5545C76.7653 27.5821 76.7641 27.6098 76.7629 27.6375C76.7604 27.6784 76.7568 27.7206 76.752 27.7627L76.7508 27.7783C76.7484 27.8 76.746 27.8217 76.7436 27.8433C76.7376 27.8891 76.7291 27.9336 76.7207 27.9794L76.7171 27.9998C76.7147 28.0167 76.7111 28.0335 76.7075 28.0504C76.6954 28.1094 76.681 28.1671 76.6642 28.2261L76.6569 28.2562C76.6365 28.3272 76.6148 28.3958 76.5895 28.4645C76.5847 28.4789 76.5787 28.4933 76.5727 28.5078L76.5654 28.5258C76.5462 28.574 76.5281 28.6221 76.5065 28.6703C76.4824 28.7257 76.4571 28.781 76.4282 28.8352L59.982 61.275L59.8966 61.1582C59.8929 61.1643 59.8893 61.1715 59.8845 61.1775C59.834 61.2606 59.7762 61.3436 59.7148 61.4267C59.7028 61.4423 59.6907 61.458 59.6787 61.4736L59.663 61.4941C59.6221 61.5458 59.5812 61.5964 59.5379 61.6457C59.5162 61.671 59.4933 61.6963 59.4692 61.7216C59.4295 61.7637 59.3898 61.8046 59.3489 61.8456L59.3392 61.8552C59.3188 61.8757 59.2971 61.8961 59.2767 61.9166C59.2321 61.9575 59.1876 61.996 59.1418 62.0345L59.1214 62.0526C59.1057 62.0658 59.0901 62.0803 59.0732 62.0923C58.9962 62.1537 58.9252 62.2067 58.8554 62.2548C58.7843 62.3042 58.7061 62.3535 58.6158 62.4053C58.6002 62.4149 58.5833 62.4233 58.5677 62.4318L58.5472 62.4426C58.4774 62.4811 58.4052 62.5184 58.3317 62.5521L58.3101 62.5618C58.2884 62.5726 58.2655 62.5822 58.2439 62.5931C58.2198 62.6039 58.1933 62.6147 58.168 62.6244C58.1175 62.6448 58.0729 62.6617 58.0284 62.6785C58.0007 62.6882 57.9718 62.699 57.9441 62.7086C57.8996 62.7231 57.8551 62.7363 57.8105 62.7495L57.7961 62.7532C57.7696 62.7604 57.7431 62.7688 57.7179 62.7748C57.6721 62.7869 57.6252 62.7965 57.5782 62.8073L57.5542 62.8121C57.5337 62.8194 57.5168 62.823 57.5 62.8254Z" fill="#F9FAFB"/>
<path d="M74.1351 25.2253C76.0117 25.2253 77.0529 26.9995 76.1826 28.7148L59.9145 60.8056C59.3669 61.8853 58.2005 62.6135 57.0184 62.6123C58.2089 62.563 59.3645 61.7721 59.8544 60.6515L71.7758 33.3912C72.5113 31.7096 71.4605 30.0569 69.6537 30.0569H67.1187L67.8891 25.2253H74.1351Z" fill="#D0D5DD"/>
<path d="M57.0209 62.8832C57.0197 62.8832 57.0185 62.8832 57.0173 62.8832L57.0065 62.3415C58.0934 62.2969 59.1623 61.5579 59.6053 60.5432L71.5268 33.2829C71.8445 32.5558 71.8084 31.8035 71.4256 31.2197C71.0549 30.654 70.4097 30.329 69.6526 30.329H66.801L67.658 24.9557H74.134C75.1066 24.9557 75.9311 25.3902 76.3969 26.1497C76.8736 26.9261 76.8832 27.9324 76.4234 28.8388L60.1554 60.9271C59.5619 62.0971 58.3029 62.8832 57.0209 62.8832ZM67.4378 29.7861H69.655C70.5975 29.7861 71.4088 30.2002 71.8806 30.9224C72.3645 31.6627 72.4175 32.6016 72.0239 33.4995L63.0503 54.0191L75.9407 28.592C76.3211 27.8433 76.3187 27.0549 75.9359 26.4314C75.5712 25.8368 74.9152 25.4961 74.1352 25.4961H68.1215L67.4378 29.7861Z" fill="#F9FAFB"/>
<path d="M74.2736 35.2666C74.2712 35.2257 74.2688 35.1847 74.264 35.1438C74.2616 35.1233 74.2591 35.1029 74.2567 35.0824C74.2519 35.0463 74.2471 35.0102 74.2399 34.9741C74.2375 34.9632 74.2375 34.9524 74.2351 34.9416C74.2327 34.9307 74.2302 34.9211 74.2278 34.9103C74.2206 34.8778 74.2134 34.8441 74.205 34.8116C74.2002 34.7911 74.1941 34.7706 74.1893 34.7502C74.1797 34.7165 74.1689 34.6828 74.1568 34.6491C74.152 34.6358 74.1484 34.6214 74.1436 34.6082C74.1424 34.6057 74.1412 34.6033 74.14 34.5997C74.1111 34.5215 74.0786 34.4469 74.0413 34.3734C74.0377 34.3674 74.0365 34.3602 74.0328 34.3542C74.0304 34.3494 74.0268 34.3457 74.0244 34.3409C73.9907 34.2771 73.9546 34.2157 73.9161 34.1568C73.9125 34.1519 73.9101 34.1471 73.9077 34.1423C73.8896 34.1158 73.8715 34.0906 73.8535 34.0653L71.5893 30.9778C71.611 31.0079 71.6315 31.0392 71.6519 31.0705C71.6904 31.1306 71.7277 31.192 71.7602 31.2546C71.7663 31.2655 71.7711 31.2763 71.7771 31.2871C71.8144 31.3606 71.8469 31.4364 71.8758 31.5134C71.8818 31.5303 71.8866 31.5459 71.8927 31.5628C71.9035 31.5965 71.9155 31.6302 71.9252 31.6639C71.9312 31.6844 71.936 31.7048 71.9408 31.7253C71.9492 31.7578 71.9565 31.7903 71.9637 31.824C71.9685 31.8456 71.9721 31.8661 71.9757 31.8878C71.9817 31.9239 71.9878 31.96 71.9926 31.9961C71.995 32.0166 71.9986 32.037 71.9998 32.0575C72.0034 32.0984 72.007 32.1394 72.0082 32.1803C72.0094 32.1971 72.0106 32.214 72.0106 32.2308C72.0118 32.2886 72.0118 32.3476 72.0094 32.4066C72.0094 32.4162 72.0082 32.4258 72.007 32.4367C72.0046 32.486 72.001 32.5354 71.995 32.5859C71.9926 32.6064 71.989 32.6269 71.9865 32.6473C71.9805 32.687 71.9745 32.728 71.9673 32.7677C71.9637 32.7906 71.9589 32.8134 71.954 32.8363C71.9456 32.8748 71.936 32.9145 71.9264 32.9543C71.9203 32.9771 71.9143 33 71.9083 33.0229C71.8963 33.065 71.883 33.1071 71.8686 33.1493C71.8614 33.1685 71.8553 33.189 71.8481 33.2082C71.8265 33.2696 71.8012 33.3322 71.7747 33.3936L59.8532 60.6539C59.8243 60.7201 59.793 60.7839 59.7593 60.8477C59.7569 60.8525 59.7545 60.8561 59.7533 60.8609C59.7208 60.9223 59.6859 60.9813 59.6498 61.0403C59.6004 61.1197 59.5487 61.1956 59.4933 61.2702C59.4777 61.2919 59.4608 61.3111 59.4452 61.3316C59.4078 61.3785 59.3705 61.4255 59.3308 61.4712C59.3103 61.4953 59.2887 61.5181 59.267 61.541C59.2309 61.5795 59.1936 61.6181 59.1551 61.6554C59.1322 61.677 59.1105 61.6999 59.0877 61.7204C59.0467 61.7577 59.0046 61.7938 58.9625 61.8299C58.9408 61.848 58.9203 61.866 58.8987 61.8841C58.8337 61.937 58.7663 61.9876 58.6965 62.0345C58.6242 62.0839 58.5496 62.1296 58.4738 62.1742C58.4533 62.1862 58.4316 62.197 58.41 62.2091C58.345 62.2452 58.2788 62.2789 58.2114 62.3102C58.1849 62.3234 58.1572 62.3355 58.1307 62.3475C58.1054 62.3583 58.0802 62.3692 58.0549 62.3788C58.014 62.3957 57.973 62.4113 57.9321 62.4257C57.9056 62.4354 57.8803 62.4438 57.8539 62.4534C57.8129 62.4667 57.772 62.4799 57.7311 62.4907C57.7022 62.4992 57.6745 62.5076 57.6456 62.5148C57.6035 62.5257 57.5602 62.5353 57.5168 62.5449C57.4891 62.5509 57.4615 62.5569 57.435 62.563C57.388 62.5714 57.3399 62.5786 57.2917 62.5846C57.2689 62.5882 57.2448 62.5919 57.2219 62.5943C57.1509 62.6027 57.0787 62.6087 57.0077 62.6111L16.3959 62.6135C15.5762 62.6135 14.8804 62.2632 14.4615 61.6927L16.7257 64.7802C17.1446 65.3507 17.8403 65.701 18.6601 65.701L59.2718 65.6986C59.344 65.6962 59.4151 65.6902 59.4861 65.6818C59.5102 65.6794 59.533 65.6745 59.5559 65.6721C59.604 65.6661 59.651 65.6589 59.6979 65.6505C59.7256 65.6457 59.7533 65.6384 59.781 65.6324C59.8243 65.6228 59.8665 65.6144 59.9086 65.6023C59.9375 65.5951 59.9664 65.5867 59.9952 65.5782C60.0205 65.571 60.0458 65.565 60.0711 65.5566C60.0867 65.5518 60.1024 65.5457 60.118 65.5409C60.1445 65.5325 60.1698 65.5229 60.1963 65.5132C60.2372 65.4988 60.2781 65.4819 60.319 65.4663C60.3443 65.4555 60.3696 65.4458 60.3949 65.435C60.4081 65.429 60.4214 65.4242 60.4334 65.4194C60.4478 65.4133 60.4611 65.4049 60.4755 65.3977C60.5429 65.3664 60.6091 65.3327 60.6741 65.2966C60.6886 65.2894 60.703 65.2833 60.7163 65.2749C60.7235 65.2701 60.7307 65.2653 60.7379 65.2617C60.886 65.1762 61.028 65.0787 61.1616 64.9716C61.1665 64.968 61.1725 64.9644 61.1773 64.9595C61.1941 64.9463 61.2086 64.9306 61.2254 64.9174C61.2676 64.8813 61.3097 64.8452 61.3506 64.8079C61.359 64.7994 61.3687 64.7922 61.3783 64.7838C61.3927 64.7706 61.4048 64.7561 61.4192 64.7417C61.4578 64.7044 61.4951 64.6658 61.5312 64.6273C61.5432 64.6141 61.5552 64.6032 61.5673 64.59C61.5769 64.5792 61.5853 64.5683 61.595 64.5575C61.6347 64.5118 61.672 64.466 61.7093 64.4179C61.7214 64.4022 61.7346 64.3878 61.7466 64.3721C61.7503 64.3673 61.7539 64.3613 61.7587 64.3553C61.814 64.2806 61.867 64.2036 61.9152 64.1254C61.9176 64.1218 61.9212 64.1181 61.9236 64.1133C61.9573 64.058 61.9886 64.0026 62.0187 63.946C62.0211 63.9412 62.0235 63.9364 62.0259 63.9316C62.0524 63.8798 62.0789 63.8281 62.1029 63.7751C62.109 63.7631 62.1138 63.7498 62.1198 63.7378L74.0413 36.4775C74.0677 36.4161 74.0918 36.3535 74.1147 36.2921C74.1219 36.2717 74.1279 36.2524 74.1352 36.2332C74.1496 36.191 74.1628 36.1489 74.1749 36.1068C74.1809 36.0839 74.1869 36.061 74.1929 36.0382C74.2026 35.9984 74.2122 35.9599 74.2206 35.9202C74.2254 35.8973 74.2303 35.8744 74.2339 35.8516C74.2411 35.8119 74.2471 35.7709 74.2531 35.7312C74.2555 35.7107 74.2591 35.6903 74.2615 35.6698C74.2676 35.6193 74.2712 35.5699 74.2736 35.5206C74.2736 35.5109 74.2748 35.5013 74.276 35.4905C74.2784 35.4315 74.2784 35.3725 74.2772 35.3147C74.276 35.3003 74.2748 35.2834 74.2736 35.2666Z" fill="#D0D5DD"/>
<path d="M18.66 65.9731C17.7729 65.9731 16.9881 65.5975 16.5078 64.9415L14.2437 61.854L14.6806 61.5338L14.683 61.5362C15.061 62.049 15.6857 62.3439 16.3971 62.3439L57.0088 62.3415C57.063 62.3391 57.128 62.3331 57.193 62.3258C57.2038 62.3246 57.2147 62.3234 57.2243 62.321L57.2568 62.3162C57.3001 62.3102 57.3435 62.3042 57.3868 62.2957C57.4024 62.2933 57.4193 62.2897 57.4349 62.2861L57.4626 62.2801C57.5011 62.2717 57.5409 62.2632 57.5794 62.2536C57.6011 62.2476 57.6215 62.2416 57.6432 62.2356L57.6576 62.2307C57.6949 62.2199 57.7335 62.2091 57.7708 62.1958C57.7948 62.1874 57.8189 62.179 57.843 62.1706C57.8803 62.1573 57.9188 62.1429 57.9561 62.1272C57.9838 62.1164 58.0043 62.108 58.026 62.0983C58.044 62.0911 58.0597 62.0827 58.0765 62.0743L58.1006 62.0634C58.1632 62.0345 58.2234 62.0032 58.2836 61.9707L58.3088 61.9575C58.3197 61.9515 58.3317 61.9455 58.3425 61.9394C58.4208 61.8937 58.487 61.8528 58.5472 61.8106C58.6061 61.7697 58.6663 61.7252 58.7325 61.6722C58.7434 61.6626 58.7554 61.6542 58.7662 61.6445L58.7915 61.6229C58.83 61.5904 58.8686 61.5567 58.9059 61.5218C58.9239 61.5049 58.9408 61.4881 58.9588 61.4712L58.9685 61.4616C59.0034 61.4279 59.0371 61.3918 59.0708 61.3569C59.09 61.3364 59.1093 61.3147 59.1286 61.2931C59.1659 61.2509 59.1996 61.2088 59.2345 61.1655L59.2537 61.1414C59.2622 61.1306 59.2706 61.1197 59.279 61.1089C59.332 61.0391 59.3801 60.9681 59.4223 60.8982C59.456 60.8441 59.4873 60.7899 59.5174 60.7345L59.5222 60.7237C59.5535 60.6647 59.5824 60.6057 59.6076 60.5456L71.5291 33.2853C71.5532 33.2287 71.5761 33.1721 71.5965 33.1168L71.6146 33.0626C71.6266 33.0253 71.6398 32.9868 71.6507 32.9482C71.6555 32.929 71.6615 32.9097 71.6663 32.8905C71.6772 32.8507 71.6856 32.8158 71.6928 32.7809C71.6976 32.7605 71.7012 32.74 71.7048 32.7195C71.7121 32.6822 71.7169 32.6461 71.7217 32.6112L71.7289 32.557C71.7337 32.5125 71.7373 32.468 71.7398 32.4234L71.741 32.4006C71.7434 32.344 71.7434 32.2922 71.7422 32.2405L71.7398 32.1959C71.7373 32.1586 71.7361 32.1225 71.7313 32.0876C71.7301 32.0731 71.7277 32.0599 71.7265 32.0479L71.7241 32.0334C71.7193 32.0009 71.7145 31.9696 71.7097 31.9371C71.7061 31.9179 71.7024 31.8998 71.6988 31.8806C71.6928 31.8517 71.6856 31.8228 71.6784 31.7939L71.6639 31.7397C71.6555 31.7108 71.6459 31.6807 71.6362 31.6506L71.6218 31.6073C71.5977 31.5423 71.57 31.4773 71.5351 31.4087L71.5207 31.3798C71.4918 31.3244 71.4605 31.2703 71.4256 31.2185C71.4087 31.192 71.3907 31.1656 71.3726 31.1403L71.3714 31.1379L71.8084 30.8177C71.8084 30.8177 71.8084 30.8177 71.8084 30.8189L74.0725 33.9052C74.093 33.9341 74.1135 33.963 74.1339 33.9919L74.1484 34.0147C74.1905 34.0797 74.229 34.1447 74.2639 34.2097C74.2675 34.2157 74.2711 34.2218 74.2748 34.2278L74.2892 34.2591C74.3301 34.3409 74.3638 34.4192 74.3927 34.4962L74.3987 34.5131C74.4048 34.5287 74.4084 34.5407 74.412 34.5528C74.4276 34.5997 74.4397 34.6382 74.4517 34.6768C74.4577 34.6972 74.4625 34.7177 74.4685 34.7382C74.4794 34.7815 74.489 34.8176 74.4962 34.8549C74.4998 34.8694 74.5023 34.879 74.5035 34.8886C74.5059 34.9019 74.5071 34.9115 74.5083 34.9223C74.5167 34.9669 74.5227 35.0078 74.5275 35.0475C74.5311 35.0776 74.5336 35.0969 74.536 35.1173C74.5408 35.1631 74.5432 35.2088 74.5456 35.2545L74.5468 35.2702C74.548 35.2834 74.5492 35.2967 74.5492 35.3111C74.5516 35.3761 74.5516 35.4411 74.548 35.5061L74.5456 35.5338C74.542 35.594 74.5384 35.6482 74.5311 35.7035C74.5287 35.7204 74.5263 35.7372 74.5239 35.7529L74.5215 35.7709C74.5155 35.8143 74.5083 35.8588 74.4998 35.9033C74.495 35.9286 74.4902 35.9539 74.4854 35.978C74.4758 36.0213 74.4661 36.0646 74.4553 36.108C74.4493 36.1332 74.4421 36.1585 74.4348 36.1838C74.4216 36.2295 74.4072 36.2753 74.3915 36.3222L74.3855 36.3391C74.3807 36.3547 74.3747 36.3716 74.3686 36.3872C74.3446 36.4534 74.3181 36.5208 74.2892 36.5882L62.3485 63.8906C62.3232 63.9472 62.2943 64.0038 62.2654 64.0592L62.2582 64.0736C62.2245 64.1362 62.1908 64.1976 62.1535 64.2566L62.1414 64.2746C62.0897 64.3589 62.0343 64.4395 61.9741 64.519C61.9729 64.5214 61.9681 64.5286 61.9621 64.537C61.9524 64.5503 61.9416 64.5623 61.9308 64.5743L61.9211 64.5864C61.8802 64.6381 61.8393 64.6887 61.7972 64.7368C61.7851 64.7525 61.7767 64.7621 61.7671 64.773C61.7574 64.7838 61.7478 64.7934 61.737 64.8043L61.7286 64.8127C61.6888 64.8548 61.6491 64.8957 61.6082 64.9367L61.5973 64.9475C61.5865 64.9595 61.5757 64.9704 61.5636 64.9812C61.5552 64.9896 61.5468 64.9969 61.5384 65.0041C61.4902 65.0486 61.4445 65.0871 61.3987 65.1256L61.3843 65.1377C61.3723 65.1485 61.359 65.1606 61.3458 65.1702L61.3253 65.1858C61.1857 65.2978 61.0316 65.4025 60.8715 65.4964C60.8655 65.5 60.8571 65.506 60.8486 65.5108C60.8354 65.5181 60.8234 65.5241 60.8101 65.5313C60.7331 65.5734 60.6609 65.6095 60.5886 65.6444C60.5682 65.6553 60.5561 65.6613 60.5429 65.6673C60.5333 65.6721 60.5224 65.6757 60.5116 65.6806C60.4731 65.6974 60.4454 65.7082 60.4177 65.7191C60.3744 65.7371 60.3299 65.754 60.2853 65.7696C60.2576 65.7793 60.2287 65.7901 60.2011 65.7997L60.1866 65.8045C60.1746 65.8094 60.1625 65.813 60.1505 65.8166C60.1324 65.8226 60.1132 65.8274 60.0939 65.8334L60.0542 65.8443C60.0277 65.8515 60.0012 65.8599 59.9748 65.8659C59.929 65.878 59.8821 65.8876 59.8363 65.8984L59.8135 65.9032C59.7918 65.9081 59.7689 65.9129 59.7473 65.9177C59.6955 65.9273 59.6437 65.9345 59.592 65.9418L59.5691 65.9454C59.5511 65.9478 59.533 65.9514 59.5149 65.9526C59.4331 65.9622 59.3561 65.9682 59.2802 65.9706L18.66 65.9731ZM15.5906 62.7748L16.9448 64.6201C17.3227 65.1353 17.9474 65.4302 18.66 65.4302L59.2718 65.4278C59.326 65.4254 59.391 65.4194 59.456 65.4121C59.4668 65.4109 59.4776 65.4097 59.4885 65.4073L59.5198 65.4025C59.5631 65.3965 59.6064 65.3905 59.6498 65.382C59.6666 65.3784 59.6823 65.3748 59.6979 65.3712L59.7244 65.3652C59.7629 65.3568 59.8026 65.3483 59.8411 65.3387C59.8628 65.3327 59.8845 65.3267 59.9049 65.3206L59.9555 65.3062C59.9675 65.3026 59.9784 65.3002 59.9904 65.2966L60.0337 65.2809C60.0566 65.2737 60.0807 65.2641 60.1048 65.2556C60.1421 65.2424 60.1806 65.228 60.2179 65.2123C60.242 65.2027 60.2648 65.1931 60.2877 65.1834L60.3299 65.1654C60.3407 65.1593 60.3515 65.1533 60.3624 65.1485C60.4237 65.1196 60.4851 65.0883 60.5453 65.0558C60.5561 65.0498 60.567 65.045 60.5778 65.039C60.5886 65.033 60.5959 65.0281 60.6043 65.0233C60.7415 64.9439 60.8727 64.8536 60.9943 64.7561L61.0244 64.732C61.034 64.7236 61.0436 64.7152 61.0533 64.7068C61.0918 64.6743 61.1315 64.6406 61.1688 64.6056C61.1761 64.5996 61.1833 64.5924 61.1917 64.5864L61.2061 64.5719C61.2146 64.5635 61.223 64.5551 61.2314 64.5467C61.2675 64.5118 61.3012 64.4769 61.3349 64.4407C61.3422 64.4323 61.3506 64.4239 61.359 64.4155L61.3674 64.4058C61.3783 64.3926 61.3855 64.3842 61.3927 64.3757C61.4288 64.3336 61.4637 64.2915 61.4986 64.2481C61.5059 64.2385 61.5143 64.2289 61.5227 64.2181L61.5323 64.206C61.5323 64.2048 61.5372 64.1976 61.5432 64.1904C61.5949 64.1206 61.6431 64.0495 61.6864 63.9797L61.6973 63.9641C61.7273 63.9147 61.755 63.8666 61.7815 63.8172L61.7887 63.8016C61.8116 63.757 61.8357 63.7101 61.8574 63.6619L61.873 63.6282L73.7945 36.368C73.8186 36.3114 73.8414 36.256 73.8607 36.1994L73.8787 36.1453C73.892 36.1068 73.904 36.0682 73.9148 36.0309C73.9209 36.0105 73.9257 35.99 73.9317 35.9695C73.9413 35.9334 73.9498 35.8985 73.957 35.8636C73.9618 35.8431 73.9654 35.8227 73.969 35.8022C73.9762 35.7661 73.9811 35.73 73.9859 35.6939L73.9931 35.6385C73.9979 35.594 74.0015 35.5507 74.0039 35.5061L74.0051 35.4857C74.0075 35.4267 74.0075 35.3749 74.0063 35.3244L74.0039 35.2798C74.0015 35.2437 73.9991 35.2076 73.9955 35.1715C73.9943 35.157 73.9919 35.1414 73.9895 35.1269C73.9835 35.0848 73.9786 35.0535 73.9738 35.021C73.9726 35.0126 73.9714 35.0042 73.9702 34.9945C73.9678 34.9813 73.9654 34.9729 73.963 34.9632C73.957 34.9368 73.951 34.9079 73.9425 34.879C73.9365 34.8561 73.9329 34.8405 73.9281 34.826C73.9197 34.7959 73.91 34.7658 73.8992 34.7357L73.8908 34.7081C73.8884 34.702 73.886 34.696 73.8836 34.69C73.8607 34.6274 73.833 34.5636 73.7981 34.495L73.7836 34.4661C73.756 34.4119 73.7235 34.3578 73.6886 34.3048L73.6765 34.2856C73.6633 34.2663 73.6488 34.2458 73.6332 34.2242L72.2814 32.3813C72.2814 32.3933 72.2802 32.4054 72.2802 32.4162L72.2778 32.4439C72.2742 32.5041 72.2706 32.5594 72.2634 32.6148C72.261 32.6317 72.2586 32.6485 72.2561 32.6654L72.2537 32.6834C72.2477 32.728 72.2405 32.7725 72.2321 32.817C72.2273 32.8411 72.2224 32.8664 72.2176 32.8917C72.208 32.935 72.1984 32.9783 72.1875 33.0217C72.1803 33.0494 72.1743 33.0734 72.1671 33.0963C72.1538 33.142 72.1394 33.1878 72.1237 33.2347L72.1165 33.2552C72.1117 33.2696 72.1069 33.2853 72.1009 33.2997C72.0768 33.3671 72.0503 33.4345 72.0202 33.5019L60.0987 60.7622C60.0686 60.8296 60.0361 60.8994 59.9964 60.9741L59.9916 60.9849C59.9543 61.0559 59.9158 61.1197 59.8773 61.1835C59.8267 61.2666 59.7689 61.3496 59.7075 61.4327C59.6955 61.4483 59.6835 61.464 59.6714 61.4796L59.6558 61.5001C59.6148 61.5519 59.5739 61.6024 59.5306 61.6518C59.5089 61.677 59.4861 61.7023 59.462 61.7276C59.4223 61.7697 59.3825 61.8106 59.3416 61.8516L59.332 61.8612C59.3115 61.8817 59.2899 61.9021 59.2694 61.9226C59.2249 61.9635 59.1803 62.002 59.1346 62.0406L59.1141 62.0586C59.0985 62.0718 59.0828 62.0863 59.066 62.0983C58.9889 62.1597 58.9179 62.2127 58.8481 62.2608C58.7771 62.3102 58.6988 62.3595 58.6086 62.4113C58.5929 62.4209 58.5761 62.4293 58.5604 62.4378L58.5399 62.4486C58.4701 62.4871 58.3979 62.5244 58.3245 62.5581L58.3028 62.5678C58.2811 62.5786 58.2583 62.5882 58.2366 62.5991C58.2125 62.6099 58.1861 62.6207 58.1608 62.6304C58.1102 62.6508 58.0657 62.6677 58.0211 62.6845C57.9935 62.6942 57.9646 62.705 57.9369 62.7146C57.8924 62.7291 57.8478 62.7423 57.8033 62.7556L57.7888 62.7592C57.7624 62.7664 57.7359 62.7748 57.7106 62.7808C57.6648 62.7929 57.6179 62.8025 57.571 62.8133L57.5469 62.8181C57.5252 62.823 57.5036 62.8278 57.4807 62.8314C57.4289 62.841 57.3772 62.8482 57.3254 62.8555L57.3025 62.8591C57.2845 62.8615 57.2676 62.8639 57.2496 62.8663C57.1677 62.8759 57.0907 62.8819 57.0148 62.8844L16.3923 62.8868C16.1142 62.8856 15.8446 62.847 15.5906 62.7748ZM62.1402 64.2758L62.139 64.2782C62.1402 64.277 62.1402 64.277 62.1402 64.2758ZM61.6997 63.9617C61.6997 63.9629 61.6985 63.9629 61.6985 63.9641L61.6997 63.9617Z" fill="#F9FAFB"/>
<path d="M72.1008 16.1145L69.8366 13.027L67.8915 25.2241L67.1199 30.0558H69.6549C69.7295 30.0558 69.8041 30.0582 69.8752 30.0642L70.1556 28.3104V28.3092L72.1008 16.1145Z" fill="#E4E7EC"/>
<path d="M70.104 30.3567L69.8536 30.3362C69.7898 30.3314 69.7224 30.3278 69.655 30.3278H66.8022L69.6707 12.3433L72.3862 16.0447L70.4422 28.237L70.4242 28.3549L70.104 30.3567ZM67.4378 29.7861H69.6466L69.8885 28.2695L71.8157 16.1843L70.0017 13.7107L67.4378 29.7861Z" fill="#F9FAFB"/>
<path d="M71.7771 33.39L59.8556 60.6503C59.3657 61.771 58.2101 62.563 57.0076 62.6111L16.3959 62.6136C15.1524 62.6136 14.1943 61.8071 14.0559 60.6491L10.2594 28.5584C10.0608 26.8768 11.6376 25.2253 13.4432 25.2253H28.2018C29.4452 25.2253 30.4058 26.0294 30.543 27.1873L30.6501 28.0937C30.7873 29.2529 31.7455 30.0582 32.9901 30.0582H69.6561C69.7308 30.0582 69.8054 30.0606 69.8764 30.0666C71.546 30.1942 72.4812 31.7783 71.7771 33.39Z" fill="#D0D5DD"/>
<path d="M16.3947 62.8856C15.0129 62.8856 13.9404 61.9792 13.7863 60.6828L9.9898 28.5896C9.89109 27.7531 10.1908 26.8707 10.8143 26.1702C11.5016 25.3974 12.4598 24.9532 13.4432 24.9532H28.2018C29.5849 24.9532 30.6586 25.8584 30.8115 27.1548L30.9186 28.0612C31.039 29.0771 31.89 29.7861 32.989 29.7861H69.655C69.738 29.7861 69.8187 29.7897 69.8981 29.7957C70.7696 29.8632 71.5111 30.3025 71.9312 31.0007C72.3681 31.7265 72.4018 32.6377 72.0263 33.4983L60.1048 60.7586C59.5728 61.9756 58.3329 62.829 57.0197 62.882L16.3947 62.8856ZM13.4432 25.4961C12.6259 25.4961 11.7954 25.8825 11.2188 26.5301C10.6988 27.1151 10.4472 27.8421 10.5279 28.5258L14.3243 60.619C14.4447 61.6349 15.2957 62.3439 16.3947 62.3439L57.0065 62.3415C58.0898 62.2982 59.1623 61.5579 59.6065 60.5432L71.5291 33.2829C71.8337 32.5847 71.8108 31.8553 71.4666 31.2811C71.1379 30.7346 70.5517 30.3904 69.856 30.3374C69.791 30.3326 69.7236 30.329 69.6562 30.329H32.989C31.6071 30.329 30.5346 29.4226 30.3805 28.1262L30.2734 27.2198C30.153 26.2051 29.3008 25.4961 28.2018 25.4961H13.4432Z" fill="#F9FAFB"/>
<path d="M67.12 30.3278H32.9889C31.6071 30.3278 30.5334 29.4226 30.3793 28.1262L30.2734 27.2198C30.153 26.2051 29.3008 25.4961 28.2018 25.4961H18.4915C18.4121 25.4961 18.3375 25.4612 18.2857 25.401C18.2339 25.3408 18.2123 25.2614 18.2243 25.1831L18.7648 21.7911C18.7852 21.6599 18.8996 21.5624 19.032 21.5624H25.8714L27.9599 8.46611H21.2071C21.1276 8.46611 21.053 8.43121 21.0013 8.37102C20.9495 8.31084 20.9278 8.23139 20.9399 8.15315L22.1989 0.25565C22.2194 0.124446 22.3338 0.026947 22.4662 0.026947H58.67C58.7482 0.026947 58.8216 0.0606494 58.8734 0.119631L59.0636 0.3363C59.1165 0.396485 59.1406 0.478336 59.1274 0.557781L57.1834 12.7561H69.8355C69.915 12.7561 69.9896 12.791 70.0413 12.8512C70.0931 12.9114 70.1148 12.9908 70.1027 13.0691L67.3872 30.0991C67.3667 30.2315 67.2536 30.3278 67.12 30.3278ZM18.8093 24.9544H28.203C29.5849 24.9544 30.6586 25.8596 30.8126 27.156L30.9186 28.0624C31.0389 29.0771 31.8912 29.7861 32.9901 29.7861H66.8888L69.5189 13.2978H56.8668C56.7874 13.2978 56.7127 13.2629 56.661 13.2027C56.6092 13.1425 56.5876 13.0631 56.5996 12.9848L58.5737 0.597501L58.5484 0.568614H22.6985L21.5249 7.92444H28.2776C28.3571 7.92444 28.4317 7.95935 28.4835 8.01954C28.5352 8.07972 28.5569 8.15917 28.5449 8.23741L26.3698 21.8754C26.3493 22.0066 26.235 22.1041 26.1026 22.1041H19.2631L18.8093 24.9544ZM54.0983 26.9081H31.8346C31.571 26.9081 31.3278 26.8009 31.1677 26.6131C31.0101 26.4278 30.9451 26.1858 30.9848 25.9331C31.0642 25.4335 31.5301 25.0423 32.0452 25.0423H54.3089C54.5713 25.0423 54.8145 25.1494 54.9734 25.336C55.1323 25.5214 55.1973 25.7645 55.1564 26.0185C55.0769 26.5169 54.6123 26.9081 54.0983 26.9081ZM32.0452 25.584C31.7985 25.584 31.5577 25.7826 31.5204 26.0185C31.5048 26.1136 31.5264 26.1979 31.5806 26.2617C31.6384 26.3291 31.7287 26.3664 31.8346 26.3664H54.0983C54.3451 26.3664 54.5846 26.1678 54.6219 25.9331C54.6376 25.838 54.6159 25.7513 54.5617 25.6875C54.5039 25.6201 54.4149 25.584 54.3089 25.584H32.0452ZM54.8061 22.4712H32.5412C32.2776 22.4712 32.0356 22.3641 31.8755 22.1763C31.7166 21.9909 31.6516 21.749 31.6926 21.495C31.772 20.9967 32.2378 20.6055 32.753 20.6055H55.0167C55.2803 20.6055 55.5223 20.7126 55.6824 20.8992C55.8401 21.0845 55.9051 21.3265 55.8653 21.5805C55.7847 22.08 55.3201 22.4712 54.8061 22.4712ZM32.753 21.1471C32.5063 21.1471 32.2655 21.3457 32.2282 21.5805C32.2126 21.6768 32.2342 21.761 32.2884 21.8248C32.3462 21.8922 32.4364 21.9295 32.5424 21.9295H54.8061C55.0528 21.9295 55.2924 21.7309 55.3297 21.495C55.3453 21.3987 55.3249 21.3144 55.2695 21.2506C55.2117 21.1832 55.1226 21.1471 55.0167 21.1471H32.753ZM55.5138 18.0319H33.2501C32.9865 18.0319 32.7434 17.9248 32.5833 17.737C32.4256 17.5517 32.3606 17.3097 32.4003 17.0569C32.4798 16.5574 32.9456 16.1662 33.4608 16.1662H55.7245C55.9869 16.1662 56.2301 16.2733 56.3889 16.4599C56.5478 16.6453 56.6128 16.8884 56.5719 17.1424C56.4925 17.6419 56.0278 18.0319 55.5138 18.0319ZM33.4608 16.7079C33.214 16.7079 32.9733 16.9065 32.936 17.1424C32.9203 17.2375 32.9408 17.3218 32.9962 17.3856C33.0539 17.453 33.1442 17.4903 33.2501 17.4903H55.5138C55.7606 17.4903 56.0001 17.2917 56.0375 17.0569C56.0531 16.9619 56.0314 16.8752 55.9773 16.8114C55.9195 16.744 55.8304 16.7079 55.7245 16.7079H33.4608Z" fill="#F9FAFB"/>
<path d="M13.9512 7.97623L11.7063 22.0523H26.2904L28.5353 7.97623H13.9512ZM26.4348 9.73845L24.752 20.2889H13.8032L15.4859 9.73845H26.4348Z" fill="#D0D5DD"/>
<path d="M58.8627 0.515656L69.8381 13.027H56.8669L58.8627 0.515656Z" fill="#D0D5DD"/>
<path d="M69.838 13.2978H56.8669C56.7875 13.2978 56.7128 13.2629 56.6611 13.2027C56.6093 13.1425 56.5876 13.0631 56.5997 12.9848L58.5954 0.47353C58.6123 0.370011 58.6869 0.284548 58.788 0.255659C58.8891 0.226771 58.9975 0.258066 59.0673 0.33751L70.0426 12.8488C70.1125 12.9283 70.1293 13.0426 70.086 13.1389C70.0402 13.2364 69.9439 13.2978 69.838 13.2978ZM57.1847 12.7561H69.2398L59.0384 1.12834L57.1847 12.7561Z" fill="#F9FAFB"/>
<path d="M56.3505 16.4936C56.1988 16.3155 55.9761 16.218 55.7258 16.218H33.4609C32.9709 16.218 32.5268 16.5899 32.4522 17.0654C32.4136 17.3037 32.475 17.53 32.6231 17.7046C32.7735 17.8803 33.0022 17.9814 33.2502 17.9814H55.5139C56.0038 17.9814 56.4456 17.6095 56.5214 17.1352C56.5599 16.8957 56.4985 16.6682 56.3505 16.4936Z" fill="#D0D5DD"/>
<path d="M55.0167 20.6573H32.753C32.2631 20.6573 31.8201 21.0292 31.7443 21.5035C31.7057 21.7418 31.7671 21.9693 31.9152 22.1426C32.0657 22.3184 32.2932 22.4195 32.5423 22.4195H54.806C55.2959 22.4195 55.7377 22.0475 55.8135 21.5721C55.852 21.3337 55.7907 21.1062 55.6426 20.9329C55.4933 20.7572 55.2646 20.6573 55.0167 20.6573Z" fill="#D0D5DD"/>
<path d="M54.3089 25.0941H32.0452C31.5553 25.0941 31.1111 25.466 31.0365 25.9415C30.998 26.1798 31.0594 26.4061 31.2074 26.5807C31.3579 26.7564 31.5866 26.8575 31.8346 26.8575H54.0983C54.5882 26.8575 55.0299 26.4856 55.1058 26.0113C55.1443 25.773 55.0829 25.5455 54.9348 25.3709C54.782 25.1916 54.5605 25.0941 54.3089 25.0941Z" fill="#D0D5DD"/>
</svg>
