<svg width="120" height="120" viewBox="0 0 120 120" fill="none" xmlns="http://www.w3.org/2000/svg">
<path d="M60 98.1578C82.6553 98.1578 101.021 90.953 101.021 82.0655C101.021 73.1781 82.6553 65.9733 60 65.9733C37.3447 65.9733 18.9789 73.1781 18.9789 82.0655C18.9789 90.953 37.3447 98.1578 60 98.1578Z" fill="#F9FAFB"/>
<path d="M61.3478 34.3944C61.2689 34.2878 61.1789 34.19 61.0789 34.1022C60.7256 33.7933 60.2478 33.6155 59.7178 33.6155C59.5545 33.6155 59.3834 33.6333 59.21 33.6689C59.1256 33.6866 59.0434 33.7089 58.9623 33.7333C58.9534 33.7355 58.9445 33.7378 58.9356 33.74C58.9023 33.7511 58.8689 33.7633 58.8356 33.7755C58.8223 33.78 58.8078 33.7844 58.7945 33.79C58.74 33.8111 58.6856 33.8333 58.6323 33.8566C58.6289 33.8578 58.6256 33.86 58.6234 33.8611C58.55 33.8944 58.4789 33.9311 58.4089 33.97C58.4045 33.9722 58.4011 33.9744 58.3967 33.9767C58.38 33.9867 58.3645 33.9978 58.3478 34.0078C58.3045 34.0344 58.2611 34.0611 58.2189 34.0889C58.2111 34.0944 58.2023 34.0989 58.1945 34.1044C58.1778 34.1155 58.1623 34.1289 58.1456 34.1411C58.1111 34.1666 58.0767 34.1911 58.0423 34.2178C58.0323 34.2255 58.0211 34.2333 58.01 34.2411C57.9967 34.2522 57.9834 34.2644 57.97 34.2755C57.9378 34.3022 57.9067 34.33 57.8756 34.3578C57.8634 34.3689 57.8511 34.3789 57.8389 34.39C57.8156 34.4122 57.7923 34.4344 57.77 34.4578C57.74 34.4889 57.7111 34.52 57.6823 34.5511C57.6745 34.5589 57.6689 34.5678 57.6611 34.5767C57.6278 34.6144 57.5956 34.6544 57.5645 34.6933C57.5534 34.7078 57.54 34.7211 57.53 34.7355C57.5267 34.74 57.5245 34.7444 57.5211 34.7489C57.4734 34.8122 57.4289 34.8778 57.3878 34.9455C57.3856 34.9489 57.3834 34.9511 57.3811 34.9544C57.3523 35.0022 57.3245 35.0511 57.2978 35.1C57.2923 35.11 57.2878 35.1211 57.2822 35.1311C57.2645 35.1666 57.2456 35.2022 57.23 35.2378C57.2256 35.2467 57.2234 35.2555 57.2189 35.2644C57.2111 35.2833 57.2034 35.3022 57.1956 35.3222C57.18 35.36 57.1656 35.3978 57.1523 35.4355C57.1445 35.4555 57.1378 35.4766 57.1311 35.4966C57.1178 35.5366 57.1067 35.5755 57.0956 35.6155C57.0911 35.6344 57.0856 35.6522 57.0811 35.6711C57.0667 35.7289 57.0545 35.7878 57.0456 35.8466C57.02 36.0044 57.0111 36.1667 57.0234 36.3278L57.0811 37.17L59.4834 40.4444L59.4256 39.6022C59.4134 39.44 59.4223 39.2789 59.4478 39.1211C59.4567 39.0622 59.47 39.0033 59.4834 38.9455C59.4878 38.9267 59.4934 38.9089 59.4978 38.89C59.5089 38.85 59.52 38.81 59.5323 38.7711C59.5389 38.7511 59.5456 38.73 59.5534 38.71C59.5667 38.6722 59.5811 38.6344 59.5967 38.5966C59.6045 38.5778 59.6123 38.5589 59.62 38.54C59.64 38.4955 59.6611 38.4511 59.6834 38.4067C59.6889 38.3967 59.6934 38.3855 59.6989 38.3755C59.7267 38.3233 59.7567 38.2711 59.7878 38.22C59.8289 38.1533 59.8745 38.0878 59.9211 38.0233C59.9356 38.0044 59.95 37.9866 59.9656 37.9678C59.9967 37.9278 60.0289 37.8889 60.0623 37.8511C60.0978 37.8111 60.1334 37.7711 60.1711 37.7322C60.2056 37.6978 60.2411 37.6655 60.2767 37.6322C60.3078 37.6044 60.3389 37.5767 60.3711 37.55C60.3945 37.53 60.4189 37.51 60.4434 37.4911C60.4767 37.4644 60.5111 37.4389 60.5467 37.4144C60.5711 37.3967 60.5945 37.3789 60.62 37.3622C60.6623 37.3344 60.7056 37.3078 60.7489 37.2811C60.77 37.2689 60.79 37.2555 60.8111 37.2433C60.8811 37.2044 60.9523 37.1678 61.0256 37.1344C61.0823 37.1089 61.1389 37.0844 61.1978 37.0622C61.2111 37.0566 61.2256 37.0522 61.2389 37.0478C61.2811 37.0322 61.3234 37.0189 61.3667 37.0055C61.4478 36.9811 61.53 36.9578 61.6145 36.9411C61.7878 36.9055 61.9589 36.8878 62.1223 36.8878C62.6534 36.8878 63.1311 37.0655 63.4834 37.3744C63.5834 37.4622 63.6734 37.5589 63.7523 37.6667L61.3478 34.3944Z" fill="#D0D5DD"/>
<path d="M59.4822 40.6677C59.4133 40.6677 59.3455 40.6355 59.3033 40.5766L56.9011 37.3011C56.8767 37.2666 56.8611 37.2266 56.8589 37.1844L56.8011 36.3422C56.7878 36.1711 56.7967 35.9911 56.8255 35.81C56.8355 35.75 56.8478 35.6866 56.8644 35.6177C56.8678 35.6033 56.8722 35.5877 56.8756 35.5733L56.88 35.5566C56.8922 35.5133 56.9044 35.47 56.9178 35.4266C56.9256 35.4044 56.9333 35.3822 56.9411 35.3588C56.9555 35.3177 56.9711 35.2766 56.9889 35.2355L56.9933 35.2233C57 35.2066 57.0067 35.19 57.0144 35.1733L57.0255 35.1455C57.0433 35.1066 57.0611 35.0711 57.08 35.0344L57.0878 35.0188C57.0922 35.01 57.0956 35.0022 57.1 34.9933C57.1278 34.94 57.1578 34.8877 57.19 34.8355C57.1922 34.8311 57.1989 34.8222 57.2022 34.8177C57.2411 34.7555 57.2889 34.6833 57.3422 34.6133C57.3422 34.6122 57.3467 34.6055 57.3522 34.5988C57.3611 34.5877 57.37 34.5766 57.38 34.5655L57.39 34.5533C57.4233 34.51 57.4578 34.4677 57.4944 34.4266C57.5033 34.4144 57.51 34.4077 57.5167 34.4C57.5478 34.3644 57.58 34.3311 57.6122 34.2988C57.6367 34.2744 57.6611 34.25 57.6867 34.2266C57.6967 34.2177 57.7067 34.2088 57.7167 34.2L57.7267 34.1911C57.7589 34.1611 57.7933 34.1311 57.8278 34.1022L57.84 34.0911C57.85 34.0822 57.86 34.0733 57.8711 34.0644C57.88 34.0577 57.8889 34.0511 57.8978 34.0444C57.9411 34.01 57.9789 33.9833 58.0167 33.9566L58.0311 33.9455C58.0433 33.9355 58.0556 33.9266 58.0689 33.9177C58.0767 33.9122 58.0844 33.9077 58.0922 33.9022C58.14 33.87 58.1867 33.8422 58.2333 33.8133L58.2478 33.8044C58.26 33.7966 58.2733 33.7877 58.2867 33.78C58.2911 33.7777 58.3011 33.7722 58.3056 33.77C58.3756 33.7311 58.4533 33.6911 58.53 33.6555L58.54 33.65C58.5978 33.6244 58.6567 33.6 58.7156 33.5777C58.7256 33.5744 58.7367 33.57 58.7467 33.5666L58.7778 33.5555C58.8078 33.5444 58.8378 33.5333 58.8689 33.5244C58.8789 33.5211 58.8889 33.5188 58.8989 33.5166C58.9978 33.4866 59.0833 33.4644 59.1667 33.4477C59.3544 33.41 59.54 33.39 59.7189 33.39C60.2911 33.39 60.8267 33.5822 61.2267 33.9311C61.3389 34.03 61.4411 34.14 61.5278 34.2588L63.93 37.5333C64.0022 37.6322 63.9811 37.7711 63.8822 37.8444C63.7833 37.9166 63.6444 37.8955 63.5711 37.7966V37.7955C63.5033 37.7033 63.4244 37.6166 63.3367 37.54C63.0178 37.2611 62.5867 37.1077 62.1211 37.1077C61.9711 37.1077 61.8156 37.1244 61.6578 37.1566C61.59 37.1711 61.5156 37.19 61.4311 37.2155C61.3911 37.2277 61.3522 37.24 61.3133 37.2544L61.2755 37.2677C61.2222 37.2877 61.17 37.31 61.1178 37.3333C61.0522 37.3633 60.9856 37.3966 60.92 37.4344C60.9089 37.44 60.8989 37.4466 60.8889 37.4533L60.8622 37.4688C60.8222 37.4933 60.7822 37.5177 60.7433 37.5433C60.7244 37.5555 60.7078 37.5688 60.69 37.5811L60.6767 37.5911C60.6444 37.6144 60.6133 37.6377 60.5822 37.6622C60.56 37.68 60.5378 37.6977 60.5156 37.7166C60.4867 37.7411 60.4578 37.7666 60.4289 37.7922L60.4189 37.8011C60.3889 37.8277 60.36 37.8555 60.3311 37.8844C60.2967 37.92 60.2633 37.9566 60.2311 37.9933C60.2 38.0288 60.1711 38.0644 60.1422 38.1011L60.1244 38.1233C60.1167 38.1333 60.1089 38.1422 60.1011 38.1522C60.0567 38.2122 60.0155 38.2733 59.9778 38.3322C59.9489 38.3788 59.9211 38.4266 59.8956 38.4744L59.8811 38.5033C59.8611 38.5422 59.8411 38.5833 59.8233 38.6233L59.8022 38.6755C59.7878 38.71 59.7744 38.7444 59.7622 38.7788C59.7555 38.7977 59.7489 38.8155 59.7433 38.8344C59.7311 38.8711 59.7211 38.9066 59.7111 38.9433L59.6978 38.9933C59.6856 39.0455 59.6744 39.0988 59.6656 39.1511C59.6422 39.2977 59.6356 39.4433 59.6456 39.5811L59.7033 40.4244C59.71 40.5233 59.6511 40.6144 59.5578 40.6477C59.5333 40.6633 59.5078 40.6677 59.4822 40.6677ZM57.2978 37.0911L59.2089 39.6966L59.2033 39.6188C59.19 39.4477 59.1989 39.2677 59.2278 39.0866C59.2378 39.0266 59.25 38.9633 59.2667 38.8944C59.27 38.88 59.2744 38.8655 59.2778 38.85L59.2822 38.8333C59.2933 38.79 59.3067 38.7466 59.32 38.7033C59.3267 38.6811 59.3344 38.6588 59.3433 38.6355C59.3578 38.5944 59.3733 38.5533 59.3911 38.5122L59.3967 38.4988C59.4033 38.4833 59.41 38.4666 59.4167 38.4511C59.4378 38.4022 59.4611 38.3544 59.4856 38.3066L59.5022 38.2733C59.5322 38.2166 59.5644 38.16 59.5989 38.1055C59.6422 38.0344 59.6911 37.9633 59.7433 37.8933C59.7544 37.8788 59.7656 37.8644 59.7767 37.8511L59.7911 37.8333C59.8244 37.7911 59.8589 37.7488 59.8956 37.7077C59.9333 37.6644 59.9722 37.6211 60.0133 37.58C60.0467 37.5455 60.0822 37.5133 60.1178 37.4811L60.1278 37.4722C60.1611 37.4422 60.1944 37.4122 60.2289 37.3833C60.2544 37.3622 60.28 37.3411 60.3067 37.32C60.3433 37.2911 60.38 37.2644 60.4178 37.2377L60.4311 37.2277C60.4533 37.2122 60.4744 37.1966 60.4967 37.1811C60.5422 37.1511 60.5889 37.1222 60.6355 37.0944L60.6567 37.0822C60.6722 37.0733 60.6867 37.0633 60.7033 37.0544C60.78 37.0111 60.8578 36.9722 60.9344 36.9366C60.9955 36.9088 61.0567 36.8833 61.12 36.8588L61.1644 36.8433C61.21 36.8266 61.2555 36.8122 61.3022 36.7977C61.4 36.7677 61.4878 36.7444 61.57 36.7277C62.0078 36.6377 62.4311 36.6555 62.8156 36.7688L61.1711 34.5277C61.1033 34.4344 61.0233 34.3488 60.9355 34.2722C60.6167 33.9933 60.1844 33.84 59.72 33.84C59.5711 33.84 59.4144 33.8566 59.2567 33.8888C59.1878 33.9033 59.1156 33.9222 59.03 33.9477C59.0211 33.95 59.0122 33.9522 59.0033 33.9544C58.98 33.9611 58.9556 33.97 58.9311 33.9788L58.8756 33.9988C58.8244 34.0177 58.7744 34.0388 58.7256 34.0611C58.6511 34.0955 58.5844 34.13 58.52 34.1666C58.5156 34.1688 58.5056 34.1744 58.5011 34.1766C58.5022 34.1766 58.4978 34.18 58.4922 34.1833C58.4833 34.19 58.4733 34.1955 58.4633 34.2011C58.4233 34.2255 58.3833 34.25 58.3444 34.2755C58.3378 34.28 58.33 34.2844 58.3233 34.2888C58.3155 34.2933 58.31 34.2988 58.3044 34.3033C58.2955 34.31 58.2867 34.3166 58.2778 34.3233C58.2456 34.3466 58.2133 34.37 58.1822 34.3944C58.1744 34.4 58.1678 34.4055 58.16 34.4111L58.14 34.4277C58.1322 34.4344 58.1244 34.4422 58.1155 34.4488C58.0867 34.4733 58.0578 34.4988 58.0289 34.5244C58.0211 34.5322 58.0133 34.5377 58.0055 34.5444L57.9944 34.5544C57.9733 34.5744 57.9522 34.5955 57.9311 34.6166C57.9033 34.6444 57.8767 34.6733 57.85 34.7033C57.8422 34.7133 57.8367 34.72 57.83 34.7266C57.8 34.7611 57.7711 34.7977 57.7422 34.8333C57.7356 34.8422 57.7278 34.8511 57.7211 34.8588L57.71 34.8722C57.71 34.8722 57.7067 34.8777 57.7022 34.8833C57.6567 34.9444 57.6156 35.0044 57.5789 35.0644C57.5767 35.0677 57.5733 35.0733 57.57 35.0777C57.5444 35.12 57.52 35.1633 57.4967 35.2066L57.4822 35.2355C57.4644 35.2711 57.4478 35.3022 57.4344 35.3333L57.4244 35.3577C57.4189 35.37 57.4144 35.3822 57.4089 35.3955L57.4033 35.4088C57.3889 35.4433 57.3756 35.4777 57.3633 35.5122C57.3567 35.5311 57.35 35.5488 57.3444 35.5677C57.3333 35.6033 57.3222 35.64 57.3122 35.6755L57.2989 35.7255C57.2867 35.7777 57.2756 35.83 57.2667 35.8833C57.2433 36.03 57.2367 36.1755 57.2467 36.3133L57.2978 37.0911Z" fill="#F9FAFB"/>
<path d="M62.4367 39.1356L60.0345 35.8611C60.0089 35.8267 59.9801 35.7944 59.9478 35.7667C59.8323 35.6667 59.679 35.6089 59.509 35.6089C59.4545 35.61 59.4001 35.6156 59.3434 35.6267C59.3134 35.6333 59.2834 35.6411 59.2545 35.65C59.2456 35.6533 59.2378 35.6567 59.229 35.66C59.2156 35.6644 59.2034 35.67 59.1912 35.6744C59.1801 35.6789 59.1678 35.6822 59.1567 35.6878C59.1367 35.6967 59.119 35.7067 59.1001 35.7167C59.0956 35.7189 59.0912 35.7211 59.0878 35.7233C59.0856 35.7244 59.0845 35.7256 59.0823 35.7267C59.0601 35.7389 59.0389 35.7522 59.0178 35.7667C59.0078 35.7733 58.9978 35.7811 58.989 35.7889C58.9845 35.7922 58.979 35.7967 58.9745 35.8C58.9701 35.8033 58.9645 35.8067 58.9601 35.81C58.9412 35.8256 58.9234 35.8411 58.9056 35.8578C58.8967 35.8656 58.889 35.8744 58.8812 35.8822C58.8712 35.8922 58.8612 35.9033 58.8512 35.9133C58.8334 35.9322 58.8167 35.9533 58.8012 35.9733C58.8001 35.9744 58.799 35.9767 58.7978 35.9789C58.7945 35.9833 58.7923 35.9878 58.7889 35.9922C58.7767 36.01 58.7645 36.0267 58.7534 36.0456C58.7478 36.0544 58.7434 36.0644 58.739 36.0733C58.7323 36.0856 58.7256 36.0978 58.7189 36.11C58.7145 36.1189 58.709 36.1278 58.7045 36.1367C58.6978 36.1522 58.6923 36.1689 58.6867 36.1844C58.6823 36.1956 58.6778 36.2067 58.6734 36.2189C58.6612 36.2556 58.6512 36.2922 58.6456 36.33C58.6378 36.3811 58.6356 36.4333 58.639 36.4856L58.6856 37.1722L61.0878 40.4467L61.0412 39.76C61.0378 39.7078 61.0401 39.6556 61.0478 39.6044C61.0534 39.5667 61.0634 39.53 61.0756 39.4933C61.0789 39.4822 61.0845 39.4711 61.0889 39.4589C61.0989 39.4333 61.109 39.4089 61.1212 39.3844C61.1278 39.3722 61.1345 39.36 61.1412 39.3478C61.1567 39.32 61.1734 39.2933 61.1923 39.2667C61.1956 39.2622 61.1978 39.2578 61.2012 39.2533C61.2267 39.22 61.2534 39.1867 61.2834 39.1567C61.3123 39.1267 61.3434 39.1 61.3767 39.0733C61.3812 39.07 61.3867 39.0656 61.3912 39.0622C61.4223 39.0389 61.4556 39.0167 61.4901 38.9967C61.4945 38.9944 61.4989 38.9922 61.5023 38.99C61.5323 38.9744 61.5623 38.96 61.5945 38.9478C61.6067 38.9422 61.6201 38.9378 61.6323 38.9333C61.6689 38.92 61.7067 38.9089 61.7467 38.9C61.8034 38.8889 61.8578 38.8833 61.9123 38.8822C62.0823 38.8822 62.2356 38.94 62.3512 39.04C62.3823 39.07 62.4112 39.1011 62.4367 39.1356Z" fill="#D0D5DD"/>
<path d="M61.0867 40.6678C61.0178 40.6678 60.95 40.6356 60.9078 40.5767L58.5056 37.3011C58.4811 37.2667 58.4656 37.2267 58.4634 37.1845L58.4167 36.4978C58.4123 36.4278 58.4145 36.3589 58.4256 36.2922C58.4334 36.2467 58.4445 36.1989 58.4611 36.1467C58.4656 36.1334 58.47 36.1211 58.4745 36.1089L58.4811 36.0911C58.4867 36.0745 58.4934 36.0578 58.5011 36.0411C58.5067 36.03 58.5122 36.0189 58.5178 36.0078C58.5267 35.9911 58.5345 35.9756 58.5434 35.9589C58.55 35.9456 58.5556 35.9356 58.5623 35.9245C58.5767 35.9011 58.5922 35.8789 58.6078 35.8578C58.61 35.8545 58.6122 35.8511 58.6156 35.8467C58.6167 35.8445 58.6189 35.8422 58.62 35.84C58.6434 35.8089 58.6645 35.7845 58.6856 35.76C58.6978 35.7467 58.71 35.7333 58.7223 35.7211C58.7311 35.7122 58.7411 35.7011 58.7523 35.6922C58.7745 35.6711 58.7967 35.6522 58.82 35.6334C58.8234 35.6311 58.8345 35.6222 58.8378 35.62L58.8634 35.6011C58.8723 35.5945 58.8823 35.5867 58.8923 35.58C58.9189 35.5622 58.9456 35.5456 58.9723 35.53C58.9767 35.5278 58.9834 35.5234 58.9878 35.5222L58.9967 35.5178C59.0178 35.5067 59.0411 35.4933 59.0656 35.4822C59.0778 35.4767 59.09 35.4722 59.1023 35.4678C59.1245 35.4589 59.14 35.4534 59.1567 35.4478C59.1678 35.4434 59.1778 35.4389 59.1889 35.4356C59.2256 35.4245 59.2623 35.4145 59.2989 35.4067C59.3667 35.3934 59.4334 35.3856 59.5045 35.3845C59.7289 35.3845 59.9356 35.46 60.0934 35.5967C60.1389 35.6367 60.1789 35.6811 60.2134 35.7278L62.6145 39.0022C62.6145 39.0022 62.6145 39.0033 62.6156 39.0033C62.6878 39.1022 62.6667 39.2411 62.5678 39.3145C62.4689 39.3867 62.33 39.3656 62.2567 39.2667C62.2411 39.2456 62.2234 39.2256 62.2034 39.2078C62.1267 39.1411 62.0234 39.1045 61.9111 39.1045C61.8711 39.1056 61.8289 39.11 61.7889 39.1178C61.7656 39.1222 61.74 39.13 61.7045 39.1422C61.6945 39.1456 61.6845 39.15 61.6756 39.1534C61.6523 39.1622 61.6289 39.1734 61.6067 39.1845C61.6045 39.1856 61.5956 39.19 61.5934 39.1911C61.5734 39.2022 61.5489 39.2189 61.5223 39.2378L61.3745 39.0711L61.5111 39.2467C61.4834 39.2678 61.4611 39.2889 61.44 39.31C61.4178 39.3334 61.3967 39.3578 61.3767 39.3845L61.37 39.3945C61.3567 39.4133 61.3445 39.4333 61.3323 39.4545C61.3278 39.4633 61.3223 39.4722 61.3178 39.4822C61.3089 39.4989 61.3011 39.5178 61.2945 39.5356L61.2889 39.55C61.2756 39.5889 61.2689 39.6145 61.2656 39.6367C61.26 39.6689 61.2589 39.7056 61.2611 39.7422L61.3078 40.4289C61.3145 40.5278 61.2556 40.6189 61.1623 40.6522C61.1378 40.6633 61.1123 40.6678 61.0867 40.6678ZM58.9023 37.0911L60.8167 39.7011C60.8167 39.6567 60.8211 39.6122 60.8278 39.5689C60.8356 39.5233 60.8467 39.4756 60.8645 39.4233C60.8678 39.4111 60.8734 39.4 60.8778 39.3878C60.8934 39.3467 60.9067 39.3156 60.9223 39.2845C60.93 39.2678 60.9389 39.2534 60.9467 39.2378C60.9667 39.2022 60.9878 39.1689 61.0111 39.1356C61.0145 39.1311 61.0178 39.1245 61.0223 39.1189C61.0534 39.0767 61.0889 39.0356 61.1245 38.9989C61.1578 38.9645 61.1956 38.9311 61.2389 38.8967C61.24 38.8956 61.2511 38.8878 61.2523 38.8867C61.2989 38.8522 61.3389 38.8256 61.38 38.8022C61.3834 38.8 61.3934 38.7956 61.3967 38.7934C61.4323 38.7745 61.47 38.7567 61.51 38.7411C61.5267 38.7345 61.5423 38.7289 61.5578 38.7234C61.6111 38.7045 61.6556 38.6922 61.7 38.6822C61.7389 38.6745 61.7767 38.6689 61.8167 38.6656L59.8556 35.9922C59.84 35.9711 59.8223 35.9511 59.8011 35.9333C59.7245 35.8678 59.6211 35.83 59.5089 35.83C59.4689 35.8311 59.4267 35.8356 59.3867 35.8433C59.3656 35.8478 59.3434 35.8533 59.3223 35.86C59.3178 35.8622 59.31 35.8656 59.3034 35.8678C59.2934 35.8711 59.2834 35.8756 59.2745 35.8789L59.2523 35.8878C59.2334 35.8956 59.2189 35.9034 59.2056 35.9111C59.2034 35.9122 59.1945 35.9167 59.1922 35.9178C59.1911 35.9189 59.1889 35.92 59.1878 35.92C59.1734 35.9289 59.1578 35.9378 59.1445 35.9478L59.1222 35.9645L58.9745 35.7978L59.1123 35.9722C59.11 35.9745 59.1011 35.9811 59.0989 35.9822C59.0867 35.9922 59.0734 36.0045 59.06 36.0167L59.0411 36.0356C59.0323 36.0445 59.0245 36.0522 59.0178 36.06C59.0056 36.0734 58.9945 36.0867 58.9834 36.1011C58.9811 36.1034 58.98 36.1067 58.9789 36.1078C58.9767 36.11 58.9734 36.1167 58.9711 36.1189C58.9623 36.1322 58.9523 36.1445 58.9434 36.1589L58.9334 36.1789C58.9278 36.1889 58.9234 36.1967 58.9189 36.2056L58.9078 36.2267C58.9067 36.23 58.9045 36.2345 58.9034 36.24L58.8911 36.2745C58.8778 36.3145 58.8711 36.3389 58.8678 36.3622C58.8623 36.3945 58.8611 36.4311 58.8634 36.4678L58.9023 37.0911Z" fill="#F9FAFB"/>
<path d="M63.2845 39.2988C63.2811 39.2444 63.2734 39.1911 63.2634 39.1388C63.2634 39.1366 63.2622 39.1344 63.2611 39.1322C63.2489 39.0744 63.2345 39.0177 63.2145 38.9633C63.1978 38.9177 63.1789 38.8733 63.1567 38.8299C63.1556 38.8266 63.1534 38.8244 63.1511 38.8211C63.1456 38.8099 63.1378 38.7988 63.1323 38.7877C63.1189 38.7644 63.1056 38.7399 63.0911 38.7177C63.0823 38.7044 63.0723 38.6899 63.0623 38.6766L60.66 35.4022C60.6856 35.4377 60.7078 35.4755 60.73 35.5133C60.7367 35.5244 60.7434 35.5344 60.7489 35.5466C60.7734 35.5922 60.7945 35.6399 60.8123 35.6888C60.8323 35.7433 60.8467 35.7988 60.8589 35.8577C60.87 35.9111 60.8778 35.9666 60.8811 36.0233L60.9589 37.1699L63.3611 40.4444L63.2845 39.2988Z" fill="#D0D5DD"/>
<path d="M63.3623 40.6677C63.2934 40.6677 63.2257 40.6355 63.1834 40.5766L60.7812 37.3011C60.7568 37.2666 60.7412 37.2266 60.739 37.1844L60.6612 36.0377C60.6579 35.9922 60.6523 35.9477 60.6423 35.9011C60.6323 35.8522 60.6201 35.8055 60.6045 35.7633C60.5912 35.7266 60.5745 35.6889 60.5534 35.6489L60.5379 35.6233C60.5201 35.5922 60.5012 35.56 60.4823 35.5333C60.4101 35.4344 60.4312 35.2955 60.5301 35.2222C60.629 35.15 60.7679 35.1711 60.8412 35.27C60.8412 35.27 60.8412 35.2711 60.8423 35.2711L63.2434 38.5455C63.2545 38.5611 63.2668 38.5777 63.2779 38.5944C63.2934 38.6177 63.3068 38.6411 63.3201 38.6655L63.3279 38.6788C63.3368 38.6933 63.3423 38.7033 63.3479 38.7122C63.3512 38.7177 63.3545 38.7244 63.3568 38.7277C63.3834 38.7788 63.4068 38.8322 63.4268 38.8866C63.449 38.9477 63.4668 39.0122 63.4812 39.08C63.4834 39.0866 63.4845 39.0933 63.4856 39.0989C63.4968 39.1566 63.5057 39.22 63.509 39.2833L63.5868 40.43C63.5934 40.5288 63.5345 40.62 63.4412 40.6533C63.4134 40.6633 63.3879 40.6677 63.3623 40.6677ZM61.1779 37.0911L63.089 39.6966L63.0634 39.3144C63.0612 39.2722 63.0556 39.2311 63.0479 39.1911C63.0468 39.1889 63.0468 39.1855 63.0456 39.1833C63.0345 39.1288 63.0223 39.0833 63.0068 39.0411C62.9945 39.0066 62.979 38.9722 62.9623 38.9389C62.9601 38.9344 62.9568 38.9288 62.9545 38.9255L62.9301 38.8844C62.9223 38.8711 62.9145 38.8566 62.9057 38.8433C62.8979 38.8322 62.8901 38.8211 62.8823 38.81L61.1312 36.4222L61.1779 37.0911Z" fill="#F9FAFB"/>
<path d="M47.2223 37.1711H56.3345L56.5578 40.4444L46.3667 42.5322L47.2223 37.1711Z" fill="#F7F9FC"/>
<path d="M46.3667 42.7544C46.31 42.7544 46.2545 42.7322 46.2133 42.6933C46.1611 42.6433 46.1356 42.57 46.1478 42.4978L47.0033 37.1355C47.02 37.0278 47.1133 36.9478 47.2233 36.9478H56.3356C56.4522 36.9478 56.5489 37.0378 56.5578 37.1544L56.7811 40.4278C56.7889 40.5389 56.7133 40.6378 56.6045 40.6611L46.4133 42.75C46.3967 42.7533 46.3811 42.7544 46.3667 42.7544ZM47.4111 37.3933L46.6367 42.2511L56.3233 40.2655L56.1278 37.3933H47.4111Z" fill="#F9FAFB"/>
<path d="M56.5578 40.4444L58.96 43.7188L48.7689 45.8077L46.3667 42.5322L56.5578 40.4444Z" fill="#98A2B3"/>
<path d="M48.7689 46.03C48.6989 46.03 48.6323 45.9966 48.59 45.9388L46.1878 42.6633C46.1434 42.6022 46.1323 42.5222 46.16 42.4522C46.1878 42.3811 46.2489 42.33 46.3223 42.3144L56.5134 40.2255C56.5978 40.2077 56.6856 40.2422 56.7367 40.3122L59.1389 43.5877C59.1834 43.6488 59.1945 43.7288 59.1667 43.7988C59.1389 43.87 59.0778 43.9211 59.0045 43.9366L48.8134 46.0255C48.7989 46.0288 48.7834 46.03 48.7689 46.03ZM46.7512 42.6811L48.8645 45.5622L58.5767 43.5722L56.4634 40.6911L46.7512 42.6811Z" fill="#F9FAFB"/>
<path d="M58.1556 47.7922C57.9222 47.5878 57.7711 47.2989 57.7478 46.9522L57.2933 40.2922L58.14 40.1189L58.37 43.4833C58.3811 43.6478 58.5133 43.76 58.6811 43.76C58.7067 43.76 58.7333 43.7578 58.7611 43.7511C58.9644 43.7089 59.1189 43.5222 59.1056 43.3322L58.8756 39.9678L60.3855 39.6578L60.8411 46.3178C60.8478 46.4256 60.8422 46.5311 60.8256 46.6367C60.7711 46.9756 60.5978 47.2978 60.3467 47.5544C60.0933 47.8111 59.7644 48.0011 59.3933 48.0778C59.28 48.1 59.1667 48.1122 59.0578 48.1122C58.7056 48.1133 58.39 47.9967 58.1556 47.7922Z" fill="#D0D5DD"/>
<path d="M59.0555 48.3355C58.66 48.3355 58.2889 48.2022 58.01 47.96L58.0089 47.9589C57.72 47.7055 57.5533 47.3622 57.5266 46.9678L57.0722 40.3078C57.0644 40.1966 57.14 40.0978 57.2489 40.0744L58.0955 39.9011C58.1578 39.8878 58.2233 39.9033 58.2744 39.9422C58.3255 39.9811 58.3578 40.04 58.3611 40.1044L58.5911 43.4689C58.5955 43.5311 58.6555 43.5378 58.6811 43.5378C58.6922 43.5378 58.7044 43.5366 58.7166 43.5344C58.8189 43.5133 58.8889 43.4189 58.8844 43.3489L58.6544 39.9844C58.6466 39.8733 58.7222 39.7744 58.8311 39.7511L60.3411 39.4411C60.4033 39.4278 60.4689 39.4433 60.52 39.4822C60.5711 39.5211 60.6033 39.58 60.6066 39.6444L61.0622 46.3044C61.07 46.43 61.0633 46.5533 61.0444 46.6733C60.9844 47.0489 60.7922 47.4178 60.5044 47.7122C60.2089 48.0111 59.84 48.2133 59.4366 48.2978C59.3078 48.3233 59.18 48.3355 59.0555 48.3355ZM58.3011 47.6255C58.5655 47.8544 58.95 47.9422 59.3478 47.8622C59.6633 47.7966 59.9533 47.6366 60.1866 47.4011C60.41 47.1733 60.5589 46.89 60.6044 46.6044C60.6189 46.5155 60.6233 46.4255 60.6178 46.3344L60.18 39.93L59.11 40.1489L59.3266 43.32C59.3478 43.6211 59.1178 43.9066 58.8055 43.9711C58.7644 43.98 58.7222 43.9844 58.6811 43.9844C58.3911 43.9844 58.1678 43.7811 58.1478 43.5011L57.9355 40.39L57.5289 40.4733L57.97 46.9389C57.9889 47.2133 58.1033 47.4511 58.3011 47.6255Z" fill="#F9FAFB"/>
<path d="M57.08 37.1711H57.9389L58.14 40.12L57.2933 40.2933L57.08 37.1711Z" fill="#F7F9FC"/>
<path d="M57.2933 40.5156C57.2455 40.5156 57.1977 40.5 57.1588 40.47C57.1077 40.4311 57.0755 40.3722 57.0722 40.3078L56.8588 37.1856C56.8544 37.1245 56.8766 37.0634 56.9177 37.0189C56.9599 36.9745 57.0188 36.9489 57.0799 36.9489H57.9377C58.0544 36.9489 58.1511 37.0389 58.1599 37.1556L58.3611 40.1045C58.3688 40.2156 58.2933 40.3145 58.1844 40.3378L57.3377 40.5111C57.3233 40.5145 57.3088 40.5156 57.2933 40.5156ZM57.3177 37.3934L57.4977 40.0245L57.9044 39.9411L57.7299 37.3934H57.3177Z" fill="#F9FAFB"/>
<path d="M64.9666 40.6678C64.8977 40.6678 64.8299 40.6356 64.7877 40.5767L62.3854 37.3011C62.361 37.2667 62.3455 37.2267 62.3432 37.1844L62.2099 35.2333C62.2066 35.1789 62.201 35.1256 62.1932 35.0722L62.1854 35.0222C62.1799 34.9878 62.1743 34.9522 62.1677 34.9178C62.161 34.8833 62.1521 34.85 62.1432 34.8167L62.1288 34.7567C62.1143 34.7044 62.0977 34.6522 62.0788 34.6022C62.0521 34.53 62.0199 34.4544 61.9788 34.3722L61.9643 34.3422C61.9321 34.2811 61.8966 34.2189 61.8566 34.1589C61.8332 34.1233 61.8143 34.0944 61.7932 34.0667C61.721 33.9678 61.7421 33.8289 61.841 33.7556C61.881 33.7267 61.9266 33.7122 61.9721 33.7122C62.041 33.7122 62.1077 33.7433 62.151 33.8033L64.5532 37.0789C64.5754 37.1089 64.5966 37.14 64.6177 37.1711C64.621 37.1767 64.6299 37.1911 64.6332 37.1967C64.6766 37.2633 64.7199 37.3356 64.7566 37.4067C64.761 37.4133 64.7643 37.42 64.7677 37.4278C64.771 37.4344 64.7755 37.4444 64.7799 37.4556C64.8266 37.5478 64.8655 37.6389 64.8977 37.7267C64.9199 37.7878 64.9399 37.85 64.9577 37.9133C64.9621 37.9289 64.9654 37.9433 64.9688 37.9589L64.9732 37.9789C64.9843 38.0211 64.9943 38.0633 65.0032 38.1078C65.0032 38.1089 65.0055 38.1156 65.0066 38.1222C65.0121 38.1489 65.0166 38.1767 65.0199 38.2044C65.0199 38.2044 65.0321 38.2778 65.0332 38.2922C65.0421 38.3544 65.0477 38.4178 65.0521 38.4822L65.1855 40.4322C65.1921 40.5311 65.1332 40.6222 65.0399 40.6556C65.0177 40.6633 64.9921 40.6678 64.9666 40.6678Z" fill="#D0D5DD"/>
<path d="M61.9722 33.9367L64.3744 37.2122C64.3944 37.24 64.4144 37.2678 64.4333 37.2967C64.4377 37.3022 64.4399 37.3089 64.4444 37.3144C64.4866 37.38 64.5266 37.4467 64.5633 37.5167C64.5655 37.5211 64.5677 37.5245 64.5699 37.5289C64.5733 37.5356 64.5755 37.5433 64.5799 37.5511C64.621 37.6333 64.6588 37.7167 64.6899 37.8045C64.7099 37.86 64.7277 37.9178 64.7444 37.9756C64.7499 37.9956 64.7544 38.0156 64.7588 38.0356C64.7688 38.0745 64.7788 38.1133 64.7866 38.1533C64.7877 38.1578 64.7888 38.1622 64.7899 38.1667C64.7966 38.2 64.801 38.2333 64.8066 38.2667C64.8099 38.2856 64.8133 38.3033 64.8155 38.3222C64.8233 38.38 64.8288 38.4378 64.8333 38.4967L64.9666 40.4478L62.5644 37.1733L62.431 35.2222C62.4266 35.1633 62.421 35.1045 62.4133 35.0478C62.411 35.0289 62.4066 35.0111 62.4044 34.9922C62.3988 34.9545 62.3922 34.9167 62.3844 34.8789C62.3766 34.8389 62.3666 34.8 62.3566 34.7611C62.351 34.7411 62.3477 34.7211 62.3422 34.7022C62.3255 34.6445 62.3077 34.5867 62.2877 34.5311C62.2555 34.4433 62.2188 34.36 62.1777 34.2778C62.1722 34.2667 62.1666 34.2556 62.161 34.2445C62.1244 34.1745 62.0844 34.1078 62.0422 34.0422C62.0188 34.0045 61.9966 33.97 61.9722 33.9367ZM62.331 33.6733L61.9722 33.9367L61.6144 34.2C61.6333 34.2256 61.651 34.2522 61.6677 34.2789C61.7055 34.3378 61.7388 34.3922 61.7666 34.4467L61.7699 34.4533L61.7799 34.4733C61.8177 34.5489 61.8477 34.6167 61.8699 34.68C61.8699 34.6811 61.871 34.6822 61.871 34.6822C61.8866 34.7256 61.901 34.7711 61.9144 34.8189C61.9155 34.8245 61.9166 34.83 61.9188 34.8356C61.921 34.8467 61.9244 34.8567 61.9266 34.8678C61.9355 34.9022 61.9433 34.9333 61.9499 34.9656C61.9566 34.9956 61.961 35.0267 61.9655 35.0578L61.9699 35.0878C61.971 35.0933 61.9722 35.0989 61.9722 35.1045C61.9788 35.1556 61.9833 35.2033 61.9866 35.25L62.1199 37.2011C62.1255 37.2856 62.1555 37.3656 62.2055 37.4333L64.6077 40.7078C64.6933 40.8245 64.8277 40.8889 64.9666 40.8889C65.0177 40.8889 65.0688 40.88 65.1188 40.8622C65.3044 40.7945 65.4233 40.6122 65.4099 40.4145L65.2766 38.4633C65.2722 38.3978 65.2655 38.3289 65.2566 38.26C65.2544 38.2422 65.251 38.2256 65.2488 38.2078L65.2466 38.1933L65.2433 38.1733C65.2388 38.1411 65.2333 38.1078 65.2266 38.0767C65.2255 38.0711 65.2233 38.0622 65.221 38.0522C65.211 38.0067 65.201 37.9644 65.1899 37.9222L65.1866 37.9067C65.1822 37.8878 65.1777 37.87 65.1733 37.8522C65.1533 37.7822 65.1321 37.7145 65.1088 37.65C65.1077 37.6489 65.1077 37.6467 65.1066 37.6456C65.0733 37.5533 65.0333 37.4611 64.9833 37.3611C64.9777 37.3478 64.9722 37.3345 64.9655 37.3222C64.9622 37.3156 64.9566 37.3067 64.951 37.2967C64.9122 37.2233 64.8699 37.1511 64.8233 37.0789C64.8166 37.0678 64.8099 37.0567 64.8033 37.0456C64.781 37.0133 64.7577 36.98 64.7344 36.9467L62.331 33.6733Z" fill="#F9FAFB"/>
<path d="M58.6844 37.1711H60.2156L60.3856 39.66L58.8756 39.9689L58.6844 37.1711Z" fill="#F7F9FC"/>
<path d="M58.8756 40.1911C58.8278 40.1911 58.78 40.1756 58.7411 40.1456C58.69 40.1067 58.6578 40.0478 58.6544 39.9834L58.4633 37.1856C58.4589 37.1245 58.4811 37.0634 58.5222 37.0189C58.5644 36.9745 58.6233 36.9489 58.6844 36.9489H60.2144C60.3311 36.9489 60.4278 37.0389 60.4367 37.1556L60.6067 39.6445C60.6144 39.7556 60.5389 39.8545 60.43 39.8778L58.92 40.1867C58.9056 40.19 58.89 40.1911 58.8756 40.1911ZM58.9222 37.3934L59.08 39.7011L60.15 39.4822L60.0078 37.3945H58.9222V37.3934Z" fill="#F9FAFB"/>
<path d="M60.9601 37.1711H61.819L61.9668 39.3355L61.1201 39.5089L60.9601 37.1711Z" fill="#F7F9FC"/>
<path d="M61.1201 39.7311C61.0723 39.7311 61.0245 39.7156 60.9856 39.6856C60.9345 39.6467 60.9023 39.5878 60.899 39.5234L60.739 37.1856C60.7345 37.1245 60.7567 37.0634 60.7978 37.0189C60.8401 36.9745 60.899 36.9489 60.9601 36.9489H61.819C61.9356 36.9489 62.0323 37.0389 62.0412 37.1556L62.189 39.32C62.1967 39.4311 62.1212 39.53 62.0123 39.5534L61.1656 39.7267C61.1501 39.73 61.1345 39.7311 61.1201 39.7311ZM61.1979 37.3934L61.3245 39.2411L61.7323 39.1578L61.6123 37.3945H61.1979V37.3934Z" fill="#F9FAFB"/>
<path d="M62.5643 37.1711H83.3865L77.5032 74.0611H68.0077L66.5465 83.2211L66.3566 83.3789H65.3077C66.0577 82.9555 66.5521 82.1466 66.4788 81.34L64.931 64.2233H72.2943C72.6154 64.2233 72.9166 63.9722 72.9654 63.6622C73.0154 63.3511 72.7943 63.1011 72.4732 63.1011H64.8299L64.4143 58.5011H73.2077C73.5288 58.5011 73.8299 58.25 73.8799 57.9389C73.9288 57.6289 73.7088 57.3778 73.3877 57.3778H64.3132L63.8977 52.7777H74.121C74.4421 52.7777 74.7432 52.5266 74.7932 52.2155C74.8421 51.9055 74.6221 51.6544 74.301 51.6544H63.8054C63.8199 50.6855 64.6243 49.7589 65.6666 49.5444C66.7632 49.3189 67.5954 48.3089 67.5243 47.2866L67.5088 47.0544H75.0343C75.3554 47.0544 75.6565 46.8033 75.7065 46.4922C75.7554 46.1822 75.5354 45.9311 75.2143 45.9311H67.4321L67.0388 40.1766C66.9788 39.2911 66.2621 38.6866 65.3599 38.6866C65.2199 38.6866 65.0754 38.7011 64.9288 38.7311L62.9454 39.1377L62.7043 39.1866L62.5643 37.1711Z" fill="#F7F9FC"/>
<path d="M66.3566 83.6022H65.3077C65.2066 83.6022 65.1189 83.5344 65.0933 83.4367C65.0677 83.3389 65.1111 83.2367 65.1988 83.1867C65.8955 82.7933 66.3211 82.0589 66.2577 81.3611L64.71 64.2444C64.7044 64.1822 64.7255 64.1211 64.7677 64.0744C64.81 64.0289 64.87 64.0022 64.9322 64.0022H72.2955C72.5077 64.0022 72.7155 63.8311 72.7477 63.6278C72.7611 63.5444 72.7433 63.4711 72.6955 63.4144C72.6455 63.3556 72.5666 63.3233 72.4744 63.3233H64.8311C64.7166 63.3233 64.62 63.2356 64.61 63.1211L64.1944 58.5211C64.1889 58.4589 64.21 58.3978 64.2522 58.3511C64.2944 58.3056 64.3544 58.2789 64.4166 58.2789H73.21C73.4222 58.2789 73.63 58.1067 73.6622 57.9033C73.6755 57.8211 73.6566 57.7456 73.6089 57.69C73.5589 57.6311 73.48 57.5989 73.3889 57.5989H64.3144C64.2 57.5989 64.1033 57.5111 64.0933 57.3967L63.6777 52.7967C63.6722 52.7344 63.6933 52.6733 63.7355 52.6267C63.7777 52.5811 63.8377 52.5544 63.9 52.5544H74.1233C74.3355 52.5544 74.5433 52.3822 74.5755 52.1789C74.5889 52.0967 74.57 52.0211 74.5233 51.9667C74.4733 51.9078 74.3944 51.8756 74.3033 51.8756H63.8077C63.7477 51.8756 63.6911 51.8522 63.65 51.8089C63.6088 51.7656 63.5855 51.7089 63.5866 51.65C63.6033 50.56 64.4789 49.5611 65.6244 49.3256C66.6144 49.1222 67.3689 48.2144 67.3055 47.3011L67.29 47.0689C67.2855 47.0078 67.3077 46.9467 67.3489 46.9022C67.3911 46.8567 67.45 46.8322 67.5111 46.8322H75.0366C75.2489 46.8322 75.4566 46.66 75.4889 46.4567C75.5022 46.3744 75.4833 46.2989 75.4366 46.2433C75.3866 46.1844 75.3077 46.1522 75.2166 46.1522H67.4344C67.3177 46.1522 67.2211 46.0622 67.2122 45.9456L66.8189 40.1911C66.7677 39.4356 66.1689 38.9089 65.3611 38.9089C65.2344 38.9089 65.1044 38.9222 64.9744 38.9489L62.75 39.4056C62.6866 39.4189 62.6222 39.4033 62.5711 39.3644C62.52 39.3256 62.4877 39.2667 62.4844 39.2022L62.3466 37.1878C62.3422 37.1267 62.3644 37.0656 62.4055 37.0211C62.4477 36.9767 62.5066 36.9511 62.5677 36.9511H83.39C83.4555 36.9511 83.5166 36.98 83.5589 37.0289C83.6011 37.0778 83.62 37.1433 83.6089 37.2078L77.7255 74.0978C77.7089 74.2056 77.6155 74.2856 77.5055 74.2856H68.2L66.7689 83.2589C66.76 83.3122 66.7333 83.36 66.6911 83.3944L66.5011 83.5522C66.4589 83.5833 66.4089 83.6022 66.3566 83.6022ZM65.97 83.1578H66.2766L66.3411 83.1044L66.4289 82.5511C66.31 82.77 66.1544 82.9756 65.97 83.1578ZM65.1744 64.4456L66.6733 81.0211L67.7888 74.0267C67.8055 73.9189 67.8989 73.8389 68.0089 73.8389H77.3144L83.1266 37.3933H62.8022L62.9066 38.9167L64.8822 38.5111C65.0411 38.4789 65.2022 38.4622 65.3577 38.4622C66.3933 38.4622 67.1922 39.1756 67.2589 40.1589L67.6377 45.7067H75.2122C75.4333 45.7067 75.6366 45.7967 75.7711 45.9544C75.9044 46.11 75.9589 46.3133 75.9244 46.5256C75.8577 46.9456 75.4655 47.2756 75.0333 47.2756H67.7455C67.82 48.4011 66.9077 49.5156 65.71 49.7611C64.86 49.9356 64.17 50.6456 64.0455 51.4311H74.2989C74.52 51.4311 74.7233 51.5211 74.8577 51.6789C74.9911 51.8344 75.0455 52.0378 75.0111 52.25C74.9444 52.67 74.5522 53 74.12 53H64.14L64.5155 57.1556H73.3866C73.6077 57.1556 73.8111 57.2456 73.9455 57.4022C74.0789 57.5578 74.1333 57.7611 74.0989 57.9733C74.0322 58.3933 73.64 58.7233 73.2077 58.7233H64.6577L65.0333 62.8789H72.4744C72.6955 62.8789 72.8989 62.9689 73.0333 63.1256C73.1655 63.2811 73.22 63.4844 73.1866 63.6967C73.12 64.1167 72.7289 64.4456 72.2955 64.4456H65.1744Z" fill="#F9FAFB"/>
<path d="M75.2123 45.9277C75.5334 45.9277 75.7545 46.1788 75.7045 46.4888C75.6545 46.8 75.3534 47.0511 75.0323 47.0511H67.5067L67.4301 45.9277H75.2123Z" fill="#D0D5DD"/>
<path d="M75.0333 47.2744H67.5077C67.391 47.2744 67.2944 47.1844 67.2855 47.0678L67.2088 45.9444C67.2044 45.8833 67.2266 45.8222 67.2677 45.7778C67.3099 45.7333 67.3688 45.7078 67.4299 45.7078H75.211C75.4321 45.7078 75.6355 45.7978 75.7699 45.9555C75.9033 46.1111 75.9577 46.3144 75.9233 46.5267C75.8566 46.9444 75.4655 47.2744 75.0333 47.2744ZM67.7144 46.83H75.0321C75.2444 46.83 75.4521 46.6578 75.4844 46.4544C75.4977 46.3722 75.4788 46.2967 75.4321 46.2411C75.3821 46.1822 75.3033 46.15 75.2121 46.15H67.6688L67.7144 46.83Z" fill="#D0D5DD"/>
<path d="M74.2989 51.6522C74.62 51.6522 74.8411 51.9033 74.7911 52.2133C74.7411 52.5244 74.44 52.7755 74.1189 52.7755H63.8956L63.8078 51.7999C63.8045 51.7511 63.8033 51.701 63.8033 51.6522H74.2989Z" fill="#D0D5DD"/>
<path d="M74.12 52.9978H63.8966C63.7822 52.9978 63.6855 52.91 63.6755 52.7955L63.5877 51.82C63.5833 51.76 63.5822 51.7044 63.5833 51.6489C63.5855 51.5278 63.6844 51.43 63.8055 51.43H74.3011C74.5222 51.43 74.7255 51.52 74.86 51.6778C74.9933 51.8333 75.0477 52.0367 75.0133 52.2489C74.9444 52.6689 74.5533 52.9978 74.12 52.9978ZM64.0988 52.5533H74.12C74.3322 52.5533 74.54 52.3811 74.5722 52.1778C74.5855 52.0955 74.5666 52.02 74.52 51.9644C74.47 51.9055 74.3911 51.8733 74.3 51.8733H64.0388L64.0988 52.5533Z" fill="#D0D5DD"/>
<path d="M73.3867 57.3766C73.7078 57.3766 73.9289 57.6278 73.8789 57.9378C73.8289 58.2489 73.5278 58.5 73.2067 58.5H64.4134L64.3123 57.3766H73.3867Z" fill="#D0D5DD"/>
<path d="M73.2068 58.7222H64.4134C64.299 58.7222 64.2023 58.6344 64.1923 58.52L64.0912 57.3966C64.0857 57.3344 64.1068 57.2733 64.149 57.2266C64.1912 57.1811 64.2512 57.1544 64.3134 57.1544H73.3879C73.609 57.1544 73.8123 57.2444 73.9468 57.4022C74.0801 57.5578 74.1345 57.7611 74.1001 57.9733C74.0312 58.3933 73.6401 58.7222 73.2068 58.7222ZM64.6168 58.2778H73.2068C73.419 58.2778 73.6268 58.1055 73.659 57.9022C73.6723 57.82 73.6534 57.7444 73.6056 57.6889C73.5556 57.63 73.4768 57.5978 73.3856 57.5978H64.5556L64.6168 58.2778Z" fill="#D0D5DD"/>
<path d="M72.4734 63.1011C72.7945 63.1011 73.0156 63.3511 72.9656 63.6622C72.9168 63.9722 72.6156 64.2233 72.2945 64.2233H64.9312L64.8301 63.1011H72.4734Z" fill="#D0D5DD"/>
<path d="M72.2945 64.4455H64.9311C64.8167 64.4455 64.72 64.3577 64.71 64.2433L64.6089 63.1211C64.6034 63.0589 64.6245 62.9977 64.6667 62.9511C64.7089 62.9055 64.7689 62.8788 64.8311 62.8788H72.4745C72.6956 62.8788 72.8989 62.9688 73.0334 63.1255C73.1656 63.2811 73.22 63.4844 73.1867 63.6966C73.1189 64.1166 72.7267 64.4455 72.2945 64.4455ZM65.1345 64.0011H72.2945C72.5067 64.0011 72.7145 63.83 72.7467 63.6266C72.76 63.5433 72.7422 63.47 72.6945 63.4133C72.6445 63.3544 72.5656 63.3222 72.4734 63.3222H65.0734L65.1345 64.0011Z" fill="#D0D5DD"/>
<path d="M83.3867 37.1711L85.789 40.4455L79.9056 77.3366L77.5034 74.0611L83.3867 37.1711Z" fill="#E4E7EC"/>
<path d="M79.9056 77.5589C79.8356 77.5589 79.7689 77.5255 79.7267 77.4678L77.3245 74.1922C77.2889 74.1444 77.2745 74.0844 77.2845 74.0255L83.1678 37.1356C83.1822 37.0467 83.2478 36.9755 83.3345 36.9544C83.4211 36.9333 83.5134 36.9667 83.5656 37.0389L85.9678 40.3144C86.0034 40.3622 86.0178 40.4222 86.0078 40.4811L80.1245 77.3711C80.11 77.46 80.0445 77.5311 79.9578 77.5522C79.94 77.5567 79.9234 77.5589 79.9056 77.5589ZM77.7378 74.0044L79.77 76.7755L85.5556 40.5022L83.5234 37.7311L77.7378 74.0044Z" fill="#F9FAFB"/>
<path d="M77.5033 74.0612L66.5477 83.2212L68.0077 74.0612H77.5033Z" fill="#D0D5DD"/>
<path d="M66.5477 83.4433C66.5099 83.4433 66.4721 83.4333 66.4377 83.4144C66.3566 83.3689 66.3133 83.2778 66.3277 83.1866L67.7888 74.0266C67.8055 73.9189 67.8988 73.8389 68.0088 73.8389H77.5044C77.5977 73.8389 77.681 73.8978 77.7133 73.9855C77.7455 74.0733 77.7188 74.1722 77.6466 74.2322L66.691 83.3922C66.6488 83.4267 66.5977 83.4433 66.5477 83.4433ZM68.1977 74.2833L66.8599 82.67L76.891 74.2833H68.1977Z" fill="#F9FAFB"/>
<path d="M77.5033 74.0611L79.9055 77.3367L68.9488 86.4967L66.5477 83.2211L77.5033 74.0611Z" fill="#D0D5DD"/>
<path d="M68.9489 86.7189C68.94 86.7189 68.9311 86.7189 68.9222 86.7177C68.8611 86.71 68.8067 86.6777 68.77 86.6289L66.3678 83.3533C66.2989 83.2589 66.3145 83.1266 66.4045 83.0511L77.36 73.8911C77.4067 73.8522 77.4678 73.8333 77.5289 73.8411C77.59 73.8489 77.6445 73.8811 77.6811 73.93L80.0834 77.2055C80.1522 77.3 80.1367 77.4322 80.0467 77.5077L69.0922 86.6666C69.0522 86.7011 69.0011 86.7189 68.9489 86.7189ZM66.85 83.2577L68.9889 86.1733L79.6034 77.2989L77.4645 74.3833L66.85 83.2577Z" fill="#F9FAFB"/>
<path d="M66.5479 83.2211L68.949 86.4967L66.3568 83.38L66.5479 83.2211Z" fill="#E4E7EC"/>
<path d="M68.9501 86.7189C68.8867 86.7189 68.8234 86.6911 68.779 86.6389L66.1867 83.5222C66.149 83.4767 66.1312 83.4189 66.1367 83.36C66.1423 83.3011 66.1712 83.2467 66.2156 83.21L66.4056 83.0522C66.4523 83.0133 66.5145 82.9956 66.5745 83.0022C66.6356 83.01 66.6901 83.0422 66.7267 83.0911L69.129 86.3656C69.2001 86.4622 69.1812 86.5978 69.0867 86.6722C69.0456 86.7033 68.9979 86.7189 68.9501 86.7189Z" fill="#F9FAFB"/>
<path d="M66.3566 83.3799L68.9488 86.4966L67.71 86.6544L65.3077 83.3799H66.3566Z" fill="#E4E7EC"/>
<path d="M67.71 86.8766C67.64 86.8766 67.5733 86.8433 67.5311 86.7855L65.1289 83.51C65.0789 83.4422 65.0722 83.3533 65.11 83.2777C65.1478 83.2033 65.2244 83.1555 65.3078 83.1555H66.3567C66.4222 83.1555 66.4855 83.1844 66.5278 83.2355L69.12 86.3522C69.1722 86.4144 69.1855 86.5 69.1555 86.5755C69.1255 86.6511 69.0578 86.7044 68.9767 86.7144L67.7367 86.8722C67.7289 86.8755 67.7189 86.8766 67.71 86.8766ZM65.7467 83.6022L67.8122 86.4177L68.52 86.3277L66.2533 83.6022H65.7467Z" fill="#F9FAFB"/>
<path d="M65.6433 83.1511C65.5933 83.1911 65.5411 83.23 65.4878 83.2666C65.4322 83.3044 65.3744 83.3411 65.3155 83.3744C65.3122 83.3766 65.31 83.3777 65.3067 83.38C65.2444 83.4155 65.1811 83.4477 65.1155 83.4766C65.0322 83.5144 64.9455 83.5477 64.8578 83.5755C64.7811 83.6 64.7033 83.62 64.6244 83.6366L39.75 88.7355C39.6033 88.7655 39.4589 88.78 39.3189 88.78C38.7411 88.78 38.2378 88.5322 37.9366 88.12L40.3389 91.3944C40.6411 91.8066 41.1433 92.0544 41.7211 92.0544C41.8611 92.0544 42.0055 92.04 42.1522 92.01L67.0266 86.9111C67.1055 86.8944 67.1844 86.8744 67.26 86.85C67.3478 86.8222 67.4344 86.7888 67.5178 86.7511C67.5833 86.7211 67.6467 86.6888 67.7089 86.6544C67.7122 86.6522 67.7144 86.6511 67.7178 86.6488C67.7767 86.6155 67.8344 86.5788 67.89 86.5411C67.9433 86.5044 67.9955 86.4655 68.0455 86.4255L65.6433 83.1511Z" fill="#667185"/>
<path d="M41.7211 92.2766C41.0788 92.2766 40.5088 92.0033 40.1588 91.5266L37.7566 88.2511C37.6844 88.1522 37.7055 88.0133 37.8044 87.94C37.9033 87.8678 38.0422 87.8889 38.1155 87.9877L38.1166 87.9889C38.3822 88.3489 38.8199 88.5566 39.3188 88.5566C39.4455 88.5566 39.5755 88.5433 39.7055 88.5166L64.5799 83.4177C64.6511 83.4033 64.7222 83.3844 64.7911 83.3622C64.8699 83.3366 64.9488 83.3066 65.0244 83.2722C65.0833 83.2455 65.1411 83.2155 65.1977 83.1844C65.2588 83.15 65.3122 83.1166 65.3622 83.0822C65.4099 83.0489 65.4577 83.0144 65.5033 82.9766C65.5511 82.9389 65.6111 82.9211 65.6711 82.9289C65.7311 82.9366 65.7855 82.9689 65.8222 83.0177L68.2244 86.2922C68.2944 86.3877 68.2777 86.5211 68.1855 86.5966C68.1311 86.6411 68.0744 86.6833 68.0166 86.7233C67.9555 86.7655 67.8922 86.8055 67.8288 86.8411L67.8188 86.8466C67.7511 86.8844 67.6811 86.92 67.6099 86.9522C67.5188 86.9933 67.4233 87.03 67.3277 87.06C67.2433 87.0866 67.1577 87.1089 67.0711 87.1266L42.1966 92.2255C42.0377 92.26 41.8777 92.2766 41.7211 92.2766ZM38.8155 88.9422L40.5177 91.2633C40.7833 91.6244 41.2211 91.8322 41.7211 91.8322C41.8477 91.8322 41.9777 91.8189 42.1077 91.7922L66.9822 86.6933C67.0533 86.6789 67.1244 86.66 67.1933 86.6377C67.2722 86.6122 67.3511 86.5822 67.4266 86.5477C67.4855 86.5211 67.5444 86.4911 67.5999 86.46C67.6488 86.4322 67.6933 86.4055 67.7344 86.3778L65.5955 83.4611C65.5411 83.4978 65.4833 83.5333 65.4266 83.5666C65.4255 83.5666 65.4155 83.5722 65.4155 83.5733C65.3488 83.6111 65.2788 83.6466 65.2077 83.6789C65.1166 83.72 65.0211 83.7566 64.9255 83.7866C64.8411 83.8133 64.7555 83.8355 64.6688 83.8533L39.7944 88.9522C39.4599 89.0211 39.1211 89.0166 38.8155 88.9422Z" fill="#F9FAFB"/>
<path d="M66.4789 81.3399C66.5522 82.1466 66.0578 82.9555 65.3078 83.3788C65.0978 83.4977 64.8678 83.5855 64.6255 83.6355L39.7511 88.7344C39.6044 88.7644 39.46 88.7788 39.32 88.7788C38.4278 88.7788 37.7166 88.1888 37.6422 87.3166L34.2155 46.9011C34.1455 45.8788 34.9778 44.8666 36.0744 44.6422L46.3678 42.5322L56.5589 40.4433L57.0133 47.1044C57.0489 47.6111 57.2733 48.0411 57.6166 48.3422C57.9611 48.6422 58.4255 48.8155 58.9444 48.8166C59.1055 48.8166 59.2711 48.7988 59.44 48.7644C59.9833 48.6533 60.4744 48.3711 60.8466 47.9933C61.2178 47.6155 61.4744 47.1399 61.5544 46.6377C61.5789 46.4833 61.5866 46.3255 61.5755 46.1688L61.1211 39.5088L61.9678 39.3355L62.2489 43.4644C62.26 43.6288 62.3933 43.7399 62.5611 43.7399C62.8433 43.6899 62.9978 43.5022 62.9844 43.3133L62.7022 39.1844L62.9433 39.1355L64.9266 38.7288C65.0733 38.6988 65.2178 38.6844 65.3578 38.6844C66.2611 38.6844 66.9778 39.2888 67.0366 40.1744L67.43 45.9288L67.5066 47.0522L67.5222 47.2844C67.5922 48.3066 66.76 49.3177 65.6644 49.5422C64.6222 49.7566 63.8178 50.6822 63.8033 51.6522C63.8022 51.7011 63.8033 51.7511 63.8078 51.7999L63.8955 52.7755L64.3111 57.3755L64.4122 58.4988L64.8278 63.0988L64.9289 64.2211L66.4789 81.3399Z" fill="#D0D5DD"/>
<path d="M39.32 89.0011C38.3012 89.0011 37.5034 88.3011 37.4212 87.3356L33.9945 46.92C33.9167 45.7889 34.83 44.6711 36.03 44.4244L56.5145 40.2267C56.5778 40.2133 56.6423 40.2289 56.6934 40.2678C56.7445 40.3067 56.7767 40.3656 56.78 40.43L57.2345 47.0911C57.2645 47.52 57.4523 47.9056 57.7623 48.1767C58.0712 48.4456 58.4912 48.5944 58.9445 48.5956C59.0878 48.5956 59.24 48.58 59.3956 48.5478C59.8745 48.45 60.3334 48.1978 60.6878 47.8389C61.0345 47.4867 61.2634 47.0478 61.3345 46.6044C61.3567 46.4622 61.3634 46.3222 61.3534 46.1867L60.8989 39.5244C60.8912 39.4133 60.9667 39.3144 61.0756 39.2911L61.9223 39.1178C61.9845 39.1044 62.05 39.12 62.1012 39.1589C62.1523 39.1978 62.1845 39.2567 62.1878 39.3211L62.47 43.45C62.4734 43.5011 62.5156 43.5144 62.5445 43.5178C62.6945 43.4856 62.7678 43.4 62.7623 43.33L62.48 39.2011C62.4723 39.09 62.5478 38.9911 62.6567 38.9678L64.8812 38.5111C65.0412 38.4789 65.2012 38.4622 65.3567 38.4622C66.3923 38.4622 67.1912 39.1756 67.2578 40.1589L67.7434 47.27C67.8212 48.3967 66.9078 49.5144 65.7078 49.7611C64.7767 49.9522 64.0378 50.7844 64.0245 51.6567C64.0234 51.7 64.0245 51.7422 64.0278 51.7856L66.6978 81.3211C66.7767 82.19 66.2612 83.0955 65.4145 83.5733C65.1789 83.7067 64.9278 83.8011 64.6678 83.8544L39.7934 88.9533C39.6367 88.9844 39.4767 89.0011 39.32 89.0011ZM56.3534 40.7133L36.1178 44.86C35.1278 45.0633 34.3734 45.9722 34.4367 46.8867L37.8634 87.2989C37.9267 88.04 38.5256 88.5578 39.32 88.5578C39.4467 88.5578 39.5767 88.5444 39.7067 88.5178L64.5812 83.4189C64.7956 83.3744 65.0034 83.2967 65.1989 83.1867C65.8956 82.7933 66.3212 82.06 66.2578 81.3611L63.5867 51.8211C63.5823 51.7611 63.5812 51.7056 63.5823 51.65C63.5989 50.56 64.4756 49.5611 65.6212 49.3256C66.6112 49.1222 67.3656 48.2144 67.3023 47.3011L66.8167 40.19C66.7656 39.4344 66.1667 38.9078 65.3589 38.9078C65.2323 38.9078 65.1023 38.9211 64.9723 38.9478L62.9378 39.3656L63.2067 43.3C63.2289 43.6167 62.9745 43.8944 62.6 43.96C62.5878 43.9622 62.5745 43.9633 62.5612 43.9633C62.2712 43.9633 62.0456 43.76 62.0267 43.48L61.7623 39.6044L61.3545 39.6878L61.7956 46.1544C61.8078 46.3222 61.8 46.4978 61.7723 46.6733C61.6867 47.2067 61.4145 47.7311 61.0034 48.1489C60.5878 48.5711 60.0478 48.8667 59.4834 48.9822C59.2978 49.02 59.1156 49.0389 58.9434 49.0389C58.3823 49.0378 57.8589 48.85 57.4689 48.51C57.0689 48.16 56.8278 47.6667 56.79 47.12L56.3534 40.7133Z" fill="#F9FAFB"/>
<path d="M58.9433 49.0389C58.3833 49.0378 57.86 48.85 57.47 48.51C57.07 48.16 56.8289 47.6667 56.7911 47.12L56.0655 36.4944C56.05 36.27 56.06 36.04 56.0967 35.8122C56.2089 35.1078 56.5689 34.4167 57.1111 33.8667C57.6589 33.3089 58.3722 32.9178 59.12 32.7644C59.36 32.7155 59.5989 32.6911 59.8311 32.6911C60.5666 32.6911 61.2544 32.9378 61.7667 33.3844C62.2911 33.8422 62.6067 34.4889 62.6533 35.2044L63.2066 43.2978C63.2278 43.5989 62.9989 43.8844 62.6855 43.9489C62.6433 43.9567 62.6022 43.9611 62.5622 43.9611C62.2722 43.9611 62.0478 43.7578 62.0278 43.4778L61.4755 35.3844C61.4444 34.9367 61.2578 34.5511 60.9344 34.2689C60.6155 33.99 60.1844 33.8367 59.7189 33.8367C59.5689 33.8367 59.4133 33.8533 59.2555 33.8855C58.7567 33.9878 58.2978 34.24 57.9289 34.6144C57.5733 34.9755 57.3378 35.4255 57.2655 35.8811C57.2422 36.0278 57.2355 36.1733 57.2455 36.3111L57.9711 46.9367C57.99 47.2122 58.1044 47.45 58.3033 47.6244C58.5011 47.7955 58.7689 47.89 59.0567 47.89C59.1511 47.89 59.25 47.88 59.3489 47.86C59.6644 47.7944 59.9544 47.6344 60.1878 47.3989C60.4111 47.1711 60.56 46.8878 60.6055 46.6022C60.62 46.5144 60.6244 46.4233 60.6189 46.3322L59.9255 36.19C59.9178 36.0855 59.8767 35.9978 59.8011 35.9322C59.7255 35.8667 59.6211 35.8289 59.5089 35.8289C59.4689 35.83 59.4267 35.8344 59.3867 35.8422C59.2555 35.87 59.1344 35.9367 59.0378 36.0355C58.9433 36.1311 58.8822 36.2467 58.8633 36.3622C58.8578 36.3944 58.8567 36.4311 58.8589 36.4678L59.3267 43.3167C59.3478 43.6178 59.1178 43.9033 58.8055 43.9678C58.7644 43.9767 58.7222 43.9811 58.6811 43.9811C58.3911 43.9811 58.1678 43.7778 58.1478 43.4978L57.68 36.65C57.6722 36.5355 57.6778 36.4155 57.6967 36.2922C57.7544 35.9278 57.9411 35.57 58.22 35.2867C58.4989 35.0011 58.8655 34.8 59.2511 34.72C59.3789 34.6955 59.5022 34.6822 59.62 34.6822C60.0044 34.6822 60.3633 34.8122 60.6333 35.0467C60.9111 35.2878 61.0778 35.6289 61.1033 36.0067L61.7955 46.1511C61.8078 46.3189 61.8 46.4944 61.7722 46.67C61.6878 47.2033 61.4144 47.7278 61.0033 48.1455C60.5878 48.5667 60.0489 48.8633 59.4833 48.9789C59.2989 49.02 59.1167 49.0389 58.9433 49.0389Z" fill="#D0D5DD"/>
<path d="M59.83 32.9144C60.53 32.9144 61.1555 33.1477 61.62 33.5533C62.0833 33.9577 62.3866 34.5355 62.4311 35.2211L62.5644 37.1722L62.7022 39.1866L62.9844 43.3155C62.9978 43.5033 62.8433 43.6922 62.64 43.7344C62.6133 43.74 62.5866 43.7422 62.5611 43.7422C62.3933 43.7422 62.26 43.6311 62.2489 43.4666L61.9678 39.3377L61.82 37.1733L61.6967 35.3733C61.6611 34.85 61.4333 34.4133 61.08 34.1055C60.7266 33.7966 60.2489 33.6189 59.7189 33.6189C59.5555 33.6189 59.3844 33.6366 59.2111 33.6722C58.6511 33.7877 58.1533 34.0744 57.77 34.4622C57.3878 34.85 57.1266 35.3377 57.0455 35.85C57.02 36.0077 57.0111 36.17 57.0233 36.3311L57.0811 37.1733L57.2944 40.2955L57.7489 46.9555C57.7722 47.3022 57.9233 47.59 58.1566 47.7944C58.3911 47.9977 58.7066 48.1155 59.0566 48.1155C59.1655 48.1155 59.2789 48.1044 59.3922 48.0811C59.7633 48.0044 60.0922 47.8144 60.3455 47.5577C60.5978 47.3011 60.7711 46.9789 60.8244 46.64C60.8411 46.5355 60.8466 46.4289 60.84 46.3211L60.3844 39.6611L60.2144 37.1722L60.1466 36.1777C60.1344 36.0066 60.0611 35.8677 59.9467 35.7677C59.8311 35.6677 59.6778 35.61 59.5078 35.61C59.4533 35.6111 59.3989 35.6166 59.3422 35.6277C59.16 35.6655 59.0022 35.7566 58.8778 35.8833C58.7544 36.0089 58.6689 36.1666 58.6422 36.3311C58.6344 36.3822 58.6322 36.4344 58.6355 36.4866L58.6822 37.1733L58.8733 39.9711L59.1033 43.3355C59.1166 43.5255 58.9622 43.7122 58.7589 43.7544C58.7311 43.76 58.7044 43.7622 58.6789 43.7622C58.5111 43.7622 58.3789 43.65 58.3678 43.4855L58.1378 40.1211L57.9366 37.1722L57.9 36.6377C57.8922 36.5355 57.8989 36.4322 57.9144 36.3311C57.9666 36.0033 58.1344 35.6922 58.3767 35.4466C58.6178 35.2 58.94 35.0155 59.2944 34.9422C59.4044 34.9211 59.5122 34.9089 59.6178 34.9089C59.9578 34.9089 60.26 35.0222 60.4844 35.2189C60.71 35.4144 60.8566 35.6955 60.8789 36.0266L60.9566 37.1733L61.1166 39.5111L61.5711 46.1711C61.5833 46.3277 61.5744 46.4855 61.55 46.64C61.47 47.1422 61.2133 47.6166 60.8422 47.9955C60.47 48.3733 59.9789 48.6555 59.4355 48.7666C59.2666 48.8011 59.1011 48.8189 58.94 48.8189C58.4211 48.8177 57.9555 48.6444 57.6122 48.3444C57.2678 48.0433 57.0444 47.6133 57.0089 47.1066L56.5578 40.4444L56.3344 37.1711L56.2878 36.48C56.2733 36.2689 56.2833 36.0566 56.3166 35.8477C56.4244 35.1722 56.7689 34.5322 57.27 34.0233C57.7711 33.5133 58.4322 33.1333 59.1644 32.9833C59.39 32.9366 59.6133 32.9144 59.83 32.9144ZM59.83 32.47C59.5833 32.47 59.33 32.4955 59.0755 32.5466C58.2833 32.7089 57.53 33.1222 56.9511 33.7111C56.3778 34.2933 55.9955 35.0266 55.8767 35.7766C55.8378 36.0211 55.8266 36.2677 55.8433 36.51L55.89 37.2011L56.1133 40.4744L56.5678 47.1355C56.6111 47.7422 56.8789 48.2889 57.3222 48.6777C57.7533 49.0533 58.3278 49.26 58.9422 49.2622C59.1311 49.2622 59.3278 49.2422 59.5266 49.2011C60.1355 49.0766 60.7167 48.7589 61.1622 48.3066C61.6055 47.8555 61.9 47.2877 61.9922 46.71C62.0233 46.5166 62.0311 46.3244 62.0178 46.1377L61.8522 43.71C61.96 43.9922 62.2344 44.1855 62.5611 44.1855C62.6155 44.1855 62.6711 44.18 62.7266 44.1689C63.15 44.0822 63.4566 43.6933 63.4278 43.2833L63.1455 39.1555L63.0078 37.1411L62.8744 35.19C62.8233 34.4155 62.4811 33.7144 61.9122 33.2177C61.3589 32.7355 60.6189 32.47 59.83 32.47ZM57.4678 36.3277L57.4655 36.2989C57.4566 36.1744 57.4622 36.0477 57.4833 35.9177C57.5489 35.5066 57.7633 35.1 58.0855 34.7711C58.4233 34.4289 58.8433 34.1989 59.2989 34.1044C59.4422 34.0755 59.5822 34.06 59.7178 34.06C60.1289 34.06 60.5089 34.1944 60.7867 34.4366C61.0655 34.68 61.2267 35.0133 61.2522 35.4L61.27 35.6677C61.1878 35.3622 61.0189 35.0889 60.7778 34.88C60.4689 34.61 60.0578 34.4611 59.62 34.4611C59.4878 34.4611 59.35 34.4744 59.2111 34.5022C58.7778 34.5922 58.3711 34.8144 58.0611 35.1322C57.75 35.4477 57.5433 35.8477 57.4778 36.2577C57.4744 36.2822 57.4711 36.3044 57.4678 36.3277ZM58.6811 44.2044C58.7366 44.2044 58.7944 44.1989 58.85 44.1866C59.27 44.1 59.5766 43.7122 59.5489 43.3022L59.3189 39.9377L59.1278 37.14L59.0811 36.4533C59.08 36.4333 59.08 36.4144 59.0833 36.3977C59.0944 36.3289 59.1355 36.2533 59.1955 36.1922C59.2622 36.1233 59.3444 36.0789 59.4344 36.06C59.4566 36.0555 59.4833 36.0522 59.5133 36.0522C59.5711 36.0533 59.62 36.07 59.6566 36.1011C59.6855 36.1266 59.7011 36.16 59.7044 36.2066L59.7722 37.2L59.9422 39.6889L60.3978 46.3489C60.4022 46.42 60.3989 46.4944 60.3866 46.5677C60.3489 46.8077 60.2211 47.0489 60.0289 47.2444C59.8278 47.4489 59.5755 47.5866 59.3022 47.6444C59.2211 47.6611 59.1366 47.6689 59.0566 47.6689C58.8222 47.6689 58.6055 47.5933 58.4478 47.4566C58.2967 47.3233 58.2078 47.1389 58.1922 46.9233L57.9744 43.7311C58.0811 44.0122 58.3555 44.2044 58.6811 44.2044Z" fill="#F9FAFB"/>
<path d="M91.3522 35.74L91.5711 37.11C91.7033 37.9311 92.2667 38.5744 93.0778 38.8278L94.4322 39.25L92.9433 39.6722C92.0522 39.9255 91.2833 40.5689 90.8889 41.39L90.2322 42.76L90.0122 41.39C89.88 40.5689 89.3167 39.9255 88.5056 39.6722L87.1522 39.25L88.64 38.8278C89.5311 38.5744 90.3 37.9311 90.6944 37.11L91.3522 35.74Z" fill="#D0D5DD"/>
<path d="M44.7555 30.3566L44.9233 31.4066C45.0244 32.0366 45.4566 32.53 46.0789 32.7233L47.1166 33.0466L45.9755 33.3711C45.2922 33.5644 44.7022 34.0577 44.4 34.6866L43.8966 35.7377L43.7289 34.6866C43.6277 34.0566 43.1955 33.5644 42.5733 33.3711L41.5355 33.0466L42.6766 32.7233C43.36 32.53 43.95 32.0355 44.2522 31.4066L44.7555 30.3566Z" fill="#D0D5DD"/>
<path d="M73.1034 66.7067L73.1968 67.2922C73.2534 67.6422 73.4945 67.9178 73.8412 68.0256L74.419 68.2056L73.7834 68.3856C73.4023 68.4944 73.0734 68.7689 72.9045 69.1189L72.6234 69.7044L72.5301 69.1189C72.4734 68.7689 72.2334 68.4933 71.8867 68.3856L71.3079 68.2056L71.9445 68.0256C72.3256 67.9167 72.6534 67.6422 72.8223 67.2922L73.1034 66.7067Z" fill="#D0D5DD"/>
<path d="M31.0011 74.5511L31.0944 75.1366C31.1511 75.4877 31.3922 75.7622 31.7389 75.87L32.3167 76.05L31.6811 76.23C31.3 76.3389 30.9711 76.6133 30.8022 76.9644L30.5222 77.55L30.4289 76.9644C30.3733 76.6133 30.1322 76.3389 29.7855 76.23L29.2078 76.05L29.8433 75.87C30.2244 75.7622 30.5533 75.4877 30.7211 75.1366L31.0011 74.5511Z" fill="#D0D5DD"/>
</svg>
