<svg width="120" height="120" viewBox="0 0 120 120" fill="none" xmlns="http://www.w3.org/2000/svg">
<path d="M60 98.1578C82.6553 98.1578 101.021 90.953 101.021 82.0655C101.021 73.1781 82.6553 65.9733 60 65.9733C37.3447 65.9733 18.9789 73.1781 18.9789 82.0655C18.9789 90.953 37.3447 98.1578 60 98.1578Z" fill="#F9FAFB"/>
<path d="M30.4455 64.4368C31.2531 63.8445 31.4989 62.8068 30.9944 62.1189C30.49 61.4311 29.4264 61.3536 28.6188 61.9459C27.8112 62.5382 27.5654 63.5759 28.0699 64.2638C28.5743 64.9516 29.6379 65.0291 30.4455 64.4368Z" fill="#D0D5DD"/>
<path d="M29.2701 64.9989C28.7579 64.9989 28.3079 64.8022 28.0035 64.4456C27.7079 64.0989 27.5868 63.6433 27.6635 63.1633C27.8201 62.18 28.7757 61.38 29.7935 61.38C30.3057 61.38 30.7557 61.5767 31.0601 61.9333C31.3557 62.28 31.4768 62.7356 31.4001 63.2156C31.2435 64.1989 30.2879 64.9989 29.2701 64.9989ZM29.7946 61.7133C28.9335 61.7133 28.1257 62.3878 27.9935 63.2156C27.9323 63.5978 28.0257 63.9578 28.2579 64.2289C28.4979 64.5111 28.8579 64.6656 29.2712 64.6656C30.1323 64.6656 30.9401 63.9911 31.0723 63.1633C31.1335 62.7811 31.0401 62.4211 30.8079 62.15C30.5668 61.8678 30.2079 61.7133 29.7946 61.7133Z" fill="#F9FAFB"/>
<path d="M62.4001 41.3434C62.6612 41.3434 62.8401 41.5478 62.8001 41.8001L62.4723 43.8578C62.4323 44.1101 62.1879 44.3134 61.9268 44.3134H54.3201C54.0601 44.3134 53.8801 44.1089 53.9201 43.8578L54.2479 41.8001C54.2879 41.5478 54.5335 41.3434 54.7935 41.3434H62.4001Z" fill="#F7F9FC"/>
<path d="M61.9268 44.4811H54.3201C54.1445 44.4811 53.9834 44.41 53.8768 44.2856C53.7712 44.1622 53.7279 44.0011 53.7556 43.8334L54.0834 41.7756C54.1368 41.4411 54.449 41.1778 54.7934 41.1778H62.4001C62.5756 41.1778 62.7368 41.2489 62.8423 41.3733C62.9479 41.4967 62.9912 41.6578 62.9634 41.8278L62.6356 43.8856C62.5834 44.2189 62.2712 44.4811 61.9268 44.4811ZM54.7934 41.51C54.6145 41.51 54.4401 41.6545 54.4123 41.8267L54.0845 43.8845C54.0734 43.9556 54.089 44.02 54.1301 44.0678C54.1734 44.1189 54.2412 44.1467 54.3201 44.1467H61.9268C62.1056 44.1467 62.2801 44.0022 62.3079 43.8311L62.6356 41.7733C62.6467 41.7022 62.6312 41.6367 62.589 41.5878C62.5456 41.5367 62.479 41.5089 62.4001 41.5089H54.7934V41.51Z" fill="#F9FAFB"/>
<path d="M30.6922 58.4867H39.5956L38.4178 65.8722L34.8456 61.9234L28.4744 68.0878L24.21 63.0245L15.4133 71.9556L17.5611 58.4867H30.6922ZM29.27 64.8322C30.2111 64.8322 31.0911 64.0967 31.2356 63.1889C31.38 62.2811 30.7356 61.5456 29.7944 61.5456C28.8533 61.5456 27.9733 62.2811 27.8289 63.1889C27.6833 64.0967 28.3289 64.8322 29.27 64.8322Z" fill="#E4E7EC"/>
<path d="M15.4134 72.1223C15.3878 72.1223 15.3622 72.1167 15.3378 72.1045C15.2734 72.0723 15.2367 72.0012 15.2489 71.9301L17.3967 58.4612C17.41 58.3801 17.4789 58.3212 17.5611 58.3212H39.5945C39.6434 58.3212 39.69 58.3423 39.7211 58.3801C39.7523 58.4167 39.7667 58.4667 39.7589 58.5145L38.5811 65.9001C38.5711 65.9634 38.5256 66.0156 38.4645 66.0334C38.4034 66.0512 38.3367 66.0334 38.2934 65.9856L34.8367 62.1645L28.5889 68.2089C28.5556 68.2412 28.51 68.2578 28.4645 68.2556C28.4178 68.2534 28.3756 68.2323 28.3456 68.1967L24.1989 63.2734L15.5311 72.0734C15.5 72.1045 15.4567 72.1223 15.4134 72.1223ZM17.7034 58.6534L15.66 71.4667L24.0911 62.9067C24.1245 62.8734 24.1689 62.8556 24.2167 62.8567C24.2634 62.8589 24.3078 62.8801 24.3378 62.9156L28.4867 67.8423L34.73 61.8023C34.7623 61.7712 34.8056 61.7534 34.8511 61.7556C34.8967 61.7567 34.9389 61.7767 34.9689 61.8101L38.3078 65.5012L39.4 58.6523H17.7034V58.6534ZM29.27 64.9989C28.7578 64.9989 28.3078 64.8023 28.0034 64.4456C27.7078 64.0989 27.5867 63.6434 27.6634 63.1634C27.82 62.1801 28.7756 61.3801 29.7934 61.3801C30.3056 61.3801 30.7556 61.5767 31.06 61.9334C31.3556 62.2801 31.4767 62.7356 31.4 63.2156C31.2434 64.1989 30.2878 64.9989 29.27 64.9989ZM29.7945 61.7134C28.9334 61.7134 28.1256 62.3878 27.9934 63.2156C27.9323 63.5978 28.0256 63.9578 28.2578 64.2289C28.4978 64.5112 28.8578 64.6656 29.2711 64.6656C30.1323 64.6656 30.94 63.9912 31.0722 63.1634C31.1334 62.7812 31.04 62.4212 30.8078 62.1501C30.5667 61.8678 30.2078 61.7134 29.7945 61.7134Z" fill="#F9FAFB"/>
<path d="M34.8444 61.9233L38.4178 65.8722L37.4478 71.9556H15.4133L24.21 63.0244L28.4733 68.0878L34.8444 61.9233Z" fill="#D0D5DD"/>
<path d="M37.4479 72.1223H15.4134C15.3467 72.1223 15.2856 72.0823 15.2601 72.0201C15.2345 71.9578 15.2479 71.8867 15.2956 71.8389L24.0923 62.9078C24.1256 62.8745 24.1701 62.8567 24.2179 62.8578C24.2645 62.86 24.309 62.8812 24.339 62.9167L28.4879 67.8434L34.7312 61.8034C34.7634 61.7723 34.8067 61.7545 34.8523 61.7567C34.8979 61.7578 34.9401 61.7778 34.9701 61.8112L38.5423 65.7601C38.5756 65.7978 38.5912 65.8478 38.5834 65.8978L37.6134 71.9812C37.599 72.0623 37.529 72.1223 37.4479 72.1223ZM15.8112 71.7889H37.3045L38.2401 65.9256L34.8367 62.1634L28.589 68.2078C28.5556 68.2401 28.5101 68.2567 28.4645 68.2545C28.4178 68.2523 28.3756 68.2312 28.3456 68.1956L24.199 63.2723L15.8112 71.7889Z" fill="#F9FAFB"/>
<path d="M94.7411 36.8467L89.2967 46.2656L91.7545 42.0112L90.5822 38.1001L84.54 40.9389L83.2467 36.0101L74.78 40.2412L80.2256 30.8212L94.7411 36.8467ZM87.8267 38.0545C88.1934 37.4201 87.9889 36.6967 87.3689 36.4389C87.22 36.3767 87.06 36.3478 86.8989 36.3478C86.3889 36.3478 85.86 36.6401 85.5811 37.1223C85.2145 37.7567 85.42 38.4801 86.04 38.7378C86.1889 38.8001 86.3478 38.8289 86.51 38.8289C87.02 38.8289 87.5489 38.5367 87.8267 38.0545Z" fill="#E4E7EC"/>
<path d="M89.2968 46.4322C89.269 46.4322 89.2401 46.4256 89.2134 46.41C89.1334 46.3645 89.1068 46.2622 89.1523 46.1822L91.5746 41.99L90.479 38.3333L84.6123 41.09C84.5679 41.1111 84.5157 41.1111 84.4712 41.09C84.4268 41.0689 84.3934 41.0289 84.3801 40.9811L83.139 36.2511L74.8557 40.39C74.789 40.4233 74.7101 40.4089 74.6601 40.3556C74.6101 40.3022 74.6001 40.2211 74.6368 40.1578L80.0823 30.7378C80.1246 30.6656 80.2134 30.6356 80.2901 30.6678L94.8046 36.6933C94.849 36.7122 94.8835 36.7489 94.899 36.7933C94.9146 36.8389 94.909 36.8889 94.8857 36.93L89.4412 46.3489C89.4101 46.4022 89.3546 46.4322 89.2968 46.4322ZM90.5834 37.9345C90.6068 37.9345 90.6301 37.9389 90.6512 37.9489C90.6957 37.9689 90.729 38.0067 90.7423 38.0533L91.8034 41.5956L94.5012 36.9289L80.2968 31.0322L75.2023 39.8456L83.1723 35.8633C83.2179 35.8411 83.2701 35.84 83.3157 35.8611C83.3612 35.8822 83.3957 35.9222 83.4079 35.9711L84.6501 40.7056L90.5112 37.9522C90.5346 37.9389 90.559 37.9345 90.5834 37.9345ZM86.5101 38.9956C86.3223 38.9956 86.1423 38.9611 85.9768 38.8911C85.6512 38.7556 85.4101 38.5011 85.3001 38.1745C85.179 37.8156 85.229 37.4011 85.439 37.0389C85.7401 36.5178 86.3146 36.1811 86.9001 36.1811C87.0879 36.1811 87.2679 36.2156 87.4335 36.2845C87.7601 36.42 88.0001 36.6745 88.1112 37.0011C88.2323 37.36 88.1823 37.7745 87.9723 38.1367C87.6701 38.6589 87.0968 38.9956 86.5101 38.9956ZM86.899 36.5156C86.4368 36.5156 85.9657 36.7933 85.7257 37.2067C85.5646 37.4867 85.5235 37.8011 85.6146 38.0689C85.6935 38.3033 85.8679 38.4867 86.1034 38.5845C86.229 38.6367 86.3657 38.6633 86.509 38.6633C86.9712 38.6633 87.4423 38.3856 87.6812 37.9722C87.8434 37.6922 87.8846 37.3778 87.7934 37.11C87.7146 36.8756 87.5401 36.6922 87.3046 36.5945C87.1801 36.5411 87.0435 36.5156 86.899 36.5156Z" fill="#F9FAFB"/>
<path d="M74.0545 41.4989L75.7756 43.8478L74.5678 45.9378L72.8456 43.5889L74.0545 41.4989Z" fill="#98A2B3"/>
<path d="M74.5679 46.1044C74.5145 46.1044 74.4645 46.0789 74.4334 46.0367L72.7112 43.6889C72.6723 43.6356 72.6679 43.5644 72.7012 43.5067L73.909 41.4167C73.9367 41.3678 73.9879 41.3367 74.0445 41.3333C74.099 41.3311 74.1545 41.3556 74.1879 41.4011L75.9101 43.7489C75.949 43.8022 75.9534 43.8733 75.9201 43.9311L74.7123 46.0211C74.6845 46.07 74.6334 46.1011 74.5767 46.1044C74.5745 46.1044 74.5712 46.1044 74.5679 46.1044ZM73.0445 43.5789L74.5512 45.6333L75.5767 43.8589L74.0701 41.8044L73.0445 43.5789Z" fill="#F9FAFB"/>
<path d="M70.9089 46.9411L72.6311 49.2889H44.8189L43.0967 46.9411H70.9089Z" fill="#101928"/>
<path d="M72.6311 49.4556H44.82C44.7667 49.4556 44.7167 49.43 44.6856 49.3878L42.9634 47.04C42.9267 46.9889 42.9211 46.9223 42.9489 46.8656C42.9767 46.81 43.0345 46.7745 43.0978 46.7745H70.9089C70.9623 46.7745 71.0123 46.8 71.0434 46.8423L72.7656 49.19C72.8023 49.2411 72.8078 49.3078 72.78 49.3645C72.7511 49.42 72.6934 49.4556 72.6311 49.4556ZM44.9034 49.1223H72.3011L70.8234 47.1078H43.4256L44.9034 49.1223Z" fill="#F9FAFB"/>
<path d="M72.3112 46.9411L74.0334 49.2889H72.6312L70.9089 46.9411H72.3112Z" fill="#101928"/>
<path d="M74.0334 49.4556H72.6312C72.5779 49.4556 72.5279 49.43 72.4967 49.3878L70.7745 47.04C70.7379 46.9889 70.7323 46.9223 70.7601 46.8656C70.7879 46.81 70.8456 46.7745 70.909 46.7745H72.3112C72.3645 46.7745 72.4145 46.8 72.4456 46.8423L74.1679 49.19C74.2045 49.2411 74.2101 49.3078 74.1823 49.3645C74.1534 49.42 74.0967 49.4556 74.0334 49.4556ZM72.7156 49.1223H73.7045L72.2267 47.1078H71.2379L72.7156 49.1223Z" fill="#F9FAFB"/>
<path d="M80.7022 46.9411H34.7066C33.5066 46.9411 32.3844 47.8789 32.1989 49.0367L30.6922 58.4867H39.5955L38.4178 65.8722L37.4478 71.9544H28.5444L28.1033 74.7167C27.9189 75.8733 28.7433 76.8133 29.9433 76.8133H65.7666L67.0266 68.9155H79.3711L79.9989 64.9767L80.5778 61.3511L81.1611 57.69L81.3944 56.2267L82.4344 49.7078L82.5411 49.0367C82.7255 47.8789 81.9022 46.9411 80.7022 46.9411ZM66.1755 61.8767C65.2533 67.6578 59.6466 72.3433 53.6533 72.3433C47.6589 72.3433 43.5478 67.6578 44.47 61.8767C45.3911 56.0955 50.9978 51.41 56.9922 51.41C62.9855 51.41 67.0978 56.0955 66.1755 61.8767ZM78.1911 50.7089L77.6766 53.9289C77.6211 54.2778 77.2833 54.5611 76.9211 54.5611H70.9444C70.5833 54.5611 70.3355 54.2778 70.3911 53.9289L70.9044 50.7089C70.96 50.36 71.2989 50.0767 71.66 50.0767H77.6366C77.9989 50.0767 78.2466 50.36 78.1911 50.7089Z" fill="#98A2B3" stroke="#F9FAFB" stroke-width="2.7" stroke-miterlimit="10" stroke-linecap="round" stroke-linejoin="round"/>
<path d="M74.0545 41.5L88.5689 47.5256L83.1245 56.9456L85.5823 52.6911L84.4112 48.78L82.4334 49.7089L82.5401 49.0378C82.7245 47.88 81.9012 46.9411 80.7012 46.9411H77.1412L77.0745 46.6889L76.5701 46.9411H70.9078H72.3101L72.8445 43.59L74.0545 41.5Z" fill="#E4E7EC"/>
<path d="M83.1245 57.1111C83.1034 57.1111 83.0812 57.1067 83.0612 57.0989L81.3312 56.3811C81.2668 56.3544 81.229 56.2922 81.229 56.2267C81.229 56.2055 81.2334 56.1833 81.2412 56.1622C81.2768 56.0778 81.3734 56.0367 81.459 56.0722L83.0534 56.7344L85.4023 52.6689L84.3079 49.0111L82.5056 49.8578C82.4501 49.8844 82.3834 49.8778 82.3345 49.84C82.2856 49.8033 82.2601 49.7411 82.2701 49.68L82.3768 49.0089C82.4568 48.5066 82.3334 48.0344 82.0301 47.6789C81.7145 47.3089 81.2434 47.1055 80.7023 47.1055H77.1423C77.0668 47.1055 77.0001 47.0544 76.9812 46.9811L76.9668 46.9278L76.6456 47.0878C76.6223 47.0989 76.5968 47.1055 76.5712 47.1055H70.909C70.8168 47.1055 70.7423 47.0311 70.7423 46.9389C70.7423 46.8467 70.8168 46.7722 70.909 46.7722H72.1701L72.6823 43.5611C72.6856 43.5411 72.6923 43.5211 72.7023 43.5044L73.9101 41.4144C73.9523 41.3422 74.0412 41.3122 74.1179 41.3444L88.6323 47.37C88.6768 47.3889 88.7112 47.4255 88.7268 47.47C88.7423 47.5155 88.7368 47.5655 88.7134 47.6066L83.269 57.0266C83.2634 57.0366 83.2556 57.0467 83.2479 57.0555C83.2145 57.0922 83.1701 57.1111 83.1245 57.1111ZM84.4123 48.6122C84.4356 48.6122 84.459 48.6167 84.4801 48.6267C84.5245 48.6467 84.5579 48.6844 84.5712 48.7311L85.6312 52.2733L88.329 47.6055L74.1245 41.7089L73.0045 43.6455L72.5056 46.7733H76.5312L77.0001 46.5389C77.0456 46.5167 77.0979 46.5155 77.1434 46.5366C77.189 46.5578 77.2234 46.5978 77.2356 46.6467L77.269 46.7744H80.7012C81.3412 46.7744 81.9023 47.02 82.2823 47.4644C82.6501 47.8955 82.8001 48.4633 82.7045 49.0633L82.6468 49.4233L84.339 48.6278C84.3634 48.6178 84.3879 48.6122 84.4123 48.6122Z" fill="#F9FAFB"/>
<path d="M79.9989 64.9767L80.5778 61.35L82.3978 58.2022L81.1622 57.6889L81.3956 56.2256L83.1256 56.9433L88.57 47.5233L74.0556 41.4978L72.8478 43.5878L73.4267 39.9611L85.9033 18.3745L102.867 25.4156L79.9989 64.9767ZM86.3989 20.1422L80.9533 29.5622L95.4678 35.5878L97.9267 31.3333L100.912 26.1678L86.3989 20.1422ZM74.7811 40.2411L89.2967 46.2656L94.7411 36.8467L80.2267 30.8211L74.7811 40.2411Z" fill="#F7F9FC"/>
<path d="M79.9989 65.1433C79.98 65.1433 79.9612 65.14 79.9434 65.1334C79.8678 65.1067 79.8223 65.0289 79.8345 64.95L80.4134 61.3233C80.4167 61.3033 80.4234 61.2834 80.4334 61.2667L82.1578 58.2833L81.0978 57.8434C81.0267 57.8134 80.9845 57.7389 80.9967 57.6633L81.23 56.2C81.2378 56.15 81.2689 56.1056 81.3134 56.0811C81.3578 56.0567 81.4112 56.0533 81.4589 56.0722L83.0545 56.7345L88.3312 47.6056L74.1267 41.7089L72.9912 43.6722C72.9512 43.7422 72.8667 43.7733 72.7912 43.7456C72.7156 43.7189 72.67 43.6411 72.6823 43.5622L73.2612 39.9356C73.2645 39.9156 73.2712 39.8956 73.2812 39.8789L85.7578 18.2922C85.8 18.22 85.8878 18.19 85.9656 18.2222L102.929 25.2633C102.973 25.2822 103.008 25.3178 103.023 25.3633C103.039 25.4089 103.033 25.4589 103.01 25.5L80.1434 65.06C80.1123 65.1133 80.0567 65.1433 79.9989 65.1433ZM80.7367 61.4078L80.3056 64.1145L102.626 25.4989L85.9723 18.5867L73.5834 40.02L73.1512 42.7278L73.9089 41.4178C73.9512 41.3456 74.04 41.3156 74.1167 41.3478L88.6312 47.3733C88.6756 47.3922 88.7101 47.4289 88.7256 47.4734C88.7412 47.5189 88.7356 47.5689 88.7123 47.61L83.2678 57.03C83.2256 57.1022 83.1367 57.1322 83.06 57.1011L81.5256 56.4645L81.3467 57.5889L82.4612 58.0511C82.5056 58.07 82.54 58.1056 82.5556 58.1511C82.5712 58.1967 82.5656 58.2467 82.5423 58.2878L80.7367 61.4078ZM89.2967 46.4322C89.2756 46.4322 89.2534 46.4278 89.2334 46.42L74.7178 40.3956C74.6734 40.3767 74.6389 40.34 74.6234 40.2956C74.6078 40.25 74.6134 40.2 74.6367 40.1589L80.0823 30.7389C80.1245 30.6667 80.2123 30.6356 80.29 30.6689L94.8045 36.6945C94.8489 36.7133 94.8834 36.75 94.8989 36.7945C94.9145 36.84 94.9089 36.89 94.8856 36.9311L89.4412 46.35C89.41 46.4022 89.3545 46.4322 89.2967 46.4322ZM75.02 40.16L89.2256 46.0556L94.5023 36.9278L80.2978 31.0311L75.02 40.16ZM95.4678 35.7545C95.4467 35.7545 95.4245 35.75 95.4045 35.7422L80.8889 29.7167C80.8445 29.6978 80.8101 29.6622 80.7945 29.6167C80.7789 29.5711 80.7845 29.5211 80.8078 29.48L86.2534 20.06C86.2956 19.9878 86.3845 19.9578 86.4612 19.99L100.976 26.0156C101.02 26.0345 101.054 26.0711 101.07 26.1156C101.086 26.1611 101.08 26.2111 101.057 26.2522L95.6112 35.6722C95.5823 35.7245 95.5256 35.7545 95.4678 35.7545ZM81.1923 29.4811L95.3967 35.3778L100.673 26.2489L86.4689 20.3522L81.1923 29.4811Z" fill="#F9FAFB"/>
<path d="M72.5911 38.7178C73.1611 38.7178 73.5522 39.1633 73.4644 39.7133L73.4244 39.9622L72.8456 43.59L72.3111 46.9411H70.9089H43.0978L44.25 39.7133C44.3378 39.1633 44.8711 38.7178 45.44 38.7178H72.5911ZM62.4722 43.8589L62.8 41.8011C62.84 41.5489 62.6611 41.3444 62.4 41.3444H54.7933C54.5333 41.3444 54.2878 41.5489 54.2478 41.8011L53.92 43.8589C53.88 44.1111 54.06 44.3144 54.32 44.3144H61.9267C62.1878 44.3144 62.4322 44.11 62.4722 43.8589Z" fill="#D0D5DD"/>
<path d="M72.3111 47.1078H43.0978C43.0489 47.1078 43.0022 47.0867 42.9711 47.0489C42.94 47.0123 42.9256 46.9623 42.9333 46.9145L44.0856 39.6867C44.1856 39.06 44.7933 38.5511 45.4411 38.5511H72.5911C72.9211 38.5511 73.2111 38.6789 73.4089 38.91C73.6 39.1345 73.6789 39.4289 73.6289 39.74L72.4767 46.9678C72.4633 47.0478 72.3933 47.1078 72.3111 47.1078ZM43.2922 46.7745H72.1689L73.2989 39.6867C73.3333 39.4745 73.2811 39.2756 73.1545 39.1256C73.0211 38.97 72.8211 38.8845 72.5911 38.8845H45.44C44.9489 38.8845 44.4889 39.2678 44.4145 39.7389L43.2922 46.7745ZM61.9267 44.4811H54.32C54.1445 44.4811 53.9833 44.41 53.8767 44.2856C53.7711 44.1623 53.7278 44.0011 53.7556 43.8334L54.0845 41.7756C54.1378 41.4412 54.45 41.1778 54.7945 41.1778H62.4011C62.5767 41.1778 62.7378 41.2489 62.8434 41.3734C62.9489 41.4967 62.9922 41.6578 62.9645 41.8267L62.6367 43.8845C62.5833 44.2189 62.2711 44.4811 61.9267 44.4811ZM54.7933 41.51C54.6145 41.51 54.44 41.6545 54.4122 41.8267L54.0833 43.8845C54.0722 43.9556 54.0889 44.02 54.1289 44.0678C54.1722 44.1189 54.24 44.1467 54.3189 44.1467H61.9256C62.1045 44.1467 62.2789 44.0023 62.3067 43.8312L62.6345 41.7734C62.6456 41.7023 62.63 41.6367 62.5878 41.5878C62.5445 41.5367 62.4778 41.5089 62.3989 41.5089H54.7933V41.51Z" fill="#F9FAFB"/>
<path d="M75.198 41.8867C75.1991 41.9056 75.1979 41.9245 75.1968 41.9445V41.9722C75.1946 42.0022 75.1913 42.0311 75.1868 42.0611L75.1468 42.31L74.5679 45.9378L74.4079 46.9411H72.3113L72.8468 43.59L73.4246 39.9622L73.4646 39.7133C73.4691 39.6833 73.4724 39.6545 73.4746 39.6245C73.4746 39.6156 73.4746 39.6056 73.4757 39.5967C73.4757 39.5767 73.4768 39.5578 73.4757 39.5389C73.4757 39.5278 73.4746 39.5167 73.4746 39.5056C73.4735 39.4889 73.4724 39.4722 73.4702 39.4556C73.4691 39.4433 73.4668 39.4322 73.4646 39.4211C73.4624 39.4067 73.4602 39.3933 73.4579 39.38C73.4502 39.3422 73.4402 39.3067 73.4279 39.2722C73.4246 39.2645 73.4213 39.2567 73.4191 39.2489C73.4102 39.2267 73.4013 39.2056 73.3913 39.1856C73.3857 39.1756 73.3802 39.1656 73.3757 39.1556C73.3668 39.14 73.3579 39.1245 73.3491 39.11C73.3391 39.0945 73.3291 39.0789 73.3179 39.0645L75.0402 41.4122C75.0479 41.4211 75.0546 41.4311 75.0613 41.4411C75.0646 41.4467 75.0668 41.4522 75.0713 41.4578C75.0802 41.4722 75.0891 41.4878 75.0968 41.5033C75.1002 41.5089 75.1046 41.5145 75.1079 41.52C75.1102 41.5245 75.1113 41.5289 75.1135 41.5333C75.1235 41.5545 75.1324 41.5756 75.1402 41.5967C75.1435 41.6022 75.1457 41.6089 75.1479 41.6145C75.1491 41.6167 75.1491 41.6178 75.1502 41.62C75.1624 41.6545 75.1724 41.6911 75.1802 41.7278C75.1802 41.7311 75.1813 41.7345 75.1824 41.7378C75.1846 41.7478 75.1857 41.7589 75.1868 41.7689C75.1891 41.78 75.1913 41.7911 75.1924 41.8033C75.1946 41.82 75.1957 41.8367 75.1968 41.8533C75.1968 41.8645 75.198 41.8756 75.198 41.8867Z" fill="#D0D5DD"/>
<path d="M74.4078 47.1078H72.3112C72.2623 47.1078 72.2156 47.0867 72.1845 47.0489C72.1534 47.0111 72.1389 46.9623 72.1467 46.9145L73.3001 39.6867C73.3034 39.6645 73.3056 39.6411 73.3078 39.6178C73.3078 39.6078 73.3078 39.5978 73.309 39.5878V39.5745C73.309 39.5656 73.309 39.5578 73.309 39.5489C73.309 39.5489 73.3078 39.5323 73.3078 39.5311C73.3078 39.5223 73.3067 39.5145 73.3067 39.5056C73.3067 39.5034 73.3056 39.4911 73.3034 39.4778C73.3023 39.4645 73.3012 39.4589 73.3001 39.4545L73.2923 39.4067C73.2878 39.3834 73.2801 39.3556 73.2701 39.3278C73.2678 39.3223 73.2645 39.3145 73.2612 39.3056C73.2545 39.29 73.2489 39.2745 73.2412 39.2611C73.2378 39.2545 73.2323 39.2445 73.2267 39.2323C73.2201 39.22 73.2134 39.2089 73.2067 39.1978C73.2023 39.1911 73.1978 39.1834 73.1923 39.1756L73.1834 39.1634C73.129 39.09 73.1445 38.9867 73.2178 38.9311C73.2912 38.8767 73.3945 38.89 73.4501 38.9634C73.4534 38.9678 73.4578 38.9734 73.4612 38.9789L75.1712 41.31C75.1812 41.3223 75.1912 41.3356 75.2001 41.35C75.2023 41.3534 75.2067 41.36 75.2089 41.3656C75.2101 41.3678 75.2112 41.3689 75.2123 41.3711C75.2223 41.3867 75.2312 41.4034 75.2401 41.42C75.2434 41.4256 75.2467 41.43 75.2501 41.4356C75.2556 41.4445 75.2623 41.4611 75.2667 41.47C75.2745 41.4867 75.2845 41.5078 75.2923 41.5311C75.2956 41.5378 75.2989 41.5445 75.3012 41.5511C75.3012 41.5523 75.3023 41.5545 75.3034 41.5567C75.3045 41.56 75.3056 41.5623 75.3067 41.5656C75.3212 41.6056 75.3334 41.6489 75.3423 41.6945C75.3423 41.6956 75.3434 41.6978 75.3434 41.6989C75.3434 41.7 75.3434 41.7011 75.3445 41.7023C75.3478 41.7156 75.3501 41.7311 75.3512 41.7445C75.3545 41.7589 75.3567 41.7734 75.3578 41.79C75.3601 41.8023 75.3612 41.8234 75.3623 41.8445C75.3623 41.8456 75.3634 41.8623 75.3634 41.8634C75.3634 41.87 75.3645 41.8767 75.3645 41.8845C75.3656 41.9078 75.3645 41.9323 75.3634 41.9567V41.9745C75.3634 41.9789 75.3634 41.9823 75.3634 41.9867C75.3612 42.0211 75.3567 42.0534 75.3523 42.0878L74.5734 46.97C74.5589 47.0478 74.4889 47.1078 74.4078 47.1078ZM72.5067 46.7745H74.2656L75.0223 42.0345C75.0256 42.0123 75.0278 41.9889 75.0301 41.9656V41.9445C75.0312 41.9211 75.0323 41.9089 75.0312 41.8967C75.0312 41.8934 75.0312 41.89 75.0312 41.8867V41.8789C75.0312 41.87 75.0301 41.8623 75.0301 41.8534C75.0301 41.8511 75.0289 41.8389 75.0267 41.8256C75.0256 41.8123 75.0245 41.8067 75.0234 41.8023C75.0223 41.7967 75.0212 41.7923 75.0212 41.7867C75.0212 41.7867 75.0201 41.7789 75.0201 41.7756C75.0189 41.7689 75.0167 41.7623 75.0156 41.7545C75.0101 41.7278 75.0023 41.7023 74.9945 41.6778C74.9945 41.6767 74.9934 41.6756 74.9934 41.6745C74.9934 41.6734 74.9923 41.6723 74.9923 41.6711C74.9889 41.6656 74.9867 41.6589 74.9845 41.6534C74.9778 41.6367 74.9712 41.62 74.9634 41.6034C74.9623 41.6023 74.9623 41.6 74.9612 41.5978C74.9578 41.5934 74.9556 41.59 74.9534 41.5856C74.9445 41.5689 74.9389 41.5578 74.9334 41.5489C74.9278 41.5411 74.9234 41.5334 74.9189 41.5256C74.9189 41.5245 74.9167 41.5223 74.9145 41.52C74.9134 41.5178 74.9078 41.5123 74.9067 41.51L73.6256 39.7645L72.5067 46.7745Z" fill="#F9FAFB"/>
<path d="M86.3989 20.1422L100.913 26.1678L97.9278 31.3333L96.7556 27.4222L90.7134 30.2611L89.42 25.3322L80.9534 29.5633L86.3989 20.1422ZM93.9989 27.3767C94.3667 26.7411 94.1611 26.0178 93.5411 25.7622C93.3923 25.7 93.2323 25.6711 93.0711 25.6711C92.5611 25.6711 92.0334 25.9633 91.7545 26.4455C91.3878 27.08 91.5934 27.8033 92.2134 28.0611C92.3623 28.1233 92.5211 28.1522 92.6834 28.1522C93.1911 28.1511 93.72 27.8589 93.9989 27.3767Z" fill="#E4E7EC"/>
<path d="M97.9279 31.5C97.9212 31.5 97.9146 31.5 97.909 31.4989C97.8435 31.4911 97.7879 31.4445 97.769 31.3811L96.6523 27.6556L90.7857 30.4122C90.7412 30.4333 90.689 30.4333 90.6446 30.4122C90.6001 30.3911 90.5668 30.3511 90.5535 30.3033L89.3123 25.5722L81.029 29.7111C80.9623 29.7445 80.8835 29.73 80.8335 29.6767C80.7835 29.6233 80.7734 29.5422 80.8101 29.4789L86.2557 20.0589C86.2979 19.9867 86.3868 19.9567 86.4634 19.9889L100.978 26.0145C101.022 26.0333 101.057 26.07 101.072 26.1145C101.088 26.16 101.082 26.21 101.059 26.2511L98.0723 31.4167C98.0412 31.4689 97.9868 31.5 97.9279 31.5ZM96.7557 27.2556C96.779 27.2556 96.8023 27.26 96.8235 27.27C96.8679 27.29 96.9012 27.3278 96.9146 27.3745L97.9757 30.9156L100.673 26.2478L86.469 20.3511L81.3746 29.1645L89.3446 25.1822C89.3901 25.16 89.4423 25.1589 89.4879 25.18C89.5335 25.2011 89.5679 25.2411 89.5801 25.29L90.8223 30.0256L96.6835 27.2722C96.7068 27.2611 96.7312 27.2556 96.7557 27.2556ZM92.6823 28.3178C92.4946 28.3178 92.3146 28.2833 92.149 28.2133C91.8235 28.0778 91.5823 27.8233 91.4723 27.4967C91.3512 27.1378 91.4012 26.7233 91.6101 26.3611C91.9112 25.84 92.4846 25.5033 93.0712 25.5033C93.259 25.5033 93.439 25.5378 93.6057 25.6078C93.9312 25.7422 94.1723 25.9967 94.2823 26.3222C94.4046 26.6811 94.3535 27.0956 94.1435 27.46C93.8423 27.9811 93.2679 28.3178 92.6823 28.3178ZM93.0712 25.8367C92.6023 25.8367 92.1412 26.1078 91.899 26.5278C91.7379 26.8078 91.6968 27.1222 91.7879 27.39C91.8668 27.6245 92.0412 27.8078 92.2768 27.9056C92.4023 27.9578 92.5379 27.9845 92.6823 27.9845C93.1446 27.9845 93.6157 27.7067 93.8546 27.2933C94.0168 27.0133 94.0579 26.6978 93.9668 26.43C93.8879 26.1956 93.7135 26.0133 93.4779 25.9156C93.3523 25.8633 93.2157 25.8367 93.0712 25.8367Z" fill="#F9FAFB"/>
<path d="M76.5712 46.9411L77.0756 46.6888L77.1412 46.9411H76.5712Z" fill="#D0D5DD"/>
<path d="M77.1412 47.1078H76.5712C76.4934 47.1078 76.4268 47.0544 76.409 46.9789C76.3912 46.9033 76.4279 46.8255 76.4968 46.7911L77.0012 46.5389C77.0468 46.5166 77.099 46.5155 77.1446 46.5366C77.1901 46.5578 77.2246 46.5978 77.2368 46.6466L77.3034 46.8989C77.3168 46.9489 77.3057 47.0022 77.2746 47.0433C77.2434 47.0844 77.1934 47.1078 77.1412 47.1078Z" fill="#F9FAFB"/>
<path d="M77.6366 50.0767C77.9989 50.0767 78.2466 50.36 78.1911 50.7089L77.6778 53.93C77.6222 54.2789 77.2833 54.5622 76.9222 54.5622H70.9444C70.5822 54.5622 70.3344 54.28 70.39 53.93L70.9033 50.7089C70.9589 50.36 71.2978 50.0767 71.6589 50.0767H77.6366Z" fill="#F7F9FC"/>
<path d="M76.9211 54.7278H70.9444C70.7166 54.7278 70.5166 54.6389 70.38 54.4789C70.2466 54.3223 70.1922 54.1178 70.2266 53.9034L70.74 50.6823C70.8089 50.2489 71.2133 49.91 71.66 49.91H77.6366C77.8644 49.91 78.0644 49.9989 78.2022 50.1589C78.3355 50.3156 78.39 50.52 78.3555 50.7345L77.8422 53.9556C77.7722 54.3889 77.3678 54.7278 76.9211 54.7278ZM71.66 50.2434C71.3822 50.2434 71.1111 50.4678 71.0689 50.7345L70.5555 53.9556C70.5366 54.0723 70.5644 54.1811 70.6333 54.2623C70.7055 54.3467 70.8166 54.3945 70.9444 54.3945H76.9211C77.1989 54.3945 77.47 54.17 77.5122 53.9034L78.0255 50.6823C78.0444 50.5656 78.0166 50.4567 77.9478 50.3756C77.8755 50.29 77.7644 50.2434 77.6366 50.2434H71.66Z" fill="#F9FAFB"/>
<path d="M56.9923 51.41C62.9856 51.41 67.0978 56.0955 66.1756 61.8766C65.2534 67.6566 59.6467 72.3433 53.6534 72.3433C47.6589 72.3433 43.5478 67.6566 44.4689 61.8766C45.3912 56.0955 50.9978 51.41 56.9923 51.41Z" fill="#D0D5DD"/>
<path d="M53.6534 72.51C50.6556 72.51 48.0323 71.3689 46.2645 69.2966C44.5545 67.2922 43.859 64.6477 44.3045 61.85C45.2379 56.0011 50.929 51.2422 56.9923 51.2422C59.989 51.2422 62.6134 52.3833 64.3812 54.4544C66.0912 56.4589 66.7868 59.1033 66.3401 61.9011C65.4068 67.7522 59.7156 72.51 53.6534 72.51ZM56.9923 51.5766C51.0856 51.5766 45.5423 56.2089 44.6345 61.9033C44.2034 64.6033 44.8734 67.1522 46.519 69.0811C48.2223 71.0777 50.7568 72.1766 53.6545 72.1766C59.5601 72.1766 65.1034 67.5444 66.0112 61.85C66.4423 59.15 65.7734 56.6 64.1279 54.6711C62.4234 52.6755 59.8901 51.5766 56.9923 51.5766Z" fill="#F9FAFB"/>
<path d="M84.4123 48.7789L85.5823 52.6911L83.1245 56.9444L81.3945 56.2266L82.4345 49.7078L84.4123 48.7789Z" fill="#D0D5DD"/>
<path d="M83.1246 57.1111C83.1035 57.1111 83.0812 57.1067 83.0612 57.0989L81.3312 56.3811C81.2601 56.3511 81.2179 56.2767 81.2301 56.2011L82.2701 49.6822C82.279 49.6278 82.3135 49.5811 82.3635 49.5578L84.3412 48.6289C84.3857 48.6078 84.4357 48.6078 84.4801 48.6278C84.5246 48.6478 84.5579 48.6856 84.5712 48.7322L85.7423 52.6433C85.7557 52.6878 85.7501 52.7344 85.7268 52.7744L83.269 57.0289C83.2379 57.0811 83.1823 57.1111 83.1246 57.1111ZM81.5801 56.1233L83.0535 56.7344L85.4023 52.6689L84.3079 49.0111L82.5846 49.82L81.5801 56.1233Z" fill="#F9FAFB"/>
<path d="M102.864 25.4166L104.587 27.7644L81.7211 67.3244L79.9989 64.9766L102.864 25.4166Z" fill="#D0D5DD"/>
<path d="M81.7212 67.4911C81.6678 67.4911 81.6178 67.4655 81.5867 67.4233L79.8645 65.0755C79.8256 65.0222 79.8212 64.9511 79.8545 64.8933L102.72 25.3333C102.748 25.2844 102.799 25.2533 102.856 25.25C102.91 25.2467 102.966 25.2722 102.999 25.3178L104.721 27.6655C104.76 27.7189 104.765 27.79 104.731 27.8478L81.8656 67.4089C81.8378 67.4578 81.7867 67.4889 81.7301 67.4922C81.7267 67.4911 81.7234 67.4911 81.7212 67.4911ZM80.1978 64.9667L81.7045 67.0211L104.388 27.7767L102.881 25.7222L80.1978 64.9667Z" fill="#F9FAFB"/>
<path d="M67.0256 68.9155L68.7478 71.2633L67.4889 79.1611L65.7667 76.8133L67.0256 68.9155Z" fill="#344054"/>
<path d="M67.4889 79.3278C67.4367 79.3278 67.3867 79.3033 67.3544 79.26L65.6322 76.9122C65.6056 76.8767 65.5956 76.8311 65.6022 76.7878L66.8611 68.8889C66.8722 68.8222 66.9211 68.7689 66.9867 68.7533C67.0522 68.7378 67.1211 68.7622 67.16 68.8167L68.8822 71.1644C68.9089 71.2 68.9189 71.2455 68.9122 71.2889L67.6522 79.1867C67.6411 79.2533 67.5922 79.3067 67.5267 79.3222C67.5144 79.3256 67.5011 79.3278 67.4889 79.3278ZM65.9422 76.77L67.3867 78.74L68.5722 71.3056L67.1278 69.3356L65.9422 76.77Z" fill="#F9FAFB"/>
<path d="M65.7667 76.8134L65.6211 77.7211L63.4344 76.8134H65.7667Z" fill="#D0D5DD"/>
<path d="M65.6212 77.8878C65.5989 77.8878 65.5778 77.8833 65.5567 77.8756L63.3701 76.9678C63.2967 76.9378 63.2545 76.8589 63.2701 76.7811C63.2856 76.7033 63.3534 76.6467 63.4334 76.6467H65.7656C65.8145 76.6467 65.8612 76.6678 65.8923 76.7056C65.9245 76.7422 65.9378 76.7922 65.9301 76.84L65.7856 77.7478C65.7778 77.7978 65.7467 77.8422 65.7023 77.8667C65.6778 77.88 65.6501 77.8878 65.6212 77.8878ZM64.2712 76.98L65.4912 77.4867L65.5723 76.98H64.2712Z" fill="#F9FAFB"/>
<path d="M62.211 79.0623C62.3721 79.0623 62.531 79.0911 62.6799 79.1534C63.2999 79.4111 63.5044 80.1345 63.1388 80.7689C62.8599 81.2511 62.331 81.5445 61.821 81.5445C61.6599 81.5445 61.501 81.5156 61.351 81.4534C60.731 81.1956 60.5266 80.4723 60.8933 79.8378C61.1721 79.3545 61.701 79.0623 62.211 79.0623Z" fill="#D0D5DD"/>
<path d="M61.8211 81.71C61.6333 81.71 61.4544 81.6756 61.2877 81.6067C60.9611 81.4711 60.7211 81.2167 60.61 80.89C60.4888 80.5311 60.5388 80.1167 60.7488 79.7533C61.05 79.2322 61.6233 78.8956 62.21 78.8956C62.3977 78.8956 62.5766 78.93 62.7422 78.9989C63.0688 79.1345 63.3088 79.3889 63.42 79.7156C63.5411 80.0745 63.4911 80.4889 63.2811 80.8511C62.9811 81.3733 62.4077 81.71 61.8211 81.71ZM62.2111 79.2289C61.7477 79.2289 61.2766 79.5067 61.0388 79.92C60.8766 80.2 60.8355 80.5156 60.9266 80.7833C61.0055 81.0178 61.18 81.2011 61.4155 81.2989C61.5411 81.3511 61.6777 81.3767 61.8211 81.3767C62.2911 81.3767 62.7522 81.1056 62.9944 80.6845C63.1555 80.4045 63.1966 80.09 63.1055 79.8222C63.0266 79.5878 62.8522 79.4045 62.6166 79.3067C62.4911 79.2556 62.3555 79.2289 62.2111 79.2289Z" fill="#F9FAFB"/>
<path d="M53.6423 76.8134H63.4345L65.6212 77.7211L65.0656 81.2045L59.8523 83.6534L58.559 78.7245L50.0923 82.9556L53.6423 76.8134ZM63.139 80.7678C63.5056 80.1334 63.3001 79.41 62.6801 79.1522C62.5312 79.0911 62.3723 79.0611 62.2112 79.0611C61.7012 79.0611 61.1723 79.3534 60.8945 79.8356C60.5267 80.4711 60.7323 81.1945 61.3523 81.4511C61.5012 81.5122 61.6612 81.5422 61.8223 81.5422C62.3312 81.5434 62.8601 81.2511 63.139 80.7678Z" fill="#E4E7EC"/>
<path d="M59.8534 83.8189C59.8289 83.8189 59.8056 83.8133 59.7823 83.8033C59.7378 83.7822 59.7045 83.7422 59.6911 83.6945L58.45 78.9645L50.1667 83.1033C50.1011 83.1367 50.0211 83.1222 49.9711 83.0689C49.9211 83.0156 49.9111 82.9345 49.9478 82.8711L53.4978 76.7289C53.5278 76.6778 53.5823 76.6456 53.6423 76.6456H63.4345C63.4567 76.6456 63.4778 76.65 63.4989 76.6578L65.6856 77.5656C65.7567 77.5956 65.7989 77.67 65.7867 77.7456L65.2311 81.2289C65.2223 81.2833 65.1878 81.33 65.1378 81.3533L59.9245 83.8022C59.9011 83.8145 59.8778 83.8189 59.8534 83.8189ZM58.56 78.5578C58.5834 78.5578 58.6067 78.5622 58.6289 78.5722C58.6745 78.5933 58.7089 78.6333 58.7211 78.6822L59.9634 83.4167L64.9156 81.09L65.4367 77.8245L63.4011 76.98H53.7389L50.5156 82.5578L58.4856 78.5756C58.5089 78.5633 58.5345 78.5578 58.56 78.5578ZM61.8211 81.71C61.6334 81.71 61.4534 81.6756 61.2878 81.6067C60.9611 81.4711 60.7211 81.2167 60.61 80.89C60.4889 80.5311 60.5389 80.1167 60.7489 79.7533C61.05 79.2322 61.6234 78.8956 62.21 78.8956C62.3978 78.8956 62.5767 78.93 62.7423 78.9989C63.0689 79.1345 63.3089 79.3889 63.42 79.7156C63.5411 80.0745 63.4911 80.4889 63.2811 80.8511C62.9811 81.3722 62.4078 81.71 61.8211 81.71ZM62.2111 79.2289C61.7478 79.2289 61.2767 79.5067 61.0378 79.92C60.8756 80.2 60.8345 80.5156 60.9256 80.7833C61.0045 81.0178 61.1789 81.2011 61.4145 81.2989C61.54 81.3511 61.6767 81.3767 61.82 81.3767C62.29 81.3767 62.7511 81.1056 62.9934 80.6845C63.1545 80.4045 63.1956 80.09 63.1045 79.8222C63.0256 79.5878 62.8511 79.4045 62.6156 79.3067C62.4911 79.2556 62.3556 79.2289 62.2111 79.2289Z" fill="#F9FAFB"/>
<path d="M65.7666 76.8134L67.4889 79.1611L67.3433 80.0689L65.6211 77.7211L65.7666 76.8134Z" fill="#98A2B3"/>
<path d="M67.3434 80.2355C67.2912 80.2355 67.2412 80.2111 67.2089 80.1678L65.4867 77.82C65.46 77.7844 65.45 77.7389 65.4567 77.6955L65.6012 76.7878C65.6123 76.7211 65.6612 76.6678 65.7267 76.6522C65.7923 76.6366 65.8612 76.6611 65.9 76.7155L67.6223 79.0633C67.6489 79.0989 67.6589 79.1444 67.6523 79.1878L67.5078 80.0955C67.4967 80.1622 67.4478 80.2155 67.3823 80.2311C67.37 80.2333 67.3567 80.2355 67.3434 80.2355ZM65.7967 77.6778L67.2412 79.6478L67.3123 79.2033L65.8678 77.2333L65.7967 77.6778Z" fill="#F9FAFB"/>
<path d="M79.3712 68.9156L81.0923 71.2634H68.7479L67.0256 68.9156H79.3712Z" fill="#1D2739"/>
<path d="M81.0922 71.43H68.7478C68.6944 71.43 68.6444 71.4045 68.6133 71.3622L66.8911 69.0145C66.8544 68.9633 66.8489 68.8967 66.8767 68.84C66.9044 68.7845 66.9622 68.7489 67.0255 68.7489H79.37C79.4233 68.7489 79.4733 68.7745 79.5044 68.8167L81.2267 71.1645C81.2633 71.2156 81.2689 71.2822 81.2411 71.3389C81.2133 71.3945 81.1555 71.43 81.0922 71.43ZM68.8322 71.0967H80.7633L79.2855 69.0822H67.3544L68.8322 71.0967Z" fill="#F9FAFB"/>
<path d="M65.6212 77.7211L67.3434 80.0689L66.7879 83.5511L65.0668 81.2034L65.6212 77.7211Z" fill="#98A2B3"/>
<path d="M66.7878 83.7178C66.7356 83.7178 66.6856 83.6934 66.6534 83.65L64.9312 81.3023C64.9045 81.2667 64.8945 81.2212 64.9012 81.1778L65.4567 77.6945C65.4678 77.6278 65.5167 77.5745 65.5823 77.5589C65.6478 77.5434 65.7167 77.5678 65.7556 77.6223L67.4778 79.97C67.5045 80.0056 67.5145 80.0512 67.5078 80.0945L66.9523 83.5778C66.9412 83.6445 66.8923 83.6978 66.8267 83.7134C66.8145 83.7167 66.8012 83.7178 66.7878 83.7178ZM65.2423 81.1612L66.6867 83.1312L67.1678 80.1112L65.7234 78.1412L65.2423 81.1612Z" fill="#F9FAFB"/>
<path d="M65.0667 81.2034L66.7878 83.5511L66.3411 86.3556L64.6189 84.0067L65.0667 81.2034Z" fill="#667185"/>
<path d="M66.3412 86.5222C66.289 86.5222 66.239 86.4978 66.2067 86.4544L64.4845 84.1066C64.4578 84.0711 64.4478 84.0255 64.4545 83.9822L64.9012 81.1789C64.9123 81.1122 64.9612 81.0589 65.0267 81.0433C65.0923 81.0278 65.1601 81.0522 65.2001 81.1066L66.9223 83.4544C66.949 83.49 66.959 83.5355 66.9523 83.5789L66.5056 86.3822C66.4945 86.4489 66.4456 86.5022 66.3801 86.5178C66.3678 86.52 66.3545 86.5222 66.3412 86.5222ZM64.7945 83.9644L66.239 85.9344L66.6123 83.5944L65.1678 81.6244L64.7945 83.9644Z" fill="#F9FAFB"/>
<path d="M66.8512 84.0067H67.4823L67.0668 84.7256L66.8512 84.0067Z" fill="#98A2B3"/>
<path d="M67.0667 84.8922C67.0601 84.8922 67.0534 84.8922 67.0478 84.8911C66.9823 84.8833 66.9267 84.8367 66.9078 84.7733L66.6923 84.0556C66.6767 84.0056 66.6867 83.95 66.7178 83.9078C66.749 83.8656 66.799 83.8411 66.8512 83.8411H67.4812C67.5412 83.8411 67.5956 83.8733 67.6256 83.9245C67.6556 83.9756 67.6556 84.04 67.6256 84.0911L67.2101 84.8089C67.1812 84.8611 67.1256 84.8922 67.0667 84.8922ZM67.0756 84.1733L67.1156 84.3067L67.1934 84.1733H67.0756Z" fill="#F9FAFB"/>
<path d="M80.7334 72.3433C81.7878 72.3433 82.5101 73.1667 82.3478 74.1844C82.1856 75.2011 81.2001 76.0255 80.1456 76.0255C79.0912 76.0255 78.3678 75.2011 78.5301 74.1844C78.6923 73.1678 79.6789 72.3433 80.7334 72.3433Z" fill="#D0D5DD"/>
<path d="M80.1456 76.1933C79.5778 76.1933 79.0789 75.9755 78.7412 75.58C78.4134 75.1966 78.28 74.6911 78.3656 74.1588C78.54 73.0666 79.6023 72.1777 80.7334 72.1777C81.3012 72.1777 81.8 72.3955 82.1367 72.7911C82.4645 73.1744 82.5978 73.6789 82.5123 74.2111C82.3389 75.3033 81.2767 76.1933 80.1456 76.1933ZM80.7334 72.51C79.7589 72.51 78.8445 73.2722 78.6945 74.21C78.6256 74.6444 78.7323 75.0533 78.9945 75.3622C79.2678 75.6822 79.6767 75.8588 80.1456 75.8588C81.12 75.8588 82.0334 75.0955 82.1834 74.1577C82.2523 73.7233 82.1467 73.3144 81.8834 73.0066C81.6112 72.6866 81.2023 72.51 80.7334 72.51Z" fill="#F9FAFB"/>
<path d="M58.56 78.7244L59.8534 83.6522L65.0667 81.2033L64.6189 84.0066H66.8512L67.0667 84.7255L64.6078 88.98L50.0934 82.9544L58.56 78.7244Z" fill="#D0D5DD"/>
<path d="M64.6078 89.1467C64.5867 89.1467 64.5645 89.1422 64.5445 89.1344L50.0301 83.1089C49.9701 83.0833 49.9301 83.0256 49.9278 82.9611C49.9256 82.8967 49.9612 82.8356 50.0201 82.8067L58.4867 78.5756C58.5323 78.5533 58.5845 78.5522 58.6301 78.5733C58.6756 78.5944 58.7101 78.6344 58.7223 78.6833L59.9645 83.4178L64.9967 81.0533C65.0523 81.0267 65.1178 81.0333 65.1678 81.0711C65.2167 81.1078 65.2423 81.17 65.2323 81.2311L64.8156 83.8422H66.8534C66.9267 83.8422 66.9923 83.89 67.0134 83.9611L67.2289 84.6789C67.2423 84.7233 67.2367 84.77 67.2134 84.81L64.7545 89.0644C64.7212 89.1167 64.6656 89.1467 64.6078 89.1467ZM50.4934 82.9411L64.5356 88.77L66.8856 84.7044L66.7267 84.1744H64.6178C64.5689 84.1744 64.5223 84.1533 64.4912 84.1156C64.4601 84.0789 64.4456 84.0289 64.4534 83.9811L64.8512 81.4889L59.9234 83.8044C59.8789 83.8256 59.8267 83.8256 59.7823 83.8044C59.7378 83.7833 59.7045 83.7433 59.6912 83.6956L58.4501 78.9656L50.4934 82.9411Z" fill="#F9FAFB"/>
<path d="M68.9988 84.0067L70.721 86.3544L66.8255 93.0944L65.1044 90.7467L68.9988 84.0067Z" fill="#D0D5DD"/>
<path d="M66.8255 93.2611C66.7722 93.2611 66.7222 93.2355 66.6911 93.1933L64.9689 90.8455C64.93 90.7922 64.9255 90.7211 64.9589 90.6633L68.8544 83.9233C68.8822 83.8744 68.9333 83.8433 68.99 83.84C69.0433 83.8378 69.1 83.8622 69.1333 83.9078L70.8555 86.2555C70.8944 86.3089 70.8989 86.38 70.8655 86.4378L66.97 93.1778C66.9422 93.2266 66.8911 93.2578 66.8344 93.2611C66.8322 93.2611 66.8289 93.2611 66.8255 93.2611ZM65.3022 90.7355L66.8089 92.79L70.5222 86.3655L69.0155 84.3111L65.3022 90.7355Z" fill="#F9FAFB"/>
<path d="M65.1046 90.7467L66.8257 93.0945L49.8623 86.0533L48.1412 83.7056L65.1046 90.7467Z" fill="#D0D5DD"/>
<path d="M66.8257 93.2611C66.8046 93.2611 66.7823 93.2566 66.7612 93.2489L49.7979 86.2078C49.7701 86.1955 49.7457 86.1766 49.7279 86.1522L48.0057 83.8044C47.9612 83.7444 47.9623 83.6622 48.009 83.6033C48.0557 83.5444 48.1346 83.5233 48.2034 83.5522L65.1668 90.5933C65.1946 90.6055 65.219 90.6244 65.2368 90.6489L66.959 92.9966C67.0034 93.0566 67.0023 93.1389 66.9557 93.1978C66.9246 93.2389 66.8757 93.2611 66.8257 93.2611ZM49.9701 85.9166L66.339 92.7111L64.9979 90.8822L48.629 84.0878L49.9701 85.9166Z" fill="#F9FAFB"/>
<path d="M67.0668 84.7256L67.4823 84.0067H68.999L65.1046 90.7467L48.1412 83.7056L52.1246 76.8134H53.6423L50.0923 82.9545L64.6079 88.98L67.0668 84.7256Z" fill="#F7F9FC"/>
<path d="M65.1034 90.9133C65.0823 90.9133 65.0601 90.9089 65.0401 90.9011L48.0767 83.86C48.0323 83.8411 47.9978 83.8044 47.9823 83.76C47.9667 83.7144 47.9723 83.6644 47.9956 83.6233L51.9801 76.7311C52.0101 76.68 52.0645 76.6478 52.1245 76.6478H53.6423C53.7023 76.6478 53.7567 76.68 53.7867 76.7311C53.8167 76.7822 53.8167 76.8467 53.7867 76.8978L50.3323 82.8755L64.5367 88.7722L67.3378 83.9255C67.3678 83.8744 67.4223 83.8422 67.4823 83.8422H69.0001C69.0601 83.8422 69.1145 83.8744 69.1445 83.9255C69.1745 83.9767 69.1745 84.0411 69.1445 84.0922L65.2489 90.8322C65.2178 90.8822 65.1623 90.9133 65.1034 90.9133ZM48.3801 83.6244L65.0334 90.5367L68.7112 84.1733H67.5778L67.2112 84.8089L64.7523 89.0633C64.7101 89.1355 64.6212 89.1655 64.5445 89.1333L50.0301 83.1078C49.9856 83.0889 49.9512 83.0533 49.9356 83.0078C49.9201 82.9622 49.9256 82.9122 49.949 82.8711L53.3545 76.9789H52.2212L48.3801 83.6244Z" fill="#F9FAFB"/>
<path d="M91.7156 68.9155L93.4379 71.2633L92.1179 79.5389L90.3956 77.1911L91.7156 68.9155Z" fill="#D0D5DD"/>
<path d="M92.1178 79.7055C92.0656 79.7055 92.0156 79.6811 91.9833 79.6378L90.2611 77.29C90.2345 77.2544 90.2245 77.2089 90.2311 77.1655L91.5511 68.8889C91.5622 68.8222 91.6111 68.7689 91.6767 68.7533C91.7422 68.7378 91.81 68.7622 91.85 68.8167L93.5722 71.1644C93.5989 71.2 93.6089 71.2455 93.6022 71.2889L92.2822 79.5644C92.2711 79.6311 92.2222 79.6844 92.1567 79.7C92.1433 79.7033 92.1311 79.7055 92.1178 79.7055ZM90.5711 77.1478L92.0156 79.1178L93.2611 71.3056L91.8167 69.3356L90.5711 77.1478Z" fill="#F9FAFB"/>
<path d="M84.2857 51.1389C84.2868 51.0978 84.289 51.0578 84.2879 51.0178C84.2879 50.9944 84.2857 50.9711 84.2835 50.9478C84.2812 50.9122 84.279 50.8767 84.2746 50.8411C84.2712 50.8167 84.2679 50.7933 84.2635 50.7689C84.2601 50.7467 84.2579 50.7244 84.2535 50.7022C84.2512 50.69 84.2479 50.6778 84.2446 50.6655C84.2412 50.6489 84.2368 50.6322 84.2323 50.6155C84.2223 50.5767 84.2123 50.5389 84.2001 50.5022C84.1957 50.4889 84.1912 50.4744 84.1868 50.4611C84.1846 50.4555 84.1835 50.45 84.1812 50.4444C84.1768 50.4311 84.1701 50.4189 84.1646 50.4055C84.1468 50.36 84.1279 50.3166 84.1068 50.2733C84.1023 50.2644 84.099 50.2544 84.0946 50.2455C84.0879 50.2333 84.0801 50.2211 84.0734 50.2089C84.0557 50.1767 84.0379 50.1455 84.0179 50.1144C84.0101 50.1022 84.0046 50.09 83.9968 50.0789C83.9834 50.0578 83.969 50.0378 83.9546 50.0178L82.2323 47.67C82.2557 47.7011 82.2757 47.7344 82.2957 47.7666C82.3157 47.7978 82.3334 47.8289 82.3512 47.8611C82.3623 47.8822 82.3746 47.9033 82.3846 47.9255C82.4057 47.9689 82.4246 48.0133 82.4423 48.0578C82.4501 48.0766 82.4579 48.0944 82.4646 48.1133C82.469 48.1266 82.4734 48.1411 82.4779 48.1544C82.4901 48.1922 82.5012 48.23 82.5101 48.2678C82.5146 48.2844 82.5179 48.3011 82.5223 48.3178C82.5301 48.3522 82.5357 48.3867 82.5412 48.4211C82.5446 48.4444 82.549 48.4689 82.5523 48.4933C82.5568 48.5278 82.559 48.5633 82.5612 48.6C82.5623 48.6233 82.5646 48.6466 82.5657 48.67C82.5668 48.71 82.5657 48.75 82.5635 48.7911C82.5623 48.8111 82.5634 48.8311 82.5612 48.8511C82.5568 48.9122 82.5501 48.9744 82.5401 49.0366L82.4335 49.7078L81.3934 56.2267L81.1601 57.69L80.5757 61.3511L79.9979 64.9766L79.3701 68.9144L81.0923 71.2622L81.7201 67.3244L82.2979 63.6989L82.8823 60.0378L83.1157 58.5744L84.1557 52.0555L84.2623 51.3844C84.2723 51.3222 84.279 51.26 84.2835 51.1989C84.2857 51.1789 84.2846 51.1589 84.2857 51.1389Z" fill="#D0D5DD"/>
<path d="M81.0923 71.43C81.0401 71.43 80.9901 71.4056 80.9578 71.3622L79.2356 69.0145C79.2089 68.9789 79.1989 68.9333 79.2056 68.89L82.3756 49.0122C82.3845 48.9567 82.3912 48.9011 82.3945 48.8411C82.3945 48.8322 82.3956 48.8233 82.3956 48.8133L82.3967 48.7856C82.3978 48.7489 82.4001 48.7111 82.399 48.6745C82.399 48.6611 82.3978 48.6478 82.3967 48.6345L82.3956 48.61C82.3934 48.5778 82.3912 48.5456 82.3878 48.5133C82.3856 48.4967 82.3834 48.48 82.3801 48.4633L82.3778 48.4489C82.3734 48.4178 82.3678 48.3856 82.3612 48.3545C82.3578 48.34 82.3545 48.3245 82.3501 48.3089C82.3412 48.2745 82.3312 48.24 82.3212 48.2056L82.309 48.1689C82.3056 48.16 82.3023 48.1511 82.2989 48.1433L82.2889 48.1189C82.2734 48.0778 82.2556 48.0378 82.2367 47.9989C82.2278 47.98 82.2167 47.9611 82.2067 47.9411C82.1912 47.9111 82.1745 47.8833 82.1567 47.8556L82.1456 47.8389C82.1301 47.8145 82.1156 47.7911 82.0989 47.7678C82.0445 47.6933 82.0601 47.5889 82.1345 47.5345C82.2089 47.48 82.3134 47.4956 82.3678 47.57L82.3689 47.5711L84.0901 49.9178C84.1067 49.94 84.1223 49.9622 84.1367 49.9845C84.1434 49.9945 84.1489 50.0045 84.1556 50.0156C84.1823 50.0578 84.2023 50.0922 84.2212 50.1278C84.2323 50.1467 84.2389 50.1567 84.2445 50.1678C84.2501 50.1778 84.2534 50.1878 84.2578 50.1967C84.2812 50.2456 84.3023 50.2945 84.3223 50.3433C84.3312 50.3622 84.3356 50.3745 84.3401 50.3856C84.3412 50.3878 84.3445 50.4 84.3456 50.4033C84.3501 50.4156 84.3534 50.4256 84.3567 50.4367L84.3612 50.45C84.3745 50.4911 84.3856 50.5322 84.3967 50.5745C84.4012 50.5933 84.4056 50.6111 84.4101 50.63C84.4156 50.6511 84.4178 50.6611 84.4201 50.6711C84.4234 50.6867 84.4256 50.7033 84.4278 50.72L84.4334 50.7545C84.4367 50.7767 84.4401 50.7978 84.4434 50.82C84.4478 50.8589 84.4501 50.8978 84.4523 50.9356L84.4534 50.9556C84.4545 50.9745 84.4556 50.9922 84.4567 51.0111C84.4578 51.0545 84.4567 51.0978 84.4545 51.1422V51.1622C84.4545 51.1778 84.4534 51.1922 84.4523 51.2078C84.4478 51.2756 84.4401 51.3433 84.4301 51.4078L81.2601 71.2856C81.249 71.3522 81.2001 71.4056 81.1345 71.4211C81.119 71.4278 81.1056 71.43 81.0923 71.43ZM79.5467 68.8722L80.9912 70.8422L84.0989 51.3589C84.1078 51.3033 84.1145 51.2467 84.1178 51.1878C84.1189 51.1778 84.1189 51.1689 84.1189 51.1589L84.1201 51.1322C84.1212 51.0956 84.1234 51.0578 84.1223 51.0211C84.1223 51.0078 84.1212 50.9945 84.1201 50.9811L84.1189 50.9567C84.1167 50.9245 84.1145 50.8922 84.1112 50.86C84.1089 50.8422 84.1067 50.8256 84.1034 50.8078L84.0967 50.7645C84.0956 50.7545 84.0945 50.7445 84.0923 50.7356L84.0845 50.7011C84.0812 50.6856 84.0778 50.6711 84.0734 50.6556C84.0645 50.6211 84.0545 50.5867 84.0445 50.5533L84.0323 50.5156C84.0312 50.5133 84.0278 50.5033 84.0278 50.5011C84.0201 50.4833 84.0156 50.4745 84.0123 50.4645C83.9967 50.4245 83.9801 50.3845 83.9612 50.3456C83.9567 50.3367 83.9534 50.3289 83.9512 50.3211L83.9456 50.3111C83.9412 50.3033 83.9356 50.2956 83.9312 50.2878C83.9145 50.2578 83.8978 50.23 83.8801 50.2011C83.8756 50.1933 83.8712 50.1856 83.8667 50.1778C83.8489 50.15 83.8367 50.1322 83.8234 50.1133L82.7334 48.6267C82.7345 48.6389 82.7345 48.6511 82.7356 48.6633C82.7367 48.7067 82.7356 48.7511 82.7334 48.7945V48.8145C82.7334 48.8289 82.7334 48.8433 82.7323 48.8589C82.7278 48.9278 82.7201 48.9956 82.7101 49.06L79.5467 68.8722Z" fill="#F9FAFB"/>
<path d="M67.4889 79.1611H31.6645C31.0067 79.1611 30.4611 78.8778 30.1334 78.4311L28.4111 76.0833C28.4734 76.1678 28.5422 76.2455 28.6178 76.3166C28.9478 76.6255 29.4078 76.8122 29.9434 76.8122H65.7667L67.4889 79.1611Z" fill="#98A2B3"/>
<path d="M67.4889 79.3278H31.6645C30.9778 79.3278 30.3711 79.0367 29.9989 78.53L28.2778 76.1833C28.2778 76.1833 28.2778 76.1833 28.2778 76.1822C28.2234 76.1078 28.2389 76.0033 28.3134 75.9489C28.3878 75.8944 28.4923 75.91 28.5467 75.9844C28.6023 76.06 28.6656 76.1311 28.7334 76.1956C29.0434 76.4856 29.4734 76.6456 29.9445 76.6456H65.7667C65.82 76.6456 65.87 76.6711 65.9011 76.7133L67.6234 79.0622C67.66 79.1133 67.6656 79.18 67.6378 79.2367C67.6089 79.2922 67.5511 79.3278 67.4889 79.3278ZM29.1789 76.8478L30.2678 78.3322C30.5767 78.7533 31.0856 78.9944 31.6645 78.9944H67.16L65.6823 76.9789H29.9434C29.6745 76.9789 29.4156 76.9344 29.1789 76.8478Z" fill="#F9FAFB"/>
<path d="M79.3711 68.9156H91.7156L90.3956 77.1911L86.3922 72.7667L79.2533 79.6745L74.4756 74L64.6189 84.0078L65.0656 81.2045L65.6211 77.7211L65.7656 76.8134L67.0256 68.9156H79.3711ZM80.1456 76.0267C81.2 76.0267 82.1856 75.2023 82.3478 74.1856C82.51 73.1689 81.7867 72.3445 80.7333 72.3445C79.6789 72.3445 78.6922 73.1678 78.53 74.1856C78.3678 75.2011 79.0922 76.0267 80.1456 76.0267Z" fill="#E4E7EC"/>
<path d="M64.6189 84.1733C64.5934 84.1733 64.5678 84.1678 64.5434 84.1556C64.4789 84.1234 64.4423 84.0522 64.4545 83.9811L66.8611 68.8889C66.8745 68.8078 66.9434 68.7489 67.0256 68.7489H91.7156C91.7645 68.7489 91.8112 68.77 91.8423 68.8078C91.8734 68.8445 91.8878 68.8945 91.88 68.9422L90.56 77.2178C90.55 77.2811 90.5045 77.3333 90.4434 77.3511C90.3823 77.3689 90.3156 77.3511 90.2723 77.3033L86.3845 73.0067L79.3689 79.7945C79.3356 79.8267 79.2912 79.8433 79.2445 79.8411C79.1978 79.8389 79.1556 79.8178 79.1256 79.7822L74.4656 74.2478L64.7367 84.1245C64.7056 84.1567 64.6623 84.1733 64.6189 84.1733ZM67.1678 69.0822L64.8656 83.52L74.3567 73.8833C74.39 73.85 74.4356 73.8322 74.4823 73.8333C74.5289 73.8356 74.5734 73.8567 74.6034 73.8922L79.2656 79.43L86.2767 72.6467C86.3089 72.6156 86.3512 72.5978 86.3978 72.6C86.4434 72.6011 86.4856 72.6211 86.5156 72.6545L90.2856 76.8211L91.52 69.0822H67.1678ZM80.1456 76.1933C79.5778 76.1933 79.0789 75.9756 78.7411 75.58C78.4134 75.1967 78.28 74.6911 78.3656 74.1589C78.54 73.0667 79.6023 72.1778 80.7334 72.1778C81.3011 72.1778 81.8 72.3956 82.1378 72.7911C82.4645 73.1745 82.5978 73.6789 82.5134 74.2111C82.3389 75.3034 81.2767 76.1933 80.1456 76.1933ZM80.7334 72.51C79.7589 72.51 78.8445 73.2722 78.6945 74.21C78.6256 74.6445 78.7323 75.0533 78.9945 75.3622C79.2678 75.6822 79.6767 75.8589 80.1456 75.8589C81.12 75.8589 82.0334 75.0956 82.1834 74.1578C82.2523 73.7233 82.1467 73.3145 81.8834 73.0067C81.6112 72.6867 81.2023 72.51 80.7334 72.51Z" fill="#F9FAFB"/>
<path d="M86.3922 72.7667L90.3956 77.1911L89.3089 84.0067H64.6189L74.4756 74L79.2533 79.6744L86.3922 72.7667Z" fill="#D0D5DD"/>
<path d="M89.309 84.1733H64.619C64.5523 84.1733 64.4912 84.1333 64.4656 84.0711C64.4401 84.0089 64.4534 83.9378 64.5012 83.89L74.3579 73.8822C74.3912 73.8489 74.4367 73.8311 74.4834 73.8322C74.5301 73.8344 74.5745 73.8555 74.6045 73.8911L79.2668 79.4289L86.2779 72.6455C86.3101 72.6144 86.3523 72.5967 86.399 72.5989C86.4445 72.6 86.4867 72.62 86.5167 72.6533L90.5201 77.0778C90.5534 77.1155 90.569 77.1655 90.5612 77.2155L89.4745 84.0322C89.4601 84.1144 89.3901 84.1733 89.309 84.1733ZM65.0168 83.84H89.1667L90.219 77.2433L86.3856 73.0055L79.3701 79.7933C79.3367 79.8255 79.2923 79.8422 79.2456 79.84C79.199 79.8378 79.1567 79.8167 79.1267 79.7811L74.4667 74.2467L65.0168 83.84Z" fill="#F9FAFB"/>
<path d="M90.3956 77.1912L92.1178 79.5389L91.0312 86.3556L89.309 84.0067L90.3956 77.1912Z" fill="#D0D5DD"/>
<path d="M91.0312 86.5222C90.979 86.5222 90.929 86.4978 90.8968 86.4545L89.1746 84.1067C89.1479 84.0711 89.1379 84.0256 89.1446 83.9822L90.2312 77.1656C90.2424 77.0989 90.2912 77.0456 90.3568 77.03C90.4224 77.0144 90.4901 77.0389 90.5301 77.0933L92.2524 79.4411C92.279 79.4767 92.289 79.5222 92.2824 79.5656L91.1957 86.3822C91.1846 86.4489 91.1357 86.5022 91.0701 86.5178C91.0568 86.52 91.0435 86.5222 91.0312 86.5222ZM89.4846 83.9644L90.929 85.9344L91.9424 79.5811L90.4979 77.6111L89.4846 83.9644Z" fill="#F9FAFB"/>
<path d="M68.0023 63.2967C68.0067 63.2367 68.0089 63.1767 68.0112 63.1167C68.0156 63.0244 68.02 62.9322 68.0223 62.8411C68.0234 62.7778 68.0234 62.7155 68.0234 62.6522C68.0234 62.5644 68.0234 62.4778 68.0212 62.3911C68.02 62.3267 68.0167 62.2633 68.0145 62.2C68.0112 62.1155 68.0067 62.0311 68 61.9467C67.9956 61.8833 67.99 61.82 67.9845 61.7567C67.9767 61.6733 67.9678 61.5911 67.9578 61.5078C67.95 61.4455 67.9423 61.3833 67.9345 61.3211C67.9234 61.2389 67.91 61.1567 67.8967 61.0744C67.8867 61.0144 67.8767 60.9544 67.8656 60.8944C67.8612 60.8711 67.8578 60.8467 67.8534 60.8233C67.8367 60.7389 67.8178 60.6567 67.7989 60.5733C67.7945 60.5511 67.79 60.5289 67.7845 60.5078C67.7545 60.3778 67.72 60.25 67.6845 60.1233C67.6745 60.0889 67.6634 60.0544 67.6534 60.0189C67.6256 59.9244 67.5967 59.8311 67.5656 59.7389C67.5523 59.6989 67.5389 59.6589 67.5245 59.6189C67.5145 59.5889 67.5045 59.5589 67.4945 59.53C67.4634 59.4433 67.43 59.3567 67.3956 59.2711C67.3934 59.2667 67.3912 59.2611 67.39 59.2567C67.3434 59.1411 67.2945 59.0267 67.2434 58.9144C67.2323 58.89 67.2212 58.8655 67.21 58.84C67.1634 58.7378 67.1145 58.6378 67.0634 58.5378C67.0589 58.53 67.0545 58.5211 67.05 58.5133C66.9834 58.3833 66.9134 58.2567 66.84 58.1311C66.8367 58.1244 66.8334 58.1178 66.8289 58.1111C66.7512 57.98 66.67 57.8511 66.5856 57.7233C66.5812 57.7167 66.5767 57.7089 66.5723 57.7022C66.5034 57.5989 66.4323 57.4978 66.3589 57.3978L64.6367 55.05C64.7145 55.1567 64.79 55.2655 64.8634 55.3767C64.9478 55.5033 65.0289 55.6322 65.1067 55.7644C65.1101 55.7711 65.1134 55.7778 65.1178 55.7844C65.1912 55.91 65.2612 56.0378 65.3278 56.1667C65.3834 56.2744 65.4367 56.3833 65.4878 56.4933C65.4989 56.5178 65.51 56.5422 65.5212 56.5678C65.5723 56.6811 65.6212 56.7944 65.6678 56.91C65.67 56.9144 65.6723 56.92 65.6734 56.9244C65.7189 57.0389 65.7612 57.1555 65.8023 57.2733C65.8167 57.3133 65.8301 57.3533 65.8434 57.3933C65.8745 57.4855 65.9034 57.58 65.9312 57.6733C65.9412 57.7078 65.9523 57.7422 65.9623 57.7778C65.9978 57.9044 66.0323 58.0333 66.0623 58.1622C66.0678 58.1844 66.0712 58.2067 66.0767 58.2278C66.1012 58.3344 66.1223 58.4411 66.1434 58.5489C66.1545 58.6089 66.1645 58.6689 66.1745 58.7289C66.1878 58.8111 66.2012 58.8922 66.2123 58.9755C66.2212 59.0378 66.2289 59.1 66.2356 59.1622C66.2456 59.2444 66.2545 59.3278 66.2623 59.4111C66.2678 59.4744 66.2734 59.5378 66.2778 59.6011C66.2834 59.6855 66.2878 59.77 66.2923 59.8544C66.2956 59.9178 66.2978 59.9822 66.2989 60.0455C66.3012 60.1322 66.3012 60.22 66.3012 60.3067C66.3012 60.37 66.3012 60.4322 66.3 60.4955C66.2978 60.5867 66.2934 60.6789 66.2889 60.7711C66.2856 60.8311 66.2834 60.8911 66.28 60.9511C66.2734 61.0533 66.2634 61.1567 66.2523 61.26C66.2467 61.3111 66.2434 61.3611 66.2378 61.4122C66.22 61.5667 66.1989 61.7222 66.1745 61.8789C66.1567 61.99 66.1367 62.1 66.1156 62.2089C66.11 62.2411 66.1034 62.2722 66.0967 62.3033C66.08 62.3878 66.0623 62.4711 66.0434 62.5544C66.0367 62.5833 66.0312 62.6122 66.0245 62.64C65.9989 62.7478 65.9723 62.8555 65.9434 62.9633C65.9389 62.9811 65.9334 62.9978 65.9289 63.0155C65.9045 63.1067 65.8778 63.1967 65.8512 63.2878C65.8412 63.32 65.8323 63.3511 65.8223 63.3822C65.7956 63.4678 65.7689 63.5522 65.74 63.6367C65.7323 63.66 65.7256 63.6822 65.7178 63.7055C65.6823 63.81 65.6445 63.9144 65.6056 64.0178C65.5967 64.0422 65.5867 64.0667 65.5767 64.0911C65.5456 64.1722 65.5134 64.2533 65.48 64.3344C65.4678 64.3644 65.4556 64.3955 65.4423 64.4255C65.4045 64.5167 65.3656 64.6067 65.3245 64.6967C65.3189 64.7089 65.3134 64.7211 65.3078 64.7333C65.2612 64.8355 65.2134 64.9367 65.1645 65.0378C65.1512 65.0655 65.1378 65.0922 65.1234 65.12C65.0845 65.1978 65.0456 65.2755 65.0045 65.3522C64.99 65.3789 64.9767 65.4055 64.9623 65.4322C64.91 65.5311 64.8556 65.6289 64.8 65.7267C64.7923 65.74 64.7845 65.7533 64.7767 65.7667C64.7278 65.8511 64.6778 65.9355 64.6267 66.02C64.6078 66.0522 64.5878 66.0833 64.5678 66.1155C64.5378 66.1644 64.5067 66.2133 64.4756 66.2611C64.4534 66.2955 64.4323 66.3289 64.41 66.3633C64.3778 66.4122 64.3456 66.4611 64.3123 66.51C64.29 66.5422 64.2689 66.5744 64.2467 66.6067C64.2112 66.6578 64.1756 66.7089 64.14 66.7589C64.12 66.7878 64.0989 66.8167 64.0789 66.8455C64.0345 66.9067 63.99 66.9678 63.9445 67.0278C63.9323 67.0444 63.9189 67.0622 63.9067 67.0789C63.7956 67.2267 63.68 67.3722 63.5623 67.5155C63.5623 67.5167 63.5612 67.5167 63.5612 67.5178C63.4423 67.6611 63.3212 67.8033 63.1967 67.9422C63.1945 67.9455 63.1912 67.9478 63.1889 67.9511C63.0734 68.08 62.9545 68.2067 62.8334 68.3311C62.8312 68.3333 62.83 68.3344 62.8278 68.3367C62.7078 68.46 62.5845 68.5811 62.46 68.7C62.4545 68.7055 62.4478 68.7111 62.4423 68.7178C62.3234 68.83 62.2023 68.9411 62.0789 69.0489C62.0678 69.0589 62.0567 69.0689 62.0456 69.0789C61.9256 69.1833 61.8034 69.2867 61.68 69.3878C61.6656 69.4 61.65 69.4122 61.6356 69.4244C61.5112 69.5255 61.3845 69.6233 61.2567 69.72C61.24 69.7322 61.2234 69.7455 61.2067 69.7578C61.0789 69.8522 60.95 69.9444 60.8189 70.0355C60.8012 70.0478 60.7834 70.06 60.7656 70.0722C60.6267 70.1667 60.4867 70.2589 60.3445 70.3489C60.3278 70.36 60.31 70.37 60.2934 70.3811C60.15 70.4711 60.0045 70.5578 59.8567 70.6422C59.8367 70.6533 59.8178 70.6655 59.7978 70.6767C59.74 70.7089 59.6834 70.7411 59.6256 70.7722C59.5967 70.7878 59.5678 70.8044 59.5389 70.82C59.4578 70.8633 59.3767 70.9055 59.2956 70.9478C59.2889 70.9511 59.2823 70.9544 59.2767 70.9578C59.1889 71.0022 59.1 71.0467 59.0112 71.0889C58.9834 71.1022 58.9545 71.1155 58.9256 71.1289C58.8645 71.1578 58.8034 71.1867 58.7423 71.2144C58.7145 71.2267 58.6867 71.2389 58.66 71.2511C58.5789 71.2867 58.4989 71.3222 58.4178 71.3567C58.3878 71.3689 58.3578 71.3822 58.3267 71.3944C58.2234 71.4378 58.1189 71.4789 58.0145 71.5189C58.0123 71.52 58.0112 71.52 58.0089 71.5211C57.9023 71.5622 57.7956 71.6011 57.6889 71.6389C57.6578 71.65 57.6278 71.66 57.5967 71.6711C57.5134 71.7 57.43 71.7278 57.3467 71.7544C57.32 71.7633 57.2934 71.7722 57.2667 71.78C57.1401 71.82 57.0123 71.8578 56.8834 71.8933C56.8567 71.9011 56.8312 71.9078 56.8045 71.9144C56.6734 71.95 56.5412 71.9844 56.4089 72.0167C56.4012 72.0189 56.3923 72.02 56.3845 72.0222C56.2567 72.0522 56.1278 72.08 55.9989 72.1067C55.9745 72.1111 55.9512 72.1167 55.9267 72.1211C55.7956 72.1467 55.6645 72.17 55.5334 72.1911C55.5067 72.1955 55.48 72.1989 55.4545 72.2033C55.3189 72.2244 55.1823 72.2433 55.0456 72.26C55.0412 72.26 55.0367 72.2611 55.0323 72.2611C54.8978 72.2767 54.7645 72.29 54.6289 72.3011C54.6034 72.3033 54.5778 72.3055 54.5523 72.3078C54.4189 72.3178 54.2856 72.3267 54.1512 72.3322C54.1245 72.3333 54.0989 72.3344 54.0723 72.3355C53.9334 72.3411 53.7934 72.3444 53.6545 72.3444C52.4212 72.3444 51.2667 72.1455 50.22 71.78C50.0456 71.7189 49.8745 71.6533 49.7056 71.5833C49.0323 71.3033 48.4089 70.9511 47.8423 70.5355C47.1345 70.0167 46.5178 69.4 46.0067 68.7033L47.7289 71.0511C49.3634 73.28 52.0867 74.6911 55.3756 74.6911C55.5156 74.6911 55.6545 74.6878 55.7934 74.6822C55.82 74.6811 55.8456 74.68 55.8723 74.6789C56.0067 74.6733 56.14 74.6655 56.2734 74.6544C56.2989 74.6522 56.3245 74.65 56.35 74.6478C56.4845 74.6367 56.6189 74.6233 56.7534 74.6078C56.7578 74.6078 56.7623 74.6067 56.7667 74.6067C56.9034 74.59 57.04 74.5711 57.1756 74.55C57.2023 74.5455 57.2289 74.5422 57.2545 74.5378C57.3867 74.5167 57.5178 74.4933 57.6478 74.4678C57.6723 74.4633 57.6956 74.4578 57.72 74.4533C57.8489 74.4278 57.9778 74.4 58.1056 74.3689C58.1134 74.3667 58.1223 74.3655 58.13 74.3633C58.2623 74.3322 58.3945 74.2978 58.5256 74.2611C58.5523 74.2544 58.5778 74.2467 58.6045 74.24C58.7323 74.2044 58.86 74.1667 58.9878 74.1267C58.9956 74.1244 59.0034 74.1222 59.0112 74.12C59.03 74.1144 59.0489 74.1067 59.0678 74.1011C59.1512 74.0744 59.2356 74.0467 59.3178 74.0178C59.3489 74.0067 59.3789 73.9967 59.41 73.9855C59.5178 73.9478 59.6245 73.9089 59.73 73.8678C59.7323 73.8667 59.7334 73.8667 59.7356 73.8655C59.84 73.8255 59.9445 73.7833 60.0478 73.7411C60.0778 73.7289 60.1078 73.7155 60.1389 73.7033C60.22 73.6689 60.3012 73.6333 60.3812 73.5978C60.3989 73.59 60.4178 73.5822 60.4356 73.5744C60.4456 73.57 60.4545 73.5655 60.4645 73.5611C60.5256 73.5333 60.5867 73.5044 60.6478 73.4755C60.6767 73.4622 60.7045 73.4489 60.7334 73.4355C60.8223 73.3922 60.9112 73.3489 60.9989 73.3044C61.0056 73.3011 61.0123 73.2978 61.0178 73.2944C61.0989 73.2522 61.18 73.21 61.2612 73.1667C61.29 73.1511 61.3189 73.1344 61.3478 73.1189C61.4056 73.0878 61.4634 73.0555 61.52 73.0233C61.53 73.0178 61.54 73.0122 61.55 73.0067C61.56 73.0011 61.57 72.9944 61.58 72.9889C61.7267 72.9044 61.8723 72.8178 62.0167 72.7278C62.0334 72.7167 62.0512 72.7067 62.0678 72.6955C62.21 72.6055 62.3512 72.5133 62.4889 72.4189C62.4967 72.4133 62.5045 72.4089 62.5112 72.4044C62.5212 72.3967 62.5323 72.3889 62.5423 72.3822C62.6734 72.2922 62.8023 72.1989 62.93 72.1044C62.9467 72.0922 62.9634 72.0789 62.98 72.0667C63.1078 71.97 63.2345 71.8722 63.3589 71.7711C63.3645 71.7667 63.37 71.7622 63.3756 71.7578C63.3856 71.75 63.3945 71.7422 63.4034 71.7344C63.5267 71.6333 63.6489 71.5311 63.7689 71.4255C63.78 71.4155 63.7912 71.4055 63.8023 71.3955C63.9256 71.2867 64.0467 71.1767 64.1656 71.0644C64.1678 71.0622 64.1689 71.0611 64.1712 71.06C64.1756 71.0555 64.18 71.0511 64.1845 71.0478C64.3089 70.9289 64.4323 70.8078 64.5523 70.6844C64.5545 70.6822 64.5556 70.6811 64.5567 70.6789C64.6778 70.5544 64.7967 70.4267 64.9134 70.2978C64.9156 70.2955 64.9178 70.2933 64.9201 70.2911C64.9212 70.29 64.9212 70.29 64.9223 70.2889C65.0467 70.15 65.1689 70.0089 65.2867 69.8644C65.2867 69.8633 65.2878 69.8633 65.2878 69.8622C65.4056 69.7189 65.52 69.5733 65.6323 69.4255C65.6334 69.4244 65.6345 69.4233 65.6356 69.4222C65.6478 69.4067 65.6589 69.39 65.6701 69.3744C65.7156 69.3144 65.76 69.2533 65.8045 69.1922C65.8256 69.1633 65.8456 69.1344 65.8656 69.1055C65.9012 69.0544 65.9378 69.0033 65.9723 68.9522C65.9945 68.92 66.0156 68.8878 66.0378 68.8555C66.0712 68.8067 66.1034 68.7578 66.1356 68.7089C66.1578 68.6755 66.1789 68.6411 66.2012 68.6067C66.2323 68.5578 66.2623 68.51 66.2934 68.4611C66.3045 68.4422 66.3167 68.4244 66.3278 68.4055C66.3356 68.3922 66.3434 68.3789 66.3512 68.3655C66.4023 68.2822 66.4523 68.1978 66.5012 68.1122C66.5089 68.0989 66.5167 68.0855 66.5245 68.0722C66.58 67.9744 66.6334 67.8767 66.6867 67.7778C66.7012 67.7511 66.7145 67.7244 66.7289 67.6978C66.7689 67.6211 66.8089 67.5433 66.8478 67.4655C66.8612 67.4378 66.8756 67.4111 66.8889 67.3833C66.9378 67.2822 66.9867 67.1811 67.0323 67.0789C67.0334 67.0767 67.0345 67.0744 67.0356 67.0722C67.04 67.0622 67.0445 67.0522 67.0489 67.0422C67.0889 66.9522 67.1278 66.8622 67.1667 66.7711C67.1789 66.7411 67.1923 66.71 67.2045 66.68C67.2378 66.5989 67.2701 66.5178 67.3012 66.4367C67.3101 66.4122 67.32 66.3878 67.33 66.3633C67.3689 66.26 67.4067 66.1555 67.4423 66.0511C67.45 66.0289 67.4578 66.0055 67.4645 65.9822C67.4923 65.8978 67.52 65.8133 67.5467 65.7278C67.5567 65.6967 67.5667 65.6644 67.5756 65.6333C67.6023 65.5433 67.6289 65.4522 67.6534 65.3611C67.6578 65.3433 67.6634 65.3267 67.6678 65.3089C67.6967 65.2022 67.7234 65.0933 67.7489 64.9855C67.7556 64.9567 67.7623 64.9278 67.7678 64.9C67.7867 64.8167 67.8045 64.7333 67.8212 64.6489C67.8278 64.6178 67.8345 64.5855 67.84 64.5544C67.8612 64.4444 67.8812 64.3344 67.8989 64.2233C67.9234 64.0667 67.9445 63.9111 67.9623 63.7567C67.9678 63.7055 67.9712 63.6544 67.9767 63.6044C67.9856 63.5022 67.9956 63.3989 68.0023 63.2967Z" fill="#D0D5DD"/>
<path d="M55.3755 74.8589C52.1589 74.8589 49.3233 73.5067 47.5944 71.15L45.8733 68.8044C45.8733 68.8033 45.8722 68.8033 45.8722 68.8022C45.8667 68.7944 45.8622 68.7867 45.8578 68.7789C45.8189 68.7011 45.8455 68.6067 45.92 68.5622C45.9933 68.5167 46.09 68.5356 46.1411 68.6056C46.6433 69.29 47.2478 69.8944 47.9411 70.4022C48.5 70.8122 49.1155 71.1578 49.77 71.43C49.9355 71.4989 50.1055 71.5633 50.2755 71.6233C51.3289 71.9911 52.4667 72.1778 53.6544 72.1778C53.7789 72.1778 53.9089 72.1756 54.0667 72.1689L54.1444 72.1655C54.2767 72.16 54.4078 72.1522 54.54 72.1422L54.6155 72.1355C54.7478 72.1244 54.88 72.1111 55.0122 72.0955L55.0455 72.26L55.0255 72.0944C55.16 72.0789 55.2944 72.0589 55.4289 72.0389L55.5067 72.0267C55.6367 72.0055 55.7655 71.9822 55.8955 71.9578L55.9667 71.9433C56.0944 71.9178 56.2211 71.89 56.3467 71.86L56.3622 71.8567C56.5022 71.8233 56.6322 71.79 56.7622 71.7544L56.84 71.7333C56.9667 71.6978 57.0922 71.6611 57.2178 71.6211L57.2967 71.5955C57.38 71.5689 57.4622 71.5411 57.5444 71.5133L57.6355 71.4822C57.7411 71.4444 57.8467 71.4067 57.9511 71.3667C58.06 71.3244 58.1622 71.2833 58.2644 71.2411L58.3533 71.2033C58.4333 71.1689 58.5133 71.1344 58.5933 71.0989L58.6744 71.0622C58.7355 71.0344 58.7955 71.0067 58.8555 70.9778L58.94 70.9378C59.0278 70.8955 59.1155 70.8522 59.2022 70.8078C59.2022 70.8078 59.22 70.7989 59.2211 70.7978C59.3022 70.7567 59.3822 70.7144 59.4622 70.6711L59.5478 70.6233C59.6044 70.5922 59.6622 70.5611 59.7189 70.5289L59.7767 70.4956C59.9244 70.4111 60.0689 70.3244 60.2078 70.2378L60.2578 70.2067C60.4011 70.1167 60.5411 70.0244 60.6744 69.9333L60.7278 69.8967C60.86 69.8056 60.9889 69.7133 61.1111 69.6222L61.1611 69.5844C61.2911 69.4867 61.4178 69.3889 61.5355 69.2933L61.58 69.2578C61.71 69.1522 61.8278 69.0522 61.9411 68.9533L61.9733 68.9244C62.0989 68.8133 62.22 68.7033 62.3322 68.5967L62.35 68.5789C62.4755 68.4589 62.5978 68.3389 62.7133 68.2211C62.8389 68.0922 62.9567 67.9655 63.07 67.84L63.2022 67.9422L63.0778 67.8311C63.2011 67.6944 63.3222 67.5533 63.4378 67.4122C63.5555 67.2689 63.67 67.1244 63.7789 66.98L63.8167 66.9289C63.8611 66.8689 63.9055 66.8089 63.9489 66.7489L64.0089 66.6633C64.0444 66.6133 64.0789 66.5633 64.1144 66.5133L64.1789 66.4178C64.2111 66.37 64.2433 66.3222 64.2744 66.2733C64.2955 66.24 64.3178 66.2067 64.3389 66.1733C64.37 66.1255 64.4 66.0778 64.4289 66.03C64.4489 65.9989 64.4678 65.9678 64.4867 65.9355C64.5367 65.8522 64.5867 65.77 64.6344 65.6855L64.6578 65.6455C64.7122 65.55 64.7655 65.4522 64.8178 65.3556L64.8589 65.2767C64.8989 65.2 64.9378 65.1244 64.9755 65.0478L65.0155 64.9667C65.0644 64.8678 65.1111 64.7678 65.1567 64.6667L65.1733 64.63C65.2133 64.5422 65.2511 64.4522 65.2889 64.3633L65.3255 64.2744C65.3578 64.1944 65.39 64.1144 65.4211 64.0344L65.4489 63.9611C65.4867 63.86 65.5233 63.7567 65.5589 63.6533L65.5811 63.5867C65.6089 63.5033 65.6355 63.42 65.6622 63.3367L65.6911 63.2433C65.7178 63.1544 65.7433 63.0644 65.7678 62.9756L65.7822 62.9244C65.81 62.8189 65.8367 62.7133 65.8611 62.6067L65.88 62.5222C65.8989 62.44 65.9167 62.3578 65.9322 62.2755L65.9511 62.1822C65.9722 62.0744 65.9911 61.9656 66.0089 61.8567C66.0322 61.71 66.0533 61.5556 66.0711 61.3978C66.0744 61.3678 66.0767 61.3378 66.08 61.3078L66.0855 61.2478C66.0955 61.1467 66.1055 61.0444 66.1122 60.9444C66.1144 60.9044 66.1167 60.8655 66.1189 60.8255L66.1211 60.7667C66.1255 60.6756 66.13 60.5856 66.1322 60.4956C66.1333 60.4444 66.1333 60.3933 66.1333 60.3411V60.31C66.1333 60.2233 66.1333 60.1378 66.1311 60.0533C66.13 59.9955 66.1278 59.9378 66.1244 59.88L66.1233 59.8655C66.12 59.7822 66.1155 59.7 66.11 59.6167C66.1055 59.5544 66.1011 59.4922 66.0944 59.43C66.0867 59.3478 66.0789 59.2667 66.0689 59.1855C66.0611 59.1244 66.0544 59.0633 66.0455 59.0022C66.0344 58.9211 66.0211 58.8411 66.0078 58.76L66.0033 58.7344C65.9944 58.6833 65.9867 58.6333 65.9767 58.5833C65.9567 58.4778 65.9355 58.3733 65.9111 58.2689L65.8978 58.2044C65.8689 58.0822 65.8367 57.9589 65.8 57.8267C65.7933 57.8044 65.7867 57.7833 65.7811 57.7611L65.77 57.7244C65.7422 57.6322 65.7144 57.54 65.6833 57.4489C65.67 57.4089 65.6567 57.37 65.6433 57.3311C65.5967 57.1967 65.5567 57.0889 65.5167 56.99L65.6655 56.9144L65.5111 56.9767C65.4689 56.8722 65.4222 56.7622 65.3678 56.6411L65.3344 56.5689C65.2844 56.4611 65.2311 56.3533 65.1778 56.2489C65.1111 56.12 65.0422 55.9944 64.9722 55.8744C64.9711 55.8722 64.9655 55.8622 64.9644 55.86C64.8889 55.7311 64.8111 55.6067 64.7233 55.4755C64.6455 55.3589 64.5733 55.2544 64.5011 55.1555C64.4467 55.0811 64.4633 54.9767 64.5367 54.9222C64.6111 54.8678 64.7155 54.8833 64.77 54.9578L66.4922 57.3055C66.5667 57.4078 66.64 57.5122 66.71 57.6167L66.72 57.6333C66.8144 57.7756 66.8955 57.9044 66.9711 58.0333L66.98 58.0489C67.0555 58.1789 67.1278 58.31 67.1967 58.4433L67.21 58.4689C67.2622 58.57 67.3111 58.6722 67.3589 58.7767L67.3933 58.8522C67.4511 58.9789 67.5 59.0933 67.5433 59.2011L67.5489 59.2156C67.5833 59.3022 67.6167 59.3911 67.6489 59.4789C67.6555 59.4967 67.6611 59.5144 67.6667 59.5322L67.6789 59.57C67.6933 59.6111 67.7067 59.6522 67.7211 59.6922C67.7522 59.7867 67.7822 59.8822 67.8111 59.9778L67.8233 60.0189C67.83 60.0411 67.8367 60.0622 67.8422 60.0844C67.8811 60.2211 67.9144 60.3489 67.9444 60.4767L67.9589 60.5444C67.9778 60.6289 67.9967 60.7133 68.0133 60.7989C68.0167 60.8133 68.0189 60.8289 68.0211 60.8444L68.0255 60.8722C68.0355 60.9278 68.0455 60.9856 68.0544 61.0422L68.0567 61.0555C68.0711 61.1389 68.0844 61.2222 68.0955 61.3067C68.1044 61.37 68.1122 61.4333 68.12 61.4967C68.13 61.5811 68.1389 61.6644 68.1467 61.75C68.1522 61.8144 68.1578 61.8789 68.1622 61.9433C68.1678 62.0289 68.1733 62.1144 68.1767 62.2011C68.18 62.2655 68.1822 62.3311 68.1833 62.3955C68.1855 62.4833 68.1855 62.5722 68.1855 62.6611V62.7033C68.1855 62.7533 68.1855 62.8033 68.1844 62.8533C68.1822 62.9455 68.1778 63.04 68.1733 63.1333L68.1711 63.19C68.1689 63.2322 68.1678 63.2744 68.1644 63.3167C68.1578 63.4211 68.1467 63.5255 68.1367 63.63L68.1311 63.69C68.1278 63.7222 68.1255 63.7533 68.1222 63.7855C68.1033 63.9522 68.0822 64.1078 68.0578 64.2589C68.04 64.3711 68.02 64.4833 67.9978 64.5944L67.9789 64.69C67.9611 64.7756 67.9433 64.86 67.9244 64.9456L67.9044 65.0333C67.8789 65.1433 67.8522 65.2522 67.8222 65.3611L67.8078 65.4144C67.7833 65.5067 67.7567 65.5989 67.7289 65.69L67.7 65.7867C67.6733 65.8733 67.6455 65.9589 67.6167 66.0444L67.5933 66.1144C67.5567 66.22 67.5189 66.3255 67.48 66.4311L67.4511 66.5055C67.42 66.5878 67.3867 66.67 67.3533 66.7522L67.3155 66.8444C67.2767 66.9367 67.2378 67.0278 67.1967 67.1189L67.1833 67.1489C67.1322 67.26 67.0844 67.3633 67.0344 67.4655L66.9933 67.5489C66.9544 67.6278 66.9144 67.7067 66.8733 67.7844L66.8311 67.8655C66.7778 67.9655 66.7233 68.0655 66.6667 68.1644L66.6433 68.2055C66.5933 68.2922 66.5433 68.3778 66.4911 68.4622L66.4311 68.5589C66.4011 68.6078 66.37 68.6578 66.3389 68.7067C66.3167 68.7411 66.2955 68.7755 66.2722 68.81C66.24 68.86 66.2067 68.91 66.1733 68.9589L66.1078 69.0567C66.0722 69.1089 66.0355 69.16 65.9989 69.2122L65.9367 69.3C65.8922 69.3622 65.8467 69.4233 65.8011 69.4844L65.7655 69.5322C65.65 69.6855 65.5322 69.8344 65.4144 69.9778C65.2933 70.1244 65.1689 70.2689 65.0433 70.4089C65.0422 70.41 65.0355 70.4178 65.0344 70.4189C64.9189 70.5478 64.7978 70.6778 64.6744 70.8033C64.5511 70.93 64.4267 71.0533 64.2967 71.1767L64.2844 71.1889C64.1633 71.3033 64.04 71.4167 63.91 71.53L63.8755 71.56C63.76 71.6611 63.6389 71.7633 63.5055 71.8722L63.4778 71.8967C63.4767 71.8978 63.4678 71.9044 63.4667 71.9056C63.3389 72.0089 63.21 72.1089 63.0778 72.2089L63.0267 72.2467C62.9011 72.34 62.7689 72.4344 62.6344 72.5278L62.5878 72.56C62.4411 72.66 62.2978 72.7544 62.1533 72.8455L62.1022 72.8778C61.9589 72.9678 61.81 73.0567 61.66 73.1422L61.6011 73.1767C61.5422 73.21 61.4844 73.2422 61.4255 73.2744L61.3378 73.3233C61.2555 73.3678 61.1744 73.41 61.0911 73.4522L61.0711 73.4622C60.9822 73.5078 60.8922 73.5522 60.8022 73.5955L60.7155 73.6367C60.6533 73.6655 60.5922 73.6956 60.53 73.7233L60.4467 73.7611C60.3655 73.7978 60.2833 73.8333 60.2011 73.8678L60.1089 73.9067C60.0044 73.95 59.8989 73.9922 59.7933 74.0333C59.68 74.0767 59.5722 74.1167 59.4633 74.1544L59.37 74.1867C59.2855 74.2155 59.2011 74.2444 59.1155 74.2711L59.0411 74.2955C58.9044 74.3378 58.7755 74.3767 58.6455 74.4133L58.5667 74.4355C58.4333 74.4722 58.3 74.5067 58.1655 74.5389L58.15 74.5422C58.0111 74.5744 57.88 74.6033 57.75 74.63L57.6767 74.6444C57.5444 74.67 57.4111 74.6944 57.2778 74.7155L57.1978 74.7278C57.06 74.7489 56.9222 74.7689 56.7833 74.7856L56.77 74.7867C56.6344 74.8033 56.4978 74.8156 56.3611 74.8278L56.2833 74.8344C56.1478 74.8444 56.0122 74.8533 55.8755 74.8589L55.7955 74.8622C55.6389 74.8556 55.5033 74.8589 55.3755 74.8589ZM56.7333 74.4444L56.7667 74.6089L56.7467 74.4433C56.8811 74.4267 57.0155 74.4078 57.15 74.3867L57.2278 74.3744C57.3578 74.3533 57.4867 74.33 57.6167 74.3055L57.6878 74.2911C57.8155 74.2655 57.9422 74.2378 58.0678 74.2078L58.0822 74.2044C58.2233 74.1711 58.3544 74.1367 58.4833 74.1011L58.5611 74.08C58.6878 74.0444 58.8133 74.0078 58.9389 73.9678L59.0178 73.9422C59.1011 73.9155 59.1833 73.8878 59.2655 73.86L59.3567 73.8289C59.4622 73.7911 59.5678 73.7533 59.6733 73.7133C59.7822 73.6711 59.8844 73.63 59.9867 73.5878L60.0767 73.55C60.1567 73.5167 60.2367 73.4811 60.3167 73.4456L60.3978 73.4089C60.4589 73.3811 60.5189 73.3533 60.5789 73.3244L60.6633 73.2844C60.7511 73.2422 60.8389 73.1989 60.9255 73.1544L60.9455 73.1444C61.0255 73.1033 61.1055 73.0611 61.1855 73.0189L61.2711 72.9722C61.3278 72.9411 61.3855 72.91 61.4422 72.8778L61.5011 72.8444C61.6467 72.7611 61.7922 72.6744 61.9322 72.5867L61.9822 72.5544C62.1233 72.4655 62.2633 72.3733 62.3989 72.2811L62.4522 72.2444C62.5833 72.1533 62.7122 72.0611 62.8355 71.97L62.8855 71.9322C63.0144 71.8356 63.1411 71.7367 63.26 71.6411L63.3044 71.6056C63.4344 71.5 63.5522 71.4 63.6655 71.3011L63.6989 71.2722C63.8255 71.1611 63.9455 71.0511 64.0578 70.9444L64.1833 71.0544L64.0755 70.9267C64.2022 70.8067 64.3244 70.6855 64.4389 70.5678C64.5633 70.44 64.6822 70.3133 64.7955 70.1867C64.7967 70.1855 64.7989 70.1833 64.8011 70.1811C64.8044 70.1778 64.8067 70.1744 64.81 70.1722C64.9267 70.0422 65.0478 69.9011 65.1644 69.76C65.2811 69.6178 65.3955 69.4733 65.5055 69.3278L65.5422 69.2778C65.5867 69.2178 65.6311 69.1578 65.6744 69.0978L65.7344 69.0122C65.77 68.9622 65.8055 68.9122 65.84 68.8611L65.9044 68.7656C65.9367 68.7178 65.9689 68.6689 66.0011 68.62C66.0222 68.5867 66.0444 68.5533 66.0655 68.52C66.0967 68.4722 66.1267 68.4244 66.1567 68.3755L66.2144 68.2822C66.2644 68.1989 66.3144 68.1155 66.3622 68.0322L66.3855 67.9922C66.44 67.8967 66.4933 67.7989 66.5455 67.7022L66.5867 67.6233C66.6267 67.5467 66.6655 67.4711 66.7033 67.3933L66.7433 67.3122C66.7922 67.2133 66.8389 67.1133 66.8844 67.0122C66.8855 67.0111 66.8889 67.0022 66.89 67.0011L66.9 66.9767C66.94 66.8878 66.9789 66.7989 67.0155 66.7089L67.0522 66.6189C67.0844 66.5389 67.1167 66.4589 67.1467 66.3789L67.1744 66.3067C67.2122 66.2044 67.25 66.1022 67.2844 65.9989L67.3067 65.9311C67.3344 65.8489 67.3611 65.7655 67.3867 65.6811L67.4155 65.5867C67.4422 65.4978 67.4678 65.4089 67.4922 65.3189L67.5067 65.2667C67.5344 65.1611 67.5611 65.0555 67.5855 64.9489L67.6044 64.8644C67.6233 64.7822 67.6411 64.7 67.6567 64.6178L67.6755 64.5244C67.6967 64.4167 67.7155 64.3078 67.7333 64.1989C67.7567 64.0522 67.7767 63.9022 67.7955 63.74C67.7989 63.7111 67.8011 63.6822 67.8044 63.6533L67.81 63.5889C67.82 63.4878 67.83 63.3867 67.8367 63.2855C67.8389 63.2455 67.8411 63.2067 67.8433 63.1667L67.8467 63.1078C67.8511 63.0167 67.8555 62.9267 67.8578 62.8367C67.8589 62.7889 67.8589 62.7411 67.8589 62.6944V62.6511C67.8589 62.5655 67.8589 62.4789 67.8567 62.3944C67.8555 62.3311 67.8522 62.2689 67.85 62.2067C67.8467 62.1233 67.8422 62.0411 67.8367 61.9578C67.8322 61.8955 67.8267 61.8333 67.8211 61.7711C67.8133 61.6889 67.8055 61.6078 67.7955 61.5267C67.7878 61.4655 67.7811 61.4044 67.7722 61.3433C67.7611 61.2622 67.7478 61.1822 67.7344 61.1011L67.7322 61.0878C67.7233 61.0333 67.7144 60.9789 67.7044 60.9244L67.6989 60.8889C67.6967 60.8778 67.6955 60.8655 67.6933 60.8544C67.6767 60.7711 67.6589 60.69 67.64 60.6089L67.6267 60.5444C67.5978 60.4222 67.5655 60.2989 67.5289 60.1667L67.4989 60.0644C67.4711 59.9722 67.4433 59.8811 67.4122 59.79C67.3989 59.75 67.3855 59.7111 67.3722 59.6722L67.3578 59.6289C67.3533 59.6133 67.3478 59.5989 67.3422 59.5844C67.3111 59.4989 67.2789 59.4144 67.2455 59.3311L67.3944 59.2555L67.24 59.3178C67.1978 59.2133 67.1511 59.1044 67.0967 58.9822L67.0633 58.91C67.0167 58.81 66.97 58.7111 66.92 58.6133L66.9067 58.59C66.84 58.4611 66.7711 58.3344 66.7 58.2144L66.6911 58.1989C66.6167 58.0711 66.5389 57.9467 66.4511 57.8156L66.4411 57.8C66.3711 57.6944 66.3011 57.5944 66.2289 57.4956L65.9089 57.0589C65.9267 57.1078 65.9455 57.16 65.9644 57.2155C65.9789 57.2567 65.9922 57.2967 66.0055 57.3378C66.0367 57.4322 66.0667 57.5278 66.0955 57.6233L66.1055 57.6578C66.1122 57.6822 66.12 57.7056 66.1267 57.73C66.1655 57.8667 66.1989 57.9944 66.2278 58.1211L66.2422 58.1889C66.2667 58.2967 66.2889 58.4056 66.31 58.5156C66.32 58.5678 66.3289 58.6211 66.3378 58.6733L66.3422 58.6989C66.3555 58.7822 66.37 58.8655 66.3811 58.95C66.39 59.0133 66.3978 59.0767 66.4055 59.14C66.4155 59.2244 66.4244 59.3089 66.4322 59.3933C66.4378 59.4578 66.4433 59.5222 66.4478 59.5867C66.4533 59.6722 66.4589 59.7578 66.4622 59.8444V59.8589C66.4644 59.9189 66.4678 59.9789 66.4689 60.0389C66.4711 60.1267 66.4711 60.2155 66.4711 60.3044V60.3356C66.4711 60.3889 66.4711 60.4422 66.47 60.4967C66.4678 60.59 66.4633 60.6833 66.4589 60.7767L66.4567 60.8333C66.4544 60.8755 66.4533 60.9178 66.45 60.96C66.4433 61.0633 66.4322 61.1689 66.4222 61.2733L66.4167 61.33C66.4133 61.3633 66.4111 61.3955 66.4067 61.4289C66.3878 61.5911 66.3667 61.7511 66.3422 61.9022C66.3244 62.0144 66.3044 62.1267 66.2822 62.2378L66.2633 62.3333C66.2455 62.4189 66.2278 62.5044 66.2089 62.5889L66.1889 62.6756C66.1633 62.7856 66.1355 62.8955 66.1067 63.0044L66.0922 63.0567C66.0667 63.15 66.0411 63.2411 66.0133 63.3333L65.9844 63.43C65.9578 63.5167 65.93 63.6022 65.9011 63.6878L65.8778 63.7567C65.8411 63.8633 65.8033 63.9689 65.7644 64.0733L65.7355 64.1478C65.7033 64.2311 65.6711 64.3133 65.6378 64.3955L65.6 64.4878C65.5611 64.58 65.5222 64.6722 65.4811 64.7622L65.4644 64.8C65.4178 64.9033 65.3689 65.0067 65.3189 65.1089L65.2778 65.1922C65.2389 65.2711 65.1989 65.35 65.1578 65.4278L65.1155 65.5089C65.0622 65.6089 65.0078 65.7089 64.9511 65.8078L64.9278 65.8478C64.8778 65.9344 64.8278 66.02 64.7755 66.1044C64.7555 66.1367 64.7367 66.1689 64.7167 66.2011C64.6867 66.25 64.6555 66.3 64.6233 66.3489C64.6011 66.3833 64.58 66.4178 64.5567 66.4522C64.5244 66.5022 64.4911 66.5511 64.4578 66.6011L64.3911 66.6989C64.3555 66.7511 64.3189 66.8022 64.2833 66.8533L64.2211 66.9411C64.1767 67.0033 64.1311 67.0644 64.0855 67.1267L64.0467 67.1789C63.9344 67.3278 63.8178 67.4756 63.6978 67.6211C63.5767 67.7678 63.4533 67.9122 63.3267 68.0522C63.3255 68.0533 63.3189 68.0611 63.3178 68.0611C63.2011 68.19 63.08 68.32 62.9578 68.4467C62.8344 68.5733 62.7089 68.6967 62.58 68.82L62.5622 68.8367C62.4467 68.9467 62.3222 69.0589 62.1933 69.1722L62.16 69.2022C62.0422 69.3056 61.9211 69.4067 61.7889 69.5144L61.7444 69.5511C61.6233 69.6489 61.4944 69.75 61.36 69.85L61.3089 69.8878C61.1833 69.9811 61.0511 70.0756 60.9167 70.1689L60.8622 70.2067C60.7255 70.3 60.5811 70.3944 60.4355 70.4867L60.3844 70.5189C60.2422 70.6078 60.0933 70.6967 59.9433 70.7833L59.8833 70.8178C59.8255 70.8511 59.7667 70.8833 59.7078 70.9144L59.62 70.9633C59.5378 71.0078 59.4567 71.05 59.3733 71.0922L59.3533 71.1022C59.2644 71.1478 59.1744 71.1922 59.0844 71.2355L58.9978 71.2767C58.9355 71.3055 58.8744 71.3356 58.8122 71.3633L58.7289 71.4011C58.6478 71.4378 58.5655 71.4733 58.4833 71.5078L58.3911 71.5467C58.2867 71.59 58.1811 71.6322 58.0744 71.6733C57.9611 71.7167 57.8533 71.7556 57.7444 71.7944L57.6511 71.8267C57.5667 71.8555 57.4822 71.8844 57.3967 71.9111L57.3155 71.9378C57.1867 71.9778 57.0578 72.0167 56.9278 72.0533L56.8489 72.0755C56.7155 72.1122 56.5822 72.1467 56.4478 72.1789L56.4333 72.1822L56.4222 72.1844C56.2922 72.2155 56.1622 72.2433 56.0311 72.27L55.9578 72.2844C55.8255 72.31 55.6922 72.3344 55.5589 72.3556L55.4789 72.3678C55.3411 72.3889 55.2033 72.4089 55.0644 72.4256L55.0511 72.4267C54.9155 72.4433 54.7789 72.4556 54.6422 72.4678L54.5644 72.4744C54.4289 72.4844 54.2933 72.4933 54.1578 72.4989L54.0778 72.5022C53.9167 72.5078 53.7822 72.5111 53.6533 72.5111C52.4278 72.5111 51.2533 72.3178 50.1644 71.9378C49.9889 71.8767 49.8122 71.8089 49.6411 71.7378C48.9622 71.4556 48.3233 71.0955 47.7433 70.6711C47.6767 70.6222 47.6111 70.5733 47.5467 70.5222L47.8633 70.9533C49.5289 73.2233 52.2667 74.5255 55.3755 74.5255C55.5 74.5255 55.63 74.5233 55.7878 74.5167L55.8655 74.5133C55.9978 74.5078 56.1289 74.5 56.2611 74.49L56.3367 74.4833C56.4689 74.4722 56.6011 74.46 56.7333 74.4444Z" fill="#F9FAFB"/>
<path d="M89.3089 84.0067L91.0311 86.3555H66.3411L64.6189 84.0067H89.3089Z" fill="#98A2B3"/>
<path d="M91.0312 86.5222H66.3412C66.2878 86.5222 66.2378 86.4967 66.2067 86.4545L64.4845 84.1067C64.4478 84.0556 64.4423 83.9889 64.47 83.9322C64.4978 83.8767 64.5556 83.8411 64.6189 83.8411H89.3089C89.3623 83.8411 89.4123 83.8667 89.4434 83.9089L91.1656 86.2567C91.2023 86.3078 91.2078 86.3745 91.18 86.4311C91.1512 86.4867 91.0934 86.5222 91.0312 86.5222ZM66.4256 86.1889H90.7012L89.2234 84.1745H64.9478L66.4256 86.1889Z" fill="#F9FAFB"/>
<path d="M37.4478 71.9556L39.1689 74.3033H17.1356L15.4133 71.9556H37.4478Z" fill="#D0D5DD"/>
<path d="M39.17 74.47H17.1356C17.0823 74.47 17.0323 74.4444 17.0011 74.4022L15.2789 72.0544C15.2423 72.0033 15.2367 71.9367 15.2645 71.88C15.2923 71.8244 15.35 71.7889 15.4134 71.7889H37.4478C37.5011 71.7889 37.5511 71.8144 37.5823 71.8567L39.3045 74.2044C39.3411 74.2556 39.3467 74.3222 39.3189 74.3789C39.29 74.4344 39.2323 74.47 39.17 74.47ZM17.22 74.1367H38.8411L37.3634 72.1222H15.7423L17.22 74.1367Z" fill="#F9FAFB"/>
<path d="M39.5956 58.4867L41.3178 60.8345L40.1401 68.22L38.4178 65.8722L39.5956 58.4867Z" fill="#D0D5DD"/>
<path d="M40.1401 68.3867C40.0879 68.3867 40.0379 68.3623 40.0057 68.3189L38.2835 65.9712C38.2568 65.9356 38.2468 65.89 38.2535 65.8467L39.4312 58.4612C39.4424 58.3945 39.4912 58.3412 39.5568 58.3256C39.6224 58.31 39.6912 58.3345 39.7301 58.3889L41.4524 60.7367C41.479 60.7723 41.489 60.8178 41.4824 60.8612L40.3046 68.2467C40.2935 68.3134 40.2446 68.3667 40.179 68.3823C40.1657 68.3845 40.1524 68.3867 40.1401 68.3867ZM38.5935 65.83L40.0379 67.8L41.1424 60.8778L39.6979 58.9078L38.5935 65.83Z" fill="#F9FAFB"/>
<path d="M38.4178 65.8723L40.14 68.22L39.1689 74.3034L37.4478 71.9556L38.4178 65.8723Z" fill="#D0D5DD"/>
<path d="M39.17 74.47C39.1178 74.47 39.0678 74.4456 39.0356 74.4023L37.3134 72.0545C37.2867 72.0189 37.2767 71.9734 37.2834 71.93L38.2534 65.8467C38.2645 65.78 38.3134 65.7267 38.3789 65.7112C38.4445 65.6956 38.5123 65.72 38.5523 65.7745L40.2745 68.1223C40.3012 68.1578 40.3112 68.2034 40.3045 68.2467L39.3345 74.33C39.3234 74.3967 39.2745 74.45 39.2089 74.4656C39.1956 74.4678 39.1823 74.47 39.17 74.47ZM37.6234 71.9123L39.0678 73.8823L39.9645 68.2623L38.52 66.2923L37.6234 71.9123Z" fill="#F9FAFB"/>
<path d="M86.899 36.3489C87.0601 36.3489 87.2201 36.3778 87.369 36.44C87.989 36.6978 88.1934 37.4211 87.8267 38.0555C87.549 38.5378 87.0201 38.83 86.5101 38.83C86.349 38.83 86.189 38.8011 86.0401 38.7389C85.4201 38.4811 85.2156 37.7578 85.5812 37.1233C85.8612 36.6411 86.389 36.3489 86.899 36.3489Z" fill="#D0D5DD"/>
<path d="M86.5101 38.9955C86.3223 38.9955 86.1423 38.9611 85.9767 38.8911C85.6512 38.7555 85.4101 38.5011 85.3001 38.1744C85.179 37.8155 85.229 37.4011 85.4378 37.0389C85.739 36.5178 86.3134 36.1811 86.899 36.1811C87.0867 36.1811 87.2667 36.2155 87.4323 36.2844C87.759 36.42 87.999 36.6744 88.1101 37.0011C88.2312 37.36 88.1812 37.7744 87.9712 38.1366C87.6701 38.6589 87.0967 38.9955 86.5101 38.9955ZM86.899 36.5155C86.4367 36.5155 85.9656 36.7933 85.7256 37.2066C85.5645 37.4866 85.5234 37.8011 85.6145 38.0689C85.6934 38.3033 85.8678 38.4866 86.1034 38.5844C86.229 38.6366 86.3656 38.6633 86.509 38.6633C86.9712 38.6633 87.4423 38.3855 87.6812 37.9722C87.8434 37.6922 87.8845 37.3778 87.7934 37.11C87.7145 36.8755 87.5401 36.6922 87.3045 36.5944C87.1801 36.5411 87.0434 36.5155 86.899 36.5155Z" fill="#F9FAFB"/>
<path d="M83.2478 36.0112L84.5411 40.9389L90.5833 38.1012L91.7556 42.0112L89.2967 46.2656L74.7811 40.2412L83.2478 36.0112Z" fill="#D0D5DD"/>
<path d="M89.2967 46.4322C89.2756 46.4322 89.2534 46.4278 89.2334 46.42L74.7178 40.3956C74.6578 40.37 74.6178 40.3122 74.6156 40.2478C74.6134 40.1833 74.6489 40.1222 74.7078 40.0933L83.1745 35.8622C83.22 35.84 83.2722 35.8389 83.3178 35.86C83.3634 35.8811 83.3978 35.9211 83.41 35.97L84.6523 40.7045L90.5134 37.9511C90.5578 37.93 90.6078 37.93 90.6523 37.95C90.6967 37.97 90.73 38.0078 90.7434 38.0545L91.9156 41.9656C91.9289 42.01 91.9234 42.0567 91.9 42.0967L89.4423 46.3511C89.41 46.4022 89.3545 46.4322 89.2967 46.4322ZM75.1822 40.2278L89.2256 46.0556L91.5745 41.99L90.4789 38.3333L84.6123 41.09C84.5678 41.1111 84.5156 41.1111 84.4711 41.09C84.4267 41.0689 84.3934 41.0289 84.38 40.9811L83.1389 36.2511L75.1822 40.2278Z" fill="#F9FAFB"/>
<path d="M93.0712 25.67C93.2323 25.67 93.3923 25.6989 93.5412 25.7611C94.1612 26.0178 94.3657 26.7411 93.999 27.3755C93.7201 27.8578 93.1912 28.15 92.6823 28.15C92.5212 28.15 92.3623 28.1211 92.2123 28.0589C91.5923 27.8011 91.3879 27.0778 91.7534 26.4433C92.0334 25.9622 92.5612 25.67 93.0712 25.67Z" fill="#D0D5DD"/>
<path d="M92.6823 28.3178C92.4945 28.3178 92.3145 28.2834 92.149 28.2134C91.8234 28.0778 91.5823 27.8234 91.4723 27.4967C91.3512 27.1378 91.4012 26.7234 91.6101 26.3611C91.9112 25.84 92.4845 25.5034 93.0712 25.5034C93.259 25.5034 93.439 25.5378 93.6057 25.6078C93.9312 25.7422 94.1723 25.9967 94.2823 26.3222C94.4045 26.6811 94.3534 27.0956 94.1434 27.46C93.8423 27.9811 93.2679 28.3178 92.6823 28.3178ZM93.0712 25.8367C92.6023 25.8367 92.1412 26.1078 91.899 26.5278C91.7379 26.8078 91.6968 27.1222 91.7879 27.39C91.8668 27.6245 92.0412 27.8078 92.2768 27.9056C92.4023 27.9578 92.5379 27.9845 92.6823 27.9845C93.1445 27.9845 93.6156 27.7067 93.8545 27.2934C94.0168 27.0134 94.0579 26.6978 93.9668 26.43C93.8879 26.1956 93.7134 26.0134 93.4779 25.9156C93.3523 25.8634 93.2157 25.8367 93.0712 25.8367Z" fill="#F9FAFB"/>
<path d="M89.42 25.3322L90.7134 30.2611L96.7556 27.4222L97.9278 31.3333L95.4678 35.5878L80.9534 29.5622L89.42 25.3322Z" fill="#D0D5DD"/>
<path d="M95.4678 35.7545C95.4467 35.7545 95.4245 35.75 95.4045 35.7422L80.8889 29.7167C80.8289 29.6911 80.7889 29.6333 80.7867 29.5689C80.7845 29.5045 80.82 29.4433 80.8789 29.4145L89.3456 25.1833C89.3912 25.1611 89.4434 25.16 89.4889 25.1811C89.5345 25.2022 89.5689 25.2422 89.5812 25.2911L90.8234 30.0267L96.6845 27.2733C96.7289 27.2522 96.7789 27.2522 96.8234 27.2722C96.8678 27.2922 96.9012 27.33 96.9145 27.3767L98.0867 31.2878C98.1001 31.3322 98.0945 31.3789 98.0712 31.4189L95.6123 35.6733C95.5823 35.7245 95.5256 35.7545 95.4678 35.7545ZM81.3545 29.5489L95.3967 35.3778L97.7467 31.3122L96.6512 27.6556L90.7845 30.4122C90.7401 30.4333 90.6878 30.4333 90.6434 30.4122C90.5989 30.3911 90.5656 30.3511 90.5523 30.3033L89.3112 25.5722L81.3545 29.5489Z" fill="#F9FAFB"/>
<path d="M91.5901 55.39L91.809 56.76C91.9412 57.5811 92.5046 58.2245 93.3157 58.4778L94.6701 58.9L93.1812 59.3222C92.2901 59.5756 91.5212 60.2189 91.1268 61.04L90.4701 62.41L90.2501 61.04C90.1179 60.2189 89.5546 59.5756 88.7435 59.3222L87.3901 58.9L88.8779 58.4778C89.769 58.2245 90.5379 57.5811 90.9324 56.76L91.5901 55.39Z" fill="#98A2B3"/>
<path d="M39.1745 38.4478L39.3422 39.4978C39.4434 40.1278 39.8756 40.6211 40.4978 40.8144L41.5356 41.1378L40.3945 41.4622C39.7111 41.6555 39.1211 42.1489 38.8189 42.7778L38.3156 43.8289L38.1478 42.7778C38.0467 42.1478 37.6145 41.6555 36.9922 41.4622L35.9545 41.1378L37.0956 40.8144C37.7789 40.6211 38.3689 40.1266 38.6711 39.4978L39.1745 38.4478Z" fill="#98A2B3"/>
<path d="M75.2578 87.48L75.3512 88.0655C75.4078 88.4155 75.649 88.6911 75.9956 88.7989L76.5734 88.9789L75.9378 89.1589C75.5567 89.2678 75.2278 89.5422 75.059 89.8922L74.7778 90.4778L74.6845 89.8922C74.6278 89.5422 74.3878 89.2666 74.0412 89.1589L73.4623 88.9789L74.099 88.7989C74.4801 88.69 74.8078 88.4155 74.9767 88.0655L75.2578 87.48Z" fill="#98A2B3"/>
<path d="M69.2389 40.1766L69.3322 40.7622C69.3889 41.1122 69.63 41.3877 69.9767 41.4955L70.5545 41.6755L69.9189 41.8555C69.5378 41.9644 69.2089 42.2389 69.04 42.5889L68.7589 43.1744L68.6656 42.5889C68.6089 42.2389 68.3689 41.9633 68.0223 41.8555L67.4434 41.6755L68.08 41.4955C68.4611 41.3866 68.7889 41.1122 68.9578 40.7622L69.2389 40.1766Z" fill="#F7F9FC"/>
<path d="M24.8267 75.6911L24.92 76.2767C24.9767 76.6278 25.2178 76.9022 25.5644 77.01L26.1422 77.19L25.5067 77.37C25.1255 77.4789 24.7967 77.7533 24.6278 78.1044L24.3478 78.69L24.2544 78.1044C24.1989 77.7533 23.9578 77.4789 23.6111 77.37L23.0333 77.19L23.6689 77.01C24.05 76.9022 24.3789 76.6278 24.5467 76.2767L24.8267 75.6911Z" fill="#98A2B3"/>
</svg>
