<svg width="120" height="120" viewBox="0 0 120 120" fill="none" xmlns="http://www.w3.org/2000/svg">
<path d="M60 98.1578C82.6553 98.1578 101.021 90.953 101.021 82.0655C101.021 73.1781 82.6553 65.9733 60 65.9733C37.3447 65.9733 18.9789 73.1781 18.9789 82.0655C18.9789 90.953 37.3447 98.1578 60 98.1578Z" fill="#F9FAFB"/>
<path d="M83.9155 50.3533H92.1144H92.8444L88.5033 77.57L75.6967 69.6811L75.9211 68.2711H78.91L79.4189 65.0811H81.5655L83.4622 53.1911C84.6978 53.19 85.8522 52.2244 86.0422 51.0344H83.8067L83.9155 50.3533Z" fill="#D0D5DD"/>
<path d="M88.5033 77.7922C88.4622 77.7922 88.4222 77.7811 88.3867 77.7589L75.58 69.87C75.5033 69.8233 75.4633 69.7344 75.4767 69.6455L75.7011 68.2355C75.7178 68.1277 75.8111 68.0477 75.9211 68.0477H78.72L79.1989 65.0444C79.2155 64.9366 79.3089 64.8566 79.4189 64.8566H81.3767L83.2433 53.1533C83.26 53.0455 83.3533 52.9666 83.4622 52.9655C84.5 52.9655 85.4789 52.2177 85.7644 51.2533H83.8067C83.7411 51.2533 83.68 51.2244 83.6378 51.1755C83.5955 51.1255 83.5767 51.0611 83.5878 50.9966L83.6967 50.3155C83.7133 50.2077 83.8067 50.1277 83.9167 50.1277H92.8455C92.9111 50.1277 92.9722 50.1566 93.0144 50.2055C93.0567 50.2544 93.0755 50.32 93.0644 50.3844L88.7233 77.6011C88.7111 77.6744 88.6644 77.7366 88.5967 77.7677C88.5667 77.7855 88.5344 77.7922 88.5033 77.7922ZM75.94 69.5689L88.3367 77.2055L92.5844 50.5744H84.1055L84.0678 50.8111H86.0433C86.1089 50.8111 86.17 50.84 86.2122 50.8889C86.2544 50.9377 86.2733 51.0033 86.2622 51.0677C86.0655 52.2977 84.9178 53.31 83.6533 53.4044L81.7855 65.1144C81.7689 65.2222 81.6755 65.3022 81.5655 65.3022H79.6078L79.1289 68.3055C79.1122 68.4133 79.0189 68.4933 78.9089 68.4933H76.1111L75.94 69.5689Z" fill="#F9FAFB"/>
<path d="M88.5033 77.57L90.3833 80.1322H76.3188L74.4388 77.57H88.5033Z" fill="#D0D5DD"/>
<path d="M90.3833 80.3545H76.3189C76.2478 80.3545 76.1811 80.3211 76.14 80.2634L74.26 77.7C74.21 77.6322 74.2033 77.5434 74.2411 77.4678C74.2789 77.3934 74.3555 77.3456 74.4389 77.3456H88.5033C88.5744 77.3456 88.6411 77.3789 88.6822 77.4367L90.5622 80C90.6122 80.0678 90.6189 80.1567 90.5811 80.2322C90.5433 80.3078 90.4666 80.3545 90.3833 80.3545ZM76.4311 79.91H89.9444L88.3911 77.7911H74.8778L76.4311 79.91Z" fill="#F9FAFB"/>
<path d="M75.6967 69.6811L88.5034 77.57H74.439L75.6967 69.6811Z" fill="#D0D5DD"/>
<path d="M88.5034 77.7922H74.4389C74.3734 77.7922 74.3123 77.7633 74.2701 77.7144C74.2278 77.6644 74.2089 77.6 74.22 77.5355L75.4778 69.6467C75.4901 69.5733 75.5367 69.5111 75.6045 69.48C75.6723 69.4489 75.7501 69.4533 75.8134 69.4922L88.6201 77.3811C88.7045 77.4333 88.7445 77.5355 88.7178 77.6311C88.6912 77.7266 88.6034 77.7922 88.5034 77.7922ZM74.6989 77.3478H87.7189L75.8634 70.0444L74.6989 77.3478Z" fill="#F9FAFB"/>
<path d="M64.1245 22.52C64.7912 22.52 65.2479 23.04 65.1456 23.6833C65.0434 24.3255 64.4201 24.8466 63.7534 24.8466C63.0879 24.8466 62.6312 24.3255 62.7334 23.6833C62.8368 23.04 63.459 22.52 64.1245 22.52Z" fill="#D0D5DD"/>
<path d="M63.7534 25.0688C63.3601 25.0688 63.0145 24.9166 62.7779 24.6411C62.5479 24.3722 62.4545 24.02 62.5134 23.6488C62.6323 22.9044 63.3545 22.2977 64.1234 22.2977C64.5179 22.2977 64.8645 22.45 65.1001 22.7266C65.329 22.9955 65.4234 23.3477 65.3634 23.7188C65.2467 24.4622 64.5234 25.0688 63.7534 25.0688ZM64.1245 22.7422C63.5645 22.7422 63.039 23.18 62.9534 23.7188C62.9145 23.9588 62.9734 24.1844 63.1167 24.3522C63.2667 24.5277 63.4923 24.6244 63.7534 24.6244C64.3145 24.6244 64.8401 24.1866 64.9256 23.6477C64.9645 23.4077 64.9056 23.1822 64.7623 23.0144C64.6134 22.8388 64.3867 22.7422 64.1245 22.7422Z" fill="#F9FAFB"/>
<path d="M36.25 45.38L28.12 40.3711H42.1844L41.7156 43.3122H36.58L36.25 45.38Z" fill="#D0D5DD"/>
<path d="M36.25 45.6022C36.21 45.6022 36.1689 45.5911 36.1333 45.5689L28.0033 40.56C27.9189 40.5078 27.8789 40.4055 27.9055 40.31C27.9322 40.2144 28.02 40.1489 28.1189 40.1489H42.1833C42.2489 40.1489 42.31 40.1778 42.3522 40.2266C42.3944 40.2766 42.4133 40.3411 42.4022 40.4055L41.9333 43.3466C41.9166 43.4544 41.8233 43.5344 41.7133 43.5344H36.7666L36.4666 45.4144C36.4544 45.4878 36.4077 45.55 36.34 45.5811C36.3133 45.5955 36.2822 45.6022 36.25 45.6022ZM28.9044 40.5933L36.0833 45.0155L36.3611 43.2766C36.3777 43.1689 36.4711 43.0889 36.5811 43.0889H41.5277L41.9255 40.5922H28.9044V40.5933Z" fill="#F9FAFB"/>
<path d="M85.3378 23.4167C85.3367 23.3978 85.3356 23.3789 85.3333 23.3611C85.3322 23.3489 85.33 23.3355 85.3278 23.3233C85.3256 23.3122 85.3244 23.3 85.3222 23.2889C85.3211 23.2844 85.32 23.2811 85.3189 23.2778C85.31 23.2367 85.3 23.1978 85.2856 23.1589C85.2844 23.1567 85.2844 23.1544 85.2844 23.1533C85.2822 23.1467 85.2789 23.14 85.2755 23.1333C85.2667 23.11 85.2567 23.0867 85.2456 23.0633C85.2433 23.0589 85.2411 23.0533 85.2389 23.0489C85.2356 23.0422 85.2311 23.0367 85.2278 23.03C85.2189 23.0133 85.2089 22.9967 85.1989 22.98C85.1955 22.9733 85.1922 22.9667 85.1878 22.9611C85.18 22.95 85.1733 22.94 85.1655 22.9289L83.2856 20.3655C83.2978 20.3822 83.3078 20.3989 83.3189 20.4167C83.3289 20.4333 83.3389 20.45 83.3478 20.4667C83.3533 20.4778 83.36 20.4889 83.3655 20.5C83.3767 20.5222 83.3867 20.5455 83.3955 20.57C83.3989 20.5789 83.4022 20.5867 83.4056 20.5955C83.4189 20.6333 83.43 20.6733 83.4389 20.7144C83.4422 20.73 83.4444 20.7444 83.4478 20.76C83.45 20.7722 83.4522 20.7844 83.4533 20.7978C83.4556 20.8155 83.4567 20.8344 83.4578 20.8533C83.4589 20.8655 83.46 20.8778 83.46 20.89C83.46 20.9111 83.46 20.9322 83.4589 20.9533C83.4589 20.9644 83.4589 20.9744 83.4578 20.9855C83.4555 21.0178 83.4522 21.05 83.4467 21.0833L81.0222 36.2844L82.9022 38.8478L85.3267 23.6467C85.3322 23.6133 85.3355 23.5811 85.3378 23.5489C85.3389 23.5389 85.3378 23.5278 85.3389 23.5178C85.34 23.4967 85.34 23.4755 85.34 23.4544C85.34 23.4411 85.3389 23.4289 85.3378 23.4167Z" fill="#D0D5DD"/>
<path d="M82.9034 39.0688C82.8334 39.0688 82.7667 39.0355 82.7245 38.9777L80.8445 36.4144C80.8089 36.3666 80.7945 36.3066 80.8045 36.2477L83.2289 21.0466C83.2334 21.021 83.2356 20.9944 83.2378 20.9688V20.9444C83.2389 20.9277 83.2389 20.911 83.2389 20.8944L83.2367 20.8655C83.2356 20.851 83.2345 20.8366 83.2334 20.8222L83.23 20.8022C83.2267 20.7822 83.2245 20.7699 83.2223 20.7588C83.2156 20.7255 83.2067 20.6955 83.1978 20.6688C83.1967 20.6677 83.19 20.651 83.19 20.6499C83.1834 20.6322 83.1756 20.6144 83.1667 20.5977C83.1623 20.5888 83.1578 20.581 83.1534 20.5722C83.1467 20.5588 83.1389 20.5466 83.1312 20.5344C83.12 20.5166 83.1134 20.5066 83.1067 20.4966C83.0345 20.3977 83.0556 20.2588 83.1545 20.1866C83.2534 20.1144 83.3923 20.1355 83.4645 20.2344C83.4645 20.2344 83.4645 20.2344 83.4645 20.2355L85.3434 22.7977C85.3534 22.811 85.3623 22.8244 85.3712 22.8377C85.3767 22.8455 85.3812 22.8544 85.3867 22.8633C85.3978 22.881 85.41 22.9022 85.4223 22.9233C85.4267 22.9299 85.4312 22.9377 85.4356 22.9466C85.4389 22.9533 85.4456 22.9666 85.4478 22.9733C85.4578 22.9933 85.47 23.0222 85.4823 23.0522C85.4856 23.0577 85.4889 23.0666 85.4923 23.0766C85.4934 23.081 85.4956 23.0866 85.4967 23.0922C85.5112 23.1333 85.5234 23.1777 85.5334 23.2244C85.5356 23.2322 85.5378 23.2388 85.5389 23.2466C85.5412 23.2577 85.5434 23.2699 85.5445 23.281L85.3256 23.3233L85.5456 23.2944C85.5478 23.3077 85.55 23.321 85.5512 23.3355C85.5534 23.3577 85.5556 23.381 85.5567 23.4033L85.5578 23.4122C85.5589 23.4244 85.5589 23.4355 85.56 23.4477C85.5612 23.4733 85.56 23.4988 85.5589 23.5244C85.5589 23.5422 85.5578 23.5522 85.5578 23.5622C85.5556 23.601 85.5512 23.6399 85.5445 23.6799L83.12 38.8799C83.1056 38.9688 83.04 39.0399 82.9534 39.061C82.9378 39.0666 82.92 39.0688 82.9034 39.0688ZM81.2578 36.2266L82.7678 38.2855L85.1078 23.6099C85.1123 23.5833 85.1145 23.5577 85.1167 23.5322L85.1178 23.5077C85.1189 23.491 85.1189 23.4744 85.1189 23.4577L85.1167 23.4299C85.1167 23.4299 85.1167 23.4299 85.1167 23.4288C85.1156 23.4144 85.1156 23.3999 85.1134 23.3866L85.1067 23.3388C85.1067 23.3388 85.1045 23.331 85.1023 23.3199C85.0956 23.2888 85.0878 23.2588 85.0778 23.2322C85.0767 23.231 85.0767 23.2288 85.0756 23.2266C85.0745 23.2244 85.0723 23.2188 85.07 23.2122C85.0634 23.1944 85.0556 23.1766 85.0478 23.1599C85.0467 23.1566 85.0434 23.151 85.0412 23.1455C85.0389 23.1422 85.0367 23.1377 85.0345 23.1344C85.0278 23.121 85.02 23.1088 85.0123 23.0966C85.01 23.0933 85.0034 23.081 85.0012 23.0777C84.9989 23.0744 84.9934 23.0666 84.9878 23.0588L83.65 21.2344L81.2578 36.2266Z" fill="#F9FAFB"/>
<path d="M82.4834 19.9833C83.1122 19.9833 83.5445 20.4755 83.4478 21.0822L81.0234 36.2833C80.5011 36.6444 80.0122 37.0522 79.5678 37.5011L82.0322 22.0511C82.0811 21.7477 81.8656 21.5011 81.5511 21.5011H47.0256C46.7111 21.5011 46.4156 21.7477 46.3678 22.0511L42.9767 43.3111H41.7156L42.1845 40.3699L45.2611 21.0822C45.3578 20.4755 45.9478 19.9833 46.5756 19.9833H82.4834Z" fill="#98A2B3"/>
<path d="M42.9768 43.5344H41.7157C41.6501 43.5344 41.589 43.5055 41.5468 43.4566C41.5046 43.4066 41.4857 43.3422 41.4968 43.2778L45.0423 21.0489C45.1557 20.34 45.8434 19.7622 46.5768 19.7622H82.4846C82.8601 19.7622 83.1901 19.9078 83.4157 20.1711C83.6346 20.4278 83.7246 20.7644 83.6679 21.1178L81.2435 36.3189C81.2335 36.3789 81.2001 36.4322 81.1501 36.4667C80.6401 36.8189 80.1601 37.22 79.7257 37.6578C79.6579 37.7267 79.5535 37.7433 79.4668 37.7C79.3812 37.6567 79.3323 37.5622 79.3479 37.4667L81.8123 22.0167C81.8246 21.9367 81.8068 21.8644 81.7623 21.8111C81.7146 21.7544 81.639 21.7233 81.5512 21.7233H47.0257C46.819 21.7233 46.619 21.89 46.5868 22.0867L43.1957 43.3467C43.179 43.4544 43.0857 43.5344 42.9768 43.5344ZM41.9768 43.09H42.7879L46.149 22.0167C46.2146 21.6033 46.6001 21.2789 47.0268 21.2789H81.5512C81.769 21.2789 81.969 21.3678 82.1012 21.5222C82.2323 21.6755 82.2857 21.8767 82.2523 22.0867L79.8912 36.8911C80.1868 36.6289 80.4968 36.3833 80.8201 36.1555L83.229 21.0478C83.2646 20.8244 83.2112 20.6155 83.0768 20.4589C82.9379 20.2955 82.7268 20.2055 82.4834 20.2055H46.5757C46.0523 20.2055 45.5601 20.6144 45.4801 21.1178L41.9768 43.09Z" fill="#F9FAFB"/>
<path d="M36.2522 77.5699H22.1877L37.51 69.6799L36.2522 77.5699Z" fill="#D0D5DD"/>
<path d="M36.2522 77.7922H22.1877C22.0855 77.7922 21.9955 77.7222 21.9722 77.6222C21.9477 77.5222 21.9955 77.4189 22.0866 77.3722L37.41 69.4822C37.4844 69.4434 37.5744 69.4511 37.6422 69.5C37.71 69.5489 37.7444 69.6322 37.7311 69.7145L36.4733 77.6045C36.4544 77.7122 36.3611 77.7922 36.2522 77.7922ZM23.1044 77.3478H36.0622L37.2222 70.0789L23.1044 77.3478Z" fill="#F9FAFB"/>
<path d="M36.2522 77.57L38.1322 80.1322H24.0677L22.1877 77.57H36.2522Z" fill="#D0D5DD"/>
<path d="M38.1322 80.3545H24.0678C23.9967 80.3545 23.93 80.3211 23.8889 80.2634L22.0089 77.7C21.9589 77.6322 21.9522 77.5434 21.99 77.4678C22.0278 77.3934 22.1044 77.3456 22.1878 77.3456H36.2522C36.3233 77.3456 36.39 77.3789 36.4311 77.4367L38.3111 80C38.3611 80.0678 38.3678 80.1567 38.33 80.2322C38.2922 80.3078 38.2155 80.3545 38.1322 80.3545ZM24.18 79.91H37.6933L36.14 77.7911H22.6267L24.18 79.91Z" fill="#F9FAFB"/>
<path d="M38.9956 68.2711L40.8756 70.8333L38.3545 86.6422L36.4745 84.0788L38.9956 68.2711Z" fill="#344054"/>
<path d="M38.3544 86.8644C38.2844 86.8644 38.2178 86.8311 38.1755 86.7733L36.2955 84.21C36.26 84.1622 36.2455 84.1022 36.2555 84.0433L38.7766 68.2344C38.7911 68.1455 38.8566 68.0744 38.9433 68.0533C39.03 68.0322 39.1222 68.0655 39.1744 68.1378L41.0544 70.7011C41.09 70.7489 41.1044 70.8089 41.0944 70.8678L38.5733 86.6766C38.5589 86.7655 38.4933 86.8366 38.4067 86.8578C38.3889 86.8622 38.3722 86.8644 38.3544 86.8644ZM36.7089 84.0222L38.2189 86.0811L40.6422 70.89L39.1322 68.8311L36.7089 84.0222Z" fill="#F9FAFB"/>
<path d="M38.4356 87.2222C38.3667 87.2222 38.3001 87.1911 38.2567 87.1311L36.3767 84.5689C36.2678 84.4211 36.2256 84.2355 36.2556 84.0444C36.2701 83.9555 36.3356 83.8844 36.4223 83.8633C36.5089 83.8422 36.6012 83.8755 36.6534 83.9478L38.5334 86.5111C38.5689 86.5589 38.5834 86.6189 38.5734 86.6778C38.5623 86.7511 38.5756 86.8166 38.6134 86.8689C38.6856 86.9678 38.6645 87.1066 38.5656 87.18C38.5267 87.2078 38.4812 87.2222 38.4356 87.2222Z" fill="#F9FAFB"/>
<mask id="mask0_6802_25353" style="mask-type:luminance" maskUnits="userSpaceOnUse" x="36" y="83" width="3" height="5">
<path d="M38.4356 87.2222C38.3667 87.2222 38.3001 87.1911 38.2567 87.1311L36.3767 84.5689C36.2678 84.4211 36.2256 84.2355 36.2556 84.0444C36.2701 83.9555 36.3356 83.8844 36.4223 83.8633C36.5089 83.8422 36.6012 83.8755 36.6534 83.9478L38.5334 86.5111C38.5689 86.5589 38.5834 86.6189 38.5734 86.6778C38.5623 86.7511 38.5756 86.8166 38.6134 86.8689C38.6856 86.9678 38.6645 87.1066 38.5656 87.18C38.5267 87.2078 38.4812 87.2222 38.4356 87.2222Z" fill="white"/>
</mask>
<g mask="url(#mask0_6802_25353)">
<path d="M36.4745 84.0789L38.3545 86.6422C38.3445 86.7044 38.3456 86.7644 38.3567 86.82L36.4767 84.2566C36.4656 84.2011 36.4645 84.1411 36.4745 84.0789Z" fill="#667185"/>
<path d="M38.3565 87.0418C38.2876 87.0418 38.2199 87.0096 38.1776 86.9507L36.2976 84.3874C36.2788 84.3607 36.2654 84.3307 36.2588 84.2985C36.2421 84.2152 36.241 84.1296 36.2554 84.043C36.2699 83.9541 36.3354 83.883 36.4221 83.8618C36.5099 83.8407 36.601 83.8741 36.6532 83.9463L38.5332 86.5096C38.5688 86.5574 38.5832 86.6174 38.5732 86.6763C38.5676 86.7107 38.5676 86.7452 38.5743 86.7763C38.5943 86.8785 38.541 86.9807 38.4454 87.023C38.4165 87.0352 38.3865 87.0418 38.3565 87.0418Z" fill="#F9FAFB"/>
<path d="M36.4767 84.2567L38.3567 86.82C38.3611 86.8433 38.3678 86.8655 38.3756 86.8878L36.4956 84.3244C36.4878 84.3033 36.4811 84.28 36.4767 84.2567Z" fill="#344054"/>
<path d="M38.3756 87.11C38.3067 87.11 38.2389 87.0777 38.1967 87.0189L36.3167 84.4555C36.3045 84.4389 36.2945 84.42 36.2867 84.4C36.2745 84.3677 36.2656 84.3333 36.2589 84.2989C36.2389 84.1966 36.2923 84.0944 36.3878 84.0522C36.4834 84.01 36.5945 84.04 36.6567 84.1244L38.5367 86.6877C38.5556 86.7144 38.5689 86.7444 38.5756 86.7766C38.5778 86.7889 38.5812 86.8 38.5856 86.8122C38.6234 86.9166 38.5789 87.0322 38.4812 87.0844C38.4467 87.1011 38.4112 87.11 38.3756 87.11Z" fill="#F9FAFB"/>
<path d="M36.4956 84.3244L38.3756 86.8877C38.3823 86.9055 38.39 86.9233 38.3978 86.94L36.5178 84.3766C36.5101 84.36 36.5023 84.3433 36.4956 84.3244Z" fill="#344054"/>
<path d="M38.3978 87.1622C38.3289 87.1622 38.2623 87.13 38.2189 87.0711L36.3389 84.5078C36.3323 84.4978 36.3256 84.4878 36.3201 84.4778C36.3067 84.4522 36.2956 84.4266 36.2856 84.4C36.2478 84.2955 36.2923 84.18 36.3901 84.1289C36.4878 84.0766 36.6089 84.1044 36.6734 84.1933L38.5534 86.7566C38.5656 86.7733 38.5756 86.7922 38.5834 86.8122C38.5867 86.8211 38.5901 86.83 38.5945 86.8389C38.6467 86.9422 38.6123 87.0689 38.5134 87.1289C38.4789 87.1511 38.4378 87.1622 38.3978 87.1622Z" fill="#F9FAFB"/>
<path d="M36.5179 84.3766L38.3979 86.9399C38.4057 86.9555 38.4146 86.9699 38.4235 86.9844L36.5435 84.421C36.5346 84.4066 36.5257 84.3921 36.5179 84.3766Z" fill="#101928"/>
<path d="M38.4246 87.2055C38.3557 87.2055 38.289 87.1744 38.2457 87.1144L36.3657 84.551C36.3457 84.5221 36.3335 84.4999 36.3212 84.4766C36.269 84.3732 36.3035 84.2466 36.4024 84.1866C36.5012 84.1255 36.6301 84.151 36.6979 84.2444L38.5779 86.8077C38.5846 86.8177 38.5912 86.8277 38.5968 86.8377C38.6001 86.8455 38.6046 86.8521 38.6101 86.8599C38.6768 86.9599 38.6524 87.0966 38.5524 87.1655C38.5124 87.1932 38.4679 87.2055 38.4246 87.2055Z" fill="#F9FAFB"/>
<path d="M36.5444 84.4211L38.4244 86.9844C38.4278 86.99 38.4322 86.9955 38.4355 87L36.5555 84.4366C36.5511 84.4311 36.5478 84.4266 36.5444 84.4211Z" fill="#344054"/>
<path d="M38.4356 87.2222C38.369 87.2222 38.3023 87.1922 38.259 87.1345C38.259 87.1345 38.259 87.1333 38.2578 87.1333C38.2578 87.1322 38.2567 87.1322 38.2567 87.1311L36.3778 84.57C36.3723 84.5622 36.3667 84.5545 36.3612 84.5467C36.2934 84.4467 36.319 84.31 36.4178 84.2411C36.5167 84.1722 36.6534 84.1945 36.7245 84.2911L38.6045 86.8545C38.6067 86.8578 38.6101 86.8622 38.6123 86.8656L38.6156 86.87C38.6878 86.9689 38.6667 87.1078 38.5678 87.18C38.5267 87.2078 38.4812 87.2222 38.4356 87.2222Z" fill="#F9FAFB"/>
</g>
<path d="M38.8366 87.4133C38.5988 87.4133 38.3866 87.31 38.2555 87.1311L36.3766 84.5689C36.3766 84.5689 36.3766 84.5689 36.3755 84.5678C36.3033 84.4689 36.3244 84.33 36.4233 84.2567C36.5222 84.1844 36.6611 84.2056 36.7344 84.3044C36.7822 84.3689 36.8611 84.4056 36.9577 84.4056C37.0288 84.4056 37.0955 84.4389 37.1366 84.4967L39.0166 87.06C39.0666 87.1278 39.0733 87.2167 39.0355 87.2922C38.9977 87.3667 38.9211 87.4133 38.8366 87.4133Z" fill="#F9FAFB"/>
<mask id="mask1_6802_25353" style="mask-type:luminance" maskUnits="userSpaceOnUse" x="36" y="84" width="4" height="4">
<path d="M38.8366 87.4133C38.5988 87.4133 38.3866 87.31 38.2555 87.1311L36.3766 84.5689C36.3766 84.5689 36.3766 84.5689 36.3755 84.5678C36.3033 84.4689 36.3244 84.33 36.4233 84.2567C36.5222 84.1844 36.6611 84.2056 36.7344 84.3044C36.7822 84.3689 36.8611 84.4056 36.9577 84.4056C37.0288 84.4056 37.0955 84.4389 37.1366 84.4967L39.0166 87.06C39.0666 87.1278 39.0733 87.2167 39.0355 87.2922C38.9977 87.3667 38.9211 87.4133 38.8366 87.4133Z" fill="white"/>
</mask>
<g mask="url(#mask1_6802_25353)">
<path d="M36.9578 84.6289L38.8378 87.1923C38.6644 87.1923 38.5211 87.1178 38.4355 87.0012L36.5555 84.4367C36.6411 84.5545 36.7844 84.6289 36.9578 84.6289Z" fill="#98A2B3"/>
<path d="M38.8366 87.4133C38.5988 87.4133 38.3866 87.31 38.2555 87.1311L36.3766 84.5689C36.3766 84.5689 36.3766 84.5689 36.3755 84.5678C36.3033 84.4689 36.3244 84.33 36.4233 84.2567C36.5222 84.1844 36.6611 84.2056 36.7344 84.3044C36.7822 84.3689 36.8611 84.4056 36.9577 84.4056C37.0288 84.4056 37.0955 84.4389 37.1366 84.4967L39.0166 87.06C39.0666 87.1278 39.0733 87.2167 39.0355 87.2922C38.9977 87.3667 38.9211 87.4133 38.8366 87.4133Z" fill="#F9FAFB"/>
</g>
<path d="M74.66 68.2711L76.54 70.8333L74.0189 86.6422L72.1389 84.0788L74.66 68.2711Z" fill="#D0D5DD"/>
<path d="M74.019 86.8644C73.949 86.8644 73.8823 86.8311 73.8401 86.7733L71.9601 84.21C71.9245 84.1622 71.9101 84.1022 71.9201 84.0433L74.4412 68.2344C74.4556 68.1455 74.5212 68.0744 74.6079 68.0533C74.6945 68.0322 74.7868 68.0655 74.839 68.1378L76.719 70.7011C76.7545 70.7489 76.769 70.8089 76.759 70.8678L74.2379 86.6766C74.2234 86.7655 74.1579 86.8366 74.0712 86.8578C74.0534 86.8622 74.0356 86.8644 74.019 86.8644ZM72.3734 84.0222L73.8834 86.0811L76.3068 70.89L74.7968 68.8311L72.3734 84.0222Z" fill="#F9FAFB"/>
<path d="M71.4822 84.6289L73.3622 87.1911H38.8367L36.9578 84.6289H71.4822Z" fill="#98A2B3"/>
<path d="M73.3623 87.4133H38.8367C38.7656 87.4133 38.6989 87.38 38.6578 87.3222L36.7778 84.76C36.7278 84.6922 36.7211 84.6033 36.7589 84.5277C36.7967 84.4533 36.8734 84.4055 36.9567 84.4055H71.4811C71.5523 84.4055 71.6189 84.4388 71.66 84.4966L73.54 87.06C73.59 87.1277 73.5967 87.2166 73.5589 87.2922C73.5223 87.3666 73.4456 87.4133 73.3623 87.4133ZM38.95 86.9688H72.9234L71.37 84.85H37.3956L38.95 86.9688Z" fill="#F9FAFB"/>
<path d="M72.1389 84.0789L74.6601 68.27H75.9223L75.6978 69.68L74.4401 77.5689L72.8867 87.3089C72.7901 87.9156 72.2001 88.4078 71.5723 88.4078H35.6634C35.0345 88.4078 34.6023 87.9156 34.6989 87.3089L36.2523 77.5689L37.5101 69.68L37.7345 68.27H38.9956L36.4745 84.0789C36.4267 84.3811 36.6423 84.6278 36.9567 84.6278H71.4812C71.7967 84.6278 72.0901 84.3822 72.1389 84.0789Z" fill="#98A2B3"/>
<path d="M71.5701 88.63H35.6634C35.2878 88.63 34.9578 88.4845 34.7323 88.2211C34.5134 87.9645 34.4234 87.6278 34.4801 87.2745L37.5167 68.2356C37.5334 68.1278 37.6267 68.0478 37.7367 68.0478H38.9978C39.0634 68.0478 39.1245 68.0767 39.1667 68.1256C39.2089 68.1745 39.2278 68.24 39.2167 68.3045L36.6956 84.1134C36.6834 84.1923 36.7012 84.2645 36.7467 84.3178C36.7956 84.3745 36.8712 84.4056 36.9589 84.4056H71.4834C71.6889 84.4056 71.8889 84.24 71.9212 84.0434L74.4423 68.2345C74.4589 68.1267 74.5523 68.0467 74.6623 68.0467H75.9234C75.9889 68.0467 76.0501 68.0756 76.0923 68.1245C76.1345 68.1734 76.1534 68.2389 76.1423 68.3034L73.1045 87.3445C72.9923 88.0534 72.3034 88.63 71.5701 88.63ZM37.9245 68.4934L34.9178 87.3445C34.8823 87.5678 34.9356 87.7767 35.0689 87.9334C35.2078 88.0967 35.4189 88.1867 35.6623 88.1867H71.5701C72.0934 88.1867 72.5856 87.7778 72.6656 87.2745L75.6612 68.4934H74.8501L72.3589 84.1145C72.2934 84.5278 71.9078 84.8511 71.4823 84.8511H36.9578C36.7401 84.8511 36.5389 84.7623 36.4067 84.6067C36.2756 84.4534 36.2223 84.2534 36.2556 84.0445L38.7356 68.4934H37.9245Z" fill="#F9FAFB"/>
<path d="M28.12 40.3712L36.25 45.38L33.1089 65.08H35.2555L34.7466 68.2712H37.7355L37.51 69.68L22.1877 77.57L28.12 40.3712Z" fill="#D0D5DD"/>
<path d="M22.1878 77.7922C22.1422 77.7922 22.0956 77.7778 22.0578 77.75C21.99 77.7011 21.9556 77.6178 21.9689 77.5355L27.9011 40.3367C27.9133 40.2633 27.96 40.2011 28.0278 40.17C28.0956 40.1389 28.1733 40.1433 28.2367 40.1822L36.3667 45.1911C36.4433 45.2378 36.4833 45.3267 36.47 45.4155L33.3689 64.8589H35.2556C35.3211 64.8589 35.3822 64.8878 35.4245 64.9367C35.4667 64.9855 35.4856 65.0511 35.4745 65.1155L35.0067 68.0489H37.7356C37.8011 68.0489 37.8622 68.0778 37.9045 68.1267C37.9467 68.1767 37.9656 68.2411 37.9545 68.3055L37.73 69.7155C37.7189 69.7855 37.6756 69.8455 37.6122 69.8778L22.2889 77.7678C22.2567 77.7844 22.2222 77.7922 22.1878 77.7922ZM28.2878 40.7344L22.4767 77.1711L37.3089 69.5344L37.4756 68.4933H34.7467C34.6811 68.4933 34.62 68.4644 34.5778 68.4155C34.5356 68.3655 34.5167 68.3011 34.5278 68.2367L34.9956 65.3033H33.1089C33.0433 65.3033 32.9822 65.2744 32.94 65.2255C32.8978 65.1755 32.8789 65.1111 32.89 65.0466L36.0089 45.4922L28.2878 40.7344Z" fill="#F9FAFB"/>
<path d="M89.4444 37.4C89.3756 37.4 89.3089 37.3689 89.2667 37.3111L87.3867 34.7478C87.3478 34.6955 87.3344 34.6289 87.35 34.5655C87.3556 34.5422 87.36 34.5233 87.3633 34.5033C87.3956 34.2978 87.3522 34.1011 87.2411 33.95C87.1689 33.8511 87.19 33.7122 87.2889 33.6389C87.3878 33.5666 87.5267 33.5878 87.6 33.6866L89.48 36.2489C89.6622 36.4966 89.7333 36.8122 89.6822 37.1355C89.6778 37.1655 89.6711 37.1944 89.6633 37.2255C89.6433 37.31 89.5755 37.3766 89.4911 37.3944C89.4744 37.3989 89.4589 37.4 89.4444 37.4Z" fill="#F9FAFB"/>
<mask id="mask2_6802_25353" style="mask-type:luminance" maskUnits="userSpaceOnUse" x="87" y="33" width="3" height="5">
<path d="M89.4444 37.4C89.3756 37.4 89.3089 37.3689 89.2667 37.3111L87.3867 34.7478C87.3478 34.6955 87.3344 34.6289 87.35 34.5655C87.3556 34.5422 87.36 34.5233 87.3633 34.5033C87.3956 34.2978 87.3522 34.1011 87.2411 33.95C87.1689 33.8511 87.19 33.7122 87.2889 33.6389C87.3878 33.5666 87.5267 33.5878 87.6 33.6866L89.48 36.2489C89.6622 36.4966 89.7333 36.8122 89.6822 37.1355C89.6778 37.1655 89.6711 37.1944 89.6633 37.2255C89.6433 37.31 89.5755 37.3766 89.4911 37.3944C89.4744 37.3989 89.4589 37.4 89.4444 37.4Z" fill="white"/>
</mask>
<g mask="url(#mask2_6802_25353)">
<path d="M87.4199 33.8189L89.2999 36.3822C89.3077 36.3922 89.3155 36.4034 89.3221 36.4145L87.4421 33.8511C87.4355 33.84 87.4277 33.83 87.4199 33.8189Z" fill="#667185"/>
<path d="M89.3222 36.637C89.2533 36.637 89.1867 36.6059 89.1433 36.5459L87.2633 33.9826C87.2533 33.967 87.2478 33.9592 87.2422 33.9514L87.2411 33.9503C87.1689 33.8514 87.19 33.7126 87.2889 33.6403C87.3878 33.5681 87.5267 33.5892 87.5989 33.6881C87.5989 33.6881 87.5989 33.6892 87.6 33.6892L89.4789 36.2503C89.4889 36.2637 89.4978 36.277 89.5067 36.2903C89.5733 36.3903 89.5478 36.5259 89.4489 36.5959C89.4111 36.6237 89.3667 36.637 89.3222 36.637Z" fill="#F9FAFB"/>
<path d="M87.4423 33.8511L89.3223 36.4144C89.3412 36.4422 89.3589 36.4722 89.3745 36.5022L87.4945 33.9389C87.4789 33.9089 87.4611 33.88 87.4423 33.8511Z" fill="#667185"/>
<path d="M89.3745 36.7244C89.3056 36.7244 89.239 36.6922 89.1956 36.6333L87.3156 34.07C87.309 34.06 87.3023 34.05 87.2967 34.04C87.2845 34.0166 87.2723 33.9955 87.2578 33.9744C87.1912 33.8744 87.2156 33.7377 87.3156 33.6689C87.4145 33.6 87.5512 33.6222 87.6223 33.72L89.5023 36.2833C89.5312 36.3266 89.5534 36.3633 89.5723 36.4011C89.6256 36.5044 89.5901 36.6311 89.4912 36.6922C89.4545 36.7133 89.4145 36.7244 89.3745 36.7244Z" fill="#F9FAFB"/>
<path d="M87.4945 33.9389L89.3745 36.5022C89.3923 36.5356 89.4067 36.5711 89.4201 36.6067L87.5401 34.0433C87.5267 34.0078 87.5112 33.9733 87.4945 33.9389Z" fill="#98A2B3"/>
<path d="M89.42 36.8289C89.3512 36.8289 89.2834 36.7967 89.2411 36.7378L87.3612 34.1744C87.3489 34.1578 87.3389 34.1389 87.3312 34.1189C87.3212 34.0922 87.31 34.0655 87.2967 34.04C87.2445 33.9367 87.2789 33.81 87.3778 33.75C87.4767 33.6889 87.6056 33.7144 87.6734 33.8078L89.5534 36.3711C89.56 36.3811 89.5667 36.3911 89.5723 36.4011C89.5934 36.4433 89.6134 36.4867 89.6289 36.5311C89.6667 36.6355 89.6223 36.7511 89.5245 36.8022C89.4911 36.82 89.4556 36.8289 89.42 36.8289Z" fill="#F9FAFB"/>
<path d="M87.5399 34.0433L89.4199 36.6067C89.4355 36.65 89.4488 36.6956 89.4577 36.7433L87.5777 34.18C87.5677 34.1333 87.5555 34.0878 87.5399 34.0433Z" fill="#667185"/>
<path d="M89.4577 36.9656C89.3888 36.9656 89.321 36.9334 89.2788 36.8745L87.3988 34.3111C87.3799 34.2845 87.3666 34.2545 87.3599 34.2222C87.3532 34.1867 87.3432 34.1522 87.331 34.1189C87.2932 34.0145 87.3377 33.8989 87.4355 33.8478C87.5332 33.7956 87.6532 33.8234 87.7188 33.9122L89.5988 36.4756C89.611 36.4922 89.621 36.5111 89.6288 36.5311C89.6488 36.5856 89.6644 36.6422 89.6755 36.7C89.6955 36.8022 89.6421 36.9045 89.5466 36.9467C89.5177 36.9589 89.4877 36.9656 89.4577 36.9656Z" fill="#F9FAFB"/>
<path d="M87.5779 34.18L89.4579 36.7433C89.4801 36.8556 89.4823 36.9767 89.4623 37.1022C89.4579 37.1278 89.4523 37.1533 89.4457 37.18L87.5657 34.6167C87.5723 34.59 87.5779 34.5644 87.5823 34.5389C87.6023 34.4133 87.6001 34.2933 87.5779 34.18Z" fill="#98A2B3"/>
<path d="M89.4445 37.4C89.3757 37.4 89.309 37.3689 89.2668 37.3111L87.3868 34.7478C87.3479 34.6956 87.3345 34.6289 87.3501 34.5656C87.3557 34.5423 87.3601 34.5234 87.3634 34.5034C87.379 34.4067 87.3779 34.3123 87.3601 34.2223C87.3401 34.12 87.3934 34.0178 87.489 33.9756C87.5845 33.9334 87.6957 33.9634 87.7579 34.0478L89.6379 36.6111C89.6568 36.6378 89.6701 36.6678 89.6768 36.7C89.7045 36.8411 89.7068 36.9878 89.6823 37.1367C89.6779 37.1656 89.6712 37.1956 89.6634 37.2267C89.6434 37.3111 89.5757 37.3778 89.4912 37.3956C89.4745 37.3989 89.459 37.4 89.4445 37.4Z" fill="#F9FAFB"/>
</g>
<path d="M81.55 21.501C81.8645 21.501 82.08 21.7477 82.0311 22.0511L79.5667 37.5011C78.2234 38.8555 77.2756 40.5744 76.9767 42.4455L76.8389 43.311H42.9767L46.3678 22.0499C46.4167 21.7466 46.7111 21.4999 47.0256 21.4999H81.55V21.501ZM63.7534 24.8466C64.42 24.8466 65.0422 24.3255 65.1456 23.6833C65.2478 23.0399 64.7911 22.5199 64.1245 22.5199C63.4589 22.5199 62.8367 23.0399 62.7333 23.6833C62.6311 24.3244 63.0878 24.8466 63.7534 24.8466Z" fill="#F9FAFB"/>
<path d="M76.84 43.5344H42.9767C42.9111 43.5344 42.85 43.5055 42.8078 43.4566C42.7655 43.4078 42.7467 43.3422 42.7578 43.2778L46.1489 22.0166C46.2144 21.6033 46.6 21.2789 47.0267 21.2789H81.5511C81.7689 21.2789 81.9689 21.3678 82.1011 21.5222C82.2322 21.6755 82.2855 21.8766 82.2522 22.0866L79.7878 37.5366C79.78 37.5822 79.7589 37.6255 79.7255 37.6578C78.3744 39.02 77.4767 40.7333 77.1978 42.4811L77.06 43.3466C77.0422 43.4544 76.9489 43.5344 76.84 43.5344ZM43.2367 43.09H76.65L76.7578 42.4111C77.0522 40.5678 77.9511 38.8344 79.3589 37.3955L81.8122 22.0155C81.8244 21.9355 81.8067 21.8633 81.7622 21.81C81.7144 21.7533 81.6389 21.7222 81.5511 21.7222H47.0255C46.8189 21.7222 46.6178 21.8889 46.5867 22.0855L43.2367 43.09ZM63.7533 25.0689C63.36 25.0689 63.0144 24.9166 62.7778 24.6411C62.5478 24.3722 62.4544 24.02 62.5133 23.6489C62.6322 22.9044 63.3544 22.2989 64.1233 22.2989C64.5178 22.2989 64.8644 22.4511 65.1 22.7278C65.3289 22.9966 65.4233 23.3489 65.3633 23.72C65.2455 24.4622 64.5233 25.0689 63.7533 25.0689ZM64.1244 22.7422C63.5644 22.7422 63.0389 23.18 62.9533 23.7178C62.9155 23.9578 62.9733 24.1833 63.1167 24.3511C63.2667 24.5266 63.4922 24.6233 63.7533 24.6233C64.3144 24.6233 64.84 24.1855 64.9255 23.6466C64.9644 23.4066 64.9055 23.1811 64.7622 23.0133C64.6133 22.8389 64.3867 22.7422 64.1244 22.7422Z" fill="#F9FAFB"/>
<path d="M94.4356 40.3711L96.3156 42.9333L95.3434 43.4344L93.4634 40.8722L94.4356 40.3711Z" fill="#98A2B3"/>
<path d="M95.3434 43.6567C95.2745 43.6567 95.2067 43.6244 95.1645 43.5655L93.2845 41.0022C93.2456 40.95 93.2322 40.8833 93.2478 40.82C93.2622 40.7567 93.3045 40.7033 93.3623 40.6733L94.3345 40.1722C94.4311 40.1222 94.5511 40.15 94.6156 40.2389L96.4956 42.8022C96.5345 42.8544 96.5478 42.9211 96.5322 42.9844C96.5178 43.0478 96.4756 43.1011 96.4178 43.1311L95.4456 43.6322C95.4123 43.6489 95.3778 43.6567 95.3434 43.6567ZM93.7967 40.95L95.41 43.15L95.9823 42.8556L94.3689 40.6555L93.7967 40.95Z" fill="#F9FAFB"/>
<path d="M93.4211 40.3711H94.4367L93.4645 40.8722C93.4556 40.7033 93.4411 40.5355 93.4211 40.3711Z" fill="#98A2B3"/>
<path d="M93.4633 41.0944C93.4245 41.0944 93.3867 41.0844 93.3522 41.0644C93.2867 41.0266 93.2445 40.9589 93.2411 40.8833C93.2333 40.7211 93.2189 40.5578 93.2 40.3978C93.1922 40.3344 93.2122 40.2711 93.2545 40.2233C93.2967 40.1755 93.3567 40.1489 93.4211 40.1489H94.4367C94.5389 40.1489 94.6289 40.2189 94.6522 40.3189C94.6767 40.4189 94.6289 40.5222 94.5378 40.5689L93.5656 41.07C93.5334 41.0855 93.4989 41.0944 93.4633 41.0944Z" fill="#F9FAFB"/>
<path d="M94.4368 40.3711L96.3157 42.9333L94.9468 51.5211L93.0668 48.9578L94.4368 40.3711Z" fill="#D0D5DD"/>
<path d="M94.9467 51.7433C94.8767 51.7433 94.81 51.7099 94.7678 51.6522L92.8878 49.0888C92.8523 49.0411 92.8378 48.9811 92.8478 48.9222L94.2178 40.3355C94.2323 40.2466 94.2978 40.1755 94.3845 40.1544C94.4712 40.1333 94.5634 40.1666 94.6156 40.2388L96.4956 42.8022C96.5312 42.8499 96.5456 42.9099 96.5356 42.9688L95.1656 51.5555C95.1512 51.6444 95.0856 51.7155 94.9989 51.7366C94.9812 51.7411 94.9634 51.7433 94.9467 51.7433ZM93.3012 48.9011L94.8112 50.9599L96.0823 42.9899L94.5723 40.9311L93.3012 48.9011Z" fill="#F9FAFB"/>
<path d="M83.4623 53.19L85.3412 55.7533L83.4468 67.6433L81.5668 65.08L83.4623 53.19Z" fill="#D0D5DD"/>
<path d="M83.4467 67.8655C83.3767 67.8655 83.31 67.8322 83.2678 67.7744L81.3878 65.2111C81.3523 65.1633 81.3378 65.1033 81.3478 65.0444L83.2434 53.1544C83.2578 53.0655 83.3234 52.9944 83.41 52.9733C83.4967 52.9522 83.5889 52.9855 83.6412 53.0577L85.5212 55.6211C85.5567 55.6689 85.5712 55.7289 85.5612 55.7877L83.6656 67.6777C83.6512 67.7666 83.5856 67.8377 83.4989 67.8588C83.4812 67.8633 83.4634 67.8655 83.4467 67.8655ZM81.8 65.0233L83.31 67.0822L85.1067 55.8089L83.5967 53.75L81.8 65.0233Z" fill="#F9FAFB"/>
<path d="M83.9156 50.3533L83.8067 51.0344H81.5711C81.3811 52.2244 82.2278 53.1911 83.4622 53.1911L81.5667 65.08H79.42H35.2556H30.6833L33.8256 45.3789L34.1556 43.3111H41.7167H42.9778H76.8411L76.2189 47.2144L75.9556 47.67H39.6967L39.5567 48.55H75.4456L74.4022 50.3522H75.7167H83.9156V50.3533ZM79.5378 53.8989L79.6778 53.0189H38.8433L38.7033 53.8989H79.5378ZM70.2934 59.2466L70.4334 58.3667H46.3822L46.2422 59.2466H70.2934Z" fill="#E4E7EC"/>
<path d="M81.5667 65.3022H30.6822C30.6167 65.3022 30.5556 65.2733 30.5133 65.2244C30.4711 65.1744 30.4522 65.11 30.4633 65.0455L33.9356 43.2777C33.9522 43.17 34.0456 43.09 34.1556 43.09H76.8411C76.9067 43.09 76.9678 43.1189 77.01 43.1677C77.0522 43.2177 77.0711 43.2822 77.06 43.3466L76.4378 47.25C76.4333 47.2766 76.4244 47.3022 76.4111 47.3266L76.1478 47.7822C76.1078 47.8511 76.0344 47.8933 75.9556 47.8933H39.8856L39.8167 48.3289H75.4444C75.5233 48.3289 75.5978 48.3711 75.6367 48.44C75.6767 48.5089 75.6767 48.5933 75.6367 48.6622L74.7867 50.1311H83.9144C83.98 50.1311 84.0411 50.16 84.0833 50.2089C84.1256 50.2589 84.1444 50.3233 84.1333 50.3877L84.0244 51.0689C84.0067 51.1766 83.9144 51.2566 83.8044 51.2566H81.7678C81.7422 51.6866 81.8689 52.0866 82.1344 52.3966C82.4489 52.7655 82.92 52.9689 83.46 52.9689C83.5256 52.9689 83.5867 52.9977 83.6289 53.0466C83.6711 53.0966 83.69 53.1611 83.6789 53.2255L81.7833 65.1155C81.7689 65.2233 81.6756 65.3022 81.5667 65.3022ZM30.9433 64.8577H81.3767L83.2033 53.3989C82.6389 53.3411 82.1467 53.0922 81.7978 52.6844C81.4089 52.2289 81.25 51.63 81.3511 50.9989C81.3678 50.8911 81.4611 50.8111 81.5711 50.8111H83.6178L83.6556 50.5744H74.4022C74.3233 50.5744 74.2489 50.5322 74.21 50.4633C74.17 50.3944 74.17 50.31 74.21 50.2411L75.06 48.7722H39.5567C39.4911 48.7722 39.43 48.7433 39.3878 48.6944C39.3456 48.6444 39.3267 48.58 39.3378 48.5155L39.4778 47.6355C39.4944 47.5277 39.5878 47.4477 39.6978 47.4477H75.8267L76.0056 47.1389L76.5811 43.5333H34.3444L30.9433 64.8577ZM70.2933 59.4689H46.2422C46.1767 59.4689 46.1156 59.44 46.0733 59.3911C46.0311 59.3411 46.0122 59.2766 46.0233 59.2122L46.1633 58.3322C46.18 58.2244 46.2733 58.1444 46.3833 58.1444H70.4333C70.4989 58.1444 70.56 58.1733 70.6022 58.2222C70.6444 58.2722 70.6633 58.3366 70.6522 58.4011L70.5122 59.2811C70.4956 59.3889 70.4022 59.4689 70.2933 59.4689ZM46.5022 59.0244H70.1033L70.1722 58.5889H46.5711L46.5022 59.0244ZM79.5378 54.1211H38.7033C38.6378 54.1211 38.5767 54.0922 38.5344 54.0433C38.4922 53.9933 38.4733 53.9289 38.4844 53.8644L38.6244 52.9844C38.6411 52.8766 38.7344 52.7966 38.8444 52.7966H79.6789C79.7444 52.7966 79.8056 52.8255 79.8478 52.8744C79.89 52.9244 79.9089 52.9889 79.8978 53.0533L79.7578 53.9333C79.74 54.0411 79.6478 54.1211 79.5378 54.1211ZM38.9633 53.6766H79.3478L79.4167 53.2411H39.0333L38.9633 53.6766Z" fill="#F9FAFB"/>
<path d="M79.42 65.08L81.2989 67.6433L80.79 70.8333L78.9111 68.2711L79.42 65.08Z" fill="#D0D5DD"/>
<path d="M80.79 71.0555C80.72 71.0555 80.6533 71.0222 80.6111 70.9644L78.7311 68.4011C78.6955 68.3533 78.6811 68.2933 78.6911 68.2344L79.2 65.0444C79.2144 64.9555 79.28 64.8844 79.3666 64.8633C79.4533 64.8422 79.5455 64.8755 79.5978 64.9478L81.4778 67.5111C81.5133 67.5589 81.5277 67.6189 81.5177 67.6778L81.0089 70.8678C80.9944 70.9566 80.9289 71.0278 80.8422 71.0489C80.8255 71.0533 80.8078 71.0555 80.79 71.0555ZM79.1444 68.2144L80.6544 70.2733L81.0644 67.7L79.5555 65.6411L79.1444 68.2144Z" fill="#F9FAFB"/>
<path d="M71.5701 88.4077H35.6634C35.3179 88.4077 35.0323 88.2588 34.8612 88.0255L36.7412 90.5888C36.9134 90.8233 37.199 90.9711 37.5434 90.9711H73.4512L71.5701 88.4077Z" fill="#667185"/>
<path d="M73.4499 91.1933H37.5433C37.1399 91.1933 36.7822 91.0211 36.561 90.72L34.681 88.1566C34.6088 88.0578 34.6299 87.9189 34.7288 87.8455C34.8277 87.7733 34.9666 87.7944 35.0399 87.8933C35.1755 88.0789 35.4033 88.1855 35.6633 88.1855H71.5711C71.6422 88.1855 71.7088 88.2189 71.7499 88.2766L73.6299 90.84C73.6799 90.9078 73.6866 90.9967 73.6488 91.0722C73.6111 91.1467 73.5344 91.1933 73.4499 91.1933ZM35.5777 88.6278L36.9199 90.4566C37.0555 90.6422 37.2833 90.7489 37.5433 90.7489H73.0122L71.4588 88.63H35.6633C35.6344 88.63 35.6055 88.63 35.5777 88.6278Z" fill="#F9FAFB"/>
<path d="M75.6966 69.6811L74.4388 77.57L72.8855 87.31C72.8777 87.3566 72.8666 87.4022 72.8544 87.4466C72.8511 87.46 72.8466 87.4722 72.8422 87.4855C72.8311 87.52 72.8188 87.5533 72.8044 87.5855C72.8 87.5966 72.7955 87.6078 72.79 87.62C72.77 87.6622 72.7488 87.7044 72.7244 87.7444C72.7177 87.7555 72.71 87.7655 72.7033 87.7766C72.6877 87.8 72.6733 87.8233 72.6566 87.8455C72.6455 87.86 72.6344 87.8744 72.6222 87.8889C72.6088 87.9044 72.5966 87.9211 72.5833 87.9366C72.57 87.9522 72.5566 87.9666 72.5422 87.9811C72.53 87.9944 72.5177 88.0066 72.5044 88.02C72.49 88.0344 72.4733 88.0478 72.4577 88.0622C72.4455 88.0733 72.4322 88.0855 72.4188 88.0955C72.4033 88.1089 72.3866 88.1211 72.37 88.1333C72.3555 88.1444 72.3422 88.1555 72.3266 88.1655C72.3111 88.1755 72.2955 88.1855 72.28 88.1955C72.2622 88.2066 72.2444 88.2189 72.2266 88.2289C72.2133 88.2366 72.2 88.2433 72.1866 88.25C72.1633 88.2622 72.14 88.2755 72.1155 88.2866C72.1033 88.2922 72.09 88.2978 72.0777 88.3033C72.0444 88.3178 72.01 88.3311 71.9744 88.3422C71.96 88.3466 71.9455 88.3522 71.9311 88.3566C71.9188 88.36 71.9055 88.3633 71.8933 88.3666C71.8711 88.3722 71.8477 88.3778 71.8244 88.3833C71.8111 88.3855 71.7988 88.3889 71.7855 88.3911C71.7611 88.3955 71.7366 88.3989 71.7122 88.4011C71.7011 88.4022 71.6888 88.4044 71.6777 88.4055C71.6422 88.4089 71.6055 88.4111 71.5688 88.4111L73.4488 90.9744C73.4855 90.9744 73.5211 90.9722 73.5577 90.9689C73.5688 90.9678 73.5811 90.9655 73.5922 90.9644C73.6166 90.9611 73.6411 90.9578 73.6655 90.9544C73.6788 90.9522 73.6911 90.95 73.7044 90.9466C73.7277 90.9422 73.75 90.9366 73.7733 90.93C73.7855 90.9266 73.7988 90.9233 73.8111 90.92C73.8177 90.9178 73.8244 90.9166 73.8311 90.9144C73.8388 90.9122 73.8466 90.9078 73.8544 90.9055C73.8888 90.8933 73.9233 90.8811 73.9566 90.8666C73.9644 90.8633 73.9722 90.8611 73.98 90.8578C73.9855 90.8555 73.99 90.8522 73.9944 90.85C74.0188 90.8389 74.0422 90.8266 74.0655 90.8133C74.0755 90.8078 74.0866 90.8033 74.0966 90.7978C74.1 90.7955 74.1022 90.7944 74.1055 90.7922C74.1233 90.7811 74.1411 90.77 74.1588 90.7589C74.1711 90.7511 74.1844 90.7433 74.1966 90.7344C74.1988 90.7322 74.2022 90.73 74.2044 90.7289C74.2188 90.7189 74.2333 90.7078 74.2477 90.6966C74.2611 90.6866 74.2755 90.6766 74.2877 90.6666C74.2911 90.6644 74.2933 90.6622 74.2966 90.6589C74.31 90.6478 74.3222 90.6366 74.3355 90.6255C74.3477 90.6144 74.3611 90.6044 74.3722 90.5933C74.3755 90.59 74.3788 90.5866 74.3811 90.5833C74.3944 90.5711 74.4066 90.5578 74.4188 90.5444C74.4288 90.5333 74.4411 90.5233 74.4511 90.5122C74.4544 90.5089 74.4566 90.5044 74.46 90.5011C74.4733 90.4855 74.4866 90.47 74.4988 90.4533C74.5077 90.4422 74.5177 90.4322 74.5255 90.4211C74.5277 90.4178 74.53 90.4144 74.5322 90.4111C74.5488 90.3889 74.5644 90.3655 74.5788 90.3422C74.5844 90.3333 74.5922 90.3244 74.5977 90.3144C74.5988 90.3133 74.5988 90.3111 74.6 90.31C74.6244 90.27 74.6466 90.2278 74.6655 90.1855C74.6677 90.1822 74.67 90.1778 74.6711 90.1744C74.6744 90.1666 74.6766 90.1589 74.68 90.1511C74.6944 90.1178 74.7066 90.0844 74.7177 90.0511C74.7222 90.0378 74.7266 90.0255 74.73 90.0122C74.7433 89.9678 74.7544 89.9222 74.7611 89.8755L76.3144 80.1355L77.5722 72.2466L77.7966 70.8366L75.9166 68.2733L75.6966 69.6811Z" fill="#98A2B3"/>
<path d="M73.45 91.1933C73.3789 91.1933 73.3122 91.16 73.2711 91.1022L71.3911 88.5389C71.3411 88.4711 71.3344 88.3822 71.3722 88.3067C71.41 88.2322 71.4866 88.1844 71.57 88.1844C71.6 88.1844 71.6289 88.1822 71.6589 88.18L71.6866 88.1767C71.7077 88.1744 71.7277 88.1711 71.7477 88.1678L71.78 88.1611C71.7989 88.1567 71.8178 88.1522 71.8366 88.1478L71.9044 88.1267C71.9333 88.1167 71.9622 88.1056 71.99 88.0933L72.0222 88.08C72.0422 88.0711 72.0622 88.06 72.0822 88.05L72.1155 88.0322C72.1266 88.0256 72.1389 88.0178 72.15 88.0111L72.1766 87.9944C72.1844 87.9889 72.1933 87.9844 72.2011 87.9789C72.2089 87.9733 72.2166 87.9678 72.2233 87.9622L72.2477 87.9444C72.2577 87.9367 72.2689 87.9289 72.2789 87.9211L72.3111 87.8922C72.3277 87.8778 72.3389 87.8678 72.35 87.8567C72.3578 87.8489 72.3655 87.8411 72.3722 87.8333L72.3811 87.8233C72.3955 87.8078 72.4055 87.7978 72.4155 87.7867C72.4255 87.7756 72.4344 87.7644 72.4433 87.7522L72.4566 87.7356C72.4633 87.7267 72.47 87.7189 72.4766 87.71C72.49 87.6911 72.5033 87.6722 72.5155 87.6522L72.5333 87.6256C72.5522 87.5933 72.57 87.56 72.5877 87.5222L72.6 87.4944C72.6111 87.4678 72.6222 87.4411 72.6311 87.4133L72.6411 87.3822C72.6533 87.34 72.6611 87.3044 72.6666 87.2722L75.7033 68.2333C75.7178 68.1444 75.7833 68.0733 75.87 68.0522C75.9566 68.0311 76.0489 68.0644 76.1011 68.1367L77.9811 70.7C78.0166 70.7478 78.0311 70.8078 78.0211 70.8667L74.9844 89.9056C74.9766 89.9567 74.9644 90.01 74.9466 90.0689C74.9433 90.0811 74.9389 90.0944 74.9344 90.1067C74.9189 90.1544 74.9033 90.1944 74.8866 90.2333C74.8844 90.24 74.8811 90.25 74.8755 90.2611C74.8733 90.2656 74.87 90.2733 74.8666 90.2789C74.8444 90.3267 74.8211 90.3711 74.7955 90.4133C74.7944 90.4156 74.7933 90.4178 74.7922 90.42C74.7833 90.4344 74.7777 90.4433 74.7711 90.4522C74.75 90.4833 74.7322 90.5111 74.7133 90.5367C74.7133 90.5367 74.7089 90.5433 74.7044 90.5489C74.6978 90.5589 74.6889 90.5678 74.6811 90.5778L74.6744 90.5867C74.6555 90.61 74.6433 90.6256 74.6289 90.6411C74.6277 90.6433 74.6222 90.6489 74.6177 90.6544C74.6089 90.6644 74.6 90.6733 74.59 90.6833L74.5811 90.6922C74.5622 90.7122 74.55 90.7244 74.5378 90.7367L74.5266 90.7478C74.5166 90.7578 74.5055 90.7678 74.4944 90.7767L74.4755 90.7933C74.4633 90.8033 74.4522 90.8144 74.44 90.8244C74.4366 90.8278 74.4322 90.8311 74.4289 90.8344C74.4189 90.8422 74.4077 90.8511 74.3955 90.8589L74.3733 90.8756C74.36 90.8856 74.3477 90.8956 74.3344 90.9044C74.3144 90.9189 74.3033 90.9256 74.2922 90.9322L74.2711 90.9456C74.2544 90.9567 74.2366 90.9678 74.2189 90.9778L74.2089 90.9844C74.1989 90.99 74.1889 90.9956 74.1789 91C74.1455 91.0178 74.1189 91.0322 74.0911 91.0444C74.0877 91.0467 74.0811 91.05 74.0744 91.0533C74.0633 91.0578 74.0544 91.0622 74.0444 91.0656C74.0078 91.0811 73.9677 91.0967 73.9277 91.11C73.9211 91.1133 73.9111 91.1167 73.9011 91.12C73.8933 91.1222 73.8855 91.1244 73.8789 91.1267C73.8655 91.1311 73.8522 91.1344 73.84 91.1378C73.8066 91.1467 73.78 91.1533 73.7533 91.1589C73.7389 91.1622 73.7233 91.1656 73.7077 91.1678C73.6789 91.1733 73.65 91.1767 73.6211 91.18C73.6011 91.1822 73.5911 91.1833 73.5811 91.1844C73.5355 91.1911 73.4933 91.1933 73.45 91.1933ZM71.9678 88.5744L73.5578 90.7422L73.5666 90.7411C73.5866 90.7389 73.6066 90.7356 73.6266 90.7322L73.6589 90.7256C73.6789 90.7211 73.6977 90.7167 73.7166 90.7122L73.7477 90.7033C73.75 90.7022 73.7622 90.6989 73.7644 90.6989C73.7677 90.6978 73.7755 90.6944 73.7844 90.6911C73.8133 90.6811 73.8422 90.67 73.87 90.6578C73.8766 90.6556 73.8833 90.6522 73.89 90.65C73.8944 90.6478 73.8977 90.6456 73.9022 90.6444C73.9222 90.6356 73.9422 90.6244 73.9622 90.6133L73.9833 90.6022C73.9866 90.6 73.9911 90.5978 73.9944 90.5956C74.0066 90.5878 74.0189 90.5811 74.03 90.5733L74.0733 90.5456C74.0877 90.5356 74.0944 90.53 74.1022 90.5233L74.1489 90.4878C74.1633 90.4756 74.17 90.4689 74.1777 90.4633L74.2277 90.4178C74.2355 90.41 74.2433 90.4022 74.2511 90.3933L74.2589 90.3856L74.2944 90.3478C74.3033 90.3378 74.3122 90.3267 74.3211 90.3156L74.3555 90.2722C74.37 90.2533 74.3822 90.2333 74.3944 90.2144L74.4077 90.1944C74.4089 90.1922 74.41 90.1911 74.4111 90.1889C74.4311 90.1567 74.4489 90.1222 74.4666 90.0856C74.4677 90.0833 74.47 90.08 74.4711 90.0756C74.4722 90.0711 74.4755 90.0644 74.4777 90.0578C74.49 90.03 74.5 90.0033 74.5089 89.9756L74.5189 89.9444C74.5311 89.9022 74.5389 89.8667 74.5444 89.8344L77.5666 70.8878L76.0566 68.8289L73.1044 87.3444C73.0966 87.3956 73.0844 87.4478 73.0666 87.5078C73.0633 87.5211 73.0589 87.5344 73.0544 87.5478C73.0389 87.5944 73.0244 87.6333 73.0077 87.6722C73 87.6922 72.9955 87.7022 72.99 87.7122C72.9666 87.7633 72.94 87.8133 72.9122 87.8578C72.9066 87.8678 72.9 87.8767 72.8933 87.8867C72.87 87.9222 72.8522 87.95 72.8322 87.9756C72.8222 87.9889 72.8111 88.0033 72.8 88.0156L72.7922 88.0244C72.7744 88.0467 72.7611 88.0633 72.7466 88.0789C72.7322 88.0944 72.7178 88.11 72.7033 88.1256L72.6911 88.1389C72.68 88.1511 72.6678 88.1633 72.6555 88.1744C72.64 88.19 72.6233 88.2044 72.6077 88.2189L72.5922 88.2322C72.5811 88.2422 72.57 88.2522 72.5578 88.2622C72.5422 88.2744 72.5266 88.2867 72.5111 88.2978L72.49 88.3133C72.4777 88.3233 72.4644 88.3333 72.4511 88.3422C72.4377 88.3511 72.4244 88.36 72.41 88.3689L72.3866 88.3833C72.37 88.3944 72.3522 88.4056 72.3355 88.4156C72.3244 88.4222 72.3122 88.4278 72.3011 88.4344L72.29 88.44C72.2622 88.4544 72.2355 88.4689 72.2077 88.4822C72.1955 88.4878 72.1844 88.4922 72.1733 88.4978C72.1244 88.5189 72.0844 88.5344 72.0444 88.5478L72.0333 88.5522C72.02 88.5567 72.0077 88.5611 71.9944 88.5656C71.9866 88.57 71.9778 88.5722 71.9678 88.5744Z" fill="#F9FAFB"/>
<path d="M92.8445 50.3533L94.7234 52.9156L90.3834 80.1322L88.5034 77.57L92.8445 50.3533Z" fill="#D0D5DD"/>
<path d="M90.3834 80.3544C90.3134 80.3544 90.2467 80.3211 90.2045 80.2633L88.3245 77.7C88.2889 77.6522 88.2745 77.5922 88.2845 77.5333L92.6256 50.3166C92.64 50.2278 92.7056 50.1566 92.7922 50.1355C92.8789 50.1144 92.9711 50.1478 93.0234 50.22L94.9034 52.7833C94.9389 52.8311 94.9534 52.8911 94.9434 52.95L90.6022 80.1666C90.5878 80.2555 90.5222 80.3266 90.4356 80.3478C90.4178 80.3533 90.4 80.3544 90.3834 80.3544ZM88.7378 77.5133L90.2478 79.5722L94.49 52.9722L92.98 50.9133L88.7378 77.5133Z" fill="#F9FAFB"/>
<path d="M94.9466 51.52L95.3077 52.9145L93.4277 50.3523L93.0666 48.9578L92.6143 47.2167L93.3743 42.4467C93.4599 41.9078 93.4888 41.3823 93.4632 40.8723C93.4543 40.7034 93.4399 40.5367 93.421 40.3711C93.4055 40.24 93.3843 40.1111 93.3621 39.9845C93.3588 39.9622 93.3543 39.9411 93.3499 39.92C93.3266 39.7978 93.2999 39.6778 93.271 39.5578C93.2655 39.5345 93.2588 39.51 93.2532 39.4878C93.2221 39.3667 93.1877 39.2456 93.1499 39.1267C93.1477 39.1211 93.1455 39.1145 93.1443 39.1089C93.1121 39.0089 93.0755 38.9111 93.0377 38.8134C93.0143 38.75 92.9888 38.6889 92.9632 38.6267C92.9366 38.5611 92.9088 38.4967 92.8799 38.4323C92.8521 38.3711 92.8243 38.3123 92.7932 38.2511C92.7621 38.1856 92.7288 38.1211 92.6932 38.0567C92.6677 38.0078 92.6421 37.9611 92.6155 37.9134C92.5766 37.8467 92.5377 37.78 92.4966 37.7145C92.4688 37.67 92.441 37.6234 92.4121 37.58C92.3488 37.4822 92.2832 37.3845 92.2155 37.2911L94.0943 39.8534C94.1499 39.9289 94.2032 40.0034 94.2543 40.0811C94.2677 40.1 94.2799 40.1211 94.2921 40.1422C94.321 40.1856 94.3488 40.2322 94.3766 40.2767C94.4177 40.3422 94.4566 40.4089 94.4955 40.4756C94.5221 40.5234 94.5477 40.57 94.5732 40.6189C94.5899 40.6489 94.6088 40.68 94.6243 40.7111C94.641 40.7456 94.6566 40.78 94.6732 40.8134C94.7021 40.8745 94.731 40.9334 94.7599 40.9945C94.7888 41.0589 94.8155 41.1234 94.8432 41.1889C94.8688 41.2511 94.8932 41.3123 94.9177 41.3756C94.9288 41.4034 94.941 41.4311 94.9521 41.4589C94.9777 41.5289 95.001 41.6011 95.0232 41.6722C95.0255 41.6778 95.0277 41.6834 95.031 41.6889C95.0688 41.8078 95.1021 41.9289 95.1343 42.05C95.1399 42.0745 95.1466 42.0978 95.1521 42.1211C95.1777 42.2245 95.2021 42.3289 95.2221 42.4345C95.2255 42.45 95.2277 42.4667 95.231 42.4834C95.2355 42.5056 95.2388 42.5256 95.2432 42.5478C95.2666 42.6756 95.2866 42.8034 95.3021 42.9345C95.321 43.0989 95.3366 43.2667 95.3443 43.4356C95.3699 43.9445 95.3421 44.4711 95.2555 45.0111L94.4955 49.78L94.9466 51.52Z" fill="#D0D5DD"/>
<path d="M95.3078 53.1377C95.2389 53.1377 95.1711 53.1055 95.1289 53.0466L93.2489 50.4844C93.2322 50.4622 93.22 50.4355 93.2133 50.4089L92.4 47.2722C92.3922 47.2422 92.3911 47.2111 92.3955 47.1811L93.1555 42.4111C93.2378 41.8977 93.2667 41.3833 93.2411 40.8833C93.2333 40.7255 93.2189 40.5622 93.2 40.3977C93.1867 40.2855 93.1678 40.1633 93.1422 40.0244C93.1389 40.0044 93.1367 39.9877 93.1322 39.9711C93.11 39.8533 93.0844 39.7377 93.0533 39.61L93.0367 39.5444C93.0033 39.4166 92.9711 39.3033 92.9389 39.2C92.9355 39.19 92.9322 39.1811 92.9289 39.1711C92.8955 39.07 92.8578 38.9689 92.8278 38.8922C92.8044 38.83 92.7811 38.7711 92.7567 38.7133C92.73 38.6466 92.7033 38.5855 92.6744 38.5233C92.6478 38.4666 92.6211 38.4089 92.5922 38.3511C92.5611 38.2855 92.53 38.2255 92.4966 38.1644C92.47 38.1144 92.4455 38.0689 92.42 38.0244C92.3844 37.9622 92.3467 37.8977 92.3067 37.8344L92.2878 37.8044C92.2667 37.7711 92.2467 37.7377 92.2244 37.7044C92.1567 37.5989 92.0944 37.5077 92.0333 37.4233C91.9611 37.3244 91.9833 37.1855 92.0822 37.1133C92.1811 37.0411 92.32 37.0622 92.3922 37.1611L94.2711 39.7233C94.3344 39.8077 94.3889 39.8855 94.4378 39.9611C94.4511 39.98 94.4655 40.0044 94.48 40.0289C94.4978 40.0555 94.5211 40.0922 94.5433 40.1289L94.5622 40.16C94.6044 40.2266 94.6444 40.2955 94.6844 40.3644C94.7133 40.4166 94.74 40.4655 94.7667 40.5155L94.7767 40.5344C94.7911 40.56 94.8055 40.5855 94.8189 40.6122C94.83 40.6355 94.8411 40.6577 94.8522 40.6811L94.8922 40.7644C94.9144 40.81 94.9355 40.8555 94.9567 40.9011C94.9811 40.9544 95.0022 41.0055 95.0244 41.0577L95.0433 41.1011C95.07 41.1666 95.0955 41.23 95.12 41.2955L95.1533 41.3777C95.18 41.4522 95.2033 41.5233 95.2267 41.5944L95.2322 41.6066C95.2344 41.6122 95.2367 41.6166 95.2378 41.6222C95.2733 41.7344 95.3078 41.8566 95.3444 41.9944L95.3633 42.0677C95.3944 42.1933 95.4178 42.2966 95.4367 42.3922C95.4389 42.4033 95.4433 42.4233 95.4455 42.4433C95.4467 42.45 95.45 42.4633 95.4522 42.4777L95.4567 42.4989C95.4855 42.6555 95.5055 42.7855 95.52 42.9077C95.5411 43.0833 95.5555 43.2566 95.5633 43.4244C95.59 43.9555 95.5589 44.5011 95.4722 45.0455L94.7189 49.7689L95.16 51.4655L95.5211 52.86C95.5478 52.9633 95.4978 53.0711 95.4011 53.1166C95.3733 53.13 95.34 53.1377 95.3078 53.1377ZM93.6322 50.2555L94.8022 51.85L94.2789 49.8344C94.2711 49.8044 94.27 49.7733 94.2744 49.7433L95.0344 44.9744C95.1167 44.46 95.1455 43.9455 95.12 43.4455C95.1122 43.2877 95.0978 43.1244 95.0789 42.96C95.0655 42.8477 95.0467 42.7255 95.0211 42.5866C95.02 42.5811 95.0167 42.5666 95.0144 42.5522L95.01 42.5311C95.0089 42.5266 95.0078 42.5211 95.0078 42.5166C95.0055 42.5011 95.0044 42.4933 95.0022 42.4844C94.9833 42.3877 94.9622 42.2922 94.9322 42.1744L94.9144 42.1033C94.8822 41.9789 94.85 41.8677 94.8178 41.7655L94.8133 41.7544C94.8111 41.75 94.81 41.7444 94.8078 41.7389C94.7855 41.67 94.7633 41.6011 94.7389 41.5333L94.7067 41.4555C94.6822 41.3922 94.6589 41.3322 94.6344 41.2722L94.6167 41.23C94.5955 41.1811 94.5755 41.1333 94.5533 41.0844C94.5344 41.0422 94.5133 41 94.4922 40.9566L94.45 40.8689C94.4411 40.85 94.4322 40.83 94.4222 40.81C94.4122 40.7911 94.4022 40.7722 94.3911 40.7533L94.3755 40.7266C94.3478 40.6744 94.3233 40.63 94.2978 40.5844C94.2622 40.5222 94.2244 40.4577 94.1844 40.3944L94.1633 40.3611C94.1433 40.3289 94.1233 40.2955 94.1022 40.2644C94.1 40.2611 94.0978 40.2577 94.0955 40.2544C94.0855 40.2366 94.0767 40.2211 94.0667 40.2066C94.02 40.1355 93.97 40.0644 93.9111 39.9855L93.4389 39.3422C93.4467 39.3711 93.4544 39.4011 93.4622 39.4311L93.48 39.5011C93.5144 39.6411 93.54 39.7633 93.5622 39.8789C93.5667 39.8944 93.5711 39.9211 93.5755 39.9477C93.6011 40.0922 93.6222 40.2233 93.6367 40.3444C93.6578 40.52 93.6722 40.6933 93.68 40.8611C93.7067 41.3922 93.6755 41.9377 93.5889 42.4811L92.8355 47.2055L93.6322 50.2555Z" fill="#F9FAFB"/>
<path d="M79.42 65.08L78.9112 68.2711H75.9223H74.66H38.9956H37.7356H34.7467L35.2556 65.08H79.42Z" fill="#D0D5DD"/>
<path d="M78.9111 68.4933H34.7467C34.6811 68.4933 34.62 68.4644 34.5778 68.4155C34.5356 68.3655 34.5167 68.3011 34.5278 68.2367L35.0367 65.0467C35.0533 64.9389 35.1467 64.8589 35.2567 64.8589H79.4211C79.4867 64.8589 79.5478 64.8878 79.59 64.9367C79.6322 64.9867 79.6511 65.0511 79.64 65.1156L79.1311 68.3056C79.1133 68.4133 79.02 68.4933 78.9111 68.4933ZM35.0067 68.0489H78.7211L79.1589 65.3033H35.4445L35.0067 68.0489Z" fill="#F9FAFB"/>
<path d="M36.4744 84.0789L38.9955 68.27H74.66L72.1389 84.0789C72.0911 84.3811 71.7966 84.6277 71.4822 84.6277H36.9577C36.6422 84.6289 36.4266 84.3822 36.4744 84.0789Z" fill="#F9FAFB"/>
<path d="M71.4822 84.8511H36.9578C36.74 84.8511 36.5389 84.7622 36.4066 84.6067C36.2755 84.4533 36.2222 84.2533 36.2555 84.0445L38.7766 68.2356C38.7933 68.1278 38.8866 68.0478 38.9966 68.0478H74.6611C74.7266 68.0478 74.7877 68.0767 74.83 68.1256C74.8722 68.1756 74.8911 68.24 74.88 68.3045L72.3589 84.1133C72.2922 84.5267 71.9078 84.8511 71.4822 84.8511ZM39.1855 68.4933L36.6944 84.1145C36.6822 84.1933 36.7 84.2656 36.7455 84.3189C36.7944 84.3756 36.87 84.4067 36.9578 84.4067H71.4822C71.6878 84.4067 71.8878 84.2411 71.92 84.0445L74.4 68.4933H39.1855Z" fill="#F9FAFB"/>
<path d="M81.5666 65.08H79.4199H35.2555H30.6821L32.5621 67.6433H37.1343H81.2988H83.4466L81.5666 65.08Z" fill="#D0D5DD"/>
<path d="M83.4466 67.8655H32.5622C32.491 67.8655 32.4244 67.8322 32.3833 67.7744L30.5033 65.2111C30.4533 65.1433 30.4466 65.0544 30.4844 64.9788C30.5222 64.9044 30.5988 64.8566 30.6822 64.8566H81.5666C81.6377 64.8566 81.7044 64.89 81.7455 64.9477L83.6255 67.5111C83.6755 67.5788 83.6821 67.6677 83.6444 67.7433C83.6066 67.8177 83.5299 67.8655 83.4466 67.8655ZM32.6744 67.4211H83.0066L81.4533 65.3022H31.121L32.6744 67.4211Z" fill="#F9FAFB"/>
<path d="M80.79 70.8333H36.6267L34.7467 68.2711H78.9112L80.79 70.8333Z" fill="#D0D5DD"/>
<path d="M80.7901 71.0556H36.6267C36.5556 71.0556 36.489 71.0222 36.4478 70.9645L34.5678 68.4022C34.5178 68.3345 34.5112 68.2456 34.549 68.17C34.5867 68.0956 34.6634 68.0478 34.7467 68.0478H78.9112C78.9823 68.0478 79.049 68.0811 79.0901 68.1389L80.9701 70.7011C81.0201 70.7689 81.0267 70.8578 80.989 70.9333C80.9512 71.0089 80.8745 71.0556 80.7901 71.0556ZM36.7389 70.6111H80.3523L78.799 68.4933H35.1856L36.7389 70.6111Z" fill="#F9FAFB"/>
<path d="M75.9534 47.6711L75.4445 48.55H39.5568L39.6968 47.6711H75.9534Z" fill="#98A2B3"/>
<path d="M75.4445 48.7722H39.5556C39.4901 48.7722 39.429 48.7433 39.3867 48.6944C39.3445 48.6455 39.3256 48.58 39.3367 48.5155L39.4767 47.6355C39.4934 47.5278 39.5867 47.4478 39.6967 47.4478H75.9534C76.0323 47.4478 76.1067 47.49 76.1456 47.5589C76.1856 47.6278 76.1856 47.7122 76.1456 47.7811L75.6367 48.6611C75.5979 48.73 75.5245 48.7722 75.4445 48.7722ZM39.8167 48.3278H75.3167L75.569 47.8922H39.8856L39.8167 48.3278Z" fill="#98A2B3"/>
<path d="M70.4333 58.3666L70.2933 59.2466H46.2422L46.3822 58.3666H70.4333Z" fill="#98A2B3"/>
<path d="M70.2933 59.4689H46.2422C46.1766 59.4689 46.1155 59.44 46.0733 59.3911C46.0311 59.3411 46.0122 59.2766 46.0233 59.2122L46.1633 58.3322C46.1799 58.2244 46.2733 58.1444 46.3833 58.1444H70.4333C70.4988 58.1444 70.5599 58.1733 70.6022 58.2222C70.6444 58.2722 70.6633 58.3366 70.6522 58.4011L70.5122 59.2811C70.4955 59.3889 70.4022 59.4689 70.2933 59.4689ZM46.5022 59.0244H70.1033L70.1722 58.5889H46.5711L46.5022 59.0244Z" fill="#98A2B3"/>
<path d="M79.6789 53.0189L79.5378 53.8989H38.7034L38.8434 53.0189H79.6789Z" fill="#98A2B3"/>
<path d="M79.5378 54.1211H38.7033C38.6378 54.1211 38.5767 54.0922 38.5345 54.0434C38.4922 53.9945 38.4733 53.9289 38.4845 53.8645L38.6245 52.9845C38.6411 52.8767 38.7345 52.7967 38.8445 52.7967H79.6789C79.7445 52.7967 79.8056 52.8256 79.8478 52.8745C79.89 52.9234 79.9089 52.9889 79.8978 53.0534L79.7578 53.9334C79.74 54.0411 79.6478 54.1211 79.5378 54.1211ZM38.9633 53.6767H79.3478L79.4167 53.2411H39.0333L38.9633 53.6767Z" fill="#98A2B3"/>
<path d="M86.6133 33.4355C87.2456 33.4355 87.6789 33.9288 87.5822 34.5399C87.5778 34.5655 87.5722 34.591 87.5656 34.6177C89.3345 34.8599 90.8245 35.6688 91.8656 36.8555C92.7089 37.8155 93.2567 39.0222 93.4211 40.371C93.4411 40.5355 93.4556 40.7033 93.4633 40.8722C93.4889 41.381 93.4611 41.9077 93.3745 42.4466L92.6133 47.2155L93.0656 48.9577L93.4278 50.3522H92.8434H92.1133H83.9145H75.7156H74.4011L75.4445 48.5499L75.9533 47.6699L76.2167 47.2144L76.8389 43.311L76.9767 42.4455C77.2756 40.5744 78.2233 38.8544 79.5667 37.501C80.0122 37.0522 80.5 36.6444 81.0222 36.2833C82.2867 35.4099 83.7511 34.8177 85.2833 34.6155C85.2856 34.5899 85.2878 34.5644 85.2911 34.5388C85.39 33.9288 85.9811 33.4355 86.6133 33.4355Z" fill="#D0D5DD"/>
<path d="M93.4289 50.5755H74.4023C74.3234 50.5755 74.2489 50.5333 74.2101 50.4644C74.1701 50.3955 74.1701 50.3111 74.2101 50.2422L76.0045 47.1411L76.7589 42.4122C77.0567 40.5466 77.9734 38.7944 79.4101 37.3455C79.8645 36.8878 80.3645 36.4689 80.8978 36.1011C82.1745 35.22 83.6201 34.64 85.0901 34.42C85.2423 33.7478 85.9078 33.2133 86.6134 33.2133C86.9901 33.2133 87.3223 33.3589 87.5489 33.6244C87.7389 33.8466 87.8323 34.13 87.8167 34.4311C89.4923 34.7089 90.9834 35.5122 92.0323 36.7089C92.9178 37.7178 93.4745 38.9755 93.6412 40.3444C93.6623 40.5144 93.6767 40.6878 93.6856 40.8611C93.7123 41.3911 93.6812 41.9366 93.5945 42.4822L92.8412 47.2055L93.6445 50.2978C93.6623 50.3644 93.6467 50.4355 93.6056 50.49C93.5645 50.5444 93.4978 50.5755 93.4289 50.5755ZM74.7867 50.1311H93.1412L92.3989 47.2722C92.3912 47.2422 92.3901 47.2111 92.3945 47.1811L93.1556 42.4122C93.2378 41.8978 93.2667 41.3833 93.2423 40.8833C93.2345 40.7211 93.2201 40.5578 93.2012 40.3989C93.0456 39.1189 92.5267 37.9444 91.6989 37.0022C90.6589 35.8166 89.2201 35.0689 87.5356 34.8378C87.4734 34.8289 87.4178 34.7944 87.3823 34.7433C87.3467 34.6922 87.3345 34.6278 87.3489 34.5667C87.3545 34.5433 87.3589 34.5244 87.3623 34.5044C87.3978 34.28 87.3445 34.07 87.2101 33.9122C87.0701 33.7478 86.8578 33.6578 86.6134 33.6578C86.0867 33.6578 85.5923 34.0689 85.5123 34.5744C85.5089 34.5944 85.5078 34.6144 85.5056 34.6344C85.4978 34.7389 85.4167 34.8233 85.3134 34.8378C83.8556 35.03 82.4167 35.5933 81.15 36.4678C80.64 36.82 80.1601 37.2211 79.7256 37.6589C78.3745 39.0211 77.4767 40.7344 77.1978 42.4822L76.4367 47.2511C76.4323 47.2778 76.4234 47.3033 76.4101 47.3278L74.7867 50.1311Z" fill="#F9FAFB"/>
<path d="M93.9133 42.1278C94.3056 42.1278 94.5756 42.4356 94.5156 42.8145C94.4544 43.1945 94.0878 43.5011 93.6944 43.5011C93.3011 43.5011 93.0311 43.1934 93.0911 42.8145C93.1522 42.4356 93.52 42.1278 93.9133 42.1278Z" fill="#F0F2F5"/>
<path d="M95.1845 34.1922C95.6212 34.1922 95.9234 34.5611 95.8212 34.9866L94.3323 41.4344C94.2956 41.5922 94.1412 41.7111 93.9812 41.7111C93.9745 41.7111 93.9667 41.7111 93.9601 41.71C93.8067 41.7 93.7045 41.58 93.7178 41.4344L94.2856 34.9866C94.3212 34.5778 94.6978 34.2222 95.1278 34.1944C95.1456 34.1933 95.1645 34.1922 95.1845 34.1922Z" fill="#F0F2F5"/>
<path d="M95.4633 32.4066C99.1511 32.4066 101.679 35.2899 101.112 38.8466C100.544 42.4044 97.0966 45.2866 93.4088 45.2866C89.7199 45.2866 87.1911 42.4044 87.7588 38.8466C88.3266 35.2899 91.7755 32.4066 95.4633 32.4066Z" fill="#98A2B3"/>
<path d="M93.4101 45.5811C91.509 45.5811 89.8423 44.8555 88.7179 43.5377C87.629 42.2611 87.1856 40.5788 87.469 38.8C88.0567 35.1122 91.6434 32.1122 95.4645 32.1122C97.3645 32.1122 99.0312 32.8377 100.156 34.1555C101.245 35.4322 101.689 37.1144 101.405 38.8933C100.816 42.5811 97.2301 45.5811 93.4101 45.5811ZM95.4634 32.7011C91.9201 32.7011 88.5945 35.4788 88.0501 38.8922C87.7945 40.4977 88.1901 42.0111 89.1656 43.1544C90.1767 44.3388 91.6834 44.9911 93.409 44.9911C96.9512 44.9911 100.277 42.2133 100.821 38.8C101.077 37.1944 100.681 35.6811 99.7056 34.5377C98.6956 33.3544 97.189 32.7011 95.4634 32.7011Z" fill="#F9FAFB"/>
<path d="M95.8201 34.9866C95.9223 34.5611 95.6201 34.1922 95.1834 34.1922C95.1645 34.1922 95.1445 34.1933 95.1245 34.1944C94.6945 34.2222 94.3179 34.5778 94.2823 34.9866L93.7145 41.4344C93.7012 41.5811 93.8034 41.7 93.9568 41.71C93.9634 41.71 93.9712 41.7111 93.9779 41.7111C94.139 41.7111 94.2934 41.5922 94.329 41.4344L95.8201 34.9866Z" fill="#F9FAFB"/>
<path d="M93.979 42.0055C93.9645 42.0055 93.9501 42.0055 93.9368 42.0044C93.7845 41.9944 93.6468 41.9267 93.5501 41.8144C93.4545 41.7033 93.409 41.5589 93.4223 41.4089L93.9901 34.9611C94.0379 34.4044 94.529 33.9378 95.1068 33.9011C95.1312 33.8989 95.1579 33.8978 95.1845 33.8978C95.4868 33.8978 95.7623 34.0278 95.9412 34.2533C96.1156 34.4755 96.1768 34.7678 96.1079 35.0544L94.619 41.5011C94.5523 41.7889 94.2779 42.0055 93.979 42.0055ZM95.1845 34.4867C95.1723 34.4867 95.1601 34.4867 95.1479 34.4878C94.8612 34.5067 94.6012 34.7455 94.5779 35.0111L94.0157 41.4022C94.0301 41.3922 94.0423 41.3789 94.0445 41.3667L95.5334 34.9189C95.5334 34.9178 95.5334 34.9167 95.5345 34.9167C95.5612 34.8044 95.5412 34.6978 95.4779 34.6167C95.4112 34.5333 95.3068 34.4867 95.1845 34.4867Z" fill="#F9FAFB"/>
<path d="M93.6945 43.5022C94.0867 43.5022 94.4545 43.1944 94.5156 42.8155C94.5767 42.4355 94.3067 42.1288 93.9133 42.1288C93.52 42.1288 93.1522 42.4366 93.0911 42.8155C93.0311 43.1955 93.3 43.5022 93.6945 43.5022Z" fill="#F9FAFB"/>
<path d="M93.6944 43.7966C93.4166 43.7966 93.1611 43.6833 92.9933 43.4866C92.8266 43.2911 92.7577 43.0355 92.8 42.7689C92.8833 42.2444 93.3722 41.8333 93.9133 41.8333C94.19 41.8333 94.4455 41.9466 94.6133 42.1433C94.78 42.3389 94.8489 42.5944 94.8066 42.8611C94.7222 43.3866 94.2344 43.7966 93.6944 43.7966ZM93.9133 42.4233C93.6633 42.4233 93.42 42.6244 93.3822 42.8622C93.3666 42.9578 93.3877 43.0411 93.4411 43.1044C93.4977 43.1711 93.5877 43.2078 93.6933 43.2078C93.9422 43.2078 94.1855 43.0066 94.2233 42.7689C94.2389 42.6733 94.2177 42.59 94.1644 42.5266C94.1077 42.46 94.0189 42.4233 93.9133 42.4233Z" fill="#F9FAFB"/>
<path d="M93.4288 50.3533H92.8443H92.1132H83.9154H75.7165H74.4021L76.281 52.9156H77.5965H85.7954H93.9932H94.7243H95.3088L93.4288 50.3533Z" fill="#D0D5DD"/>
<path d="M95.3088 53.1378H76.281C76.2099 53.1378 76.1432 53.1044 76.1021 53.0467L74.2221 50.4844C74.1721 50.4167 74.1655 50.3278 74.2032 50.2522C74.241 50.1778 74.3177 50.13 74.401 50.13H93.4277C93.4988 50.13 93.5655 50.1633 93.6066 50.2211L95.4866 52.7844C95.5366 52.8522 95.5432 52.9411 95.5055 53.0167C95.4688 53.0911 95.3921 53.1378 95.3088 53.1378ZM76.3944 52.6933H94.8699L93.3166 50.5744H74.8399L76.3944 52.6933Z" fill="#F9FAFB"/>
<path d="M87.7056 54.2645C87.7134 54.2489 87.7212 54.2334 87.7289 54.2178C87.7345 54.2067 87.74 54.1956 87.7456 54.1834C87.7678 54.1345 87.7878 54.0856 87.8067 54.0356C87.8089 54.0289 87.8112 54.0223 87.8134 54.0156C87.8334 53.9589 87.8523 53.9023 87.8678 53.8445C87.8723 53.8278 87.8767 53.8112 87.8812 53.7945C87.8978 53.73 87.9123 53.6645 87.9223 53.5978L86.0423 51.0345C86.0312 51.1012 86.0167 51.1656 86.0012 51.2312C85.9967 51.2478 85.9923 51.2645 85.9878 51.2812C85.9723 51.3389 85.9534 51.3967 85.9334 51.4523C85.9312 51.4589 85.9289 51.4656 85.9267 51.4723C85.9034 51.5345 85.8767 51.5945 85.8489 51.6545C85.8412 51.67 85.8334 51.6856 85.8256 51.7012C85.8011 51.7512 85.7745 51.8 85.7467 51.8478C85.74 51.8589 85.7345 51.87 85.7278 51.8812C85.7134 51.9045 85.6978 51.9267 85.6834 51.9489C85.6534 51.9945 85.6234 52.04 85.5912 52.0834C85.57 52.1123 85.5467 52.14 85.5245 52.1678C85.4989 52.1989 85.4745 52.23 85.4478 52.2612C85.4223 52.2912 85.3945 52.3189 85.3678 52.3467C85.3434 52.3723 85.32 52.3978 85.2945 52.4223C85.2645 52.4512 85.2345 52.4778 85.2034 52.5056C85.1789 52.5278 85.1545 52.55 85.1289 52.5712C85.0978 52.5967 85.0645 52.6212 85.0323 52.6456C85.0045 52.6667 84.9778 52.6878 84.9489 52.7078C84.9189 52.7289 84.8889 52.7467 84.8578 52.7667C84.8234 52.7889 84.7889 52.8123 84.7534 52.8323C84.7278 52.8478 84.7 52.86 84.6745 52.8745C84.6289 52.8989 84.5823 52.9234 84.5356 52.9456C84.4789 52.9723 84.4212 52.9978 84.3623 53.02C84.3623 53.02 84.3612 53.02 84.3612 53.0212C84.3 53.0445 84.2367 53.0645 84.1734 53.0845C84.1489 53.0923 84.1245 53.0978 84.0989 53.1045C84.0545 53.1167 84.01 53.1267 83.9645 53.1367C83.9389 53.1423 83.9134 53.1478 83.8878 53.1523C83.84 53.1612 83.7923 53.1678 83.7445 53.1734C83.7223 53.1756 83.6989 53.1789 83.6767 53.1812C83.6056 53.1878 83.5345 53.1912 83.4634 53.1912C83.3489 53.1912 83.24 53.18 83.1334 53.1645L81.5712 51.0345C81.5612 51.0989 81.5545 51.1623 81.55 51.2256C81.5489 51.2467 81.5489 51.2667 81.5478 51.2878C81.5467 51.33 81.5445 51.3712 81.5456 51.4123C81.5467 51.4367 81.5489 51.46 81.55 51.4845C81.5523 51.5212 81.5545 51.5578 81.5589 51.5934C81.5623 51.6178 81.5656 51.6423 81.57 51.6667C81.5734 51.6889 81.5756 51.7123 81.58 51.7345C81.5823 51.7478 81.5867 51.76 81.5889 51.7734C81.5923 51.7912 81.5967 51.8078 81.6011 51.8245C81.6111 51.8645 81.6223 51.9034 81.6345 51.9412C81.6389 51.9556 81.6434 51.97 81.6478 51.9834C81.65 51.9889 81.6511 51.9956 81.6534 52.0012C81.6578 52.0145 81.6656 52.0267 81.67 52.04C81.6878 52.0867 81.7078 52.1323 81.7289 52.1767C81.7334 52.1856 81.7367 52.1956 81.7411 52.2056C81.7478 52.2189 81.7567 52.23 81.7634 52.2434C81.7811 52.2767 81.8 52.3089 81.8212 52.3412C81.8289 52.3534 81.8345 52.3667 81.8434 52.3778C81.8578 52.3989 81.8723 52.42 81.8878 52.4412L83.7678 55.0045C83.7678 55.0045 83.7678 55.0034 83.7667 55.0034L83.7678 55.0045C84.1045 55.4634 84.6656 55.7545 85.3434 55.7545C85.4145 55.7545 85.4856 55.75 85.5567 55.7445C85.5789 55.7423 85.6023 55.7389 85.6245 55.7367C85.6723 55.7312 85.7211 55.7245 85.7678 55.7156C85.7934 55.7112 85.8189 55.7056 85.8445 55.7C85.89 55.69 85.9345 55.68 85.9789 55.6678C86.0034 55.6612 86.0278 55.6545 86.0534 55.6478C86.0667 55.6445 86.0789 55.6412 86.0923 55.6367C86.1423 55.6212 86.1923 55.6034 86.2411 55.5845H86.2423C86.2911 55.5656 86.3389 55.5456 86.3856 55.5245C86.3956 55.52 86.4056 55.5145 86.4156 55.5089C86.4634 55.4867 86.5089 55.4623 86.5545 55.4378C86.5745 55.4267 86.5956 55.4178 86.6156 55.4067C86.6211 55.4034 86.6278 55.3989 86.6334 55.3956C86.6689 55.3745 86.7034 55.3523 86.7378 55.33C86.7634 55.3145 86.7889 55.3 86.8134 55.2823C86.8189 55.2789 86.8234 55.2745 86.8289 55.2712C86.8578 55.2512 86.8845 55.23 86.9123 55.2089C86.9389 55.1889 86.9656 55.17 86.9911 55.15C86.9967 55.1456 87.0023 55.14 87.0078 55.1356C87.0334 55.1145 87.0578 55.0923 87.0823 55.07C87.1067 55.0489 87.1312 55.0289 87.1545 55.0067C87.1612 55 87.1667 54.9934 87.1734 54.9878C87.1989 54.9634 87.2223 54.9378 87.2467 54.9123C87.2667 54.8912 87.2889 54.87 87.3089 54.8489C87.3156 54.8423 87.3212 54.8334 87.3278 54.8267C87.3545 54.7967 87.3789 54.7656 87.4045 54.7334C87.4223 54.7123 87.44 54.6912 87.4567 54.67C87.4611 54.6634 87.4656 54.6567 87.47 54.65C87.5023 54.6067 87.5323 54.5612 87.5623 54.5156C87.5745 54.4978 87.5878 54.48 87.5989 54.4612C87.6012 54.4567 87.6045 54.4523 87.6067 54.4478C87.6134 54.4367 87.6189 54.4256 87.6256 54.4145C87.6545 54.3623 87.6811 54.3134 87.7056 54.2645Z" fill="#D0D5DD"/>
<path d="M85.3422 55.9755C84.6211 55.9755 83.9833 55.6711 83.5911 55.1389C83.59 55.1378 83.5889 55.1355 83.5878 55.1344L81.7078 52.5711C81.6911 52.5478 81.6744 52.5244 81.6578 52.5C81.65 52.4889 81.6433 52.4766 81.6366 52.4644C81.61 52.4222 81.5889 52.3855 81.5689 52.3489C81.5578 52.33 81.55 52.3189 81.5444 52.3055C81.5389 52.2955 81.5344 52.2844 81.53 52.2722C81.5066 52.2233 81.4844 52.1722 81.4644 52.12C81.4555 52.1022 81.45 52.0889 81.4455 52.0755C81.4444 52.0722 81.44 52.0589 81.4389 52.0555C81.4355 52.0444 81.4311 52.0333 81.4278 52.0222L81.4233 52.0089C81.41 51.9655 81.3966 51.9222 81.3855 51.8778C81.3811 51.8589 81.3766 51.8389 81.3722 51.82C81.3666 51.7989 81.3644 51.7878 81.3622 51.7766C81.3589 51.7589 81.3566 51.74 81.3533 51.7222L81.3478 51.6866C81.3444 51.6644 81.34 51.6411 81.3378 51.6178C81.3333 51.5778 81.33 51.5366 81.3278 51.4955L81.3266 51.4755C81.3255 51.4555 81.3244 51.4355 81.3233 51.4155C81.3222 51.37 81.3233 51.3233 81.3255 51.2778V51.2578C81.3255 51.2411 81.3266 51.2255 81.3278 51.2089C81.3333 51.1355 81.3411 51.0655 81.3511 50.9978C81.3655 50.9089 81.4311 50.8378 81.5189 50.8166C81.6055 50.7955 81.6978 50.8289 81.75 50.9011L83.2555 52.9544C83.3978 52.9711 83.5067 52.9711 83.6555 52.9578C83.6678 52.9566 83.6789 52.9555 83.6911 52.9533L83.7166 52.95C83.7611 52.9444 83.8044 52.9389 83.8478 52.9311C83.8711 52.9266 83.8944 52.9222 83.9178 52.9178C83.9589 52.9089 84 52.8989 84.0411 52.8889L84.0522 52.8855C84.0711 52.88 84.09 52.8755 84.1089 52.87C84.1766 52.85 84.23 52.8322 84.2778 52.8133C84.2789 52.8122 84.2811 52.8122 84.2822 52.8111C84.3355 52.79 84.3889 52.7666 84.4411 52.7422C84.4844 52.7222 84.5266 52.7 84.5689 52.6766L84.5978 52.6611C84.6122 52.6533 84.6266 52.6455 84.6411 52.6378C84.6666 52.6233 84.6922 52.6066 84.7166 52.59L84.7644 52.56C84.7833 52.5478 84.8022 52.5366 84.8211 52.5233C84.8389 52.5111 84.8566 52.4978 84.8733 52.4844L84.9178 52.4511C84.9411 52.4333 84.9644 52.4155 84.9866 52.3978C85.0022 52.3844 85.0178 52.3711 85.0333 52.3566L85.0644 52.3289C85.09 52.3066 85.1144 52.2844 85.1389 52.2611C85.1566 52.2444 85.1722 52.2266 85.1889 52.21L85.2055 52.1922C85.2355 52.1611 85.2578 52.1378 85.28 52.1133C85.3011 52.09 85.32 52.0655 85.34 52.0411L85.3655 52.01C85.3811 51.9911 85.3966 51.9711 85.4122 51.9511C85.4422 51.9111 85.4689 51.8689 85.4966 51.8278L85.5167 51.7966C85.5233 51.7866 85.5311 51.7766 85.5366 51.7655L85.5533 51.7355C85.5789 51.6911 85.6033 51.6466 85.6255 51.6011L85.6466 51.5578C85.6755 51.4978 85.6978 51.4433 85.7166 51.3922C85.7178 51.39 85.7222 51.3766 85.7233 51.3733C85.7422 51.3222 85.7578 51.27 85.7722 51.2178C85.7766 51.2022 85.78 51.1878 85.7844 51.1722C85.8022 51.1044 85.8133 51.0478 85.8222 50.9955C85.8367 50.9066 85.9022 50.8355 85.99 50.8144C86.0766 50.7933 86.1678 50.8266 86.2211 50.8989L88.1011 53.4622C88.1366 53.51 88.1511 53.57 88.1411 53.6289C88.13 53.6955 88.1155 53.7633 88.0955 53.8444C88.0911 53.8622 88.0855 53.8811 88.0811 53.9C88.0622 53.9666 88.0433 54.0278 88.0211 54.0878L88.0133 54.11C87.9922 54.1644 87.9711 54.2189 87.9466 54.2722C87.9422 54.2822 87.9378 54.2911 87.9333 54.3L87.9278 54.31C87.9222 54.3233 87.9144 54.3366 87.9078 54.3511L87.7044 54.2611L87.9033 54.36C87.8766 54.4144 87.8478 54.4678 87.8178 54.52L87.8122 54.53C87.8078 54.5389 87.8022 54.5478 87.7966 54.5566L87.7889 54.5711C87.78 54.5855 87.77 54.6 87.76 54.6133L87.7489 54.63C87.7166 54.68 87.6844 54.7289 87.6489 54.7766C87.6444 54.7833 87.64 54.7911 87.6333 54.7989C87.6211 54.8144 87.6078 54.83 87.5955 54.8455L87.5678 54.8789C87.5444 54.9089 87.52 54.9389 87.4944 54.9667C87.4866 54.9755 87.4811 54.9833 87.4744 54.9911C87.46 55.0078 87.4444 55.0233 87.4289 55.0389L87.3922 55.0766C87.3711 55.0989 87.35 55.1211 87.3278 55.1422C87.32 55.1511 87.3133 55.1566 87.3066 55.1633C87.2889 55.18 87.2711 55.1955 87.2533 55.2111L87.2089 55.25C87.1889 55.2678 87.1689 55.2855 87.1489 55.3022C87.1422 55.3078 87.1366 55.3133 87.1311 55.3178C87.1122 55.3333 87.0922 55.3478 87.0722 55.3622L87.0233 55.3989C87.0011 55.4155 86.9789 55.4333 86.9555 55.4489C86.9511 55.4522 86.9455 55.4566 86.9389 55.4611C86.9211 55.4733 86.9022 55.4855 86.8833 55.4966L86.8367 55.5255C86.8067 55.5455 86.7755 55.5644 86.7444 55.5833C86.7389 55.5866 86.7322 55.5911 86.7244 55.5955C86.71 55.6044 86.6933 55.6122 86.6778 55.62L86.6589 55.63C86.6089 55.6567 86.56 55.6822 86.5089 55.7066C86.4966 55.7133 86.4866 55.7189 86.4766 55.7233C86.4266 55.7455 86.3755 55.7678 86.3244 55.7866C86.3233 55.7866 86.3222 55.7878 86.32 55.7878C86.2666 55.8078 86.2133 55.8266 86.1589 55.8444C86.1478 55.8478 86.1378 55.8511 86.1266 55.8533C86.0922 55.8633 86.0689 55.87 86.0444 55.8755C85.9878 55.8911 85.9389 55.9022 85.89 55.9122C85.8622 55.9178 85.8344 55.9233 85.8066 55.9289C85.7544 55.9378 85.7022 55.9455 85.65 55.9511L85.6278 55.9533C85.61 55.9555 85.5933 55.9578 85.5755 55.9589C85.4911 55.9711 85.4155 55.9755 85.3422 55.9755ZM83.9489 54.8744C84.2611 55.2933 84.7667 55.5311 85.3433 55.5311C85.4022 55.5311 85.4655 55.5278 85.5366 55.5211C85.5478 55.52 85.56 55.5189 85.5722 55.5166L85.5989 55.5133C85.6422 55.5078 85.6866 55.5022 85.73 55.4944C85.7533 55.49 85.7766 55.4855 85.8 55.4811C85.8411 55.4722 85.8822 55.4622 85.9222 55.4522C85.9511 55.4444 85.97 55.4389 85.99 55.4333L86.0155 55.4266C86.0711 55.41 86.1155 55.3944 86.16 55.3767C86.1644 55.3744 86.1689 55.3733 86.1722 55.3722C86.2078 55.3589 86.2511 55.34 86.2944 55.3211C86.3044 55.3155 86.3122 55.3111 86.3211 55.3078C86.3644 55.2878 86.4066 55.2655 86.4489 55.2422C86.46 55.2355 86.4722 55.23 86.4833 55.2244C86.49 55.2211 86.4978 55.2178 86.5044 55.2133C86.5089 55.21 86.5155 55.2066 86.5222 55.2022C86.5466 55.1878 86.5711 55.1722 86.5955 55.1566L86.6522 55.1211C86.6644 55.1144 86.6755 55.1067 86.6866 55.0989L86.7011 55.0889C86.7189 55.0766 86.7367 55.0633 86.7533 55.05L86.8111 55.0066C86.8244 54.9966 86.8389 54.9866 86.8511 54.9766C86.8544 54.9744 86.8644 54.9655 86.8666 54.9622C86.8822 54.95 86.8966 54.9355 86.9122 54.9222L86.9644 54.8767C86.9766 54.8655 86.99 54.8555 87.0011 54.8444C87.0078 54.8378 87.0122 54.8322 87.0178 54.8266C87.0355 54.81 87.0522 54.7922 87.0689 54.7744L87.1133 54.7289C87.1233 54.7189 87.1333 54.7089 87.1433 54.6989C87.1489 54.6911 87.1544 54.6844 87.16 54.6789C87.1811 54.6544 87.2011 54.63 87.22 54.6055L87.23 54.5933C87.2378 54.5833 87.2466 54.5733 87.2555 54.5622C87.2633 54.5533 87.2711 54.5444 87.2778 54.5344C87.2811 54.53 87.2855 54.5233 87.29 54.5166C87.32 54.4755 87.3478 54.4344 87.3744 54.3922C87.3811 54.3811 87.3889 54.3711 87.3955 54.3611C87.4 54.3555 87.4044 54.3489 87.4078 54.3433L87.4322 54.3011C87.4578 54.2566 87.4822 54.2122 87.5044 54.1678C87.5055 54.1666 87.5089 54.1578 87.5089 54.1578L87.5411 54.0933C87.5611 54.05 87.5789 54.0055 87.5955 53.96L87.6022 53.94C87.62 53.89 87.6366 53.8389 87.6511 53.7866C87.6555 53.7711 87.6589 53.7567 87.6633 53.7411C87.6711 53.7089 87.6789 53.68 87.6844 53.6522L86.1366 51.5411L86.1333 51.5522C86.11 51.6133 86.0822 51.6789 86.0489 51.7511L86.0278 51.7944C85.9966 51.8555 85.9689 51.9089 85.9378 51.9622L85.9178 51.9978C85.9066 52.0155 85.8955 52.0322 85.8844 52.0489L85.87 52.0711C85.8378 52.1211 85.8055 52.17 85.77 52.2178C85.7511 52.2433 85.7322 52.2678 85.7122 52.2911L85.6878 52.3211C85.6644 52.3511 85.64 52.38 85.6144 52.4089C85.5889 52.4378 85.5611 52.4666 85.5344 52.4944L85.5111 52.5189C85.49 52.5411 85.47 52.5622 85.4478 52.5833C85.4189 52.6111 85.3889 52.6378 85.3589 52.6644L85.33 52.69C85.31 52.7078 85.29 52.7255 85.2689 52.7433C85.2411 52.7666 85.2122 52.7878 85.1833 52.8089L85.1422 52.84C85.12 52.8566 85.0978 52.8744 85.0744 52.89C85.05 52.9066 85.0255 52.9222 85.0011 52.9378L84.9578 52.9655C84.9266 52.9855 84.8955 53.0055 84.8644 53.0233C84.8444 53.0355 84.8233 53.0455 84.8033 53.0566L84.7789 53.07C84.73 53.0966 84.68 53.1222 84.6289 53.1466C84.5678 53.1755 84.5066 53.2022 84.4444 53.2266C84.44 53.2289 84.4355 53.23 84.4311 53.2322C84.3811 53.2511 84.3166 53.2733 84.2366 53.2967C84.2133 53.3033 84.1911 53.31 84.1678 53.3155L84.1566 53.3189C84.1078 53.3322 84.0589 53.3433 84.01 53.3533C83.9822 53.3589 83.9544 53.3644 83.9267 53.37C83.8744 53.3789 83.8222 53.3866 83.77 53.3922L83.7489 53.3944C83.7311 53.3966 83.7133 53.3989 83.6955 53.4011C83.48 53.42 83.3211 53.4155 83.1 53.3833C83.0411 53.3744 82.9889 53.3433 82.9533 53.2944L81.8078 51.7322C81.8111 51.7444 81.8133 51.7578 81.8166 51.77C81.8255 51.8044 81.8355 51.8389 81.8455 51.8722L81.8578 51.91C81.8589 51.9133 81.8622 51.9244 81.8633 51.9278C81.8689 51.9389 81.8733 51.9489 81.8778 51.96C81.8933 52 81.91 52.04 81.93 52.0789C81.9344 52.0878 81.9389 52.0978 81.9422 52.1066C81.95 52.1178 81.9544 52.1266 81.96 52.1366C81.9755 52.1655 81.9922 52.1944 82.01 52.2222C82.0155 52.2311 82.0211 52.2411 82.0266 52.25C82.0411 52.2733 82.0544 52.2911 82.0678 52.31L83.9444 54.8689C83.9455 54.87 83.9466 54.8722 83.9489 54.8744Z" fill="#F9FAFB"/>
<path d="M86.0434 51.0333C85.8534 52.2233 84.6989 53.1889 83.4634 53.19C82.2289 53.19 81.3812 52.2233 81.5712 51.0333H83.8067H86.0434Z" fill="#D0D5DD"/>
<path d="M83.4633 53.4122C82.79 53.4122 82.1989 53.1533 81.7978 52.6844C81.4089 52.2289 81.25 51.63 81.3511 50.9989C81.3678 50.8911 81.4611 50.8111 81.5711 50.8111H86.0434C86.1089 50.8111 86.17 50.84 86.2122 50.8889C86.2545 50.9389 86.2733 51.0033 86.2622 51.0678C86.0567 52.36 84.8 53.4122 83.4633 53.4122ZM81.77 51.2555C81.7445 51.6855 81.8711 52.0855 82.1367 52.3955C82.4511 52.7644 82.9222 52.9678 83.4633 52.9678C84.5011 52.9678 85.48 52.22 85.7656 51.2555H81.77Z" fill="#F9FAFB"/>
</svg>
