<svg width="120" height="120" viewBox="0 0 120 120" fill="none" xmlns="http://www.w3.org/2000/svg">
<path d="M96.6744 53.1845C97.9489 53.1845 98.9821 52.1512 98.9821 50.8767C98.9821 49.6021 97.9489 48.5689 96.6744 48.5689C95.3998 48.5689 94.3666 49.6021 94.3666 50.8767C94.3666 52.1512 95.3998 53.1845 96.6744 53.1845Z" fill="#F9FAFB"/>
<path d="M60 101.632C82.6553 101.632 101.021 94.4275 101.021 85.54C101.021 76.6525 82.6553 69.4478 60 69.4478C37.3447 69.4478 18.9789 76.6525 18.9789 85.54C18.9789 94.4275 37.3447 101.632 60 101.632Z" fill="#F9FAFB"/>
<path d="M58.6834 27.5911L56.979 38.2756H45.9034L58.6834 27.5911Z" fill="#D0D5DD"/>
<path d="M56.979 38.5256H45.9034C45.7979 38.5256 45.7045 38.46 45.6679 38.3611C45.6323 38.2622 45.6623 38.1511 45.7423 38.0844L58.5223 27.3989C58.6023 27.3322 58.7156 27.3222 58.8056 27.3733C58.8968 27.4244 58.9456 27.5267 58.929 27.63L57.2245 38.3156C57.2068 38.4367 57.1023 38.5256 56.979 38.5256ZM46.5923 38.0256H56.7656L58.3312 28.2111L46.5923 38.0256Z" fill="#F9FAFB"/>
<path d="M59.7045 47.6767C59.6278 47.6767 59.5511 47.6411 59.5022 47.5744L58.8278 46.6544C58.7522 46.5511 58.7667 46.4067 58.8622 46.32C58.9578 46.2344 59.1033 46.2344 59.1978 46.3222C59.2022 46.3267 59.2078 46.3311 59.2122 46.3367C59.2167 46.3411 59.2211 46.3467 59.2245 46.3511C59.2356 46.3644 59.2478 46.3822 59.26 46.3989L59.9056 47.2789C59.9867 47.39 59.9633 47.5467 59.8522 47.6278C59.8078 47.6611 59.7567 47.6767 59.7045 47.6767Z" fill="#F9FAFB"/>
<mask id="mask0_6802_25353" style="mask-type:luminance" maskUnits="userSpaceOnUse" x="58" y="46" width="2" height="2">
<path d="M59.7045 47.6767C59.6278 47.6767 59.5511 47.6411 59.5022 47.5744L58.8278 46.6544C58.7522 46.5511 58.7667 46.4067 58.8622 46.32C58.9578 46.2344 59.1033 46.2344 59.1978 46.3222C59.2022 46.3267 59.2078 46.3311 59.2122 46.3367C59.2167 46.3411 59.2211 46.3467 59.2245 46.3511C59.2356 46.3644 59.2478 46.3822 59.26 46.3989L59.9056 47.2789C59.9867 47.39 59.9633 47.5467 59.8522 47.6278C59.8078 47.6611 59.7567 47.6767 59.7045 47.6767Z" fill="white"/>
</mask>
<g mask="url(#mask0_6802_25353)">
<path d="M59.5634 47.1722L62.3656 50.9922C62.1989 50.7645 62.0211 50.5434 61.8323 50.3278C59.76 47.9667 56.7389 46.7856 53.53 46.7856C52.1378 46.7856 50.7111 47.0078 49.31 47.4522L46.5078 43.6322C47.9089 43.1878 49.3356 42.9656 50.7278 42.9656C53.9367 42.9656 56.9578 44.1467 59.03 46.5078C59.2189 46.7234 59.3967 46.9445 59.5634 47.1722Z" fill="#667185"/>
<path d="M62.3655 51.2422C62.2889 51.2422 62.2122 51.2067 62.1633 51.14C62.0011 50.9178 61.8255 50.7 61.6433 50.4922C59.6866 48.2634 56.8055 47.0356 53.5289 47.0356C52.1478 47.0356 50.7544 47.2556 49.3844 47.69C49.2822 47.7222 49.1711 47.6856 49.1066 47.6L46.3044 43.78C46.2566 43.7156 46.2433 43.6311 46.2689 43.5545C46.2933 43.4778 46.3544 43.4178 46.4311 43.3934C47.85 42.9434 49.2944 42.7156 50.7266 42.7156C54.1489 42.7156 57.1644 44.0034 59.2166 46.3422C59.4089 46.5611 59.5922 46.7911 59.7644 47.0245L62.5644 50.8422C62.5655 50.8434 62.5655 50.8445 62.5666 50.8445C62.6477 50.9556 62.6244 51.1122 62.5133 51.1945C62.4689 51.2267 62.4177 51.2422 62.3655 51.2422ZM53.53 46.5356C56.0955 46.5356 58.4322 47.26 60.3066 48.6078L59.3622 47.32C59.2 47.0978 59.0244 46.88 58.8422 46.6722C56.8855 44.4434 54.0044 43.2156 50.7277 43.2156C49.4589 43.2156 48.1789 43.4011 46.9178 43.7689L49.4055 47.1611C50.7689 46.7456 52.1555 46.5356 53.53 46.5356Z" fill="#F9FAFB"/>
</g>
<path d="M44.8834 64.8189C44.8145 64.8189 44.7467 64.7912 44.6967 64.7356L44.6578 64.6911C44.5289 64.5434 44.4056 64.39 44.2912 64.2345L41.4889 60.4145C41.4078 60.3034 41.4312 60.1467 41.5423 60.0656C41.6534 59.9845 41.8101 60.0078 41.8923 60.1189L41.8945 60.1223C42.0001 60.2656 42.1134 60.4067 42.2323 60.5423L42.2678 60.5823C42.2734 60.5889 42.2789 60.5945 42.2834 60.6012L45.0856 64.4211C45.1645 64.5289 45.1456 64.6789 45.0412 64.7634C44.9945 64.8012 44.9378 64.8189 44.8834 64.8189Z" fill="#F9FAFB"/>
<mask id="mask1_6802_25353" style="mask-type:luminance" maskUnits="userSpaceOnUse" x="41" y="60" width="5" height="5">
<path d="M44.8834 64.8189C44.8145 64.8189 44.7467 64.7912 44.6967 64.7356L44.6578 64.6911C44.5289 64.5434 44.4056 64.39 44.2912 64.2345L41.4889 60.4145C41.4078 60.3034 41.4312 60.1467 41.5423 60.0656C41.6534 59.9845 41.8101 60.0078 41.8923 60.1189L41.8945 60.1223C42.0001 60.2656 42.1134 60.4067 42.2323 60.5423L42.2678 60.5823C42.2734 60.5889 42.2789 60.5945 42.2834 60.6012L45.0856 64.4211C45.1645 64.5289 45.1456 64.6789 45.0412 64.7634C44.9945 64.8012 44.9378 64.8189 44.8834 64.8189Z" fill="white"/>
</mask>
<g mask="url(#mask1_6802_25353)">
<g opacity="0.6">
<path d="M42.2845 60.9667L45.0867 64.7867C45.0045 64.7023 44.9234 64.6156 44.8456 64.5267C44.7201 64.3845 44.6023 64.2367 44.4923 64.0867L41.6901 60.2667C41.8001 60.4167 41.9178 60.5645 42.0434 60.7067C42.1212 60.7956 42.2023 60.8823 42.2845 60.9667Z" fill="#667185"/>
<path d="M45.0864 65.0367C45.0208 65.0367 44.9564 65.0112 44.9075 64.9612C44.8208 64.8734 44.7364 64.7823 44.6564 64.6911C44.5275 64.5445 44.4041 64.3911 44.2897 64.2345L41.4875 60.4145C41.4064 60.3034 41.4297 60.1467 41.5408 60.0656C41.6519 59.9845 41.8086 60.0078 41.8908 60.1189L41.893 60.1223C41.9986 60.2656 42.1119 60.4067 42.2308 60.5423C42.3053 60.6267 42.383 60.7112 42.463 60.7923C42.4719 60.8012 42.4786 60.81 42.4864 60.8189L45.2886 64.6389C45.3664 64.7445 45.3486 64.8923 45.2486 64.9778C45.2019 65.0178 45.1441 65.0367 45.0864 65.0367Z" fill="#F9FAFB"/>
</g>
</g>
<path d="M45.0867 65.0367C45.0211 65.0367 44.9567 65.0111 44.9078 64.9611C44.8356 64.8878 44.7645 64.8122 44.6956 64.7345C44.6934 64.7311 44.69 64.7289 44.6878 64.7256C44.6589 64.69 44.6256 64.6433 44.5945 64.6L44.56 64.5522L41.8778 60.8956C41.7989 60.7878 41.8178 60.6378 41.9222 60.5533C42.0256 60.4689 42.1767 60.4811 42.2656 60.5811C42.33 60.6522 42.3956 60.7222 42.4622 60.7911C42.47 60.8 42.4778 60.8089 42.4856 60.8178L45.2878 64.6378C45.3656 64.7433 45.3478 64.8911 45.2478 64.9767C45.2011 65.0178 45.1445 65.0367 45.0867 65.0367Z" fill="#F9FAFB"/>
<mask id="mask2_6802_25353" style="mask-type:luminance" maskUnits="userSpaceOnUse" x="41" y="60" width="5" height="6">
<path d="M45.0867 65.0367C45.0211 65.0367 44.9567 65.0111 44.9078 64.9611C44.8356 64.8878 44.7645 64.8122 44.6956 64.7345C44.6934 64.7311 44.69 64.7289 44.6878 64.7256C44.6589 64.69 44.6256 64.6433 44.5945 64.6L44.56 64.5522L41.8778 60.8956C41.7989 60.7878 41.8178 60.6378 41.9222 60.5533C42.0256 60.4689 42.1767 60.4811 42.2656 60.5811C42.33 60.6522 42.3956 60.7222 42.4622 60.7911C42.47 60.8 42.4778 60.8089 42.4856 60.8178L45.2878 64.6378C45.3656 64.7433 45.3478 64.8911 45.2478 64.9767C45.2011 65.0178 45.1445 65.0367 45.0867 65.0367Z" fill="white"/>
</mask>
<g mask="url(#mask2_6802_25353)">
<g opacity="0.6">
<path d="M42.2845 60.9667L45.0867 64.7867C45.0045 64.7023 44.9234 64.6156 44.8456 64.5267C44.7201 64.3845 44.6023 64.2367 44.4923 64.0867L41.6901 60.2667C41.8001 60.4167 41.9178 60.5645 42.0434 60.7067C42.1212 60.7956 42.2023 60.8823 42.2845 60.9667Z" fill="#667185"/>
<path d="M45.0867 65.0367C45.0212 65.0367 44.9567 65.0112 44.9078 64.9612C44.8212 64.8734 44.7367 64.7823 44.6567 64.6911C44.5278 64.5445 44.4045 64.3911 44.2901 64.2345L41.4878 60.4145C41.4067 60.3034 41.4301 60.1467 41.5412 60.0656C41.6523 59.9845 41.809 60.0078 41.8912 60.1189L41.8934 60.1223C41.999 60.2656 42.1123 60.4067 42.2312 60.5423C42.3056 60.6267 42.3834 60.7112 42.4634 60.7923C42.4723 60.8012 42.479 60.81 42.4867 60.8189L45.289 64.6389C45.3667 64.7445 45.349 64.8923 45.249 64.9778C45.2023 65.0178 45.1445 65.0367 45.0867 65.0367Z" fill="#F9FAFB"/>
</g>
</g>
<path d="M56.8245 56.2733C56.7578 56.4844 56.6811 56.6967 56.5967 56.9055C56.4156 57.3544 56.1956 57.7955 55.9367 58.2233C55.8122 58.4289 55.68 58.6322 55.5367 58.8322C55.0522 59.5155 54.4633 60.1578 53.7745 60.7322C51.9 62.3 49.6467 63.0822 47.5178 63.0822C45.39 63.0822 43.3867 62.2989 42.0133 60.7322C39.2633 57.5989 40.0733 52.5211 43.8211 49.39C45.6956 47.8222 47.9489 47.04 50.0778 47.04C52.2056 47.04 54.2089 47.8233 55.5822 49.39C55.6222 49.4355 55.66 49.48 55.6956 49.5255C55.8745 49.7411 56.0389 49.9666 56.1856 50.1966C56.4511 50.6144 56.6611 51.0533 56.8233 51.5133C56.9067 51.7466 56.9756 51.9855 57.03 52.2278C57.3311 53.5233 57.2545 54.9189 56.8245 56.2733Z" fill="#E4E7EC"/>
<path d="M57.0311 52.2278H49.7022C48.9289 52.2278 48.3966 51.6244 48.5166 50.8778C48.6355 50.1311 49.3589 49.5278 50.1333 49.5278H55.6978C55.8767 49.7433 56.0411 49.9689 56.1878 50.1989C56.4533 50.6167 56.6633 51.0555 56.8255 51.5155C56.9078 51.7467 56.9767 51.9855 57.0311 52.2278Z" fill="#98A2B3"/>
<path d="M56.8244 56.2733C56.7577 56.4844 56.681 56.6967 56.5966 56.9056C56.4155 57.3544 56.1955 57.7955 55.9366 58.2233C55.8122 58.4289 55.6799 58.6322 55.5366 58.8322H48.5722C47.8377 58.8322 47.3377 58.2589 47.4499 57.5522C47.5633 56.8455 48.2477 56.2722 48.9799 56.2722H56.8244V56.2733Z" fill="#98A2B3"/>
<path d="M58.9055 27.4056H89.8221L89.3499 30.3678L81.2255 81.3078H42.1121H39.041L41.4977 65.9011C43.1155 66.7389 44.9621 67.1578 46.8743 67.1578C49.4443 67.1578 52.1344 66.4011 54.5555 64.8867H76.2332C76.6099 64.8867 76.9599 64.5934 77.0188 64.23C77.0766 63.8689 76.8188 63.5756 76.4432 63.5756H56.3521C58.1877 62.0289 59.5488 60.1711 60.4066 58.2089H77.2988C77.6755 58.2089 78.0255 57.9156 78.0832 57.5545C78.141 57.1922 77.8832 56.8978 77.5077 56.8978H60.9021C61.4721 55.11 61.6299 53.2734 61.3588 51.5311H78.3632C78.7399 51.5311 79.0899 51.2378 79.1477 50.8767C79.2055 50.5145 78.9477 50.22 78.5721 50.22H61.0666C60.671 48.8722 59.9966 47.61 59.031 46.5067C56.9588 44.1456 53.9377 42.9645 50.7288 42.9645C48.8177 42.9645 46.841 43.3834 44.9566 44.22L45.9044 38.2745H56.9799L58.6843 27.5911L58.9055 27.4056ZM75.1688 71.5634C75.5455 71.5634 75.8955 71.27 75.9544 70.9067C76.0121 70.5456 75.7543 70.2523 75.3788 70.2523H49.0066C48.6321 70.2523 48.281 70.5456 48.2232 70.9067C48.1655 71.2689 48.4232 71.5634 48.7977 71.5634H75.1688ZM79.4288 44.8545C79.8055 44.8545 80.1555 44.5611 80.2132 44.2C80.271 43.8378 80.0132 43.5434 79.6377 43.5434H61.761C61.3855 43.5434 61.0355 43.8367 60.9777 44.2C60.9199 44.5611 61.1755 44.8545 61.5521 44.8545H79.4288Z" fill="#F7F9FC"/>
<path d="M81.2255 81.5567H39.041C38.9677 81.5567 38.8988 81.5244 38.851 81.4689C38.8033 81.4133 38.7833 81.34 38.7944 81.2678L41.2522 65.8611C41.2644 65.7822 41.3144 65.7133 41.3866 65.6778C41.4577 65.6411 41.5433 65.6422 41.6144 65.6789C43.1677 66.4833 44.9866 66.9078 46.8755 66.9078C49.4788 66.9078 52.0888 66.1356 54.4233 64.6745C54.4633 64.65 54.5088 64.6367 54.5555 64.6367H76.2333C76.4866 64.6367 76.7333 64.4322 76.771 64.1911C76.7866 64.0933 76.7644 64.0022 76.7077 63.9356C76.6477 63.8644 76.5533 63.8256 76.4422 63.8256H56.3522C56.2466 63.8256 56.1533 63.76 56.1177 63.6611C56.0822 63.5622 56.111 63.4522 56.191 63.3845C57.931 61.9178 59.3099 60.0933 60.1777 58.1089C60.2177 58.0178 60.3077 57.9589 60.4066 57.9589H77.2988C77.5522 57.9589 77.7988 57.7556 77.8366 57.5144C77.8522 57.4156 77.8299 57.3244 77.7733 57.2578C77.7133 57.1867 77.6188 57.1478 77.5077 57.1478H60.9022C60.8222 57.1478 60.7477 57.11 60.6999 57.0456C60.6533 56.9811 60.6399 56.8978 60.6633 56.8222C61.2199 55.0767 61.3744 53.26 61.111 51.57C61.0999 51.4978 61.121 51.4244 61.1677 51.3689C61.2144 51.3133 61.2844 51.2811 61.3577 51.2811H78.3622C78.6155 51.2811 78.8622 51.0778 78.8999 50.8367C78.9155 50.7378 78.8933 50.6467 78.8366 50.58C78.7766 50.5089 78.6822 50.47 78.571 50.47H61.0666C60.9555 50.47 60.8577 50.3967 60.8266 50.29C60.431 48.94 59.7633 47.7222 58.8422 46.6711C56.8855 44.4422 54.0044 43.2144 50.7277 43.2144C48.8344 43.2144 46.8733 43.6411 45.0566 44.4489C44.9733 44.4856 44.8755 44.4744 44.8022 44.4189C44.7288 44.3633 44.6933 44.2722 44.7077 44.1811L45.6555 38.2356C45.6744 38.1144 45.7799 38.0244 45.9022 38.0244H56.7644L58.4344 27.5511C58.4433 27.4922 58.4744 27.4378 58.5199 27.3989L58.7422 27.2111C58.7877 27.1733 58.8444 27.1522 58.9033 27.1522H89.8222C89.8955 27.1522 89.9644 27.1844 90.0122 27.24C90.0599 27.2956 90.0799 27.3689 90.0688 27.4411L81.4722 81.3433C81.4533 81.4678 81.3488 81.5567 81.2255 81.5567ZM39.3333 81.0567H81.0122L89.5288 27.6544H58.9966L58.9155 27.7233L57.2266 38.3156C57.2077 38.4367 57.1022 38.5267 56.9799 38.5267H46.1177L45.2744 43.8144C47.0355 43.0944 48.911 42.7156 50.7288 42.7156C54.151 42.7156 57.1666 44.0033 59.2188 46.3422C60.1466 47.4022 60.8299 48.6211 61.2522 49.97H78.5733C78.8288 49.97 79.0644 50.0744 79.2188 50.2556C79.3722 50.4356 79.4355 50.67 79.3955 50.9156C79.3177 51.4011 78.8644 51.7811 78.3633 51.7811H61.6466C61.8488 53.3578 61.7088 55.0278 61.2388 56.6478H77.5077C77.7633 56.6478 77.9988 56.7522 78.1533 56.9333C78.3066 57.1133 78.3699 57.3478 78.3299 57.5933C78.2522 58.0789 77.7988 58.4589 77.2977 58.4589H60.5688C59.7544 60.2611 58.5344 61.9289 57.0144 63.3256H76.4422C76.6977 63.3256 76.9333 63.43 77.0877 63.6111C77.241 63.7911 77.3033 64.0244 77.2644 64.27C77.1866 64.7556 76.7333 65.1367 76.2322 65.1367H54.6266C52.2277 66.6233 49.5488 67.4078 46.8744 67.4078C45.0288 67.4078 43.2455 67.0178 41.691 66.2756L39.3333 81.0567ZM75.1688 71.8133H48.7977C48.5433 71.8133 48.3077 71.71 48.1533 71.5278C47.9999 71.3478 47.9366 71.1133 47.9766 70.8667C48.0544 70.3811 48.5066 70.0011 49.0066 70.0011H75.3777C75.6333 70.0011 75.8688 70.1056 76.0233 70.2867C76.1766 70.4667 76.2388 70.7 76.1999 70.9456C76.1233 71.4322 75.6699 71.8133 75.1688 71.8133ZM49.0066 70.5022C48.7544 70.5022 48.5088 70.7056 48.4699 70.9467C48.4544 71.0456 48.4766 71.1378 48.5333 71.2045C48.5933 71.2756 48.6877 71.3145 48.7966 71.3145H75.1677C75.421 71.3145 75.6677 71.11 75.7055 70.8689C75.721 70.7711 75.6988 70.68 75.6422 70.6133C75.5822 70.5422 75.4877 70.5033 75.3766 70.5033H49.0066V70.5022ZM79.4288 45.1044H61.5522C61.2966 45.1044 61.0622 45.0011 60.9077 44.82C60.7544 44.64 60.6922 44.4067 60.731 44.1611C60.8088 43.6744 61.261 43.2944 61.761 43.2944H79.6377C79.8933 43.2944 80.1288 43.3989 80.2833 43.58C80.4366 43.76 80.4999 43.9944 80.4599 44.24C80.3833 44.7244 79.9299 45.1044 79.4288 45.1044ZM61.761 43.7933C61.5088 43.7933 61.2633 43.9978 61.2244 44.2389C61.2088 44.3378 61.231 44.4289 61.2877 44.4944C61.3477 44.5644 61.441 44.6033 61.5522 44.6033H79.4288C79.6822 44.6033 79.9288 44.4 79.9666 44.1589C79.9822 44.06 79.9599 43.9689 79.9033 43.9022C79.8433 43.8311 79.7488 43.7922 79.6377 43.7922H61.761V43.7933Z" fill="#F9FAFB"/>
<g opacity="0.5">
<g opacity="0.6">
<path d="M44.1677 49.1578L43.9022 50.8256C43.861 50.8567 43.8199 50.8878 43.7799 50.9222C42.8766 51.6756 42.6822 52.9 43.3444 53.6544C43.3733 53.6878 43.4044 53.72 43.4366 53.75L42.2855 60.9656C42.2033 60.8811 42.1222 60.7944 42.0444 60.7055C40.6777 59.1467 40.1955 57.1033 40.5222 55.0611C40.8477 53.0178 41.981 50.9756 43.8455 49.4178C43.9499 49.3289 44.0588 49.2422 44.1677 49.1578Z" fill="#D0D5DD"/>
</g>
</g>
<path d="M77.5077 56.8978C77.8844 56.8978 78.1411 57.1912 78.0833 57.5545C78.0255 57.9156 77.6744 58.2089 77.2988 58.2089H60.4066C60.5966 57.7767 60.7622 57.3389 60.9011 56.8978H77.5077Z" fill="#D0D5DD"/>
<path d="M77.2988 58.4589H60.4066C60.3222 58.4589 60.2433 58.4167 60.1977 58.3456C60.1522 58.2745 60.1444 58.1856 60.1777 58.1089C60.3655 57.68 60.5288 57.2478 60.6633 56.8234C60.6955 56.7189 60.7922 56.6489 60.9022 56.6489H77.5077C77.7633 56.6489 77.9988 56.7534 78.1533 56.9345C78.3066 57.1145 78.3699 57.3489 78.3299 57.5945C78.2533 58.0789 77.8 58.4589 77.2988 58.4589ZM60.7844 57.9589H77.2988C77.5522 57.9589 77.7988 57.7556 77.8366 57.5145C77.8522 57.4156 77.83 57.3245 77.7733 57.2578C77.7133 57.1867 77.6188 57.1478 77.5077 57.1478H61.0833C60.9944 57.4167 60.8944 57.6878 60.7844 57.9589Z" fill="#D0D5DD"/>
<path d="M76.4432 63.5744C76.8199 63.5744 77.0765 63.8677 77.0188 64.2288C76.961 64.5911 76.6099 64.8855 76.2332 64.8855H54.5543C55.1554 64.51 55.7399 64.0866 56.301 63.6177C56.3177 63.6033 56.3354 63.5888 56.3521 63.5755H76.4432V63.5744Z" fill="#D0D5DD"/>
<path d="M76.2333 65.1355H54.5544C54.4433 65.1355 54.3444 65.0622 54.3144 64.9544C54.2833 64.8477 54.3277 64.7322 54.4222 64.6733C55.0189 64.2999 55.5966 63.8799 56.1411 63.4255L56.1877 63.3866C56.2333 63.3488 56.2933 63.3255 56.3522 63.3255H76.4433C76.6989 63.3255 76.9344 63.4299 77.0889 63.6111C77.2422 63.7911 77.3044 64.0244 77.2655 64.2699C77.1877 64.7544 76.7355 65.1355 76.2333 65.1355ZM55.3833 64.6355H76.2333C76.4866 64.6355 76.7333 64.4311 76.7711 64.1899C76.7866 64.0922 76.7644 64.0011 76.7077 63.9344C76.6477 63.8633 76.5533 63.8244 76.4422 63.8244H56.4422C56.1022 64.1088 55.7477 64.3799 55.3833 64.6355Z" fill="#D0D5DD"/>
<path d="M92.3456 30.8456L91.95 33.33L91.8734 33.8089L83.8256 84.2678H41.2134L39.0411 81.3067H81.2256L89.35 30.3689L89.8234 27.4056L92.3456 30.8456Z" fill="#E4E7EC"/>
<path d="M83.8255 84.5177H41.2144C41.1344 84.5177 41.06 84.48 41.0133 84.4155L38.84 81.4544C38.7844 81.3789 38.7755 81.2777 38.8189 81.1933C38.8611 81.1089 38.9478 81.0566 39.0422 81.0566H81.0133L89.1044 30.3289L89.5778 27.3655C89.5933 27.2655 89.6678 27.1855 89.7656 27.1622C89.8644 27.1389 89.9667 27.1755 90.0255 27.2577L92.5478 30.6977C92.5878 30.7511 92.6033 30.8189 92.5933 30.8844L92.1211 33.8477L84.0722 84.3078C84.0522 84.4289 83.9478 84.5177 83.8255 84.5177ZM41.34 84.0177H83.6111L91.6267 33.7689L92.0822 30.9089L89.9756 28.0355L89.5967 30.4077L81.4722 81.3455C81.4533 81.4666 81.3478 81.5566 81.2256 81.5566H39.5344L41.34 84.0177Z" fill="#F9FAFB"/>
<path d="M86.4245 87.2311L89.2267 91.0511H47.04L44.2378 87.2311H86.4245Z" fill="#D0D5DD"/>
<path d="M89.2266 91.3011H47.04C46.96 91.3011 46.8855 91.2633 46.8389 91.1989L44.0366 87.3789C43.9811 87.3033 43.9722 87.2022 44.0155 87.1177C44.0578 87.0333 44.1444 86.9811 44.2389 86.9811H86.4255C86.5055 86.9811 86.58 87.0189 86.6267 87.0833L89.4289 90.9033C89.4844 90.9789 89.4933 91.08 89.45 91.1644C89.4066 91.2477 89.3211 91.3011 89.2266 91.3011ZM47.1666 90.8011H88.7333L86.2978 87.4811H44.7311L47.1666 90.8011Z" fill="#F9FAFB"/>
<path d="M95.0211 33.33L86.4245 87.2311H44.2378L44.71 84.2678H83.8256L91.9489 33.33H95.0211Z" fill="#F7F9FC"/>
<path d="M86.4245 87.4811H44.2378C44.1645 87.4811 44.0956 87.4489 44.0478 87.3934C44 87.3378 43.98 87.2645 43.9912 87.1922L44.4634 84.23C44.4823 84.1089 44.5878 84.0189 44.71 84.0189H83.6123L91.7023 33.2911C91.7212 33.17 91.8267 33.08 91.9489 33.08H95.0212C95.0945 33.08 95.1634 33.1122 95.2112 33.1678C95.2589 33.2234 95.2789 33.2967 95.2678 33.3689L86.6712 87.27C86.6523 87.3911 86.5478 87.4811 86.4245 87.4811ZM44.5312 86.9811H86.2112L94.7278 33.58H92.1623L84.0723 84.3078C84.0534 84.4289 83.9478 84.5189 83.8256 84.5189H44.9234L44.5312 86.9811Z" fill="#F9FAFB"/>
<path d="M95.0211 33.33L97.8233 37.15L89.2267 91.0511L86.4244 87.2311L95.0211 33.33Z" fill="#E4E7EC"/>
<path d="M89.2266 91.3011C89.1477 91.3011 89.0733 91.2644 89.0255 91.1988L86.2233 87.3788C86.1833 87.3255 86.1677 87.2577 86.1777 87.1911L94.7744 33.29C94.79 33.19 94.8644 33.11 94.9622 33.0866C95.0611 33.0633 95.1633 33.1 95.2222 33.1822L98.0244 37.0022C98.0644 37.0555 98.08 37.1233 98.07 37.19L89.4733 91.0911C89.4578 91.1911 89.3833 91.2711 89.2855 91.2944C89.2655 91.2988 89.2455 91.3011 89.2266 91.3011ZM86.6878 87.1666L89.0733 90.42L97.5589 37.2133L95.1733 33.96L86.6878 87.1666Z" fill="#F9FAFB"/>
<path d="M39.9901 64.9444L25.4323 77.1144C25.3979 77.1433 25.3623 77.1688 25.3268 77.1955C25.3101 77.2077 25.2945 77.22 25.2779 77.2322C25.249 77.2522 25.219 77.2699 25.1901 77.2888C25.169 77.3022 25.1479 77.3166 25.1268 77.3288C25.1112 77.3377 25.0945 77.3455 25.079 77.3544C25.0401 77.3755 25.0001 77.3966 24.9601 77.4144C24.9456 77.4211 24.9312 77.4266 24.9168 77.4322C24.8634 77.4555 24.8101 77.4755 24.7568 77.4933C24.7323 77.5022 24.7068 77.5099 24.6812 77.5177C24.6612 77.5233 24.6401 77.53 24.6201 77.5344C24.5879 77.5422 24.5556 77.55 24.5234 77.5566C24.5034 77.5611 24.4834 77.5644 24.4645 77.5677C24.429 77.5733 24.3945 77.5777 24.359 77.5822C24.3423 77.5844 24.3256 77.5866 24.309 77.5877C24.2579 77.5922 24.2056 77.5944 24.1545 77.5944C23.719 77.5944 23.3101 77.4344 23.029 77.1144L22.5101 76.5233C22.4845 76.4944 22.4612 76.4644 22.4379 76.4333L25.2401 80.2533C25.2623 80.2844 25.2868 80.3144 25.3123 80.3433L25.8312 80.9344C26.1123 81.2544 26.5212 81.4144 26.9568 81.4144C27.0079 81.4144 27.059 81.4122 27.1112 81.4077C27.1279 81.4066 27.1445 81.4033 27.1612 81.4022C27.1968 81.3977 27.2312 81.3933 27.2668 81.3877C27.2868 81.3844 27.3068 81.38 27.3256 81.3766C27.3579 81.37 27.3901 81.3633 27.4223 81.3544C27.4434 81.3488 27.4634 81.3433 27.4834 81.3377C27.4979 81.3333 27.5134 81.3299 27.5279 81.3255C27.5379 81.3222 27.5479 81.3177 27.559 81.3133C27.6134 81.2955 27.6668 81.2744 27.719 81.2522C27.729 81.2477 27.7401 81.2444 27.7512 81.2399C27.7556 81.2377 27.759 81.2355 27.7634 81.2344C27.8034 81.2155 27.8423 81.1955 27.8823 81.1744C27.8968 81.1666 27.9112 81.1611 27.9256 81.1522C27.9279 81.1511 27.929 81.15 27.9301 81.1488C27.9512 81.1366 27.9723 81.1222 27.9934 81.1088C28.0201 81.0922 28.0479 81.0766 28.0745 81.0577C28.0768 81.0566 28.079 81.0544 28.0812 81.0522C28.0979 81.0411 28.1134 81.0277 28.1301 81.0155C28.1568 80.9955 28.1845 80.9766 28.2101 80.9555C28.219 80.9488 28.2268 80.9422 28.2356 80.9344L42.7934 68.7644L39.9901 64.9444Z" fill="#667185"/>
<path d="M26.9556 81.6644C26.429 81.6644 25.9623 81.4633 25.6423 81.0988L25.1234 80.5077C25.0934 80.4733 25.0645 80.4377 25.0379 80.4011L22.2368 76.5833C22.2368 76.5822 22.2356 76.5822 22.2356 76.5811C22.1545 76.47 22.1779 76.3133 22.289 76.2322C22.4001 76.1511 22.5568 76.1744 22.6379 76.2855L22.639 76.2877C22.6568 76.3122 22.6756 76.3355 22.6956 76.3588L23.2145 76.95C23.4379 77.2044 23.7712 77.3444 24.1523 77.3444C24.1968 77.3444 24.2401 77.3422 24.2845 77.3377L24.329 77.3322C24.359 77.3288 24.389 77.3255 24.4201 77.32C24.4323 77.3177 24.4456 77.3155 24.4579 77.3122L24.4723 77.3089C24.5001 77.3033 24.529 77.2966 24.5568 77.29C24.5745 77.2855 24.5934 77.28 24.6112 77.2755C24.6334 77.2688 24.6545 77.2622 24.6768 77.2544C24.7234 77.2388 24.7701 77.2211 24.8168 77.2011L24.8545 77.1855C24.8901 77.1688 24.9245 77.1511 24.959 77.1322L25.0012 77.11C25.0101 77.1044 25.0201 77.0988 25.029 77.0922L25.0756 77.0622C25.0956 77.05 25.1145 77.0377 25.1345 77.0244C25.1412 77.02 25.1479 77.0144 25.1545 77.0088L25.1868 76.9844C25.2145 76.9633 25.2434 76.9433 25.2701 76.92L39.8279 64.75C39.8812 64.7055 39.949 64.6855 40.0179 64.6933C40.0868 64.7011 40.1479 64.7377 40.189 64.7933L42.9912 68.6133C43.069 68.72 43.0512 68.8689 42.9501 68.9533L28.3656 81.15C28.3423 81.1688 28.319 81.1866 28.2945 81.2033L28.2623 81.2266C28.249 81.2366 28.2356 81.2466 28.2223 81.2566C28.1923 81.2777 28.169 81.2922 28.1456 81.3066L28.1045 81.3322C28.089 81.3422 28.0734 81.3522 28.0579 81.3611C28.0534 81.3644 28.049 81.3666 28.0445 81.3688C28.0345 81.3744 28.0212 81.3811 28.009 81.3866L27.999 81.3911C27.9545 81.4144 27.9112 81.4377 27.8656 81.4588C27.8668 81.4588 27.859 81.4622 27.8523 81.4655C27.8412 81.47 27.829 81.4755 27.8168 81.48C27.7568 81.5055 27.6968 81.5288 27.6368 81.5488C27.6268 81.5533 27.6134 81.5577 27.6012 81.5622C27.5901 81.5655 27.5768 81.5688 27.5645 81.5722L27.5523 81.5755C27.529 81.5822 27.5056 81.5888 27.4823 81.5944C27.4456 81.6033 27.4101 81.6122 27.3734 81.6188L27.3612 81.6211C27.3423 81.6244 27.3245 81.6288 27.3056 81.6322C27.2656 81.6388 27.2256 81.6444 27.1868 81.6488L27.1723 81.6511C27.1579 81.6533 27.1445 81.6544 27.1301 81.6555C27.0679 81.6622 27.0112 81.6644 26.9556 81.6644ZM23.7534 77.8044L25.4423 80.1066C25.4601 80.1311 25.4801 80.1555 25.5001 80.1788L26.019 80.77C26.2679 81.0544 26.659 81.1955 27.089 81.1588L27.1323 81.1533C27.1623 81.15 27.1934 81.1466 27.2234 81.1411C27.2356 81.1388 27.249 81.1366 27.2612 81.1333L27.2745 81.1311C27.3034 81.1255 27.3312 81.1188 27.359 81.1122C27.3768 81.1077 27.3945 81.1022 27.4134 81.0977L27.4512 81.0877C27.4579 81.0844 27.469 81.08 27.479 81.0766C27.5256 81.0611 27.5734 81.0433 27.6201 81.0222C27.629 81.0177 27.639 81.0144 27.649 81.0111L27.6568 81.0077C27.6934 80.9911 27.7279 80.9722 27.7634 80.9533C27.7723 80.9477 27.7823 80.9433 27.7912 80.9388L27.799 80.9344C27.8012 80.9322 27.8045 80.9311 27.8068 80.93C27.8145 80.9255 27.8245 80.9188 27.8345 80.9133L27.8868 80.8811C27.9023 80.8722 27.9179 80.8622 27.9323 80.8522C27.9456 80.8422 27.9523 80.8377 27.959 80.8322L28.0012 80.8C28.0179 80.7877 28.0345 80.7755 28.0512 80.7622L28.0734 80.7444L42.4523 68.7244L39.9468 65.3077L25.5923 77.3066C25.5568 77.3355 25.5212 77.3633 25.4845 77.39L25.4601 77.4088C25.4468 77.4188 25.4345 77.4288 25.4212 77.4377C25.3945 77.4555 25.3679 77.4722 25.3412 77.4889L25.3023 77.5133C25.2856 77.5244 25.269 77.5344 25.2523 77.5444C25.239 77.5522 25.2256 77.5589 25.2123 77.5655L25.1979 77.5733C25.1545 77.5966 25.1101 77.62 25.0656 77.6411C25.0534 77.6466 25.0412 77.6522 25.0279 77.6566L25.0156 77.6622C24.9568 77.6877 24.8968 77.7111 24.8356 77.7311C24.8079 77.7411 24.779 77.75 24.7512 77.7577C24.7279 77.7644 24.7045 77.7711 24.6812 77.7766C24.6456 77.7855 24.609 77.7944 24.5723 77.8011L24.5601 77.8033C24.5423 77.8066 24.5234 77.8111 24.5056 77.8133C24.4656 77.82 24.4268 77.8255 24.3868 77.83L24.3712 77.8322C24.3579 77.8344 24.3434 77.8355 24.329 77.8366C24.2668 77.8422 24.209 77.8444 24.1534 77.8444C24.0156 77.8444 23.8812 77.8311 23.7534 77.8044Z" fill="#F9FAFB"/>
<path d="M61.3589 51.5311C61.29 51.0878 61.1922 50.6489 61.0655 50.22C60.6711 48.8711 59.9955 47.61 59.03 46.5067C56.9577 44.1456 53.9366 42.9656 50.7277 42.9656C48.8155 42.9656 46.8389 43.3834 44.9555 44.2222C43.6733 44.7922 42.4355 45.5545 41.2911 46.5111C36.2366 50.7356 34.7289 57.3134 37.4389 62.0356L22.8789 74.2078C22.1144 74.8456 21.95 75.8823 22.51 76.5234L23.0289 77.1145C23.3089 77.4345 23.72 77.5956 24.1533 77.5956C24.5889 77.5956 25.05 77.4345 25.4311 77.1145L39.99 64.9456C40.4655 65.3067 40.97 65.6267 41.4977 65.9C43.1155 66.7367 44.9622 67.1567 46.8744 67.1567C49.4455 67.1567 52.1355 66.4011 54.5544 64.8856C55.1566 64.51 55.74 64.0867 56.3533 63.5745C58.1877 62.0267 59.55 60.17 60.4077 58.2067C60.5955 57.7767 60.7622 57.3367 60.9011 56.8956C61.4711 55.1111 61.63 53.2722 61.3589 51.5311ZM53.7744 60.7334C51.9 62.3011 49.6466 63.0834 47.5177 63.0834C45.39 63.0834 43.3866 62.3 42.0133 60.7334C39.2633 57.6 40.0733 52.5222 43.8211 49.3911C45.6955 47.8234 47.9489 47.0411 50.0777 47.0411C52.2055 47.0411 54.2089 47.8245 55.5822 49.3911C55.6222 49.4367 55.66 49.4811 55.6955 49.5267C55.8744 49.7422 56.0389 49.9678 56.1855 50.1978C56.4511 50.6156 56.6611 51.0545 56.8233 51.5145C56.9066 51.7478 56.9755 51.9867 57.03 52.2289C57.33 53.5256 57.2544 54.9211 56.8233 56.2745C56.7566 56.4856 56.68 56.6978 56.5955 56.9067C56.4144 57.3556 56.1944 57.7967 55.9355 58.2245C55.8111 58.43 55.6789 58.6334 55.5355 58.8334C55.0533 59.5167 54.4633 60.1589 53.7744 60.7334Z" fill="#98A2B3"/>
<path d="M24.1534 77.8456C23.6267 77.8456 23.16 77.6445 22.8411 77.2789L22.3222 76.6878C22.0356 76.3589 21.8978 75.9267 21.9334 75.4711C21.9767 74.9267 22.2622 74.3956 22.7189 74.0156L37.12 61.9767C35.8522 59.6545 35.5289 56.8411 36.2111 54.0278C36.9167 51.12 38.6645 48.3822 41.1322 46.3189C42.27 45.3678 43.5234 44.5856 44.8556 43.9934C46.7334 43.1578 48.7645 42.7156 50.73 42.7156C54.1522 42.7156 57.1678 44.0034 59.22 46.3422C60.1911 47.4511 60.8934 48.7322 61.3078 50.15C61.4356 50.5845 61.5367 51.0356 61.6078 51.4922C61.8833 53.2578 61.7211 55.1534 61.1411 56.9722C61.0022 57.4134 60.8334 57.8622 60.6389 58.3067C59.7411 60.3611 58.3145 62.2478 56.5156 63.7656C55.9067 64.2745 55.3089 64.71 54.6878 65.0967C52.2767 66.6067 49.5756 67.4056 46.8756 67.4056C44.9078 67.4056 43.0089 66.9611 41.3845 66.1211C40.9067 65.8745 40.4422 65.5856 40 65.2634L25.5911 77.3067C25.1767 77.6534 24.6667 77.8456 24.1534 77.8456ZM50.7289 43.2156C48.8334 43.2156 46.8722 43.6422 45.0578 44.45C43.7678 45.0234 42.5545 45.7811 41.4522 46.7022C36.5478 50.8011 34.9511 57.1978 37.6567 61.91C37.7167 62.0156 37.6934 62.1489 37.6 62.2267L23.0389 74.3989C22.6856 74.6945 22.4634 75.0989 22.4311 75.51C22.4056 75.8311 22.5 76.1322 22.6978 76.3578L23.2167 76.9489C23.44 77.2045 23.7722 77.3445 24.1534 77.3445C24.5489 77.3445 24.9467 77.1945 25.2711 76.9222L39.83 64.7534C39.92 64.6789 40.0489 64.6756 40.1422 64.7467C40.6078 65.1011 41.1022 65.4145 41.6134 65.6778C43.1667 66.4811 44.9867 66.9067 46.8756 66.9067C49.4811 66.9067 52.0911 66.1345 54.4222 64.6745C55.0234 64.2989 55.6034 63.8767 56.1934 63.3834C57.9334 61.9167 59.3111 60.0922 60.1789 58.1078C60.3667 57.6789 60.5289 57.2467 60.6633 56.8222C61.22 55.0756 61.3756 53.26 61.1122 51.57C61.0445 51.1356 60.9489 50.7056 60.8267 50.2922C60.4334 48.9445 59.7656 47.7267 58.8422 46.6722C56.8867 44.4434 54.0045 43.2156 50.7289 43.2156ZM47.5178 63.3334C45.2234 63.3334 43.2011 62.4689 41.8245 60.8978C40.5956 59.4978 40.0034 57.6445 40.1556 55.6778C40.3422 53.2656 41.62 50.9034 43.66 49.1989C45.5178 47.6456 47.7967 46.79 50.0778 46.79C52.3722 46.79 54.3945 47.6545 55.7711 49.2256C55.8134 49.2734 55.8534 49.3211 55.8922 49.37C56.0722 49.5867 56.2434 49.8211 56.3978 50.0622C56.6656 50.4822 56.8889 50.9422 57.0611 51.4289C57.1467 51.6689 57.2189 51.9189 57.2756 52.1722C57.5833 53.5 57.51 54.9445 57.0634 56.3489C56.9934 56.5689 56.9145 56.7878 56.8289 57C56.6434 57.4611 56.4156 57.9156 56.1511 58.3534C56.0167 58.5745 55.8834 58.7789 55.7411 58.9789C55.2345 59.6934 54.6267 60.3478 53.9356 60.9256C52.0778 62.4778 49.7989 63.3334 47.5178 63.3334ZM50.0778 47.29C47.9145 47.29 45.7489 48.1045 43.9811 49.5822C42.0434 51.2011 40.83 53.4378 40.6545 55.7167C40.5122 57.5478 41.0622 59.27 42.2011 60.5678C43.4811 62.0289 45.37 62.8334 47.5178 62.8334C49.6811 62.8334 51.8467 62.0189 53.6145 60.5411C54.2734 59.9911 54.8511 59.3678 55.3334 58.6889C55.4678 58.4989 55.5956 58.3056 55.7234 58.0945C55.9734 57.68 56.1889 57.2489 56.3656 56.8122C56.4467 56.6122 56.5211 56.4056 56.5867 56.1978C57.0056 54.8789 57.0756 53.5256 56.7878 52.2834C56.7356 52.0489 56.6689 51.8178 56.59 51.5967C56.43 51.1445 56.2234 50.7189 55.9767 50.3311C55.8345 50.1078 55.6756 49.89 55.5056 49.6856C55.4689 49.64 55.4334 49.5978 55.3967 49.5556C54.1145 48.0945 52.2256 47.29 50.0778 47.29Z" fill="#F9FAFB"/>
<path d="M47.8222 53.4045C47.7999 53.3411 47.7722 53.2811 47.7344 53.2245C47.711 53.1856 47.6833 53.1489 47.6522 53.1133C47.4644 52.9 47.1911 52.7922 46.8999 52.7922C46.8766 52.7922 46.8533 52.7933 46.8288 52.7945C46.5588 52.81 46.2799 52.9167 46.0444 53.1133C45.7466 53.3622 45.5844 53.7011 45.5755 54.0256C45.5688 54.2589 45.6411 54.4845 45.7977 54.6633C45.9855 54.8767 46.2588 54.9845 46.5499 54.9845C46.8411 54.9845 47.1488 54.8778 47.4044 54.6633C47.5255 54.5611 47.6255 54.4456 47.7011 54.32C47.7366 54.2622 47.7655 54.2022 47.7911 54.14C47.8911 53.8956 47.9033 53.6345 47.8222 53.4045Z" fill="#F7F9FC"/>
<path d="M46.9122 51.4344C46.8734 51.3233 46.8211 51.2177 46.7578 51.1177C46.7145 51.05 46.6678 50.9855 46.6134 50.9233C46.2822 50.5455 45.7989 50.3566 45.2867 50.3566C44.8189 50.3566 44.3278 50.5133 43.9022 50.8266C43.8611 50.8577 43.82 50.8889 43.78 50.9222C42.8767 51.6755 42.6822 52.9 43.3445 53.6544C43.3745 53.6877 43.4045 53.72 43.4367 53.75C43.7611 54.0633 44.2034 54.2189 44.6711 54.2189C44.9711 54.2189 45.2822 54.1544 45.5789 54.0255C45.7889 53.9344 45.9911 53.81 46.1789 53.6544C46.3922 53.4744 46.5678 53.27 46.7 53.05C46.75 52.9666 46.7945 52.8811 46.8311 52.7944C46.84 52.7733 46.8489 52.7533 46.8567 52.7322C47.0322 52.3 47.0534 51.84 46.9122 51.4344Z" fill="#F7F9FC"/>
<path d="M83.8256 84.2679H41.2134L39.0411 81.3068H81.2256L83.8256 84.2679Z" fill="#D0D5DD"/>
<path d="M83.8256 84.5178H41.2144C41.1344 84.5178 41.06 84.48 41.0133 84.4156L38.84 81.4545C38.7844 81.3789 38.7755 81.2778 38.8189 81.1934C38.8611 81.1089 38.9478 81.0567 39.0422 81.0567H81.2267C81.2989 81.0567 81.3667 81.0878 81.4144 81.1423L84.0144 84.1034C84.0789 84.1767 84.0944 84.2823 84.0544 84.3712C84.0122 84.4612 83.9233 84.5178 83.8256 84.5178ZM41.34 84.0178H83.2722L81.1111 81.5567H39.5333L41.34 84.0178Z" fill="#F9FAFB"/>
<path d="M78.5722 50.22C78.9489 50.22 79.2055 50.5133 79.1478 50.8766C79.09 51.2377 78.7389 51.5311 78.3633 51.5311H61.3589C61.29 51.0877 61.1922 50.6477 61.0667 50.22H78.5722Z" fill="#D0D5DD"/>
<path d="M78.3633 51.7811H61.3588C61.2355 51.7811 61.131 51.6911 61.1122 51.5689C61.0455 51.1366 60.9499 50.7066 60.8266 50.29C60.8044 50.2144 60.8188 50.1322 60.8666 50.07C60.9133 50.0066 60.9877 49.97 61.0666 49.97H78.5733C78.8288 49.97 79.0644 50.0744 79.2188 50.2555C79.3722 50.4355 79.4355 50.67 79.3955 50.9155C79.3177 51.4011 78.8644 51.7811 78.3633 51.7811ZM61.571 51.2811H78.3633C78.6166 51.2811 78.8633 51.0777 78.901 50.8366C78.9166 50.7377 78.8944 50.6466 78.8377 50.58C78.7777 50.5089 78.6833 50.47 78.5722 50.47H61.3944C61.4644 50.7377 61.5233 51.0089 61.571 51.2811Z" fill="#D0D5DD"/>
<path d="M79.6377 43.5433C80.0144 43.5433 80.2711 43.8367 80.2133 44.2C80.1555 44.5611 79.8044 44.8544 79.4288 44.8544H61.5522C61.1766 44.8544 60.9199 44.5611 60.9777 44.2C61.0355 43.8378 61.3855 43.5433 61.7611 43.5433H79.6377Z" fill="#D0D5DD"/>
<path d="M79.4288 45.1044H61.5521C61.2966 45.1044 61.0621 45.0011 60.9077 44.82C60.7543 44.64 60.6921 44.4067 60.731 44.1611C60.8088 43.6755 61.261 43.2944 61.761 43.2944H79.6377C79.8932 43.2944 80.1288 43.3989 80.2832 43.58C80.4366 43.76 80.4999 43.9944 80.4599 44.24C80.3832 44.7244 79.9299 45.1044 79.4288 45.1044ZM61.761 43.7933C61.5088 43.7933 61.2632 43.9978 61.2244 44.2389C61.2088 44.3378 61.231 44.4289 61.2877 44.4955C61.3477 44.5655 61.441 44.6044 61.5521 44.6044H79.4288C79.6821 44.6044 79.9288 44.4011 79.9666 44.16C79.9821 44.0611 79.9599 43.97 79.9032 43.9033C79.8432 43.8322 79.7488 43.7933 79.6377 43.7933H61.761Z" fill="#D0D5DD"/>
<path d="M75.3777 70.2523C75.7544 70.2523 76.0111 70.5456 75.9533 70.9067C75.8955 71.2689 75.5444 71.5634 75.1677 71.5634H48.7977C48.4233 71.5634 48.1655 71.27 48.2233 70.9067C48.2811 70.5456 48.6322 70.2523 49.0066 70.2523H75.3777Z" fill="#D0D5DD"/>
<path d="M75.1689 71.8134H48.7978C48.5433 71.8134 48.3089 71.71 48.1544 71.5289C48.0011 71.3489 47.9378 71.1145 47.9778 70.8678C48.0556 70.3823 48.5078 70.0023 49.0078 70.0023H75.3778C75.6333 70.0023 75.8689 70.1067 76.0233 70.2878C76.1767 70.4678 76.2389 70.7011 76.2 70.9467C76.1233 71.4323 75.67 71.8134 75.1689 71.8134ZM49.0067 70.5023C48.7544 70.5023 48.5089 70.7056 48.47 70.9467C48.4544 71.0456 48.4767 71.1378 48.5333 71.2045C48.5933 71.2756 48.6867 71.3145 48.7967 71.3145H75.1678C75.4211 71.3145 75.6678 71.11 75.7056 70.8689C75.7211 70.7711 75.6989 70.68 75.6422 70.6134C75.5822 70.5423 75.4878 70.5034 75.3767 70.5034H49.0067V70.5023Z" fill="#D0D5DD"/>
<path d="M64.1611 55.3511C64.1411 55.2234 64.1189 55.0956 64.0944 54.9689C64.0922 54.9567 64.09 54.9445 64.0878 54.9322C64.0833 54.9089 64.0767 54.8856 64.0722 54.8611C64.0511 54.7578 64.0278 54.6545 64.0033 54.5522C63.9944 54.5145 63.9856 54.4756 63.9756 54.4378C63.9422 54.3045 63.9067 54.1722 63.8689 54.0411C63.8167 53.8622 63.7567 53.6856 63.6944 53.51C63.6867 53.4878 63.6811 53.4656 63.6722 53.4434C63.6644 53.42 63.6533 53.3978 63.6455 53.3756C63.5867 53.2156 63.5244 53.0578 63.4567 52.9011C63.4511 52.8867 63.4455 52.8734 63.4389 52.8589C63.3655 52.6911 63.2855 52.5256 63.2033 52.3611C63.1933 52.3422 63.1856 52.3234 63.1767 52.3045C63.1633 52.2778 63.1467 52.2511 63.1333 52.2245C63.0767 52.1167 63.0178 52.0111 62.9578 51.9045C62.9322 51.8611 62.9089 51.8167 62.8822 51.7734C62.7967 51.6289 62.7078 51.4856 62.6133 51.3445C62.6133 51.3434 62.6122 51.3434 62.6122 51.3422C62.5333 51.2245 62.4522 51.1078 62.3678 50.9922L59.5655 47.1722C59.6511 47.2878 59.7322 47.4056 59.8122 47.5245C59.9067 47.6656 59.9955 47.8089 60.0811 47.9534C60.1067 47.9967 60.1311 48.0411 60.1567 48.0845C60.2167 48.19 60.2755 48.2967 60.3322 48.4034C60.3567 48.4489 60.38 48.4945 60.4033 48.54C60.4867 48.7045 60.5655 48.87 60.6389 49.0378C60.6444 49.0511 60.65 49.0656 60.6555 49.08C60.7233 49.2367 60.7855 49.3945 60.8444 49.5545C60.8611 49.5989 60.8778 49.6445 60.8933 49.6889C60.9555 49.8645 61.0144 50.0411 61.0667 50.22C61.1055 50.3511 61.14 50.4834 61.1733 50.6167C61.1833 50.6556 61.1922 50.6934 61.2011 50.7322C61.2255 50.8345 61.2478 50.9367 61.2689 51.04C61.2767 51.0767 61.2844 51.1122 61.2911 51.1489C61.3155 51.2756 61.3389 51.4034 61.3578 51.5311C61.6289 53.2722 61.47 55.11 60.9011 56.8978C60.7622 57.3389 60.5955 57.7767 60.4067 58.2089C60.3678 58.2978 60.3267 58.3856 60.2867 58.4734C60.2544 58.5422 60.2222 58.6111 60.1889 58.68C60.1611 58.7367 60.1333 58.7945 60.1055 58.8511C60.0711 58.92 60.0355 58.9878 60 59.0567C59.9711 59.1134 59.9411 59.1689 59.9111 59.2245C59.8744 59.2934 59.8367 59.3611 59.7978 59.43C59.7667 59.4856 59.7355 59.54 59.7044 59.5956C59.6644 59.6634 59.6244 59.7322 59.5833 59.8C59.5533 59.85 59.5244 59.8989 59.4933 59.9489C59.3867 60.1211 59.2767 60.2922 59.1622 60.4611C59.14 60.4945 59.1167 60.5278 59.0933 60.5622C58.9755 60.7345 58.8533 60.9045 58.7267 61.0733C58.7111 61.0933 58.6955 61.1134 58.6811 61.1322C58.58 61.2645 58.4767 61.3956 58.3711 61.5256C58.3422 61.5611 58.3133 61.5967 58.2833 61.6334C58.1633 61.7778 58.04 61.9222 57.9133 62.0634C57.8933 62.0856 57.8733 62.1067 57.8533 62.1289C57.75 62.2433 57.6444 62.3556 57.5367 62.4678C57.5011 62.5056 57.4644 62.5422 57.4278 62.5789C57.3144 62.6945 57.1978 62.81 57.08 62.9222C57.0633 62.9389 57.0467 62.9556 57.03 62.9711C56.9589 63.0378 56.8867 63.1034 56.8144 63.17C56.7755 63.2056 56.7367 63.2422 56.6967 63.2778C56.5833 63.3789 56.4689 63.4778 56.3522 63.5767C56.2067 63.6989 56.0622 63.8145 55.9189 63.9267C55.9089 63.9345 55.8989 63.9422 55.8889 63.95C55.7544 64.0545 55.6211 64.1545 55.4878 64.2522C55.4655 64.2689 55.4422 64.2856 55.42 64.3022C55.3 64.3889 55.18 64.4734 55.06 64.5545C54.8922 64.6689 54.7233 64.78 54.5544 64.8867C54.3878 64.9911 54.22 65.0911 54.05 65.1878C54.0055 65.2134 53.9611 65.2367 53.9167 65.2622C53.7678 65.3456 53.6189 65.4267 53.4689 65.5045C53.4122 65.5334 53.3555 65.5634 53.2989 65.5922C53.1344 65.6756 52.9689 65.7545 52.8022 65.8311C52.7722 65.8445 52.7433 65.8589 52.7133 65.8722C52.6744 65.89 52.6344 65.9067 52.5955 65.9234C52.4867 65.9711 52.3778 66.0189 52.2678 66.0634C52.2133 66.0856 52.1589 66.1067 52.1044 66.1289C52.0089 66.1667 51.9122 66.2045 51.8167 66.2411C51.7589 66.2634 51.7 66.2845 51.6422 66.3056C51.5478 66.34 51.4533 66.3722 51.3589 66.4045C51.3011 66.4245 51.2433 66.4433 51.1844 66.4622C51.1067 66.4878 51.0278 66.5111 50.95 66.5356C50.8544 66.5645 50.7578 66.5934 50.6622 66.6211C50.5878 66.6422 50.5133 66.6622 50.4378 66.6822C50.3422 66.7078 50.2478 66.7322 50.1522 66.7556C50.0767 66.7745 50.0011 66.7922 49.9267 66.8089C49.8311 66.8311 49.7355 66.8511 49.64 66.8711C49.5655 66.8867 49.49 66.9022 49.4155 66.9156C49.3189 66.9334 49.2222 66.9511 49.1255 66.9667C49.0522 66.9789 48.9778 66.9911 48.9044 67.0022C48.8055 67.0167 48.7067 67.03 48.6089 67.0434C48.5378 67.0522 48.4655 67.0622 48.3944 67.0711C48.2911 67.0834 48.1889 67.0922 48.0867 67.1011C48.02 67.1067 47.9522 67.1145 47.8855 67.1189C47.7722 67.1278 47.66 67.1334 47.5478 67.1389C47.4911 67.1422 47.4355 67.1456 47.3789 67.1478C47.21 67.1545 47.0422 67.1578 46.8744 67.1578C44.9622 67.1578 43.1167 66.7389 41.4978 65.9011C40.9689 65.6278 40.4644 65.3089 39.99 64.9456L42.7922 68.7656C43.2667 69.1289 43.7711 69.4467 44.3 69.7211C45.9178 70.5589 47.7644 70.9778 49.6755 70.9778C49.8433 70.9778 50.0111 70.9745 50.18 70.9678C50.2367 70.9656 50.2922 70.9611 50.3489 70.9589C50.4611 70.9534 50.5744 70.9478 50.6867 70.9389C50.7533 70.9334 50.82 70.9267 50.8867 70.9211C50.99 70.9122 51.0922 70.9022 51.1955 70.8911C51.2667 70.8834 51.3378 70.8734 51.4089 70.8645C51.5078 70.8511 51.6067 70.8389 51.7055 70.8233C51.7789 70.8122 51.8533 70.8 51.9267 70.7878C52.0233 70.7711 52.12 70.7545 52.2167 70.7367C52.2911 70.7222 52.3667 70.7078 52.4411 70.6922C52.5367 70.6722 52.6322 70.6522 52.7278 70.63C52.8033 70.6134 52.8778 70.5956 52.9522 70.5767C53.0478 70.5534 53.1433 70.5289 53.2389 70.5034C53.3133 70.4834 53.3878 70.4634 53.4622 70.4422C53.5589 70.4145 53.6544 70.3856 53.7511 70.3567C53.7989 70.3422 53.8478 70.3289 53.8955 70.3145C53.9255 70.3045 53.9555 70.2945 53.9855 70.2845C54.0433 70.2656 54.1011 70.2456 54.16 70.2267C54.2544 70.1945 54.3489 70.1622 54.4433 70.1278C54.5011 70.1067 54.56 70.0856 54.6178 70.0634C54.7144 70.0278 54.81 69.99 54.9055 69.9511C54.96 69.9289 55.0144 69.9078 55.0689 69.8856C55.1789 69.84 55.2878 69.7934 55.3967 69.7456C55.4355 69.7278 55.4755 69.7122 55.5144 69.6945C55.5211 69.6911 55.5289 69.6878 55.5355 69.6856C55.5578 69.6756 55.58 69.6634 55.6022 69.6534C55.7689 69.5767 55.9344 69.4978 56.0989 69.4145C56.1555 69.3856 56.2122 69.3567 56.2689 69.3267C56.4189 69.2489 56.5689 69.1678 56.7167 69.0845C56.7489 69.0667 56.7811 69.0511 56.8122 69.0322C56.8244 69.0256 56.8378 69.0167 56.85 69.01C57.0189 68.9134 57.1878 68.8134 57.3544 68.7089C57.5244 68.6022 57.6922 68.4911 57.86 68.3767C57.8755 68.3667 57.89 68.3567 57.9055 68.3467C58.01 68.2745 58.1155 68.2 58.22 68.1245C58.2422 68.1078 58.2655 68.0911 58.2878 68.0745C58.4211 67.9767 58.5544 67.8767 58.6878 67.7722C58.6978 67.7645 58.7078 67.7567 58.7178 67.7489C58.7889 67.6934 58.8611 67.6367 58.9322 67.5778C59.0044 67.5189 59.0778 67.4589 59.15 67.3978C59.2667 67.2989 59.3811 67.2 59.4944 67.0989C59.5344 67.0634 59.5722 67.0278 59.6111 66.9922C59.6833 66.9256 59.7567 66.86 59.8278 66.7922C59.8311 66.7889 59.8355 66.7856 59.8389 66.7822C59.8522 66.77 59.8644 66.7567 59.8767 66.7445C59.9955 66.6311 60.1111 66.5156 60.2256 66.4C60.2622 66.3633 60.2978 66.3256 60.3333 66.2889C60.4411 66.1767 60.5467 66.0645 60.65 65.95C60.6655 65.9334 60.6822 65.9167 60.6967 65.9C60.7011 65.8956 60.7044 65.89 60.7089 65.8856C60.8355 65.7433 60.9589 65.6 61.0789 65.4556C61.1089 65.42 61.1378 65.3845 61.1667 65.3489C61.2722 65.2189 61.3767 65.0878 61.4767 64.9556C61.4878 64.94 61.5011 64.9256 61.5122 64.91C61.5155 64.9056 61.5189 64.9011 61.5222 64.8967C61.6489 64.7278 61.7711 64.5578 61.8889 64.3856C61.9122 64.3522 61.9344 64.3189 61.9578 64.2856C62.0722 64.1156 62.1833 63.9445 62.29 63.7722C62.2967 63.7611 62.3044 63.7511 62.3111 63.74C62.3344 63.7011 62.3567 63.6622 62.38 63.6234C62.4211 63.5556 62.4611 63.4878 62.5011 63.4189C62.5333 63.3634 62.5633 63.3078 62.5944 63.2534C62.6322 63.1856 62.67 63.1178 62.7067 63.0489C62.7367 62.9934 62.7667 62.9367 62.7955 62.88C62.8311 62.8122 62.8667 62.7434 62.9 62.6745C62.9289 62.6178 62.9567 62.5611 62.9844 62.5034C63.0178 62.4345 63.05 62.3656 63.0822 62.2967C63.0955 62.2667 63.1111 62.2378 63.1244 62.2078C63.1511 62.1489 63.1767 62.0911 63.2022 62.0322C63.3922 61.6 63.5578 61.1622 63.6967 60.7211C64.2733 58.9311 64.4322 57.0934 64.1611 55.3511Z" fill="#D0D5DD"/>
<path d="M49.6755 71.2278C47.7066 71.2278 45.8088 70.7834 44.1844 69.9422C43.6388 69.66 43.1199 69.3311 42.6388 68.9634C42.6199 68.9489 42.6033 68.9322 42.5888 68.9122L39.7866 65.0922C39.7133 64.9922 39.7244 64.8534 39.8133 64.7656C39.9022 64.6789 40.0411 64.67 40.1399 64.7456C40.5966 65.0956 41.091 65.4089 41.611 65.6778C43.1644 66.4822 44.9833 66.9067 46.8722 66.9067C47.0288 66.9067 47.1955 66.9034 47.3666 66.8967C47.3988 66.8956 47.4299 66.8934 47.4622 66.8911L47.5322 66.8867C47.6433 66.8811 47.7533 66.8756 47.8644 66.8667C47.9077 66.8634 47.9511 66.8589 47.9933 66.8556L48.061 66.8489C48.1644 66.84 48.2644 66.83 48.3633 66.8189C48.4155 66.8134 48.4677 66.8056 48.5199 66.7989L48.5744 66.7922C48.6711 66.78 48.7677 66.7667 48.8655 66.7522C48.9299 66.7422 48.9955 66.7311 49.0599 66.72L49.0822 66.7167C49.1766 66.7011 49.2722 66.6845 49.3666 66.6667C49.4399 66.6522 49.5133 66.6378 49.5877 66.6222C49.6811 66.6033 49.7755 66.5822 49.8688 66.5611C49.9433 66.5445 50.0166 66.5267 50.0911 66.5089C50.1844 66.4856 50.2788 66.4622 50.3722 66.4367C50.4455 66.4167 50.5188 66.3978 50.5922 66.3767C50.6866 66.35 50.7811 66.3211 50.8755 66.2922L50.9066 66.2822C50.9733 66.2622 51.0399 66.2411 51.1055 66.22C51.1633 66.2011 51.2199 66.1822 51.2766 66.1633C51.3699 66.1322 51.4622 66.1 51.5555 66.0656C51.6122 66.0445 51.6699 66.0245 51.7266 66.0022C51.8211 65.9667 51.9155 65.93 52.0099 65.8922L52.0533 65.8756C52.0922 65.86 52.1322 65.8445 52.1711 65.8289C52.2788 65.7845 52.3855 65.7378 52.4933 65.6911L52.5444 65.6689C52.5655 65.66 52.5877 65.65 52.6088 65.6411L52.6955 65.6C52.8555 65.5267 53.0199 65.4478 53.1833 65.3656C53.2388 65.3378 53.2955 65.3089 53.3511 65.28C53.4977 65.2045 53.6455 65.1245 53.7922 65.0422L53.8466 65.0122C53.8722 64.9978 53.8977 64.9845 53.9233 64.97C54.1055 64.8656 54.2677 64.7689 54.4188 64.6734C54.5733 64.5767 54.7355 64.47 54.9166 64.3467C55.0344 64.2656 55.1533 64.1834 55.2711 64.0978L55.3377 64.0489C55.4822 63.9434 55.6111 63.8456 55.7322 63.7511L55.7622 63.7267C55.9122 63.6089 56.0522 63.4956 56.1877 63.3822C56.3022 63.2856 56.4144 63.1878 56.5255 63.0889C56.5488 63.0678 56.5711 63.0467 56.5944 63.0256L56.6699 62.9567C56.7311 62.9011 56.7933 62.8445 56.8533 62.7878L56.9033 62.74C57.0155 62.6322 57.1277 62.5222 57.2466 62.4011C57.2822 62.3645 57.3177 62.3278 57.3533 62.2911C57.4588 62.1811 57.5633 62.07 57.6644 61.9578L57.7233 61.8945C57.8411 61.7634 57.9599 61.6245 58.0877 61.4711L58.1744 61.3656C58.2844 61.2311 58.3844 61.1045 58.4788 60.9789L58.5244 60.9211C58.6399 60.7678 58.7577 60.6034 58.8844 60.4189L58.9522 60.32C59.0677 60.15 59.1766 59.98 59.2777 59.8167C59.3033 59.7745 59.3288 59.7322 59.3544 59.69L59.3655 59.6711C59.4055 59.6045 59.4455 59.5378 59.4844 59.47C59.5122 59.4222 59.5388 59.3745 59.5655 59.3267L59.5766 59.3067C59.6144 59.24 59.6511 59.1722 59.6877 59.1056C59.7177 59.0511 59.7466 58.9956 59.7755 58.94C59.8099 58.8734 59.8444 58.8056 59.8788 58.7389C59.9066 58.6834 59.9344 58.6278 59.9611 58.5711C59.9933 58.5034 60.0255 58.4367 60.0566 58.3689L60.0666 58.3456C60.1033 58.2667 60.1399 58.1878 60.1744 58.1089C60.3622 57.68 60.5266 57.2478 60.6599 56.8222C61.2166 55.0756 61.371 53.26 61.1077 51.57C61.0899 51.4545 61.0688 51.3322 61.0422 51.1967L61.0199 51.09C60.9988 50.9889 60.9777 50.8889 60.9533 50.7889L60.9255 50.6756C60.8888 50.5278 60.8555 50.4045 60.8211 50.29C60.7755 50.1356 60.7222 49.9711 60.6511 49.7711C60.6355 49.7278 60.6199 49.6834 60.6033 49.64C60.5399 49.47 60.4799 49.3189 60.4188 49.1778L60.4022 49.1367C60.3377 48.9889 60.2633 48.8311 60.1722 48.6522C60.1499 48.6078 60.1266 48.5634 60.1033 48.5189C60.0477 48.4145 59.9911 48.3111 59.9322 48.2078L59.9088 48.1678C59.8922 48.1389 59.8755 48.1089 59.8577 48.08C59.7644 47.9234 59.6788 47.7867 59.5955 47.6622C59.5177 47.5456 59.4366 47.43 59.3555 47.3189C59.2744 47.2078 59.2977 47.0511 59.4088 46.97C59.5199 46.8889 59.6766 46.9122 59.7577 47.0234L59.7588 47.0245L62.5599 50.8434C62.6455 50.96 62.7299 51.0811 62.8111 51.2022C62.8122 51.2045 62.8133 51.2067 62.8155 51.2089C62.9033 51.3411 62.9922 51.4834 63.0888 51.6445C63.1077 51.6756 63.1244 51.7067 63.1422 51.7367L63.1655 51.7778C63.2277 51.8867 63.2877 51.9956 63.3455 52.1056L63.3611 52.1345C63.3711 52.1522 63.3811 52.17 63.3899 52.1878C63.3966 52.2 63.4022 52.2134 63.4077 52.2256L63.4166 52.2456C63.5111 52.4322 63.5899 52.5989 63.6588 52.7567L63.6766 52.7989C63.7422 52.9522 63.8055 53.1111 63.8711 53.2867L63.8799 53.31C63.8866 53.3256 63.8933 53.3411 63.8988 53.3578C63.9044 53.3722 63.9088 53.3878 63.9133 53.4034L63.9211 53.4267C63.9944 53.6322 64.0511 53.8056 64.0988 53.97C64.1344 54.0911 64.1688 54.22 64.2088 54.3756C64.2166 54.4056 64.2233 54.4367 64.2311 54.4667L64.2377 54.4934C64.2633 54.5989 64.2866 54.7045 64.3077 54.81L64.3144 54.8378C64.3177 54.8522 64.3211 54.8667 64.3244 54.8822L64.3311 54.9211C64.3588 55.0656 64.3811 55.1934 64.3999 55.3134C64.6744 57.08 64.5144 58.9745 63.9344 60.7934C63.7955 61.2334 63.6255 61.6833 63.4299 62.1289C63.4044 62.1878 63.3777 62.2478 63.3511 62.3067C63.3422 62.3256 63.3344 62.3434 63.3255 62.3611L63.3077 62.3978C63.2755 62.4678 63.2422 62.5378 63.2088 62.6067C63.1811 62.6656 63.1522 62.7234 63.1233 62.7811C63.0888 62.8511 63.0533 62.92 63.0166 62.99C62.9866 63.0478 62.9566 63.1045 62.9255 63.1622C62.8877 63.2322 62.8499 63.3011 62.8111 63.37L62.7944 63.4C62.7688 63.4467 62.7422 63.4933 62.7155 63.5389C62.6755 63.6089 62.6344 63.6778 62.5922 63.7467L62.5633 63.7945C62.5499 63.8178 62.5355 63.8411 62.5222 63.8645L62.5066 63.8889C62.3955 64.0678 62.2822 64.2434 62.1633 64.4189L62.0933 64.52C61.9611 64.7122 61.8388 64.8822 61.7199 65.04L61.6733 65.1011C61.5755 65.2289 61.4699 65.3645 61.3577 65.5011L61.3466 65.5156C61.3211 65.5467 61.2955 65.5789 61.2688 65.61C61.1366 65.7689 61.0144 65.9122 60.8922 66.0478L60.8788 66.0634C60.8699 66.0734 60.8599 66.0845 60.8499 66.0945L60.8311 66.1145C60.7255 66.23 60.6188 66.3445 60.5099 66.4578C60.4733 66.4956 60.4366 66.5334 60.3999 66.5711C60.2766 66.6967 60.1599 66.8111 60.0455 66.9211L60.0322 66.9345C60.0233 66.9433 60.0155 66.9511 60.0066 66.96C60.0055 66.9611 59.9977 66.9678 59.9966 66.9689C59.9344 67.0278 59.8711 67.0856 59.8077 67.1434L59.7311 67.2145C59.7066 67.2367 59.6822 67.26 59.6566 67.2822C59.5422 67.3845 59.4255 67.4856 59.3066 67.5856C59.2322 67.6478 59.1588 67.7089 59.0855 67.7678C59.0122 67.8267 58.9399 67.8845 58.8677 67.9411L58.8377 67.9656C58.7111 68.0645 58.5777 68.1656 58.4311 68.2722L58.3622 68.3233C58.2555 68.4 58.1488 68.4767 58.0422 68.55C58.0322 68.5567 58.0222 68.5634 58.0122 68.57L57.9955 68.5811C57.8099 68.7078 57.6411 68.8178 57.4811 68.9189C57.3222 69.0189 57.1544 69.1189 56.9688 69.2256L56.9299 69.2489C56.9111 69.26 56.8911 69.27 56.8722 69.28C56.8588 69.2867 56.8455 69.2934 56.8333 69.3011C56.6811 69.3867 56.5277 69.4689 56.3777 69.5467C56.3199 69.5767 56.2622 69.6067 56.2044 69.6356C56.0344 69.7211 55.8644 69.8022 55.6999 69.8778L55.6744 69.89C55.6599 69.8967 55.6455 69.9045 55.6311 69.91L55.6155 69.9167C55.5855 69.93 55.5611 69.9411 55.5366 69.9511L55.4899 69.9711C55.3788 70.02 55.2677 70.0678 55.1566 70.1134C55.1177 70.13 55.0777 70.1456 55.0377 70.1611L54.9911 70.18C54.8933 70.2189 54.7955 70.2567 54.6977 70.2934C54.6388 70.3156 54.5799 70.3367 54.5211 70.3589C54.4255 70.3934 54.3288 70.4267 54.2333 70.46C54.1722 70.48 54.1144 70.5 54.0566 70.5189L54.0188 70.5311C54.0011 70.5378 53.9822 70.5434 53.9644 70.5489C53.9355 70.5578 53.9066 70.5667 53.8766 70.5745L53.8177 70.5922C53.7199 70.6222 53.6222 70.6511 53.5244 70.6789C53.4488 70.7 53.3733 70.7211 53.2977 70.7411C53.1999 70.7667 53.1033 70.7922 53.0055 70.8156C52.9299 70.8345 52.8533 70.8522 52.7766 70.87C52.6788 70.8922 52.5822 70.9134 52.4844 70.9334C52.4077 70.9489 52.3322 70.9645 52.2555 70.9789C52.1577 70.9978 52.0588 71.0145 51.9599 71.0311L51.9344 71.0356C51.8677 71.0467 51.8022 71.0578 51.7355 71.0678C51.6344 71.0834 51.5344 71.0967 51.4333 71.1089L51.3788 71.1156C51.3244 71.1222 51.2699 71.13 51.2166 71.1356C51.1122 71.1478 51.0077 71.1567 50.9033 71.1667L50.8366 71.1734C50.7899 71.1778 50.7444 71.1822 50.6977 71.1856C50.5822 71.1945 50.4677 71.2 50.3533 71.2056L50.2888 71.2089C50.2533 71.2111 50.2177 71.2134 50.1822 71.2145C50.0122 71.2245 49.8388 71.2278 49.6755 71.2278ZM42.9722 68.5878C43.4211 68.9289 43.9066 69.2345 44.4155 69.4978C45.9688 70.3022 47.7877 70.7267 49.6766 70.7267C49.8333 70.7267 49.9999 70.7234 50.1711 70.7167C50.2033 70.7156 50.2355 70.7134 50.2677 70.7111L50.3366 70.7067C50.4477 70.7011 50.5577 70.6956 50.6688 70.6867C50.7122 70.6834 50.7555 70.6789 50.7988 70.6756L50.8666 70.6689C50.9688 70.66 51.0688 70.65 51.1699 70.6389C51.2211 70.6334 51.2722 70.6267 51.3244 70.62L51.3799 70.6122C51.4766 70.6 51.5744 70.5867 51.6711 70.5722C51.7344 70.5622 51.7988 70.5522 51.8622 70.5411L51.8877 70.5367C51.9833 70.5211 52.0777 70.5045 52.1722 70.4867C52.2455 70.4722 52.3188 70.4578 52.3933 70.4422C52.4877 70.4234 52.5811 70.4022 52.6755 70.3811C52.7488 70.3645 52.8233 70.3467 52.8966 70.3289C52.9911 70.3056 53.0844 70.2811 53.1788 70.2567C53.2522 70.2367 53.3255 70.2178 53.3977 70.1967C53.4922 70.17 53.5866 70.1411 53.6811 70.1122L53.7477 70.0922C53.7733 70.0845 53.7977 70.0778 53.8222 70.07L53.9111 70.04C53.9666 70.0222 54.0233 70.0034 54.0788 69.9845C54.1744 69.9522 54.2677 69.92 54.3599 69.8867C54.4166 69.8656 54.4744 69.8456 54.5311 69.8233C54.6255 69.7878 54.7199 69.7511 54.8144 69.7134L54.8622 69.6945C54.8999 69.68 54.9366 69.6645 54.9744 69.65C55.0822 69.6056 55.1899 69.5589 55.2966 69.5122L55.3477 69.49C55.3699 69.4811 55.3911 69.4711 55.4122 69.4622L55.4611 69.44C55.4744 69.4334 55.4866 69.4278 55.4999 69.4211C55.6588 69.3478 55.8233 69.2689 55.9888 69.1867C56.0455 69.1589 56.1011 69.13 56.1566 69.1011C56.3022 69.0256 56.4499 68.9456 56.5977 68.8634C56.6144 68.8545 56.6311 68.8456 56.6477 68.8367C56.6622 68.8289 56.6766 68.8211 56.6911 68.8134L56.7277 68.7911C56.9088 68.6878 57.0711 68.59 57.2244 68.4945C57.3788 68.3978 57.5422 68.2911 57.7222 68.1678L57.7666 68.1389C57.8699 68.0678 57.9733 67.9945 58.0766 67.92L58.1444 67.87C58.2866 67.7656 58.4155 67.6689 58.5377 67.5722L58.5677 67.5478C58.6366 67.4934 58.7077 67.4378 58.7788 67.38C58.8499 67.3222 58.9222 67.2634 58.9933 67.2034C59.1077 67.1067 59.2199 67.0089 59.3311 66.91C59.3544 66.89 59.3766 66.8689 59.3977 66.8489L59.4777 66.7756C59.5377 66.72 59.5988 66.6656 59.6577 66.6089C59.6588 66.6078 59.6644 66.6022 59.6666 66.6011L59.7077 66.5611C59.8188 66.4556 59.9311 66.3445 60.0511 66.2222C60.0866 66.1856 60.1222 66.1489 60.1577 66.1122C60.2633 66.0022 60.3677 65.8911 60.4688 65.7789L60.5277 65.7145C60.6444 65.5834 60.7644 65.4456 60.8922 65.2911C60.9177 65.2611 60.9422 65.2311 60.9666 65.2L60.9788 65.1856C61.0866 65.0534 61.1899 64.9222 61.2844 64.7989L61.3299 64.74C61.4444 64.5889 61.5622 64.4245 61.6899 64.2389L61.7566 64.1411C61.8722 63.9711 61.9811 63.8011 62.0833 63.6367L62.1033 63.6056C62.1155 63.5856 62.1277 63.5645 62.1399 63.5434L62.1711 63.4911C62.2111 63.4245 62.2511 63.3578 62.2899 63.2911C62.3155 63.2467 62.3411 63.2022 62.3655 63.1567L62.3822 63.1267C62.4188 63.06 62.4566 62.9934 62.4922 62.9267C62.5222 62.8711 62.5511 62.8167 62.5799 62.7611C62.6144 62.6945 62.6488 62.6278 62.6822 62.56C62.7099 62.5034 62.7377 62.4478 62.7655 62.3911C62.7977 62.3245 62.8299 62.2567 62.8611 62.1889L62.9033 62.1011C62.9288 62.0445 62.9544 61.9878 62.9799 61.93C63.1688 61.5 63.3322 61.0678 63.4655 60.6433C64.0222 58.8967 64.1766 57.0811 63.9133 55.3911C63.8955 55.2778 63.8744 55.1567 63.8477 55.0189L63.8266 54.9134C63.8055 54.8122 63.7833 54.7122 63.7599 54.6122L63.7533 54.5845C63.7466 54.5567 63.7399 54.5278 63.7333 54.5C63.6955 54.3511 63.6622 54.2278 63.6288 54.1134C63.5833 53.9567 63.5288 53.7922 63.4588 53.5956C63.4544 53.5811 63.4499 53.5689 63.4455 53.5556C63.4433 53.5478 63.4399 53.5389 63.4377 53.5311C63.4344 53.5222 63.4311 53.5145 63.4277 53.5067C63.4222 53.4934 63.4166 53.4789 63.4111 53.4656C63.3488 53.2989 63.2888 53.1467 63.2266 53.0034L63.2099 52.9622C63.1455 52.8134 63.0699 52.6545 62.9799 52.4767C62.9744 52.4656 62.9677 52.4522 62.9622 52.44L62.9533 52.42C62.9477 52.4089 62.9411 52.3967 62.9344 52.3856C62.9266 52.3722 62.9188 52.3578 62.9111 52.3434C62.8555 52.2378 62.7988 52.1345 62.7399 52.0311L62.7155 51.9878C62.6999 51.96 62.6833 51.9311 62.6666 51.9034C62.5733 51.7467 62.4877 51.6089 62.4044 51.4856C62.4033 51.4845 62.4022 51.4822 62.4011 51.48C62.3244 51.3656 62.2444 51.2522 62.1644 51.1422L61.2077 49.8378C61.2455 49.95 61.2777 50.0534 61.3066 50.1522C61.3422 50.2734 61.3777 50.4022 61.4166 50.5578L61.4455 50.6756C61.4699 50.7811 61.4933 50.8856 61.5155 50.9911L61.5388 51.1022C61.5666 51.2445 61.5888 51.3722 61.6077 51.4945C61.8822 53.2611 61.7211 55.1556 61.1422 56.9745C61.0033 57.4156 60.8333 57.8656 60.6377 58.31C60.6022 58.3922 60.5633 58.4745 60.5255 58.5567L60.5155 58.5789C60.4833 58.6489 60.4499 58.7189 60.4166 58.7889C60.3888 58.8467 60.3599 58.9045 60.3311 58.9634C60.2955 59.0334 60.2599 59.1034 60.2244 59.1722C60.1944 59.2289 60.1644 59.2867 60.1344 59.3434C60.0966 59.4134 60.0577 59.4822 60.0188 59.5522L60.0077 59.5722C59.9799 59.6222 59.9522 59.6711 59.9233 59.7211C59.8833 59.7911 59.8422 59.86 59.7999 59.9289L59.7888 59.9478C59.7622 59.9922 59.7355 60.0367 59.7088 60.08C59.6044 60.25 59.4911 60.4256 59.3711 60.6022L59.3011 60.7045C59.1699 60.8956 59.0477 61.0656 58.9277 61.2245L58.8811 61.2845C58.7822 61.4145 58.6788 61.5456 58.5655 61.6845L58.4755 61.7934C58.3444 61.9522 58.2211 62.0945 58.0988 62.23L58.0377 62.2956C57.9322 62.4111 57.8255 62.5256 57.7155 62.64C57.6788 62.6778 57.6422 62.7156 57.6055 62.7534C57.4833 62.8778 57.3677 62.9922 57.2511 63.1034L57.1999 63.1534C57.1377 63.2122 57.0744 63.27 57.0099 63.3289L56.9377 63.3956C56.9122 63.4189 56.8877 63.4422 56.8622 63.4645C56.7477 63.5667 56.6311 63.6678 56.5122 63.7678C56.3711 63.8856 56.2277 64.0022 56.0722 64.1234L56.0422 64.1478C55.9166 64.2456 55.7833 64.3467 55.6355 64.4545L55.5666 64.5056C55.4444 64.5945 55.3222 64.6789 55.2011 64.7622C55.0155 64.8889 54.8466 64.9989 54.6866 65.1C54.5288 65.1989 54.3611 65.2989 54.1744 65.4067C54.1466 65.4222 54.1188 65.4378 54.0899 65.4534L54.0388 65.4822C53.8877 65.5667 53.7344 65.65 53.5833 65.7278C53.5255 65.7578 53.4677 65.7878 53.4099 65.8167C53.2399 65.9022 53.0711 65.9834 52.9055 66.0589L52.8666 66.0767C52.8499 66.0845 52.8322 66.0933 52.8155 66.1011C52.7911 66.1122 52.7666 66.1222 52.7422 66.1334L52.6944 66.1534C52.5833 66.2022 52.4722 66.25 52.3611 66.2956C52.3199 66.3122 52.2788 66.3289 52.2366 66.3456L52.1944 66.3622C52.0966 66.4011 51.9999 66.4389 51.9011 66.4756C51.8422 66.4978 51.7833 66.5189 51.7233 66.5411C51.6277 66.5756 51.5311 66.6089 51.4355 66.6411C51.3766 66.6611 51.3177 66.6811 51.2588 66.7C51.1899 66.7222 51.1199 66.7434 51.0511 66.7645L51.0199 66.7734C50.9222 66.8034 50.8244 66.8322 50.7266 66.86C50.6511 66.8811 50.5744 66.9022 50.4988 66.9222C50.4022 66.9478 50.3055 66.9733 50.2077 66.9967C50.1311 67.0156 50.0544 67.0334 49.9777 67.0511C49.8811 67.0734 49.7833 67.0945 49.6866 67.1145C49.6111 67.13 49.5344 67.1456 49.4577 67.16C49.3588 67.1789 49.2611 67.1956 49.1622 67.2122L49.1399 67.2156C49.0722 67.2267 49.0044 67.2378 48.9366 67.2489C48.8355 67.2645 48.7355 67.2778 48.6355 67.29L48.5822 67.2967C48.5266 67.3045 48.4722 67.3111 48.4177 67.3178C48.3144 67.33 48.2111 67.3389 48.1077 67.3489L48.0388 67.3556C47.9922 67.36 47.9455 67.3645 47.8999 67.3678C47.7855 67.3767 47.6711 67.3822 47.5566 67.3878L47.4911 67.3911C47.4555 67.3934 47.4199 67.3956 47.3844 67.3967C47.2066 67.4034 47.0344 67.4067 46.8711 67.4067C44.9022 67.4067 43.0044 66.9622 41.3799 66.1211C41.2566 66.0578 41.1355 65.9911 41.0155 65.9234L42.9722 68.5878Z" fill="#F9FAFB"/>
<path d="M96.6745 72.03C97.5876 72.03 98.3278 71.2898 98.3278 70.3767C98.3278 69.4636 97.5876 68.7233 96.6745 68.7233C95.7613 68.7233 95.0211 69.4636 95.0211 70.3767C95.0211 71.2898 95.7613 72.03 96.6745 72.03Z" fill="#F9FAFB"/>
<path d="M27.1477 65.93C28.0608 65.93 28.8011 65.1898 28.8011 64.2767C28.8011 63.3636 28.0608 62.6234 27.1477 62.6234C26.2346 62.6234 25.4944 63.3636 25.4944 64.2767C25.4944 65.1898 26.2346 65.93 27.1477 65.93Z" fill="#F9FAFB"/>
<path d="M27.9755 67.2667C28.2971 67.2667 28.5578 67.006 28.5578 66.6845C28.5578 66.3629 28.2971 66.1022 27.9755 66.1022C27.654 66.1022 27.3933 66.3629 27.3933 66.6845C27.3933 67.006 27.654 67.2667 27.9755 67.2667Z" fill="#F9FAFB"/>
<path d="M36.1734 45.1356C37.0865 45.1356 37.8267 44.3954 37.8267 43.4823C37.8267 42.5691 37.0865 41.8289 36.1734 41.8289C35.2602 41.8289 34.52 42.5691 34.52 43.4823C34.52 44.3954 35.2602 45.1356 36.1734 45.1356Z" fill="#F9FAFB"/>
<path d="M38.1055 42.4067C38.4271 42.4067 38.6878 42.146 38.6878 41.8245C38.6878 41.5029 38.4271 41.2422 38.1055 41.2422C37.784 41.2422 37.5233 41.5029 37.5233 41.8245C37.5233 42.146 37.784 42.4067 38.1055 42.4067Z" fill="#F9FAFB"/>
<path d="M100.92 36.4289C102.491 36.4289 103.764 35.1554 103.764 33.5844C103.764 32.0135 102.491 30.74 100.92 30.74C99.3491 30.74 98.0756 32.0135 98.0756 33.5844C98.0756 35.1554 99.3491 36.4289 100.92 36.4289Z" fill="#E4E7EC"/>
<path d="M98.0755 32.18C98.8236 32.18 99.43 31.5736 99.43 30.8255C99.43 30.0775 98.8236 29.4711 98.0755 29.4711C97.3275 29.4711 96.7211 30.0775 96.7211 30.8255C96.7211 31.5736 97.3275 32.18 98.0755 32.18Z" fill="#F9FAFB"/>
</svg>
