<svg width="120" height="120" viewBox="0 0 120 120" fill="none" xmlns="http://www.w3.org/2000/svg">
<path d="M59.5244 102.561C82.1797 102.561 100.546 95.3564 100.546 86.4689C100.546 77.5814 82.1797 70.3766 59.5244 70.3766C36.8691 70.3766 18.5033 77.5814 18.5033 86.4689C18.5033 95.3564 36.8691 102.561 59.5244 102.561Z" fill="#F9FAFB"/>
<path d="M29.4866 51.0078L18.9811 58.4645C18.9811 58.4645 27.0389 71.0567 34.9544 74.2434L43.0111 67.3511C43.0122 67.3511 33.7666 60.9145 29.4866 51.0078Z" fill="#F7F9FC"/>
<path d="M70.0055 89.4789L70.7999 94.8878C70.7999 94.8878 78.5311 95.2234 81.8055 92.37L80.5422 87.1234C80.5422 87.1234 75.4866 89.8278 70.0055 89.4789Z" fill="#F7F9FC"/>
<path d="M91.6411 52.1567L100.068 45.7056C100.068 45.7056 92.3822 32.55 84.46 30.1089L77.22 37.4356C77.22 37.4356 86.6933 42.9144 91.6411 52.1567Z" fill="#F7F9FC"/>
<g opacity="0.6">
<path d="M40.1822 73.3889C39.3255 75.1356 38.6322 76.8389 38.1122 78.4578L34.3277 85.5089L30.2888 73.3889H40.1822Z" fill="#98A2B3"/>
<path d="M34.3277 85.7589C34.321 85.7589 34.3132 85.7589 34.3066 85.7578C34.2077 85.7489 34.1221 85.6822 34.091 85.5878L30.051 73.4678C30.0255 73.3911 30.0388 73.3078 30.0855 73.2422C30.1321 73.1767 30.2077 73.1389 30.2888 73.1389H40.1832C40.2699 73.1389 40.3499 73.1834 40.3955 73.2567C40.441 73.33 40.4455 73.4211 40.4077 73.4989C39.5632 75.22 38.8721 76.9134 38.351 78.5345C38.3466 78.5489 38.3399 78.5634 38.3332 78.5767L34.5488 85.6278C34.5043 85.7089 34.4188 85.7589 34.3277 85.7589ZM30.6355 73.6389L34.3821 84.88L37.8821 78.36C38.3721 76.8367 39.0121 75.25 39.7843 73.6389H30.6355Z" fill="#F9FAFB"/>
</g>
<path d="M36.9689 85.51H34.3278V85.5089L38.1122 78.4578C37.2711 81.0822 36.88 83.4878 36.9689 85.51Z" fill="#D0D5DD"/>
<path d="M36.9689 85.76H34.3278C34.19 85.76 34.0778 85.6478 34.0778 85.51C34.0778 85.4689 34.0878 85.4267 34.1078 85.39L37.8922 78.3389C37.9533 78.2255 38.0911 78.1766 38.21 78.2266C38.3289 78.2766 38.39 78.41 38.35 78.5333C37.51 81.1511 37.13 83.4944 37.2189 85.4989C37.2222 85.5666 37.1966 85.6333 37.15 85.6822C37.1022 85.7322 37.0378 85.76 36.9689 85.76ZM34.7444 85.26H36.71C36.6755 83.8433 36.8611 82.2733 37.2622 80.5689L34.7444 85.26Z" fill="#F9FAFB"/>
<path d="M39.8378 85.2078L39.7744 85.4255C39.4511 86.5278 39.2078 87.5989 39.05 88.61L39.0322 88.7255L39.0967 88.8233C39.4589 89.3755 39.9178 89.8111 40.4611 90.1155L40.8722 90.3467L40.9122 89.8778C41.0233 88.5767 41.3167 87.1367 41.7822 85.6L41.9011 85.2089H39.8378V85.2078Z" fill="#D0D5DD"/>
<path d="M40.8699 90.5967C40.8277 90.5967 40.7855 90.5855 40.7477 90.5644L40.3366 90.3333C39.7588 90.0089 39.271 89.5467 38.8866 88.96L38.8221 88.8622C38.7877 88.81 38.7744 88.7478 38.7844 88.6867L38.8021 88.5711C38.9621 87.55 39.2077 86.4678 39.5344 85.3555L39.5977 85.1378C39.6288 85.0311 39.7266 84.9578 39.8377 84.9578H41.8988C41.9777 84.9578 42.0521 84.9955 42.0999 85.0589C42.1466 85.1222 42.161 85.2044 42.1388 85.28L42.0199 85.6711C41.5588 87.1922 41.2699 88.6144 41.1599 89.8978L41.1199 90.3678C41.1121 90.4522 41.0633 90.5278 40.9877 90.5678C40.9499 90.5867 40.9099 90.5967 40.8699 90.5967ZM39.2933 88.6678L39.3044 88.6844C39.6444 89.2033 40.0744 89.6111 40.5821 89.8967L40.6544 89.9378L40.661 89.8555C40.7744 88.5367 41.0699 87.08 41.541 85.5267L41.5621 85.4578H40.0255L40.0144 85.4955C39.6944 86.5878 39.4521 87.6478 39.2966 88.6478L39.2933 88.6678Z" fill="#F9FAFB"/>
<path d="M41.6788 73.3889H62.5754C60.0032 77.7923 56.6932 81.8811 53.1288 85.0334C52.9454 85.1956 52.7621 85.3556 52.5788 85.5111H41.4899H40.0654H38.4088C38.181 82.3745 39.3221 78.0623 41.6788 73.3889Z" fill="#E4E7EC"/>
<path d="M52.5788 85.7611H38.4088C38.2777 85.7611 38.1688 85.66 38.1599 85.5289C37.9255 82.3078 39.0966 77.9556 41.4566 73.2756C41.4988 73.1911 41.5855 73.1378 41.6799 73.1378H62.5766C62.6666 73.1378 62.7488 73.1856 62.7933 73.2634C62.8377 73.3412 62.8377 73.4367 62.7922 73.5145C60.2166 77.9245 56.8433 82.0823 53.2955 85.22C53.1111 85.3834 52.9255 85.5434 52.7411 85.7012C52.6955 85.74 52.6388 85.7611 52.5788 85.7611ZM38.6444 85.2611H52.4877C52.6466 85.1256 52.8055 84.9867 52.9644 84.8467C56.3733 81.8312 59.6188 77.8645 62.1388 73.6389H41.8333C39.6155 78.0745 38.4888 82.1834 38.6444 85.2611Z" fill="#F9FAFB"/>
<path d="M60.6467 85.2078L60.5556 85.3222C58.8456 87.4867 57.0122 89.44 55.1044 91.1267C51.3322 94.4645 47.6278 96.3789 44.94 96.3789C43.4244 96.3789 42.3122 95.7733 41.6356 94.58C41.1678 93.7545 40.9089 92.69 40.8656 91.4156L40.8578 91.2067L40.66 91.1389C40.17 90.9711 39.7233 90.73 39.3322 90.4222L38.8656 90.0545L38.8411 90.6478C38.7567 92.69 39.0844 94.3778 39.8144 95.6678C40.8133 97.4289 42.51 98.3589 44.72 98.3589C47.9944 98.3589 52.1411 96.2856 56.3967 92.5189C58.46 90.6922 60.4378 88.5756 62.2722 86.2311C62.3756 86.1 62.4767 85.9689 62.5778 85.8367L63.0644 85.2056H60.6467V85.2078Z" fill="#98A2B3"/>
<path d="M44.7211 98.61C42.4167 98.61 40.6445 97.6355 39.5989 95.7922C38.8445 94.4611 38.5067 92.7278 38.5934 90.6389L38.6178 90.0455C38.6222 89.9522 38.6778 89.8678 38.7634 89.8289C38.8489 89.79 38.9489 89.8011 39.0222 89.86L39.4889 90.2278C39.8567 90.5178 40.2789 90.7455 40.7422 90.9044L40.94 90.9722C41.0378 91.0055 41.1056 91.0967 41.1089 91.2L41.1167 91.4089C41.1589 92.6433 41.4078 93.6689 41.8545 94.4589C42.4834 95.5689 43.5211 96.1311 44.9411 96.1311C47.5689 96.1311 51.2134 94.24 54.94 90.9411C56.8367 89.2644 58.66 87.3222 60.3611 85.1689L60.4523 85.0533C60.5 84.9933 60.5723 84.9578 60.6489 84.9578H63.0689C63.1645 84.9578 63.2511 85.0122 63.2934 85.0978C63.3356 85.1833 63.3256 85.2855 63.2667 85.3611L62.7678 86.0078C62.67 86.1355 62.5722 86.2622 62.4722 86.3889C60.6278 88.7455 58.64 90.8722 56.5656 92.7089C52.2622 96.5144 48.0567 98.61 44.7211 98.61ZM39.0967 90.5555L39.0922 90.66C39.01 92.6544 39.3267 94.2978 40.0334 95.5455C40.9856 97.2233 42.6067 98.11 44.7211 98.11C47.9345 98.11 52.0222 96.0589 56.2322 92.3333C58.2834 90.5167 60.25 88.4122 62.0767 86.0789C62.1756 85.9533 62.2723 85.8278 62.3689 85.7022L62.5578 85.4567H60.7678L60.7523 85.4767C59.0334 87.6533 57.1889 89.6178 55.27 91.3144C51.4534 94.6922 47.6878 96.6289 44.94 96.6289C43.3278 96.6289 42.1434 95.9811 41.4189 94.7033C40.9311 93.8433 40.6611 92.74 40.6156 91.4244L40.6145 91.3878L40.58 91.3755C40.0622 91.1989 39.5911 90.9444 39.1789 90.6189L39.0967 90.5555Z" fill="#F9FAFB"/>
<path d="M75.7577 85.4022L75.8199 85.4244V85.4256L75.821 85.4244L75.8844 85.4478L75.8388 85.5333L75.7766 85.5111L75.7122 85.4867L75.7577 85.4022Z" fill="black"/>
<path d="M75.8388 85.7833C75.8111 85.7833 75.7822 85.7789 75.7544 85.7689L75.6266 85.7233C75.5577 85.6989 75.5044 85.6455 75.4777 85.5778C75.4511 85.51 75.4566 85.4344 75.4911 85.37L75.5366 85.2844C75.5955 85.1755 75.7255 85.1255 75.8411 85.1667L75.9033 85.1889H75.9044L75.9688 85.2122C76.0377 85.2366 76.0911 85.29 76.1177 85.3578C76.1444 85.4255 76.1388 85.5011 76.1044 85.5655L76.0588 85.6511C76.0144 85.7344 75.9288 85.7833 75.8388 85.7833Z" fill="#F9FAFB"/>
<path d="M89.1267 41.1334L93.1389 53.1689L75.8212 85.4245L71.8112 73.3889L82.62 53.2556L89.1267 41.1334Z" fill="#98A2B3"/>
<path d="M75.8211 85.6745C75.8144 85.6745 75.8066 85.6745 75.8 85.6734C75.7011 85.6645 75.6155 85.5978 75.5844 85.5034L71.5755 73.4667C71.5533 73.4011 71.56 73.33 71.5922 73.2689L88.9077 41.0134C88.9544 40.9256 89.0522 40.8745 89.1489 40.8822C89.2477 40.8911 89.3333 40.9578 89.3644 41.0522L93.3755 53.0878C93.3977 53.1534 93.3911 53.2245 93.3589 53.2856L76.0411 85.5411C75.9966 85.6245 75.9122 85.6745 75.8211 85.6745ZM72.0833 73.4122L75.8755 84.7956L92.8677 53.1456L89.0733 41.7622L72.0833 73.4122Z" fill="#F9FAFB"/>
<path d="M75.7567 85.4011L75.82 85.4234L71.8111 73.3889H64.11C61.5311 77.9289 58.1733 82.1789 54.5333 85.51H65.3033H75.7767L75.7111 85.4878L75.7567 85.4011Z" fill="#E4E7EC"/>
<path d="M75.7766 85.76H54.5333C54.43 85.76 54.3377 85.6967 54.3 85.6C54.2622 85.5034 54.2877 85.3945 54.3644 85.3256C57.9588 82.0367 61.3433 77.7534 63.8933 73.2645C63.9377 73.1867 64.0211 73.1378 64.1111 73.1378H71.8122C71.92 73.1378 72.0155 73.2067 72.0488 73.3089L76.0577 85.3445C76.0844 85.4245 76.0688 85.5123 76.0166 85.5778C75.9866 85.6856 75.89 85.76 75.7766 85.76ZM55.1688 85.26H75.5022L71.6311 73.6389H64.2555C61.8 77.93 58.5933 82.03 55.1688 85.26Z" fill="#F9FAFB"/>
<path d="M62.4011 73.0856L62.3133 73.2356C59.7656 77.5967 56.4333 81.7056 52.9278 84.8067C52.7456 84.9678 52.5633 85.1256 52.3822 85.28C48.81 88.3167 45.3045 90.0589 42.7656 90.0589C41.9889 90.0589 41.3133 89.9 40.7567 89.5878C40.2989 89.3311 39.9111 88.9622 39.6022 88.4911C39.5533 88.4167 39.5067 88.34 39.4611 88.26C39.0433 87.5233 38.7911 86.5911 38.7111 85.49C38.4845 82.3667 39.6345 78.1178 41.95 73.5267L42.1722 73.0867H39.9945L39.9111 73.2567C37.6722 77.8222 36.52 82.1789 36.6678 85.5256C36.7345 87.0389 37.0622 88.3256 37.6422 89.3489C37.9922 89.9667 38.4356 90.4889 38.9589 90.9022C39.4033 91.2522 39.91 91.5267 40.4656 91.7167C41.0967 91.9322 41.7967 92.0411 42.5478 92.0411C45.8222 92.0411 49.9689 89.9678 54.2233 86.2011C54.3967 86.0478 54.5678 85.8933 54.74 85.7367C58.3745 82.41 61.7967 78.0778 64.3767 73.5411L64.6345 73.0878H62.4011V73.0856Z" fill="#D0D5DD"/>
<path d="M42.5466 92.2889C41.7688 92.2889 41.041 92.1756 40.3843 91.9511C39.8021 91.7522 39.271 91.4645 38.8032 91.0967C38.2543 90.6633 37.7899 90.1167 37.4232 89.4711C36.8243 88.4133 36.4854 87.0889 36.4166 85.5356C36.2677 82.1478 37.4277 77.7478 39.6854 73.1456L39.7688 72.9756C39.811 72.89 39.8977 72.8356 39.9932 72.8356H42.171C42.2577 72.8356 42.3388 72.8811 42.3843 72.9545C42.4299 73.0289 42.4332 73.1211 42.3943 73.1978L42.1721 73.6378C39.8765 78.19 38.7354 82.3922 38.9599 85.4711C39.0366 86.5345 39.2788 87.4311 39.6777 88.1367C39.7188 88.2089 39.7632 88.2822 39.811 88.3545C40.0977 88.79 40.4566 89.1322 40.8788 89.3689C41.3977 89.66 42.0321 89.8089 42.7654 89.8089C45.2466 89.8089 48.6932 88.0889 52.221 85.09C52.401 84.9367 52.5821 84.78 52.7632 84.62C56.2488 81.5367 59.5643 77.4489 62.0988 73.1111L62.1865 72.9611C62.231 72.8845 62.3132 72.8367 62.4021 72.8367H64.6321C64.721 72.8367 64.8032 72.8845 64.8477 72.9611C64.8921 73.0378 64.8932 73.1333 64.8488 73.21L64.591 73.6633C61.9999 78.2222 58.561 82.5745 54.9066 85.9189C54.7343 86.0767 54.561 86.2322 54.3877 86.3867C50.0877 90.1922 45.8821 92.2889 42.5466 92.2889ZM40.1488 73.3356L40.1343 73.3656C37.9132 77.8933 36.771 82.2078 36.9166 85.5133C36.981 86.9867 37.2988 88.2356 37.8588 89.2245C38.1932 89.8133 38.6143 90.3122 39.1132 90.7045C39.5354 91.0378 40.0177 91.2978 40.5466 91.4778C41.151 91.6845 41.8243 91.7889 42.5477 91.7889C45.761 91.7889 49.8488 89.7378 54.0577 86.0122C54.2288 85.86 54.3999 85.7067 54.571 85.55C58.1866 82.24 61.5921 77.93 64.1588 73.4145L64.2043 73.3345H62.5465L62.531 73.3611C59.971 77.7445 56.6199 81.8745 53.0954 84.9933C52.9121 85.1556 52.7288 85.3145 52.5454 85.47C48.9288 88.5445 45.3643 90.3078 42.7665 90.3078C41.9465 90.3078 41.2288 90.1378 40.6354 89.8045C40.1432 89.5278 39.7254 89.1311 39.3954 88.6278C39.3421 88.5467 39.2921 88.4645 39.2454 88.3822C38.8088 87.6122 38.5466 86.6456 38.4632 85.5067C38.2332 82.3389 39.3921 78.0445 41.7277 73.4122L41.7665 73.3345H40.1488V73.3356Z" fill="#F9FAFB"/>
<path d="M89.1266 41.1333L82.6199 53.2555L71.811 73.3889H64.111H62.5755H41.6788H40.1822H30.2888L47.6055 41.1333H89.1266Z" fill="#D0D5DD"/>
<path d="M71.8111 73.6391H30.2889C30.2011 73.6391 30.12 73.5925 30.0745 73.5169C30.0289 73.4413 30.0267 73.348 30.0689 73.2702L47.3856 41.0147C47.4289 40.9336 47.5133 40.8824 47.6056 40.8824H89.1267C89.2145 40.8824 89.2956 40.9291 89.3411 41.0036C89.3867 41.078 89.3889 41.1724 89.3467 41.2502L72.0311 73.5058C71.9878 73.588 71.9033 73.6391 71.8111 73.6391ZM30.7067 73.1391H71.6622L88.7089 41.3836H47.7556L30.7067 73.1391Z" fill="#F9FAFB"/>
<path d="M75.3333 48.9222C75.6522 48.9222 75.8677 49.1634 75.8255 49.4656C75.7811 49.7689 75.49 50.0189 75.1733 50.0222L54.4766 50.2934C54.1577 50.2934 53.9422 50.0511 53.9855 49.7511C54.03 49.4467 54.3211 49.1978 54.6366 49.1934L75.3333 48.9222Z" fill="#F7F9FC"/>
<path d="M72.5678 53.4944C72.8889 53.4944 73.1033 53.7367 73.06 54.0367C73.0155 54.3411 72.7244 54.59 72.4089 54.5944L51.7122 54.8656C51.3933 54.8656 51.1778 54.6244 51.22 54.3222C51.2644 54.0189 51.5556 53.7689 51.8722 53.7656L72.5678 53.4944Z" fill="#F7F9FC"/>
<path d="M69.8034 58.0656C70.1212 58.0656 70.3378 58.3067 70.2934 58.6089C70.2501 58.9122 69.9578 59.1622 69.6434 59.1655L48.9467 59.4367C48.6278 59.4367 48.4123 59.1944 48.4556 58.8944C48.4989 58.59 48.7912 58.3411 49.1067 58.3367L69.8034 58.0656Z" fill="#F7F9FC"/>
<path d="M67.0378 62.6389C67.3589 62.6389 67.5722 62.8811 67.53 63.1811C67.4855 63.4855 67.1944 63.7344 66.8778 63.7389L46.1811 64.01C45.8633 64.01 45.6466 63.7689 45.6911 63.4666C45.7355 63.1633 46.0266 62.9133 46.3411 62.91L67.0378 62.6389Z" fill="#F7F9FC"/>
<path d="M43.2988 47.2011C43.8177 47.2589 43.9955 47.6889 43.6988 48.1622C43.4033 48.6345 42.7444 48.9722 42.2255 48.9156C41.7099 48.8589 41.5288 48.4278 41.8244 47.9556C42.121 47.4811 42.7833 47.1434 43.2988 47.2011Z" fill="#98A2B3"/>
<path d="M42.3432 49.1489C42.2954 49.1489 42.2476 49.1466 42.2009 49.1411C41.8832 49.1055 41.6443 48.9544 41.5276 48.7133C41.4043 48.4589 41.4421 48.1389 41.6321 47.8344C41.9754 47.2855 42.7176 46.9077 43.3232 46.9744C43.6421 47.01 43.881 47.1611 43.9976 47.4011C44.121 47.6555 44.0821 47.9766 43.8909 48.2822C43.5754 48.7889 42.9187 49.1489 42.3432 49.1489ZM43.1798 47.4222C42.7632 47.4222 42.2498 47.7055 42.0176 48.0766C41.9121 48.2444 41.8832 48.4055 41.9365 48.5155C41.9821 48.61 42.0943 48.6722 42.251 48.69C42.681 48.7378 43.2565 48.4411 43.5054 48.0422C43.6121 47.8722 43.6421 47.7111 43.5876 47.6011C43.5421 47.5066 43.4298 47.4455 43.2732 47.4278C43.2432 47.4233 43.2121 47.4222 43.1798 47.4222Z" fill="#F9FAFB"/>
<path d="M49.4966 37.3022C50.0699 37.3656 50.2577 37.8778 49.881 38.4056L44.2444 46.3822C44.1088 46.5744 43.8355 46.7056 43.6233 46.6822L43.5966 46.6778C43.401 46.6433 43.3377 46.4744 43.4355 46.2933L47.8588 38.1822C48.1388 37.6678 48.8377 37.2711 49.4177 37.2978C49.4455 37.2978 49.471 37.2989 49.4966 37.3022Z" fill="#98A2B3"/>
<path d="M43.6756 46.9111C43.65 46.9111 43.6245 46.91 43.5989 46.9067C43.5945 46.9067 43.59 46.9056 43.5856 46.9044L43.5589 46.9C43.3956 46.8711 43.2711 46.7822 43.2067 46.6489C43.14 46.51 43.1511 46.3411 43.2367 46.1833L47.6611 38.0722C47.9845 37.48 48.7634 37.0389 49.43 37.0689C49.4656 37.0711 49.4934 37.0722 49.5223 37.0756C49.86 37.1133 50.12 37.2844 50.2378 37.5478C50.3689 37.84 50.3067 38.2011 50.0667 38.5367L44.4311 46.5122C44.2623 46.7522 43.9545 46.9111 43.6756 46.9111ZM43.6545 46.4556C43.7867 46.4667 43.9734 46.3722 44.0589 46.25L49.6956 38.2733C49.8378 38.0744 49.8845 37.8733 49.8223 37.7333C49.7711 37.62 49.6467 37.5467 49.4723 37.5278C49.4523 37.5256 49.4334 37.5244 49.4134 37.5233C48.9145 37.5011 48.2978 37.8522 48.06 38.29L43.6367 46.4011C43.6245 46.4233 43.6211 46.4389 43.6189 46.4478C43.6234 46.4489 43.6289 46.4511 43.6378 46.4522L43.6545 46.4556Z" fill="#F9FAFB"/>
<path d="M50.8822 35.0767C55.7322 35.6122 57.4122 39.6434 54.6377 44.08C51.8644 48.5145 45.6844 51.6767 40.8344 51.1411C35.9866 50.6056 34.3066 46.5745 37.0799 42.14C39.8544 37.7022 46.0344 34.54 50.8822 35.0767Z" fill="#98A2B3"/>
<path d="M41.9244 51.4266C41.5466 51.4266 41.1744 51.4066 40.81 51.3666C38.5 51.1111 36.79 50.0655 35.9944 48.4233C35.1311 46.6411 35.4566 44.3066 36.8877 42.0189C39.6988 37.5222 45.99 34.3078 50.9077 34.8511C53.2177 35.1066 54.9288 36.1522 55.7244 37.7955C56.5877 39.5778 56.2622 41.9133 54.8311 44.2011C52.2277 48.3622 46.6433 51.4266 41.9244 51.4266ZM49.7811 35.2444C45.2122 35.2444 39.8 38.2189 37.2733 42.2589C35.9277 44.4111 35.6111 46.5844 36.4044 48.2233C37.1288 49.72 38.7122 50.6755 40.86 50.9133C45.6244 51.44 51.7177 48.32 54.4455 43.9578C55.7922 41.8055 56.1088 39.6311 55.3155 37.9922C54.59 36.4944 53.0077 35.54 50.8588 35.3022C50.5055 35.2633 50.1455 35.2444 49.7811 35.2444Z" fill="#F9FAFB"/>
<path d="M43.6989 48.1622C43.9945 47.6889 43.8178 47.2578 43.2989 47.2011C42.7834 47.1444 42.1212 47.4822 41.8256 47.9555C41.53 48.4278 41.7112 48.8589 42.2267 48.9155C42.7456 48.9722 43.4045 48.6344 43.6989 48.1622Z" fill="#F9FAFB"/>
<path d="M42.3433 49.1489C42.2955 49.1489 42.2477 49.1466 42.2011 49.1411C41.8833 49.1055 41.6444 48.9544 41.5277 48.7133C41.4044 48.4589 41.4422 48.1389 41.6322 47.8344C41.9755 47.2855 42.7166 46.9077 43.3233 46.9744C43.6422 47.01 43.8811 47.1611 43.9977 47.4011C44.1211 47.6555 44.0822 47.9766 43.8911 48.2822C43.5755 48.7889 42.9188 49.1489 42.3433 49.1489ZM43.18 47.4222C42.7633 47.4222 42.25 47.7055 42.0177 48.0766C41.9122 48.2444 41.8833 48.4055 41.9366 48.5155C41.9822 48.61 42.0944 48.6722 42.2511 48.69C42.6822 48.7378 43.2566 48.4411 43.5055 48.0422C43.6122 47.8722 43.6422 47.7111 43.5877 47.6011C43.5422 47.5066 43.43 47.4455 43.2733 47.4278C43.2433 47.4233 43.2122 47.4222 43.18 47.4222Z" fill="#F9FAFB"/>
<path d="M49.8812 38.4045C50.2578 37.8779 50.07 37.3656 49.4967 37.3012C49.4712 37.2979 49.4456 37.2968 49.4189 37.2956C48.8389 37.269 48.14 37.6656 47.86 38.1801L43.4367 46.2912C43.3378 46.4723 43.4023 46.6412 43.5978 46.6756L43.6245 46.6801C43.8367 46.7034 44.11 46.5723 44.2456 46.3801L49.8812 38.4045Z" fill="#F9FAFB"/>
<path d="M43.6756 46.9112C43.65 46.9112 43.6245 46.9101 43.5989 46.9067C43.5945 46.9067 43.59 46.9056 43.5856 46.9045L43.5589 46.9001C43.3956 46.8712 43.2711 46.7823 43.2067 46.649C43.14 46.5101 43.1511 46.3412 43.2367 46.1834L47.6611 38.0723C47.9845 37.4801 48.7634 37.0389 49.43 37.0689C49.4645 37.0712 49.4934 37.0723 49.5223 37.0756C49.86 37.1134 50.12 37.2845 50.2378 37.5478C50.3689 37.8401 50.3067 38.2012 50.0667 38.5367L44.4311 46.5123C44.2623 46.7523 43.9545 46.9112 43.6756 46.9112ZM43.6545 46.4556C43.7845 46.4667 43.9734 46.3723 44.0589 46.2501L49.6956 38.2734V38.2723C49.8367 38.0745 49.8845 37.8723 49.8211 37.7334C49.77 37.6201 49.6456 37.5467 49.4711 37.5278C49.4511 37.5256 49.4323 37.5245 49.4123 37.5234C48.9123 37.5001 48.2978 37.8523 48.0589 38.2901L43.6356 46.4012C43.6234 46.4234 43.62 46.439 43.6178 46.4478C43.6223 46.449 43.6278 46.4512 43.6367 46.4523L43.6545 46.4556Z" fill="#F9FAFB"/>
</svg>
